<svg xmlns="http://www.w3.org/2000/svg" xmlns:xlink="http://www.w3.org/1999/xlink" viewBox="0 0 96.06 96.86"><defs><style>.cls-1,.cls-10,.cls-11,.cls-12,.cls-13,.cls-14,.cls-2,.cls-3,.cls-4,.cls-5,.cls-6,.cls-7,.cls-8,.cls-9{fill:none;stroke-linecap:round;stroke-linejoin:round;stroke-width:2.27px;}.cls-1{stroke:url(#新建渐变色板_1);}.cls-2{stroke:url(#新建渐变色板_1-2);}.cls-3{stroke:url(#新建渐变色板_1-3);}.cls-4{stroke:url(#新建渐变色板_1-4);}.cls-5{stroke:url(#新建渐变色板_1-5);}.cls-6{stroke:url(#新建渐变色板_1-6);}.cls-7{stroke:url(#新建渐变色板_1-7);}.cls-8{stroke:url(#新建渐变色板_1-8);}.cls-9{stroke:url(#新建渐变色板_1-9);}.cls-10{stroke:url(#新建渐变色板_1-10);}.cls-11{stroke:url(#新建渐变色板_1-11);}.cls-12{stroke:url(#新建渐变色板_1-12);}.cls-13{stroke:url(#新建渐变色板_1-13);}.cls-14{stroke:url(#新建渐变色板_1-14);}</style><linearGradient id="新建渐变色板_1" x1="78.68" y1="36.93" x2="86.49" y2="36.93" gradientUnits="userSpaceOnUse"><stop offset="0" stop-color="#00d7ff"/><stop offset="0.09" stop-color="#0fd9ff"/><stop offset="0.27" stop-color="#36dfff"/><stop offset="0.52" stop-color="#75e9ff"/><stop offset="0.83" stop-color="#cbf7ff"/><stop offset="1" stop-color="#fff"/></linearGradient><linearGradient id="新建渐变色板_1-2" x1="16.98" y1="75.3" x2="29.62" y2="75.3" xlink:href="#新建渐变色板_1"/><linearGradient id="新建渐变色板_1-3" x1="1.74" y1="80.15" x2="35.16" y2="80.15" xlink:href="#新建渐变色板_1"/><linearGradient id="新建渐变色板_1-4" x1="0" y1="10.46" x2="12.34" y2="10.46" xlink:href="#新建渐变色板_1"/><linearGradient id="新建渐变色板_1-5" x1="61.43" y1="45.27" x2="71.03" y2="45.27" xlink:href="#新建渐变色板_1"/><linearGradient id="新建渐变色板_1-6" x1="41.64" y1="43.33" x2="55.34" y2="43.33" xlink:href="#新建渐变色板_1"/><linearGradient id="新建渐变色板_1-7" x1="28.33" y1="27.2" x2="35.78" y2="27.2" xlink:href="#新建渐变色板_1"/><linearGradient id="新建渐变色板_1-8" x1="18.93" y1="16.77" x2="23.75" y2="16.77" xlink:href="#新建渐变色板_1"/><linearGradient id="新建渐变色板_1-9" x1="23.85" y1="40.77" x2="86.74" y2="40.77" gradientTransform="translate(86.77 -20.3) rotate(80.87)" xlink:href="#新建渐变色板_1"/><linearGradient id="新建渐变色板_1-10" x1="14.53" y1="40.77" x2="96.06" y2="40.77" xlink:href="#新建渐变色板_1"/><linearGradient id="新建渐变色板_1-11" x1="10.07" y1="10.46" x2="23.75" y2="10.46" xlink:href="#新建渐变色板_1"/><linearGradient id="新建渐变色板_1-12" x1="31.97" y1="33.35" x2="45.66" y2="33.35" xlink:href="#新建渐变色板_1"/><linearGradient id="新建渐变色板_1-13" x1="67.26" y1="36.93" x2="80.94" y2="36.93" xlink:href="#新建渐变色板_1"/><linearGradient id="新建渐变色板_1-14" x1="51.27" y1="53.32" x2="64.96" y2="53.32" xlink:href="#新建渐变色板_1"/></defs><g id="图层_2" data-name="图层 2"><g id="图层_2-2" data-name="图层 2"><line class="cls-1" x1="85.36" y1="36.93" x2="79.81" y2="36.93"/><line class="cls-2" x1="18.11" y1="70.11" x2="28.49" y2="80.49"/><path class="cls-3" d="M34,74.94,15.39,93.59A7.37,7.37,0,0,1,5,93.59H5A7.37,7.37,0,0,1,5,83.21L23.65,64.57"/><line class="cls-4" x1="11.2" y1="10.46" x2="1.13" y2="10.46"/><line class="cls-5" x1="69.9" y1="40.77" x2="62.56" y2="49.77"/><line class="cls-6" x1="54.2" y1="49.2" x2="42.77" y2="37.47"/><line class="cls-7" x1="34.64" y1="29.48" x2="29.46" y2="24.92"/><line class="cls-8" x1="22.62" y1="18.33" x2="20.06" y2="15.21"/><circle class="cls-9" cx="55.29" cy="40.77" r="30.31" transform="matrix(0.16, -0.99, 0.99, 0.16, 6.27, 88.89)"/><circle class="cls-10" cx="55.29" cy="40.77" r="39.63"/><path class="cls-11" d="M22.62,10.46a5.71,5.71,0,1,1-5.71-5.71A5.71,5.71,0,0,1,22.62,10.46Z"/><circle class="cls-12" cx="38.82" cy="33.35" r="5.71"/><path class="cls-13" d="M79.81,36.93a5.71,5.71,0,1,1-5.71-5.71A5.71,5.71,0,0,1,79.81,36.93Z"/><path class="cls-14" d="M63.83,53.32a5.71,5.71,0,1,1-5.71-5.71A5.71,5.71,0,0,1,63.83,53.32Z"/></g></g></svg>