<svg xmlns="http://www.w3.org/2000/svg" xmlns:xlink="http://www.w3.org/1999/xlink" viewBox="0 0 124.91 88.76"><defs><style>.cls-1,.cls-2,.cls-3,.cls-5,.cls-6{fill:none;stroke-linecap:round;stroke-linejoin:round;stroke-width:2.04px;}.cls-1{stroke:url(#新建渐变色板_1);}.cls-2{stroke:url(#新建渐变色板_1-2);}.cls-3{stroke:url(#新建渐变色板_1-3);}.cls-4{fill:url(#新建渐变色板_1-4);}.cls-5{stroke:url(#新建渐变色板_1-5);}.cls-6{stroke:url(#新建渐变色板_1-6);}</style><linearGradient id="新建渐变色板_1" x1="27.39" y1="78.06" x2="124.91" y2="78.06" gradientUnits="userSpaceOnUse"><stop offset="0" stop-color="#00d7ff"/><stop offset="0.09" stop-color="#0fd9ff"/><stop offset="0.27" stop-color="#36dfff"/><stop offset="0.52" stop-color="#75e9ff"/><stop offset="0.83" stop-color="#cbf7ff"/><stop offset="1" stop-color="#fff"/></linearGradient><linearGradient id="新建渐变色板_1-2" x1="37" y1="44.38" x2="101.73" y2="44.38" xlink:href="#新建渐变色板_1"/><linearGradient id="新建渐变色板_1-3" x1="28.41" y1="75.94" x2="28.41" y2="45.23" xlink:href="#新建渐变色板_1"/><linearGradient id="新建渐变色板_1-4" x1="28.41" y1="75.94" x2="28.41" y2="45.23" xlink:href="#新建渐变色板_1"/><linearGradient id="新建渐变色板_1-5" x1="0" y1="60.35" x2="56.83" y2="60.35" gradientTransform="translate(82.9 21.88) rotate(79.99)" xlink:href="#新建渐变色板_1"/><linearGradient id="新建渐变色板_1-6" x1="27.39" y1="10.71" x2="77.17" y2="10.71" xlink:href="#新建渐变色板_1"/></defs><g id="图层_2" data-name="图层 2"><g id="图层_2-2" data-name="图层 2"><polyline class="cls-1" points="54.61 68.37 123.89 68.37 123.89 87.74 28.41 87.74"/><polyline class="cls-2" points="38.02 34.7 100.71 34.7 100.71 54.07 55.8 54.07"/><line class="cls-3" x1="28.41" y1="74.92" x2="28.41" y2="48.58"/><polygon class="cls-4" points="31.87 52.65 28.41 49.18 24.95 52.65 24.95 49.71 28.41 46.25 31.87 49.71 31.87 52.65"/><circle class="cls-5" cx="28.41" cy="60.35" r="27.39" transform="translate(-35.96 77.84) rotate(-79.99)"/><rect class="cls-6" x="28.41" y="1.02" width="47.74" height="19.37"/></g></g></svg>