<svg xmlns="http://www.w3.org/2000/svg" xmlns:xlink="http://www.w3.org/1999/xlink" viewBox="0 0 114.1 98.7"><defs><style>.cls-1,.cls-10,.cls-11,.cls-12,.cls-13,.cls-14,.cls-15,.cls-16,.cls-17,.cls-18,.cls-19,.cls-2,.cls-20,.cls-21,.cls-22,.cls-3,.cls-4,.cls-5,.cls-6,.cls-7,.cls-8,.cls-9{fill:none;stroke-linecap:round;stroke-linejoin:round;stroke-width:2.27px;}.cls-1{stroke:url(#新建渐变色板_1);}.cls-2{stroke:url(#新建渐变色板_1-2);}.cls-3{stroke:url(#新建渐变色板_1-3);}.cls-4{stroke:url(#新建渐变色板_1-4);}.cls-5{stroke:url(#新建渐变色板_1-5);}.cls-6{stroke:url(#新建渐变色板_1-6);}.cls-7{stroke:url(#新建渐变色板_1-7);}.cls-8{stroke:url(#新建渐变色板_1-8);}.cls-9{stroke:url(#新建渐变色板_1-9);}.cls-10{stroke:url(#新建渐变色板_1-10);}.cls-11{stroke:url(#新建渐变色板_1-11);}.cls-12{stroke:url(#新建渐变色板_1-12);}.cls-13{stroke:url(#新建渐变色板_1-13);}.cls-14{stroke:url(#新建渐变色板_1-14);}.cls-15{stroke:url(#新建渐变色板_1-15);}.cls-16{stroke:url(#新建渐变色板_1-16);}.cls-17{stroke:url(#新建渐变色板_1-17);}.cls-18{stroke:url(#新建渐变色板_1-18);}.cls-19{stroke:url(#新建渐变色板_1-19);}.cls-20{stroke:url(#新建渐变色板_1-20);}.cls-21{stroke:url(#新建渐变色板_1-21);}.cls-22{stroke:url(#新建渐变色板_1-22);}</style><linearGradient id="新建渐变色板_1" y1="47.18" x2="2.27" y2="47.18" gradientUnits="userSpaceOnUse"><stop offset="0" stop-color="#00d7ff"/><stop offset="0.09" stop-color="#0fd9ff"/><stop offset="0.27" stop-color="#36dfff"/><stop offset="0.52" stop-color="#75e9ff"/><stop offset="0.83" stop-color="#cbf7ff"/><stop offset="1" stop-color="#fff"/></linearGradient><linearGradient id="新建渐变色板_1-2" x1="5.79" y1="46.89" x2="17.89" y2="46.89" xlink:href="#新建渐变色板_1"/><linearGradient id="新建渐变色板_1-3" x1="21.41" y1="47.02" x2="38.21" y2="47.02" xlink:href="#新建渐变色板_1"/><linearGradient id="新建渐变色板_1-4" x1="56.16" y1="47.02" x2="68.05" y2="47.02" xlink:href="#新建渐变色板_1"/><linearGradient id="新建渐变色板_1-5" x1="71.57" y1="47.02" x2="83.47" y2="47.02" xlink:href="#新建渐变色板_1"/><linearGradient id="新建渐变色板_1-6" x1="86.99" y1="47.02" x2="98.88" y2="47.02" xlink:href="#新建渐变色板_1"/><linearGradient id="新建渐变色板_1-7" x1="41.73" y1="47.02" x2="52.63" y2="47.02" xlink:href="#新建渐变色板_1"/><linearGradient id="新建渐变色板_1-8" x1="102.41" y1="46.99" x2="114.1" y2="46.99" xlink:href="#新建渐变色板_1"/><linearGradient id="新建渐变色板_1-9" x1="28.47" y1="15.87" x2="46" y2="15.87" xlink:href="#新建渐变色板_1"/><linearGradient id="新建渐变色板_1-10" x1="68.01" y1="15.84" x2="85.63" y2="15.84" xlink:href="#新建渐变色板_1"/><linearGradient id="新建渐变色板_1-11" x1="43.67" y1="16.41" x2="52.07" y2="16.41" xlink:href="#新建渐变色板_1"/><linearGradient id="新建渐变色板_1-12" x1="62.04" y1="16.41" x2="70.44" y2="16.41" xlink:href="#新建渐变色板_1"/><linearGradient id="新建渐变色板_1-13" x1="67.29" y1="81.22" x2="86.79" y2="81.22" xlink:href="#新建渐变色板_1"/><linearGradient id="新建渐变色板_1-14" x1="27.31" y1="81.29" x2="47.07" y2="81.29" xlink:href="#新建渐变色板_1"/><linearGradient id="新建渐变色板_1-15" x1="61.55" y1="80.81" x2="70.95" y2="80.81" xlink:href="#新建渐变色板_1"/><linearGradient id="新建渐变色板_1-16" x1="43.15" y1="80.81" x2="52.55" y2="80.81" xlink:href="#新建渐变色板_1"/><linearGradient id="新建渐变色板_1-17" x1="24.11" y1="79.6" x2="89.99" y2="79.6" xlink:href="#新建渐变色板_1"/><linearGradient id="新建渐变色板_1-18" x1="41.36" y1="94.21" x2="72.52" y2="94.21" xlink:href="#新建渐变色板_1"/><linearGradient id="新建渐变色板_1-19" x1="40.09" y1="5.13" x2="74.01" y2="5.13" xlink:href="#新建渐变色板_1"/><linearGradient id="新建渐变色板_1-20" x1="26.8" y1="15.82" x2="87.3" y2="15.82" xlink:href="#新建渐变色板_1"/><linearGradient id="新建渐变色板_1-21" x1="11.53" y1="82.88" x2="102.57" y2="82.88" xlink:href="#新建渐变色板_1"/><linearGradient id="新建渐变色板_1-22" x1="13.34" y1="13.94" x2="100.77" y2="13.94" xlink:href="#新建渐变色板_1"/></defs><g id="图层_2" data-name="图层 2"><g id="图层_2-2" data-name="图层 2"><line class="cls-1" x1="1.13" y1="38.66" x2="1.13" y2="55.71"/><path class="cls-2" d="M16.42,40a8.73,8.73,0,0,0-4.32-1c-2.72,0-6,3.91-3.71,5.71s8.36,3.68,8.36,6.63-2.61,3.52-4.56,3.52a20.08,20.08,0,0,1-5.26-1.26"/><ellipse class="cls-3" cx="29.81" cy="47.02" rx="7.27" ry="8.07"/><ellipse class="cls-4" cx="62.1" cy="47.02" rx="4.81" ry="8.07"/><ellipse class="cls-5" cx="77.52" cy="47.02" rx="4.81" ry="8.07"/><ellipse class="cls-6" cx="92.94" cy="47.02" rx="4.81" ry="8.07"/><path class="cls-7" d="M51.5,39H44.2v7.13s3.78-1.36,6.24,1.6-.6,7.4-3.65,7.4-3.92-.9-3.92-.9"/><polyline class="cls-8" points="103.54 40.58 108.52 39.39 108.52 54.59 104.14 54.59 112.97 54.59"/><path class="cls-9" d="M29.61,26.75C32.93,17.06,38.32,9.33,44.87,5"/><path class="cls-10" d="M69.15,4.93C75.73,9.26,81.16,17,84.5,26.75"/><path class="cls-11" d="M50.93,6.07c-2.61,4.49-4.76,11.75-6.13,20.68"/><path class="cls-12" d="M69.3,26.75c-1.36-8.93-3.51-16.19-6.13-20.68"/><path class="cls-13" d="M85.66,68.2c-3.25,11.87-9.48,21.3-17.23,26"/><path class="cls-14" d="M45.93,94.39C38.06,89.7,31.73,80.2,28.44,68.2"/><path class="cls-15" d="M62.68,93.42c3.21-5,5.77-14,7.14-25.22"/><path class="cls-16" d="M44.28,68.2c1.38,11.22,3.94,20.27,7.14,25.22"/><path class="cls-17" d="M25.25,85.58a48.23,48.23,0,0,1,63.6,0"/><path class="cls-18" d="M42.5,95.33a48.42,48.42,0,0,1,28.89-.07"/><path class="cls-19" d="M72.88,3.8A48.2,48.2,0,0,1,57.05,6.46,48.25,48.25,0,0,1,41.22,3.8"/><path class="cls-20" d="M86.17,10.93a48,48,0,0,1-29.12,9.78,48,48,0,0,1-29.11-9.78"/><path class="cls-21" d="M12.67,68.2a48.23,48.23,0,0,0,88.77,0"/><path class="cls-22" d="M99.63,26.75a48.19,48.19,0,0,0-85.16,0"/></g></g></svg>