<svg xmlns="http://www.w3.org/2000/svg" xmlns:xlink="http://www.w3.org/1999/xlink" viewBox="0 0 1250.81 319.34"
     >
  <defs>
    <style>.cls-1,.cls-3,.cls-5,.cls-7,.cls-9{opacity:0.1;}.cls-1{fill:url(#未命名的渐变_42);}.cls-2{fill:url(#未命名的渐变_4);}.cls-3{fill:url(#未命名的渐变_42-2);}.cls-4{fill:url(#未命名的渐变_4-2);}.cls-5{fill:url(#未命名的渐变_42-3);}.cls-6{fill:url(#未命名的渐变_4-3);}.cls-7{fill:url(#未命名的渐变_42-4);}.cls-8{fill:url(#未命名的渐变_4-4);}.cls-9{fill:none;stroke-miterlimit:10;stroke-width:1.45px;stroke:url(#未命名的渐变_41);}.cls-10{fill:#fff;}.cls-11{fill:#00dcff;}</style>
    <linearGradient id="未命名的渐变_42" x1="630.53" y1="2114.76" x2="410.09" y2="2114.76" gradientTransform="translate(2257.76 -362.85) rotate(90)" gradientUnits="userSpaceOnUse">
      <stop offset="0" stop-color="#fff" stop-opacity="0.5"/>
      <stop offset="1" stop-color="#fff"/>
    </linearGradient>
    <linearGradient id="未命名的渐变_4" x1="476.12" y1="1862.41" x2="410.08" y2="1862.41" gradientTransform="translate(2257.76 -362.85) rotate(90)" gradientUnits="userSpaceOnUse">
      <stop offset="0" stop-color="#00dcff" stop-opacity="1">
        <animate attributeName="stop-opacity" 
                 values="1;0.93;0.76;0.61;0.48;0.38;0.3;0.24;0.21;0.2;0.21;0.24;0.3;0.38;0.48;0.61;0.76;0.93;1" 
                 dur="5s" repeatCount="indefinite"></animate>
      </stop>
      <stop offset="0.01" stop-color="#00dcff" stop-opacity="0.93">
        <animate attributeName="stop-opacity" 
                 values="0.93;0.76;0.61;0.48;0.38;0.3;0.24;0.21;0.2;0.21;0.24;0.3;0.38;0.48;0.61;0.76;0.93;1;1"
                 dur="5s" repeatCount="indefinite"></animate>
      </stop>
      <stop offset="0.05" stop-color="#00dcff" stop-opacity="0.76">
        <animate attributeName="stop-opacity" 
                 values="0.76;0.61;0.48;0.38;0.3;0.24;0.21;0.2;0.21;0.24;0.3;0.38;0.48;0.61;0.76;0.93;1;1;0.93"
                 dur="5s" repeatCount="indefinite"></animate>
      </stop>
      <stop offset="0.1" stop-color="#00dcff" stop-opacity="0.61">
        <animate attributeName="stop-opacity" 
                 values="0.61;0.48;0.38;0.3;0.24;0.21;0.2;0.21;0.24;0.3;0.38;0.48;0.61;0.76;0.93;1;1;0.93;0.76"
                 dur="5s" repeatCount="indefinite"></animate>
      </stop>
      <stop offset="0.14" stop-color="#00dcff" stop-opacity="0.48">
        <animate attributeName="stop-opacity" 
                 values="0.48;0.38;0.3;0.24;0.21;0.2;0.21;0.24;0.3;0.38;0.48;0.61;0.76;0.93;1;1;0.93;0.76;0.61"
                 dur="5s" repeatCount="indefinite"></animate>
      </stop>
      <stop offset="0.19" stop-color="#00dcff" stop-opacity="0.38">
        <animate attributeName="stop-opacity" 
                 values="0.38;0.3;0.24;0.21;0.2;0.21;0.24;0.3;0.38;0.48;0.61;0.76;0.93;1;1;0.93;0.76;0.61;0.48"
                 dur="5s" repeatCount="indefinite"></animate>
      </stop>
      <stop offset="0.24" stop-color="#00dcff" stop-opacity="0.3">
        <animate attributeName="stop-opacity" 
                 values="0.3;0.24;0.21;0.2;0.21;0.24;0.3;0.38;0.48;0.61;0.76;0.93;1;1;0.93;0.76;0.61;0.48;0.38"
                 dur="5s" repeatCount="indefinite"></animate>
      </stop>
      <stop offset="0.31" stop-color="#00dcff" stop-opacity="0.24">
        <animate attributeName="stop-opacity" 
                 values="0.24;0.21;0.2;0.21;0.24;0.3;0.38;0.48;0.61;0.76;0.93;1;1;0.93;0.76;0.61;0.48;0.38;0.3"
                 dur="5s" repeatCount="indefinite"></animate>
      </stop>
      <stop offset="0.38" stop-color="#00dcff" stop-opacity="0.21">
        <animate attributeName="stop-opacity" 
                 values="0.21;0.2;0.21;0.24;0.3;0.38;0.48;0.61;0.76;0.93;1;1;0.93;0.76;0.61;0.48;0.38;0.3;0.24"
                 dur="5s" repeatCount="indefinite"></animate>
      </stop>
      <stop offset="0.5" stop-color="#00dcff" stop-opacity="0.2">
        <animate attributeName="stop-opacity" 
                 values="0.2;0.21;0.24;0.3;0.38;0.48;0.61;0.76;0.93;1;1;0.93;0.76;0.61;0.48;0.38;0.3;0.24;0.21"
                 dur="5s" repeatCount="indefinite"></animate>
      </stop>
      <stop offset="0.62" stop-color="#00dcff" stop-opacity="0.21">
        <animate attributeName="stop-opacity" 
                 values="0.21;0.24;0.3;0.38;0.48;0.61;0.76;0.93;1;1;0.93;0.76;0.61;0.48;0.38;0.3;0.24;0.21;0.2"
                 dur="5s" repeatCount="indefinite"></animate>
      </stop>
      <stop offset="0.69" stop-color="#00dcff" stop-opacity="0.24">
        <animate attributeName="stop-opacity" 
                 values="0.24;0.3;0.38;0.48;0.61;0.76;0.93;1;1;0.93;0.76;0.61;0.48;0.38;0.3;0.24;0.21;0.2;0.21"
                 dur="5s" repeatCount="indefinite"></animate>
      </stop>
      <stop offset="0.76" stop-color="#00dcff" stop-opacity="0.3">
        <animate attributeName="stop-opacity" 
                 values="0.3;0.38;0.48;0.61;0.76;0.93;1;1;0.93;0.76;0.61;0.48;0.38;0.3;0.24;0.21;0.2;0.21;0.24"
                 dur="5s" repeatCount="indefinite"></animate>
      </stop>
      <stop offset="0.81" stop-color="#00dcff" stop-opacity="0.38">
        <animate attributeName="stop-opacity" 
                 values="0.38;0.48;0.61;0.76;0.93;1;1;0.93;0.76;0.61;0.48;0.38;0.3;0.24;0.21;0.2;0.21;0.24;0.3"
                 dur="5s" repeatCount="indefinite"></animate>
      </stop>
      <stop offset="0.86" stop-color="#00dcff" stop-opacity="0.48">
        <animate attributeName="stop-opacity" 
                 values="0.48;0.61;0.76;0.93;1;1;0.93;0.76;0.61;0.48;0.38;0.3;0.24;0.21;0.2;0.21;0.24;0.3;0.38"
                 dur="5s" repeatCount="indefinite"></animate>
      </stop>
      <stop offset="0.9" stop-color="#00dcff" stop-opacity="0.61">
        <animate attributeName="stop-opacity" 
                 values="0.61;0.76;0.93;1;1;0.93;0.76;0.61;0.48;0.38;0.3;0.24;0.21;0.2;0.21;0.24;0.3;0.38;0.48"
                 dur="5s" repeatCount="indefinite"></animate>
      </stop>
      <stop offset="0.95" stop-color="#00dcff" stop-opacity="0.76">
        <animate attributeName="stop-opacity" 
                 values="0.76;0.93;1;1;0.93;0.76;0.61;0.48;0.38;0.3;0.24;0.21;0.2;0.21;0.24;0.3;0.38;0.48;0.61"
                 dur="5s" repeatCount="indefinite"></animate>
      </stop>
      <stop offset="0.99" stop-color="#00dcff" stop-opacity="0.93">
        <animate attributeName="stop-opacity" 
                 values="0.93;1;1;0.93;0.76;0.61;0.48;0.38;0.3;0.24;0.21;0.2;0.21;0.24;0.3;0.38;0.48;0.61;0.76"
                 dur="5s" repeatCount="indefinite"></animate>
      </stop>
      <stop offset="1" stop-color="#00dcff" stop-opacity="1">
        <animate attributeName="stop-opacity" 
                 values="1;1;0.93;0.76;0.61;0.48;0.38;0.3;0.24;0.21;0.2;0.21;0.24;0.3;0.38;0.48;0.61;0.76;0.93"
                 dur="5s" repeatCount="indefinite"></animate>
      </stop>
    </linearGradient>
    <linearGradient id="未命名的渐变_42-2" x1="630.53" y1="1862.41" x2="476.12" y2="1862.41" xlink:href="#未命名的渐变_42"/>
    <linearGradient id="未命名的渐变_4-2" x1="507.11" y1="1610.06" x2="410.08" y2="1610.06" xlink:href="#未命名的渐变_4"/>
    <linearGradient id="未命名的渐变_42-3" x1="630.53" y1="1610.06" x2="507.11" y2="1610.06" xlink:href="#未命名的渐变_42"/>
    <linearGradient id="未命名的渐变_4-3" x1="542.08" y1="1357.71" x2="410.08" y2="1357.71" xlink:href="#未命名的渐变_4"/>
    <linearGradient id="未命名的渐变_42-4" x1="630.53" y1="1357.71" x2="542.08" y2="1357.71" xlink:href="#未命名的渐变_42"/>
    <linearGradient id="未命名的渐变_4-4" x1="630.53" y1="1105.37" x2="410.08" y2="1105.37" xlink:href="#未命名的渐变_4"/>
    <linearGradient id="未命名的渐变_41" x1="642.39" y1="268.4" x2="642.39" y2="47.12" gradientUnits="userSpaceOnUse">
      <stop offset="0" stop-color="#fff"/>
      <stop offset="1" stop-color="#fff" stop-opacity="0.5"/>
    </linearGradient>
  </defs>
  <g id="图层_2" data-name="图层 2">
    <g id="图层_2-2" data-name="图层 2">
      <rect class="cls-1" x="77.7" y="47.24" width="130.61" height="220.44"/>
      <rect class="cls-2" x="330.05" y="47.24" width="130.61" height="66.03"/>
      <rect class="cls-3" x="330.05" y="113.27" width="130.61" height="154.41"/>
      <rect class="cls-4" x="582.4" y="47.24" width="130.61" height="97.03"/>
      <rect class="cls-5" x="582.4" y="144.26" width="130.61" height="123.42"/>
      <rect class="cls-6" x="834.75" y="47.24" width="130.61" height="132"/>
      <rect class="cls-7" x="834.75" y="179.23" width="130.61" height="88.45"/>
      <rect class="cls-8" x="1087.09" y="47.24" width="130.61" height="220.44"/>
      <path class="cls-9" d="M67.81,47.12V267.68H1217.7"/>
      <path class="cls-10" d="M40.35,47.41a7.57,7.57,0,0,1-.25,2,4.78,4.78,0,0,1-.79,1.69,4,4,0,0,1-1.41,1.17,5.2,5.2,0,0,1-4.14,0,3.9,3.9,0,0,1-1.4-1.17,4.78,4.78,0,0,1-.79-1.69,7.57,7.57,0,0,1-.25-2V43a7.68,7.68,0,0,1,.25-2,4.82,4.82,0,0,1,.79-1.68,3.9,3.9,0,0,1,1.4-1.17,5.09,5.09,0,0,1,4.14,0,4,4,0,0,1,1.41,1.17A4.82,4.82,0,0,1,40.1,41a7.68,7.68,0,0,1,.25,2ZM39,43.08a7,7,0,0,0-.18-1.63,4,4,0,0,0-.58-1.3,2.82,2.82,0,0,0-1-.85,3.52,3.52,0,0,0-2.89,0,2.71,2.71,0,0,0-1,.85,4.17,4.17,0,0,0-.57,1.3,7,7,0,0,0-.18,1.63v4.29A6.87,6.87,0,0,0,32.82,49a4,4,0,0,0,.57,1.29,2.71,2.71,0,0,0,1,.85,3.52,3.52,0,0,0,2.89,0,2.82,2.82,0,0,0,1-.85A3.82,3.82,0,0,0,38.85,49,6.87,6.87,0,0,0,39,47.37Z"/>
      <path class="cls-10" d="M46.86,41.26a2.38,2.38,0,0,1-.17.91,1.86,1.86,0,0,1-.44.7,2.23,2.23,0,0,1-.67.44,2.32,2.32,0,0,1-.84.15,2.35,2.35,0,0,1-.86-.15,2.28,2.28,0,0,1-.68-.44,2,2,0,0,1-.44-.7,2.38,2.38,0,0,1-.16-.91V40a2.38,2.38,0,0,1,.16-.91,2,2,0,0,1,.44-.69,2.12,2.12,0,0,1,.68-.45,2.35,2.35,0,0,1,.86-.15,2.32,2.32,0,0,1,.84.15,2.08,2.08,0,0,1,.67.45,1.9,1.9,0,0,1,.44.69,2.38,2.38,0,0,1,.17.91Zm-1-1.35a1.35,1.35,0,0,0-.32-.95,1.11,1.11,0,0,0-.84-.33,1.15,1.15,0,0,0-.86.33,1.31,1.31,0,0,0-.33.95v1.41a1.29,1.29,0,0,0,.33.93,1.15,1.15,0,0,0,.86.33,1.11,1.11,0,0,0,.84-.33,1.33,1.33,0,0,0,.32-.93ZM44.83,52.39a.49.49,0,0,1-.89,0,.52.52,0,0,1,0-.37L49,38a.55.55,0,0,1,.26-.26.43.43,0,0,1,.37,0,.51.51,0,0,1,.28.26.43.43,0,0,1,0,.35Zm6.45-1.91a2.43,2.43,0,0,1-.16.92,2.06,2.06,0,0,1-.45.69,2,2,0,0,1-.68.44,2.39,2.39,0,0,1-.86.15,2.23,2.23,0,0,1-.83-.15,2,2,0,0,1-.68-.44,2.06,2.06,0,0,1-.45-.69,2.65,2.65,0,0,1-.16-.92V49.16a2.57,2.57,0,0,1,.16-.9,2,2,0,0,1,.45-.7,2.1,2.1,0,0,1,.68-.44,2.23,2.23,0,0,1,.83-.15,2.39,2.39,0,0,1,.86.15,2.1,2.1,0,0,1,.68.44,2,2,0,0,1,.45.7,2.36,2.36,0,0,1,.16.9Zm-1-1.37a1.29,1.29,0,0,0-.32-.92,1.18,1.18,0,0,0-.88-.32,1.11,1.11,0,0,0-.83.32,1.29,1.29,0,0,0-.32.92v1.43a1.26,1.26,0,0,0,.32.93,1.12,1.12,0,0,0,.83.33,1.15,1.15,0,0,0,.87-.33,1.23,1.23,0,0,0,.33-.93Z"/>
      <path class="cls-10" d="M17.54,90.35a.6.6,0,0,1-.18.44.58.58,0,0,1-.43.18H11.8a.54.54,0,0,1-.42-.18.6.6,0,0,1-.18-.44.58.58,0,0,1,.18-.43.57.57,0,0,1,.42-.17h5.13a.61.61,0,0,1,.43.17A.58.58,0,0,1,17.54,90.35Z"/>
      <path class="cls-10" d="M28.86,95.57a.62.62,0,0,1-.19.46.6.6,0,0,1-.44.18H21A.63.63,0,0,1,20.5,96a.65.65,0,0,1-.17-.46,4.62,4.62,0,0,1,.17-1.26,5.78,5.78,0,0,1,.44-1.09,6.05,6.05,0,0,1,.65-.94,8.46,8.46,0,0,1,.78-.8,12.55,12.55,0,0,1,1.12-.93l1.16-.86,1.1-.86a6.13,6.13,0,0,0,.91-.93,3.86,3.86,0,0,0,.63-1,3.05,3.05,0,0,0,.24-1.22,3.9,3.9,0,0,0-.17-1.15,2.87,2.87,0,0,0-.52-.94,2.58,2.58,0,0,0-.9-.64,3.34,3.34,0,0,0-1.29-.23,5.23,5.23,0,0,0-1.18.12,3.58,3.58,0,0,0-.92.34,2.54,2.54,0,0,0-.48.28l-.32.25a1.07,1.07,0,0,1-.24.17.4.4,0,0,1-.24.07.61.61,0,0,1-.44-.19.63.63,0,0,1-.2-.47.79.79,0,0,1,.05-.24.72.72,0,0,1,.17-.23,4.89,4.89,0,0,1,1.65-1,6.24,6.24,0,0,1,2.18-.34,4.66,4.66,0,0,1,1.87.34,3.76,3.76,0,0,1,1.3.93,4,4,0,0,1,.76,1.34,5.16,5.16,0,0,1,.25,1.57,4.35,4.35,0,0,1-.28,1.57,5.15,5.15,0,0,1-.74,1.29,7.69,7.69,0,0,1-1.05,1.09c-.4.33-.81.66-1.23,1l-1.27.94a10.11,10.11,0,0,0-1.15,1,6.32,6.32,0,0,0-.9,1.12A3.46,3.46,0,0,0,21.73,95h6.5a.6.6,0,0,1,.44.18A.58.58,0,0,1,28.86,95.57Z"/>
      <path class="cls-10" d="M40.35,91.12a7.57,7.57,0,0,1-.25,2,4.78,4.78,0,0,1-.79,1.69A4,4,0,0,1,37.9,96a5.09,5.09,0,0,1-4.14,0,3.88,3.88,0,0,1-1.4-1.16,4.78,4.78,0,0,1-.79-1.69,7.57,7.57,0,0,1-.25-2V86.73a7.68,7.68,0,0,1,.25-2,4.82,4.82,0,0,1,.79-1.68,3.9,3.9,0,0,1,1.4-1.17,5.09,5.09,0,0,1,4.14,0,4,4,0,0,1,1.41,1.17,4.82,4.82,0,0,1,.79,1.68,7.68,7.68,0,0,1,.25,2ZM39,86.79a7,7,0,0,0-.18-1.63,3.87,3.87,0,0,0-.58-1.3,2.85,2.85,0,0,0-1-.86,3.63,3.63,0,0,0-2.89,0,2.74,2.74,0,0,0-1,.86,4.07,4.07,0,0,0-.57,1.3,7,7,0,0,0-.18,1.63v4.29a6.93,6.93,0,0,0,.18,1.62A4,4,0,0,0,33.39,94a2.71,2.71,0,0,0,1,.85,3.52,3.52,0,0,0,2.89,0,2.82,2.82,0,0,0,1-.85,3.82,3.82,0,0,0,.58-1.29A6.93,6.93,0,0,0,39,91.08Z"/>
      <path class="cls-10" d="M46.86,85a2.42,2.42,0,0,1-.17.91,1.82,1.82,0,0,1-.44.69,1.91,1.91,0,0,1-.67.44,2.13,2.13,0,0,1-.84.16,2.16,2.16,0,0,1-.86-.16,1.91,1.91,0,0,1-1.12-1.13A2.42,2.42,0,0,1,42.6,85V83.65a2.36,2.36,0,0,1,.16-.9,2,2,0,0,1,.44-.69,2.12,2.12,0,0,1,.68-.45,2.35,2.35,0,0,1,.86-.15,2.32,2.32,0,0,1,.84.15,2.08,2.08,0,0,1,.67.45,1.9,1.9,0,0,1,.44.69,2.37,2.37,0,0,1,.17.9Zm-1-1.35a1.35,1.35,0,0,0-.32-1,1.11,1.11,0,0,0-.84-.33,1.15,1.15,0,0,0-.86.33,1.31,1.31,0,0,0-.33,1V85a1.25,1.25,0,0,0,.33.92,1.12,1.12,0,0,0,.86.34,1.08,1.08,0,0,0,.84-.34A1.29,1.29,0,0,0,45.9,85ZM44.83,96.1a.49.49,0,0,1-.89,0,.55.55,0,0,1,0-.38l5.11-14a.55.55,0,0,1,.26-.26.4.4,0,0,1,.37,0,.48.48,0,0,1,.28.26.43.43,0,0,1,0,.35Zm6.45-1.91a2.38,2.38,0,0,1-.16.91,2.11,2.11,0,0,1-.45.7,2,2,0,0,1-.68.44,2.39,2.39,0,0,1-.86.15,2.23,2.23,0,0,1-.83-.15,2,2,0,0,1-.68-.44,2.11,2.11,0,0,1-.45-.7,2.59,2.59,0,0,1-.16-.91V92.87a2.67,2.67,0,0,1,.16-.91,2.06,2.06,0,0,1,.45-.69,2.1,2.1,0,0,1,.68-.44,2.23,2.23,0,0,1,.83-.15,2.39,2.39,0,0,1,.86.15,2.1,2.1,0,0,1,.68.44,2.06,2.06,0,0,1,.45.69,2.45,2.45,0,0,1,.16.91Zm-1-1.38A1.26,1.26,0,0,0,50,91.9a1.18,1.18,0,0,0-.88-.33,1.12,1.12,0,0,0-.83.33,1.26,1.26,0,0,0-.32.91v1.44a1.3,1.3,0,0,0,.32.93,1.12,1.12,0,0,0,.83.33,1.15,1.15,0,0,0,.87-.33,1.26,1.26,0,0,0,.33-.93Z"/>
      <path class="cls-10" d="M17.54,134.06a.6.6,0,0,1-.18.44.58.58,0,0,1-.43.18H11.8a.54.54,0,0,1-.42-.18.6.6,0,0,1-.18-.44.58.58,0,0,1,.18-.43.54.54,0,0,1,.42-.17h5.13a.57.57,0,0,1,.43.17A.58.58,0,0,1,17.54,134.06Z"/>
      <path class="cls-10" d="M29.07,136.3a.64.64,0,0,1-.17.46.54.54,0,0,1-.42.18H27.2v2.52a.65.65,0,0,1-.65.66.68.68,0,0,1-.47-.19.64.64,0,0,1-.19-.47v-2.52H20.77a.58.58,0,0,1-.43-.18.62.62,0,0,1-.18-.46.67.67,0,0,1,.07-.31l4.58-10.4a.64.64,0,0,1,.86-.35.68.68,0,0,1,.35.36.62.62,0,0,1,0,.5l-4.22,9.58h4.09v-3.26a.62.62,0,0,1,.19-.46.67.67,0,0,1,.47-.18A.63.63,0,0,1,27,132a.62.62,0,0,1,.19.46v3.26h1.28a.54.54,0,0,1,.42.18A.6.6,0,0,1,29.07,136.3Z"/>
      <path class="cls-10" d="M40.35,134.82a7.64,7.64,0,0,1-.25,2,4.78,4.78,0,0,1-.79,1.69,4.11,4.11,0,0,1-1.41,1.16,5.09,5.09,0,0,1-4.14,0,4,4,0,0,1-1.4-1.16,4.78,4.78,0,0,1-.79-1.69,7.64,7.64,0,0,1-.25-2v-4.38a7.62,7.62,0,0,1,.25-2,4.74,4.74,0,0,1,.79-1.68,4,4,0,0,1,1.4-1.18,5.2,5.2,0,0,1,4.14,0,4.16,4.16,0,0,1,1.41,1.18,4.74,4.74,0,0,1,.79,1.68,7.62,7.62,0,0,1,.25,2ZM39,130.5a7,7,0,0,0-.18-1.63,3.78,3.78,0,0,0-.58-1.3,2.85,2.85,0,0,0-1-.86,3.63,3.63,0,0,0-2.89,0,2.74,2.74,0,0,0-1,.86,4,4,0,0,0-.57,1.3,7,7,0,0,0-.18,1.63v4.28a7,7,0,0,0,.18,1.63,4,4,0,0,0,.57,1.29,2.81,2.81,0,0,0,1,.85,3.52,3.52,0,0,0,2.89,0,2.93,2.93,0,0,0,1-.85,3.82,3.82,0,0,0,.58-1.29,7,7,0,0,0,.18-1.63Z"/>
      <path class="cls-10" d="M46.86,128.68a2.42,2.42,0,0,1-.17.91,1.93,1.93,0,0,1-1.11,1.13,2.13,2.13,0,0,1-.84.16,2.16,2.16,0,0,1-.86-.16,2,2,0,0,1-.68-.44,2,2,0,0,1-.44-.69,2.42,2.42,0,0,1-.16-.91v-1.32a2.36,2.36,0,0,1,.16-.9,2,2,0,0,1,.44-.69,2,2,0,0,1,.68-.45,2.35,2.35,0,0,1,.86-.15,2.32,2.32,0,0,1,.84.15,1.93,1.93,0,0,1,.67.45,1.9,1.9,0,0,1,.44.69,2.37,2.37,0,0,1,.17.9Zm-1-1.36a1.34,1.34,0,0,0-.32-.94,1.11,1.11,0,0,0-.84-.34,1.16,1.16,0,0,0-.86.34,1.3,1.3,0,0,0-.33.94v1.42a1.25,1.25,0,0,0,.33.92,1.12,1.12,0,0,0,.86.34,1.08,1.08,0,0,0,.84-.34,1.29,1.29,0,0,0,.32-.92ZM44.83,139.8a.49.49,0,0,1-.25.28.53.53,0,0,1-.64-.24.55.55,0,0,1,0-.38l5.11-14a.57.57,0,0,1,.26-.27.47.47,0,0,1,.37,0,.55.55,0,0,1,.28.26.45.45,0,0,1,0,.36Zm6.45-1.9a2.38,2.38,0,0,1-.16.91,2.21,2.21,0,0,1-.45.7A2.1,2.1,0,0,1,50,140a2.39,2.39,0,0,1-.86.15,2.23,2.23,0,0,1-.83-.15,2.1,2.1,0,0,1-.68-.44,2.21,2.21,0,0,1-.45-.7,2.59,2.59,0,0,1-.16-.91v-1.32a2.67,2.67,0,0,1,.16-.91,2.06,2.06,0,0,1,.45-.69,2,2,0,0,1,.68-.44,2.23,2.23,0,0,1,.83-.16,2.39,2.39,0,0,1,.86.16,2,2,0,0,1,.68.44,2.06,2.06,0,0,1,.45.69,2.45,2.45,0,0,1,.16.91Zm-1-1.38a1.26,1.26,0,0,0-.32-.91,1.18,1.18,0,0,0-.88-.33,1.12,1.12,0,0,0-.83.33,1.26,1.26,0,0,0-.32.91V138a1.3,1.3,0,0,0,.32.93,1.12,1.12,0,0,0,.83.33,1.15,1.15,0,0,0,.87-.33,1.26,1.26,0,0,0,.33-.93Z"/>
      <path class="cls-10" d="M17.54,177.77a.58.58,0,0,1-.18.43.56.56,0,0,1-.43.19H11.8a.52.52,0,0,1-.42-.19.6.6,0,0,1,0-.86.54.54,0,0,1,.42-.18h5.13a.61.61,0,0,1,.61.61Z"/>
      <path class="cls-10" d="M28.92,179.29a5.25,5.25,0,0,1-.32,1.88,4,4,0,0,1-.89,1.42,3.89,3.89,0,0,1-1.37.9,4.84,4.84,0,0,1-1.77.32,4.09,4.09,0,0,1-1.76-.38,3.83,3.83,0,0,1-1.35-1.06,4.93,4.93,0,0,1-.86-1.68,7.67,7.67,0,0,1-.31-2.24,8.46,8.46,0,0,1,.42-2.63,13.15,13.15,0,0,1,1.11-2.49,17.81,17.81,0,0,1,1.55-2.27,24.6,24.6,0,0,1,1.77-2,.7.7,0,0,1,.46-.2.66.66,0,0,1,.48.19.64.64,0,0,1,.19.47.69.69,0,0,1-.05.24.77.77,0,0,1-.17.22c-.37.37-.75.77-1.12,1.2s-.74.89-1.08,1.37-.65,1-.94,1.49a10.83,10.83,0,0,0-.71,1.6,4.63,4.63,0,0,1,1.21-.58,4.34,4.34,0,0,1,1.22-.18,5.15,5.15,0,0,1,1.63.26,4,4,0,0,1,1.37.8,3.76,3.76,0,0,1,.94,1.37A5.07,5.07,0,0,1,28.92,179.29Zm-1.32,0a3.78,3.78,0,0,0-.24-1.41,2.73,2.73,0,0,0-.64-1,2.56,2.56,0,0,0-1-.6,3.83,3.83,0,0,0-2.09-.1,3.5,3.5,0,0,0-.77.28,4.88,4.88,0,0,0-.64.37,6.31,6.31,0,0,0-.52.41,6.26,6.26,0,0,0-.12,1.2,6.46,6.46,0,0,0,.24,1.88,3.71,3.71,0,0,0,.65,1.29,2.49,2.49,0,0,0,.95.74,2.71,2.71,0,0,0,1.12.23,3.33,3.33,0,0,0,1.26-.22,2.65,2.65,0,0,0,1.56-1.68A4.17,4.17,0,0,0,27.6,179.31Z"/>
      <path class="cls-10" d="M40.35,178.53a7.7,7.7,0,0,1-.25,2,4.74,4.74,0,0,1-.79,1.68,4,4,0,0,1-1.41,1.17,5.09,5.09,0,0,1-4.14,0,3.9,3.9,0,0,1-1.4-1.17,4.74,4.74,0,0,1-.79-1.68,7.7,7.7,0,0,1-.25-2v-4.38a7.57,7.57,0,0,1,.25-2,4.78,4.78,0,0,1,.79-1.69,4.12,4.12,0,0,1,1.4-1.17,5.09,5.09,0,0,1,4.14,0,4.25,4.25,0,0,1,1.41,1.17,4.78,4.78,0,0,1,.79,1.69,7.57,7.57,0,0,1,.25,2ZM39,174.21a7.11,7.11,0,0,0-.18-1.64,3.82,3.82,0,0,0-.58-1.29,2.85,2.85,0,0,0-1-.86,3.52,3.52,0,0,0-2.89,0,2.74,2.74,0,0,0-1,.86,4,4,0,0,0-.57,1.29,7.11,7.11,0,0,0-.18,1.64v4.28a7,7,0,0,0,.18,1.63,4,4,0,0,0,.57,1.29,2.81,2.81,0,0,0,1,.85,3.52,3.52,0,0,0,2.89,0,2.93,2.93,0,0,0,1-.85,3.82,3.82,0,0,0,.58-1.29,7,7,0,0,0,.18-1.63Z"/>
      <path class="cls-10" d="M46.86,172.39a2.46,2.46,0,0,1-.17.91,1.93,1.93,0,0,1-1.11,1.13,2.32,2.32,0,0,1-.84.16,2.35,2.35,0,0,1-.86-.16,2,2,0,0,1-.68-.44,2,2,0,0,1-.44-.69,2.45,2.45,0,0,1-.16-.91v-1.32a2.36,2.36,0,0,1,.16-.9,2.19,2.19,0,0,1,.44-.7,2,2,0,0,1,.68-.44,2.35,2.35,0,0,1,.86-.16,2.32,2.32,0,0,1,.84.16,1.91,1.91,0,0,1,.67.44,2,2,0,0,1,.44.7,2.37,2.37,0,0,1,.17.9Zm-1-1.36a1.32,1.32,0,0,0-.32-.94,1.08,1.08,0,0,0-.84-.34,1.12,1.12,0,0,0-.86.34,1.28,1.28,0,0,0-.33.94v1.42a1.25,1.25,0,0,0,.33.92,1.12,1.12,0,0,0,.86.34,1.08,1.08,0,0,0,.84-.34,1.29,1.29,0,0,0,.32-.92Zm-1.07,12.48a.49.49,0,0,1-.25.28.53.53,0,0,1-.64-.24.55.55,0,0,1,0-.38l5.11-14a.57.57,0,0,1,.26-.27.43.43,0,0,1,.37,0,.55.55,0,0,1,.28.26.45.45,0,0,1,0,.36Zm6.45-1.9a2.38,2.38,0,0,1-.16.91,2.06,2.06,0,0,1-.45.69,1.82,1.82,0,0,1-.68.44,2.39,2.39,0,0,1-.86.16,2.23,2.23,0,0,1-.83-.16,1.82,1.82,0,0,1-.68-.44,2.06,2.06,0,0,1-.45-.69,2.59,2.59,0,0,1-.16-.91v-1.32a2.63,2.63,0,0,1,.16-.91,2.06,2.06,0,0,1,.45-.69,2,2,0,0,1,.68-.44,2,2,0,0,1,.83-.16,2.2,2.2,0,0,1,.86.16,2,2,0,0,1,.68.44,2.06,2.06,0,0,1,.45.69,2.42,2.42,0,0,1,.16.91Zm-1-1.38a1.26,1.26,0,0,0-.32-.91,1.18,1.18,0,0,0-.88-.33,1.12,1.12,0,0,0-.83.33,1.26,1.26,0,0,0-.32.91v1.44a1.3,1.3,0,0,0,.32.93,1.12,1.12,0,0,0,.83.33,1.15,1.15,0,0,0,.87-.33,1.26,1.26,0,0,0,.33-.93Z"/>
      <path class="cls-10" d="M17.54,221.48a.61.61,0,0,1-.61.61H11.8a.54.54,0,0,1-.42-.18.6.6,0,0,1,0-.86.54.54,0,0,1,.42-.18h5.13a.61.61,0,0,1,.61.61Z"/>
      <path class="cls-10" d="M29.34,223.6a3.7,3.7,0,0,1-.35,1.62,3.37,3.37,0,0,1-1,1.23,4.35,4.35,0,0,1-1.48.78,6.14,6.14,0,0,1-1.92.28,6.53,6.53,0,0,1-1.86-.25,4.45,4.45,0,0,1-1.49-.75,3.47,3.47,0,0,1-1-1.22,3.7,3.7,0,0,1-.36-1.67,3.35,3.35,0,0,1,.27-1.39,3.15,3.15,0,0,1,.71-1,5.29,5.29,0,0,1,1.05-.8,13.26,13.26,0,0,1,1.25-.63,7.82,7.82,0,0,1-1-.54,3.53,3.53,0,0,1-.82-.71,3.17,3.17,0,0,1-.56-.94,3.41,3.41,0,0,1-.21-1.25,3.76,3.76,0,0,1,.33-1.63,3.21,3.21,0,0,1,.87-1.17,3.6,3.6,0,0,1,1.28-.69,5.08,5.08,0,0,1,1.52-.23,4.89,4.89,0,0,1,1.55.24,3.67,3.67,0,0,1,1.25.71,3.49,3.49,0,0,1,.84,1.15,3.89,3.89,0,0,1,.3,1.57,3.37,3.37,0,0,1-.18,1.14,3.11,3.11,0,0,1-.52.9,4.32,4.32,0,0,1-.8.73,6.68,6.68,0,0,1-1,.6,11.8,11.8,0,0,1,1.24.59,4.46,4.46,0,0,1,1,.77,3.42,3.42,0,0,1,.73,1.09A3.8,3.8,0,0,1,29.34,223.6Zm-1.32,0a2.43,2.43,0,0,0-.29-1.23,3,3,0,0,0-.76-.86,4.84,4.84,0,0,0-1.1-.62c-.41-.17-.84-.35-1.28-.51-.42.17-.84.35-1.24.54a5.76,5.76,0,0,0-1.06.65,3,3,0,0,0-.76.85,2.24,2.24,0,0,0-.28,1.16,2.61,2.61,0,0,0,.25,1.17,2.29,2.29,0,0,0,.7.87,3.23,3.23,0,0,0,1.06.55,4.45,4.45,0,0,0,1.35.19,4.89,4.89,0,0,0,1.43-.2,3.11,3.11,0,0,0,1.07-.56,2.49,2.49,0,0,0,.67-.88A2.59,2.59,0,0,0,28,223.56Zm-.73-7.18a2.8,2.8,0,0,0-.2-1.12,2.16,2.16,0,0,0-.55-.82,2.48,2.48,0,0,0-.85-.5,3.36,3.36,0,0,0-2.11,0,2.36,2.36,0,0,0-.86.49,2.4,2.4,0,0,0-.58.81,2.83,2.83,0,0,0-.21,1.12,2.25,2.25,0,0,0,.22,1,2.51,2.51,0,0,0,.6.74,3.82,3.82,0,0,0,.87.56,10.21,10.21,0,0,0,1.06.44c.35-.15.68-.3,1-.47a4.44,4.44,0,0,0,.84-.58,2.46,2.46,0,0,0,.56-.73A2,2,0,0,0,27.29,216.38Z"/>
      <path class="cls-10" d="M40.35,222.24a7.7,7.7,0,0,1-.25,2,4.82,4.82,0,0,1-.79,1.68,4,4,0,0,1-1.41,1.17,5.2,5.2,0,0,1-4.14,0,3.9,3.9,0,0,1-1.4-1.17,4.82,4.82,0,0,1-.79-1.68,7.7,7.7,0,0,1-.25-2v-4.39a7.55,7.55,0,0,1,.25-2,4.78,4.78,0,0,1,.79-1.69,3.9,3.9,0,0,1,1.4-1.17,5.09,5.09,0,0,1,4.14,0,4,4,0,0,1,1.41,1.17,4.78,4.78,0,0,1,.79,1.69,7.55,7.55,0,0,1,.25,2ZM39,217.91a7,7,0,0,0-.18-1.63,4,4,0,0,0-.58-1.3,2.82,2.82,0,0,0-1-.85,3.52,3.52,0,0,0-2.89,0,2.71,2.71,0,0,0-1,.85,4.17,4.17,0,0,0-.57,1.3,7,7,0,0,0-.18,1.63v4.29a7,7,0,0,0,.18,1.63,4.21,4.21,0,0,0,.57,1.29,2.81,2.81,0,0,0,1,.85,3.63,3.63,0,0,0,2.89,0,2.93,2.93,0,0,0,1-.85,4,4,0,0,0,.58-1.29A7,7,0,0,0,39,222.2Z"/>
      <path class="cls-10" d="M46.86,216.1a2.46,2.46,0,0,1-.17.91,1.9,1.9,0,0,1-.44.69,2.05,2.05,0,0,1-.67.44,2.32,2.32,0,0,1-.84.15,2.35,2.35,0,0,1-.86-.15,2.1,2.1,0,0,1-.68-.44,2,2,0,0,1-.44-.69,2.45,2.45,0,0,1-.16-.91v-1.32a2.36,2.36,0,0,1,.16-.9,2.09,2.09,0,0,1,.44-.7,2,2,0,0,1,.68-.44,2.16,2.16,0,0,1,.86-.16,2.13,2.13,0,0,1,.84.16,1.91,1.91,0,0,1,.67.44,1.94,1.94,0,0,1,.44.7,2.37,2.37,0,0,1,.17.9Zm-1-1.36a1.32,1.32,0,0,0-.32-.94,1.08,1.08,0,0,0-.84-.34,1.12,1.12,0,0,0-.86.34,1.28,1.28,0,0,0-.33.94v1.42a1.26,1.26,0,0,0,.33.92,1.16,1.16,0,0,0,.86.34,1.11,1.11,0,0,0,.84-.34,1.3,1.3,0,0,0,.32-.92Zm-1.07,12.48a.45.45,0,0,1-.25.27.38.38,0,0,1-.36,0,.42.42,0,0,1-.28-.24.52.52,0,0,1,0-.37l5.11-14a.59.59,0,0,1,.26-.26.43.43,0,0,1,.37,0,.51.51,0,0,1,.28.26.45.45,0,0,1,0,.36Zm6.45-1.9a2.42,2.42,0,0,1-.16.91,2.06,2.06,0,0,1-.45.69,2,2,0,0,1-.68.44,2.39,2.39,0,0,1-.86.15,2.23,2.23,0,0,1-.83-.15,2,2,0,0,1-.68-.44,2.06,2.06,0,0,1-.45-.69,2.63,2.63,0,0,1-.16-.91V224a2.63,2.63,0,0,1,.16-.91,2.06,2.06,0,0,1,.45-.69,2,2,0,0,1,.68-.44,2,2,0,0,1,.83-.16A2.2,2.2,0,0,1,50,222a2,2,0,0,1,.68.44,2.06,2.06,0,0,1,.45.69,2.42,2.42,0,0,1,.16.91Zm-1-1.38A1.24,1.24,0,0,0,50,223a1.18,1.18,0,0,0-.88-.33,1.12,1.12,0,0,0-.83.33,1.24,1.24,0,0,0-.32.91v1.43a1.3,1.3,0,0,0,.32.94,1.11,1.11,0,0,0,.83.32,1.14,1.14,0,0,0,.87-.32,1.27,1.27,0,0,0,.33-.94Z"/>
      <path class="cls-10" d="M6.34,265.18a.6.6,0,0,1-.18.44.6.6,0,0,1-.43.18H.6a.54.54,0,0,1-.42-.18.6.6,0,0,1-.18-.44.6.6,0,0,1,.18-.43.57.57,0,0,1,.42-.17H5.73a.63.63,0,0,1,.43.17A.6.6,0,0,1,6.34,265.18Z"/>
      <path class="cls-10" d="M17.59,270.43a.58.58,0,0,1-.18.43A.6.6,0,0,1,17,271H9.79a.64.64,0,0,1-.44-.18.57.57,0,0,1-.2-.43.61.61,0,0,1,.2-.46.65.65,0,0,1,.44-.19h3.64V258.1l-3.9,2.7a.61.61,0,0,1-.47.11.64.64,0,0,1-.41-.27.66.66,0,0,1-.09-.47.61.61,0,0,1,.27-.41l4.84-3.34a.64.64,0,0,1,.42-.13.67.67,0,0,1,.47.18.63.63,0,0,1,.2.47v12.84H17a.61.61,0,0,1,.44.19A.63.63,0,0,1,17.59,270.43Z"/>
      <path class="cls-10" d="M29.15,266a7.57,7.57,0,0,1-.25,2,4.78,4.78,0,0,1-.79,1.69,4,4,0,0,1-1.41,1.17,5.2,5.2,0,0,1-4.14,0,3.9,3.9,0,0,1-1.4-1.17,4.78,4.78,0,0,1-.79-1.69,7.57,7.57,0,0,1-.25-2v-4.39a7.68,7.68,0,0,1,.25-2,4.82,4.82,0,0,1,.79-1.68,3.9,3.9,0,0,1,1.4-1.17,4.4,4.4,0,0,1,2.07-.44,4.4,4.4,0,0,1,2.07.44,4,4,0,0,1,1.41,1.17,4.82,4.82,0,0,1,.79,1.68,7.68,7.68,0,0,1,.25,2Zm-1.32-4.33a7,7,0,0,0-.18-1.63,4,4,0,0,0-.58-1.3,2.77,2.77,0,0,0-1-.85,3,3,0,0,0-1.43-.31,3.13,3.13,0,0,0-1.45.31,2.71,2.71,0,0,0-1,.85,3.75,3.75,0,0,0-.57,1.3,7,7,0,0,0-.18,1.63v4.29a6.87,6.87,0,0,0,.18,1.62,3.62,3.62,0,0,0,.57,1.29,2.71,2.71,0,0,0,1,.85,3.13,3.13,0,0,0,1.45.31,3,3,0,0,0,1.43-.31,2.77,2.77,0,0,0,1-.85,3.82,3.82,0,0,0,.58-1.29,6.87,6.87,0,0,0,.18-1.62Z"/>
      <path class="cls-10" d="M40.35,266a7.57,7.57,0,0,1-.25,2,4.78,4.78,0,0,1-.79,1.69,4,4,0,0,1-1.41,1.17,5.2,5.2,0,0,1-4.14,0,3.9,3.9,0,0,1-1.4-1.17,4.78,4.78,0,0,1-.79-1.69,7.57,7.57,0,0,1-.25-2v-4.39a7.68,7.68,0,0,1,.25-2,4.82,4.82,0,0,1,.79-1.68,3.9,3.9,0,0,1,1.4-1.17,5.09,5.09,0,0,1,4.14,0,4,4,0,0,1,1.41,1.17,4.82,4.82,0,0,1,.79,1.68,7.68,7.68,0,0,1,.25,2ZM39,261.62a7,7,0,0,0-.18-1.63,4,4,0,0,0-.58-1.3,2.82,2.82,0,0,0-1-.85,3.52,3.52,0,0,0-2.89,0,2.71,2.71,0,0,0-1,.85,4.17,4.17,0,0,0-.57,1.3,7,7,0,0,0-.18,1.63v4.29a6.87,6.87,0,0,0,.18,1.62,4,4,0,0,0,.57,1.29,2.71,2.71,0,0,0,1,.85,3.52,3.52,0,0,0,2.89,0,2.82,2.82,0,0,0,1-.85,3.82,3.82,0,0,0,.58-1.29,6.87,6.87,0,0,0,.18-1.62Z"/>
      <path class="cls-10" d="M46.86,259.8a2.38,2.38,0,0,1-.17.91,1.86,1.86,0,0,1-.44.7,2,2,0,0,1-.67.43,2.13,2.13,0,0,1-.84.16,2.16,2.16,0,0,1-.86-.16,2.07,2.07,0,0,1-.68-.43,2,2,0,0,1-.44-.7,2.38,2.38,0,0,1-.16-.91v-1.31a2.38,2.38,0,0,1,.16-.91,2,2,0,0,1,.44-.69,2.12,2.12,0,0,1,.68-.45,2.35,2.35,0,0,1,.86-.15,2.32,2.32,0,0,1,.84.15,2.08,2.08,0,0,1,.67.45,1.9,1.9,0,0,1,.44.69,2.38,2.38,0,0,1,.17.91Zm-1-1.35a1.35,1.35,0,0,0-.32-.95,1.11,1.11,0,0,0-.84-.33,1.15,1.15,0,0,0-.86.33,1.31,1.31,0,0,0-.33.95v1.41a1.29,1.29,0,0,0,.33.93,1.15,1.15,0,0,0,.86.33,1.11,1.11,0,0,0,.84-.33,1.33,1.33,0,0,0,.32-.93Zm-1.07,12.48a.49.49,0,0,1-.89,0,.52.52,0,0,1,0-.37l5.11-14a.55.55,0,0,1,.26-.26.43.43,0,0,1,.37,0,.51.51,0,0,1,.28.26.43.43,0,0,1,0,.35ZM51.28,269a2.43,2.43,0,0,1-.16.92,2.06,2.06,0,0,1-.45.69,2,2,0,0,1-.68.44,2.39,2.39,0,0,1-.86.15,2.23,2.23,0,0,1-.83-.15,2,2,0,0,1-.68-.44,2.06,2.06,0,0,1-.45-.69A2.65,2.65,0,0,1,47,269V267.7a2.57,2.57,0,0,1,.16-.9,2,2,0,0,1,.45-.7,2.1,2.1,0,0,1,.68-.44,2.23,2.23,0,0,1,.83-.15,2.39,2.39,0,0,1,.86.15,2.1,2.1,0,0,1,.68.44,2,2,0,0,1,.45.7,2.36,2.36,0,0,1,.16.9Zm-1-1.37a1.27,1.27,0,0,0-.32-.92,1.18,1.18,0,0,0-.88-.32,1.11,1.11,0,0,0-.83.32,1.27,1.27,0,0,0-.32.92v1.43a1.28,1.28,0,0,0,.32.93,1.12,1.12,0,0,0,.83.33A1.15,1.15,0,0,0,50,270a1.24,1.24,0,0,0,.33-.93Z"/>
      <path class="cls-10" d="M116.27,38.18a.61.61,0,0,1-.18.45.59.59,0,0,1-.44.19h-7.26a.61.61,0,0,1-.47-.18.63.63,0,0,1-.17-.46,4.63,4.63,0,0,1,.16-1.26,5,5,0,0,1,.45-1.09,5.08,5.08,0,0,1,.65-.94,7.46,7.46,0,0,1,.78-.81,14.26,14.26,0,0,1,1.11-.92l1.17-.86c.38-.29.74-.58,1.09-.87a7.27,7.27,0,0,0,.92-.92,4.5,4.5,0,0,0,.63-1.05,3.19,3.19,0,0,0,.23-1.22,3.58,3.58,0,0,0-.17-1.14,2.62,2.62,0,0,0-.52-.94,2.45,2.45,0,0,0-.89-.64,3.24,3.24,0,0,0-1.3-.24,4.6,4.6,0,0,0-1.17.13,4.07,4.07,0,0,0-.93.33,4.64,4.64,0,0,0-.48.29l-.31.25-.24.17a.52.52,0,0,1-.25.07.67.67,0,0,1-.63-.66.52.52,0,0,1,0-.24.67.67,0,0,1,.16-.24,5.06,5.06,0,0,1,1.65-1,6.27,6.27,0,0,1,2.18-.35,4.62,4.62,0,0,1,1.87.35,3.58,3.58,0,0,1,1.3.93,3.71,3.71,0,0,1,.76,1.34,4.81,4.81,0,0,1,.25,1.56,4.19,4.19,0,0,1-.28,1.58,5.24,5.24,0,0,1-.73,1.28,6.82,6.82,0,0,1-1.06,1.09c-.4.34-.81.66-1.23,1l-1.26.93a12.79,12.79,0,0,0-1.16,1,6.38,6.38,0,0,0-.9,1.13,3.81,3.81,0,0,0-.51,1.34h6.51a.62.62,0,0,1,.44.18A.6.6,0,0,1,116.27,38.18Z"/>
      <path class="cls-10" d="M127.77,33.72a8.16,8.16,0,0,1-.25,2,4.93,4.93,0,0,1-.8,1.68,3.86,3.86,0,0,1-1.41,1.17,4.52,4.52,0,0,1-2.07.44,4.58,4.58,0,0,1-2.07-.44,3.9,3.9,0,0,1-1.4-1.17,4.91,4.91,0,0,1-.79-1.68,7.7,7.7,0,0,1-.25-2V29.34a7.57,7.57,0,0,1,.25-2,4.91,4.91,0,0,1,.79-1.68,4,4,0,0,1,1.4-1.18,4.58,4.58,0,0,1,2.07-.44,4.52,4.52,0,0,1,2.07.44,4,4,0,0,1,1.41,1.18,4.93,4.93,0,0,1,.8,1.68,8,8,0,0,1,.25,2Zm-1.32-4.32a6.94,6.94,0,0,0-.19-1.63,3.6,3.6,0,0,0-.58-1.3,2.77,2.77,0,0,0-1-.86,3.5,3.5,0,0,0-2.88,0,2.58,2.58,0,0,0-1,.86,3.59,3.59,0,0,0-.57,1.3,6.45,6.45,0,0,0-.19,1.63v4.28a6.45,6.45,0,0,0,.19,1.63,3.62,3.62,0,0,0,.57,1.29,2.64,2.64,0,0,0,1,.85,3.5,3.5,0,0,0,2.88,0,2.84,2.84,0,0,0,1-.85,3.63,3.63,0,0,0,.58-1.29,6.94,6.94,0,0,0,.19-1.63Z"/>
      <path class="cls-10" d="M138.67,38.18a.61.61,0,0,1-.18.45.59.59,0,0,1-.44.19h-7.26a.61.61,0,0,1-.47-.18.63.63,0,0,1-.17-.46,4.63,4.63,0,0,1,.16-1.26,5,5,0,0,1,.45-1.09,5.08,5.08,0,0,1,.65-.94,10,10,0,0,1,.78-.81,12.76,12.76,0,0,1,1.12-.92l1.16-.86c.38-.29.74-.58,1.09-.87a6.66,6.66,0,0,0,.92-.92,4.5,4.5,0,0,0,.63-1.05,3,3,0,0,0,.24-1.22,3.58,3.58,0,0,0-.18-1.14,2.47,2.47,0,0,0-1.41-1.58,3.18,3.18,0,0,0-1.3-.24,4.6,4.6,0,0,0-1.17.13,4.25,4.25,0,0,0-.93.33,3.58,3.58,0,0,0-.47.29l-.32.25-.24.17a.48.48,0,0,1-.24.07.62.62,0,0,1-.45-.2.6.6,0,0,1-.19-.46.69.69,0,0,1,.05-.24.71.71,0,0,1,.17-.24,4.92,4.92,0,0,1,1.64-1,6.27,6.27,0,0,1,2.18-.35,4.59,4.59,0,0,1,1.87.35,3.58,3.58,0,0,1,1.3.93,3.71,3.71,0,0,1,.76,1.34,4.81,4.81,0,0,1,.25,1.56,4.19,4.19,0,0,1-.28,1.58,5.24,5.24,0,0,1-.73,1.28,6.82,6.82,0,0,1-1.06,1.09c-.39.34-.8.66-1.23,1l-1.26.93a11.4,11.4,0,0,0-1.15,1,6.93,6.93,0,0,0-.91,1.13,3.81,3.81,0,0,0-.51,1.34h6.51a.62.62,0,0,1,.44.18A.6.6,0,0,1,138.67,38.18Z"/>
      <path class="cls-10" d="M149.77,34.46a5.26,5.26,0,0,1-.27,1.67,4,4,0,0,1-2.25,2.48,5.08,5.08,0,0,1-2.08.39,7.23,7.23,0,0,1-1.64-.19,4.23,4.23,0,0,1-1.52-.75.69.69,0,0,1-.3-.54.65.65,0,0,1,.19-.46.59.59,0,0,1,.45-.2.63.63,0,0,1,.19,0,.52.52,0,0,1,.19.11,3.17,3.17,0,0,0,1.11.6,4.6,4.6,0,0,0,1.33.18,3.81,3.81,0,0,0,1.51-.27,2.79,2.79,0,0,0,1.59-1.79,4.36,4.36,0,0,0,.18-1.26,3.44,3.44,0,0,0-.79-2.47,2.9,2.9,0,0,0-2.17-.81,2.84,2.84,0,0,0-.92.13,2.34,2.34,0,0,0-.74.37,3.68,3.68,0,0,0-.39.33l-.26.26a1.12,1.12,0,0,1-.23.18.51.51,0,0,1-.28.07.63.63,0,0,1-.46-.18.6.6,0,0,1-.16-.48l.22-7a.59.59,0,0,1,.21-.43.64.64,0,0,1,.45-.18h5.4a.65.65,0,0,1,.46.18.6.6,0,0,1,.18.43.6.6,0,0,1-.18.44.62.62,0,0,1-.46.19h-4.82l-.16,5.22a3.38,3.38,0,0,1,1-.55,4,4,0,0,1,1.18-.17,5,5,0,0,1,1.78.3,3.54,3.54,0,0,1,1.32.87,3.79,3.79,0,0,1,.83,1.41A5.83,5.83,0,0,1,149.77,34.46Z"/>
      <path class="cls-10" d="M160,33.7a.54.54,0,0,1-.15.4.57.57,0,0,1-.37.14h-5.8v.6a4.69,4.69,0,0,0,.15,1.22,2.54,2.54,0,0,0,.46.93,2,2,0,0,0,.8.6,2.85,2.85,0,0,0,1.15.21,5.63,5.63,0,0,0,1.53-.18,5.06,5.06,0,0,0,1.11-.46.47.47,0,0,1,.44,0,.55.55,0,0,1,.3.3.62.62,0,0,1,0,.4.6.6,0,0,1-.26.34,5,5,0,0,1-1.47.59,7.65,7.65,0,0,1-1.71.19,4.06,4.06,0,0,1-1.76-.34,3.07,3.07,0,0,1-1.18-.9,3.69,3.69,0,0,1-.66-1.33,6.3,6.3,0,0,1-.2-1.59V32.92a5.89,5.89,0,0,1,.21-1.6,3.69,3.69,0,0,1,.66-1.33,3.09,3.09,0,0,1,1.18-.91,4,4,0,0,1,1.75-.34,4.3,4.3,0,0,1,1.79.33,3.11,3.11,0,0,1,1.17.9,3.51,3.51,0,0,1,.63,1.32,6.3,6.3,0,0,1,.19,1.59Zm-1.24-.94a5,5,0,0,0-.13-1.2,2.4,2.4,0,0,0-.43-.91,1.93,1.93,0,0,0-.78-.59,3,3,0,0,0-1.2-.21,2.73,2.73,0,0,0-1.16.22,1.81,1.81,0,0,0-.79.59,2.39,2.39,0,0,0-.44.92,4.48,4.48,0,0,0-.15,1.2v.38h5.08Z"/>
      <path class="cls-10" d="M370.81,38.18a.61.61,0,0,1-.18.45.59.59,0,0,1-.44.19h-7.26a.61.61,0,0,1-.47-.18.63.63,0,0,1-.17-.46,4.63,4.63,0,0,1,.16-1.26,5,5,0,0,1,.45-1.09,5.08,5.08,0,0,1,.65-.94,7.46,7.46,0,0,1,.78-.81,12.76,12.76,0,0,1,1.12-.92l1.16-.86c.38-.29.74-.58,1.09-.87a6.66,6.66,0,0,0,.92-.92,4.5,4.5,0,0,0,.63-1.05,3,3,0,0,0,.23-1.22,3.58,3.58,0,0,0-.17-1.14,2.62,2.62,0,0,0-.52-.94,2.45,2.45,0,0,0-.89-.64,3.21,3.21,0,0,0-1.3-.24,4.6,4.6,0,0,0-1.17.13,4.07,4.07,0,0,0-.93.33A4.64,4.64,0,0,0,364,26l-.31.25-.24.17a.52.52,0,0,1-.25.07.67.67,0,0,1-.63-.66.52.52,0,0,1,.05-.24.84.84,0,0,1,.16-.24,5.06,5.06,0,0,1,1.65-1,6.27,6.27,0,0,1,2.18-.35,4.62,4.62,0,0,1,1.87.35,3.58,3.58,0,0,1,1.3.93,3.71,3.71,0,0,1,.76,1.34,4.81,4.81,0,0,1,.25,1.56,4.19,4.19,0,0,1-.28,1.58,5.24,5.24,0,0,1-.73,1.28,6.82,6.82,0,0,1-1.06,1.09c-.4.34-.81.66-1.23,1l-1.26.93a12.79,12.79,0,0,0-1.16,1,6.87,6.87,0,0,0-.9,1.13,3.81,3.81,0,0,0-.51,1.34h6.51a.62.62,0,0,1,.44.18A.6.6,0,0,1,370.81,38.18Z"/>
      <path class="cls-10" d="M382.31,33.72a8.16,8.16,0,0,1-.25,2,4.75,4.75,0,0,1-.8,1.68,3.86,3.86,0,0,1-1.41,1.17,4.52,4.52,0,0,1-2.07.44,4.58,4.58,0,0,1-2.07-.44,3.9,3.9,0,0,1-1.4-1.17,4.91,4.91,0,0,1-.79-1.68,8.16,8.16,0,0,1-.25-2V29.34a8,8,0,0,1,.25-2,4.91,4.91,0,0,1,.79-1.68,4,4,0,0,1,1.4-1.18,4.58,4.58,0,0,1,2.07-.44,4.52,4.52,0,0,1,2.07.44,4,4,0,0,1,1.41,1.18,4.75,4.75,0,0,1,.8,1.68,8,8,0,0,1,.25,2ZM381,29.4a6.45,6.45,0,0,0-.19-1.63,3.6,3.6,0,0,0-.58-1.3,2.77,2.77,0,0,0-1-.86,3.5,3.5,0,0,0-2.88,0,2.66,2.66,0,0,0-1,.86,3.59,3.59,0,0,0-.57,1.3,6.45,6.45,0,0,0-.19,1.63v4.28a6.45,6.45,0,0,0,.19,1.63,3.62,3.62,0,0,0,.57,1.29,2.72,2.72,0,0,0,1,.85,3.5,3.5,0,0,0,2.88,0,2.84,2.84,0,0,0,1-.85,3.63,3.63,0,0,0,.58-1.29,6.45,6.45,0,0,0,.19-1.63Z"/>
      <path class="cls-10" d="M393,34.85a4.42,4.42,0,0,1-.28,1.58,3.7,3.7,0,0,1-.85,1.32,4,4,0,0,1-1.41.91,5.47,5.47,0,0,1-2,.34,10.11,10.11,0,0,1-1.14-.07,5.51,5.51,0,0,1-1-.24,4.88,4.88,0,0,1-1.79-1.17.61.61,0,0,1-.22-.46.62.62,0,0,1,.18-.44.58.58,0,0,1,.42-.18.37.37,0,0,1,.21.06,1.5,1.5,0,0,1,.23.17l.3.26a5.27,5.27,0,0,0,.44.31,3.94,3.94,0,0,0,1.08.47,5.48,5.48,0,0,0,1.26.13,4,4,0,0,0,1.44-.24,3,3,0,0,0,1-.66,2.76,2.76,0,0,0,.6-1,3.57,3.57,0,0,0,.2-1.18,2.81,2.81,0,0,0-.29-1.37,2.32,2.32,0,0,0-.77-.87,3.28,3.28,0,0,0-1.13-.46,6.56,6.56,0,0,0-1.35-.16l-.21,0a.67.67,0,0,1-.21-.09.5.5,0,0,1-.15-.17.56.56,0,0,1-.07-.3.52.52,0,0,1,.07-.29.93.93,0,0,1,.16-.18.4.4,0,0,1,.21-.09l.2,0a5.85,5.85,0,0,0,.69-.08,6.77,6.77,0,0,0,.74-.2,4.1,4.1,0,0,0,.7-.34,2.26,2.26,0,0,0,.58-.49,2.39,2.39,0,0,0,.4-.68,2.44,2.44,0,0,0,.15-.89,4,4,0,0,0-.14-1,2.55,2.55,0,0,0-.47-.91,2.5,2.5,0,0,0-.88-.65,3.16,3.16,0,0,0-1.35-.25,4,4,0,0,0-1.2.16,4.2,4.2,0,0,0-1,.4,3.84,3.84,0,0,0-.43.3l-.28.25a1.46,1.46,0,0,1-.22.17.41.41,0,0,1-.23.06.59.59,0,0,1-.4-.15.55.55,0,0,1-.18-.43.7.7,0,0,1,.24-.5,3.48,3.48,0,0,1,.64-.55,4.13,4.13,0,0,1,.83-.46,4.41,4.41,0,0,1,1-.31,5.74,5.74,0,0,1,1.2-.12,4.53,4.53,0,0,1,1.92.37,3.44,3.44,0,0,1,1.25.93,3.49,3.49,0,0,1,.67,1.26,4.89,4.89,0,0,1,.2,1.34,3.67,3.67,0,0,1-.18,1.19,3,3,0,0,1-.49.93,2.76,2.76,0,0,1-.75.69,4.28,4.28,0,0,1-1,.47,5.38,5.38,0,0,1,1.12.47,3.2,3.2,0,0,1,.86.72,3.1,3.1,0,0,1,.56,1A4.52,4.52,0,0,1,393,34.85Z"/>
      <path class="cls-10" d="M404.71,33.72a7.7,7.7,0,0,1-.25,2,4.75,4.75,0,0,1-.8,1.68,3.9,3.9,0,0,1-1.4,1.17,4.58,4.58,0,0,1-2.07.44,4.52,4.52,0,0,1-2.07-.44,3.94,3.94,0,0,1-1.41-1.17,4.91,4.91,0,0,1-.79-1.68,8.16,8.16,0,0,1-.25-2V29.34a8,8,0,0,1,.25-2,4.91,4.91,0,0,1,.79-1.68,4.07,4.07,0,0,1,1.41-1.18,4.52,4.52,0,0,1,2.07-.44,4.58,4.58,0,0,1,2.07.44,4,4,0,0,1,1.4,1.18,4.75,4.75,0,0,1,.8,1.68,7.57,7.57,0,0,1,.25,2Zm-1.32-4.32a6.45,6.45,0,0,0-.19-1.63,3.44,3.44,0,0,0-.58-1.3,2.69,2.69,0,0,0-1-.86,3.17,3.17,0,0,0-1.43-.31,3.26,3.26,0,0,0-1.45.31,2.74,2.74,0,0,0-1,.86,3.59,3.59,0,0,0-.57,1.3A6.94,6.94,0,0,0,397,29.4v4.28a6.94,6.94,0,0,0,.19,1.63,3.62,3.62,0,0,0,.57,1.29,2.81,2.81,0,0,0,1,.85,3.26,3.26,0,0,0,1.45.31,3.17,3.17,0,0,0,1.43-.31,2.75,2.75,0,0,0,1-.85,3.47,3.47,0,0,0,.58-1.29,6.45,6.45,0,0,0,.19-1.63Z"/>
      <path class="cls-10" d="M414.49,33.7a.54.54,0,0,1-.15.4.56.56,0,0,1-.36.14h-5.81v.6a4.69,4.69,0,0,0,.15,1.22,2.54,2.54,0,0,0,.46.93,2,2,0,0,0,.8.6,2.85,2.85,0,0,0,1.15.21,5.63,5.63,0,0,0,1.53-.18,5.06,5.06,0,0,0,1.11-.46.47.47,0,0,1,.44,0,.55.55,0,0,1,.3.3.62.62,0,0,1,0,.4.6.6,0,0,1-.26.34,5,5,0,0,1-1.47.59,7.59,7.59,0,0,1-1.71.19A4.06,4.06,0,0,1,409,38.6a3.07,3.07,0,0,1-1.18-.9,3.52,3.52,0,0,1-.65-1.33,5.87,5.87,0,0,1-.2-1.59V32.92a5.9,5.9,0,0,1,.2-1.6,3.69,3.69,0,0,1,.66-1.33,3.09,3.09,0,0,1,1.18-.91,4,4,0,0,1,1.75-.34,4.3,4.3,0,0,1,1.79.33,3.11,3.11,0,0,1,1.17.9,3.51,3.51,0,0,1,.63,1.32,6.3,6.3,0,0,1,.19,1.59Zm-1.24-.94a5,5,0,0,0-.13-1.2,2.4,2.4,0,0,0-.43-.91,1.93,1.93,0,0,0-.78-.59,3,3,0,0,0-1.2-.21,2.73,2.73,0,0,0-1.16.22,1.81,1.81,0,0,0-.79.59,2.39,2.39,0,0,0-.44.92,4.48,4.48,0,0,0-.15,1.2v.38h5.08Z"/>
      <path class="cls-10" d="M625.35,38.18a.58.58,0,0,1-.19.45.57.57,0,0,1-.43.19h-7.26a.61.61,0,0,1-.47-.18.63.63,0,0,1-.18-.46,4.62,4.62,0,0,1,.17-1.26,5,5,0,0,1,.45-1.09,5.56,5.56,0,0,1,.64-.94,8.65,8.65,0,0,1,.79-.81,14.26,14.26,0,0,1,1.11-.92l1.17-.86c.38-.29.74-.58,1.09-.87a7.27,7.27,0,0,0,.92-.92,4.5,4.5,0,0,0,.63-1.05,3.19,3.19,0,0,0,.23-1.22,3.88,3.88,0,0,0-.17-1.14,2.62,2.62,0,0,0-.52-.94,2.54,2.54,0,0,0-.89-.64,3.24,3.24,0,0,0-1.3-.24,4.74,4.74,0,0,0-1.18.13,4,4,0,0,0-.92.33,4.64,4.64,0,0,0-.48.29l-.31.25-.24.17a.55.55,0,0,1-.25.07.59.59,0,0,1-.44-.2.6.6,0,0,1-.19-.46.52.52,0,0,1,0-.24.67.67,0,0,1,.16-.24,5.06,5.06,0,0,1,1.65-1,6.27,6.27,0,0,1,2.18-.35,4.62,4.62,0,0,1,1.87.35,3.67,3.67,0,0,1,1.3.93,3.71,3.71,0,0,1,.76,1.34,4.81,4.81,0,0,1,.25,1.56,4.19,4.19,0,0,1-.28,1.58,5,5,0,0,1-.74,1.28,6.35,6.35,0,0,1-1.05,1.09c-.4.34-.81.66-1.23,1l-1.27.93a12.62,12.62,0,0,0-1.15,1,6.38,6.38,0,0,0-.9,1.13,3.81,3.81,0,0,0-.51,1.34h6.51a.6.6,0,0,1,.43.18A.58.58,0,0,1,625.35,38.18Z"/>
      <path class="cls-10" d="M636.84,33.72a8.15,8.15,0,0,1-.24,2,4.93,4.93,0,0,1-.8,1.68,3.94,3.94,0,0,1-1.41,1.17,4.52,4.52,0,0,1-2.07.44,4.58,4.58,0,0,1-2.07-.44,3.9,3.9,0,0,1-1.4-1.17,4.91,4.91,0,0,1-.79-1.68,7.7,7.7,0,0,1-.25-2V29.34a7.57,7.57,0,0,1,.25-2,4.91,4.91,0,0,1,.79-1.68,4,4,0,0,1,1.4-1.18,4.58,4.58,0,0,1,2.07-.44,4.52,4.52,0,0,1,2.07.44,4.07,4.07,0,0,1,1.41,1.18,4.93,4.93,0,0,1,.8,1.68,8,8,0,0,1,.24,2Zm-1.31-4.32a6.94,6.94,0,0,0-.19-1.63,3.6,3.6,0,0,0-.58-1.3,2.77,2.77,0,0,0-1-.86,3.5,3.5,0,0,0-2.88,0,2.58,2.58,0,0,0-1,.86,3.78,3.78,0,0,0-.58,1.3,7,7,0,0,0-.18,1.63v4.28a7,7,0,0,0,.18,1.63,3.82,3.82,0,0,0,.58,1.29,2.64,2.64,0,0,0,1,.85,3.5,3.5,0,0,0,2.88,0,2.84,2.84,0,0,0,1-.85,3.63,3.63,0,0,0,.58-1.29,6.94,6.94,0,0,0,.19-1.63Z"/>
      <path class="cls-10" d="M647.49,34.85a4.65,4.65,0,0,1-.28,1.58,3.7,3.7,0,0,1-.85,1.32,4,4,0,0,1-1.41.91,5.47,5.47,0,0,1-2,.34,10,10,0,0,1-1.14-.07,5.32,5.32,0,0,1-1-.24A4.88,4.88,0,0,1,639,37.52a.61.61,0,0,1-.22-.46.62.62,0,0,1,.18-.44.58.58,0,0,1,.42-.18.42.42,0,0,1,.21.06,1.5,1.5,0,0,1,.23.17l.3.26a4.93,4.93,0,0,0,.43.31,4.13,4.13,0,0,0,1.09.47,5.48,5.48,0,0,0,1.26.13,3.89,3.89,0,0,0,1.43-.24,3,3,0,0,0,1-.66,2.79,2.79,0,0,0,.61-1,3.57,3.57,0,0,0,.2-1.18,2.93,2.93,0,0,0-.29-1.37,2.32,2.32,0,0,0-.77-.87,3.28,3.28,0,0,0-1.13-.46,6.56,6.56,0,0,0-1.35-.16l-.21,0a.67.67,0,0,1-.21-.09.66.66,0,0,1-.16-.17.67.67,0,0,1-.06-.3.52.52,0,0,1,.07-.29.69.69,0,0,1,.16-.18.4.4,0,0,1,.2-.09l.21,0a5.85,5.85,0,0,0,.69-.08,6.77,6.77,0,0,0,.74-.2,3.68,3.68,0,0,0,.69-.34,2,2,0,0,0,.58-.49,2.42,2.42,0,0,0,.41-.68,2.44,2.44,0,0,0,.15-.89,4,4,0,0,0-.14-1,2.72,2.72,0,0,0-.47-.91,2.5,2.5,0,0,0-.88-.65,3.18,3.18,0,0,0-1.36-.25,4.1,4.1,0,0,0-1.2.16,4.31,4.31,0,0,0-1,.4,3.84,3.84,0,0,0-.43.3l-.29.25a1.42,1.42,0,0,1-.21.17.45.45,0,0,1-.24.06.6.6,0,0,1-.4-.15.58.58,0,0,1-.17-.43.7.7,0,0,1,.24-.5,3.48,3.48,0,0,1,.64-.55,3.88,3.88,0,0,1,.83-.46,4.27,4.27,0,0,1,1-.31,5.65,5.65,0,0,1,1.19-.12,4.55,4.55,0,0,1,1.93.37,3.44,3.44,0,0,1,1.25.93,3.65,3.65,0,0,1,.67,1.26,4.89,4.89,0,0,1,.2,1.34,3.67,3.67,0,0,1-.18,1.19,3.17,3.17,0,0,1-.49.93,3.08,3.08,0,0,1-.75.69,4.16,4.16,0,0,1-1,.47,5.47,5.47,0,0,1,1.13.47,3.36,3.36,0,0,1,.86.72,3.1,3.1,0,0,1,.56,1A4.52,4.52,0,0,1,647.49,34.85Z"/>
      <path class="cls-10" d="M658.85,34.46a5.26,5.26,0,0,1-.27,1.67,4,4,0,0,1-2.25,2.48,5.08,5.08,0,0,1-2.08.39,7.23,7.23,0,0,1-1.64-.19,4.15,4.15,0,0,1-1.52-.75.69.69,0,0,1-.3-.54.65.65,0,0,1,.19-.46.59.59,0,0,1,.45-.2l.19,0a.62.62,0,0,1,.19.11,3.17,3.17,0,0,0,1.11.6,4.6,4.6,0,0,0,1.33.18,3.81,3.81,0,0,0,1.51-.27,2.83,2.83,0,0,0,1-.73,3,3,0,0,0,.58-1.06,4.36,4.36,0,0,0,.18-1.26,3.44,3.44,0,0,0-.79-2.47,2.9,2.9,0,0,0-2.17-.81,2.84,2.84,0,0,0-.92.13,2.34,2.34,0,0,0-.74.37,3.68,3.68,0,0,0-.39.33l-.27.26a.76.76,0,0,1-.23.18.45.45,0,0,1-.27.07.62.62,0,0,1-.46-.18.6.6,0,0,1-.16-.48l.22-7a.59.59,0,0,1,.21-.43.64.64,0,0,1,.45-.18h5.4a.61.61,0,0,1,.45.18.57.57,0,0,1,.19.43.58.58,0,0,1-.19.44.58.58,0,0,1-.45.19h-4.82l-.16,5.22a3.38,3.38,0,0,1,1-.55,4,4,0,0,1,1.18-.17,4.9,4.9,0,0,1,1.77.3,3.5,3.5,0,0,1,1.33.87,3.79,3.79,0,0,1,.83,1.41A5.83,5.83,0,0,1,658.85,34.46Z"/>
      <path class="cls-10" d="M669,33.7a.54.54,0,0,1-.15.4.57.57,0,0,1-.37.14h-5.8v.6a4.69,4.69,0,0,0,.15,1.22,2.54,2.54,0,0,0,.46.93,2.05,2.05,0,0,0,.79.6,2.93,2.93,0,0,0,1.16.21,5.63,5.63,0,0,0,1.53-.18,5.06,5.06,0,0,0,1.11-.46.47.47,0,0,1,.44,0,.55.55,0,0,1,.3.3.62.62,0,0,1,0,.4.6.6,0,0,1-.26.34,5,5,0,0,1-1.47.59,7.72,7.72,0,0,1-1.71.19,4.14,4.14,0,0,1-1.77-.34,3.11,3.11,0,0,1-1.17-.9,3.69,3.69,0,0,1-.66-1.33,6.3,6.3,0,0,1-.2-1.59V32.92a5.89,5.89,0,0,1,.21-1.6,3.69,3.69,0,0,1,.66-1.33,3.14,3.14,0,0,1,1.17-.91,4.09,4.09,0,0,1,1.76-.34,4.3,4.3,0,0,1,1.79.33,3.11,3.11,0,0,1,1.17.9,3.67,3.67,0,0,1,.63,1.32,6.3,6.3,0,0,1,.19,1.59Zm-1.24-.94a5,5,0,0,0-.13-1.2,2.4,2.4,0,0,0-.43-.91,1.93,1.93,0,0,0-.78-.59,3,3,0,0,0-1.2-.21,2.73,2.73,0,0,0-1.16.22,1.81,1.81,0,0,0-.79.59,2.55,2.55,0,0,0-.45.92,4.94,4.94,0,0,0-.14,1.2v.38h5.08Z"/>
      <path class="cls-10" d="M879.89,38.18a.58.58,0,0,1-.19.45.58.58,0,0,1-.44.19H872a.65.65,0,0,1-.48-.18.67.67,0,0,1-.17-.46,4.62,4.62,0,0,1,.17-1.26,5.52,5.52,0,0,1,.44-1.09,6.27,6.27,0,0,1,.65-.94,10,10,0,0,1,.78-.81c.36-.32.73-.63,1.12-.92l1.17-.86c.38-.29.74-.58,1.09-.87a7.27,7.27,0,0,0,.92-.92,4.5,4.5,0,0,0,.63-1.05,3.19,3.19,0,0,0,.23-1.22,3.88,3.88,0,0,0-.17-1.14,2.62,2.62,0,0,0-.52-.94,2.49,2.49,0,0,0-.9-.64,3.16,3.16,0,0,0-1.29-.24,4.74,4.74,0,0,0-1.18.13,4,4,0,0,0-.92.33,4.64,4.64,0,0,0-.48.29l-.32.25a1.5,1.5,0,0,1-.23.17.55.55,0,0,1-.25.07.59.59,0,0,1-.44-.2.6.6,0,0,1-.19-.46.52.52,0,0,1,.05-.24.67.67,0,0,1,.16-.24,5.06,5.06,0,0,1,1.65-1,6.27,6.27,0,0,1,2.18-.35,4.62,4.62,0,0,1,1.87.35,3.67,3.67,0,0,1,1.3.93,3.86,3.86,0,0,1,.76,1.34,4.81,4.81,0,0,1,.25,1.56,4.19,4.19,0,0,1-.28,1.58,5,5,0,0,1-.74,1.28,6.35,6.35,0,0,1-1,1.09c-.4.34-.81.66-1.23,1l-1.27.93a12.62,12.62,0,0,0-1.15,1,6.38,6.38,0,0,0-.9,1.13,3.46,3.46,0,0,0-.51,1.34h6.5a.6.6,0,0,1,.44.18A.58.58,0,0,1,879.89,38.18Z"/>
      <path class="cls-10" d="M891.38,33.72a7.7,7.7,0,0,1-.25,2,4.74,4.74,0,0,1-.79,1.68,4,4,0,0,1-1.41,1.17,5.09,5.09,0,0,1-4.14,0,3.9,3.9,0,0,1-1.4-1.17,4.91,4.91,0,0,1-.79-1.68,7.7,7.7,0,0,1-.25-2V29.34a7.57,7.57,0,0,1,.25-2,4.91,4.91,0,0,1,.79-1.68,4,4,0,0,1,1.4-1.18,5.09,5.09,0,0,1,4.14,0,4.16,4.16,0,0,1,1.41,1.18,4.74,4.74,0,0,1,.79,1.68,7.57,7.57,0,0,1,.25,2Zm-1.32-4.32a7,7,0,0,0-.18-1.63,3.6,3.6,0,0,0-.58-1.3,2.85,2.85,0,0,0-1-.86,3.5,3.5,0,0,0-2.88,0,2.58,2.58,0,0,0-1,.86,3.78,3.78,0,0,0-.58,1.3,7,7,0,0,0-.18,1.63v4.28a7,7,0,0,0,.18,1.63,3.82,3.82,0,0,0,.58,1.29,2.64,2.64,0,0,0,1,.85,3.5,3.5,0,0,0,2.88,0,2.93,2.93,0,0,0,1-.85,3.63,3.63,0,0,0,.58-1.29,7,7,0,0,0,.18-1.63Z"/>
      <path class="cls-10" d="M902.51,35.2a.69.69,0,0,1-.17.46.58.58,0,0,1-.43.18h-1.28v2.52a.64.64,0,0,1-1.11.46.61.61,0,0,1-.2-.46V35.84h-5.11a.6.6,0,0,1-.44-.18.62.62,0,0,1-.18-.46.76.76,0,0,1,.08-.32l4.58-10.4a.63.63,0,0,1,.35-.35.69.69,0,0,1,.51,0,.6.6,0,0,1,.34.36.62.62,0,0,1,0,.5l-4.22,9.58h4.09V31.32a.61.61,0,0,1,.2-.46.66.66,0,0,1,.47-.18.65.65,0,0,1,.46.18.63.63,0,0,1,.18.46v3.26h1.28a.58.58,0,0,1,.43.18A.64.64,0,0,1,902.51,35.2Z"/>
      <path class="cls-10" d="M913.79,33.72a8.16,8.16,0,0,1-.25,2,4.75,4.75,0,0,1-.8,1.68,3.86,3.86,0,0,1-1.41,1.17,4.52,4.52,0,0,1-2.07.44,4.58,4.58,0,0,1-2.07-.44,3.9,3.9,0,0,1-1.4-1.17,4.91,4.91,0,0,1-.79-1.68,8.16,8.16,0,0,1-.25-2V29.34a8,8,0,0,1,.25-2,4.91,4.91,0,0,1,.79-1.68,4,4,0,0,1,1.4-1.18,4.58,4.58,0,0,1,2.07-.44,4.52,4.52,0,0,1,2.07.44,4,4,0,0,1,1.41,1.18,4.75,4.75,0,0,1,.8,1.68,8,8,0,0,1,.25,2Zm-1.32-4.32a6.45,6.45,0,0,0-.19-1.63,3.6,3.6,0,0,0-.58-1.3,2.77,2.77,0,0,0-1-.86,3.5,3.5,0,0,0-2.88,0,2.66,2.66,0,0,0-1,.86,3.59,3.59,0,0,0-.57,1.3,6.45,6.45,0,0,0-.19,1.63v4.28a6.45,6.45,0,0,0,.19,1.63,3.62,3.62,0,0,0,.57,1.29,2.72,2.72,0,0,0,1,.85,3.5,3.5,0,0,0,2.88,0,2.84,2.84,0,0,0,1-.85,3.63,3.63,0,0,0,.58-1.29,6.45,6.45,0,0,0,.19-1.63Z"/>
      <path class="cls-10" d="M923.57,33.7a.51.51,0,0,1-.16.4.52.52,0,0,1-.36.14h-5.8v.6a4.69,4.69,0,0,0,.15,1.22,2.54,2.54,0,0,0,.46.93,2.05,2.05,0,0,0,.79.6,2.93,2.93,0,0,0,1.16.21,5.51,5.51,0,0,0,1.52-.18,5,5,0,0,0,1.12-.46.46.46,0,0,1,.44,0,.55.55,0,0,1,.3.3.62.62,0,0,1,0,.4.6.6,0,0,1-.26.34,5,5,0,0,1-1.47.59,7.72,7.72,0,0,1-1.71.19A4.11,4.11,0,0,1,918,38.6a3.11,3.11,0,0,1-1.17-.9,3.54,3.54,0,0,1-.66-1.33,6.3,6.3,0,0,1-.2-1.59V32.92a5.89,5.89,0,0,1,.21-1.6,3.39,3.39,0,0,1,.66-1.33,3.14,3.14,0,0,1,1.17-.91,4.09,4.09,0,0,1,1.76-.34,4.3,4.3,0,0,1,1.79.33,3.11,3.11,0,0,1,1.17.9,3.67,3.67,0,0,1,.63,1.32,6.3,6.3,0,0,1,.19,1.59Zm-1.24-.94a5,5,0,0,0-.13-1.2,2.4,2.4,0,0,0-.43-.91,1.93,1.93,0,0,0-.78-.59,3,3,0,0,0-1.2-.21,2.81,2.81,0,0,0-1.17.22,1.84,1.84,0,0,0-.78.59,2.55,2.55,0,0,0-.45.92,4.94,4.94,0,0,0-.14,1.2v.38h5.08Z"/>
      <path class="cls-10" d="M1134.43,38.18a.62.62,0,0,1-.19.45.58.58,0,0,1-.44.19h-7.26a.61.61,0,0,1-.47-.18.67.67,0,0,1-.17-.46,4.62,4.62,0,0,1,.17-1.26,5,5,0,0,1,.44-1.09,5.61,5.61,0,0,1,.65-.94,10,10,0,0,1,.78-.81,14.43,14.43,0,0,1,1.12-.92l1.16-.86c.38-.29.75-.58,1.09-.87a6.66,6.66,0,0,0,.92-.92,3.91,3.91,0,0,0,.63-1.05,3,3,0,0,0,.24-1.22,3.88,3.88,0,0,0-.17-1.14,2.64,2.64,0,0,0-.53-.94,2.45,2.45,0,0,0-.89-.64,3.16,3.16,0,0,0-1.29-.24,4.63,4.63,0,0,0-1.18.13,4,4,0,0,0-.92.33,3.17,3.17,0,0,0-.48.29l-.32.25-.24.17a.48.48,0,0,1-.24.07.62.62,0,0,1-.45-.2.64.64,0,0,1-.19-.46.69.69,0,0,1,0-.24.71.71,0,0,1,.17-.24,4.92,4.92,0,0,1,1.64-1,6.29,6.29,0,0,1,2.19-.35,4.66,4.66,0,0,1,1.87.35,3.63,3.63,0,0,1,1.29.93,3.73,3.73,0,0,1,.77,1.34,5.09,5.09,0,0,1,.25,1.56,4.4,4.4,0,0,1-.28,1.58,5.27,5.27,0,0,1-.74,1.28,6.82,6.82,0,0,1-1.06,1.09c-.39.34-.8.66-1.23,1l-1.26.93a12.62,12.62,0,0,0-1.15,1,6.93,6.93,0,0,0-.91,1.13,3.61,3.61,0,0,0-.5,1.34h6.5a.6.6,0,0,1,.44.18A.61.61,0,0,1,1134.43,38.18Z"/>
      <path class="cls-10" d="M1145.92,33.72a7.7,7.7,0,0,1-.25,2,4.75,4.75,0,0,1-.8,1.68,3.9,3.9,0,0,1-1.4,1.17,5.09,5.09,0,0,1-4.14,0,3.82,3.82,0,0,1-1.4-1.17,4.57,4.57,0,0,1-.79-1.68,7.7,7.7,0,0,1-.25-2V29.34a7.57,7.57,0,0,1,.25-2,4.57,4.57,0,0,1,.79-1.68,4,4,0,0,1,1.4-1.18,5.09,5.09,0,0,1,4.14,0,4,4,0,0,1,1.4,1.18,4.75,4.75,0,0,1,.8,1.68,7.57,7.57,0,0,1,.25,2Zm-1.32-4.32a7,7,0,0,0-.18-1.63,3.62,3.62,0,0,0-.59-1.3,2.69,2.69,0,0,0-1-.86,3.17,3.17,0,0,0-1.43-.31,3.26,3.26,0,0,0-1.45.31,2.74,2.74,0,0,0-1,.86,3.59,3.59,0,0,0-.57,1.3,6.94,6.94,0,0,0-.19,1.63v4.28a6.94,6.94,0,0,0,.19,1.63,3.62,3.62,0,0,0,.57,1.29,2.81,2.81,0,0,0,1,.85,3.26,3.26,0,0,0,1.45.31,3.17,3.17,0,0,0,1.43-.31,2.75,2.75,0,0,0,1-.85,3.64,3.64,0,0,0,.59-1.29,7,7,0,0,0,.18-1.63Z"/>
      <path class="cls-10" d="M1156.72,34.46a5.55,5.55,0,0,1-.26,1.67,4.16,4.16,0,0,1-.82,1.45,4,4,0,0,1-1.43,1,5.13,5.13,0,0,1-2.09.39,7.29,7.29,0,0,1-1.64-.19,4.11,4.11,0,0,1-1.51-.75.67.67,0,0,1-.31-.54.7.7,0,0,1,.19-.46.61.61,0,0,1,.46-.2.57.57,0,0,1,.18,0,.52.52,0,0,1,.19.11,3.26,3.26,0,0,0,1.11.6,4.6,4.6,0,0,0,1.33.18,3.78,3.78,0,0,0,1.51-.27,2.72,2.72,0,0,0,1.59-1.79,4.36,4.36,0,0,0,.18-1.26,3.39,3.39,0,0,0-.79-2.47,2.9,2.9,0,0,0-2.17-.81,2.84,2.84,0,0,0-.92.13,2.45,2.45,0,0,0-.74.37,4.75,4.75,0,0,0-.38.33l-.27.26a1.12,1.12,0,0,1-.23.18.51.51,0,0,1-.28.07.61.61,0,0,1-.45-.18.57.57,0,0,1-.16-.48l.21-7a.57.57,0,0,1,.22-.43.62.62,0,0,1,.44-.18h5.4a.62.62,0,0,1,.46.18.6.6,0,0,1,.18.43.6.6,0,0,1-.18.44.59.59,0,0,1-.46.19h-4.82l-.16,5.22a3.38,3.38,0,0,1,1-.55,4.1,4.1,0,0,1,1.18-.17,4.92,4.92,0,0,1,1.78.3,3.54,3.54,0,0,1,1.32.87,3.79,3.79,0,0,1,.83,1.41A5.83,5.83,0,0,1,1156.72,34.46Z"/>
      <path class="cls-10" d="M1168.32,33.72a7.7,7.7,0,0,1-.25,2,4.74,4.74,0,0,1-.79,1.68,4,4,0,0,1-1.41,1.17,5.09,5.09,0,0,1-4.14,0,3.9,3.9,0,0,1-1.4-1.17,4.74,4.74,0,0,1-.79-1.68,7.7,7.7,0,0,1-.25-2V29.34a7.57,7.57,0,0,1,.25-2,4.74,4.74,0,0,1,.79-1.68,4,4,0,0,1,1.4-1.18,5.09,5.09,0,0,1,4.14,0,4.16,4.16,0,0,1,1.41,1.18,4.74,4.74,0,0,1,.79,1.68,7.57,7.57,0,0,1,.25,2ZM1167,29.4a7,7,0,0,0-.18-1.63,3.78,3.78,0,0,0-.58-1.3,2.85,2.85,0,0,0-1-.86,3.52,3.52,0,0,0-2.89,0,2.74,2.74,0,0,0-1,.86,4,4,0,0,0-.57,1.3,7,7,0,0,0-.18,1.63v4.28a7,7,0,0,0,.18,1.63,4,4,0,0,0,.57,1.29,2.81,2.81,0,0,0,1,.85,3.52,3.52,0,0,0,2.89,0,2.93,2.93,0,0,0,1-.85,3.82,3.82,0,0,0,.58-1.29,7,7,0,0,0,.18-1.63Z"/>
      <path class="cls-10" d="M1178.11,33.7a.54.54,0,0,1-.16.4.52.52,0,0,1-.36.14h-5.8v.6a4.69,4.69,0,0,0,.15,1.22,2.52,2.52,0,0,0,.45.93,2.09,2.09,0,0,0,.8.6,2.9,2.9,0,0,0,1.16.21,5.56,5.56,0,0,0,1.52-.18,4.69,4.69,0,0,0,1.11-.46.47.47,0,0,1,.44,0,.54.54,0,0,1,.31.3.69.69,0,0,1,0,.4.66.66,0,0,1-.27.34,5,5,0,0,1-1.46.59,7.72,7.72,0,0,1-1.71.19,4.08,4.08,0,0,1-1.77-.34,3.23,3.23,0,0,1-1.18-.9,3.52,3.52,0,0,1-.65-1.33,6.3,6.3,0,0,1-.2-1.59V32.92a6.32,6.32,0,0,1,.2-1.6,3.69,3.69,0,0,1,.66-1.33,3.25,3.25,0,0,1,1.18-.91,4.06,4.06,0,0,1,1.76-.34,4.25,4.25,0,0,1,1.78.33,3,3,0,0,1,1.17.9,3.53,3.53,0,0,1,.64,1.32,6.79,6.79,0,0,1,.19,1.59Zm-1.24-.94a4.94,4.94,0,0,0-.14-1.2,2.39,2.39,0,0,0-.42-.91,1.89,1.89,0,0,0-.79-.59,3,3,0,0,0-1.19-.21,2.75,2.75,0,0,0-1.17.22,1.94,1.94,0,0,0-.79.59,2.39,2.39,0,0,0-.44.92,4.94,4.94,0,0,0-.14,1.2v.38h5.08Z"/>
      <path class="cls-10" d="M1048.41,282.58a7.11,7.11,0,0,1-.41.6,37.57,37.57,0,0,0,10.64,8.66,2.9,2.9,0,0,0-.82,1,42.57,42.57,0,0,1-10.44-8.73,31.38,31.38,0,0,1-10.39,8.64,3.13,3.13,0,0,0-.82-.89,28.2,28.2,0,0,0,11.21-9.7Zm-.45,19.75h9.64v1.08h-20.4v-1.08h9.58v-4.56h-6.58v-1.06h6.58v-4.32h-6.63v-1.08h14.6v1.08H1048v4.32h6.91v1.06H1048Z"/>
      <path class="cls-10" d="M1067.27,282.7a39,39,0,0,1-2.37,5.3v16.13h-1.15V290a27.94,27.94,0,0,1-2.5,3.36,8.3,8.3,0,0,0-.72-1.06,28.13,28.13,0,0,0,5.64-9.86Zm7.93-.15c-.17.36-.36.72-.56,1.11a22.68,22.68,0,0,0,7.83,7.51,10.83,10.83,0,0,0-.82.94,25.74,25.74,0,0,1-7.58-7.44,23.27,23.27,0,0,1-7.66,7.77,3.6,3.6,0,0,0-.77-.84,20.79,20.79,0,0,0,8.33-9.26Zm-5.07,9h1.15v3.26c0,2.74-.38,6.67-4.29,9.55a4,4,0,0,0-.84-.81c3.72-2.55,4-6.34,4-8.74Zm6.91,0h1.16v12.6H1077Z"/>
      <path class="cls-10" d="M1091.18,282.72a37.4,37.4,0,0,1-2.57,5.59v15.82h-1.1v-14a23.24,23.24,0,0,1-2.45,3.19,10.17,10.17,0,0,0-.7-1.06,28.73,28.73,0,0,0,5.76-9.88Zm15,19.51v1.06h-16v-1.06h2.43V288.67h4.13c.19-.72.38-1.65.57-2.61h-6.12V285h6.32c.16-.93.31-1.85.4-2.64l1.25.15c-.14.76-.31,1.63-.5,2.49h6.72v1.06h-6.94c-.21,1-.41,1.87-.62,2.61h6.05v13.56Zm-12.5-12.57v2.42h9.1v-2.42Zm9.1,3.38h-9.1v2.47h9.1Zm-9.1,5.88h9.1v-2.47h-9.1Zm0,3.31h9.1v-2.35h-9.1Z"/>
      <path class="cls-10" d="M1110.74,286.44a15.15,15.15,0,0,1-1.63,3,5.6,5.6,0,0,0-.68-1,16.32,16.32,0,0,0,2.48-6l1,.26a21.43,21.43,0,0,1-.79,2.67h3.74v1.05Zm4.13,13.35a6.2,6.2,0,0,0,.38.93c-3.5,2.28-4,2.67-4.32,3a3.78,3.78,0,0,0-.7-.86,2.71,2.71,0,0,0,1.16-2.11v-5.36h-2.72v-1.05h2.72v-3.82h-1.73v-1.06h4.68v1.06h-1.9v3.82h2.62v1.05h-2.62v5.91Zm3.57.53a15.91,15.91,0,0,1,1.71,1.15,8.47,8.47,0,0,0,4.56,1c1.58,0,4.13-.08,5.78-.27a4.62,4.62,0,0,0-.33,1.25c-1.32.07-4,.15-5.5.15a8.39,8.39,0,0,1-4.82-1.13c-.82-.58-1.44-1.18-1.95-1.18-.67,0-1.65,1.18-2.66,2.55l-.82-1a8.8,8.8,0,0,1,2.95-2.5V292h-1.94v-1.08h3Zm-.69-12.51a22.29,22.29,0,0,0-2.16-3.86l.93-.41a22.7,22.7,0,0,1,2.21,3.84Zm6.72,8.95h-5.31v-1.08h5.31v-3.81H1122a3.46,3.46,0,0,0-1.8.31,4.16,4.16,0,0,0-.39-1.08c.36-.1.7-.75,1.11-1.61.26-.48.84-1.85,1.46-3.5h-3.07v-1.08h3.43c.29-.84.55-1.73.75-2.57l1.15.26-.72,2.31h6.07V286h-6.48a43,43,0,0,1-2.11,4.84h3.12v-3.07h1.13v3.07h3.91v1h-3.91v3.81H1130v1.08h-4.44v4.54h-1.13Z"/>
      <path class="cls-11" d="M1160.33,293.05h-2.19v6.24h-3.33v-1.11h-3.48v2.91c0,1.77-.33,2.7-1.56,3.21s-2.88.6-5.19.6a14.24,14.24,0,0,0-1.11-3.36c1.53.06,3.21.06,3.72,0s.66-.12.66-.54v-2.85h-6v-3.12h6v-2h-7.65v-3.18h7.65V288h-4.92v-1.26c-.36.39-.75.75-1.11,1.08a33.13,33.13,0,0,0-2.52-2.16l-2.82,1.38a69.45,69.45,0,0,0-4-7.38l3.18-1.44c1.32,2.07,3.09,4.8,4.08,6.69a23.74,23.74,0,0,0,5.79-7.92l3.39,1c-.24.51-.51,1-.78,1.56h4.8l.51-.15,2.4,1.62a39.3,39.3,0,0,1-2.49,3.84h4.8v5h2.19Zm-27.84,9a87.5,87.5,0,0,0,4.38-10.29l3.33,1.65c-1.23,3.54-2.67,7.2-4,10.17Zm13.77-19.5c-.54.81-1.11,1.53-1.68,2.25h5.07c.45-.69.93-1.44,1.35-2.25Zm5.07,7.29h3.48V288h-3.48Zm3.48,3.18h-3.48v2h3.48Z"/>
      <path class="cls-11" d="M1179.14,290.05c-.18.12-.39.27-.6.39a60.76,60.76,0,0,0,12.24,2.76,13.82,13.82,0,0,0-2.16,2.82,58,58,0,0,1-12.75-4,54.76,54.76,0,0,1-11.94,4.17,12.81,12.81,0,0,0-1.92-2.7c5-.93,11.22-2.79,14.52-5.07Zm-12.75-3h-3.15V281.5h11.31v-1h-9.3V278h22.17v2.52h-9.36v1h11.52v5.58h-3.3v-3.36h-8.22v4.53h-3.51v-4.53h-8.16Zm20.79,10a28.79,28.79,0,0,1-6.78,4.56c1.23.42,2.4.84,3.3,1.17l-1.41,2.58a87.52,87.52,0,0,0-13-4.23l1.35-2.16c1.68.36,3.69.84,5.67,1.38a39.47,39.47,0,0,0,4.74-2.19h-14.79v-2.52h9.36a16.83,16.83,0,0,0-1.86-1.74l2.07-1.53a17.62,17.62,0,0,1,2.76,2.49l-1,.78h6.84l.48-.18Zm-20.46-9.36h6.9v2h-6.9Zm6.87-3v1.92h-6.21v-1.92Zm11.67,0v1.92H1179v-1.92Zm-6.27,3h7v2h-7Z"/>
      <path class="cls-11" d="M1202.6,293.05c-1,.27-2,.57-3.09.84V301c0,1.68-.3,2.52-1.26,3.06s-2.28.63-4.2.63a13,13,0,0,0-1-3.18c1,0,2.16,0,2.52,0s.51-.12.51-.51v-6.24c-1.14.3-2.22.6-3.24.84l-.54-3.48c1.08-.21,2.37-.51,3.78-.84V286h-3.39v-3.3h3.39V277h3.42v5.67h2.7V286h-2.7v4.5l2.67-.69Zm4.44-15.72h3.42v27.6H1207v-7.32h-4.53V294.4H1207v-3.24h-3.78v-3.09H1207v-3.24h-3.87v-3.12H1207Zm13.35,20.34h-4.47V305h-3.42V277.3h3.42v4.41H1220v3.12h-4.11v3.24h3.87v3.09h-3.87v3.3h4.47Z"/>
      <path class="cls-11" d="M1248.2,285.7a33.66,33.66,0,0,1-3.3,11.07,14.31,14.31,0,0,0,5.91,5,14.31,14.31,0,0,0-2.46,3.06,16.48,16.48,0,0,1-5.61-4.83,19.26,19.26,0,0,1-6.36,5.07,14.27,14.27,0,0,0-2-3.12,15.76,15.76,0,0,0,6.42-5.13,34.76,34.76,0,0,1-2.25-6.18,16.73,16.73,0,0,1-1.65,2.46,22.2,22.2,0,0,0-2.1-2.31c-.15,8.34-.3,11.58-1,12.6a2.88,2.88,0,0,1-2,1.32,20.28,20.28,0,0,1-3.21.12,8.92,8.92,0,0,0-.93-3.24c1,.06,1.83.09,2.31.09a.88.88,0,0,0,.84-.45c.39-.66.57-3.18.69-10.2h-2.52c0,4.74-.69,9.72-4.41,13.83a12.31,12.31,0,0,0-2.61-2.34c3.21-3.72,3.66-8,3.66-11.88v-5.79h-2.94v-3.3h5.79a30.61,30.61,0,0,0-1.23-3.9l3.15-.75a35.69,35.69,0,0,1,1.44,3.93l-2.46.72h6.54v3.3h-6.93v2.94h5.94s0,1,0,1.44v.24c2.19-3,3.57-7.65,4.29-12.48l3.63.57c-.27,1.65-.6,3.3-1,4.86h8.7v3.3Zm-7.5.12a35.79,35.79,0,0,0,2.13,7.23,30.58,30.58,0,0,0,1.86-7.35h-3.93Z"/>
      <path class="cls-11" d="M94.75,292.88v1.88H76.61v-1.88h7.76v-1.06h-6.3V290h6.3v-.9H78.73V282.8h5.64V282H76.73v-1.86h7.64v-.88c-1.92.08-3.88.14-5.68.16a6.27,6.27,0,0,0-.48-1.82,107.19,107.19,0,0,0,13.46-1l1.1,1.85c-1.74.28-3.82.5-6,.66v1h7.84V282H86.77v.76h5.94v6.34H86.77v.9h6.68v1.78H86.77v1.06Zm-13.7-7.62h3.32v-.9H81.05Zm3.32,2.32v-.9H81.05v.9Zm2.4-3.22v.9h3.5v-.9Zm3.5,2.32h-3.5v.9h3.5Z"/>
      <path class="cls-11" d="M110.93,289.32a9.16,9.16,0,0,1-1.82,2.52c2,.52,3.72,1.08,5.12,1.56l-1.88,1.86c-1.46-.58-3.38-1.2-5.56-1.84-2.2,1.08-5.16,1.6-9,1.92a6.53,6.53,0,0,0-.9-2,29.72,29.72,0,0,0,6.52-.82c-1.38-.34-2.8-.68-4.28-1a27.64,27.64,0,0,0,1.76-2.18h-4.3v-2.06h5.66c.22-.38.44-.74.64-1.12H97.81v-5.6h4.34V279.4H96.89v-2.06h17.42v2.06h-5.42v1.14h4.78v5.6h-9.18l1,.24c-.14.3-.32.58-.48.88h9.7v2.06Zm-10.88-5h2.1v-1.86h-2.1Zm3.64,5a9.87,9.87,0,0,1-.72,1c1.18.26,2.38.54,3.52.82a6.5,6.5,0,0,0,1.8-1.82Zm.7-8.78h2.26V279.4h-2.26Zm2.26,3.74v-1.86h-2.26v1.86Zm2.24-1.86v1.86h2.4v-1.86Z"/>
      <path class="cls-11" d="M122.77,277.38a36.68,36.68,0,0,1-1.9,4.16V295.3h-2.34V285.16c-.42.54-.84,1-1.26,1.48a13.92,13.92,0,0,0-1.28-2.48,20.87,20.87,0,0,0,4.56-7.49Zm4.66,13.24a18.46,18.46,0,0,1-4,4.64,13.28,13.28,0,0,0-1.86-1.5,12.43,12.43,0,0,0,3.62-3.82ZM135,286.8v2.32H122V286.8h2.68v-4h-2.18v-2.28h2.18V276.8H127v3.74h2.9v-3.77h2.32v3.77h2.6v2.28h-2.6v4Zm-8,0h2.9v-4H127Zm4.48,3.12a24.76,24.76,0,0,1,3.4,4.12l-2,1.26a22.18,22.18,0,0,0-3.3-4.32Z"/>
      <path class="cls-11" d="M140.29,284.32c0,3.2-.28,8.1-1.94,11.2a9.3,9.3,0,0,0-2.1-1.38c1.5-2.82,1.62-6.94,1.62-9.82v-5.38h7.64c-.22-.68-.5-1.38-.76-2l2.4-.56c.36.78.76,1.74,1,2.54h6.46v2.26H140.29Zm14.58,8v2.24H140V292.3h7.4a32.68,32.68,0,0,0,4.12-10.38l2.56.84a42.36,42.36,0,0,1-4.16,9.54ZM143,283a61.11,61.11,0,0,1,2.26,6.78l-2.24.94a55.38,55.38,0,0,0-2.12-6.9Zm3.46,6.44a55.57,55.57,0,0,0-1.6-6.86L147,282a59.8,59.8,0,0,1,1.74,6.8Z"/>
      <path class="cls-11" d="M174.57,280.56h-5.88l2.06.42c-.4.7-.84,1.4-1.24,2h4.14V293.1c0,1.06-.26,1.52-1,1.8a10.59,10.59,0,0,1-3.4.3,6.36,6.36,0,0,0-.66-1.74c1,0,2.12,0,2.42,0s.44-.1.44-.4v-5.34L170.27,289c-.22-.2-.48-.44-.8-.7v4.54h-5.78v.82h-2V288.6c-.26.18-.52.34-.76.48a14.46,14.46,0,0,0-.88-1.94,18.35,18.35,0,0,0,3.5-2.24H160v10.36h-2.28V283h4.1c-.24-.6-.62-1.38-.92-2l1.34-.42h-5.46v-2h8c-.18-.5-.4-1-.6-1.44l2.4-.58c.32.62.66,1.38.92,2h7.1ZM169.05,288c-.8-.68-1.8-1.4-2.56-2l1.06-1.08h-3.92l1.58.78a23.92,23.92,0,0,1-2.64,2.3Zm-1.94-5a16.81,16.81,0,0,0,1.06-2.42h-4.92c.36.64.78,1.42,1,1.92l-1.42.5Zm.46,6.64h-3.88v1.6h3.88Zm3.88-4.72h-3.22c1.06.76,2.38,1.7,3.22,2.38Z"/>
      <path class="cls-11" d="M181.15,291.28c.3.2.66.46,1.12.72,1.32.78,3.1.9,5.26.9a67.3,67.3,0,0,0,7.56-.46,8.65,8.65,0,0,0-.64,2.28c-1.54.08-4.86.2-7,.2-2.5,0-4.12-.22-5.5-1-.8-.48-1.46-1.08-1.9-1.08-.6,0-1.58,1.18-2.42,2.4l-1.46-2a9.72,9.72,0,0,1,2.68-2v-4.76h-2.52v-2.2h4.8Zm-1.06-9.08a31.53,31.53,0,0,0-3.48-3.42l1.6-1.43a33.83,33.83,0,0,1,3.6,3.21Zm5,9.74h-2.24v-10.3h4.36c-1-.44-2-.88-2.86-1.24l1.54-1.26c.76.28,1.7.66,2.6,1a16.35,16.35,0,0,0,1.68-1.12h-7.14v-1.8h9.18l.48-.12,1.4,1.14a21.63,21.63,0,0,1-3.62,2.78c.38.18.74.38,1,.54l0,0h2.68v8.24c0,1-.18,1.46-.82,1.78a5.92,5.92,0,0,1-2.68.34,7.49,7.49,0,0,0-.6-1.86c.64,0,1.32,0,1.52,0s.3-.1.3-.3v-.92h-2.36v2.92h-2.12v-2.92h-2.3Zm0-8.58v1.08h2.3v-1.08Zm2.3,3.86V286.1h-2.3v1.12Zm4.48-3.86h-2.36v1.08h2.36Zm0,3.86V286.1h-2.36v1.12Z"/>
      <path class="cls-11" d="M201.21,290.88c.32.2.7.44,1.16.7,1.36.78,3.22.9,5.42.9a55.62,55.62,0,0,0,7.34-.5,10.05,10.05,0,0,0-.74,2.64c-1.38.1-4.64.22-6.68.22-2.54,0-4.24-.24-5.7-1-.94-.48-1.64-1.12-2.08-1.12s-1.46,1.34-2.16,2.52l-1.68-2.42a9.51,9.51,0,0,1,2.78-2.12v-4.42h-2.32V284h4.66Zm-1.5-8.86a18.14,18.14,0,0,0-2.88-3.52l1.84-1.24a17.68,17.68,0,0,1,3,3.38Zm10.06.28h-7.42v-2.24h7.42v-3.29h2.42v3.29h2.46v2.24h-2.46v6.56c0,1.38-.3,2-1.2,2.38a11.44,11.44,0,0,1-4.1.44,9.05,9.05,0,0,0-.8-2.42c1.28.06,2.72.06,3.12.06s.56-.14.56-.48Zm-5,.86a26.53,26.53,0,0,1,2.86,3.86l-2,1.24a28.08,28.08,0,0,0-2.72-4Z"/>
      <path class="cls-11" d="M83.62,316.38a1.17,1.17,0,0,1-.11.53,1.33,1.33,0,0,1-.28.44,1.23,1.23,0,0,1-.44.3,1.42,1.42,0,0,1-.55.1,1.39,1.39,0,0,1-.53-.1,1.28,1.28,0,0,1-.43-.3,1.21,1.21,0,0,1-.29-.44,1.32,1.32,0,0,1-.1-.53V304.2a1.4,1.4,0,0,1,.1-.54,1.3,1.3,0,0,1,.29-.44,1.42,1.42,0,0,1,.43-.29,1.4,1.4,0,0,1,.53-.11,1.42,1.42,0,0,1,.55.11,1.35,1.35,0,0,1,.44.29,1.44,1.44,0,0,1,.28.44,1.24,1.24,0,0,1,.11.54Z"/>
      <path class="cls-11" d="M96.12,313a4.93,4.93,0,0,1-.4,2.07,4,4,0,0,1-1.13,1.47,4.78,4.78,0,0,1-1.71.88,7.33,7.33,0,0,1-2.14.29,15.49,15.49,0,0,1-2-.12A8.26,8.26,0,0,1,87,317.2a1.38,1.38,0,0,1-.7-.53,1.44,1.44,0,0,1-.22-.73,1.62,1.62,0,0,1,.08-.49,1.18,1.18,0,0,1,.24-.42,1,1,0,0,1,.37-.28,1,1,0,0,1,.49-.11,1.19,1.19,0,0,1,.33,0l.34.12.4.14.52.14c.21.05.45.1.72.14a8.72,8.72,0,0,0,1,0,3.6,3.6,0,0,0,2.19-.52,1.68,1.68,0,0,0,.69-1.41,1.5,1.5,0,0,0-.1-.58,1.08,1.08,0,0,0-.31-.44,2.28,2.28,0,0,0-.61-.36,8,8,0,0,0-1-.32l-.84-.21-1-.23c-.32-.08-.63-.17-.94-.27a5.52,5.52,0,0,1-.8-.33,3.85,3.85,0,0,1-.69-.51,3,3,0,0,1-.55-.67,3.33,3.33,0,0,1-.37-.88,4.25,4.25,0,0,1-.13-1.12,4.58,4.58,0,0,1,.4-2A4.08,4.08,0,0,1,87.62,304a4.56,4.56,0,0,1,1.59-.88,6.1,6.1,0,0,1,1.93-.3,13,13,0,0,1,1.69.11,7.41,7.41,0,0,1,1.55.35,1.35,1.35,0,0,1,.73.5,1.32,1.32,0,0,1,.23.74,1.61,1.61,0,0,1-.08.48,1.27,1.27,0,0,1-.25.42,1.28,1.28,0,0,1-.39.29,1.33,1.33,0,0,1-.54.11,1.43,1.43,0,0,1-.29,0l-.3-.09-.33-.11a3.16,3.16,0,0,0-.42-.11,5.74,5.74,0,0,0-.59-.11,5.9,5.9,0,0,0-.78-.05,3.17,3.17,0,0,0-1.83.46,1.5,1.5,0,0,0-.64,1.28,1.57,1.57,0,0,0,.12.65,1.28,1.28,0,0,0,.36.45,2.26,2.26,0,0,0,.62.33,6,6,0,0,0,.89.27l1,.23c.34.07.66.15,1,.24s.62.18.91.28a4.14,4.14,0,0,1,.76.37,3.19,3.19,0,0,1,1.24,1.32A4.2,4.2,0,0,1,96.12,313Z"/>
      <path class="cls-11" d="M108.6,312.35a7.73,7.73,0,0,1-.12,1.36,5.46,5.46,0,0,1-.37,1.27,4.79,4.79,0,0,1-.66,1.11,4,4,0,0,1-1,.89,4.68,4.68,0,0,1-1.34.58,6.56,6.56,0,0,1-1.73.21,6.72,6.72,0,0,1-1.75-.21,4.8,4.8,0,0,1-1.34-.58,4.18,4.18,0,0,1-1-.89,4.79,4.79,0,0,1-.66-1.11,6,6,0,0,1-.37-1.27,8.81,8.81,0,0,1-.11-1.36v-4.13a7.48,7.48,0,0,1,.27-2,4.49,4.49,0,0,1,.87-1.73,4.44,4.44,0,0,1,1.61-1.21,5.93,5.93,0,0,1,2.46-.46,6.56,6.56,0,0,1,1.73.21,5,5,0,0,1,1.34.58,4,4,0,0,1,1,.88,4.79,4.79,0,0,1,.66,1.11,5.32,5.32,0,0,1,.37,1.27,7.7,7.7,0,0,1,.12,1.35Zm-2.76-4.13a5.91,5.91,0,0,0-.11-1.15,2.45,2.45,0,0,0-.4-.93,1.82,1.82,0,0,0-.76-.6,2.73,2.73,0,0,0-1.18-.22,2.83,2.83,0,0,0-1.2.22,1.88,1.88,0,0,0-.76.59,2.4,2.4,0,0,0-.39.92,5.29,5.29,0,0,0-.11,1.17v4.13a5.54,5.54,0,0,0,.11,1.19,2.46,2.46,0,0,0,.39.92,1.82,1.82,0,0,0,.76.6,3,3,0,0,0,1.2.21,2.9,2.9,0,0,0,1.18-.21,1.84,1.84,0,0,0,.76-.61,2.41,2.41,0,0,0,.4-.92,6.07,6.07,0,0,0,.11-1.18Z"/>
      <path class="cls-11" d="M126,313a5.66,5.66,0,0,1-.29,1.77,4.34,4.34,0,0,1-.87,1.52,4.19,4.19,0,0,1-1.5,1.08,5.29,5.29,0,0,1-2.17.4,7.31,7.31,0,0,1-1.72-.19,4.55,4.55,0,0,1-1.49-.63,1.27,1.27,0,0,1-.54-.54,1.34,1.34,0,0,1-.16-.63,1.37,1.37,0,0,1,.09-.49,1.45,1.45,0,0,1,.26-.43,1.24,1.24,0,0,1,.39-.29,1,1,0,0,1,.5-.12,1.24,1.24,0,0,1,.37.06,1.17,1.17,0,0,1,.39.19,3.54,3.54,0,0,0,.31.19,2.56,2.56,0,0,0,.44.21,2.63,2.63,0,0,0,.54.17,2.45,2.45,0,0,0,.62.07,2.28,2.28,0,0,0,1-.18,1.73,1.73,0,0,0,.64-.51,1.92,1.92,0,0,0,.35-.75,3.27,3.27,0,0,0,.11-.9,3.37,3.37,0,0,0-.13-1,2.06,2.06,0,0,0-.38-.69,1.39,1.39,0,0,0-.54-.39,1.85,1.85,0,0,0-.67-.12,3.32,3.32,0,0,0-.48,0,1.89,1.89,0,0,0-.38.11l-.32.17-.29.2-.28.2-.25.17-.26.11a1.28,1.28,0,0,1-.3,0,1.41,1.41,0,0,1-.94-.36,1.28,1.28,0,0,1-.28-.43,1.32,1.32,0,0,1-.07-.57l.19-6.16a1.25,1.25,0,0,1,.14-.51,1.4,1.4,0,0,1,.3-.41,1.25,1.25,0,0,1,.41-.26,1.12,1.12,0,0,1,.48-.1H124a1.27,1.27,0,0,1,.52.1,1.29,1.29,0,0,1,.7.7,1.27,1.27,0,0,1,.1.52,1.18,1.18,0,0,1-.1.5,1.2,1.2,0,0,1-.28.41,1.34,1.34,0,0,1-.42.28,1.27,1.27,0,0,1-.52.11h-3.68l-.1,3.08a3.83,3.83,0,0,1,.75-.23,4.11,4.11,0,0,1,.78-.07,4.91,4.91,0,0,1,1.75.3,3.58,3.58,0,0,1,1.33.89,4,4,0,0,1,.86,1.44A5.87,5.87,0,0,1,126,313Z"/>
      <path class="cls-11" d="M137.57,312.54a6.54,6.54,0,0,1-.32,2.06,4.6,4.6,0,0,1-.92,1.65,4.18,4.18,0,0,1-1.51,1.1,5.48,5.48,0,0,1-4.11,0,4.18,4.18,0,0,1-1.51-1.1,4.92,4.92,0,0,1-.92-1.65,6.54,6.54,0,0,1-.31-2.06V308a6.52,6.52,0,0,1,.31-2.05,4.92,4.92,0,0,1,.92-1.65,4.33,4.33,0,0,1,1.51-1.11,5.36,5.36,0,0,1,4.11,0,4.33,4.33,0,0,1,1.51,1.11,4.6,4.6,0,0,1,.92,1.65,6.52,6.52,0,0,1,.32,2.05ZM134.8,308a4.08,4.08,0,0,0-.15-1.18,2.4,2.4,0,0,0-.42-.83,1.69,1.69,0,0,0-.64-.49,2.23,2.23,0,0,0-1.66,0,1.69,1.69,0,0,0-.64.49,2.39,2.39,0,0,0-.41.83,4.08,4.08,0,0,0-.15,1.18v4.64a4.13,4.13,0,0,0,.15,1.18,2.34,2.34,0,0,0,.41.82,1.77,1.77,0,0,0,.64.48,2.37,2.37,0,0,0,1.66,0,1.77,1.77,0,0,0,.64-.48,2.35,2.35,0,0,0,.42-.82,4.13,4.13,0,0,0,.15-1.18Z"/>
      <path class="cls-11" d="M148.77,312.54a6.84,6.84,0,0,1-.31,2.06,4.78,4.78,0,0,1-.93,1.65,4.1,4.1,0,0,1-1.51,1.1,5.48,5.48,0,0,1-4.11,0,4.18,4.18,0,0,1-1.51-1.1,4.92,4.92,0,0,1-.92-1.65,6.54,6.54,0,0,1-.31-2.06V308a6.52,6.52,0,0,1,.31-2.05,4.92,4.92,0,0,1,.92-1.65,4.33,4.33,0,0,1,1.51-1.11,5.36,5.36,0,0,1,4.11,0,4.24,4.24,0,0,1,1.51,1.11,4.78,4.78,0,0,1,.93,1.65,6.82,6.82,0,0,1,.31,2.05ZM146,308a4.08,4.08,0,0,0-.15-1.18,2.4,2.4,0,0,0-.42-.83,1.69,1.69,0,0,0-.64-.49,2.23,2.23,0,0,0-1.66,0,1.77,1.77,0,0,0-.64.49,2.39,2.39,0,0,0-.41.83,4.08,4.08,0,0,0-.15,1.18v4.64a4.13,4.13,0,0,0,.15,1.18,2.34,2.34,0,0,0,.41.82,1.86,1.86,0,0,0,.64.48,2.37,2.37,0,0,0,1.66,0,1.77,1.77,0,0,0,.64-.48,2.35,2.35,0,0,0,.42-.82,4.13,4.13,0,0,0,.15-1.18Z"/>
      <path class="cls-11" d="M160,312.54a6.54,6.54,0,0,1-.31,2.06,4.78,4.78,0,0,1-.93,1.65,4.15,4.15,0,0,1-1.5,1.1,5,5,0,0,1-2.07.4,4.9,4.9,0,0,1-2-.4,4.18,4.18,0,0,1-1.51-1.1,4.92,4.92,0,0,1-.92-1.65,6.54,6.54,0,0,1-.31-2.06V308a6.52,6.52,0,0,1,.31-2.05,4.92,4.92,0,0,1,.92-1.65,4.33,4.33,0,0,1,1.51-1.11,4.9,4.9,0,0,1,2-.41,5,5,0,0,1,2.07.41,4.29,4.29,0,0,1,1.5,1.11,4.78,4.78,0,0,1,.93,1.65A6.52,6.52,0,0,1,160,308ZM157.21,308a3.74,3.74,0,0,0-.16-1.18,2.4,2.4,0,0,0-.42-.83,1.69,1.69,0,0,0-.64-.49,2.23,2.23,0,0,0-1.66,0,1.77,1.77,0,0,0-.64.49,2.58,2.58,0,0,0-.41.83,4.08,4.08,0,0,0-.15,1.18v4.64a4.13,4.13,0,0,0,.15,1.18,2.52,2.52,0,0,0,.41.82,1.86,1.86,0,0,0,.64.48,2.37,2.37,0,0,0,1.66,0,1.77,1.77,0,0,0,.64-.48,2.35,2.35,0,0,0,.42-.82,3.78,3.78,0,0,0,.16-1.18Z"/>
      <path class="cls-11" d="M171.35,316.28a1.26,1.26,0,0,1-.11.51,1.39,1.39,0,0,1-.27.41,1.42,1.42,0,0,1-.41.28,1.45,1.45,0,0,1-.51.1h-7a1.46,1.46,0,0,1-.52-.1,1.34,1.34,0,0,1-.42-.28,1.42,1.42,0,0,1-.28-.41,1.35,1.35,0,0,1,0-1,1.34,1.34,0,0,1,.28-.42,1.37,1.37,0,0,1,.42-.29,1.46,1.46,0,0,1,.52-.1h2.8v-8.4l-2.44,1.63a1.26,1.26,0,0,1-.48.2,1.2,1.2,0,0,1-.5,0,1.32,1.32,0,0,1-.46-.19,1.41,1.41,0,0,1-.36-.37,1.49,1.49,0,0,1-.2-.49,1.26,1.26,0,0,1,.2-1A1.19,1.19,0,0,1,162,306l4.42-2.92a2.33,2.33,0,0,1,.39-.19,1.49,1.49,0,0,1,.43-.07,1.4,1.4,0,0,1,.53.11,1.51,1.51,0,0,1,.45.29,1.46,1.46,0,0,1,.29.44,1.24,1.24,0,0,1,.11.54V315h1.46a1.22,1.22,0,0,1,.92.39,1.32,1.32,0,0,1,.27.42A1.26,1.26,0,0,1,171.35,316.28Z"/>
      <path class="cls-11" d="M179.87,313.2a11.56,11.56,0,0,0,.7,2c-3.76,2.74-4.4,3.28-4.76,3.74a7.19,7.19,0,0,0-1.2-1.66,3,3,0,0,0,1.18-2.22v-6h-3v-2.28h5.28v7.66Zm-2.34-7.68a42.71,42.71,0,0,0-3.16-3.14l1.56-1.5c1,.88,2.52,2.14,3.26,2.92Zm8.9-4.79c0,1.93,0,3.87-.16,5.75.22,2.14.92,8,5.25,11.08a6.56,6.56,0,0,0-1.71,1.78,13.51,13.51,0,0,1-4.5-6.92,12.82,12.82,0,0,1-4.38,6.88,6.93,6.93,0,0,0-1.8-1.78c5-3.68,4.82-10.3,4.88-16.79Z"/>
      <path class="cls-11" d="M199.05,312.66a10.82,10.82,0,0,0,1,2.1c-3.64,3.14-4.3,3.72-4.66,4.22a7.47,7.47,0,0,0-1.42-1.54,3.73,3.73,0,0,0,1.22-2.62v-5.76h-2.34v-2.28h4.66V314Zm-2.26-7.06a27.44,27.44,0,0,0-3.14-3.2l1.52-1.46a27.11,27.11,0,0,1,3.26,3Zm14.53,10.76v2.22H199.09v-2.22h1.48v-9h2.36v9h1.9V304.12h-5.22V301.9h11.3v2.22h-3.64v4.48h3.27v2.22h-3.27v5.54Z"/>
      <path class="cls-11" d="M379.43,290.75a6.17,6.17,0,0,1-.45,2.31,5.9,5.9,0,0,1-1.37,2,7,7,0,0,1-2.29,1.41,8.88,8.88,0,0,1-3.24.53,10.52,10.52,0,0,1-3.14-.4,5.07,5.07,0,0,1-2.12-1.24,2.32,2.32,0,0,1-.53-.72,1.85,1.85,0,0,1-.19-.81,1.93,1.93,0,0,1,.13-.69,1.8,1.8,0,0,1,.36-.56,1.71,1.71,0,0,1,1.23-.51,1.38,1.38,0,0,1,.68.19c.24.13.53.3.87.53a4.45,4.45,0,0,0,1.16.48,5.52,5.52,0,0,0,1.37.15,3.36,3.36,0,0,0,2.44-.86,3.09,3.09,0,0,0,.89-2.32,3.16,3.16,0,0,0-.27-1.39,2.25,2.25,0,0,0-.72-.91,3.11,3.11,0,0,0-1.09-.49,6.81,6.81,0,0,0-1.32-.16,4.87,4.87,0,0,1-.76-.06,2,2,0,0,1-.67-.26,1.37,1.37,0,0,1-.48-.53,1.87,1.87,0,0,1-.19-.89,1.57,1.57,0,0,1,.21-.85,1.65,1.65,0,0,1,.52-.53,1.87,1.87,0,0,1,.7-.28,3.42,3.42,0,0,1,.77-.08,6.69,6.69,0,0,0,1.28-.15,3.22,3.22,0,0,0,1.09-.45,2.4,2.4,0,0,0,.76-.82,2.63,2.63,0,0,0,.28-1.28,3.81,3.81,0,0,0-.14-1.06,2.31,2.31,0,0,0-1.38-1.55,3.41,3.41,0,0,0-1.36-.25,5,5,0,0,0-1.45.2,4.77,4.77,0,0,0-1.19.54,3.89,3.89,0,0,0-.4.25l-.37.23a3,3,0,0,1-.41.17,1.88,1.88,0,0,1-.49.06,1.49,1.49,0,0,1-.58-.11,1.6,1.6,0,0,1-.53-.32,1.41,1.41,0,0,1-.37-.54,1.86,1.86,0,0,1-.14-.77,2,2,0,0,1,.25-.94,2.73,2.73,0,0,1,.8-.89,6.47,6.47,0,0,1,.82-.55,7.23,7.23,0,0,1,1.11-.49,8.55,8.55,0,0,1,1.41-.35,10,10,0,0,1,1.7-.13,8.28,8.28,0,0,1,2.15.26,6.44,6.44,0,0,1,1.66.71,5.37,5.37,0,0,1,1.22,1,5.9,5.9,0,0,1,.83,1.25,6.29,6.29,0,0,1,.47,1.34,6,6,0,0,1,.14,1.31,4.82,4.82,0,0,1-3.23,4.92,6.43,6.43,0,0,1,1.46.73,4.5,4.5,0,0,1,1.13,1.09,5.17,5.17,0,0,1,.73,1.51A7,7,0,0,1,379.43,290.75Z"/>
      <path class="cls-11" d="M396.67,294.77a2,2,0,0,1-.15.79,2,2,0,0,1-1,1,2,2,0,0,1-.77.15h-9.82a1.89,1.89,0,0,1-2-2,8.7,8.7,0,0,1,.27-2.24,8.44,8.44,0,0,1,.71-1.86,8.94,8.94,0,0,1,1.08-1.55,15.3,15.3,0,0,1,1.34-1.33c.46-.4.93-.78,1.42-1.13l1.42-1c.46-.34.9-.68,1.31-1a7.71,7.71,0,0,0,1.09-1,4.68,4.68,0,0,0,.73-1.14,3.12,3.12,0,0,0,.27-1.3,3.48,3.48,0,0,0-.15-1,2.38,2.38,0,0,0-.5-.89,2.42,2.42,0,0,0-.88-.64,3.18,3.18,0,0,0-1.3-.24,4.9,4.9,0,0,0-1.53.2,5.07,5.07,0,0,0-1.13.49,4,4,0,0,0-.59.35c-.16.11-.32.22-.48.31a2.55,2.55,0,0,1-.47.23,1.47,1.47,0,0,1-.53.09,2,2,0,0,1-1.37-.56,2.17,2.17,0,0,1-.43-.61,1.85,1.85,0,0,1-.16-.78,2.22,2.22,0,0,1,.15-.8,1.83,1.83,0,0,1,.58-.72,8.55,8.55,0,0,1,2.75-1.46,10.87,10.87,0,0,1,3.36-.49,8,8,0,0,1,2.22.28,6.26,6.26,0,0,1,1.74.75,5.45,5.45,0,0,1,1.3,1.12,6.55,6.55,0,0,1,.89,1.37,6.7,6.7,0,0,1,.5,1.49,7.28,7.28,0,0,1,.16,1.52,6.44,6.44,0,0,1-.33,2.13,6.87,6.87,0,0,1-.88,1.73,9.17,9.17,0,0,1-1.28,1.44c-.48.43-1,.85-1.51,1.24s-1.06.78-1.59,1.17-1.05.77-1.52,1.17a9.66,9.66,0,0,0-1.27,1.29,5.61,5.61,0,0,0-.89,1.51h7.3a2,2,0,0,1,.77.15,1.74,1.74,0,0,1,.63.42,1.85,1.85,0,0,1,.42.61A1.94,1.94,0,0,1,396.67,294.77Z"/>
      <path class="cls-11" d="M406.82,279.8a3.62,3.62,0,0,1-.28,1.5,3.16,3.16,0,0,1-.76,1.05,3.21,3.21,0,0,1-1.11.63,4.16,4.16,0,0,1-1.33.21A4.23,4.23,0,0,1,402,283a3.16,3.16,0,0,1-1.1-.63,3,3,0,0,1-.76-1.05,3.62,3.62,0,0,1-.29-1.5V278a3.55,3.55,0,0,1,.29-1.48,3.1,3.1,0,0,1,1.86-1.69,4.23,4.23,0,0,1,1.34-.21,4.16,4.16,0,0,1,1.33.21,3.08,3.08,0,0,1,1.11.64,3.16,3.16,0,0,1,.76,1,3.55,3.55,0,0,1,.28,1.48ZM404.39,278a1.24,1.24,0,0,0-.29-.91,1.06,1.06,0,0,0-.76-.29,1,1,0,0,0-.76.29,1.2,1.2,0,0,0-.3.91v1.89a1.23,1.23,0,0,0,.3.91,1,1,0,0,0,.76.29,1.06,1.06,0,0,0,.76-.29,1.27,1.27,0,0,0,.29-.91Zm.24,18.33a1.08,1.08,0,0,1-.61.63,1.19,1.19,0,0,1-.89,0,1.15,1.15,0,0,1-.65-.61,1.1,1.1,0,0,1,0-.89l7.42-20.1a1.13,1.13,0,0,1,.6-.65,1.06,1.06,0,0,1,.89,0,1,1,0,0,1,.64.59,1.22,1.22,0,0,1,.05.9Zm10.08-2.64a3.62,3.62,0,0,1-.28,1.46,2.93,2.93,0,0,1-.76,1.05,3.29,3.29,0,0,1-1.13.63,4.35,4.35,0,0,1-2.67,0,3.07,3.07,0,0,1-1.1-.63,3,3,0,0,1-.77-1.05,3.46,3.46,0,0,1-.28-1.46v-1.83a3.54,3.54,0,0,1,.28-1.47,3,3,0,0,1,.77-1.06,3,3,0,0,1,1.1-.64,4.35,4.35,0,0,1,2.67,0,3.16,3.16,0,0,1,1.13.64,3,3,0,0,1,.76,1.06,3.71,3.71,0,0,1,.28,1.47Zm-2.44-1.89a1.19,1.19,0,0,0-.28-.89,1.06,1.06,0,0,0-.79-.28,1,1,0,0,0-.74.28,1.19,1.19,0,0,0-.28.89v1.92a1.24,1.24,0,0,0,.28.91,1,1,0,0,0,.74.29,1,1,0,0,0,.77-.29,1.2,1.2,0,0,0,.3-.91Z"/>
      <path class="cls-11" d="M635.42,291.23a2.12,2.12,0,0,1-.14.75,2,2,0,0,1-1,1,1.67,1.67,0,0,1-.74.16h-.79V295a2,2,0,0,1-.15.77,2,2,0,0,1-.43.63,2,2,0,0,1-.65.42,2,2,0,0,1-.77.15,2,2,0,0,1-.79-.15,1.89,1.89,0,0,1-.62-.42,1.93,1.93,0,0,1-.42-.63,2,2,0,0,1-.15-.77v-1.89h-6.55a1.85,1.85,0,0,1-.74-.15,2.07,2.07,0,0,1-.6-.39,1.7,1.7,0,0,1-.4-.61,1.92,1.92,0,0,1-.15-.77,1.66,1.66,0,0,1,.08-.54c.06-.14.11-.28.17-.41l6.09-14.43a1.9,1.9,0,0,1,.46-.68,2,2,0,0,1,.66-.44,2.19,2.19,0,0,1,.77-.14,2,2,0,0,1,.78.17,2.21,2.21,0,0,1,.65.47,2.41,2.41,0,0,1,.42.65,2,2,0,0,1,.15.77,2,2,0,0,1-.14.81l-5,11.85h3.4v-2.43a2,2,0,0,1,.15-.78,2,2,0,0,1,.42-.64A2,2,0,0,1,630,285a2,2,0,0,1,.79-.15,2,2,0,0,1,.77.15,2.07,2.07,0,0,1,.65.44,2,2,0,0,1,.43.64,2,2,0,0,1,.15.78v2.43h.79a1.81,1.81,0,0,1,.74.15,2.13,2.13,0,0,1,.6.41,2,2,0,0,1,.41.61A2.08,2.08,0,0,1,635.42,291.23Z"/>
      <path class="cls-11" d="M651,290.75a6.17,6.17,0,0,1-.45,2.31,5.76,5.76,0,0,1-1.37,2,6.94,6.94,0,0,1-2.29,1.41,8.88,8.88,0,0,1-3.24.53,10.52,10.52,0,0,1-3.14-.4,5.07,5.07,0,0,1-2.12-1.24,2.49,2.49,0,0,1-.53-.72,2,2,0,0,1-.19-.81,1.74,1.74,0,0,1,.14-.69,1.5,1.5,0,0,1,.36-.56,1.58,1.58,0,0,1,.54-.37,1.53,1.53,0,0,1,.68-.14,1.44,1.44,0,0,1,.69.19c.23.13.52.3.86.53a4.6,4.6,0,0,0,1.16.48,5.6,5.6,0,0,0,1.38.15,3.35,3.35,0,0,0,2.43-.86,3.05,3.05,0,0,0,.89-2.32,3.32,3.32,0,0,0-.26-1.39,2.36,2.36,0,0,0-.73-.91,3.14,3.14,0,0,0-1.08-.49,7,7,0,0,0-1.33-.16,4.74,4.74,0,0,1-.75-.06A1.92,1.92,0,0,1,642,287a1.37,1.37,0,0,1-.48-.53,1.87,1.87,0,0,1-.18-.89,1.67,1.67,0,0,1,.2-.85,1.65,1.65,0,0,1,.52-.53,1.92,1.92,0,0,1,.71-.28,3.27,3.27,0,0,1,.76-.08,6.69,6.69,0,0,0,1.28-.15,3.22,3.22,0,0,0,1.09-.45,2.3,2.3,0,0,0,.76-.82,2.63,2.63,0,0,0,.29-1.28,3.82,3.82,0,0,0-.15-1.06,2.53,2.53,0,0,0-.48-.92,2.42,2.42,0,0,0-.9-.63,3.41,3.41,0,0,0-1.36-.25,5,5,0,0,0-1.45.2,4.7,4.7,0,0,0-1.18.54,3.18,3.18,0,0,0-.41.25c-.12.08-.24.16-.37.23a2.52,2.52,0,0,1-.41.17,1.86,1.86,0,0,1-.48.06,1.51,1.51,0,0,1-.59-.11,1.6,1.6,0,0,1-.53-.32,1.52,1.52,0,0,1-.37-.54,2,2,0,0,1-.14-.77,2,2,0,0,1,.25-.94,2.73,2.73,0,0,1,.8-.89,6.47,6.47,0,0,1,.82-.55,7.84,7.84,0,0,1,1.12-.49,8.68,8.68,0,0,1,1.4-.35,10,10,0,0,1,1.7-.13,8.28,8.28,0,0,1,2.15.26,6.44,6.44,0,0,1,1.66.71,5.16,5.16,0,0,1,1.22,1,5.54,5.54,0,0,1,.83,1.25,5.79,5.79,0,0,1,.47,1.34,6.06,6.06,0,0,1,.15,1.31,5.38,5.38,0,0,1-.8,3,5.29,5.29,0,0,1-2.44,1.89,6.3,6.3,0,0,1,1.47.73,4.64,4.64,0,0,1,1.12,1.09,4.71,4.71,0,0,1,.73,1.51A7,7,0,0,1,651,290.75Z"/>
      <path class="cls-11" d="M661.59,279.8a3.62,3.62,0,0,1-.29,1.5,3,3,0,0,1-.76,1.05,3.21,3.21,0,0,1-1.11.63,4.32,4.32,0,0,1-2.66,0,3.21,3.21,0,0,1-1.11-.63,3,3,0,0,1-.76-1.05,3.62,3.62,0,0,1-.29-1.5V278a3.55,3.55,0,0,1,.29-1.48,3,3,0,0,1,.76-1,3.08,3.08,0,0,1,1.11-.64,4.32,4.32,0,0,1,2.66,0,3.08,3.08,0,0,1,1.11.64,3,3,0,0,1,.76,1,3.55,3.55,0,0,1,.29,1.48ZM659.15,278a1.2,1.2,0,0,0-.29-.91,1.14,1.14,0,0,0-1.52,0,1.2,1.2,0,0,0-.3.91v1.89a1.23,1.23,0,0,0,.3.91,1.14,1.14,0,0,0,1.52,0,1.23,1.23,0,0,0,.29-.91Zm.24,18.33a1.08,1.08,0,0,1-.61.63,1.19,1.19,0,0,1-.89,0,1.15,1.15,0,0,1-.65-.61,1.1,1.1,0,0,1,0-.89l7.42-20.1a1.13,1.13,0,0,1,.6-.65,1.23,1.23,0,0,1,1.54.59,1.27,1.27,0,0,1,0,.9Zm10.08-2.64a3.62,3.62,0,0,1-.28,1.46,2.93,2.93,0,0,1-.76,1.05,3.34,3.34,0,0,1-1.12.63A4.32,4.32,0,0,1,666,297a4.23,4.23,0,0,1-1.34-.21,3.1,3.1,0,0,1-1.87-1.68,3.46,3.46,0,0,1-.28-1.46v-1.83a3.54,3.54,0,0,1,.28-1.47,3.12,3.12,0,0,1,.77-1.06,3,3,0,0,1,1.1-.64,4.23,4.23,0,0,1,1.34-.21,4.32,4.32,0,0,1,1.34.21,3.2,3.2,0,0,1,1.12.64,3,3,0,0,1,.76,1.06,3.71,3.71,0,0,1,.28,1.47ZM667,291.77a1.19,1.19,0,0,0-.28-.89,1.05,1.05,0,0,0-.78-.28,1,1,0,0,0-.74.28,1.19,1.19,0,0,0-.29.89v1.92a1.24,1.24,0,0,0,.29.91,1,1,0,0,0,.74.29,1,1,0,0,0,.76-.29,1.2,1.2,0,0,0,.3-.91Z"/>
      <path class="cls-11" d="M887,290a7.89,7.89,0,0,1-.53,2.94,6.25,6.25,0,0,1-1.49,2.21,6.34,6.34,0,0,1-2.27,1.4,8.16,8.16,0,0,1-2.89.49,6.57,6.57,0,0,1-3-.66,6.43,6.43,0,0,1-2.17-1.8,7.81,7.81,0,0,1-1.33-2.62,11.22,11.22,0,0,1-.44-3.16,12.82,12.82,0,0,1,.57-3.77,19.1,19.1,0,0,1,1.51-3.59,23.81,23.81,0,0,1,2.13-3.3,28.82,28.82,0,0,1,2.45-2.83,2.15,2.15,0,0,1,.72-.49,2.21,2.21,0,0,1,.75-.14,1.9,1.9,0,0,1,.83.17,2.31,2.31,0,0,1,.66.44,1.89,1.89,0,0,1,.43.65,2.19,2.19,0,0,1,.14.77,2,2,0,0,1-.14.72,2.26,2.26,0,0,1-.49.69c-.35.36-.71.75-1.07,1.17s-.71.86-1.06,1.33-.68,1-1,1.47a14.5,14.5,0,0,0-.83,1.55,5.11,5.11,0,0,1,.87-.25,4.43,4.43,0,0,1,.87-.09,8.12,8.12,0,0,1,2.56.41,6.3,6.3,0,0,1,2.17,1.24,6,6,0,0,1,1.5,2.09A7.31,7.31,0,0,1,887,290Zm-4.14.12a4.57,4.57,0,0,0-.19-1.32,2.86,2.86,0,0,0-.58-1,2.64,2.64,0,0,0-1-.67,3.65,3.65,0,0,0-1.34-.23,4.05,4.05,0,0,0-1.58.28,4.39,4.39,0,0,0-1.11.63c0,.16,0,.34-.07.52s0,.34,0,.49a7.45,7.45,0,0,0,.26,2.11,4,4,0,0,0,.67,1.39,2.69,2.69,0,0,0,.92.76,2.36,2.36,0,0,0,1,.23,3.39,3.39,0,0,0,1.34-.23,2.43,2.43,0,0,0,.93-.65,2.74,2.74,0,0,0,.53-1A4.47,4.47,0,0,0,882.82,290.09Z"/>
      <path class="cls-11" d="M903.91,289.19a10,10,0,0,1-.47,3.09,7.07,7.07,0,0,1-1.38,2.48,6.43,6.43,0,0,1-2.27,1.65,8.23,8.23,0,0,1-6.17,0,6.48,6.48,0,0,1-2.26-1.65,7.07,7.07,0,0,1-1.38-2.48,10,10,0,0,1-.47-3.09v-6.75a9.87,9.87,0,0,1,.47-3.07,7.07,7.07,0,0,1,1.38-2.48,6.38,6.38,0,0,1,2.26-1.66,8.11,8.11,0,0,1,6.17,0,6.33,6.33,0,0,1,2.27,1.66,7.07,7.07,0,0,1,1.38,2.48,9.87,9.87,0,0,1,.47,3.07Zm-4.15-6.84a6.2,6.2,0,0,0-.22-1.77,3.53,3.53,0,0,0-.63-1.24,2.47,2.47,0,0,0-1-.73,3.15,3.15,0,0,0-1.24-.24,3.08,3.08,0,0,0-1.24.24,2.51,2.51,0,0,0-1,.73,3.36,3.36,0,0,0-.62,1.24,6.2,6.2,0,0,0-.22,1.77v7a6.2,6.2,0,0,0,.22,1.77,3.24,3.24,0,0,0,.62,1.23,2.59,2.59,0,0,0,1,.72,3.08,3.08,0,0,0,1.24.23,3.15,3.15,0,0,0,1.24-.23,2.54,2.54,0,0,0,1-.72,3.4,3.4,0,0,0,.63-1.23,6.2,6.2,0,0,0,.22-1.77Z"/>
      <path class="cls-11" d="M913.64,279.8a3.62,3.62,0,0,1-.29,1.5,3,3,0,0,1-.76,1.05,3.21,3.21,0,0,1-1.11.63,4.32,4.32,0,0,1-2.66,0,3.21,3.21,0,0,1-1.11-.63,3,3,0,0,1-.76-1.05,3.62,3.62,0,0,1-.29-1.5V278a3.55,3.55,0,0,1,.29-1.48,3,3,0,0,1,.76-1,3.08,3.08,0,0,1,1.11-.64,4.32,4.32,0,0,1,2.66,0,3.08,3.08,0,0,1,1.11.64,3,3,0,0,1,.76,1,3.55,3.55,0,0,1,.29,1.48ZM911.21,278a1.2,1.2,0,0,0-.3-.91,1.14,1.14,0,0,0-1.52,0,1.2,1.2,0,0,0-.29.91v1.89a1.23,1.23,0,0,0,.29.91,1.14,1.14,0,0,0,1.52,0,1.23,1.23,0,0,0,.3-.91Zm.23,18.33a1.08,1.08,0,0,1-.61.63,1.17,1.17,0,0,1-1.54-.58,1.06,1.06,0,0,1,0-.89l7.41-20.1a1.15,1.15,0,0,1,.61-.65,1,1,0,0,1,.88,0,1,1,0,0,1,.65.59,1.27,1.27,0,0,1,0,.9Zm10.08-2.64a3.62,3.62,0,0,1-.28,1.46,2.93,2.93,0,0,1-.76,1.05,3.25,3.25,0,0,1-1.12.63A4.27,4.27,0,0,1,918,297a4.23,4.23,0,0,1-1.34-.21,3.16,3.16,0,0,1-1.1-.63,2.93,2.93,0,0,1-.76-1.05,3.46,3.46,0,0,1-.29-1.46v-1.83a3.54,3.54,0,0,1,.29-1.47,3,3,0,0,1,.76-1.06,3,3,0,0,1,1.1-.64,4.23,4.23,0,0,1,1.34-.21,4.27,4.27,0,0,1,1.34.21,3.12,3.12,0,0,1,1.12.64,3,3,0,0,1,.76,1.06,3.71,3.71,0,0,1,.28,1.47Zm-2.43-1.89a1.19,1.19,0,0,0-.29-.89,1.05,1.05,0,0,0-.78-.28,1,1,0,0,0-.74.28,1.19,1.19,0,0,0-.29.89v1.92a1.24,1.24,0,0,0,.29.91,1,1,0,0,0,.74.29,1,1,0,0,0,.77-.29,1.2,1.2,0,0,0,.3-.91Z"/>
      <path class="cls-10" d="M88.69,6.94A9.74,9.74,0,0,1,91.62,0l.58.35a9.18,9.18,0,0,0,0,13.18l-.58.36A9.76,9.76,0,0,1,88.69,6.94Z"/>
      <path class="cls-10" d="M99.35,8.9c.05.17.15.48.2.63-4.26,1.92-4.72,2.17-5,2.45a2.51,2.51,0,0,0-.4-.6,1.38,1.38,0,0,0,.76-1.13V1.51h.74v9.06Zm5.07-8c-.22,3.57-.62,6.25-1.63,8.34a26.77,26.77,0,0,1,3.58,3.9l-.6.46a25.14,25.14,0,0,0-3.29-3.76,9.2,9.2,0,0,1-4.58,3.89,3.56,3.56,0,0,0-.51-.62c4.87-1.89,5.93-5.54,6.29-12.25Zm-4.17,4.54A18.49,18.49,0,0,0,98,1.89l.6-.3a19.42,19.42,0,0,1,2.29,3.46Z"/>
      <path class="cls-10" d="M114.23,12.05a.44.44,0,0,1-.13.33.42.42,0,0,1-.33.14h-5.32a.46.46,0,0,1-.35-.13.49.49,0,0,1-.12-.34,3.36,3.36,0,0,1,.12-.92,3.54,3.54,0,0,1,.33-.8,3.65,3.65,0,0,1,.47-.69,5.4,5.4,0,0,1,.58-.59,7.79,7.79,0,0,1,.82-.68l.85-.63.8-.64a4.29,4.29,0,0,0,.67-.68,3,3,0,0,0,.47-.76,2.37,2.37,0,0,0,.17-.9,2.63,2.63,0,0,0-.13-.84,1.94,1.94,0,0,0-.38-.69,1.8,1.8,0,0,0-.66-.47,2.43,2.43,0,0,0-.94-.17,3.75,3.75,0,0,0-.87.09,2.89,2.89,0,0,0-.68.25,2.15,2.15,0,0,0-.35.21l-.23.18-.17.13a.39.39,0,0,1-.18,0,.42.42,0,0,1-.33-.14A.46.46,0,0,1,108.2,3a.38.38,0,0,1,0-.17.47.47,0,0,1,.12-.18A3.58,3.58,0,0,1,109.57,2a4.56,4.56,0,0,1,1.6-.25,3.39,3.39,0,0,1,1.37.25,2.69,2.69,0,0,1,1.51,1.66,3.74,3.74,0,0,1,.18,1.15,3.28,3.28,0,0,1-.2,1.16,4.17,4.17,0,0,1-.54.94,5.35,5.35,0,0,1-.78.8c-.29.25-.59.48-.9.71l-.93.69a7.46,7.46,0,0,0-.84.73,4.24,4.24,0,0,0-.66.82,2.76,2.76,0,0,0-.38,1h4.77a.44.44,0,0,1,.33.13A.42.42,0,0,1,114.23,12.05Z"/>
      <path class="cls-10" d="M122.67,8.78a5.84,5.84,0,0,1-.19,1.46,3.54,3.54,0,0,1-.58,1.24,3,3,0,0,1-1,.85,3.77,3.77,0,0,1-3,0,3,3,0,0,1-1-.85,3.72,3.72,0,0,1-.58-1.24A5.84,5.84,0,0,1,116,8.78V5.56a5.82,5.82,0,0,1,.18-1.45,3.67,3.67,0,0,1,.58-1.23,2.88,2.88,0,0,1,1-.86,3.77,3.77,0,0,1,3,0,2.88,2.88,0,0,1,1,.86,3.49,3.49,0,0,1,.58,1.23,5.82,5.82,0,0,1,.19,1.45Zm-1-3.17a5.06,5.06,0,0,0-.14-1.2,2.75,2.75,0,0,0-.42-1,2,2,0,0,0-.74-.63,2.64,2.64,0,0,0-2.11,0,1.94,1.94,0,0,0-.73.63,2.75,2.75,0,0,0-.42,1,5.08,5.08,0,0,0-.13,1.2V8.75a5.08,5.08,0,0,0,.13,1.2,2.7,2.7,0,0,0,.42.94,1.91,1.91,0,0,0,.73.62,2.53,2.53,0,0,0,2.11,0,2,2,0,0,0,.74-.62,2.7,2.7,0,0,0,.42-.94,5.06,5.06,0,0,0,.14-1.2Z"/>
      <path class="cls-10" d="M130.62,12.07a.48.48,0,0,1-.13.32.44.44,0,0,1-.32.13H124.9a.48.48,0,0,1-.33-.13.45.45,0,0,1-.14-.32.46.46,0,0,1,.47-.47h2.67V3l-2.86,2a.44.44,0,0,1-.35.07.41.41,0,0,1-.3-.19.54.54,0,0,1-.07-.35.46.46,0,0,1,.2-.29l3.56-2.45a.44.44,0,0,1,.3-.1.49.49,0,0,1,.35.13.48.48,0,0,1,.14.35V11.6h1.63a.44.44,0,0,1,.32.13A.51.51,0,0,1,130.62,12.07Z"/>
      <path class="cls-10" d="M139,5.64a6.29,6.29,0,0,1-.14,1.29,7.06,7.06,0,0,1-.39,1.26,9.52,9.52,0,0,1-.59,1.2c-.22.39-.47.77-.73,1.14s-.54.71-.83,1-.58.65-.87.94a.49.49,0,0,1-.34.14.43.43,0,0,1-.34-.15.44.44,0,0,1-.14-.34.49.49,0,0,1,.14-.33,11.73,11.73,0,0,0,.83-.88c.28-.32.54-.65.8-1a11.29,11.29,0,0,0,.69-1.1,8,8,0,0,0,.53-1.16,3.15,3.15,0,0,1-.89.42,3.23,3.23,0,0,1-.9.14,3.68,3.68,0,0,1-1.2-.2,2.65,2.65,0,0,1-1-.59,2.79,2.79,0,0,1-.69-1A3.66,3.66,0,0,1,132.72,5,3.77,3.77,0,0,1,133,3.64a3,3,0,0,1,.65-1,2.77,2.77,0,0,1,1-.66,3.58,3.58,0,0,1,1.3-.23,3,3,0,0,1,1.28.27,2.85,2.85,0,0,1,1,.77A3.71,3.71,0,0,1,138.81,4,5.94,5.94,0,0,1,139,5.64Zm-1,0a5,5,0,0,0-.17-1.38,3,3,0,0,0-.47-.94,1.76,1.76,0,0,0-.69-.54,2,2,0,0,0-.84-.17,2.47,2.47,0,0,0-.92.16,1.73,1.73,0,0,0-.69.47,2,2,0,0,0-.43.75,3,3,0,0,0-.16,1,2.92,2.92,0,0,0,.17,1,1.92,1.92,0,0,0,.47.74,1.79,1.79,0,0,0,.7.43,2.5,2.5,0,0,0,.88.15,2.69,2.69,0,0,0,.65-.08,3.47,3.47,0,0,0,.57-.19,3,3,0,0,0,.47-.27,3.31,3.31,0,0,0,.39-.3c0-.15,0-.3,0-.44A3.31,3.31,0,0,0,138.06,5.64Z"/>
      <path class="cls-10" d="M153.81,10.08h-5.5v3.53h-.71V10.08h-6.93V9.39h2.48v-4h4.45V2.85h-3.84a13.81,13.81,0,0,1-2.37,3,3.88,3.88,0,0,0-.63-.44,12.84,12.84,0,0,0,3.47-5.2l.72.18c-.24.6-.52,1.18-.8,1.74h9v.68h-4.89V5.39h4.58v.67h-4.58V9.39h5.5Zm-6.21-.69V6.06h-3.74V9.39Z"/>
      <path class="cls-10" d="M167.65,4.29c-.25,6-.46,8.05-1,8.7a1.35,1.35,0,0,1-1.06.46c-.49,0-1.43,0-2.34-.08a1.36,1.36,0,0,0-.23-.72,22.5,22.5,0,0,0,2.33.11c.34,0,.52,0,.65-.21.48-.47.73-2.5.95-8h-5.5A11.6,11.6,0,0,1,156,13.43a2,2,0,0,0-.54-.5,11.12,11.12,0,0,0,5.25-8.35h-4.82v-.7h4.88c.06-.69.08-1.36.08-2V.32h.7V1.91c0,.61,0,1.28-.06,2h6.17Zm-8.81-1.08A14.49,14.49,0,0,0,157.2,1l.58-.29a13.45,13.45,0,0,1,1.68,2.14Zm5.37,6.68A16.8,16.8,0,0,0,162,6.94l.57-.31a15.29,15.29,0,0,1,2.21,2.9Z"/>
      <path class="cls-10" d="M179.83,8a7.71,7.71,0,0,0,3.49,2.62,2.81,2.81,0,0,0-.49.54A8.64,8.64,0,0,1,179.08,8h-4.91a9.82,9.82,0,0,1-3.78,3.37,2.62,2.62,0,0,0-.5-.55A8.86,8.86,0,0,0,173.41,8h-3.36V7.41h3V2.52h-2.35V1.89H173V.29h.7v1.6h5.76V.31h.7V1.89h2.34v.63h-2.34V7.41h2.94V8Zm-2.93,4.53h5.22v.63h-11v-.63h5.12V10.66H173V10h3.24V8.6h.69V10h3.32v.63H176.9Zm-3.17-10V3.71h5.76V2.52Zm0,3h5.76V4.3h-5.76Zm0,1.86h5.76V6.14h-5.76Z"/>
      <path class="cls-10" d="M184.74,1.16h4.88v.66h-2.24a26.9,26.9,0,0,1-1,3.82h2.87V11.7h-2.87V13h-.64V7.15a10.21,10.21,0,0,1-.88,1.47,2.2,2.2,0,0,0-.41-.65,15.26,15.26,0,0,0,2.25-6.15h-1.95Zm3.87,5.12h-2.24v4.77h2.24Zm8.84,1.16v6h-.69v-.78h-6.58V7.46h.72v4.47h2.57V6.19h-2.94V1.64h.67V5.53h2.27V.4h.71V5.53h2.15V1.64H197V6.19h-2.84v5.74h2.58V7.44Z"/>
      <path class="cls-10" d="M202.26,6.94a9.73,9.73,0,0,1-2.94,7l-.57-.36a9.29,9.29,0,0,0,2.79-6.59A9.31,9.31,0,0,0,198.75.35l.57-.35A9.71,9.71,0,0,1,202.26,6.94Z"/>
    </g>
  </g>
</svg>