<svg xmlns="http://www.w3.org/2000/svg" xmlns:xlink="http://www.w3.org/1999/xlink" viewBox="0 0 105.89 98.7"><defs><style>.cls-1,.cls-2,.cls-3,.cls-4,.cls-5,.cls-6{fill:none;stroke-linecap:round;stroke-linejoin:round;stroke-width:2.27px;fill-rule:evenodd;}.cls-1{stroke:url(#新建渐变色板_1);}.cls-2{stroke:url(#新建渐变色板_1-2);}.cls-3{stroke:url(#新建渐变色板_1-3);}.cls-4{stroke:url(#新建渐变色板_1-4);}.cls-5{stroke:url(#新建渐变色板_1-5);}.cls-6{stroke:url(#新建渐变色板_1-6);}</style><linearGradient id="新建渐变色板_1" x1="50.91" y1="16.91" x2="88.13" y2="16.91" gradientUnits="userSpaceOnUse"><stop offset="0" stop-color="#00d7ff"/><stop offset="0.09" stop-color="#0fd9ff"/><stop offset="0.27" stop-color="#36dfff"/><stop offset="0.52" stop-color="#75e9ff"/><stop offset="0.83" stop-color="#cbf7ff"/><stop offset="1" stop-color="#fff"/></linearGradient><linearGradient id="新建渐变色板_1-2" x1="17.15" y1="19.4" x2="61.74" y2="19.4" xlink:href="#新建渐变色板_1"/><linearGradient id="新建渐变色板_1-3" x1="0" y1="49.44" x2="38.11" y2="49.44" xlink:href="#新建渐变色板_1"/><linearGradient id="新建渐变色板_1-4" x1="3.27" y1="78" x2="50.51" y2="78" xlink:href="#新建渐变色板_1"/><linearGradient id="新建渐变色板_1-5" x1="50.49" y1="79.09" x2="92.65" y2="79.09" xlink:href="#新建渐变色板_1"/><linearGradient id="新建渐变色板_1-6" x1="66.45" y1="54.77" x2="105.89" y2="54.77" xlink:href="#新建渐变色板_1"/></defs><g id="图层_2" data-name="图层 2"><g id="图层_2-2" data-name="图层 2"><path class="cls-1" d="M60.77,1.17l5.38,0c3.1,0,7,1.08,8.69,3.76l6.35,9.67L87,10.48,79.3,31.76,57,32.69l5.46-4.37L54.17,16.1A2.57,2.57,0,0,0,52,15.22Z"/><path class="cls-2" d="M18.29,23.12,29.05,5.43a12.38,12.38,0,0,1,8.62-4.09l22.94-.17L51.86,15.26a2.33,2.33,0,0,0-1.14.8l-13,21.56Z"/><path class="cls-3" d="M4.34,62.23l-2.15-5C1,54.36.51,50.32,2.51,47.77l7.07-9.46-6.32-3.9,24-.69L37,54.15l-6.46-3.46L21.67,62.86a2.44,2.44,0,0,0,0,2.3Z"/><path class="cls-4" d="M42.67,93.62,21,90.14c-1.92-.71-5.69-2.56-7.42-6.51L4.4,62.38l17.35,2.94a2.55,2.55,0,0,0,1.24.76L49.38,70.2Z"/><path class="cls-5" d="M91.51,78.75l-2.77,4.77c-1.59,2.76-4.73,5.69-8.27,5.92L67.61,90.52l1,7-17-16.76L62.4,60.62l1.46,6.87,16.38-1.56a2.8,2.8,0,0,0,2-1.47Z"/><path class="cls-6" d="M92.07,30.93,103.9,48.72a11.23,11.23,0,0,1-.47,9.54L91.6,78.6,82.27,64.28a2.09,2.09,0,0,0-.2-1.38L67.59,41.32Z"/></g></g></svg>