<svg xmlns="http://www.w3.org/2000/svg" xmlns:xlink="http://www.w3.org/1999/xlink" viewBox="0 0 107.47 98.7"><defs><style>.cls-1,.cls-2,.cls-3,.cls-4,.cls-5,.cls-6,.cls-7,.cls-8{fill:none;stroke-linecap:round;stroke-linejoin:round;stroke-width:2.27px;}.cls-1{stroke:url(#新建渐变色板_1);}.cls-2{stroke:url(#新建渐变色板_1-2);}.cls-3{stroke:url(#新建渐变色板_1-3);}.cls-4{stroke:url(#新建渐变色板_1-4);}.cls-5{stroke:url(#新建渐变色板_1-5);}.cls-6{stroke:url(#新建渐变色板_1-6);}.cls-7{stroke:url(#新建渐变色板_1-7);}.cls-8{stroke:url(#新建渐变色板_1-8);}</style><linearGradient id="新建渐变色板_1" y1="69.07" x2="47.9" y2="69.07" gradientUnits="userSpaceOnUse"><stop offset="0" stop-color="#00d7ff"/><stop offset="0.09" stop-color="#0fd9ff"/><stop offset="0.27" stop-color="#36dfff"/><stop offset="0.52" stop-color="#75e9ff"/><stop offset="0.83" stop-color="#cbf7ff"/><stop offset="1" stop-color="#fff"/></linearGradient><linearGradient id="新建渐变色板_1-2" x1="80.49" y1="63.08" x2="107.47" y2="63.08" xlink:href="#新建渐变色板_1"/><linearGradient id="新建渐变色板_1-3" y1="69.07" x2="82.76" y2="69.07" xlink:href="#新建渐变色板_1"/><linearGradient id="新建渐变色板_1-4" x1="93.97" y1="28.6" x2="107.47" y2="28.6" xlink:href="#新建渐变色板_1"/><linearGradient id="新建渐变色板_1-5" y1="34.58" x2="64.35" y2="34.58" xlink:href="#新建渐变色板_1"/><linearGradient id="新建渐变色板_1-6" x1="14.45" y1="33.5" x2="57.4" y2="33.5" xlink:href="#新建渐变色板_1"/><linearGradient id="新建渐变色板_1-7" x1="45.56" y1="44.4" x2="96.52" y2="44.4" xlink:href="#新建渐变色板_1"/><linearGradient id="新建渐变色板_1-8" x1="32.77" y1="49.11" x2="96.24" y2="49.11" xlink:href="#新建渐变色板_1"/></defs><g id="图层_2" data-name="图层 2"><g id="图层_2-2" data-name="图层 2"><line class="cls-1" x1="1.13" y1="69.07" x2="46.77" y2="69.07"/><polyline class="cls-2" points="81.63 97.56 106.33 85.59 106.33 28.6 94.74 34.21"/><polyline class="cls-3" points="81.63 76.2 81.63 97.56 1.13 97.56 1.13 40.57 50.06 40.57"/><line class="cls-4" x1="106.33" y1="28.6" x2="95.11" y2="28.6"/><polyline class="cls-5" points="63.21 28.6 25.84 28.6 1.13 40.57 51.32 40.57"/><line class="cls-6" x1="15.59" y1="33.5" x2="56.27" y2="33.5"/><path class="cls-7" d="M95.11,1.13S83.66,20.84,63.8,28.36,44.86,73.09,49.37,83.85s34.41-2.33,41.07-25.41S95.11,1.13,95.11,1.13Z"/><path class="cls-8" d="M95.11,1.13S90.64,43.79,71.26,67.51,33.91,97.08,33.91,97.08"/></g></g></svg>