<svg xmlns="http://www.w3.org/2000/svg" xmlns:xlink="http://www.w3.org/1999/xlink" viewBox="0 0 1499.26 305.41">
  <defs>
    <style>.cls-1{fill:url(#未命名的渐变_4);}.cls-10,.cls-2,.cls-4,.cls-6,.cls-8{opacity:0.1;}.cls-2{fill:url(#未命名的渐变_42);}.cls-3{fill:url(#未命名的渐变_4-2);}.cls-4{fill:url(#未命名的渐变_42-2);}.cls-5{fill:url(#未命名的渐变_4-3);}.cls-6{fill:url(#未命名的渐变_42-3);}.cls-7{fill:url(#未命名的渐变_4-4);}.cls-8{fill:url(#未命名的渐变_42-4);}.cls-9{fill:url(#未命名的渐变_4-5);}.cls-10{fill:none;stroke-miterlimit:10;stroke-width:1.45px;stroke:url(#未命名的渐变_41);}.cls-11{fill:#fff;}.cls-12{fill:#00dcff;}</style>
    <linearGradient id="未命名的渐变_4" x1="-1020.34" y1="280.41" x2="-1108.55" y2="280.41" gradientTransform="translate(739.13 1155.78) rotate(90)" gradientUnits="userSpaceOnUse">
      <stop offset="0" stop-color="#00dcff" stop-opacity="1">
        <animate attributeName="stop-opacity"
                 values="1;0.93;0.76;0.61;0.48;0.38;0.3;0.24;0.21;0.2;0.21;0.24;0.3;0.38;0.48;0.61;0.76;0.93;1"
                 dur="5s" repeatCount="indefinite"></animate>
      </stop>
      <stop offset="0.01" stop-color="#00dcff" stop-opacity="0.93">
        <animate attributeName="stop-opacity"
                 values="0.93;0.76;0.61;0.48;0.38;0.3;0.24;0.21;0.2;0.21;0.24;0.3;0.38;0.48;0.61;0.76;0.93;1;1"
                 dur="5s" repeatCount="indefinite"></animate>
      </stop>
      <stop offset="0.05" stop-color="#00dcff" stop-opacity="0.76">
        <animate attributeName="stop-opacity"
                 values="0.76;0.61;0.48;0.38;0.3;0.24;0.21;0.2;0.21;0.24;0.3;0.38;0.48;0.61;0.76;0.93;1;1;0.93"
                 dur="5s" repeatCount="indefinite"></animate>
      </stop>
      <stop offset="0.1" stop-color="#00dcff" stop-opacity="0.61">
        <animate attributeName="stop-opacity"
                 values="0.61;0.48;0.38;0.3;0.24;0.21;0.2;0.21;0.24;0.3;0.38;0.48;0.61;0.76;0.93;1;1;0.93;0.76"
                 dur="5s" repeatCount="indefinite"></animate>
      </stop>
      <stop offset="0.14" stop-color="#00dcff" stop-opacity="0.48">
        <animate attributeName="stop-opacity"
                 values="0.48;0.38;0.3;0.24;0.21;0.2;0.21;0.24;0.3;0.38;0.48;0.61;0.76;0.93;1;1;0.93;0.76;0.61"
                 dur="5s" repeatCount="indefinite"></animate>
      </stop>
      <stop offset="0.19" stop-color="#00dcff" stop-opacity="0.38">
        <animate attributeName="stop-opacity"
                 values="0.38;0.3;0.24;0.21;0.2;0.21;0.24;0.3;0.38;0.48;0.61;0.76;0.93;1;1;0.93;0.76;0.61;0.48"
                 dur="5s" repeatCount="indefinite"></animate>
      </stop>
      <stop offset="0.24" stop-color="#00dcff" stop-opacity="0.3">
        <animate attributeName="stop-opacity"
                 values="0.3;0.24;0.21;0.2;0.21;0.24;0.3;0.38;0.48;0.61;0.76;0.93;1;1;0.93;0.76;0.61;0.48;0.38"
                 dur="5s" repeatCount="indefinite"></animate>
      </stop>
      <stop offset="0.31" stop-color="#00dcff" stop-opacity="0.24">
        <animate attributeName="stop-opacity"
                 values="0.24;0.21;0.2;0.21;0.24;0.3;0.38;0.48;0.61;0.76;0.93;1;1;0.93;0.76;0.61;0.48;0.38;0.3"
                 dur="5s" repeatCount="indefinite"></animate>
      </stop>
      <stop offset="0.38" stop-color="#00dcff" stop-opacity="0.21">
        <animate attributeName="stop-opacity"
                 values="0.21;0.2;0.21;0.24;0.3;0.38;0.48;0.61;0.76;0.93;1;1;0.93;0.76;0.61;0.48;0.38;0.3;0.24"
                 dur="5s" repeatCount="indefinite"></animate>
      </stop>
      <stop offset="0.5" stop-color="#00dcff" stop-opacity="0.2">
        <animate attributeName="stop-opacity"
                 values="0.2;0.21;0.24;0.3;0.38;0.48;0.61;0.76;0.93;1;1;0.93;0.76;0.61;0.48;0.38;0.3;0.24;0.21"
                 dur="5s" repeatCount="indefinite"></animate>
      </stop>
      <stop offset="0.62" stop-color="#00dcff" stop-opacity="0.21">
        <animate attributeName="stop-opacity"
                 values="0.21;0.24;0.3;0.38;0.48;0.61;0.76;0.93;1;1;0.93;0.76;0.61;0.48;0.38;0.3;0.24;0.21;0.2"
                 dur="5s" repeatCount="indefinite"></animate>
      </stop>
      <stop offset="0.69" stop-color="#00dcff" stop-opacity="0.24">
        <animate attributeName="stop-opacity"
                 values="0.24;0.3;0.38;0.48;0.61;0.76;0.93;1;1;0.93;0.76;0.61;0.48;0.38;0.3;0.24;0.21;0.2;0.21"
                 dur="5s" repeatCount="indefinite"></animate>
      </stop>
      <stop offset="0.76" stop-color="#00dcff" stop-opacity="0.3">
        <animate attributeName="stop-opacity"
                 values="0.3;0.38;0.48;0.61;0.76;0.93;1;1;0.93;0.76;0.61;0.48;0.38;0.3;0.24;0.21;0.2;0.21;0.24"
                 dur="5s" repeatCount="indefinite"></animate>
      </stop>
      <stop offset="0.81" stop-color="#00dcff" stop-opacity="0.38">
        <animate attributeName="stop-opacity"
                 values="0.38;0.48;0.61;0.76;0.93;1;1;0.93;0.76;0.61;0.48;0.38;0.3;0.24;0.21;0.2;0.21;0.24;0.3"
                 dur="5s" repeatCount="indefinite"></animate>
      </stop>
      <stop offset="0.86" stop-color="#00dcff" stop-opacity="0.48">
        <animate attributeName="stop-opacity"
                 values="0.48;0.61;0.76;0.93;1;1;0.93;0.76;0.61;0.48;0.38;0.3;0.24;0.21;0.2;0.21;0.24;0.3;0.38"
                 dur="5s" repeatCount="indefinite"></animate>
      </stop>
      <stop offset="0.9" stop-color="#00dcff" stop-opacity="0.61">
        <animate attributeName="stop-opacity"
                 values="0.61;0.76;0.93;1;1;0.93;0.76;0.61;0.48;0.38;0.3;0.24;0.21;0.2;0.21;0.24;0.3;0.38;0.48"
                 dur="5s" repeatCount="indefinite"></animate>
      </stop>
      <stop offset="0.95" stop-color="#00dcff" stop-opacity="0.76">
        <animate attributeName="stop-opacity"
                 values="0.76;0.93;1;1;0.93;0.76;0.61;0.48;0.38;0.3;0.24;0.21;0.2;0.21;0.24;0.3;0.38;0.48;0.61"
                 dur="5s" repeatCount="indefinite"></animate>
      </stop>
      <stop offset="0.99" stop-color="#00dcff" stop-opacity="0.93">
        <animate attributeName="stop-opacity"
                 values="0.93;1;1;0.93;0.76;0.61;0.48;0.38;0.3;0.24;0.21;0.2;0.21;0.24;0.3;0.38;0.48;0.61;0.76"
                 dur="5s" repeatCount="indefinite"></animate>
      </stop>
      <stop offset="1" stop-color="#00dcff" stop-opacity="1">
        <animate attributeName="stop-opacity"
                 values="1;1;0.93;0.76;0.61;0.48;0.38;0.3;0.24;0.21;0.2;0.21;0.24;0.3;0.38;0.48;0.61;0.76;0.93"
                 dur="5s" repeatCount="indefinite"></animate>
      </stop>
    </linearGradient>
    <linearGradient id="未命名的渐变_42" x1="-888.1" y1="280.41" x2="-1020.34" y2="280.41" gradientTransform="translate(739.13 1155.78) rotate(90)" gradientUnits="userSpaceOnUse">
      <stop offset="0" stop-color="#fff" stop-opacity="0.5"/>
      <stop offset="1" stop-color="#fff"/>
    </linearGradient>
    <linearGradient id="未命名的渐变_4-2" x1="-1077.9" y1="591.67" x2="-1108.55" y2="591.67" xlink:href="#未命名的渐变_4"/>
    <linearGradient id="未命名的渐变_42-2" x1="-888.1" y1="591.67" x2="-1077.9" y2="591.67" xlink:href="#未命名的渐变_42"/>
    <linearGradient id="未命名的渐变_4-3" x1="-976.55" y1="-30.86" x2="-1108.55" y2="-30.86" xlink:href="#未命名的渐变_4"/>
    <linearGradient id="未命名的渐变_42-3" x1="-888.1" y1="-30.86" x2="-976.55" y2="-30.86" xlink:href="#未命名的渐变_42"/>
    <linearGradient id="未命名的渐变_4-4" x1="-932.14" y1="-342.12" x2="-1108.55" y2="-342.12" xlink:href="#未命名的渐变_4"/>
    <linearGradient id="未命名的渐变_42-4" x1="-888.1" y1="-342.12" x2="-932.33" y2="-342.12" xlink:href="#未命名的渐变_42"/>
    <linearGradient id="未命名的渐变_4-5" x1="-888.1" y1="-653.38" x2="-1108.55" y2="-653.38" xlink:href="#未命名的渐变_4"/>
    <linearGradient id="未命名的渐变_41" x1="762.39" y1="268.4" x2="762.39" y2="47.12" gradientUnits="userSpaceOnUse">
      <stop offset="0" stop-color="#fff"/>
      <stop offset="1" stop-color="#fff" stop-opacity="0.5"/>
    </linearGradient>
  </defs>
  <g id="图层_2" data-name="图层 2">
    <g id="图层_2-2" data-name="图层 2">
      <rect class="cls-1" x="393.54" y="47.24" width="130.37" height="88.2"/>
      <rect class="cls-2" x="393.54" y="135.44" width="130.37" height="132.24"/>
      <rect class="cls-3" x="82.28" y="47.24" width="130.37" height="30.65"/>
      <rect class="cls-4" x="82.28" y="77.89" width="130.37" height="189.79"/>
      <rect class="cls-5" x="704.81" y="47.24" width="130.37" height="132"/>
      <rect class="cls-6" x="704.81" y="179.23" width="130.37" height="88.45"/>
      <rect class="cls-7" x="1016.07" y="47.24" width="130.37" height="176.4"/>
      <rect class="cls-8" x="1016.07" y="223.46" width="130.37" height="44.22"/>
      <rect class="cls-9" x="1327.33" y="47.24" width="130.37" height="220.44"/>
      <path class="cls-10" d="M67.81,47.12V267.68H1457.7"/>
      <path class="cls-11" d="M40.35,47.41a7.57,7.57,0,0,1-.25,2,4.78,4.78,0,0,1-.79,1.69,4,4,0,0,1-1.41,1.17,5.2,5.2,0,0,1-4.14,0,3.9,3.9,0,0,1-1.4-1.17,4.78,4.78,0,0,1-.79-1.69,7.57,7.57,0,0,1-.25-2V43a7.55,7.55,0,0,1,.25-2,4.78,4.78,0,0,1,.79-1.69,3.9,3.9,0,0,1,1.4-1.17,5.09,5.09,0,0,1,4.14,0,4,4,0,0,1,1.41,1.17,4.78,4.78,0,0,1,.79,1.69,7.55,7.55,0,0,1,.25,2ZM39,43.08a7,7,0,0,0-.18-1.63,4,4,0,0,0-.58-1.3,2.82,2.82,0,0,0-1-.85,3.52,3.52,0,0,0-2.89,0,2.71,2.71,0,0,0-1,.85,4.17,4.17,0,0,0-.57,1.3,7,7,0,0,0-.18,1.63v4.29A6.87,6.87,0,0,0,32.82,49a4,4,0,0,0,.57,1.29,2.71,2.71,0,0,0,1,.85,3.52,3.52,0,0,0,2.89,0,2.82,2.82,0,0,0,1-.85A3.82,3.82,0,0,0,38.85,49,6.87,6.87,0,0,0,39,47.37Z"/>
      <path class="cls-11" d="M46.86,41.26a2.38,2.38,0,0,1-.17.91,1.86,1.86,0,0,1-.44.7,2.05,2.05,0,0,1-.67.44,2.32,2.32,0,0,1-.84.15,2.35,2.35,0,0,1-.86-.15,2.1,2.1,0,0,1-.68-.44,2,2,0,0,1-.44-.7,2.38,2.38,0,0,1-.16-.91V40a2.38,2.38,0,0,1,.16-.91,2,2,0,0,1,.44-.69,2,2,0,0,1,.68-.44,2.16,2.16,0,0,1,.86-.16,2.13,2.13,0,0,1,.84.16A1.93,1.93,0,0,1,46.69,39a2.38,2.38,0,0,1,.17.91Zm-1-1.35a1.35,1.35,0,0,0-.32-.95,1.11,1.11,0,0,0-.84-.33,1.15,1.15,0,0,0-.86.33,1.31,1.31,0,0,0-.33.95v1.41a1.29,1.29,0,0,0,.33.93,1.15,1.15,0,0,0,.86.33,1.11,1.11,0,0,0,.84-.33,1.33,1.33,0,0,0,.32-.93ZM44.83,52.39a.49.49,0,0,1-.89,0,.47.47,0,0,1,0-.37L49,38a.55.55,0,0,1,.26-.26.44.44,0,0,1,.37,0,.51.51,0,0,1,.28.26.43.43,0,0,1,0,.35Zm6.45-1.91a2.43,2.43,0,0,1-.16.92,2.06,2.06,0,0,1-.45.69,2,2,0,0,1-.68.44,2.39,2.39,0,0,1-.86.15,2.23,2.23,0,0,1-.83-.15,2,2,0,0,1-.68-.44,2.06,2.06,0,0,1-.45-.69,2.65,2.65,0,0,1-.16-.92V49.17a2.59,2.59,0,0,1,.16-.91,2,2,0,0,1,.45-.7,2.1,2.1,0,0,1,.68-.44,2.23,2.23,0,0,1,.83-.15,2.39,2.39,0,0,1,.86.15,2.1,2.1,0,0,1,.68.44,2,2,0,0,1,.45.7,2.38,2.38,0,0,1,.16.91Zm-1-1.37a1.29,1.29,0,0,0-.32-.92,1.2,1.2,0,0,0-.88-.32,1.15,1.15,0,0,0-.83.32,1.29,1.29,0,0,0-.32.92v1.43a1.26,1.26,0,0,0,.32.93,1.12,1.12,0,0,0,.83.33,1.15,1.15,0,0,0,.87-.33,1.23,1.23,0,0,0,.33-.93Z"/>
      <path class="cls-11" d="M17.54,90.35a.6.6,0,0,1-.18.44.58.58,0,0,1-.43.18H11.8a.54.54,0,0,1-.42-.18.6.6,0,0,1-.18-.44.58.58,0,0,1,.18-.43.57.57,0,0,1,.42-.17h5.13a.61.61,0,0,1,.43.17A.58.58,0,0,1,17.54,90.35Z"/>
      <path class="cls-11" d="M28.86,95.57a.62.62,0,0,1-.19.46.6.6,0,0,1-.44.18H21a.6.6,0,0,1-.65-.64,4.62,4.62,0,0,1,.17-1.26,5.43,5.43,0,0,1,.44-1.08,5.69,5.69,0,0,1,.65-1,8.46,8.46,0,0,1,.78-.8,12.55,12.55,0,0,1,1.12-.93l1.16-.86c.38-.29.75-.57,1.1-.86a6.72,6.72,0,0,0,.92-.93,4.44,4.44,0,0,0,.63-1,3.23,3.23,0,0,0,.23-1.22,3.9,3.9,0,0,0-.17-1.15,2.87,2.87,0,0,0-.52-.94,2.58,2.58,0,0,0-.9-.64,3.34,3.34,0,0,0-1.29-.23,5.23,5.23,0,0,0-1.18.12,3.58,3.58,0,0,0-.92.34,2.09,2.09,0,0,0-.48.29l-.32.24a1.25,1.25,0,0,1-.24.18.48.48,0,0,1-.24.06.58.58,0,0,1-.44-.19.63.63,0,0,1-.2-.47.68.68,0,0,1,.05-.23.66.66,0,0,1,.17-.24,4.89,4.89,0,0,1,1.65-1,6.24,6.24,0,0,1,2.18-.34,4.66,4.66,0,0,1,1.87.34,3.89,3.89,0,0,1,1.3.93,4,4,0,0,1,.76,1.34,5.16,5.16,0,0,1,.25,1.57,4.35,4.35,0,0,1-.28,1.57,5.15,5.15,0,0,1-.74,1.29,7.69,7.69,0,0,1-1.05,1.09c-.4.33-.81.66-1.23,1l-1.27.94a10.11,10.11,0,0,0-1.15,1,6.32,6.32,0,0,0-.9,1.12A3.46,3.46,0,0,0,21.73,95h6.5a.6.6,0,0,1,.44.18A.58.58,0,0,1,28.86,95.57Z"/>
      <path class="cls-11" d="M40.35,91.12a7.57,7.57,0,0,1-.25,2,4.78,4.78,0,0,1-.79,1.69A3.9,3.9,0,0,1,37.9,96a5.09,5.09,0,0,1-4.14,0,3.78,3.78,0,0,1-1.4-1.16,4.78,4.78,0,0,1-.79-1.69,7.57,7.57,0,0,1-.25-2V86.73a7.68,7.68,0,0,1,.25-2,4.82,4.82,0,0,1,.79-1.68,3.9,3.9,0,0,1,1.4-1.17,5.09,5.09,0,0,1,4.14,0,4,4,0,0,1,1.41,1.17,4.82,4.82,0,0,1,.79,1.68,7.68,7.68,0,0,1,.25,2ZM39,86.79a7,7,0,0,0-.18-1.63,3.87,3.87,0,0,0-.58-1.3,2.82,2.82,0,0,0-1-.85,3.52,3.52,0,0,0-2.89,0,2.71,2.71,0,0,0-1,.85,4.07,4.07,0,0,0-.57,1.3,7,7,0,0,0-.18,1.63v4.29a6.93,6.93,0,0,0,.18,1.62A4,4,0,0,0,33.39,94a2.71,2.71,0,0,0,1,.85,3.52,3.52,0,0,0,2.89,0,2.82,2.82,0,0,0,1-.85,3.82,3.82,0,0,0,.58-1.29A6.93,6.93,0,0,0,39,91.08Z"/>
      <path class="cls-11" d="M46.86,85a2.38,2.38,0,0,1-.17.91,1.82,1.82,0,0,1-.44.69,1.91,1.91,0,0,1-.67.44,2.13,2.13,0,0,1-.84.16,2.16,2.16,0,0,1-.86-.16,1.91,1.91,0,0,1-1.12-1.13A2.38,2.38,0,0,1,42.6,85V83.65a2.36,2.36,0,0,1,.16-.9,2,2,0,0,1,.44-.69,2.12,2.12,0,0,1,.68-.45,2.35,2.35,0,0,1,.86-.15,2.32,2.32,0,0,1,.84.15,2.08,2.08,0,0,1,.67.45,1.9,1.9,0,0,1,.44.69,2.37,2.37,0,0,1,.17.9Zm-1-1.35a1.35,1.35,0,0,0-.32-1,1.11,1.11,0,0,0-.84-.33,1.15,1.15,0,0,0-.86.33,1.31,1.31,0,0,0-.33,1V85a1.25,1.25,0,0,0,.33.92,1.12,1.12,0,0,0,.86.34,1.08,1.08,0,0,0,.84-.34A1.29,1.29,0,0,0,45.9,85ZM44.83,96.1a.49.49,0,0,1-.89,0,.5.5,0,0,1,0-.38l5.11-14a.55.55,0,0,1,.26-.26.4.4,0,0,1,.37,0,.51.51,0,0,1,.28.26.43.43,0,0,1,0,.35Zm6.45-1.91a2.43,2.43,0,0,1-.16.92,2.06,2.06,0,0,1-.45.69,2,2,0,0,1-.68.44,2.39,2.39,0,0,1-.86.15,2.23,2.23,0,0,1-.83-.15,2,2,0,0,1-.68-.44,2.06,2.06,0,0,1-.45-.69,2.65,2.65,0,0,1-.16-.92V92.87a2.57,2.57,0,0,1,.16-.9,2,2,0,0,1,.45-.7,2.1,2.1,0,0,1,.68-.44,2.23,2.23,0,0,1,.83-.15,2.39,2.39,0,0,1,.86.15,2.1,2.1,0,0,1,.68.44,2,2,0,0,1,.45.7,2.36,2.36,0,0,1,.16.9Zm-1-1.37A1.27,1.27,0,0,0,50,91.9a1.17,1.17,0,0,0-.88-.33,1.12,1.12,0,0,0-.83.33,1.27,1.27,0,0,0-.32.92v1.43a1.3,1.3,0,0,0,.32.93,1.12,1.12,0,0,0,.83.33,1.15,1.15,0,0,0,.87-.33,1.26,1.26,0,0,0,.33-.93Z"/>
      <path class="cls-11" d="M17.54,134.06a.6.6,0,0,1-.18.44.58.58,0,0,1-.43.18H11.8a.54.54,0,0,1-.42-.18.6.6,0,0,1-.18-.44.58.58,0,0,1,.18-.43.57.57,0,0,1,.42-.17h5.13a.61.61,0,0,1,.43.17A.58.58,0,0,1,17.54,134.06Z"/>
      <path class="cls-11" d="M29.07,136.3a.64.64,0,0,1-.17.46.54.54,0,0,1-.42.18H27.2v2.52a.68.68,0,0,1-.19.47.64.64,0,0,1-.46.19.68.68,0,0,1-.47-.19.64.64,0,0,1-.19-.47v-2.52H20.77a.58.58,0,0,1-.43-.18.62.62,0,0,1-.18-.46.67.67,0,0,1,.07-.31l4.58-10.4a.65.65,0,0,1,1.21,0,.6.6,0,0,1,0,.49l-4.22,9.58h4.09v-3.26a.62.62,0,0,1,.19-.46.67.67,0,0,1,.47-.18A.63.63,0,0,1,27,132a.66.66,0,0,1,.19.46v3.26h1.28a.54.54,0,0,1,.42.18A.6.6,0,0,1,29.07,136.3Z"/>
      <path class="cls-11" d="M40.35,134.82a7.64,7.64,0,0,1-.25,2,4.78,4.78,0,0,1-.79,1.69,4.11,4.11,0,0,1-1.41,1.16,5.09,5.09,0,0,1-4.14,0,4,4,0,0,1-1.4-1.16,4.78,4.78,0,0,1-.79-1.69,7.64,7.64,0,0,1-.25-2v-4.38a7.68,7.68,0,0,1,.25-2,4.82,4.82,0,0,1,.79-1.68,3.9,3.9,0,0,1,1.4-1.17,5.09,5.09,0,0,1,4.14,0,4,4,0,0,1,1.41,1.17,4.82,4.82,0,0,1,.79,1.68,7.68,7.68,0,0,1,.25,2ZM39,130.5a7,7,0,0,0-.18-1.63,3.87,3.87,0,0,0-.58-1.3,2.85,2.85,0,0,0-1-.86,3.63,3.63,0,0,0-2.89,0,2.74,2.74,0,0,0-1,.86,4.07,4.07,0,0,0-.57,1.3,7,7,0,0,0-.18,1.63v4.28a7,7,0,0,0,.18,1.63,4,4,0,0,0,.57,1.29,2.81,2.81,0,0,0,1,.85,3.52,3.52,0,0,0,2.89,0,2.93,2.93,0,0,0,1-.85,3.82,3.82,0,0,0,.58-1.29,7,7,0,0,0,.18-1.63Z"/>
      <path class="cls-11" d="M46.86,128.68a2.42,2.42,0,0,1-.17.91,1.93,1.93,0,0,1-1.11,1.13,2.13,2.13,0,0,1-.84.16,2.16,2.16,0,0,1-.86-.16,2,2,0,0,1-.68-.44,2,2,0,0,1-.44-.69,2.42,2.42,0,0,1-.16-.91v-1.32a2.36,2.36,0,0,1,.16-.9,2,2,0,0,1,.44-.69,2,2,0,0,1,.68-.45,2.35,2.35,0,0,1,.86-.15,2.32,2.32,0,0,1,.84.15,1.93,1.93,0,0,1,.67.45,1.9,1.9,0,0,1,.44.69,2.37,2.37,0,0,1,.17.9Zm-1-1.36a1.34,1.34,0,0,0-.32-.94,1.11,1.11,0,0,0-.84-.34,1.16,1.16,0,0,0-.86.34,1.3,1.3,0,0,0-.33.94v1.42a1.25,1.25,0,0,0,.33.92,1.12,1.12,0,0,0,.86.34,1.08,1.08,0,0,0,.84-.34,1.29,1.29,0,0,0,.32-.92ZM44.83,139.8a.46.46,0,0,1-.25.28.53.53,0,0,1-.64-.24.5.5,0,0,1,0-.38l5.11-14a.57.57,0,0,1,.26-.27.44.44,0,0,1,.37,0,.49.49,0,0,1,.28.25.45.45,0,0,1,0,.36Zm6.45-1.9a2.38,2.38,0,0,1-.16.91,2.21,2.21,0,0,1-.45.7A2.1,2.1,0,0,1,50,140a2.39,2.39,0,0,1-.86.15,2.23,2.23,0,0,1-.83-.15,2.1,2.1,0,0,1-.68-.44,2.21,2.21,0,0,1-.45-.7,2.59,2.59,0,0,1-.16-.91v-1.32a2.67,2.67,0,0,1,.16-.91,2.06,2.06,0,0,1,.45-.69,2,2,0,0,1,.68-.44,2.23,2.23,0,0,1,.83-.16,2.39,2.39,0,0,1,.86.16,2,2,0,0,1,.68.44,2.06,2.06,0,0,1,.45.69,2.45,2.45,0,0,1,.16.91Zm-1-1.38a1.26,1.26,0,0,0-.32-.91,1.17,1.17,0,0,0-.88-.33,1.12,1.12,0,0,0-.83.33,1.26,1.26,0,0,0-.32.91V138a1.3,1.3,0,0,0,.32.93,1.12,1.12,0,0,0,.83.33,1.15,1.15,0,0,0,.87-.33,1.26,1.26,0,0,0,.33-.93Z"/>
      <path class="cls-11" d="M17.54,177.77a.62.62,0,0,1-.18.44.58.58,0,0,1-.43.18H11.8a.54.54,0,0,1-.42-.18.62.62,0,0,1-.18-.44.58.58,0,0,1,.18-.43.54.54,0,0,1,.42-.17h5.13a.57.57,0,0,1,.43.17A.58.58,0,0,1,17.54,177.77Z"/>
      <path class="cls-11" d="M28.92,179.29a5.25,5.25,0,0,1-.32,1.88,4,4,0,0,1-.89,1.42,3.76,3.76,0,0,1-1.37.9,4.84,4.84,0,0,1-1.77.32,4.09,4.09,0,0,1-1.76-.38,3.92,3.92,0,0,1-1.35-1.05,5.12,5.12,0,0,1-.86-1.68,7.79,7.79,0,0,1-.31-2.25,8.51,8.51,0,0,1,.42-2.63,13.15,13.15,0,0,1,1.11-2.49,17.81,17.81,0,0,1,1.55-2.27,24.6,24.6,0,0,1,1.77-2,.7.7,0,0,1,.46-.2.66.66,0,0,1,.48.19.64.64,0,0,1,.19.47.69.69,0,0,1-.05.24.65.65,0,0,1-.17.22c-.37.37-.75.77-1.12,1.2s-.74.89-1.08,1.37a15.41,15.41,0,0,0-.93,1.49,9.93,9.93,0,0,0-.72,1.6,4.63,4.63,0,0,1,1.21-.58,4.34,4.34,0,0,1,1.22-.18,5.15,5.15,0,0,1,1.63.26,4,4,0,0,1,1.37.8,3.76,3.76,0,0,1,.94,1.37A5.07,5.07,0,0,1,28.92,179.29Zm-1.32,0a3.78,3.78,0,0,0-.24-1.41,2.73,2.73,0,0,0-.64-1,2.56,2.56,0,0,0-1-.6,3.83,3.83,0,0,0-2.09-.1,3.5,3.5,0,0,0-.77.28,4.88,4.88,0,0,0-.64.37,6.31,6.31,0,0,0-.52.41,6.26,6.26,0,0,0-.12,1.2,6.46,6.46,0,0,0,.24,1.88,3.71,3.71,0,0,0,.65,1.29,2.49,2.49,0,0,0,.95.74,2.68,2.68,0,0,0,1.12.23,3.33,3.33,0,0,0,1.26-.22,2.62,2.62,0,0,0,1-.64,2.79,2.79,0,0,0,.61-1A4.27,4.27,0,0,0,27.6,179.31Z"/>
      <path class="cls-11" d="M40.35,178.53a7.7,7.7,0,0,1-.25,2,4.74,4.74,0,0,1-.79,1.68,4,4,0,0,1-1.41,1.17,5.09,5.09,0,0,1-4.14,0,3.9,3.9,0,0,1-1.4-1.17,4.74,4.74,0,0,1-.79-1.68,7.7,7.7,0,0,1-.25-2v-4.38a7.57,7.57,0,0,1,.25-2,4.74,4.74,0,0,1,.79-1.68,4,4,0,0,1,1.4-1.18,5.09,5.09,0,0,1,4.14,0,4.16,4.16,0,0,1,1.41,1.18,4.74,4.74,0,0,1,.79,1.68,7.57,7.57,0,0,1,.25,2ZM39,174.21a7,7,0,0,0-.18-1.63,3.78,3.78,0,0,0-.58-1.3,2.85,2.85,0,0,0-1-.86,3.52,3.52,0,0,0-2.89,0,2.74,2.74,0,0,0-1,.86,4,4,0,0,0-.57,1.3,7,7,0,0,0-.18,1.63v4.28a7,7,0,0,0,.18,1.63,4,4,0,0,0,.57,1.29,2.81,2.81,0,0,0,1,.85,3.52,3.52,0,0,0,2.89,0,2.93,2.93,0,0,0,1-.85,3.82,3.82,0,0,0,.58-1.29,7,7,0,0,0,.18-1.63Z"/>
      <path class="cls-11" d="M46.86,172.39a2.46,2.46,0,0,1-.17.91,1.93,1.93,0,0,1-1.11,1.13,2.32,2.32,0,0,1-.84.16,2.35,2.35,0,0,1-.86-.16,2,2,0,0,1-.68-.44,2,2,0,0,1-.44-.69,2.45,2.45,0,0,1-.16-.91v-1.32a2.36,2.36,0,0,1,.16-.9,2.19,2.19,0,0,1,.44-.7,2,2,0,0,1,.68-.44,2.35,2.35,0,0,1,.86-.16,2.32,2.32,0,0,1,.84.16,1.91,1.91,0,0,1,.67.44,2,2,0,0,1,.44.7,2.37,2.37,0,0,1,.17.9Zm-1-1.36a1.32,1.32,0,0,0-.32-.94,1.11,1.11,0,0,0-.84-.34,1.16,1.16,0,0,0-.86.34,1.28,1.28,0,0,0-.33.94v1.42a1.25,1.25,0,0,0,.33.92,1.12,1.12,0,0,0,.86.34,1.08,1.08,0,0,0,.84-.34,1.29,1.29,0,0,0,.32-.92Zm-1.07,12.48a.49.49,0,0,1-.25.28.53.53,0,0,1-.64-.24.5.5,0,0,1,0-.38l5.11-14a.57.57,0,0,1,.26-.27.44.44,0,0,1,.37,0,.55.55,0,0,1,.28.26.45.45,0,0,1,0,.36Zm6.45-1.9a2.38,2.38,0,0,1-.16.91,2.06,2.06,0,0,1-.45.69,1.82,1.82,0,0,1-.68.44,2.2,2.2,0,0,1-.86.16,2,2,0,0,1-.83-.16,1.82,1.82,0,0,1-.68-.44,2.06,2.06,0,0,1-.45-.69,2.59,2.59,0,0,1-.16-.91v-1.32a2.67,2.67,0,0,1,.16-.91,2.06,2.06,0,0,1,.45-.69,2,2,0,0,1,.68-.44,2.23,2.23,0,0,1,.83-.16,2.39,2.39,0,0,1,.86.16,2,2,0,0,1,.68.44,2.06,2.06,0,0,1,.45.69,2.45,2.45,0,0,1,.16.91Zm-1-1.38a1.26,1.26,0,0,0-.32-.91,1.17,1.17,0,0,0-.88-.33,1.12,1.12,0,0,0-.83.33,1.26,1.26,0,0,0-.32.91v1.44a1.3,1.3,0,0,0,.32.93,1.12,1.12,0,0,0,.83.33,1.15,1.15,0,0,0,.87-.33,1.26,1.26,0,0,0,.33-.93Z"/>
      <path class="cls-11" d="M17.54,221.48a.61.61,0,0,1-.61.61H11.8a.54.54,0,0,1-.42-.18.6.6,0,0,1,0-.86.54.54,0,0,1,.42-.18h5.13a.61.61,0,0,1,.61.61Z"/>
      <path class="cls-11" d="M29.34,223.6a3.7,3.7,0,0,1-.35,1.62,3.37,3.37,0,0,1-1,1.23,4.55,4.55,0,0,1-1.48.79,6.46,6.46,0,0,1-1.92.27,6.53,6.53,0,0,1-1.86-.25,4.45,4.45,0,0,1-1.49-.75,3.47,3.47,0,0,1-1-1.22,3.7,3.7,0,0,1-.36-1.67,3.35,3.35,0,0,1,.27-1.39,3.15,3.15,0,0,1,.71-1,5.29,5.29,0,0,1,1.05-.8c.39-.22.81-.43,1.25-.63a7.82,7.82,0,0,1-1-.54,3.53,3.53,0,0,1-.82-.71,3.17,3.17,0,0,1-.56-.94,3.41,3.41,0,0,1-.21-1.25,3.76,3.76,0,0,1,.33-1.63,3.21,3.21,0,0,1,.87-1.17,3.76,3.76,0,0,1,1.28-.69,5.08,5.08,0,0,1,1.52-.23,4.89,4.89,0,0,1,1.55.24,3.67,3.67,0,0,1,1.25.71,3.49,3.49,0,0,1,.84,1.15,3.89,3.89,0,0,1,.3,1.57,3.37,3.37,0,0,1-.18,1.14,3.11,3.11,0,0,1-.52.9,4.32,4.32,0,0,1-.8.73,6.68,6.68,0,0,1-1,.6,11.8,11.8,0,0,1,1.24.59,4.46,4.46,0,0,1,1,.77,3.42,3.42,0,0,1,.73,1.09A3.8,3.8,0,0,1,29.34,223.6Zm-1.32,0a2.43,2.43,0,0,0-.29-1.23,3,3,0,0,0-.76-.86,4.84,4.84,0,0,0-1.1-.62l-1.28-.51c-.42.17-.84.35-1.24.54a5.76,5.76,0,0,0-1.06.65,3,3,0,0,0-.76.85,2.24,2.24,0,0,0-.28,1.16,2.58,2.58,0,0,0,.25,1.17,2.51,2.51,0,0,0,.7.88,3.42,3.42,0,0,0,1.06.54,4.45,4.45,0,0,0,1.35.19,4.58,4.58,0,0,0,1.43-.2,3.11,3.11,0,0,0,1.07-.56,2.49,2.49,0,0,0,.67-.88A2.59,2.59,0,0,0,28,223.56Zm-.72-7.18a2.8,2.8,0,0,0-.21-1.12,2.16,2.16,0,0,0-.55-.82,2.48,2.48,0,0,0-.85-.5,3.36,3.36,0,0,0-2.11,0,2.36,2.36,0,0,0-.86.49,2.4,2.4,0,0,0-.58.81,2.83,2.83,0,0,0-.21,1.12,2.25,2.25,0,0,0,.22,1,2.39,2.39,0,0,0,.6.74,3.82,3.82,0,0,0,.87.56c.34.16.69.31,1.06.45.35-.15.69-.31,1-.48a4,4,0,0,0,.84-.58,2.3,2.3,0,0,0,.56-.73A2.08,2.08,0,0,0,27.3,216.38Z"/>
      <path class="cls-11" d="M40.35,222.24a7.7,7.7,0,0,1-.25,2,4.82,4.82,0,0,1-.79,1.68,4,4,0,0,1-1.41,1.17,5.2,5.2,0,0,1-4.14,0,3.9,3.9,0,0,1-1.4-1.17,4.82,4.82,0,0,1-.79-1.68,7.7,7.7,0,0,1-.25-2v-4.38a7.57,7.57,0,0,1,.25-2,4.78,4.78,0,0,1,.79-1.69,4,4,0,0,1,1.4-1.17,5.09,5.09,0,0,1,4.14,0,4.14,4.14,0,0,1,1.41,1.17,4.78,4.78,0,0,1,.79,1.69,7.57,7.57,0,0,1,.25,2ZM39,217.91a7,7,0,0,0-.18-1.63,4,4,0,0,0-.58-1.3,2.93,2.93,0,0,0-1-.85,3.52,3.52,0,0,0-2.89,0,2.81,2.81,0,0,0-1,.85,4.17,4.17,0,0,0-.57,1.3,7,7,0,0,0-.18,1.63v4.29a7,7,0,0,0,.18,1.63,4.11,4.11,0,0,0,.57,1.29,2.81,2.81,0,0,0,1,.85,3.63,3.63,0,0,0,2.89,0,2.93,2.93,0,0,0,1-.85,3.91,3.91,0,0,0,.58-1.29A7,7,0,0,0,39,222.2Z"/>
      <path class="cls-11" d="M46.86,216.1a2.46,2.46,0,0,1-.17.91,1.9,1.9,0,0,1-.44.69,2.05,2.05,0,0,1-.67.44,2.32,2.32,0,0,1-.84.16,2.35,2.35,0,0,1-.86-.16,2.1,2.1,0,0,1-.68-.44,2,2,0,0,1-.44-.69,2.45,2.45,0,0,1-.16-.91v-1.32a2.36,2.36,0,0,1,.16-.9,2.09,2.09,0,0,1,.44-.7,2,2,0,0,1,.68-.44,2.16,2.16,0,0,1,.86-.16,2.13,2.13,0,0,1,.84.16,1.91,1.91,0,0,1,.67.44,1.94,1.94,0,0,1,.44.7,2.37,2.37,0,0,1,.17.9Zm-1-1.36a1.32,1.32,0,0,0-.32-.94,1.08,1.08,0,0,0-.84-.34,1.12,1.12,0,0,0-.86.34,1.28,1.28,0,0,0-.33.94v1.42a1.26,1.26,0,0,0,.33.92,1.16,1.16,0,0,0,.86.34,1.11,1.11,0,0,0,.84-.34,1.3,1.3,0,0,0,.32-.92Zm-1.07,12.48a.45.45,0,0,1-.25.27.38.38,0,0,1-.36,0,.4.4,0,0,1-.28-.24.47.47,0,0,1,0-.37l5.11-14a.57.57,0,0,1,.26-.27.44.44,0,0,1,.37,0,.51.51,0,0,1,.28.26.45.45,0,0,1,0,.36Zm6.45-1.9a2.42,2.42,0,0,1-.16.91,2.06,2.06,0,0,1-.45.69,2,2,0,0,1-.68.44,2.39,2.39,0,0,1-.86.15,2.23,2.23,0,0,1-.83-.15,2,2,0,0,1-.68-.44,2.06,2.06,0,0,1-.45-.69,2.63,2.63,0,0,1-.16-.91V224a2.63,2.63,0,0,1,.16-.91,2.06,2.06,0,0,1,.45-.69,2,2,0,0,1,.68-.44,2,2,0,0,1,.83-.16A2.2,2.2,0,0,1,50,222a2,2,0,0,1,.68.44,2.06,2.06,0,0,1,.45.69,2.42,2.42,0,0,1,.16.91Zm-1-1.38A1.24,1.24,0,0,0,50,223a1.17,1.17,0,0,0-.88-.33,1.12,1.12,0,0,0-.83.33,1.24,1.24,0,0,0-.32.91v1.44a1.3,1.3,0,0,0,.32.93,1.11,1.11,0,0,0,.83.32,1.14,1.14,0,0,0,.87-.32,1.26,1.26,0,0,0,.33-.93Z"/>
      <path class="cls-11" d="M6.34,265.19a.61.61,0,0,1-.61.61H.6a.54.54,0,0,1-.42-.18.6.6,0,0,1-.18-.43.57.57,0,0,1,.18-.43.54.54,0,0,1,.42-.18H5.73a.6.6,0,0,1,.43.18A.57.57,0,0,1,6.34,265.19Z"/>
      <path class="cls-11" d="M17.59,270.43a.58.58,0,0,1-.18.43A.6.6,0,0,1,17,271H9.8a.63.63,0,0,1-.45-.18.53.53,0,0,1-.2-.43.58.58,0,0,1,.2-.46.64.64,0,0,1,.45-.19h3.63V258.11l-3.9,2.69a.61.61,0,0,1-.47.11.58.58,0,0,1-.41-.27.65.65,0,0,1-.09-.47.57.57,0,0,1,.27-.4l4.84-3.34a.59.59,0,0,1,.42-.14.67.67,0,0,1,.47.18.63.63,0,0,1,.2.47v12.84H17a.61.61,0,0,1,.44.19A.63.63,0,0,1,17.59,270.43Z"/>
      <path class="cls-11" d="M29.15,266a7.57,7.57,0,0,1-.25,2,4.78,4.78,0,0,1-.79,1.69,4,4,0,0,1-1.41,1.17,4.52,4.52,0,0,1-2.07.43,4.52,4.52,0,0,1-2.07-.43,3.9,3.9,0,0,1-1.4-1.17,4.78,4.78,0,0,1-.79-1.69,7.57,7.57,0,0,1-.25-2v-4.39a7.68,7.68,0,0,1,.25-2,4.82,4.82,0,0,1,.79-1.68,3.9,3.9,0,0,1,1.4-1.17,5.09,5.09,0,0,1,4.14,0,4,4,0,0,1,1.41,1.17,4.82,4.82,0,0,1,.79,1.68,7.68,7.68,0,0,1,.25,2Zm-1.32-4.33a7,7,0,0,0-.18-1.63,4,4,0,0,0-.58-1.3,2.77,2.77,0,0,0-1-.85,3,3,0,0,0-1.43-.31,3.13,3.13,0,0,0-1.45.31,2.71,2.71,0,0,0-1,.85,4,4,0,0,0-.57,1.3,7,7,0,0,0-.18,1.63v4.29a6.87,6.87,0,0,0,.18,1.62,3.8,3.8,0,0,0,.57,1.29,2.71,2.71,0,0,0,1,.85,3.13,3.13,0,0,0,1.45.31,3,3,0,0,0,1.43-.31,2.77,2.77,0,0,0,1-.85,3.82,3.82,0,0,0,.58-1.29,6.87,6.87,0,0,0,.18-1.62Z"/>
      <path class="cls-11" d="M40.35,266a7.57,7.57,0,0,1-.25,2,4.78,4.78,0,0,1-.79,1.69,4,4,0,0,1-1.41,1.17,5.2,5.2,0,0,1-4.14,0,3.9,3.9,0,0,1-1.4-1.17,4.78,4.78,0,0,1-.79-1.69,7.57,7.57,0,0,1-.25-2v-4.39a7.68,7.68,0,0,1,.25-2,4.82,4.82,0,0,1,.79-1.68,3.9,3.9,0,0,1,1.4-1.17,5.09,5.09,0,0,1,4.14,0,4,4,0,0,1,1.41,1.17,4.82,4.82,0,0,1,.79,1.68,7.68,7.68,0,0,1,.25,2ZM39,261.62a7,7,0,0,0-.18-1.63,4,4,0,0,0-.58-1.3,2.82,2.82,0,0,0-1-.85,3.52,3.52,0,0,0-2.89,0,2.71,2.71,0,0,0-1,.85,4.17,4.17,0,0,0-.57,1.3,7,7,0,0,0-.18,1.63v4.29a6.87,6.87,0,0,0,.18,1.62,4,4,0,0,0,.57,1.29,2.71,2.71,0,0,0,1,.85,3.52,3.52,0,0,0,2.89,0,2.82,2.82,0,0,0,1-.85,3.82,3.82,0,0,0,.58-1.29,6.87,6.87,0,0,0,.18-1.62Z"/>
      <path class="cls-11" d="M46.86,259.8a2.38,2.38,0,0,1-.17.91,1.86,1.86,0,0,1-.44.7,2.23,2.23,0,0,1-.67.44,2.32,2.32,0,0,1-.84.15,2.35,2.35,0,0,1-.86-.15,2.28,2.28,0,0,1-.68-.44,2,2,0,0,1-.44-.7,2.38,2.38,0,0,1-.16-.91v-1.31a2.38,2.38,0,0,1,.16-.91,2,2,0,0,1,.44-.69,2.12,2.12,0,0,1,.68-.45,2.35,2.35,0,0,1,.86-.15,2.32,2.32,0,0,1,.84.15,2.08,2.08,0,0,1,.67.45,1.9,1.9,0,0,1,.44.69,2.38,2.38,0,0,1,.17.91Zm-1-1.35a1.35,1.35,0,0,0-.32-.95,1.11,1.11,0,0,0-.84-.33,1.15,1.15,0,0,0-.86.33,1.31,1.31,0,0,0-.33.95v1.41a1.29,1.29,0,0,0,.33.93,1.15,1.15,0,0,0,.86.33,1.11,1.11,0,0,0,.84-.33,1.33,1.33,0,0,0,.32-.93Zm-1.07,12.48a.49.49,0,0,1-.89,0,.47.47,0,0,1,0-.37l5.11-14a.55.55,0,0,1,.26-.26.44.44,0,0,1,.37,0,.51.51,0,0,1,.28.26.43.43,0,0,1,0,.35ZM51.28,269a2.43,2.43,0,0,1-.16.92,2.06,2.06,0,0,1-.45.69,2,2,0,0,1-.68.44,2.39,2.39,0,0,1-.86.15,2.23,2.23,0,0,1-.83-.15,2,2,0,0,1-.68-.44,2.06,2.06,0,0,1-.45-.69A2.65,2.65,0,0,1,47,269V267.7a2.57,2.57,0,0,1,.16-.9,2,2,0,0,1,.45-.7,2.1,2.1,0,0,1,.68-.44,2.23,2.23,0,0,1,.83-.15,2.39,2.39,0,0,1,.86.15,2.1,2.1,0,0,1,.68.44,2,2,0,0,1,.45.7,2.36,2.36,0,0,1,.16.9Zm-1-1.37a1.29,1.29,0,0,0-.32-.92,1.16,1.16,0,0,0-.88-.32,1.11,1.11,0,0,0-.83.32,1.29,1.29,0,0,0-.32.92v1.43a1.26,1.26,0,0,0,.32.93,1.12,1.12,0,0,0,.83.33A1.15,1.15,0,0,0,50,270a1.23,1.23,0,0,0,.33-.93Z"/>
      <path class="cls-11" d="M127.77,38.18a.58.58,0,0,1-.19.45.56.56,0,0,1-.43.19h-7.26a.61.61,0,0,1-.47-.18.63.63,0,0,1-.17-.46,4.63,4.63,0,0,1,.16-1.26,5,5,0,0,1,.45-1.09,5.56,5.56,0,0,1,.64-.94,8.65,8.65,0,0,1,.79-.81,14.26,14.26,0,0,1,1.11-.92l1.17-.86c.38-.29.74-.58,1.09-.87a6.66,6.66,0,0,0,.92-.92,4.5,4.5,0,0,0,.63-1.05,3.19,3.19,0,0,0,.23-1.22,3.58,3.58,0,0,0-.17-1.14,2.62,2.62,0,0,0-.52-.94,2.54,2.54,0,0,0-.89-.64,3.25,3.25,0,0,0-1.3-.23,5.29,5.29,0,0,0-1.18.12,4.16,4.16,0,0,0-.92.33A4.64,4.64,0,0,0,121,26l-.31.25-.24.17a.52.52,0,0,1-.25.07.63.63,0,0,1-.44-.19.64.64,0,0,1-.19-.47.52.52,0,0,1,0-.24.67.67,0,0,1,.16-.24,5.06,5.06,0,0,1,1.65-1,6.27,6.27,0,0,1,2.18-.35,4.62,4.62,0,0,1,1.87.35,3.58,3.58,0,0,1,1.3.93,3.71,3.71,0,0,1,.76,1.34,4.81,4.81,0,0,1,.25,1.56,4.19,4.19,0,0,1-.28,1.58,5,5,0,0,1-.74,1.29,6.68,6.68,0,0,1-1,1.08c-.4.34-.81.66-1.23,1l-1.26.93a12.79,12.79,0,0,0-1.16,1,6.87,6.87,0,0,0-.9,1.13,3.81,3.81,0,0,0-.51,1.34h6.51a.63.63,0,0,1,.62.62Z"/>
      <path class="cls-11" d="M139.26,33.72a8.1,8.1,0,0,1-.24,2,4.93,4.93,0,0,1-.8,1.68,3.86,3.86,0,0,1-1.41,1.17,4.52,4.52,0,0,1-2.07.44,4.58,4.58,0,0,1-2.07-.44,3.9,3.9,0,0,1-1.4-1.17,4.91,4.91,0,0,1-.79-1.68,7.64,7.64,0,0,1-.25-2V29.34a7.62,7.62,0,0,1,.25-2,4.91,4.91,0,0,1,.79-1.68,4,4,0,0,1,1.4-1.18,4.58,4.58,0,0,1,2.07-.44,4.52,4.52,0,0,1,2.07.44,4,4,0,0,1,1.41,1.18,4.93,4.93,0,0,1,.8,1.68,8.07,8.07,0,0,1,.24,2ZM138,29.4a6.94,6.94,0,0,0-.19-1.63,3.6,3.6,0,0,0-.58-1.3,2.77,2.77,0,0,0-1-.86,3.5,3.5,0,0,0-2.88,0,2.58,2.58,0,0,0-1,.86,3.59,3.59,0,0,0-.57,1.3,6.45,6.45,0,0,0-.19,1.63v4.28a6.45,6.45,0,0,0,.19,1.63,3.62,3.62,0,0,0,.57,1.29,2.64,2.64,0,0,0,1,.85,3.5,3.5,0,0,0,2.88,0,2.84,2.84,0,0,0,1-.85,3.63,3.63,0,0,0,.58-1.29,6.94,6.94,0,0,0,.19-1.63Z"/>
      <path class="cls-11" d="M150.17,38.18a.61.61,0,0,1-.18.45.59.59,0,0,1-.44.19h-7.26a.61.61,0,0,1-.47-.18.67.67,0,0,1-.17-.46,4.63,4.63,0,0,1,.16-1.26,5,5,0,0,1,.45-1.09,5.08,5.08,0,0,1,.65-.94,10,10,0,0,1,.78-.81,12.76,12.76,0,0,1,1.12-.92L146,32.3c.38-.29.74-.58,1.09-.87a6.15,6.15,0,0,0,.92-.92,4.5,4.5,0,0,0,.63-1.05,3,3,0,0,0,.23-1.22,3.58,3.58,0,0,0-.17-1.14,2.47,2.47,0,0,0-1.41-1.58,3.18,3.18,0,0,0-1.3-.23,5.14,5.14,0,0,0-1.17.12,4.25,4.25,0,0,0-.93.33,3.58,3.58,0,0,0-.47.29l-.32.25-.24.17a.49.49,0,0,1-.25.07.65.65,0,0,1-.44-.19.64.64,0,0,1-.19-.47.69.69,0,0,1,.05-.24.71.71,0,0,1,.17-.24,4.92,4.92,0,0,1,1.64-1,6.27,6.27,0,0,1,2.18-.35,4.59,4.59,0,0,1,1.87.35,3.58,3.58,0,0,1,1.3.93,3.71,3.71,0,0,1,.76,1.34,4.81,4.81,0,0,1,.25,1.56,4.19,4.19,0,0,1-.28,1.58,5.3,5.3,0,0,1-.73,1.29,7.2,7.2,0,0,1-1.06,1.08c-.39.34-.8.66-1.23,1l-1.26.93a11.4,11.4,0,0,0-1.15,1,6.93,6.93,0,0,0-.91,1.13,3.81,3.81,0,0,0-.51,1.34h6.51a.62.62,0,0,1,.44.18A.6.6,0,0,1,150.17,38.18Z"/>
      <path class="cls-11" d="M161.27,34.46a5.26,5.26,0,0,1-.27,1.67,3.94,3.94,0,0,1-2.25,2.48,5.08,5.08,0,0,1-2.08.39,7.23,7.23,0,0,1-1.64-.19,4.23,4.23,0,0,1-1.52-.75.69.69,0,0,1-.3-.54.65.65,0,0,1,.19-.46.59.59,0,0,1,.45-.2.63.63,0,0,1,.19,0,.52.52,0,0,1,.19.11,3.17,3.17,0,0,0,1.11.6,4.59,4.59,0,0,0,1.33.19,3.8,3.8,0,0,0,1.51-.28,2.71,2.71,0,0,0,1-.73,2.82,2.82,0,0,0,.58-1.06,4.36,4.36,0,0,0,.18-1.26,3.44,3.44,0,0,0-.79-2.47,2.9,2.9,0,0,0-2.17-.81,2.84,2.84,0,0,0-.92.13,2.34,2.34,0,0,0-.74.37,5.08,5.08,0,0,0-.39.33l-.27.26a.87.87,0,0,1-.22.18.51.51,0,0,1-.28.07.63.63,0,0,1-.46-.18.6.6,0,0,1-.16-.48l.22-7a.6.6,0,0,1,.21-.44.64.64,0,0,1,.45-.18h5.4a.63.63,0,0,1,.46.18.6.6,0,0,1,.18.44.62.62,0,0,1-.64.62H155l-.16,5.23a3.2,3.2,0,0,1,1-.56,4,4,0,0,1,1.18-.17,5,5,0,0,1,1.78.3,3.54,3.54,0,0,1,1.32.87,3.79,3.79,0,0,1,.83,1.41A5.83,5.83,0,0,1,161.27,34.46Z"/>
      <path class="cls-11" d="M171.45,33.7a.54.54,0,0,1-.15.4.57.57,0,0,1-.37.14h-5.8v.6a4.63,4.63,0,0,0,.15,1.22,2.54,2.54,0,0,0,.46.93,2,2,0,0,0,.8.6,2.85,2.85,0,0,0,1.15.21,5.63,5.63,0,0,0,1.53-.18,5.06,5.06,0,0,0,1.11-.46.5.5,0,0,1,.44,0,.55.55,0,0,1,.3.3.62.62,0,0,1,0,.4.57.57,0,0,1-.26.34,5,5,0,0,1-1.47.59,7.11,7.11,0,0,1-1.71.19,4.22,4.22,0,0,1-1.76-.33,3.19,3.19,0,0,1-1.18-.91,3.69,3.69,0,0,1-.66-1.33,6.3,6.3,0,0,1-.2-1.59V32.92a6,6,0,0,1,.21-1.6,3.69,3.69,0,0,1,.66-1.33,3.09,3.09,0,0,1,1.18-.91,4,4,0,0,1,1.75-.34,4.3,4.3,0,0,1,1.79.33,3.33,3.33,0,0,1,1.17.9,3.67,3.67,0,0,1,.63,1.32,6.3,6.3,0,0,1,.19,1.59Zm-1.24-.94a5,5,0,0,0-.13-1.2,2.4,2.4,0,0,0-.43-.91,1.93,1.93,0,0,0-.78-.59,3,3,0,0,0-1.2-.2,2.9,2.9,0,0,0-1.16.21,1.89,1.89,0,0,0-.79.59,2.39,2.39,0,0,0-.44.92,4.5,4.5,0,0,0-.15,1.21v.37h5.08Z"/>
      <path class="cls-11" d="M430.81,38.18a.61.61,0,0,1-.18.45.59.59,0,0,1-.44.19h-7.26a.61.61,0,0,1-.47-.18.63.63,0,0,1-.17-.46,4.63,4.63,0,0,1,.16-1.26,5,5,0,0,1,.45-1.09,5.08,5.08,0,0,1,.65-.94,7.46,7.46,0,0,1,.78-.81,12.76,12.76,0,0,1,1.12-.92l1.16-.86c.38-.29.74-.58,1.09-.87a6.15,6.15,0,0,0,.92-.92,4.5,4.5,0,0,0,.63-1.05,3,3,0,0,0,.23-1.22,3.58,3.58,0,0,0-.17-1.14,2.62,2.62,0,0,0-.52-.94,2.45,2.45,0,0,0-.89-.64,3.22,3.22,0,0,0-1.3-.23,5.14,5.14,0,0,0-1.17.12,4.07,4.07,0,0,0-.93.33A4.64,4.64,0,0,0,424,26l-.31.25-.24.17a.52.52,0,0,1-.25.07.63.63,0,0,1-.44-.19.64.64,0,0,1-.19-.47.69.69,0,0,1,.05-.24.84.84,0,0,1,.16-.24,5.06,5.06,0,0,1,1.65-1,6.27,6.27,0,0,1,2.18-.35,4.62,4.62,0,0,1,1.87.35,3.58,3.58,0,0,1,1.3.93,3.71,3.71,0,0,1,.76,1.34,4.81,4.81,0,0,1,.25,1.56,4.19,4.19,0,0,1-.28,1.58,5.3,5.3,0,0,1-.73,1.29,7.2,7.2,0,0,1-1.06,1.08c-.4.34-.81.66-1.23,1l-1.26.93a12.79,12.79,0,0,0-1.16,1,6.87,6.87,0,0,0-.9,1.13,3.81,3.81,0,0,0-.51,1.34h6.51a.62.62,0,0,1,.44.18A.6.6,0,0,1,430.81,38.18Z"/>
      <path class="cls-11" d="M442.31,33.72a8.1,8.1,0,0,1-.25,2,4.93,4.93,0,0,1-.8,1.68,3.86,3.86,0,0,1-1.41,1.17,4.52,4.52,0,0,1-2.07.44,4.58,4.58,0,0,1-2.07-.44,3.9,3.9,0,0,1-1.4-1.17,4.91,4.91,0,0,1-.79-1.68,8.1,8.1,0,0,1-.25-2V29.34a8.08,8.08,0,0,1,.25-2,4.91,4.91,0,0,1,.79-1.68,4,4,0,0,1,1.4-1.18,4.58,4.58,0,0,1,2.07-.44,4.52,4.52,0,0,1,2.07.44,4,4,0,0,1,1.41,1.18,4.93,4.93,0,0,1,.8,1.68,8.08,8.08,0,0,1,.25,2ZM441,29.4a6.45,6.45,0,0,0-.19-1.63,3.6,3.6,0,0,0-.58-1.3,2.77,2.77,0,0,0-1-.86,3.5,3.5,0,0,0-2.88,0,2.74,2.74,0,0,0-1,.86,3.59,3.59,0,0,0-.57,1.3,6.45,6.45,0,0,0-.19,1.63v4.28a6.45,6.45,0,0,0,.19,1.63,3.62,3.62,0,0,0,.57,1.29,2.81,2.81,0,0,0,1,.85,3.5,3.5,0,0,0,2.88,0,2.84,2.84,0,0,0,1-.85,3.63,3.63,0,0,0,.58-1.29,6.45,6.45,0,0,0,.19-1.63Z"/>
      <path class="cls-11" d="M453,34.86a4.4,4.4,0,0,1-.28,1.57,3.7,3.7,0,0,1-.85,1.32,4,4,0,0,1-1.41.91,5.47,5.47,0,0,1-2,.34,10.26,10.26,0,0,1-1.14-.07,5.51,5.51,0,0,1-1-.24,4.65,4.65,0,0,1-.92-.46,4.31,4.31,0,0,1-.87-.71.61.61,0,0,1-.22-.46.62.62,0,0,1,.18-.44.58.58,0,0,1,.42-.18.37.37,0,0,1,.21.06,1.5,1.5,0,0,1,.23.17l.3.26a4,4,0,0,0,.44.31,3.66,3.66,0,0,0,1.08.47,5.48,5.48,0,0,0,1.26.13,4,4,0,0,0,1.44-.24,2.81,2.81,0,0,0,1-.66,2.68,2.68,0,0,0,.6-1,3.57,3.57,0,0,0,.2-1.18,2.93,2.93,0,0,0-.29-1.37,2.4,2.4,0,0,0-.77-.87,3.28,3.28,0,0,0-1.13-.46,6.56,6.56,0,0,0-1.35-.16l-.21,0a.52.52,0,0,1-.36-.26.56.56,0,0,1-.07-.3.52.52,0,0,1,.07-.29.93.93,0,0,1,.16-.18.5.5,0,0,1,.21-.09l.2,0a5.85,5.85,0,0,0,.69-.08,6.77,6.77,0,0,0,.74-.2,4.1,4.1,0,0,0,.7-.34,2.26,2.26,0,0,0,.58-.49,2.39,2.39,0,0,0,.4-.68,2.44,2.44,0,0,0,.15-.89,4,4,0,0,0-.14-1,2.55,2.55,0,0,0-.47-.91,2.5,2.5,0,0,0-.88-.65,3.16,3.16,0,0,0-1.35-.25,4,4,0,0,0-1.2.16,4.2,4.2,0,0,0-1,.4,3.84,3.84,0,0,0-.43.3l-.28.25a1.46,1.46,0,0,1-.22.17.41.41,0,0,1-.23.06.59.59,0,0,1-.4-.15.55.55,0,0,1-.18-.43.7.7,0,0,1,.24-.5,3.48,3.48,0,0,1,.64-.55,4.69,4.69,0,0,1,.83-.46,4.79,4.79,0,0,1,1-.31,5.74,5.74,0,0,1,1.2-.12,4.53,4.53,0,0,1,1.92.37,3.56,3.56,0,0,1,1.25.93,3.49,3.49,0,0,1,.67,1.26,4.89,4.89,0,0,1,.2,1.34,3.67,3.67,0,0,1-.18,1.19,3,3,0,0,1-.49.93,2.76,2.76,0,0,1-.75.69,4.28,4.28,0,0,1-1,.47,5.38,5.38,0,0,1,1.12.47,3.2,3.2,0,0,1,.86.72,3.1,3.1,0,0,1,.56,1A4.54,4.54,0,0,1,453,34.86Z"/>
      <path class="cls-11" d="M464.71,33.72a8.1,8.1,0,0,1-.25,2,4.75,4.75,0,0,1-.8,1.68,3.9,3.9,0,0,1-1.4,1.17,4.58,4.58,0,0,1-2.07.44,4.52,4.52,0,0,1-2.07-.44,3.94,3.94,0,0,1-1.41-1.17,4.91,4.91,0,0,1-.79-1.68,8.1,8.1,0,0,1-.25-2V29.34a8.08,8.08,0,0,1,.25-2,4.91,4.91,0,0,1,.79-1.68,4.07,4.07,0,0,1,1.41-1.18,4.52,4.52,0,0,1,2.07-.44,4.58,4.58,0,0,1,2.07.44,4,4,0,0,1,1.4,1.18,4.75,4.75,0,0,1,.8,1.68,8.08,8.08,0,0,1,.25,2Zm-1.32-4.32a6.45,6.45,0,0,0-.19-1.63,3.44,3.44,0,0,0-.58-1.3,2.69,2.69,0,0,0-1-.86,3.17,3.17,0,0,0-1.43-.31,3.23,3.23,0,0,0-1.45.31,2.74,2.74,0,0,0-1,.86,3.59,3.59,0,0,0-.57,1.3A6.45,6.45,0,0,0,457,29.4v4.28a6.45,6.45,0,0,0,.19,1.63,3.62,3.62,0,0,0,.57,1.29,2.81,2.81,0,0,0,1,.85,3.23,3.23,0,0,0,1.45.31,3.17,3.17,0,0,0,1.43-.31,2.75,2.75,0,0,0,1-.85,3.47,3.47,0,0,0,.58-1.29,6.45,6.45,0,0,0,.19-1.63Z"/>
      <path class="cls-11" d="M474.49,33.7a.54.54,0,0,1-.15.4.56.56,0,0,1-.36.14h-5.81v.6a4.63,4.63,0,0,0,.15,1.22,2.54,2.54,0,0,0,.46.93,2,2,0,0,0,.8.6,2.85,2.85,0,0,0,1.15.21,5.63,5.63,0,0,0,1.53-.18,4.87,4.87,0,0,0,1.11-.46.5.5,0,0,1,.44,0,.55.55,0,0,1,.3.3.62.62,0,0,1,0,.4.57.57,0,0,1-.26.34,5,5,0,0,1-1.47.59,7.05,7.05,0,0,1-1.71.19,4.22,4.22,0,0,1-1.76-.33,3.19,3.19,0,0,1-1.18-.91,3.52,3.52,0,0,1-.65-1.33,5.87,5.87,0,0,1-.2-1.59V32.92a6,6,0,0,1,.2-1.6,3.69,3.69,0,0,1,.66-1.33,3.09,3.09,0,0,1,1.18-.91,4,4,0,0,1,1.75-.34,4.3,4.3,0,0,1,1.79.33,3.33,3.33,0,0,1,1.17.9,3.51,3.51,0,0,1,.63,1.32,6.3,6.3,0,0,1,.19,1.59Zm-1.24-.94a5,5,0,0,0-.13-1.2,2.4,2.4,0,0,0-.43-.91,1.93,1.93,0,0,0-.78-.59,3,3,0,0,0-1.2-.2,2.9,2.9,0,0,0-1.16.21,1.89,1.89,0,0,0-.79.59,2.39,2.39,0,0,0-.44.92,4.5,4.5,0,0,0-.15,1.21v.37h5.08Z"/>
      <path class="cls-11" d="M745.35,38.18a.58.58,0,0,1-.19.45.58.58,0,0,1-.44.19h-7.25a.61.61,0,0,1-.47-.18.63.63,0,0,1-.18-.46,4.62,4.62,0,0,1,.17-1.26,5,5,0,0,1,.45-1.09,5.56,5.56,0,0,1,.64-.94,8.65,8.65,0,0,1,.79-.81,14.26,14.26,0,0,1,1.11-.92l1.17-.86c.38-.29.74-.58,1.09-.87a6.66,6.66,0,0,0,.92-.92,4.5,4.5,0,0,0,.63-1.05,3.19,3.19,0,0,0,.23-1.22,3.88,3.88,0,0,0-.17-1.14,2.62,2.62,0,0,0-.52-.94,2.54,2.54,0,0,0-.89-.64,3.25,3.25,0,0,0-1.3-.23,5.29,5.29,0,0,0-1.18.12,4,4,0,0,0-.92.33,4.64,4.64,0,0,0-.48.29l-.31.25-.24.17a.55.55,0,0,1-.25.07.63.63,0,0,1-.44-.19.64.64,0,0,1-.19-.47.52.52,0,0,1,0-.24.67.67,0,0,1,.16-.24,5.06,5.06,0,0,1,1.65-1,6.27,6.27,0,0,1,2.18-.35,4.62,4.62,0,0,1,1.87.35,3.67,3.67,0,0,1,1.3.93,3.71,3.71,0,0,1,.76,1.34,4.81,4.81,0,0,1,.25,1.56,4.19,4.19,0,0,1-.28,1.58,5,5,0,0,1-.74,1.29,6.68,6.68,0,0,1-1.05,1.08c-.4.34-.81.66-1.23,1l-1.26.93a12.79,12.79,0,0,0-1.16,1,6.38,6.38,0,0,0-.9,1.13,3.62,3.62,0,0,0-.51,1.34h6.5a.6.6,0,0,1,.44.18A.58.58,0,0,1,745.35,38.18Z"/>
      <path class="cls-11" d="M756.84,33.72a8.1,8.1,0,0,1-.24,2,4.93,4.93,0,0,1-.8,1.68,3.94,3.94,0,0,1-1.41,1.17,4.52,4.52,0,0,1-2.07.44,4.58,4.58,0,0,1-2.07-.44,3.9,3.9,0,0,1-1.4-1.17,4.91,4.91,0,0,1-.79-1.68,7.64,7.64,0,0,1-.25-2V29.34a7.62,7.62,0,0,1,.25-2,4.91,4.91,0,0,1,.79-1.68,4,4,0,0,1,1.4-1.18,4.58,4.58,0,0,1,2.07-.44,4.52,4.52,0,0,1,2.07.44,4.07,4.07,0,0,1,1.41,1.18,4.93,4.93,0,0,1,.8,1.68,8.07,8.07,0,0,1,.24,2Zm-1.31-4.32a6.94,6.94,0,0,0-.19-1.63,3.6,3.6,0,0,0-.58-1.3,2.77,2.77,0,0,0-1-.86,3.5,3.5,0,0,0-2.88,0,2.58,2.58,0,0,0-1,.86,3.78,3.78,0,0,0-.58,1.3,7,7,0,0,0-.18,1.63v4.28a7,7,0,0,0,.18,1.63,3.82,3.82,0,0,0,.58,1.29,2.64,2.64,0,0,0,1,.85,3.5,3.5,0,0,0,2.88,0,2.84,2.84,0,0,0,1-.85,3.63,3.63,0,0,0,.58-1.29,6.94,6.94,0,0,0,.19-1.63Z"/>
      <path class="cls-11" d="M767.49,34.86a4.64,4.64,0,0,1-.28,1.57,3.7,3.7,0,0,1-.85,1.32,4,4,0,0,1-1.41.91,5.47,5.47,0,0,1-2,.34,10,10,0,0,1-1.14-.07,5.32,5.32,0,0,1-1-.24,4.65,4.65,0,0,1-.92-.46,4.31,4.31,0,0,1-.87-.71.61.61,0,0,1-.22-.46.62.62,0,0,1,.18-.44.58.58,0,0,1,.42-.18.42.42,0,0,1,.21.06,1.5,1.5,0,0,1,.23.17l.3.26a4.93,4.93,0,0,0,.43.31,3.83,3.83,0,0,0,1.09.47,5.48,5.48,0,0,0,1.26.13,3.93,3.93,0,0,0,1.43-.24,2.81,2.81,0,0,0,1-.66,2.7,2.7,0,0,0,.61-1,3.57,3.57,0,0,0,.2-1.18,2.93,2.93,0,0,0-.29-1.37,2.4,2.4,0,0,0-.77-.87,3.28,3.28,0,0,0-1.13-.46,6.58,6.58,0,0,0-1.36-.16l-.2,0a.5.5,0,0,1-.21-.09.66.66,0,0,1-.16-.17.67.67,0,0,1-.06-.3.52.52,0,0,1,.07-.29.69.69,0,0,1,.16-.18.5.5,0,0,1,.21-.09l.19,0a5.78,5.78,0,0,0,.7-.08,6.77,6.77,0,0,0,.74-.2,3.68,3.68,0,0,0,.69-.34,2.14,2.14,0,0,0,.59-.49,2.65,2.65,0,0,0,.4-.68,2.44,2.44,0,0,0,.15-.89,4,4,0,0,0-.14-1,2.72,2.72,0,0,0-.47-.91,2.5,2.5,0,0,0-.88-.65,3.18,3.18,0,0,0-1.36-.25,4.1,4.1,0,0,0-1.2.16,4.31,4.31,0,0,0-1,.4,3.84,3.84,0,0,0-.43.3l-.29.25a1.42,1.42,0,0,1-.21.17.45.45,0,0,1-.24.06.6.6,0,0,1-.4-.15.58.58,0,0,1-.17-.43.7.7,0,0,1,.24-.5,3.48,3.48,0,0,1,.64-.55,4.69,4.69,0,0,1,.83-.46,4.79,4.79,0,0,1,1-.31,5.65,5.65,0,0,1,1.19-.12,4.55,4.55,0,0,1,1.93.37,3.56,3.56,0,0,1,1.25.93,3.65,3.65,0,0,1,.67,1.26,4.89,4.89,0,0,1,.2,1.34,3.67,3.67,0,0,1-.18,1.19,3.17,3.17,0,0,1-.49.93,3.08,3.08,0,0,1-.75.69,4.16,4.16,0,0,1-1,.47,5.47,5.47,0,0,1,1.13.47,3.36,3.36,0,0,1,.86.72,3.1,3.1,0,0,1,.56,1A4.54,4.54,0,0,1,767.49,34.86Z"/>
      <path class="cls-11" d="M778.85,34.46a5.26,5.26,0,0,1-.27,1.67,3.94,3.94,0,0,1-2.25,2.48,5.08,5.08,0,0,1-2.08.39,7.23,7.23,0,0,1-1.64-.19,4.15,4.15,0,0,1-1.52-.75.65.65,0,0,1-.12-1,.63.63,0,0,1,.46-.2l.19,0a.49.49,0,0,1,.18.11,3.3,3.3,0,0,0,1.12.6,4.59,4.59,0,0,0,1.33.19,3.8,3.8,0,0,0,1.51-.28,2.71,2.71,0,0,0,1-.73,2.82,2.82,0,0,0,.58-1.06,4.36,4.36,0,0,0,.18-1.26,3.44,3.44,0,0,0-.79-2.47,2.9,2.9,0,0,0-2.17-.81,2.84,2.84,0,0,0-.92.13,2.34,2.34,0,0,0-.74.37,3.68,3.68,0,0,0-.39.33l-.27.26a.87.87,0,0,1-.22.18.51.51,0,0,1-.28.07.62.62,0,0,1-.46-.18.6.6,0,0,1-.16-.48l.22-7a.6.6,0,0,1,.21-.44.64.64,0,0,1,.45-.18h5.4a.65.65,0,0,1,.46.18.6.6,0,0,1,.18.44.64.64,0,0,1-.18.44.65.65,0,0,1-.46.18h-4.82l-.16,5.23a3.2,3.2,0,0,1,1-.56,4,4,0,0,1,1.18-.17,4.9,4.9,0,0,1,1.77.3,3.5,3.5,0,0,1,1.33.87,3.79,3.79,0,0,1,.83,1.41A5.83,5.83,0,0,1,778.85,34.46Z"/>
      <path class="cls-11" d="M789,33.7a.54.54,0,0,1-.15.4.57.57,0,0,1-.37.14h-5.8v.6a4.63,4.63,0,0,0,.15,1.22,2.54,2.54,0,0,0,.46.93,2,2,0,0,0,.8.6,2.85,2.85,0,0,0,1.15.21,5.63,5.63,0,0,0,1.53-.18,5.06,5.06,0,0,0,1.11-.46.5.5,0,0,1,.44,0,.55.55,0,0,1,.3.3.62.62,0,0,1,0,.4.57.57,0,0,1-.26.34,5,5,0,0,1-1.47.59,7.17,7.17,0,0,1-1.71.19,4.3,4.3,0,0,1-1.77-.33,3.24,3.24,0,0,1-1.17-.91,3.69,3.69,0,0,1-.66-1.33,6.3,6.3,0,0,1-.2-1.59V32.92a6,6,0,0,1,.21-1.6,3.69,3.69,0,0,1,.66-1.33,3.14,3.14,0,0,1,1.17-.91,4.09,4.09,0,0,1,1.76-.34,4.3,4.3,0,0,1,1.79.33,3.33,3.33,0,0,1,1.17.9,3.67,3.67,0,0,1,.63,1.32,6.3,6.3,0,0,1,.19,1.59Zm-1.24-.94a5,5,0,0,0-.13-1.2,2.4,2.4,0,0,0-.43-.91,1.93,1.93,0,0,0-.78-.59,3,3,0,0,0-1.2-.2,2.9,2.9,0,0,0-1.16.21,1.89,1.89,0,0,0-.79.59,2.39,2.39,0,0,0-.44.92,4.5,4.5,0,0,0-.15,1.21v.37h5.08Z"/>
      <path class="cls-11" d="M1059.89,38.18a.58.58,0,0,1-.19.45.58.58,0,0,1-.44.19H1052a.61.61,0,0,1-.47-.18.63.63,0,0,1-.18-.46,4.62,4.62,0,0,1,.17-1.26,5.52,5.52,0,0,1,.44-1.09,6.27,6.27,0,0,1,.65-.94,10,10,0,0,1,.78-.81c.36-.32.73-.63,1.12-.92l1.17-.86c.38-.29.74-.58,1.09-.87a6.66,6.66,0,0,0,.92-.92,4.5,4.5,0,0,0,.63-1.05,3.19,3.19,0,0,0,.23-1.22,3.88,3.88,0,0,0-.17-1.14,2.62,2.62,0,0,0-.52-.94,2.49,2.49,0,0,0-.9-.64,3.17,3.17,0,0,0-1.29-.23,5.29,5.29,0,0,0-1.18.12,4,4,0,0,0-.92.33,3.77,3.77,0,0,0-.48.29l-.31.25-.24.17a.55.55,0,0,1-.25.07.61.61,0,0,1-.44-.19.64.64,0,0,1-.19-.47.67.67,0,0,1,0-.24.89.89,0,0,1,.17-.24,5.06,5.06,0,0,1,1.65-1,6.27,6.27,0,0,1,2.18-.35,4.62,4.62,0,0,1,1.87.35,3.67,3.67,0,0,1,1.3.93,3.86,3.86,0,0,1,.76,1.34,4.81,4.81,0,0,1,.25,1.56,4.19,4.19,0,0,1-.28,1.58,5,5,0,0,1-.74,1.29,6.68,6.68,0,0,1-1,1.08c-.4.34-.81.66-1.23,1l-1.27.93a12.62,12.62,0,0,0-1.15,1,6.38,6.38,0,0,0-.9,1.13,3.46,3.46,0,0,0-.51,1.34h6.5a.6.6,0,0,1,.44.18A.58.58,0,0,1,1059.89,38.18Z"/>
      <path class="cls-11" d="M1071.38,33.72a7.64,7.64,0,0,1-.25,2,4.74,4.74,0,0,1-.79,1.68,4,4,0,0,1-1.41,1.17,5.09,5.09,0,0,1-4.14,0,3.9,3.9,0,0,1-1.4-1.17,4.91,4.91,0,0,1-.79-1.68,7.64,7.64,0,0,1-.25-2V29.34a7.62,7.62,0,0,1,.25-2,4.91,4.91,0,0,1,.79-1.68,4,4,0,0,1,1.4-1.18,5.09,5.09,0,0,1,4.14,0,4.16,4.16,0,0,1,1.41,1.18,4.74,4.74,0,0,1,.79,1.68,7.62,7.62,0,0,1,.25,2Zm-1.32-4.32a7,7,0,0,0-.18-1.63,3.6,3.6,0,0,0-.58-1.3,2.77,2.77,0,0,0-1-.86,3.5,3.5,0,0,0-2.88,0,2.58,2.58,0,0,0-1,.86,3.78,3.78,0,0,0-.58,1.3,7,7,0,0,0-.18,1.63v4.28a7,7,0,0,0,.18,1.63,3.82,3.82,0,0,0,.58,1.29,2.64,2.64,0,0,0,1,.85,3.5,3.5,0,0,0,2.88,0,2.84,2.84,0,0,0,1-.85,3.63,3.63,0,0,0,.58-1.29,7,7,0,0,0,.18-1.63Z"/>
      <path class="cls-11" d="M1082.51,35.2a.69.69,0,0,1-.17.46.58.58,0,0,1-.43.18h-1.28v2.52a.67.67,0,0,1-.18.47.66.66,0,0,1-.93,0,.65.65,0,0,1-.2-.47V35.84h-5.11a.6.6,0,0,1-.44-.18.62.62,0,0,1-.18-.46.76.76,0,0,1,.08-.32l4.58-10.4a.65.65,0,0,1,.36-.35.67.67,0,0,1,.5,0,.65.65,0,0,1,.35.36.66.66,0,0,1,0,.5l-4.22,9.58h4.09V31.32a.61.61,0,0,1,.2-.46.66.66,0,0,1,.47-.18.65.65,0,0,1,.46.18.63.63,0,0,1,.18.46v3.26h1.28a.58.58,0,0,1,.43.18A.64.64,0,0,1,1082.51,35.2Z"/>
      <path class="cls-11" d="M1093.79,33.72a8.1,8.1,0,0,1-.25,2,4.75,4.75,0,0,1-.8,1.68,3.86,3.86,0,0,1-1.41,1.17,4.52,4.52,0,0,1-2.07.44,4.58,4.58,0,0,1-2.07-.44,3.9,3.9,0,0,1-1.4-1.17,4.91,4.91,0,0,1-.79-1.68,8.1,8.1,0,0,1-.25-2V29.34a8.08,8.08,0,0,1,.25-2,4.91,4.91,0,0,1,.79-1.68,4,4,0,0,1,1.4-1.18,4.58,4.58,0,0,1,2.07-.44,4.52,4.52,0,0,1,2.07.44,4,4,0,0,1,1.41,1.18,4.75,4.75,0,0,1,.8,1.68,8.08,8.08,0,0,1,.25,2Zm-1.32-4.32a6.45,6.45,0,0,0-.19-1.63,3.6,3.6,0,0,0-.58-1.3,2.77,2.77,0,0,0-1-.86,3.5,3.5,0,0,0-2.88,0,2.74,2.74,0,0,0-1,.86,3.59,3.59,0,0,0-.57,1.3,6.45,6.45,0,0,0-.19,1.63v4.28a6.45,6.45,0,0,0,.19,1.63,3.62,3.62,0,0,0,.57,1.29,2.81,2.81,0,0,0,1,.85,3.5,3.5,0,0,0,2.88,0,2.84,2.84,0,0,0,1-.85,3.63,3.63,0,0,0,.58-1.29,6.45,6.45,0,0,0,.19-1.63Z"/>
      <path class="cls-11" d="M1103.57,33.7a.51.51,0,0,1-.16.4.52.52,0,0,1-.36.14h-5.8v.6a4.63,4.63,0,0,0,.15,1.22,2.54,2.54,0,0,0,.46.93,2.05,2.05,0,0,0,.79.6,2.93,2.93,0,0,0,1.16.21,5.51,5.51,0,0,0,1.52-.18,5,5,0,0,0,1.12-.46.49.49,0,0,1,.44,0,.55.55,0,0,1,.3.3.62.62,0,0,1,0,.4.55.55,0,0,1-.27.34,4.82,4.82,0,0,1-1.46.59,7.17,7.17,0,0,1-1.71.19,4.27,4.27,0,0,1-1.77-.33,3.24,3.24,0,0,1-1.17-.91,3.69,3.69,0,0,1-.66-1.33,6.3,6.3,0,0,1-.2-1.59V32.92a6,6,0,0,1,.21-1.6,3.39,3.39,0,0,1,.66-1.33,3.14,3.14,0,0,1,1.17-.91,4.09,4.09,0,0,1,1.76-.34,4.3,4.3,0,0,1,1.79.33,3.33,3.33,0,0,1,1.17.9,3.67,3.67,0,0,1,.63,1.32,6.3,6.3,0,0,1,.19,1.59Zm-1.24-.94a5,5,0,0,0-.13-1.2,2.4,2.4,0,0,0-.43-.91,1.93,1.93,0,0,0-.78-.59,3.53,3.53,0,0,0-2.37,0,1.93,1.93,0,0,0-.78.59,2.55,2.55,0,0,0-.45.92,5,5,0,0,0-.14,1.21v.37h5.08Z"/>
      <path class="cls-11" d="M1374.43,38.18a.62.62,0,0,1-.19.45.58.58,0,0,1-.44.19h-7.25a.62.62,0,0,1-.48-.18.67.67,0,0,1-.17-.46,4.62,4.62,0,0,1,.17-1.26,5,5,0,0,1,.44-1.09,5.61,5.61,0,0,1,.65-.94,10,10,0,0,1,.78-.81,14.43,14.43,0,0,1,1.12-.92l1.16-.86c.38-.29.75-.58,1.09-.87a6.15,6.15,0,0,0,.92-.92,3.91,3.91,0,0,0,.63-1.05,3,3,0,0,0,.24-1.22,3.88,3.88,0,0,0-.17-1.14,2.64,2.64,0,0,0-.53-.94,2.45,2.45,0,0,0-.89-.64,3.17,3.17,0,0,0-1.29-.23,5.17,5.17,0,0,0-1.18.12,4,4,0,0,0-.92.33,3.17,3.17,0,0,0-.48.29l-.32.25-.24.17a.48.48,0,0,1-.24.07.65.65,0,0,1-.45-.19.65.65,0,0,1-.14-.71.71.71,0,0,1,.17-.24,4.92,4.92,0,0,1,1.64-1,6.29,6.29,0,0,1,2.19-.35,4.66,4.66,0,0,1,1.87.35,3.63,3.63,0,0,1,1.29.93,3.73,3.73,0,0,1,.77,1.34,5.09,5.09,0,0,1,.25,1.56,4.4,4.4,0,0,1-.28,1.58,5.33,5.33,0,0,1-.74,1.29,7.64,7.64,0,0,1-1.05,1.08c-.4.34-.81.66-1.24,1l-1.26.93a12.62,12.62,0,0,0-1.15,1,6.93,6.93,0,0,0-.91,1.13,3.61,3.61,0,0,0-.5,1.34h6.5a.6.6,0,0,1,.44.18A.61.61,0,0,1,1374.43,38.18Z"/>
      <path class="cls-11" d="M1385.92,33.72a7.64,7.64,0,0,1-.25,2,4.91,4.91,0,0,1-.79,1.68,4,4,0,0,1-1.41,1.17,5.09,5.09,0,0,1-4.14,0,3.82,3.82,0,0,1-1.4-1.17,4.75,4.75,0,0,1-.8-1.68,8.1,8.1,0,0,1-.24-2V29.34a8.07,8.07,0,0,1,.24-2,4.75,4.75,0,0,1,.8-1.68,4,4,0,0,1,1.4-1.18,5.09,5.09,0,0,1,4.14,0,4.16,4.16,0,0,1,1.41,1.18,4.91,4.91,0,0,1,.79,1.68,7.62,7.62,0,0,1,.25,2Zm-1.32-4.32a7,7,0,0,0-.18-1.63,3.62,3.62,0,0,0-.59-1.3,2.69,2.69,0,0,0-1-.86,3.17,3.17,0,0,0-1.43-.31,3.26,3.26,0,0,0-1.45.31,2.74,2.74,0,0,0-1,.86,3.59,3.59,0,0,0-.57,1.3,7,7,0,0,0-.18,1.63v4.28a7,7,0,0,0,.18,1.63,3.62,3.62,0,0,0,.57,1.29,2.81,2.81,0,0,0,1,.85,3.26,3.26,0,0,0,1.45.31,3.17,3.17,0,0,0,1.43-.31,2.75,2.75,0,0,0,1-.85,3.64,3.64,0,0,0,.59-1.29,7,7,0,0,0,.18-1.63Z"/>
      <path class="cls-11" d="M1396.72,34.46a5.55,5.55,0,0,1-.26,1.67,4.3,4.3,0,0,1-.82,1.46,4.12,4.12,0,0,1-1.43,1,5.13,5.13,0,0,1-2.09.39,7.29,7.29,0,0,1-1.64-.19,4.19,4.19,0,0,1-1.51-.75.67.67,0,0,1-.31-.54.7.7,0,0,1,.19-.46.61.61,0,0,1,.46-.2.57.57,0,0,1,.18,0,.52.52,0,0,1,.19.11,3.26,3.26,0,0,0,1.11.6,4.59,4.59,0,0,0,1.33.19,3.77,3.77,0,0,0,1.51-.28,2.71,2.71,0,0,0,1-.73,2.82,2.82,0,0,0,.58-1.06,4.36,4.36,0,0,0,.18-1.26,3.39,3.39,0,0,0-.79-2.47,2.9,2.9,0,0,0-2.17-.81,2.84,2.84,0,0,0-.92.13,2.45,2.45,0,0,0-.74.37,4.75,4.75,0,0,0-.38.33l-.27.26a1.12,1.12,0,0,1-.23.18.51.51,0,0,1-.28.07.61.61,0,0,1-.45-.18.57.57,0,0,1-.16-.48l.21-7a.57.57,0,0,1,.22-.44.62.62,0,0,1,.44-.18h5.41a.61.61,0,0,1,.45.18.6.6,0,0,1,.18.44.64.64,0,0,1-.18.44.61.61,0,0,1-.45.18h-4.83l-.16,5.23a3.2,3.2,0,0,1,1-.56,4.1,4.1,0,0,1,1.18-.17,4.92,4.92,0,0,1,1.78.3,3.54,3.54,0,0,1,1.32.87,3.79,3.79,0,0,1,.83,1.41A5.83,5.83,0,0,1,1396.72,34.46Z"/>
      <path class="cls-11" d="M1408.32,33.72a7.64,7.64,0,0,1-.25,2,4.74,4.74,0,0,1-.79,1.68,4,4,0,0,1-1.41,1.17,5.09,5.09,0,0,1-4.14,0,3.9,3.9,0,0,1-1.4-1.17,4.74,4.74,0,0,1-.79-1.68,7.64,7.64,0,0,1-.25-2V29.34a7.62,7.62,0,0,1,.25-2,4.74,4.74,0,0,1,.79-1.68,4,4,0,0,1,1.4-1.18,5.09,5.09,0,0,1,4.14,0,4.16,4.16,0,0,1,1.41,1.18,4.74,4.74,0,0,1,.79,1.68,7.62,7.62,0,0,1,.25,2ZM1407,29.4a7,7,0,0,0-.18-1.63,3.78,3.78,0,0,0-.58-1.3,2.85,2.85,0,0,0-1-.86,3.25,3.25,0,0,0-1.44-.31,3.19,3.19,0,0,0-1.44.31,2.69,2.69,0,0,0-1,.86,4,4,0,0,0-.57,1.3,7,7,0,0,0-.18,1.63v4.28a7,7,0,0,0,.18,1.63,4,4,0,0,0,.57,1.29,2.75,2.75,0,0,0,1,.85,3.19,3.19,0,0,0,1.44.31,3.25,3.25,0,0,0,1.44-.31,2.93,2.93,0,0,0,1-.85,3.82,3.82,0,0,0,.58-1.29,7,7,0,0,0,.18-1.63Z"/>
      <path class="cls-11" d="M1418.11,33.7a.54.54,0,0,1-.16.4.52.52,0,0,1-.36.14h-5.8v.6a4.63,4.63,0,0,0,.15,1.22,2.52,2.52,0,0,0,.45.93,2.09,2.09,0,0,0,.8.6,2.9,2.9,0,0,0,1.16.21,5.56,5.56,0,0,0,1.52-.18,4.69,4.69,0,0,0,1.11-.46.5.5,0,0,1,.44,0,.54.54,0,0,1,.31.3.62.62,0,0,1,0,.4.63.63,0,0,1-.27.34,5,5,0,0,1-1.46.59,7.17,7.17,0,0,1-1.71.19,4.24,4.24,0,0,1-1.77-.33,3.37,3.37,0,0,1-1.18-.91,3.52,3.52,0,0,1-.65-1.33,6.3,6.3,0,0,1-.2-1.59V32.92a6.38,6.38,0,0,1,.2-1.6,3.69,3.69,0,0,1,.66-1.33,3.25,3.25,0,0,1,1.18-.91,4.06,4.06,0,0,1,1.76-.34,4.34,4.34,0,0,1,1.79.33,3.2,3.2,0,0,1,1.16.9,3.53,3.53,0,0,1,.64,1.32,6.79,6.79,0,0,1,.19,1.59Zm-1.24-.94a4.94,4.94,0,0,0-.14-1.2,2.26,2.26,0,0,0-.43-.91,1.8,1.8,0,0,0-.78-.59,3,3,0,0,0-1.19-.2,2.91,2.91,0,0,0-1.17.21,1.93,1.93,0,0,0-.78.59,2.27,2.27,0,0,0-.45.92,5,5,0,0,0-.14,1.21v.37h5.08Z"/>
      <path class="cls-11" d="M1296.87,282.58c-.12.19-.27.41-.41.6a37.53,37.53,0,0,0,10.63,8.66,3,3,0,0,0-.82,1,42.57,42.57,0,0,1-10.44-8.73,31.28,31.28,0,0,1-10.39,8.64,3,3,0,0,0-.82-.89,28.13,28.13,0,0,0,11.21-9.7Zm-.46,19.75h9.65v1.08h-20.4v-1.08h9.57v-4.56h-6.57v-1.06h6.57v-4.32h-6.62v-1.08h14.59v1.08h-6.79v4.32h6.91v1.06h-6.91Z"/>
      <path class="cls-11" d="M1315.73,282.7a37.85,37.85,0,0,1-2.38,5.3v16.13h-1.15V290a26.88,26.88,0,0,1-2.49,3.36,9.66,9.66,0,0,0-.73-1.06,28.13,28.13,0,0,0,5.64-9.86Zm7.92-.15c-.17.36-.36.72-.55,1.11a22.66,22.66,0,0,0,7.82,7.51,9.28,9.28,0,0,0-.81.94,25.65,25.65,0,0,1-7.59-7.44,23.23,23.23,0,0,1-7.65,7.77,3.83,3.83,0,0,0-.77-.84,20.91,20.91,0,0,0,8.33-9.26Zm-5.06,9h1.15v3.26c0,2.74-.39,6.67-4.3,9.55a3.81,3.81,0,0,0-.84-.81c3.72-2.55,4-6.34,4-8.74Zm6.91,0h1.15v12.6h-1.15Z"/>
      <path class="cls-11" d="M1339.63,282.72a36.38,36.38,0,0,1-2.56,5.59v15.82H1336v-14a23.24,23.24,0,0,1-2.45,3.19,10,10,0,0,0-.69-1.06,28.89,28.89,0,0,0,5.76-9.88Zm15,19.52v1.05h-16v-1.05h2.42V288.67h4.13c.19-.72.39-1.65.58-2.61h-6.12V285H1346c.17-.93.31-1.85.41-2.64l1.25.15c-.15.76-.32,1.63-.51,2.49h6.72v1.06h-6.93c-.22,1-.41,1.87-.63,2.61h6v13.57Zm-12.51-12.58v2.42h9.1v-2.42Zm9.1,3.38h-9.1v2.47h9.1Zm-9.1,5.88h9.1v-2.47h-9.1Zm0,3.32h9.1v-2.36h-9.1Z"/>
      <path class="cls-11" d="M1359.19,286.44a15.15,15.15,0,0,1-1.63,3,6.14,6.14,0,0,0-.67-1,16.14,16.14,0,0,0,2.47-6l1,.26a21.43,21.43,0,0,1-.79,2.67h3.75v1.05Zm4.13,13.35a6.86,6.86,0,0,0,.39.93c-3.51,2.28-4,2.67-4.33,3a3.73,3.73,0,0,0-.69-.86,2.74,2.74,0,0,0,1.15-2.11v-5.36h-2.71v-1.05h2.71v-3.82h-1.73v-1.06h4.68v1.06h-1.89v3.82h2.61v1.05h-2.61v5.91Zm3.58.53a16,16,0,0,1,1.7,1.15,8.47,8.47,0,0,0,4.56,1,57,57,0,0,0,5.79-.27,4.3,4.3,0,0,0-.34,1.25c-1.32.07-4,.15-5.5.15a8.41,8.41,0,0,1-4.82-1.13c-.82-.58-1.44-1.18-1.94-1.18-.68,0-1.66,1.18-2.67,2.55l-.81-1a8.61,8.61,0,0,1,3-2.5V292h-2v-1.08h3Zm-.7-12.51A22.29,22.29,0,0,0,1364,284l.94-.41a22.7,22.7,0,0,1,2.21,3.84Zm6.72,8.95h-5.3v-1.08h5.3v-3.81h-2.52a3.46,3.46,0,0,0-1.8.31,4.11,4.11,0,0,0-.38-1.08c.36-.1.69-.75,1.1-1.61a37.38,37.38,0,0,0,1.47-3.5h-3.08v-1.08h3.44c.28-.84.55-1.73.74-2.57l1.15.26-.72,2.31h6.07V286h-6.48a41.22,41.22,0,0,1-2.11,4.84h3.12v-3.07h1.13v3.07H1378v1h-3.91v3.81h4.44v1.08h-4.44v4.54h-1.13Z"/>
      <path class="cls-12" d="M1408.78,293.05h-2.19v6.24h-3.33v-1.11h-3.48v2.91c0,1.77-.33,2.7-1.56,3.21s-2.88.6-5.19.6a14.24,14.24,0,0,0-1.11-3.36c1.53.06,3.21.06,3.72,0s.66-.12.66-.54v-2.85h-6v-3.12h6v-2h-7.65v-3.18h7.65V288h-4.92v-1.26c-.36.39-.75.75-1.11,1.08a33.13,33.13,0,0,0-2.52-2.16l-2.82,1.38a69.45,69.45,0,0,0-4-7.38l3.18-1.44c1.32,2.07,3.09,4.8,4.08,6.69a23.74,23.74,0,0,0,5.79-7.92l3.39,1c-.24.51-.51,1-.78,1.56h4.8l.51-.15,2.4,1.62a39.3,39.3,0,0,1-2.49,3.84h4.8v5h2.19Zm-27.84,9a87.5,87.5,0,0,0,4.38-10.29l3.33,1.65c-1.23,3.54-2.67,7.2-4,10.17Zm13.77-19.5c-.54.81-1.11,1.53-1.68,2.25h5.07c.45-.69.93-1.44,1.35-2.25Zm5.07,7.29h3.48V288h-3.48Zm3.48,3.18h-3.48v2h3.48Z"/>
      <path class="cls-12" d="M1427.59,290.05c-.18.12-.39.27-.6.39a60.76,60.76,0,0,0,12.24,2.76,13.82,13.82,0,0,0-2.16,2.82,58,58,0,0,1-12.75-4,54.76,54.76,0,0,1-11.94,4.17,12.81,12.81,0,0,0-1.92-2.7c5-.93,11.22-2.79,14.52-5.07Zm-12.75-3h-3.15V281.5H1423v-1h-9.3V278h22.17v2.52h-9.36v1H1438v5.58h-3.3v-3.36h-8.22v4.53H1423v-4.53h-8.16Zm20.79,10a28.79,28.79,0,0,1-6.78,4.56c1.23.42,2.4.84,3.3,1.17l-1.41,2.58a87.52,87.52,0,0,0-13-4.23l1.35-2.16c1.68.36,3.69.84,5.67,1.38a39.47,39.47,0,0,0,4.74-2.19h-14.79v-2.52h9.36a16.83,16.83,0,0,0-1.86-1.74l2.07-1.53a17.62,17.62,0,0,1,2.76,2.49l-1,.78h6.84l.48-.18Zm-20.46-9.36h6.9v2h-6.9Zm6.87-3v1.92h-6.21v-1.92Zm11.67,0v1.92h-6.27v-1.92Zm-6.27,3h7v2h-7Z"/>
      <path class="cls-12" d="M1451.05,293.05c-1,.27-2,.57-3.09.84V301c0,1.68-.3,2.52-1.26,3.06s-2.28.63-4.2.63a13,13,0,0,0-1-3.18c1,0,2.16,0,2.52,0s.51-.12.51-.51v-6.24c-1.14.3-2.22.6-3.24.84l-.54-3.48c1.08-.21,2.37-.51,3.78-.84V286h-3.39v-3.3h3.39V277H1448v5.67h2.7V286H1448v4.5l2.67-.69Zm4.44-15.72h3.42v27.6h-3.42v-7.32H1451V294.4h4.53v-3.24h-3.78v-3.09h3.78v-3.24h-3.87v-3.12h3.87Zm13.35,20.34h-4.47V305H1461V277.3h3.42v4.41h4.11v3.12h-4.11v3.24h3.87v3.09h-3.87v3.3h4.47Z"/>
      <path class="cls-12" d="M1496.65,285.7a33.66,33.66,0,0,1-3.3,11.07,14.31,14.31,0,0,0,5.91,5,14.31,14.31,0,0,0-2.46,3.06,16.48,16.48,0,0,1-5.61-4.83,19.26,19.26,0,0,1-6.36,5.07,14.27,14.27,0,0,0-2-3.12,15.76,15.76,0,0,0,6.42-5.13,34.76,34.76,0,0,1-2.25-6.18,16.73,16.73,0,0,1-1.65,2.46,22.2,22.2,0,0,0-2.1-2.31c-.15,8.34-.3,11.58-1,12.6a2.88,2.88,0,0,1-2,1.32,20.28,20.28,0,0,1-3.21.12,8.92,8.92,0,0,0-.93-3.24c1,.06,1.83.09,2.31.09a.88.88,0,0,0,.84-.45c.39-.66.57-3.18.69-10.2h-2.52c0,4.74-.69,9.72-4.41,13.83a12.31,12.31,0,0,0-2.61-2.34c3.21-3.72,3.66-8,3.66-11.88v-5.79h-2.94v-3.3h5.79a30.61,30.61,0,0,0-1.23-3.9l3.15-.75a35.69,35.69,0,0,1,1.44,3.93l-2.46.72h6.54v3.3h-6.93v2.94h5.94s0,1,0,1.44v.24c2.19-3,3.57-7.65,4.29-12.48l3.63.57c-.27,1.65-.6,3.3-1,4.86h8.7v3.3Zm-7.5.12a35.79,35.79,0,0,0,2.13,7.23,30.58,30.58,0,0,0,1.86-7.35h-3.93Z"/>
      <path class="cls-12" d="M128.33,295a1.81,1.81,0,0,1-.14.69,1.67,1.67,0,0,1-.39.56,1.84,1.84,0,0,1-.57.38,1.72,1.72,0,0,1-.7.14h-9.71a1.67,1.67,0,0,1-.71-.14,2,2,0,0,1-.57-.38,1.79,1.79,0,0,1-.38-.56,1.8,1.8,0,0,1,0-1.39,1.73,1.73,0,0,1,.38-.57,2.22,2.22,0,0,1,.57-.39,1.83,1.83,0,0,1,.71-.14h9.71a1.9,1.9,0,0,1,.7.14,2.06,2.06,0,0,1,.57.39,1.61,1.61,0,0,1,.39.57A1.82,1.82,0,0,1,128.33,295Zm0-9.87a1.65,1.65,0,0,1-.25.87,1.77,1.77,0,0,1-.67.66l-9.64,5.1a1.54,1.54,0,0,1-.65.2,2.06,2.06,0,0,1-.66-.07,1.79,1.79,0,0,1-.59-.32,1.7,1.7,0,0,1-.43-.53,1.46,1.46,0,0,1-.2-.63,1.87,1.87,0,0,1,.08-.66,1.49,1.49,0,0,1,.31-.58,1.89,1.89,0,0,1,.53-.44l6.78-3.6-6.78-3.59a2.07,2.07,0,0,1-.53-.44,1.52,1.52,0,0,1-.31-.59,1.84,1.84,0,0,1-.08-.66,1.58,1.58,0,0,1,.2-.66,1.78,1.78,0,0,1,.43-.52,1.74,1.74,0,0,1,.59-.3,1.62,1.62,0,0,1,.66-.07,1.69,1.69,0,0,1,.65.2l9.64,5.1a1.75,1.75,0,0,1,.92,1.53Z"/>
      <path class="cls-12" d="M146.08,294.8a1.87,1.87,0,0,1-.57,1.38,1.85,1.85,0,0,1-.61.42,1.94,1.94,0,0,1-.76.15H133.6a1.91,1.91,0,0,1-.76-.15,1.93,1.93,0,0,1-.63-.42,1.83,1.83,0,0,1-.43-.61,2,2,0,0,1-.15-.77,2,2,0,0,1,.15-.77,2,2,0,0,1,.43-.63,1.93,1.93,0,0,1,.63-.42,1.91,1.91,0,0,1,.76-.15h4.21v-12.6l-3.66,2.44a2,2,0,0,1-.72.3,1.89,1.89,0,0,1-.75,0,2.07,2.07,0,0,1-.69-.29,2,2,0,0,1-.54-.55,2.12,2.12,0,0,1-.29-.74,1.94,1.94,0,0,1,0-.76,1.91,1.91,0,0,1,.86-1.24l6.62-4.38a3.23,3.23,0,0,1,.6-.28,1.89,1.89,0,0,1,.63-.1,2,2,0,0,1,.81.16,2.16,2.16,0,0,1,.67.44,1.78,1.78,0,0,1,.44.66,2,2,0,0,1,.16.8v16.15h2.19a1.94,1.94,0,0,1,.76.15,1.85,1.85,0,0,1,.61.42,2.17,2.17,0,0,1,.42.63A2,2,0,0,1,146.08,294.8Z"/>
      <path class="cls-12" d="M162,289.85a8.49,8.49,0,0,1-.42,2.65,6.34,6.34,0,0,1-3.55,3.91,8.1,8.1,0,0,1-3.26.61,11.14,11.14,0,0,1-2.58-.29,7.28,7.28,0,0,1-2.24-1,2.15,2.15,0,0,1-.82-.82,2,2,0,0,1-.24-.93,2.07,2.07,0,0,1,.14-.74,2,2,0,0,1,1-1.09,1.64,1.64,0,0,1,.74-.17,1.88,1.88,0,0,1,.57.09,1.81,1.81,0,0,1,.58.28,3.58,3.58,0,0,0,.47.29,5.63,5.63,0,0,0,.65.32,5.92,5.92,0,0,0,.81.26,4.59,4.59,0,0,0,.94.1,3.49,3.49,0,0,0,1.44-.28,2.6,2.6,0,0,0,1-.76,3.22,3.22,0,0,0,.53-1.12,6,6,0,0,0,.16-1.36,5,5,0,0,0-.21-1.53,2.8,2.8,0,0,0-.55-1,2.09,2.09,0,0,0-.82-.58,2.81,2.81,0,0,0-1-.18,4,4,0,0,0-.73.06,2.38,2.38,0,0,0-.57.16,4.12,4.12,0,0,0-.47.25l-.44.3-.43.3a2.68,2.68,0,0,1-.37.25,1.43,1.43,0,0,1-.38.17,1.53,1.53,0,0,1-.45.06,2.21,2.21,0,0,1-.78-.14,1.88,1.88,0,0,1-.63-.4,1.82,1.82,0,0,1-.42-.65,1.93,1.93,0,0,1-.12-.85l.3-9.24a2,2,0,0,1,.2-.77,2.15,2.15,0,0,1,.45-.61A2.27,2.27,0,0,1,151,275a1.8,1.8,0,0,1,.73-.15H159a1.83,1.83,0,0,1,.77.16,1.93,1.93,0,0,1,1.05,1,1.83,1.83,0,0,1,.16.77,1.76,1.76,0,0,1-.16.76,1.89,1.89,0,0,1-.42.62,2.08,2.08,0,0,1-.63.41,1.83,1.83,0,0,1-.77.16H153.5l-.15,4.63a5.4,5.4,0,0,1,1.12-.35,6.62,6.62,0,0,1,1.17-.11,7.07,7.07,0,0,1,2.62.46,5.28,5.28,0,0,1,2,1.33,6,6,0,0,1,1.29,2.16A9.05,9.05,0,0,1,162,289.85Z"/>
      <path class="cls-12" d="M172.35,279.8a3.62,3.62,0,0,1-.29,1.5,3,3,0,0,1-.76,1.05,2.88,2.88,0,0,1-1.1.63,4.23,4.23,0,0,1-1.34.21,4.16,4.16,0,0,1-1.33-.21,2.92,2.92,0,0,1-1.11-.63,3.16,3.16,0,0,1-.76-1.05,3.62,3.62,0,0,1-.28-1.5V278a3.59,3.59,0,0,1,.28-1.48,3.16,3.16,0,0,1,.76-1,3.08,3.08,0,0,1,1.11-.64,4.16,4.16,0,0,1,1.33-.21,4.23,4.23,0,0,1,1.34.21,3.1,3.1,0,0,1,1.86,1.69,3.58,3.58,0,0,1,.29,1.48ZM169.92,278a1.2,1.2,0,0,0-.3-.91,1,1,0,0,0-.76-.29,1.06,1.06,0,0,0-.76.29,1.24,1.24,0,0,0-.29.91v1.89a1.27,1.27,0,0,0,.29.91,1,1,0,0,0,.76.29,1,1,0,0,0,.76-.29,1.23,1.23,0,0,0,.3-.91Zm.23,18.33a1.07,1.07,0,0,1-.6.63,1.19,1.19,0,0,1-.89,0,1.15,1.15,0,0,1-.65-.61,1.06,1.06,0,0,1,0-.89l7.41-20.1a1.15,1.15,0,0,1,.61-.65,1.06,1.06,0,0,1,.89,0,1,1,0,0,1,.64.59,1.22,1.22,0,0,1,0,.9Zm10.08-2.64a3.54,3.54,0,0,1-.28,1.47,2.86,2.86,0,0,1-.76,1,3.25,3.25,0,0,1-1.12.63,4.28,4.28,0,0,1-1.34.22,4.17,4.17,0,0,1-1.33-.22,3.21,3.21,0,0,1-1.11-.63,3,3,0,0,1-.76-1,3.54,3.54,0,0,1-.29-1.47v-1.83a3.54,3.54,0,0,1,.29-1.47,3,3,0,0,1,.76-1.06,3.08,3.08,0,0,1,1.11-.64,4.16,4.16,0,0,1,1.33-.21,4.27,4.27,0,0,1,1.34.21,3.12,3.12,0,0,1,1.12.64,2.85,2.85,0,0,1,.76,1.06,3.54,3.54,0,0,1,.28,1.47Zm-2.43-1.89a1.19,1.19,0,0,0-.29-.89,1.05,1.05,0,0,0-.78-.28,1,1,0,0,0-.74.28,1.19,1.19,0,0,0-.29.89v1.92a1.27,1.27,0,0,0,.29.92,1,1,0,0,0,.74.28,1.07,1.07,0,0,0,.77-.28,1.23,1.23,0,0,0,.3-.92Z"/>
      <path class="cls-12" d="M439.59,295a1.8,1.8,0,0,1-.13.69,2,2,0,0,1-.39.56,1.88,1.88,0,0,1-.58.38,1.65,1.65,0,0,1-.7.14h-9.71a1.62,1.62,0,0,1-.7-.14,1.73,1.73,0,0,1-.57-.38,1.67,1.67,0,0,1-.39-.56,1.8,1.8,0,0,1,0-1.39,1.61,1.61,0,0,1,.39-.57,1.92,1.92,0,0,1,.57-.39,1.78,1.78,0,0,1,.7-.14h9.71a1.82,1.82,0,0,1,.7.14,2.11,2.11,0,0,1,.58.39,1.92,1.92,0,0,1,.39.57A1.82,1.82,0,0,1,439.59,295Zm0-9.87a1.65,1.65,0,0,1-.25.87,1.77,1.77,0,0,1-.67.66l-9.64,5.1a1.5,1.5,0,0,1-.65.2,2.06,2.06,0,0,1-.66-.07,1.89,1.89,0,0,1-.59-.32,1.7,1.7,0,0,1-.43-.53,1.44,1.44,0,0,1-.19-.63,1.66,1.66,0,0,1,.07-.66,1.63,1.63,0,0,1,.31-.58,2,2,0,0,1,.53-.44l6.78-3.6-6.78-3.59a2.26,2.26,0,0,1-.53-.44,1.67,1.67,0,0,1-.31-.59,1.64,1.64,0,0,1-.07-.66,1.57,1.57,0,0,1,.19-.66,1.78,1.78,0,0,1,.43-.52,1.83,1.83,0,0,1,.59-.3,1.62,1.62,0,0,1,.66-.07,1.64,1.64,0,0,1,.65.2l9.64,5.1a1.75,1.75,0,0,1,.92,1.53Z"/>
      <path class="cls-12" d="M457.45,291.23a1.93,1.93,0,0,1-.15.75,1.75,1.75,0,0,1-.4.6,1.94,1.94,0,0,1-.6.41,1.7,1.7,0,0,1-.74.16h-.79V295a2,2,0,0,1-2.79,1.82,1.79,1.79,0,0,1-.62-.42,1.93,1.93,0,0,1-.42-.63,2,2,0,0,1-.15-.77v-1.89h-6.55a1.81,1.81,0,0,1-.74-.15,2.07,2.07,0,0,1-.6-.39,1.94,1.94,0,0,1-.41-.6,2.21,2.21,0,0,1-.14-.78,1.43,1.43,0,0,1,.08-.54c.05-.14.11-.28.17-.41l6.09-14.43a2,2,0,0,1,.45-.68,2.18,2.18,0,0,1,.66-.44,2.23,2.23,0,0,1,.77-.14,2,2,0,0,1,.79.17,2.21,2.21,0,0,1,.65.47,2.41,2.41,0,0,1,.42.65,2.45,2.45,0,0,1,.15.77,2.23,2.23,0,0,1-.14.81l-5.05,11.85h3.4v-2.43a2.08,2.08,0,0,1,.15-.78,2,2,0,0,1,.42-.64A1.69,1.69,0,0,1,452,285a2,2,0,0,1,2.2.43,2,2,0,0,1,.44.64,2.08,2.08,0,0,1,.15.78v2.43h.79a1.85,1.85,0,0,1,.74.15,2.13,2.13,0,0,1,.6.41,1.9,1.9,0,0,1,.4.61A1.93,1.93,0,0,1,457.45,291.23Z"/>
      <path class="cls-12" d="M473.89,289.19a10,10,0,0,1-.47,3.09,7.25,7.25,0,0,1-1.39,2.48,6.39,6.39,0,0,1-2.26,1.65,7.38,7.38,0,0,1-3.09.61,7.3,7.3,0,0,1-3.08-.61,6.39,6.39,0,0,1-2.26-1.65,7.07,7.07,0,0,1-1.38-2.48,9.67,9.67,0,0,1-.47-3.09v-6.75a9.59,9.59,0,0,1,.47-3.07,7.07,7.07,0,0,1,1.38-2.48,6.42,6.42,0,0,1,2.26-1.66,7.3,7.3,0,0,1,3.08-.61,7.38,7.38,0,0,1,3.09.61,6.42,6.42,0,0,1,2.26,1.66,7.25,7.25,0,0,1,1.39,2.48,9.87,9.87,0,0,1,.47,3.07Zm-4.15-6.84a6.18,6.18,0,0,0-.23-1.77,3.53,3.53,0,0,0-.63-1.24,2.51,2.51,0,0,0-1-.73,3.35,3.35,0,0,0-2.49,0,2.51,2.51,0,0,0-1,.73,3.69,3.69,0,0,0-.62,1.24,6.58,6.58,0,0,0-.22,1.77v7a6.58,6.58,0,0,0,.22,1.77,3.55,3.55,0,0,0,.62,1.23,2.49,2.49,0,0,0,1,.72,3.35,3.35,0,0,0,2.49,0,2.49,2.49,0,0,0,1-.72,3.4,3.4,0,0,0,.63-1.23,6.18,6.18,0,0,0,.23-1.77Z"/>
      <path class="cls-12" d="M483.61,279.8a3.62,3.62,0,0,1-.28,1.5,3.16,3.16,0,0,1-.76,1.05,2.92,2.92,0,0,1-1.11.63,4.35,4.35,0,0,1-2.67,0,2.8,2.8,0,0,1-1.1-.63,3.18,3.18,0,0,1-.77-1.05,3.79,3.79,0,0,1-.28-1.5V278a3.76,3.76,0,0,1,.28-1.48,3.18,3.18,0,0,1,.77-1,3,3,0,0,1,1.1-.64,4.35,4.35,0,0,1,2.67,0,3.08,3.08,0,0,1,1.11.64,3.16,3.16,0,0,1,.76,1,3.59,3.59,0,0,1,.28,1.48ZM481.18,278a1.24,1.24,0,0,0-.29-.91,1.15,1.15,0,0,0-1.53,0,1.24,1.24,0,0,0-.29.91v1.89a1.27,1.27,0,0,0,.29.91,1.15,1.15,0,0,0,1.53,0,1.27,1.27,0,0,0,.29-.91Zm.24,18.33a1.11,1.11,0,0,1-.61.63,1.19,1.19,0,0,1-.89,0,1.15,1.15,0,0,1-.65-.61,1.06,1.06,0,0,1,0-.89l7.41-20.1a1.15,1.15,0,0,1,.61-.65,1.06,1.06,0,0,1,.89,0,1,1,0,0,1,.64.59,1.27,1.27,0,0,1,.05.9Zm10.07-2.64a3.54,3.54,0,0,1-.28,1.47,2.75,2.75,0,0,1-.76,1,3.16,3.16,0,0,1-1.12.63A4.23,4.23,0,0,1,488,297a4.17,4.17,0,0,1-1.33-.22,3.21,3.21,0,0,1-1.11-.63,3.11,3.11,0,0,1-.76-1,3.54,3.54,0,0,1-.28-1.47v-1.83a3.54,3.54,0,0,1,.28-1.47,3.06,3.06,0,0,1,1.87-1.7,4.16,4.16,0,0,1,1.33-.21,4.23,4.23,0,0,1,1.34.21,3,3,0,0,1,1.12.64,2.75,2.75,0,0,1,.76,1.06,3.54,3.54,0,0,1,.28,1.47Zm-2.43-1.89a1.19,1.19,0,0,0-.28-.89,1.09,1.09,0,0,0-.79-.28,1,1,0,0,0-.74.28,1.19,1.19,0,0,0-.28.89v1.92a1.27,1.27,0,0,0,.28.92,1,1,0,0,0,.74.28,1.07,1.07,0,0,0,.77-.28,1.23,1.23,0,0,0,.3-.92Z"/>
      <path class="cls-12" d="M746,295a1.81,1.81,0,0,1-.14.69,2,2,0,0,1-.39.56,1.88,1.88,0,0,1-.58.38,1.65,1.65,0,0,1-.7.14h-9.71a1.62,1.62,0,0,1-.7-.14,1.73,1.73,0,0,1-.57-.38,1.67,1.67,0,0,1-.39-.56,1.8,1.8,0,0,1,0-1.39,1.61,1.61,0,0,1,.39-.57,1.92,1.92,0,0,1,.57-.39,1.78,1.78,0,0,1,.7-.14h9.71a1.82,1.82,0,0,1,.7.14,2.11,2.11,0,0,1,.58.39,1.92,1.92,0,0,1,.39.57A1.82,1.82,0,0,1,746,295Zm0-9.87a1.74,1.74,0,0,1-.25.87,1.8,1.8,0,0,1-.68.66l-9.64,5.1a1.5,1.5,0,0,1-.65.2,2.06,2.06,0,0,1-.66-.07,1.82,1.82,0,0,1-1-.85,1.44,1.44,0,0,1-.19-.63,1.86,1.86,0,0,1,.07-.66,1.63,1.63,0,0,1,.31-.58,2,2,0,0,1,.53-.44l6.78-3.6-6.78-3.59a2.26,2.26,0,0,1-.53-.44,1.67,1.67,0,0,1-.31-.59,1.84,1.84,0,0,1-.07-.66,1.57,1.57,0,0,1,.19-.66,1.82,1.82,0,0,1,.44-.52,1.69,1.69,0,0,1,.58-.3,1.62,1.62,0,0,1,.66-.07,1.64,1.64,0,0,1,.65.2l9.64,5.1a1.68,1.68,0,0,1,.68.64A1.76,1.76,0,0,1,746,285.11Z"/>
      <path class="cls-12" d="M763.38,290a7.7,7.7,0,0,1-.54,2.94,6.36,6.36,0,0,1-1.48,2.22,6.55,6.55,0,0,1-2.27,1.39,8.16,8.16,0,0,1-2.89.5,6.57,6.57,0,0,1-3-.67,6.43,6.43,0,0,1-2.17-1.8,7.81,7.81,0,0,1-1.33-2.62,10.87,10.87,0,0,1-.45-3.16,12.82,12.82,0,0,1,.57-3.77,20.52,20.52,0,0,1,1.51-3.59,25.81,25.81,0,0,1,2.13-3.3,30.28,30.28,0,0,1,2.46-2.83,2,2,0,0,1,.72-.49,2.2,2.2,0,0,1,.74-.14,1.94,1.94,0,0,1,.84.17,2.31,2.31,0,0,1,.66.44,2,2,0,0,1,.42.65,2,2,0,0,1,.15.77,1.79,1.79,0,0,1-.15.72,2.27,2.27,0,0,1-.48.69c-.35.36-.71.75-1.07,1.17s-.72.87-1.06,1.33-.68,1-1,1.47a16.65,16.65,0,0,0-.84,1.55,5.5,5.5,0,0,1,.88-.25,4.28,4.28,0,0,1,.87-.09,7.85,7.85,0,0,1,2.56.42,6.21,6.21,0,0,1,2.17,1.23,6,6,0,0,1,1.49,2.09A7.3,7.3,0,0,1,763.38,290Zm-4.15.12a4.15,4.15,0,0,0-.19-1.31,2.68,2.68,0,0,0-.58-1,2.48,2.48,0,0,0-1-.67,3.59,3.59,0,0,0-1.33-.23,4.14,4.14,0,0,0-1.59.28,4.84,4.84,0,0,0-1.1.63,4.08,4.08,0,0,0-.07.52c0,.18,0,.34,0,.49a7.1,7.1,0,0,0,.26,2.11,4,4,0,0,0,.67,1.39,2.69,2.69,0,0,0,.92.76,2.38,2.38,0,0,0,1,.24,3.41,3.41,0,0,0,1.34-.24,2.4,2.4,0,0,0,.92-.65,2.76,2.76,0,0,0,.54-1A4.79,4.79,0,0,0,759.23,290.09Z"/>
      <path class="cls-12" d="M780.33,289.19a10,10,0,0,1-.47,3.09,7.09,7.09,0,0,1-1.39,2.48,6.39,6.39,0,0,1-2.26,1.65,7.38,7.38,0,0,1-3.09.61,7.3,7.3,0,0,1-3.08-.61,6.39,6.39,0,0,1-2.26-1.65,7.07,7.07,0,0,1-1.38-2.48,9.67,9.67,0,0,1-.47-3.09v-6.75a9.59,9.59,0,0,1,.47-3.07,7.07,7.07,0,0,1,1.38-2.48,6.42,6.42,0,0,1,2.26-1.66,7.3,7.3,0,0,1,3.08-.61,7.38,7.38,0,0,1,3.09.61,6.42,6.42,0,0,1,2.26,1.66,7.09,7.09,0,0,1,1.39,2.48,9.87,9.87,0,0,1,.47,3.07Zm-4.15-6.84a6.2,6.2,0,0,0-.22-1.77,3.72,3.72,0,0,0-.64-1.24,2.44,2.44,0,0,0-1-.73,3.15,3.15,0,0,0-1.24-.24,3.08,3.08,0,0,0-1.24.24,2.37,2.37,0,0,0-1,.73,3.53,3.53,0,0,0-.63,1.24,6.58,6.58,0,0,0-.22,1.77v7a6.58,6.58,0,0,0,.22,1.77,3.4,3.4,0,0,0,.63,1.23,2.35,2.35,0,0,0,1,.72,3.08,3.08,0,0,0,1.24.24,3.15,3.15,0,0,0,1.24-.24,2.41,2.41,0,0,0,1-.72,3.57,3.57,0,0,0,.64-1.23,6.2,6.2,0,0,0,.22-1.77Z"/>
      <path class="cls-12" d="M790.05,279.8a3.62,3.62,0,0,1-.28,1.5,3.16,3.16,0,0,1-.76,1.05,2.92,2.92,0,0,1-1.11.63,4.16,4.16,0,0,1-1.33.21,4.23,4.23,0,0,1-1.34-.21,2.88,2.88,0,0,1-1.1-.63,3,3,0,0,1-.76-1.05,3.62,3.62,0,0,1-.29-1.5V278a3.58,3.58,0,0,1,.29-1.48,3.1,3.1,0,0,1,1.86-1.69,4.23,4.23,0,0,1,1.34-.21,4.16,4.16,0,0,1,1.33.21,3.08,3.08,0,0,1,1.11.64,3.16,3.16,0,0,1,.76,1,3.59,3.59,0,0,1,.28,1.48ZM787.62,278a1.24,1.24,0,0,0-.29-.91,1.06,1.06,0,0,0-.76-.29,1,1,0,0,0-.76.29,1.2,1.2,0,0,0-.3.91v1.89a1.23,1.23,0,0,0,.3.91,1,1,0,0,0,.76.29,1,1,0,0,0,.76-.29,1.27,1.27,0,0,0,.29-.91Zm.24,18.33a1.08,1.08,0,0,1-.61.63,1.19,1.19,0,0,1-.89,0,1.15,1.15,0,0,1-.65-.61,1.1,1.1,0,0,1,0-.89l7.42-20.1a1.1,1.1,0,0,1,.6-.65,1.06,1.06,0,0,1,.89,0,1,1,0,0,1,.64.59,1.22,1.22,0,0,1,0,.9Zm10.07-2.64a3.71,3.71,0,0,1-.27,1.47,2.89,2.89,0,0,1-.77,1,3.16,3.16,0,0,1-1.12.63,4.23,4.23,0,0,1-1.34.22,4.17,4.17,0,0,1-1.33-.22,3.07,3.07,0,0,1-1.1-.63,3,3,0,0,1-.77-1,3.54,3.54,0,0,1-.28-1.47v-1.83a3.54,3.54,0,0,1,.28-1.47,3,3,0,0,1,.77-1.06,3,3,0,0,1,1.1-.64,4.16,4.16,0,0,1,1.33-.21,4.23,4.23,0,0,1,1.34.21,3,3,0,0,1,1.12.64,2.88,2.88,0,0,1,.77,1.06,3.71,3.71,0,0,1,.27,1.47Zm-2.43-1.89a1.19,1.19,0,0,0-.28-.89,1.06,1.06,0,0,0-.79-.28,1,1,0,0,0-.74.28,1.19,1.19,0,0,0-.28.89v1.92a1.27,1.27,0,0,0,.28.92,1,1,0,0,0,.74.28,1.06,1.06,0,0,0,.77-.28,1.23,1.23,0,0,0,.3-.92Z"/>
      <path class="cls-12" d="M1058.17,295a1.81,1.81,0,0,1-.14.69,2,2,0,0,1-.39.56,1.88,1.88,0,0,1-.58.38,1.65,1.65,0,0,1-.7.14h-9.71a1.62,1.62,0,0,1-.7-.14,1.73,1.73,0,0,1-.57-.38,1.67,1.67,0,0,1-.39-.56,1.8,1.8,0,0,1,0-1.39,1.61,1.61,0,0,1,.39-.57,1.92,1.92,0,0,1,.57-.39,1.78,1.78,0,0,1,.7-.14h9.71a1.82,1.82,0,0,1,.7.14,2.11,2.11,0,0,1,.58.39,1.92,1.92,0,0,1,.39.57A1.82,1.82,0,0,1,1058.17,295Zm0-9.87a1.74,1.74,0,0,1-.25.87,1.8,1.8,0,0,1-.68.66l-9.64,5.1a1.5,1.5,0,0,1-.65.2,2.06,2.06,0,0,1-.66-.07,1.75,1.75,0,0,1-.58-.32,1.57,1.57,0,0,1-.43-.53,1.33,1.33,0,0,1-.2-.63,1.86,1.86,0,0,1,.07-.66,1.51,1.51,0,0,1,.32-.58,1.84,1.84,0,0,1,.52-.44l6.79-3.6-6.79-3.59a2,2,0,0,1-.52-.44,1.55,1.55,0,0,1-.32-.59,1.84,1.84,0,0,1-.07-.66,1.45,1.45,0,0,1,.2-.66,1.64,1.64,0,0,1,.43-.52,1.69,1.69,0,0,1,.58-.3,1.62,1.62,0,0,1,.66-.07,1.64,1.64,0,0,1,.65.2l9.64,5.1a1.68,1.68,0,0,1,.68.64A1.76,1.76,0,0,1,1058.17,285.11Z"/>
      <path class="cls-12" d="M1075.8,290.88a5.9,5.9,0,0,1-.47,2.37,5.42,5.42,0,0,1-1.39,1.95,6.52,6.52,0,0,1-2.28,1.32,9.19,9.19,0,0,1-3.14.5,10.48,10.48,0,0,1-3.22-.45,6.67,6.67,0,0,1-2.32-1.25,5.13,5.13,0,0,1-1.4-1.93,6.37,6.37,0,0,1-.47-2.45,5.39,5.39,0,0,1,.25-1.69,5.14,5.14,0,0,1,.73-1.44,6.22,6.22,0,0,1,1.17-1.25,10.64,10.64,0,0,1,1.6-1.09,8.17,8.17,0,0,1-1.09-.85,5.25,5.25,0,0,1-.88-1.1,5.84,5.84,0,0,1-.59-1.37,6.48,6.48,0,0,1-.21-1.72,6.38,6.38,0,0,1,.46-2.46,4.89,4.89,0,0,1,1.3-1.81,5.62,5.62,0,0,1,2-1.12,7.93,7.93,0,0,1,2.55-.39,7.61,7.61,0,0,1,2.59.41,5.89,5.89,0,0,1,2,1.14,5,5,0,0,1,1.27,1.77,5.74,5.74,0,0,1,.45,2.29,5.83,5.83,0,0,1-.12,1.18,4.53,4.53,0,0,1-.44,1.15,5.27,5.27,0,0,1-.83,1.15,7.87,7.87,0,0,1-1.34,1.13,13.51,13.51,0,0,1,1.51,1,6,6,0,0,1,1.23,1.23,5.78,5.78,0,0,1,.81,1.63A7,7,0,0,1,1075.8,290.88Zm-4.13-.34a2.37,2.37,0,0,0-.28-1.2,2.93,2.93,0,0,0-.77-.89,5.76,5.76,0,0,0-1.15-.7c-.43-.21-.9-.42-1.4-.62a6.89,6.89,0,0,0-1.1.61,5.69,5.69,0,0,0-.9.77,3.49,3.49,0,0,0-.61.9,2.29,2.29,0,0,0-.22,1,3.21,3.21,0,0,0,.24,1.28,2.55,2.55,0,0,0,.68.93,2.9,2.9,0,0,0,1,.57,3.78,3.78,0,0,0,1.23.2,4,4,0,0,0,1.33-.21,3,3,0,0,0,1-.58,2.72,2.72,0,0,0,.67-.9A2.78,2.78,0,0,0,1071.67,290.54Zm-.88-9.81a2.53,2.53,0,0,0-.64-1.89,2.33,2.33,0,0,0-1.7-.63,2.57,2.57,0,0,0-1,.17,2.1,2.1,0,0,0-.75.48,2,2,0,0,0-.49.77,2.71,2.71,0,0,0-.18,1,2.31,2.31,0,0,0,.21,1,2.49,2.49,0,0,0,.56.78,4.36,4.36,0,0,0,.86.6c.33.17.69.34,1.07.49a5,5,0,0,0,1.49-1.23A2.47,2.47,0,0,0,1070.79,280.73Z"/>
      <path class="cls-12" d="M1092.46,289.19a10,10,0,0,1-.47,3.09,7.23,7.23,0,0,1-1.38,2.48,6.52,6.52,0,0,1-2.27,1.65,7.38,7.38,0,0,1-3.09.61,7.3,7.3,0,0,1-3.08-.61,6.39,6.39,0,0,1-2.26-1.65,7.07,7.07,0,0,1-1.38-2.48,9.67,9.67,0,0,1-.47-3.09v-6.75a9.59,9.59,0,0,1,.47-3.07,7.07,7.07,0,0,1,1.38-2.48,6.42,6.42,0,0,1,2.26-1.66,7.3,7.3,0,0,1,3.08-.61,7.38,7.38,0,0,1,3.09.61,6.55,6.55,0,0,1,2.27,1.66,7.23,7.23,0,0,1,1.38,2.48,9.87,9.87,0,0,1,.47,3.07Zm-4.15-6.84a6.2,6.2,0,0,0-.22-1.77,3.9,3.9,0,0,0-.63-1.24,2.54,2.54,0,0,0-1-.73,3.15,3.15,0,0,0-1.24-.24,3.08,3.08,0,0,0-1.24.24,2.37,2.37,0,0,0-1,.73,3.53,3.53,0,0,0-.63,1.24,6.58,6.58,0,0,0-.22,1.77v7a6.58,6.58,0,0,0,.22,1.77,3.4,3.4,0,0,0,.63,1.23,2.35,2.35,0,0,0,1,.72,3.08,3.08,0,0,0,1.24.24,3.15,3.15,0,0,0,1.24-.24,2.52,2.52,0,0,0,1-.72,3.74,3.74,0,0,0,.63-1.23,6.2,6.2,0,0,0,.22-1.77Z"/>
      <path class="cls-12" d="M1102.18,279.8a3.62,3.62,0,0,1-.28,1.5,3.16,3.16,0,0,1-.76,1.05,2.92,2.92,0,0,1-1.11.63,4.32,4.32,0,0,1-2.66,0,2.92,2.92,0,0,1-1.11-.63,3,3,0,0,1-.76-1.05,3.62,3.62,0,0,1-.29-1.5V278a3.58,3.58,0,0,1,.29-1.48,3,3,0,0,1,.76-1,3.08,3.08,0,0,1,1.11-.64,4.32,4.32,0,0,1,2.66,0,3.08,3.08,0,0,1,1.11.64,3.16,3.16,0,0,1,.76,1,3.59,3.59,0,0,1,.28,1.48Zm-2.43-1.83a1.2,1.2,0,0,0-.29-.91,1.06,1.06,0,0,0-.76-.29,1,1,0,0,0-.76.29,1.2,1.2,0,0,0-.3.91v1.89a1.23,1.23,0,0,0,.3.91,1,1,0,0,0,.76.29,1,1,0,0,0,.76-.29,1.23,1.23,0,0,0,.29-.91Zm.24,18.33a1.08,1.08,0,0,1-.61.63,1.19,1.19,0,0,1-.89,0,1.15,1.15,0,0,1-.65-.61,1.1,1.1,0,0,1,0-.89l7.42-20.1a1.13,1.13,0,0,1,.6-.65,1.06,1.06,0,0,1,.89,0,1,1,0,0,1,.64.59,1.22,1.22,0,0,1,0,.9Zm10.08-2.64a3.71,3.71,0,0,1-.28,1.47,3,3,0,0,1-.76,1,3.34,3.34,0,0,1-1.12.63,4.34,4.34,0,0,1-1.35.22,4.21,4.21,0,0,1-1.33-.22,3.07,3.07,0,0,1-1.1-.63,3,3,0,0,1-.77-1,3.54,3.54,0,0,1-.28-1.47v-1.83a3.54,3.54,0,0,1,.28-1.47,3,3,0,0,1,.77-1.06,3,3,0,0,1,1.1-.64,4.21,4.21,0,0,1,1.33-.21,4.33,4.33,0,0,1,1.35.21,3.2,3.2,0,0,1,1.12.64,3,3,0,0,1,.76,1.06,3.71,3.71,0,0,1,.28,1.47Zm-2.44-1.89a1.19,1.19,0,0,0-.28-.89,1.06,1.06,0,0,0-.79-.28,1,1,0,0,0-.73.28,1.15,1.15,0,0,0-.29.89v1.92a1.23,1.23,0,0,0,.29.92,1,1,0,0,0,.73.28,1.06,1.06,0,0,0,.77-.28,1.23,1.23,0,0,0,.3-.92Z"/>
      <path class="cls-11" d="M78.49,6.94A9.74,9.74,0,0,1,81.42,0L82,.35a9.18,9.18,0,0,0,0,13.18l-.58.36A9.76,9.76,0,0,1,78.49,6.94Z"/>
      <path class="cls-11" d="M89.15,8.9c0,.17.15.48.2.63-4.26,1.92-4.72,2.17-5,2.45a2.51,2.51,0,0,0-.4-.6,1.38,1.38,0,0,0,.76-1.13V1.51h.74v9.06Zm5.07-8C94,4.45,93.6,7.13,92.59,9.22a27.35,27.35,0,0,1,3.58,3.9l-.6.46a25.14,25.14,0,0,0-3.29-3.76,9.2,9.2,0,0,1-4.58,3.89,3.56,3.56,0,0,0-.51-.62C92.06,11.2,93.12,7.55,93.48.84ZM90.05,5.42a18.49,18.49,0,0,0-2.26-3.53l.6-.3a19.42,19.42,0,0,1,2.29,3.46Z"/>
      <path class="cls-11" d="M104,12.05a.43.43,0,0,1-.13.33.42.42,0,0,1-.33.14H98.25a.46.46,0,0,1-.35-.13.49.49,0,0,1-.12-.34,3.36,3.36,0,0,1,.12-.92,3.54,3.54,0,0,1,.33-.8,3.65,3.65,0,0,1,.47-.69,5.4,5.4,0,0,1,.58-.59,7.79,7.79,0,0,1,.82-.68l.85-.63c.28-.21.55-.43.8-.64a4.29,4.29,0,0,0,.67-.68,3,3,0,0,0,.47-.76,2.37,2.37,0,0,0,.17-.9,2.63,2.63,0,0,0-.13-.84,1.94,1.94,0,0,0-.38-.69,1.8,1.8,0,0,0-.66-.47,2.43,2.43,0,0,0-.94-.17,3.75,3.75,0,0,0-.87.09,2.89,2.89,0,0,0-.68.25,2.15,2.15,0,0,0-.35.21l-.23.18a.86.86,0,0,1-.17.13.39.39,0,0,1-.18,0,.42.42,0,0,1-.33-.14A.46.46,0,0,1,98,3a.38.38,0,0,1,0-.17.47.47,0,0,1,.12-.18A3.58,3.58,0,0,1,99.37,2,4.56,4.56,0,0,1,101,1.7a3.39,3.39,0,0,1,1.37.25,2.69,2.69,0,0,1,1.51,1.66A3.74,3.74,0,0,1,104,4.76a3.28,3.28,0,0,1-.2,1.16,4,4,0,0,1-.54.94,5.35,5.35,0,0,1-.78.8c-.29.25-.59.48-.9.71l-.93.69a7.46,7.46,0,0,0-.84.73,4.24,4.24,0,0,0-.66.82,2.76,2.76,0,0,0-.38,1h4.77a.44.44,0,0,1,.33.13A.42.42,0,0,1,104,12.05Z"/>
      <path class="cls-11" d="M112.46,8.78a5.84,5.84,0,0,1-.18,1.46,3.46,3.46,0,0,1-.58,1.24,3,3,0,0,1-1,.85,3.77,3.77,0,0,1-3,0,3,3,0,0,1-1-.85,3.63,3.63,0,0,1-.58-1.24,5.84,5.84,0,0,1-.18-1.46V5.56A5.82,5.82,0,0,1,106,4.11a3.67,3.67,0,0,1,.58-1.23,2.88,2.88,0,0,1,1-.86,3.77,3.77,0,0,1,3,0,2.88,2.88,0,0,1,1,.86,3.49,3.49,0,0,1,.58,1.23,5.82,5.82,0,0,1,.18,1.45Zm-1-3.17a5.06,5.06,0,0,0-.14-1.2,2.75,2.75,0,0,0-.42-1,2,2,0,0,0-.74-.63,2.64,2.64,0,0,0-2.11,0,1.94,1.94,0,0,0-.73.63,2.75,2.75,0,0,0-.42,1,5.06,5.06,0,0,0-.14,1.2V8.75a5.06,5.06,0,0,0,.14,1.2,2.7,2.7,0,0,0,.42.94,1.91,1.91,0,0,0,.73.62,2.53,2.53,0,0,0,2.11,0,2,2,0,0,0,.74-.62,2.7,2.7,0,0,0,.42-.94,5.06,5.06,0,0,0,.14-1.2Z"/>
      <path class="cls-11" d="M120.42,12.07a.48.48,0,0,1-.13.32.44.44,0,0,1-.32.13H114.7a.48.48,0,0,1-.33-.13.45.45,0,0,1-.14-.32.46.46,0,0,1,.47-.47h2.67V3l-2.86,2a.48.48,0,0,1-.35.08.45.45,0,0,1-.3-.2.54.54,0,0,1-.07-.35.46.46,0,0,1,.2-.29l3.56-2.45a.44.44,0,0,1,.3-.1.49.49,0,0,1,.35.13.48.48,0,0,1,.14.35V11.6H120a.44.44,0,0,1,.32.13A.51.51,0,0,1,120.42,12.07Z"/>
      <path class="cls-11" d="M128.83,5.64a6.29,6.29,0,0,1-.14,1.29,7.06,7.06,0,0,1-.39,1.26,9.52,9.52,0,0,1-.59,1.2c-.22.39-.47.77-.73,1.14s-.54.71-.83,1-.58.65-.87.94a.49.49,0,0,1-.34.14.48.48,0,0,1-.48-.49.49.49,0,0,1,.14-.33,11.73,11.73,0,0,0,.83-.88,11.36,11.36,0,0,0,.79-1,9.73,9.73,0,0,0,.7-1.1,8,8,0,0,0,.53-1.16,3.15,3.15,0,0,1-.89.42,3.23,3.23,0,0,1-.9.14,3.64,3.64,0,0,1-1.2-.2,2.65,2.65,0,0,1-1-.59,2.79,2.79,0,0,1-.69-1A3.66,3.66,0,0,1,122.52,5a3.77,3.77,0,0,1,.23-1.38,3,3,0,0,1,.65-1,2.77,2.77,0,0,1,1-.66,3.58,3.58,0,0,1,1.3-.23A3,3,0,0,1,127,2a2.85,2.85,0,0,1,1,.77A3.71,3.71,0,0,1,128.61,4,6,6,0,0,1,128.83,5.64Zm-1,0a5,5,0,0,0-.17-1.38,3,3,0,0,0-.47-.94,1.76,1.76,0,0,0-.69-.54,2,2,0,0,0-.84-.17,2.47,2.47,0,0,0-.92.16,1.73,1.73,0,0,0-.69.47,2,2,0,0,0-.43.75,3,3,0,0,0-.16,1,3,3,0,0,0,.17,1,2,2,0,0,0,.47.73,1.79,1.79,0,0,0,.7.43,2.5,2.5,0,0,0,.88.15,2.69,2.69,0,0,0,.65-.08,3.47,3.47,0,0,0,.57-.19,3,3,0,0,0,.47-.27,3.31,3.31,0,0,0,.39-.3c0-.15,0-.3,0-.44A3.31,3.31,0,0,0,127.86,5.64Z"/>
      <path class="cls-11" d="M143.61,10.09h-5.5v3.52h-.71V10.09h-6.93v-.7H133v-4h4.45V2.85h-3.84a13.81,13.81,0,0,1-2.37,3,3.88,3.88,0,0,0-.63-.44A12.94,12.94,0,0,0,134,.25l.72.18c-.24.6-.52,1.19-.8,1.74H143v.68h-4.89V5.39h4.58v.67h-4.58V9.39h5.5Zm-6.21-.7V6.06h-3.74V9.39Z"/>
      <path class="cls-11" d="M157.45,4.29c-.25,6-.46,8.05-1,8.7a1.35,1.35,0,0,1-1.06.46c-.49,0-1.43,0-2.34-.08a1.36,1.36,0,0,0-.23-.72,22.5,22.5,0,0,0,2.33.11c.34,0,.52,0,.65-.21.48-.47.73-2.5,1-8h-5.5a11.6,11.6,0,0,1-5.42,8.85,2.15,2.15,0,0,0-.54-.5,11.12,11.12,0,0,0,5.25-8.35h-4.83v-.7h4.89c.06-.69.08-1.36.08-2V.32h.7V1.91c0,.61,0,1.28-.06,2h6.17Zm-8.81-1.08A14.49,14.49,0,0,0,147,1l.58-.29a13.92,13.92,0,0,1,1.68,2.14ZM154,9.89a16.8,16.8,0,0,0-2.18-2.95l.57-.31a15.29,15.29,0,0,1,2.21,2.9Z"/>
      <path class="cls-11" d="M169.62,8a7.8,7.8,0,0,0,3.5,2.62,2.81,2.81,0,0,0-.49.54A8.64,8.64,0,0,1,168.88,8H164a9.74,9.74,0,0,1-3.78,3.37,2.62,2.62,0,0,0-.5-.55A8.86,8.86,0,0,0,163.21,8h-3.36V7.41h3V2.52h-2.35V1.89h2.35V.29h.7v1.6h5.76V.31h.7V1.89h2.34v.63H170V7.41h2.94V8Zm-2.92,4.53h5.22v.63h-11v-.63H166V10.66h-3.24V10H166V8.6h.69V10H170v.63H166.7Zm-3.17-10V3.71h5.76V2.52Zm0,3h5.76V4.3h-5.76Zm0,1.86h5.76V6.14h-5.76Z"/>
      <path class="cls-11" d="M174.54,1.16h4.88v.66h-2.24a26.9,26.9,0,0,1-1,3.82H179V11.7h-2.87V13h-.64V7.15a10.21,10.21,0,0,1-.88,1.47,2.43,2.43,0,0,0-.41-.65,15.26,15.26,0,0,0,2.25-6.15h-2Zm3.87,5.12h-2.24v4.77h2.24Zm8.84,1.16v6h-.69v-.78H180V7.46h.72v4.47h2.57V6.19h-2.94V1.64H181V5.53h2.27V.4h.7V5.53h2.16V1.64h.69V6.19H184v5.74h2.59V7.44Z"/>
      <path class="cls-11" d="M192.06,6.94a9.73,9.73,0,0,1-2.94,7l-.57-.36a9.29,9.29,0,0,0,2.79-6.59A9.31,9.31,0,0,0,188.55.35l.57-.35A9.71,9.71,0,0,1,192.06,6.94Z"/>
    </g>
  </g>
</svg>