<svg xmlns="http://www.w3.org/2000/svg" xmlns:xlink="http://www.w3.org/1999/xlink" viewBox="0 0 1307.18 190"><defs><style>.cls-1{isolation:isolate;}.cls-2{opacity:0.2;mix-blend-mode:screen;fill:url(#未命名的渐变_81);}.cls-3{opacity:0.15;}.cls-10,.cls-100,.cls-101,.cls-102,.cls-103,.cls-104,.cls-105,.cls-106,.cls-107,.cls-108,.cls-109,.cls-11,.cls-110,.cls-111,.cls-112,.cls-113,.cls-114,.cls-115,.cls-116,.cls-117,.cls-118,.cls-119,.cls-12,.cls-120,.cls-121,.cls-122,.cls-123,.cls-124,.cls-125,.cls-126,.cls-127,.cls-128,.cls-129,.cls-13,.cls-130,.cls-131,.cls-132,.cls-133,.cls-134,.cls-135,.cls-136,.cls-137,.cls-138,.cls-139,.cls-14,.cls-140,.cls-141,.cls-142,.cls-143,.cls-144,.cls-145,.cls-146,.cls-147,.cls-148,.cls-149,.cls-15,.cls-150,.cls-151,.cls-152,.cls-153,.cls-154,.cls-155,.cls-156,.cls-157,.cls-158,.cls-16,.cls-17,.cls-18,.cls-19,.cls-20,.cls-21,.cls-22,.cls-23,.cls-24,.cls-25,.cls-26,.cls-27,.cls-28,.cls-29,.cls-30,.cls-31,.cls-32,.cls-33,.cls-34,.cls-35,.cls-36,.cls-37,.cls-38,.cls-39,.cls-4,.cls-40,.cls-41,.cls-42,.cls-43,.cls-44,.cls-45,.cls-46,.cls-47,.cls-48,.cls-49,.cls-5,.cls-50,.cls-51,.cls-52,.cls-53,.cls-54,.cls-55,.cls-56,.cls-57,.cls-58,.cls-59,.cls-6,.cls-60,.cls-61,.cls-62,.cls-63,.cls-64,.cls-65,.cls-66,.cls-67,.cls-68,.cls-69,.cls-7,.cls-70,.cls-71,.cls-72,.cls-73,.cls-74,.cls-75,.cls-76,.cls-77,.cls-78,.cls-79,.cls-8,.cls-80,.cls-81,.cls-82,.cls-83,.cls-84,.cls-85,.cls-86,.cls-87,.cls-88,.cls-89,.cls-9,.cls-90,.cls-91,.cls-92,.cls-93,.cls-94,.cls-95,.cls-96,.cls-97,.cls-98,.cls-99{fill:none;stroke-miterlimit:10;}.cls-10,.cls-100,.cls-101,.cls-102,.cls-103,.cls-104,.cls-105,.cls-106,.cls-107,.cls-108,.cls-109,.cls-11,.cls-110,.cls-111,.cls-112,.cls-113,.cls-114,.cls-115,.cls-116,.cls-117,.cls-118,.cls-119,.cls-12,.cls-120,.cls-121,.cls-122,.cls-123,.cls-124,.cls-125,.cls-126,.cls-127,.cls-128,.cls-129,.cls-13,.cls-130,.cls-131,.cls-132,.cls-133,.cls-134,.cls-135,.cls-136,.cls-137,.cls-138,.cls-139,.cls-14,.cls-140,.cls-141,.cls-142,.cls-143,.cls-144,.cls-145,.cls-146,.cls-147,.cls-148,.cls-149,.cls-15,.cls-150,.cls-151,.cls-152,.cls-153,.cls-154,.cls-155,.cls-16,.cls-17,.cls-18,.cls-19,.cls-20,.cls-21,.cls-22,.cls-23,.cls-24,.cls-25,.cls-26,.cls-27,.cls-28,.cls-29,.cls-30,.cls-31,.cls-32,.cls-33,.cls-34,.cls-35,.cls-36,.cls-37,.cls-38,.cls-39,.cls-4,.cls-40,.cls-41,.cls-42,.cls-43,.cls-44,.cls-45,.cls-46,.cls-47,.cls-48,.cls-49,.cls-5,.cls-50,.cls-51,.cls-52,.cls-53,.cls-54,.cls-55,.cls-56,.cls-57,.cls-58,.cls-59,.cls-6,.cls-60,.cls-61,.cls-62,.cls-63,.cls-64,.cls-65,.cls-66,.cls-67,.cls-68,.cls-69,.cls-7,.cls-70,.cls-71,.cls-72,.cls-73,.cls-74,.cls-75,.cls-76,.cls-77,.cls-78,.cls-79,.cls-8,.cls-80,.cls-81,.cls-82,.cls-83,.cls-84,.cls-85,.cls-86,.cls-87,.cls-88,.cls-89,.cls-9,.cls-90,.cls-91,.cls-92,.cls-93,.cls-94,.cls-95,.cls-96,.cls-97,.cls-98,.cls-99{stroke-width:0.88px;}.cls-4{stroke:url(#未命名的渐变_34);}.cls-5{stroke:url(#未命名的渐变_34-2);}.cls-6{stroke:url(#未命名的渐变_34-3);}.cls-7{stroke:url(#未命名的渐变_34-4);}.cls-8{stroke:url(#未命名的渐变_34-5);}.cls-9{stroke:url(#未命名的渐变_34-6);}.cls-10{stroke:url(#未命名的渐变_34-7);}.cls-11{stroke:url(#未命名的渐变_34-8);}.cls-12{stroke:url(#未命名的渐变_34-9);}.cls-13{stroke:url(#未命名的渐变_34-10);}.cls-14{stroke:url(#未命名的渐变_34-11);}.cls-15{stroke:url(#未命名的渐变_34-12);}.cls-16{stroke:url(#未命名的渐变_34-13);}.cls-17{stroke:url(#未命名的渐变_34-14);}.cls-18{stroke:url(#未命名的渐变_34-15);}.cls-19{stroke:url(#未命名的渐变_34-16);}.cls-20{stroke:url(#未命名的渐变_34-17);}.cls-21{stroke:url(#未命名的渐变_34-18);}.cls-22{stroke:url(#未命名的渐变_34-19);}.cls-23{stroke:url(#未命名的渐变_34-20);}.cls-24{stroke:url(#未命名的渐变_34-21);}.cls-25{stroke:url(#未命名的渐变_34-22);}.cls-26{stroke:url(#未命名的渐变_34-23);}.cls-27{stroke:url(#未命名的渐变_34-24);}.cls-28{stroke:url(#未命名的渐变_34-25);}.cls-29{stroke:url(#未命名的渐变_34-26);}.cls-30{stroke:url(#未命名的渐变_34-27);}.cls-31{stroke:url(#未命名的渐变_34-28);}.cls-32{stroke:url(#未命名的渐变_34-29);}.cls-33{stroke:url(#未命名的渐变_34-30);}.cls-34{stroke:url(#未命名的渐变_34-31);}.cls-35{stroke:url(#未命名的渐变_34-32);}.cls-36{stroke:url(#未命名的渐变_34-33);}.cls-37{stroke:url(#未命名的渐变_34-34);}.cls-38{stroke:url(#未命名的渐变_34-35);}.cls-39{stroke:url(#未命名的渐变_34-36);}.cls-40{stroke:url(#未命名的渐变_34-37);}.cls-41{stroke:url(#未命名的渐变_34-38);}.cls-42{stroke:url(#未命名的渐变_34-39);}.cls-43{stroke:url(#未命名的渐变_34-40);}.cls-44{stroke:url(#未命名的渐变_34-41);}.cls-45{stroke:url(#未命名的渐变_34-42);}.cls-46{stroke:url(#未命名的渐变_34-43);}.cls-47{stroke:url(#未命名的渐变_34-44);}.cls-48{stroke:url(#未命名的渐变_34-45);}.cls-49{stroke:url(#未命名的渐变_34-46);}.cls-50{stroke:url(#未命名的渐变_34-47);}.cls-51{stroke:url(#未命名的渐变_34-48);}.cls-52{stroke:url(#未命名的渐变_34-49);}.cls-53{stroke:url(#未命名的渐变_34-50);}.cls-54{stroke:url(#未命名的渐变_34-51);}.cls-55{stroke:url(#未命名的渐变_34-52);}.cls-56{stroke:url(#未命名的渐变_34-53);}.cls-57{stroke:url(#未命名的渐变_34-54);}.cls-58{stroke:url(#未命名的渐变_34-55);}.cls-59{stroke:url(#未命名的渐变_34-56);}.cls-60{stroke:url(#未命名的渐变_34-57);}.cls-61{stroke:url(#未命名的渐变_34-58);}.cls-62{stroke:url(#未命名的渐变_34-59);}.cls-63{stroke:url(#未命名的渐变_34-60);}.cls-64{stroke:url(#未命名的渐变_34-61);}.cls-65{stroke:url(#未命名的渐变_34-62);}.cls-66{stroke:url(#未命名的渐变_34-63);}.cls-67{stroke:url(#未命名的渐变_34-64);}.cls-68{stroke:url(#未命名的渐变_34-65);}.cls-69{stroke:url(#未命名的渐变_34-66);}.cls-70{stroke:url(#未命名的渐变_34-67);}.cls-71{stroke:url(#未命名的渐变_34-68);}.cls-72{stroke:url(#未命名的渐变_34-69);}.cls-73{stroke:url(#未命名的渐变_34-70);}.cls-74{stroke:url(#未命名的渐变_34-71);}.cls-75{stroke:url(#未命名的渐变_34-72);}.cls-76{stroke:url(#未命名的渐变_34-73);}.cls-77{stroke:url(#未命名的渐变_34-74);}.cls-78{stroke:url(#未命名的渐变_34-75);}.cls-79{stroke:url(#未命名的渐变_34-76);}.cls-80{stroke:url(#未命名的渐变_34-77);}.cls-81{stroke:url(#未命名的渐变_34-78);}.cls-82{stroke:url(#未命名的渐变_34-79);}.cls-83{stroke:url(#未命名的渐变_34-80);}.cls-84{stroke:url(#未命名的渐变_34-81);}.cls-85{stroke:url(#未命名的渐变_34-82);}.cls-86{stroke:url(#未命名的渐变_34-83);}.cls-87{stroke:url(#未命名的渐变_34-84);}.cls-88{stroke:url(#未命名的渐变_34-85);}.cls-89{stroke:url(#未命名的渐变_34-86);}.cls-90{stroke:url(#未命名的渐变_34-87);}.cls-91{stroke:url(#未命名的渐变_34-88);}.cls-92{stroke:url(#未命名的渐变_34-89);}.cls-93{stroke:url(#未命名的渐变_34-90);}.cls-94{stroke:url(#未命名的渐变_34-91);}.cls-95{stroke:url(#未命名的渐变_34-92);}.cls-96{stroke:url(#未命名的渐变_34-93);}.cls-97{stroke:url(#未命名的渐变_34-94);}.cls-98{stroke:url(#未命名的渐变_34-95);}.cls-99{stroke:url(#未命名的渐变_34-96);}.cls-100{stroke:url(#未命名的渐变_34-97);}.cls-101{stroke:url(#未命名的渐变_34-98);}.cls-102{stroke:url(#未命名的渐变_34-99);}.cls-103{stroke:url(#未命名的渐变_34-100);}.cls-104{stroke:url(#未命名的渐变_34-101);}.cls-105{stroke:url(#未命名的渐变_34-102);}.cls-106{stroke:url(#未命名的渐变_34-103);}.cls-107{stroke:url(#未命名的渐变_34-104);}.cls-108{stroke:url(#未命名的渐变_34-105);}.cls-109{stroke:url(#未命名的渐变_34-106);}.cls-110{stroke:url(#未命名的渐变_34-107);}.cls-111{stroke:url(#未命名的渐变_34-108);}.cls-112{stroke:url(#未命名的渐变_34-109);}.cls-113{stroke:url(#未命名的渐变_34-110);}.cls-114{stroke:url(#未命名的渐变_34-111);}.cls-115{stroke:url(#未命名的渐变_34-112);}.cls-116{stroke:url(#未命名的渐变_34-113);}.cls-117{stroke:url(#未命名的渐变_34-114);}.cls-118{stroke:url(#未命名的渐变_34-115);}.cls-119{stroke:url(#未命名的渐变_34-116);}.cls-120{stroke:url(#未命名的渐变_34-117);}.cls-121{stroke:url(#未命名的渐变_34-118);}.cls-122{stroke:url(#未命名的渐变_34-119);}.cls-123{stroke:url(#未命名的渐变_34-120);}.cls-124{stroke:url(#未命名的渐变_34-121);}.cls-125{stroke:url(#未命名的渐变_34-122);}.cls-126{stroke:url(#未命名的渐变_34-123);}.cls-127{stroke:url(#未命名的渐变_34-124);}.cls-128{stroke:url(#未命名的渐变_34-125);}.cls-129{stroke:url(#未命名的渐变_34-126);}.cls-130{stroke:url(#未命名的渐变_34-127);}.cls-131{stroke:url(#未命名的渐变_34-128);}.cls-132{stroke:url(#未命名的渐变_34-129);}.cls-133{stroke:url(#未命名的渐变_34-130);}.cls-134{stroke:url(#未命名的渐变_34-131);}.cls-135{stroke:url(#未命名的渐变_34-132);}.cls-136{stroke:url(#未命名的渐变_34-133);}.cls-137{stroke:url(#未命名的渐变_34-134);}.cls-138{stroke:url(#未命名的渐变_34-135);}.cls-139{stroke:url(#未命名的渐变_34-136);}.cls-140{stroke:url(#未命名的渐变_34-137);}.cls-141{stroke:url(#未命名的渐变_34-138);}.cls-142{stroke:url(#未命名的渐变_34-139);}.cls-143{stroke:url(#未命名的渐变_34-140);}.cls-144{stroke:url(#未命名的渐变_34-141);}.cls-145{stroke:url(#未命名的渐变_34-142);}.cls-146{stroke:url(#未命名的渐变_34-143);}.cls-147{stroke:url(#未命名的渐变_34-144);}.cls-148{stroke:url(#未命名的渐变_34-145);}.cls-149{stroke:url(#未命名的渐变_34-146);}.cls-150{stroke:url(#未命名的渐变_34-147);}.cls-151{stroke:url(#未命名的渐变_34-148);}.cls-152{stroke:url(#未命名的渐变_34-149);}.cls-153{stroke:url(#未命名的渐变_34-150);}.cls-154{stroke:url(#未命名的渐变_34-151);}.cls-155{stroke:url(#未命名的渐变_34-152);}.cls-156,.cls-157{stroke:#fff;stroke-width:0.9px;}.cls-157{stroke-dasharray:8.63 8.63;}.cls-158{stroke-width:1.2px;stroke:url(#未命名的渐变_119);}</style><linearGradient id="未命名的渐变_81" x1="12.32" y1="95" x2="1294.86" y2="95" gradientUnits="userSpaceOnUse"><stop offset="0" stop-color="#00dcff"/><stop offset="1" stop-color="#00dcff" stop-opacity="0"/></linearGradient><linearGradient id="未命名的渐变_34" x1="12.32" y1="10.9" x2="1294.86" y2="10.9" gradientUnits="userSpaceOnUse"><stop offset="0" stop-color="#00dcff"/><stop offset="0.5" stop-color="#00dcff" stop-opacity="0"/><stop offset="1" stop-color="#00dcff"/></linearGradient><linearGradient id="未命名的渐变_34-2" x1="12.32" y1="12.01" x2="1294.86" y2="12.01" xlink:href="#未命名的渐变_34"/><linearGradient id="未命名的渐变_34-3" x1="12.32" y1="13.12" x2="1294.86" y2="13.12" xlink:href="#未命名的渐变_34"/><linearGradient id="未命名的渐变_34-4" x1="12.32" y1="14.24" x2="1294.86" y2="14.24" xlink:href="#未命名的渐变_34"/><linearGradient id="未命名的渐变_34-5" x1="12.32" y1="15.35" x2="1294.86" y2="15.35" xlink:href="#未命名的渐变_34"/><linearGradient id="未命名的渐变_34-6" x1="12.32" y1="16.47" x2="1294.86" y2="16.47" xlink:href="#未命名的渐变_34"/><linearGradient id="未命名的渐变_34-7" x1="12.32" y1="17.58" x2="1294.86" y2="17.58" xlink:href="#未命名的渐变_34"/><linearGradient id="未命名的渐变_34-8" x1="12.32" y1="18.69" x2="1294.86" y2="18.69" xlink:href="#未命名的渐变_34"/><linearGradient id="未命名的渐变_34-9" x1="12.32" y1="19.81" x2="1294.86" y2="19.81" xlink:href="#未命名的渐变_34"/><linearGradient id="未命名的渐变_34-10" x1="12.32" y1="20.92" x2="1294.86" y2="20.92" xlink:href="#未命名的渐变_34"/><linearGradient id="未命名的渐变_34-11" x1="12.32" y1="22.04" x2="1294.86" y2="22.04" xlink:href="#未命名的渐变_34"/><linearGradient id="未命名的渐变_34-12" x1="12.32" y1="23.15" x2="1294.86" y2="23.15" xlink:href="#未命名的渐变_34"/><linearGradient id="未命名的渐变_34-13" x1="12.32" y1="24.26" x2="1294.86" y2="24.26" xlink:href="#未命名的渐变_34"/><linearGradient id="未命名的渐变_34-14" x1="12.32" y1="25.38" x2="1294.86" y2="25.38" xlink:href="#未命名的渐变_34"/><linearGradient id="未命名的渐变_34-15" x1="12.32" y1="26.49" x2="1294.86" y2="26.49" xlink:href="#未命名的渐变_34"/><linearGradient id="未命名的渐变_34-16" x1="12.32" y1="27.61" x2="1294.86" y2="27.61" xlink:href="#未命名的渐变_34"/><linearGradient id="未命名的渐变_34-17" x1="12.32" y1="28.72" x2="1294.86" y2="28.72" xlink:href="#未命名的渐变_34"/><linearGradient id="未命名的渐变_34-18" x1="12.32" y1="29.83" x2="1294.86" y2="29.83" xlink:href="#未命名的渐变_34"/><linearGradient id="未命名的渐变_34-19" x1="12.32" y1="30.95" x2="1294.86" y2="30.95" xlink:href="#未命名的渐变_34"/><linearGradient id="未命名的渐变_34-20" x1="12.32" y1="32.06" x2="1294.86" y2="32.06" xlink:href="#未命名的渐变_34"/><linearGradient id="未命名的渐变_34-21" x1="12.32" y1="33.18" x2="1294.86" y2="33.18" xlink:href="#未命名的渐变_34"/><linearGradient id="未命名的渐变_34-22" x1="12.32" y1="34.29" x2="1294.86" y2="34.29" xlink:href="#未命名的渐变_34"/><linearGradient id="未命名的渐变_34-23" x1="12.32" y1="35.4" x2="1294.86" y2="35.4" xlink:href="#未命名的渐变_34"/><linearGradient id="未命名的渐变_34-24" x1="12.32" y1="36.52" x2="1294.86" y2="36.52" xlink:href="#未命名的渐变_34"/><linearGradient id="未命名的渐变_34-25" x1="12.32" y1="37.63" x2="1294.86" y2="37.63" xlink:href="#未命名的渐变_34"/><linearGradient id="未命名的渐变_34-26" x1="12.32" y1="38.75" x2="1294.86" y2="38.75" xlink:href="#未命名的渐变_34"/><linearGradient id="未命名的渐变_34-27" x1="12.32" y1="39.86" x2="1294.86" y2="39.86" xlink:href="#未命名的渐变_34"/><linearGradient id="未命名的渐变_34-28" x1="12.32" y1="40.97" x2="1294.86" y2="40.97" xlink:href="#未命名的渐变_34"/><linearGradient id="未命名的渐变_34-29" x1="12.32" y1="42.09" x2="1294.86" y2="42.09" xlink:href="#未命名的渐变_34"/><linearGradient id="未命名的渐变_34-30" x1="12.32" y1="43.2" x2="1294.86" y2="43.2" xlink:href="#未命名的渐变_34"/><linearGradient id="未命名的渐变_34-31" x1="12.32" y1="44.32" x2="1294.86" y2="44.32" xlink:href="#未命名的渐变_34"/><linearGradient id="未命名的渐变_34-32" x1="12.32" y1="45.43" x2="1294.86" y2="45.43" xlink:href="#未命名的渐变_34"/><linearGradient id="未命名的渐变_34-33" x1="12.32" y1="46.54" x2="1294.86" y2="46.54" xlink:href="#未命名的渐变_34"/><linearGradient id="未命名的渐变_34-34" x1="12.32" y1="47.66" x2="1294.86" y2="47.66" xlink:href="#未命名的渐变_34"/><linearGradient id="未命名的渐变_34-35" x1="12.32" y1="48.77" x2="1294.86" y2="48.77" xlink:href="#未命名的渐变_34"/><linearGradient id="未命名的渐变_34-36" x1="12.32" y1="49.89" x2="1294.86" y2="49.89" xlink:href="#未命名的渐变_34"/><linearGradient id="未命名的渐变_34-37" x1="12.32" y1="51" x2="1294.86" y2="51" xlink:href="#未命名的渐变_34"/><linearGradient id="未命名的渐变_34-38" x1="12.32" y1="52.11" x2="1294.86" y2="52.11" xlink:href="#未命名的渐变_34"/><linearGradient id="未命名的渐变_34-39" x1="12.32" y1="53.23" x2="1294.86" y2="53.23" xlink:href="#未命名的渐变_34"/><linearGradient id="未命名的渐变_34-40" x1="12.32" y1="54.34" x2="1294.86" y2="54.34" xlink:href="#未命名的渐变_34"/><linearGradient id="未命名的渐变_34-41" x1="12.32" y1="55.46" x2="1294.86" y2="55.46" xlink:href="#未命名的渐变_34"/><linearGradient id="未命名的渐变_34-42" x1="12.32" y1="56.57" x2="1294.86" y2="56.57" xlink:href="#未命名的渐变_34"/><linearGradient id="未命名的渐变_34-43" x1="12.32" y1="57.68" x2="1294.86" y2="57.68" xlink:href="#未命名的渐变_34"/><linearGradient id="未命名的渐变_34-44" x1="12.32" y1="58.8" x2="1294.86" y2="58.8" xlink:href="#未命名的渐变_34"/><linearGradient id="未命名的渐变_34-45" x1="12.32" y1="59.91" x2="1294.86" y2="59.91" xlink:href="#未命名的渐变_34"/><linearGradient id="未命名的渐变_34-46" x1="12.32" y1="61.03" x2="1294.86" y2="61.03" xlink:href="#未命名的渐变_34"/><linearGradient id="未命名的渐变_34-47" x1="12.32" y1="62.14" x2="1294.86" y2="62.14" xlink:href="#未命名的渐变_34"/><linearGradient id="未命名的渐变_34-48" x1="12.32" y1="63.25" x2="1294.86" y2="63.25" xlink:href="#未命名的渐变_34"/><linearGradient id="未命名的渐变_34-49" x1="12.32" y1="64.37" x2="1294.86" y2="64.37" xlink:href="#未命名的渐变_34"/><linearGradient id="未命名的渐变_34-50" x1="12.32" y1="65.48" x2="1294.86" y2="65.48" xlink:href="#未命名的渐变_34"/><linearGradient id="未命名的渐变_34-51" x1="12.32" y1="66.6" x2="1294.86" y2="66.6" xlink:href="#未命名的渐变_34"/><linearGradient id="未命名的渐变_34-52" x1="12.32" y1="67.71" x2="1294.86" y2="67.71" xlink:href="#未命名的渐变_34"/><linearGradient id="未命名的渐变_34-53" x1="12.32" y1="68.82" x2="1294.86" y2="68.82" xlink:href="#未命名的渐变_34"/><linearGradient id="未命名的渐变_34-54" x1="12.32" y1="69.94" x2="1294.86" y2="69.94" xlink:href="#未命名的渐变_34"/><linearGradient id="未命名的渐变_34-55" x1="12.32" y1="71.05" x2="1294.86" y2="71.05" xlink:href="#未命名的渐变_34"/><linearGradient id="未命名的渐变_34-56" x1="12.32" y1="72.17" x2="1294.86" y2="72.17" xlink:href="#未命名的渐变_34"/><linearGradient id="未命名的渐变_34-57" x1="12.32" y1="73.28" x2="1294.86" y2="73.28" xlink:href="#未命名的渐变_34"/><linearGradient id="未命名的渐变_34-58" x1="12.32" y1="74.39" x2="1294.86" y2="74.39" xlink:href="#未命名的渐变_34"/><linearGradient id="未命名的渐变_34-59" x1="12.32" y1="75.51" x2="1294.86" y2="75.51" xlink:href="#未命名的渐变_34"/><linearGradient id="未命名的渐变_34-60" x1="12.32" y1="76.62" x2="1294.86" y2="76.62" xlink:href="#未命名的渐变_34"/><linearGradient id="未命名的渐变_34-61" x1="12.32" y1="77.74" x2="1294.86" y2="77.74" xlink:href="#未命名的渐变_34"/><linearGradient id="未命名的渐变_34-62" x1="12.32" y1="78.85" x2="1294.86" y2="78.85" xlink:href="#未命名的渐变_34"/><linearGradient id="未命名的渐变_34-63" x1="12.32" y1="79.96" x2="1294.86" y2="79.96" xlink:href="#未命名的渐变_34"/><linearGradient id="未命名的渐变_34-64" x1="12.32" y1="81.08" x2="1294.86" y2="81.08" xlink:href="#未命名的渐变_34"/><linearGradient id="未命名的渐变_34-65" x1="12.32" y1="82.19" x2="1294.86" y2="82.19" xlink:href="#未命名的渐变_34"/><linearGradient id="未命名的渐变_34-66" x1="12.32" y1="83.31" x2="1294.86" y2="83.31" xlink:href="#未命名的渐变_34"/><linearGradient id="未命名的渐变_34-67" x1="12.32" y1="84.42" x2="1294.86" y2="84.42" xlink:href="#未命名的渐变_34"/><linearGradient id="未命名的渐变_34-68" x1="12.32" y1="85.53" x2="1294.86" y2="85.53" xlink:href="#未命名的渐变_34"/><linearGradient id="未命名的渐变_34-69" x1="12.32" y1="86.65" x2="1294.86" y2="86.65" xlink:href="#未命名的渐变_34"/><linearGradient id="未命名的渐变_34-70" x1="12.32" y1="87.76" x2="1294.86" y2="87.76" xlink:href="#未命名的渐变_34"/><linearGradient id="未命名的渐变_34-71" x1="12.32" y1="88.87" x2="1294.86" y2="88.87" xlink:href="#未命名的渐变_34"/><linearGradient id="未命名的渐变_34-72" x1="12.32" y1="89.99" x2="1294.86" y2="89.99" xlink:href="#未命名的渐变_34"/><linearGradient id="未命名的渐变_34-73" x1="12.32" y1="91.1" x2="1294.86" y2="91.1" xlink:href="#未命名的渐变_34"/><linearGradient id="未命名的渐变_34-74" x1="12.32" y1="92.22" x2="1294.86" y2="92.22" xlink:href="#未命名的渐变_34"/><linearGradient id="未命名的渐变_34-75" x1="12.32" y1="93.33" x2="1294.86" y2="93.33" xlink:href="#未命名的渐变_34"/><linearGradient id="未命名的渐变_34-76" x1="12.32" y1="94.44" x2="1294.86" y2="94.44" xlink:href="#未命名的渐变_34"/><linearGradient id="未命名的渐变_34-77" x1="12.32" y1="95.56" x2="1294.86" y2="95.56" xlink:href="#未命名的渐变_34"/><linearGradient id="未命名的渐变_34-78" x1="12.32" y1="96.67" x2="1294.86" y2="96.67" xlink:href="#未命名的渐变_34"/><linearGradient id="未命名的渐变_34-79" x1="12.32" y1="97.79" x2="1294.86" y2="97.79" xlink:href="#未命名的渐变_34"/><linearGradient id="未命名的渐变_34-80" x1="12.32" y1="98.9" x2="1294.86" y2="98.9" xlink:href="#未命名的渐变_34"/><linearGradient id="未命名的渐变_34-81" x1="12.32" y1="100.01" x2="1294.86" y2="100.01" xlink:href="#未命名的渐变_34"/><linearGradient id="未命名的渐变_34-82" x1="12.32" y1="101.13" x2="1294.86" y2="101.13" xlink:href="#未命名的渐变_34"/><linearGradient id="未命名的渐变_34-83" x1="12.32" y1="102.24" x2="1294.86" y2="102.24" xlink:href="#未命名的渐变_34"/><linearGradient id="未命名的渐变_34-84" x1="12.32" y1="103.36" x2="1294.86" y2="103.36" xlink:href="#未命名的渐变_34"/><linearGradient id="未命名的渐变_34-85" x1="12.32" y1="104.47" x2="1294.86" y2="104.47" xlink:href="#未命名的渐变_34"/><linearGradient id="未命名的渐变_34-86" x1="12.32" y1="105.58" x2="1294.86" y2="105.58" xlink:href="#未命名的渐变_34"/><linearGradient id="未命名的渐变_34-87" x1="12.32" y1="106.7" x2="1294.86" y2="106.7" xlink:href="#未命名的渐变_34"/><linearGradient id="未命名的渐变_34-88" x1="12.32" y1="107.81" x2="1294.86" y2="107.81" xlink:href="#未命名的渐变_34"/><linearGradient id="未命名的渐变_34-89" x1="12.32" y1="108.93" x2="1294.86" y2="108.93" xlink:href="#未命名的渐变_34"/><linearGradient id="未命名的渐变_34-90" x1="12.32" y1="110.04" x2="1294.86" y2="110.04" xlink:href="#未命名的渐变_34"/><linearGradient id="未命名的渐变_34-91" x1="12.32" y1="111.15" x2="1294.86" y2="111.15" xlink:href="#未命名的渐变_34"/><linearGradient id="未命名的渐变_34-92" x1="12.32" y1="112.27" x2="1294.86" y2="112.27" xlink:href="#未命名的渐变_34"/><linearGradient id="未命名的渐变_34-93" x1="12.32" y1="113.38" x2="1294.86" y2="113.38" xlink:href="#未命名的渐变_34"/><linearGradient id="未命名的渐变_34-94" x1="12.32" y1="114.5" x2="1294.86" y2="114.5" xlink:href="#未命名的渐变_34"/><linearGradient id="未命名的渐变_34-95" x1="12.32" y1="115.61" x2="1294.86" y2="115.61" xlink:href="#未命名的渐变_34"/><linearGradient id="未命名的渐变_34-96" x1="12.32" y1="116.72" x2="1294.86" y2="116.72" xlink:href="#未命名的渐变_34"/><linearGradient id="未命名的渐变_34-97" x1="12.32" y1="117.84" x2="1294.86" y2="117.84" xlink:href="#未命名的渐变_34"/><linearGradient id="未命名的渐变_34-98" x1="12.32" y1="118.95" x2="1294.86" y2="118.95" xlink:href="#未命名的渐变_34"/><linearGradient id="未命名的渐变_34-99" x1="12.32" y1="120.07" x2="1294.86" y2="120.07" xlink:href="#未命名的渐变_34"/><linearGradient id="未命名的渐变_34-100" x1="12.32" y1="121.18" x2="1294.86" y2="121.18" xlink:href="#未命名的渐变_34"/><linearGradient id="未命名的渐变_34-101" x1="12.32" y1="122.29" x2="1294.86" y2="122.29" xlink:href="#未命名的渐变_34"/><linearGradient id="未命名的渐变_34-102" x1="12.32" y1="123.41" x2="1294.86" y2="123.41" xlink:href="#未命名的渐变_34"/><linearGradient id="未命名的渐变_34-103" x1="12.32" y1="124.52" x2="1294.86" y2="124.52" xlink:href="#未命名的渐变_34"/><linearGradient id="未命名的渐变_34-104" x1="12.32" y1="125.64" x2="1294.86" y2="125.64" xlink:href="#未命名的渐变_34"/><linearGradient id="未命名的渐变_34-105" x1="12.32" y1="126.75" x2="1294.86" y2="126.75" xlink:href="#未命名的渐变_34"/><linearGradient id="未命名的渐变_34-106" x1="12.32" y1="127.86" x2="1294.86" y2="127.86" xlink:href="#未命名的渐变_34"/><linearGradient id="未命名的渐变_34-107" x1="12.32" y1="128.98" x2="1294.86" y2="128.98" xlink:href="#未命名的渐变_34"/><linearGradient id="未命名的渐变_34-108" x1="12.32" y1="130.09" x2="1294.86" y2="130.09" xlink:href="#未命名的渐变_34"/><linearGradient id="未命名的渐变_34-109" x1="12.32" y1="131.21" x2="1294.86" y2="131.21" xlink:href="#未命名的渐变_34"/><linearGradient id="未命名的渐变_34-110" x1="12.32" y1="132.32" x2="1294.86" y2="132.32" xlink:href="#未命名的渐变_34"/><linearGradient id="未命名的渐变_34-111" x1="12.32" y1="133.43" x2="1294.86" y2="133.43" xlink:href="#未命名的渐变_34"/><linearGradient id="未命名的渐变_34-112" x1="12.32" y1="134.55" x2="1294.86" y2="134.55" xlink:href="#未命名的渐变_34"/><linearGradient id="未命名的渐变_34-113" x1="12.32" y1="135.66" x2="1294.86" y2="135.66" xlink:href="#未命名的渐变_34"/><linearGradient id="未命名的渐变_34-114" x1="12.32" y1="136.78" x2="1294.86" y2="136.78" xlink:href="#未命名的渐变_34"/><linearGradient id="未命名的渐变_34-115" x1="12.32" y1="137.89" x2="1294.86" y2="137.89" xlink:href="#未命名的渐变_34"/><linearGradient id="未命名的渐变_34-116" x1="12.32" y1="139" x2="1294.86" y2="139" xlink:href="#未命名的渐变_34"/><linearGradient id="未命名的渐变_34-117" x1="12.32" y1="140.12" x2="1294.86" y2="140.12" xlink:href="#未命名的渐变_34"/><linearGradient id="未命名的渐变_34-118" x1="12.32" y1="141.23" x2="1294.86" y2="141.23" xlink:href="#未命名的渐变_34"/><linearGradient id="未命名的渐变_34-119" x1="12.32" y1="142.35" x2="1294.86" y2="142.35" xlink:href="#未命名的渐变_34"/><linearGradient id="未命名的渐变_34-120" x1="12.32" y1="143.46" x2="1294.86" y2="143.46" xlink:href="#未命名的渐变_34"/><linearGradient id="未命名的渐变_34-121" x1="12.32" y1="144.57" x2="1294.86" y2="144.57" xlink:href="#未命名的渐变_34"/><linearGradient id="未命名的渐变_34-122" x1="12.32" y1="145.69" x2="1294.86" y2="145.69" xlink:href="#未命名的渐变_34"/><linearGradient id="未命名的渐变_34-123" x1="12.32" y1="146.8" x2="1294.86" y2="146.8" xlink:href="#未命名的渐变_34"/><linearGradient id="未命名的渐变_34-124" x1="12.32" y1="147.92" x2="1294.86" y2="147.92" xlink:href="#未命名的渐变_34"/><linearGradient id="未命名的渐变_34-125" x1="12.32" y1="149.03" x2="1294.86" y2="149.03" xlink:href="#未命名的渐变_34"/><linearGradient id="未命名的渐变_34-126" x1="12.32" y1="150.14" x2="1294.86" y2="150.14" xlink:href="#未命名的渐变_34"/><linearGradient id="未命名的渐变_34-127" x1="12.32" y1="151.26" x2="1294.86" y2="151.26" xlink:href="#未命名的渐变_34"/><linearGradient id="未命名的渐变_34-128" x1="12.32" y1="152.37" x2="1294.86" y2="152.37" xlink:href="#未命名的渐变_34"/><linearGradient id="未命名的渐变_34-129" x1="12.32" y1="153.49" x2="1294.86" y2="153.49" xlink:href="#未命名的渐变_34"/><linearGradient id="未命名的渐变_34-130" x1="12.32" y1="154.6" x2="1294.86" y2="154.6" xlink:href="#未命名的渐变_34"/><linearGradient id="未命名的渐变_34-131" x1="12.32" y1="155.71" x2="1294.86" y2="155.71" xlink:href="#未命名的渐变_34"/><linearGradient id="未命名的渐变_34-132" x1="12.32" y1="156.83" x2="1294.86" y2="156.83" xlink:href="#未命名的渐变_34"/><linearGradient id="未命名的渐变_34-133" x1="12.32" y1="157.94" x2="1294.86" y2="157.94" xlink:href="#未命名的渐变_34"/><linearGradient id="未命名的渐变_34-134" x1="12.32" y1="159.06" x2="1294.86" y2="159.06" xlink:href="#未命名的渐变_34"/><linearGradient id="未命名的渐变_34-135" x1="12.32" y1="160.17" x2="1294.86" y2="160.17" xlink:href="#未命名的渐变_34"/><linearGradient id="未命名的渐变_34-136" x1="12.32" y1="161.28" x2="1294.86" y2="161.28" xlink:href="#未命名的渐变_34"/><linearGradient id="未命名的渐变_34-137" x1="12.32" y1="162.4" x2="1294.86" y2="162.4" xlink:href="#未命名的渐变_34"/><linearGradient id="未命名的渐变_34-138" x1="12.32" y1="163.51" x2="1294.86" y2="163.51" xlink:href="#未命名的渐变_34"/><linearGradient id="未命名的渐变_34-139" x1="12.32" y1="164.63" x2="1294.86" y2="164.63" xlink:href="#未命名的渐变_34"/><linearGradient id="未命名的渐变_34-140" x1="12.32" y1="165.74" x2="1294.86" y2="165.74" xlink:href="#未命名的渐变_34"/><linearGradient id="未命名的渐变_34-141" x1="12.32" y1="166.85" x2="1294.86" y2="166.85" xlink:href="#未命名的渐变_34"/><linearGradient id="未命名的渐变_34-142" x1="12.32" y1="167.97" x2="1294.86" y2="167.97" xlink:href="#未命名的渐变_34"/><linearGradient id="未命名的渐变_34-143" x1="12.32" y1="169.08" x2="1294.86" y2="169.08" xlink:href="#未命名的渐变_34"/><linearGradient id="未命名的渐变_34-144" x1="12.32" y1="170.2" x2="1294.86" y2="170.2" xlink:href="#未命名的渐变_34"/><linearGradient id="未命名的渐变_34-145" x1="12.32" y1="171.31" x2="1294.86" y2="171.31" xlink:href="#未命名的渐变_34"/><linearGradient id="未命名的渐变_34-146" x1="12.32" y1="172.42" x2="1294.86" y2="172.42" xlink:href="#未命名的渐变_34"/><linearGradient id="未命名的渐变_34-147" x1="12.32" y1="173.54" x2="1294.86" y2="173.54" xlink:href="#未命名的渐变_34"/><linearGradient id="未命名的渐变_34-148" x1="12.32" y1="174.65" x2="1294.86" y2="174.65" xlink:href="#未命名的渐变_34"/><linearGradient id="未命名的渐变_34-149" x1="12.32" y1="175.77" x2="1294.86" y2="175.77" xlink:href="#未命名的渐变_34"/><linearGradient id="未命名的渐变_34-150" x1="12.32" y1="176.88" x2="1294.86" y2="176.88" xlink:href="#未命名的渐变_34"/><linearGradient id="未命名的渐变_34-151" x1="12.32" y1="177.99" x2="1294.86" y2="177.99" xlink:href="#未命名的渐变_34"/><linearGradient id="未命名的渐变_34-152" x1="12.32" y1="179.11" x2="1294.86" y2="179.11" xlink:href="#未命名的渐变_34"/><linearGradient id="未命名的渐变_119" x1="367.97" y1="177.32" x2="367.97" y2="13.58" gradientUnits="userSpaceOnUse"><stop offset="0" stop-color="#00dcff" stop-opacity="0"/><stop offset="0.06" stop-color="#00dcff" stop-opacity="0.09"/><stop offset="0.19" stop-color="#00dbff" stop-opacity="0.33"/><stop offset="0.37" stop-color="#00d9ff" stop-opacity="0.7"/><stop offset="0.5" stop-color="#00d8ff"/><stop offset="0.57" stop-color="#00d8ff" stop-opacity="0.89"/><stop offset="0.71" stop-color="#00daff" stop-opacity="0.62"/><stop offset="0.91" stop-color="#00dbff" stop-opacity="0.2"/><stop offset="1" stop-color="#00dcff" stop-opacity="0"/></linearGradient></defs><g class="cls-1"><g id="图层_2" data-name="图层 2"><g id="图层_2-2" data-name="图层 2"><rect class="cls-2" x="12.32" y="10.9" width="1282.54" height="168.21"/><g class="cls-3"><line class="cls-4" x1="12.32" y1="10.9" x2="1294.86" y2="10.9"/><line class="cls-5" x1="12.32" y1="12.01" x2="1294.86" y2="12.01"/><line class="cls-6" x1="12.32" y1="13.12" x2="1294.86" y2="13.12"/><line class="cls-7" x1="12.32" y1="14.24" x2="1294.86" y2="14.24"/><line class="cls-8" x1="12.32" y1="15.35" x2="1294.86" y2="15.35"/><line class="cls-9" x1="12.32" y1="16.47" x2="1294.86" y2="16.47"/><line class="cls-10" x1="12.32" y1="17.58" x2="1294.86" y2="17.58"/><line class="cls-11" x1="12.32" y1="18.69" x2="1294.86" y2="18.69"/><line class="cls-12" x1="12.32" y1="19.81" x2="1294.86" y2="19.81"/><line class="cls-13" x1="12.32" y1="20.92" x2="1294.86" y2="20.92"/><line class="cls-14" x1="12.32" y1="22.04" x2="1294.86" y2="22.04"/><line class="cls-15" x1="12.32" y1="23.15" x2="1294.86" y2="23.15"/><line class="cls-16" x1="12.32" y1="24.26" x2="1294.86" y2="24.26"/><line class="cls-17" x1="12.32" y1="25.38" x2="1294.86" y2="25.38"/><line class="cls-18" x1="12.32" y1="26.49" x2="1294.86" y2="26.49"/><line class="cls-19" x1="12.32" y1="27.61" x2="1294.86" y2="27.61"/><line class="cls-20" x1="12.32" y1="28.72" x2="1294.86" y2="28.72"/><line class="cls-21" x1="12.32" y1="29.83" x2="1294.86" y2="29.83"/><line class="cls-22" x1="12.32" y1="30.95" x2="1294.86" y2="30.95"/><line class="cls-23" x1="12.32" y1="32.06" x2="1294.86" y2="32.06"/><line class="cls-24" x1="12.32" y1="33.18" x2="1294.86" y2="33.18"/><line class="cls-25" x1="12.32" y1="34.29" x2="1294.86" y2="34.29"/><line class="cls-26" x1="12.32" y1="35.4" x2="1294.86" y2="35.4"/><line class="cls-27" x1="12.32" y1="36.52" x2="1294.86" y2="36.52"/><line class="cls-28" x1="12.32" y1="37.63" x2="1294.86" y2="37.63"/><line class="cls-29" x1="12.32" y1="38.75" x2="1294.86" y2="38.75"/><line class="cls-30" x1="12.32" y1="39.86" x2="1294.86" y2="39.86"/><line class="cls-31" x1="12.32" y1="40.97" x2="1294.86" y2="40.97"/><line class="cls-32" x1="12.32" y1="42.09" x2="1294.86" y2="42.09"/><line class="cls-33" x1="12.32" y1="43.2" x2="1294.86" y2="43.2"/><line class="cls-34" x1="12.32" y1="44.32" x2="1294.86" y2="44.32"/><line class="cls-35" x1="12.32" y1="45.43" x2="1294.86" y2="45.43"/><line class="cls-36" x1="12.32" y1="46.54" x2="1294.86" y2="46.54"/><line class="cls-37" x1="12.32" y1="47.66" x2="1294.86" y2="47.66"/><line class="cls-38" x1="12.32" y1="48.77" x2="1294.86" y2="48.77"/><line class="cls-39" x1="12.32" y1="49.89" x2="1294.86" y2="49.89"/><line class="cls-40" x1="12.32" y1="51" x2="1294.86" y2="51"/><line class="cls-41" x1="12.32" y1="52.11" x2="1294.86" y2="52.11"/><line class="cls-42" x1="12.32" y1="53.23" x2="1294.86" y2="53.23"/><line class="cls-43" x1="12.32" y1="54.34" x2="1294.86" y2="54.34"/><line class="cls-44" x1="12.32" y1="55.46" x2="1294.86" y2="55.46"/><line class="cls-45" x1="12.32" y1="56.57" x2="1294.86" y2="56.57"/><line class="cls-46" x1="12.32" y1="57.68" x2="1294.86" y2="57.68"/><line class="cls-47" x1="12.32" y1="58.8" x2="1294.86" y2="58.8"/><line class="cls-48" x1="12.32" y1="59.91" x2="1294.86" y2="59.91"/><line class="cls-49" x1="12.32" y1="61.03" x2="1294.86" y2="61.03"/><line class="cls-50" x1="12.32" y1="62.14" x2="1294.86" y2="62.14"/><line class="cls-51" x1="12.32" y1="63.25" x2="1294.86" y2="63.25"/><line class="cls-52" x1="12.32" y1="64.37" x2="1294.86" y2="64.37"/><line class="cls-53" x1="12.32" y1="65.48" x2="1294.86" y2="65.48"/><line class="cls-54" x1="12.32" y1="66.6" x2="1294.86" y2="66.6"/><line class="cls-55" x1="12.32" y1="67.71" x2="1294.86" y2="67.71"/><line class="cls-56" x1="12.32" y1="68.82" x2="1294.86" y2="68.82"/><line class="cls-57" x1="12.32" y1="69.94" x2="1294.86" y2="69.94"/><line class="cls-58" x1="12.32" y1="71.05" x2="1294.86" y2="71.05"/><line class="cls-59" x1="12.32" y1="72.17" x2="1294.86" y2="72.17"/><line class="cls-60" x1="12.32" y1="73.28" x2="1294.86" y2="73.28"/><line class="cls-61" x1="12.32" y1="74.39" x2="1294.86" y2="74.39"/><line class="cls-62" x1="12.32" y1="75.51" x2="1294.86" y2="75.51"/><line class="cls-63" x1="12.32" y1="76.62" x2="1294.86" y2="76.62"/><line class="cls-64" x1="12.32" y1="77.74" x2="1294.86" y2="77.74"/><line class="cls-65" x1="12.32" y1="78.85" x2="1294.86" y2="78.85"/><line class="cls-66" x1="12.32" y1="79.96" x2="1294.86" y2="79.96"/><line class="cls-67" x1="12.32" y1="81.08" x2="1294.86" y2="81.08"/><line class="cls-68" x1="12.32" y1="82.19" x2="1294.86" y2="82.19"/><line class="cls-69" x1="12.32" y1="83.31" x2="1294.86" y2="83.31"/><line class="cls-70" x1="12.32" y1="84.42" x2="1294.86" y2="84.42"/><line class="cls-71" x1="12.32" y1="85.53" x2="1294.86" y2="85.53"/><line class="cls-72" x1="12.32" y1="86.65" x2="1294.86" y2="86.65"/><line class="cls-73" x1="12.32" y1="87.76" x2="1294.86" y2="87.76"/><line class="cls-74" x1="12.32" y1="88.87" x2="1294.86" y2="88.87"/><line class="cls-75" x1="12.32" y1="89.99" x2="1294.86" y2="89.99"/><line class="cls-76" x1="12.32" y1="91.1" x2="1294.86" y2="91.1"/><line class="cls-77" x1="12.32" y1="92.22" x2="1294.86" y2="92.22"/><line class="cls-78" x1="12.32" y1="93.33" x2="1294.86" y2="93.33"/><line class="cls-79" x1="12.32" y1="94.44" x2="1294.86" y2="94.44"/><line class="cls-80" x1="12.32" y1="95.56" x2="1294.86" y2="95.56"/><line class="cls-81" x1="12.32" y1="96.67" x2="1294.86" y2="96.67"/><line class="cls-82" x1="12.32" y1="97.79" x2="1294.86" y2="97.79"/><line class="cls-83" x1="12.32" y1="98.9" x2="1294.86" y2="98.9"/><line class="cls-84" x1="12.32" y1="100.01" x2="1294.86" y2="100.01"/><line class="cls-85" x1="12.32" y1="101.13" x2="1294.86" y2="101.13"/><line class="cls-86" x1="12.32" y1="102.24" x2="1294.86" y2="102.24"/><line class="cls-87" x1="12.32" y1="103.36" x2="1294.86" y2="103.36"/><line class="cls-88" x1="12.32" y1="104.47" x2="1294.86" y2="104.47"/><line class="cls-89" x1="12.32" y1="105.58" x2="1294.86" y2="105.58"/><line class="cls-90" x1="12.32" y1="106.7" x2="1294.86" y2="106.7"/><line class="cls-91" x1="12.32" y1="107.81" x2="1294.86" y2="107.81"/><line class="cls-92" x1="12.32" y1="108.93" x2="1294.86" y2="108.93"/><line class="cls-93" x1="12.32" y1="110.04" x2="1294.86" y2="110.04"/><line class="cls-94" x1="12.32" y1="111.15" x2="1294.86" y2="111.15"/><line class="cls-95" x1="12.32" y1="112.27" x2="1294.86" y2="112.27"/><line class="cls-96" x1="12.32" y1="113.38" x2="1294.86" y2="113.38"/><line class="cls-97" x1="12.32" y1="114.5" x2="1294.86" y2="114.5"/><line class="cls-98" x1="12.32" y1="115.61" x2="1294.86" y2="115.61"/><line class="cls-99" x1="12.32" y1="116.72" x2="1294.86" y2="116.72"/><line class="cls-100" x1="12.32" y1="117.84" x2="1294.86" y2="117.84"/><line class="cls-101" x1="12.32" y1="118.95" x2="1294.86" y2="118.95"/><line class="cls-102" x1="12.32" y1="120.07" x2="1294.86" y2="120.07"/><line class="cls-103" x1="12.32" y1="121.18" x2="1294.86" y2="121.18"/><line class="cls-104" x1="12.32" y1="122.29" x2="1294.86" y2="122.29"/><line class="cls-105" x1="12.32" y1="123.41" x2="1294.86" y2="123.41"/><line class="cls-106" x1="12.32" y1="124.52" x2="1294.86" y2="124.52"/><line class="cls-107" x1="12.32" y1="125.64" x2="1294.86" y2="125.64"/><line class="cls-108" x1="12.32" y1="126.75" x2="1294.86" y2="126.75"/><line class="cls-109" x1="12.32" y1="127.86" x2="1294.86" y2="127.86"/><line class="cls-110" x1="12.32" y1="128.98" x2="1294.86" y2="128.98"/><line class="cls-111" x1="12.32" y1="130.09" x2="1294.86" y2="130.09"/><line class="cls-112" x1="12.32" y1="131.21" x2="1294.86" y2="131.21"/><line class="cls-113" x1="12.32" y1="132.32" x2="1294.86" y2="132.32"/><line class="cls-114" x1="12.32" y1="133.43" x2="1294.86" y2="133.43"/><line class="cls-115" x1="12.32" y1="134.55" x2="1294.86" y2="134.55"/><line class="cls-116" x1="12.32" y1="135.66" x2="1294.86" y2="135.66"/><line class="cls-117" x1="12.32" y1="136.78" x2="1294.86" y2="136.78"/><line class="cls-118" x1="12.32" y1="137.89" x2="1294.86" y2="137.89"/><line class="cls-119" x1="12.32" y1="139" x2="1294.86" y2="139"/><line class="cls-120" x1="12.32" y1="140.12" x2="1294.86" y2="140.12"/><line class="cls-121" x1="12.32" y1="141.23" x2="1294.86" y2="141.23"/><line class="cls-122" x1="12.32" y1="142.35" x2="1294.86" y2="142.35"/><line class="cls-123" x1="12.32" y1="143.46" x2="1294.86" y2="143.46"/><line class="cls-124" x1="12.32" y1="144.57" x2="1294.86" y2="144.57"/><line class="cls-125" x1="12.32" y1="145.69" x2="1294.86" y2="145.69"/><line class="cls-126" x1="12.32" y1="146.8" x2="1294.86" y2="146.8"/><line class="cls-127" x1="12.32" y1="147.92" x2="1294.86" y2="147.92"/><line class="cls-128" x1="12.32" y1="149.03" x2="1294.86" y2="149.03"/><line class="cls-129" x1="12.32" y1="150.14" x2="1294.86" y2="150.14"/><line class="cls-130" x1="12.32" y1="151.26" x2="1294.86" y2="151.26"/><line class="cls-131" x1="12.32" y1="152.37" x2="1294.86" y2="152.37"/><line class="cls-132" x1="12.32" y1="153.49" x2="1294.86" y2="153.49"/><line class="cls-133" x1="12.32" y1="154.6" x2="1294.86" y2="154.6"/><line class="cls-134" x1="12.32" y1="155.71" x2="1294.86" y2="155.71"/><line class="cls-135" x1="12.32" y1="156.83" x2="1294.86" y2="156.83"/><line class="cls-136" x1="12.32" y1="157.94" x2="1294.86" y2="157.94"/><line class="cls-137" x1="12.32" y1="159.06" x2="1294.86" y2="159.06"/><line class="cls-138" x1="12.32" y1="160.17" x2="1294.86" y2="160.17"/><line class="cls-139" x1="12.32" y1="161.28" x2="1294.86" y2="161.28"/><line class="cls-140" x1="12.32" y1="162.4" x2="1294.86" y2="162.4"/><line class="cls-141" x1="12.32" y1="163.51" x2="1294.86" y2="163.51"/><line class="cls-142" x1="12.32" y1="164.63" x2="1294.86" y2="164.63"/><line class="cls-143" x1="12.32" y1="165.74" x2="1294.86" y2="165.74"/><line class="cls-144" x1="12.32" y1="166.85" x2="1294.86" y2="166.85"/><line class="cls-145" x1="12.32" y1="167.97" x2="1294.86" y2="167.97"/><line class="cls-146" x1="12.32" y1="169.08" x2="1294.86" y2="169.08"/><line class="cls-147" x1="12.32" y1="170.2" x2="1294.86" y2="170.2"/><line class="cls-148" x1="12.32" y1="171.31" x2="1294.86" y2="171.31"/><line class="cls-149" x1="12.32" y1="172.42" x2="1294.86" y2="172.42"/><line class="cls-150" x1="12.32" y1="173.54" x2="1294.86" y2="173.54"/><line class="cls-151" x1="12.32" y1="174.65" x2="1294.86" y2="174.65"/><line class="cls-152" x1="12.32" y1="175.77" x2="1294.86" y2="175.77"/><line class="cls-153" x1="12.32" y1="176.88" x2="1294.86" y2="176.88"/><line class="cls-154" x1="12.32" y1="177.99" x2="1294.86" y2="177.99"/><line class="cls-155" x1="12.32" y1="179.11" x2="1294.86" y2="179.11"/></g><polyline class="cls-156" points="0.45 133.52 0.45 0.45 31.89 0.45"/><polyline class="cls-156" points="31.89 189.55 0.45 189.55 0.45 147.04"/><polyline class="cls-156" points="1306.73 117.26 1306.73 189.55 1262.49 189.55"/><polyline class="cls-156" points="1262.49 0.45 1306.73 0.45 1306.73 38.35"/><line class="cls-156" x1="1306.73" y1="58.73" x2="1306.73" y2="64.14"/><line class="cls-157" x1="1306.73" y1="72.77" x2="1306.73" y2="85.72"/><line class="cls-156" x1="1306.73" y1="90.03" x2="1306.73" y2="95.45"/><line class="cls-158" x1="367.97" y1="13.58" x2="367.97" y2="177.32"/></g></g></g></svg>