<svg xmlns="http://www.w3.org/2000/svg" xmlns:xlink="http://www.w3.org/1999/xlink" viewBox="0 0 180.95 80.89">
  <defs>
    <style>.cls-1{isolation:isolate;}.cls-2,.cls-26,.cls-28,.cls-29,.cls-30,.cls-31,.cls-32,.cls-33,.cls-34,.cls-35,.cls-36{fill:none;}.cls-2{stroke:#31756c;mix-blend-mode:color-dodge;}.cls-2,.cls-26{stroke-miterlimit:10;stroke-width:0.97px;}.cls-3{opacity:0.2;}.cls-10,.cls-11,.cls-12,.cls-13,.cls-14,.cls-15,.cls-16,.cls-17,.cls-18,.cls-19,.cls-20,.cls-21,.cls-22,.cls-23,.cls-24,.cls-25,.cls-4,.cls-5,.cls-6,.cls-7,.cls-8,.cls-9{fill:#00dcff;}.cls-5{opacity:0.95;}.cls-6{opacity:0.9;}.cls-7{opacity:0.86;}.cls-8{opacity:0.81;}.cls-9{opacity:0.76;}.cls-10{opacity:0.71;}.cls-11{opacity:0.67;}.cls-12{opacity:0.62;}.cls-13{opacity:0.57;}.cls-14{opacity:0.52;}.cls-15{opacity:0.48;}.cls-16{opacity:0.43;}.cls-17{opacity:0.38;}.cls-18{opacity:0.33;}.cls-19{opacity:0.29;}.cls-20{opacity:0.24;}.cls-21{opacity:0.19;}.cls-22{opacity:0.14;}.cls-23{opacity:0.1;}.cls-24{opacity:0.05;}.cls-25{opacity:0;}.cls-26{stroke:#5cdaff;}.cls-27{fill:url(#未命名的渐变_16);}.cls-28,.cls-29,.cls-30,.cls-31,.cls-32,.cls-33,.cls-34,.cls-35,.cls-36{stroke-linecap:round;stroke-linejoin:round;stroke-width:1.3px;}.cls-28{stroke:url(#新建渐变色板_1);}.cls-29{stroke:url(#新建渐变色板_1-2);}.cls-30{stroke:url(#新建渐变色板_1-3);}.cls-31{stroke:url(#新建渐变色板_1-4);}.cls-32{stroke:url(#新建渐变色板_1-5);}.cls-33{stroke:url(#新建渐变色板_1-6);}.cls-34{stroke:url(#新建渐变色板_1-7);}.cls-35{stroke:url(#新建渐变色板_1-8);}.cls-36{stroke:url(#新建渐变色板_1-9);}</style>
    <linearGradient id="未命名的渐变_16" x1="77.05" y1="5.71" x2="99.37" y2="51.36" gradientUnits="userSpaceOnUse">
      <stop offset="0.37" stop-color="#fff" stop-opacity="0.05"/>
      <stop offset="0.62" stop-color="#fff" stop-opacity="0.07"/>
      <stop offset="0.96" stop-color="#fff" stop-opacity="0.14"/>
      <stop offset="1" stop-color="#fff" stop-opacity="0.15"/>
      <animate attributeName="x1" values="33;77.05;99.37;33" dur="5s" repeatCount="indefinite"></animate>
      <animate attributeName="y1" values="0;5.71;51.36;0" dur="5s" repeatCount="indefinite"></animate>
      <animate attributeName="x2" values="22.32;99.37;150;22.32" dur="5s" repeatCount="indefinite"></animate>
      <animate attributeName="y2" values="22.32;51.36;100;22.32" dur="5s" repeatCount="indefinite"></animate>
    </linearGradient>
    <linearGradient id="新建渐变色板_1" x1="72.9" y1="36.61" x2="84.35" y2="36.61" gradientUnits="userSpaceOnUse">
      <stop offset="0" stop-color="#00d7ff"/>
      <stop offset="0.09" stop-color="#0fd9ff"/>
      <stop offset="0.27" stop-color="#36dfff"/>
      <stop offset="0.52" stop-color="#75e9ff"/>
      <stop offset="0.83" stop-color="#cbf7ff"/>
      <stop offset="1" stop-color="#fff"/>
    </linearGradient>
    <linearGradient id="新建渐变色板_1-2" x1="83.05" y1="36.61" x2="94.5" y2="36.61" xlink:href="#新建渐变色板_1"/>
    <linearGradient id="新建渐变色板_1-3" x1="62.75" y1="44.99" x2="110.01" y2="44.99" xlink:href="#新建渐变色板_1"/>
    <linearGradient id="新建渐变色板_1-4" x1="93.2" y1="39.95" x2="95.89" y2="39.95" xlink:href="#新建渐变色板_1"/>
    <linearGradient id="新建渐变色板_1-5" x1="69.14" y1="47.96" x2="77.79" y2="47.96" xlink:href="#新建渐变色板_1"/>
    <linearGradient id="新建渐变色板_1-6" x1="81.39" y1="47.96" x2="90.04" y2="47.96" xlink:href="#新建渐变色板_1"/>
    <linearGradient id="新建渐变色板_1-7" x1="69.14" y1="61.12" x2="102.29" y2="61.12" xlink:href="#新建渐变色板_1"/>
    <linearGradient id="新建渐变色板_1-8" x1="94.59" y1="34.45" x2="118.19" y2="34.45" xlink:href="#新建渐变色板_1"/>
    <linearGradient id="新建渐变色板_1-9" x1="88.74" y1="36.61" x2="118.06" y2="36.61" xlink:href="#新建渐变色板_1"/>
  </defs>
  <g class="cls-1">
    <g id="图层_2" data-name="图层 2">
      <g id="图层_2-2" data-name="图层 2">
        <path class="cls-2" d="M.48,80.41h180V.48H.48Z"/>
        <g class="cls-3">
          <rect class="cls-4" x="4.24" y="3.06" width="172.47" height="74.77"/>
          <rect class="cls-5" x="4.81" y="3.45" width="169.98" height="73.99"/>
          <rect class="cls-6" x="5.39" y="3.84" width="167.48" height="73.21"/>
          <rect class="cls-7" x="5.96" y="4.23" width="164.99" height="72.43"/>
          <rect class="cls-8" x="6.53" y="4.62" width="162.5" height="71.64"/>
          <rect class="cls-9" x="7.1" y="5.02" width="160.01" height="70.86"/>
          <rect class="cls-10" x="7.67" y="5.41" width="157.52" height="70.08"/>
          <rect class="cls-11" x="8.24" y="5.8" width="155.02" height="69.3"/>
          <rect class="cls-12" x="8.81" y="6.19" width="152.53" height="68.51"/>
          <rect class="cls-13" x="9.38" y="6.58" width="150.04" height="67.73"/>
          <rect class="cls-14" x="9.95" y="6.97" width="147.55" height="66.95"/>
          <rect class="cls-15" x="10.52" y="7.36" width="145.06" height="66.17"/>
          <rect class="cls-16" x="11.1" y="7.75" width="142.57" height="65.38"/>
          <rect class="cls-17" x="11.67" y="8.15" width="140.07" height="64.6"/>
          <rect class="cls-18" x="12.24" y="8.54" width="137.58" height="63.82"/>
          <rect class="cls-19" x="12.81" y="8.93" width="135.09" height="63.04"/>
          <rect class="cls-20" x="13.38" y="9.32" width="132.6" height="62.25"/>
          <rect class="cls-21" x="13.95" y="9.71" width="130.11" height="61.47"/>
          <rect class="cls-22" x="14.52" y="10.1" width="127.62" height="60.69"/>
          <rect class="cls-23" x="15.09" y="10.49" width="125.12" height="59.91"/>
          <rect class="cls-24" x="15.66" y="10.88" width="122.63" height="59.12"/>
          <rect class="cls-25" x="16.23" y="11.28" width="120.14" height="58.34"/>
        </g>
        <polyline class="cls-26" points="87.12 80.41 180.47 80.41 180.47 71.2"/>
        <polyline class="cls-26" points="28.27 0.48 0.48 0.48 0.48 14.82"/>
        <polygon class="cls-27" points="4.24 3.06 4.24 63.29 176.71 21.2 176.71 3.06 4.24 3.06"/>
        <polyline class="cls-28" points="73.55 40.49 83.7 32.73 83.7 40.49"/>
        <polyline class="cls-29" points="83.7 40.49 93.84 32.73 93.84 40.49"/>
        <polyline class="cls-30" points="109.36 49.81 109.36 69.11 63.4 69.11 63.4 20.87 73.55 20.87 73.55 40.49"/>
        <line class="cls-31" x1="93.85" y1="40.49" x2="95.24" y2="39.42"/>
        <line class="cls-32" x1="69.79" y1="47.96" x2="77.14" y2="47.96"/>
        <line class="cls-33" x1="82.04" y1="47.96" x2="89.39" y2="47.96"/>
        <polyline class="cls-34" points="96.46 53.14 69.79 53.14 69.79 69.11 101.64 69.11 101.64 54.27"/>
        <path class="cls-35" d="M117.41,14.64s-5.24,9-14.33,12.47S94.4,47.59,96.47,52.52s15.75-1.07,18.8-11.64S117.41,14.64,117.41,14.64Z"/>
        <path class="cls-36" d="M117.41,14.64s-2,19.53-10.92,30.4-17.1,13.54-17.1,13.54"/>
      </g>
    </g>
  </g>
</svg>