<svg xmlns="http://www.w3.org/2000/svg" xmlns:xlink="http://www.w3.org/1999/xlink" viewBox="0 0 258.54 146.06">
  <defs>
    <style>.cls-1{isolation:isolate;}.cls-2{opacity:0.2;}.cls-10,.cls-11,.cls-12,.cls-13,.cls-14,.cls-15,.cls-16,.cls-17,.cls-18,.cls-19,.cls-20,.cls-21,.cls-22,.cls-23,.cls-24,.cls-3,.cls-4,.cls-5,.cls-6,.cls-7,.cls-8,.cls-9{fill:#00dcff;}.cls-4{opacity:0.95;}.cls-5{opacity:0.9;}.cls-6{opacity:0.86;}.cls-7{opacity:0.81;}.cls-8{opacity:0.76;}.cls-9{opacity:0.71;}.cls-10{opacity:0.67;}.cls-11{opacity:0.62;}.cls-12{opacity:0.57;}.cls-13{opacity:0.52;}.cls-14{opacity:0.48;}.cls-15{opacity:0.43;}.cls-16{opacity:0.38;}.cls-17{opacity:0.33;}.cls-18{opacity:0.29;}.cls-19{opacity:0.24;}.cls-20{opacity:0.19;}.cls-21{opacity:0.14;}.cls-22{opacity:0.1;}.cls-23{opacity:0.05;}.cls-24{opacity:0;}.cls-25,.cls-26{fill:none;stroke-miterlimit:10;}.cls-25{stroke:#5cdaff;stroke-width:1.04px;}.cls-26{stroke:#31756c;stroke-width:1.21px;mix-blend-mode:color-dodge;}.cls-27{fill:url(#未命名的渐变_16);}.cls-28{fill:#00d8ff;}</style>
    <linearGradient id="未命名的渐变_16" x1="97.78" y1="8.6" x2="128.48" y2="71.42" gradientUnits="userSpaceOnUse">
      <stop offset="0.37" stop-color="#fff" stop-opacity="0.05"/>
      <stop offset="0.62" stop-color="#fff" stop-opacity="0.07"/>
      <stop offset="0.96" stop-color="#fff" stop-opacity="0.14"/>
      <stop offset="1" stop-color="#fff" stop-opacity="0.15"/>
      <animate attributeName="x1" values="33;77.05;99.37;33" dur="5s" repeatCount="indefinite"></animate>
      <animate attributeName="y1" values="0;5.71;51.36;0" dur="5s" repeatCount="indefinite"></animate>
      <animate attributeName="x2" values="22.32;99.37;150;22.32" dur="5s" repeatCount="indefinite"></animate>
      <animate attributeName="y2" values="22.32;51.36;100;22.32" dur="5s" repeatCount="indefinite"></animate>
    </linearGradient>
  </defs>
  <g class="cls-1">
    <g id="图层_2" data-name="图层 2">
      <g id="图层_2-2" data-name="图层 2">
        <g class="cls-2">
          <rect class="cls-3" x="2.5" y="2.55" width="253.54" height="140.95"/>
          <rect class="cls-4" x="3.08" y="3.15" width="252.38" height="139.76"/>
          <rect class="cls-5" x="3.66" y="3.74" width="251.23" height="138.57"/>
          <rect class="cls-6" x="4.23" y="4.34" width="250.07" height="137.37"/>
          <rect class="cls-7" x="4.81" y="4.94" width="248.91" height="136.18"/>
          <rect class="cls-8" x="5.39" y="5.53" width="247.75" height="134.99"/>
          <rect class="cls-9" x="5.97" y="6.13" width="246.59" height="133.8"/>
          <rect class="cls-10" x="6.55" y="6.72" width="245.44" height="132.61"/>
          <rect class="cls-11" x="7.13" y="7.32" width="244.28" height="131.41"/>
          <rect class="cls-12" x="7.71" y="7.92" width="243.12" height="130.22"/>
          <rect class="cls-13" x="8.29" y="8.51" width="241.96" height="129.03"/>
          <rect class="cls-14" x="8.87" y="9.11" width="240.81" height="127.84"/>
          <rect class="cls-15" x="9.44" y="9.7" width="239.65" height="126.65"/>
          <rect class="cls-16" x="10.02" y="10.3" width="238.49" height="125.45"/>
          <rect class="cls-17" x="10.6" y="10.9" width="237.33" height="124.26"/>
          <rect class="cls-18" x="11.18" y="11.49" width="236.17" height="123.07"/>
          <rect class="cls-19" x="11.76" y="12.09" width="235.02" height="121.88"/>
          <rect class="cls-20" x="12.34" y="12.68" width="233.86" height="120.69"/>
          <rect class="cls-21" x="12.92" y="13.28" width="232.7" height="119.49"/>
          <rect class="cls-22" x="13.5" y="13.88" width="231.54" height="118.3"/>
          <rect class="cls-23" x="14.07" y="14.47" width="230.39" height="117.11"/>
          <rect class="cls-24" x="14.65" y="15.07" width="229.23" height="115.92"/>
        </g>
        <polyline class="cls-25" points="167.91 145.15 257.64 145.15 257.64 131.12"/>
        <path class="cls-26" d="M.61,145.45H257.93V.61H.61Z"/>
        <polyline class="cls-25" points="29.07 0.9 0.9 0.9 0.9 22.75"/>
        <polygon class="cls-27" points="2.5 2.55 2.5 143.5 256.04 2.55 2.5 2.55"/>
        <path class="cls-28" d="M53.26,62.23a22.24,22.24,0,0,1-4.68,6.67,14,14,0,0,0-1.51-1.17,17.22,17.22,0,0,0,4.44-6Zm6-2.38v7.59c0,1.06-.24,1.58-1,1.87a11,11,0,0,1-3.68.36,6.11,6.11,0,0,0-.67-1.82c1.39.05,2.67.05,3,0s.48-.12.48-.45V59.85H52.18a5,5,0,0,0-2.57.37,15.68,15.68,0,0,0-.67-1.85c.55-.15,1.06-.82,1.8-1.88A39.11,39.11,0,0,0,53,52.82H47.21v-1.7h6.67c.56-1.06,1.06-2.19,1.52-3.29l1.84.79c-.36.82-.76,1.68-1.2,2.5H67.16v1.7h-12a52.25,52.25,0,0,1-3.33,5.31h5.66V54.62h1.78v3.51h6.93l0,1.72Zm3.43,1.88a35.66,35.66,0,0,1,5.09,6l-1.61.86a35.53,35.53,0,0,0-5-6.12Z"/>
        <path class="cls-28" d="M77,48.45h1.82V69.6H77V64.3c-2.14.93-4.32,1.82-6,2.54l-.82-1.78c1.76-.57,4.3-1.56,6.87-2.54V55.8H70.88V54.05H77ZM89.31,67.54c1.13,0,1.3-1,1.46-5a5.52,5.52,0,0,0,1.73.84c-.22,4.37-.72,5.88-3,5.88H85.71c-2.26,0-2.91-.7-2.91-3.22V48.45h1.83v8a38.5,38.5,0,0,0,5.93-4.34L92,53.57a53.91,53.91,0,0,1-7.37,4.7V66.1c0,1.22.19,1.44,1.25,1.44Z"/>
        <path class="cls-28" d="M116.09,66.74v1.73H94.44V66.74h6.84V51.17H95.09V49.41h20.45v1.76h-6.6V66.74ZM96.92,54.57a74.86,74.86,0,0,1,3.33,7.9l-1.68.7a61.74,61.74,0,0,0-3.21-8Zm6.26,12.17H107V51.17h-3.86Zm6.5-4.29a47.86,47.86,0,0,0,3.63-7.85l1.7.57a60.36,60.36,0,0,1-3.77,7.88Z"/>
        <path class="cls-28" d="M136.69,57s0,.63-.05.87c-.34,7.27-.65,10-1.47,10.92a2.33,2.33,0,0,1-1.87.84,28.94,28.94,0,0,1-3.77,0,3.84,3.84,0,0,0-.57-1.77c1.56.14,3,.16,3.57.16a1.36,1.36,0,0,0,1-.31c.59-.6.93-2.95,1.22-8.9h-6.51c-.64,4.73-2.23,9-8.25,11.23a6.28,6.28,0,0,0-1.13-1.51c5.64-1.9,7-5.69,7.51-9.72H121.8V57.07a20.24,20.24,0,0,1-1.87,1.75,14.81,14.81,0,0,0-1.53-1.37,20.18,20.18,0,0,0,6.67-9L127,49a26.18,26.18,0,0,1-5.06,8Zm-3.32-8.59a25.28,25.28,0,0,0,6.87,8.71,7.67,7.67,0,0,0-1.44,1.52,32.7,32.7,0,0,1-7-9.56Z"/>
        <path class="cls-28" d="M147.05,60.91v6.75c0,1-.21,1.51-.79,1.82a6.15,6.15,0,0,1-2.86.36,5.67,5.67,0,0,0-.55-1.78c1,0,1.8,0,2.07,0s.38-.1.38-.41V61.51l-2.71.87-.36-1.73,3.07-.89V54.43h-2.76V52.77h2.76V48h1.75v4.8h2.28v1.66h-2.28v4.78l2.4-.77.24,1.63Zm15.89-2.85a17.72,17.72,0,0,1-3.89,7,16.54,16.54,0,0,0,5.4,3.41A8.63,8.63,0,0,0,163.23,70a17.08,17.08,0,0,1-5.4-3.74,19.7,19.7,0,0,1-6.12,3.7,5.33,5.33,0,0,0-1-1.54,17.7,17.7,0,0,0,6-3.46,20.9,20.9,0,0,1-2.57-3.88A20.35,20.35,0,0,1,149.4,67a8.63,8.63,0,0,0-1.34-1.37c3.14-2.45,5.21-6,6.58-10.37h-1.8a4.8,4.8,0,0,0-2.26.31,16.59,16.59,0,0,0-.58-1.6c.32-.08.56-.39.8-.89a17.6,17.6,0,0,0,1.41-4.15l1.71.43a26.37,26.37,0,0,1-1.61,4.29h2.76a53.77,53.77,0,0,0,1.13-5.52l1.77.22c-.31,1.87-.67,3.62-1.08,5.3h7.18v1.61h-7.63c-.24.82-.53,1.63-.8,2.4h5.86l.29-.07Zm-8,1.29a20.81,20.81,0,0,0,2.93,4.44,15.05,15.05,0,0,0,2.86-4.58H155Zm7.16-6.7a32.52,32.52,0,0,0-2.69-2.95l1.15-.86a24.36,24.36,0,0,1,2.74,2.78Z"/>
        <path class="cls-28" d="M186.85,52.22V63.46H185V62.09h-6.89v7.77h-1.85V62.09h-6.86v1.48h-1.75V52.22h8.61V48h1.85v4.27Zm-10.57,8.11V54h-6.86v6.36Zm8.74,0V54h-6.89v6.36Z"/>
        <path class="cls-28" d="M194.31,56.73a49,49,0,0,1-2.11,9.41l-1.78-.74a38,38,0,0,0,2.16-9Zm3.89-2.13V66.43c0,1.11.28,1.32,1.65,1.32h4.59c1.48,0,1.7-.84,1.89-5a5.49,5.49,0,0,0,1.68.79c-.26,4.54-.81,5.86-3.48,5.86h-4.82c-2.59,0-3.31-.65-3.31-3V54.6Zm.5-5.81a44.49,44.49,0,0,1,6.46,5.3l-1.28,1.32A44.79,44.79,0,0,0,197.52,50Zm10.44,7a43.7,43.7,0,0,1,3.22,9l-1.75.7a44.13,44.13,0,0,0-3.12-9Z"/>
        <path class="cls-28" d="M47.64,91.53H66.89v1.53H47.64Z"/>
        <path class="cls-28" d="M74,86.65A28.6,28.6,0,0,0,75.44,84l1.48.86a47.48,47.48,0,0,1-4.84,7.4l4.32-.77a10.9,10.9,0,0,0,0,1.49c-5.45,1.1-6.26,1.34-6.69,1.6-.1-.36-.39-1.17-.58-1.63.5-.09,1-.69,1.73-1.56a37,37,0,0,0,2.25-3.22,14.37,14.37,0,0,0-3.57.7,15.9,15.9,0,0,0-.6-1.75c.43-.1.84-.65,1.32-1.47a35.5,35.5,0,0,0,3-6.72l1.73.77a38.07,38.07,0,0,1-3.7,7.2Zm-4.94,11c1.84-.44,4.53-1.23,7.22-2l.29,1.51-7.11,2.23Zm21.62-7a33.77,33.77,0,0,1-4.25,3.41,11,11,0,0,0,4.8,3.48A6.64,6.64,0,0,0,90.15,99,12.37,12.37,0,0,1,85,94.53v4.39c0,.91-.16,1.34-.77,1.61a7.88,7.88,0,0,1-2.88.31,6,6,0,0,0-.55-1.61c1,0,1.92,0,2.19,0s.36-.1.36-.36V95c-1.85,1.34-3.82,2.69-5.36,3.74l-1-1.37c1.61-.93,4-2.49,6.36-4V88.79H77.84V87.21h9.38c0-.7.1-1.49.12-2.26H79.08V83.53h8.33c0-.72.08-1.44.1-2.06H78.58V79.91h9.19l.24-.07,1.23.09c0,2.09-.17,5-.31,7.28h2v1.58H85v3.15c.2.4.44.81.65,1.17a33.85,33.85,0,0,0,3.63-3.24ZM81,93.83a15.69,15.69,0,0,0-3-3.14l1.2-.87a15.46,15.46,0,0,1,3,3.05Z"/>
        <path class="cls-28" d="M110.29,98.85c2.37,0,2.73-.68,3-3.82a5.59,5.59,0,0,0,1.7.65c-.4,3.72-1.12,4.8-4.72,4.8h-9.22c-3.77,0-4.95-.67-4.95-3.43V86.82A21.51,21.51,0,0,1,94,88.48a10.28,10.28,0,0,0-1-1.68,21.38,21.38,0,0,0,7.49-7.92l1.58.6c-.29.53-.57,1-.89,1.56h6.32l.36-.1,1.17.84A26.41,26.41,0,0,1,106,85.57h6.6v8.6h-1.75V93.11h-13v4c0,1.42.51,1.78,3.1,1.78Zm-10.21-16.2a26.51,26.51,0,0,1-2.59,2.92h6.34a18.56,18.56,0,0,0,2.52-2.92Zm-2.23,8.76h5.52V87.23H97.85Zm13-4.18H105.1v4.18h5.74Z"/>
        <path class="cls-28" d="M126.63,90.42c-.7-.6-2.47-1.87-3.67-2.69a10.19,10.19,0,0,1-4.78,3.87,4.38,4.38,0,0,0-1.13-1.23c3-1.2,4.32-2.78,4.83-4.24h-4.61V84.66h4.92a5.08,5.08,0,0,0,0-.86V82.41h-2a11.61,11.61,0,0,1-1.51,2.13,11.91,11.91,0,0,0-1.44-.86A11.48,11.48,0,0,0,120,78.9l1.61.31a16.18,16.18,0,0,1-.65,1.76h6.53v1.44h-3.53V83.8a5.08,5.08,0,0,1,0,.86h4.18v1.47h-4.44a3,3,0,0,1-.12.4c.94.51,3.69,2.19,4.37,2.67Zm-5.88.63h14.64v9.79h-1.8V100H122.5v.89h-1.75Zm1.75,1.46v2.26h11.09V92.51Zm11.09,6V96.16H122.5v2.38Zm3.84-17.65v8.33h-8.38V80.89Zm-1.75,1.61h-5v5.09h5Z"/>
        <path class="cls-28" d="M149,80.39A23,23,0,0,1,152,85.57l-1.55.7c-.15-.38-.32-.79-.53-1.27-6.56.48-7.37.6-7.9.79a11.62,11.62,0,0,0-.58-1.68,2.51,2.51,0,0,0,1.11-.94,20.19,20.19,0,0,0,2.49-4.27l1.83.58A28.25,28.25,0,0,1,144,84l5.26-.32A30.55,30.55,0,0,0,147.51,81Zm2,18.43c0,.92-.16,1.39-.84,1.68a8.82,8.82,0,0,1-3.19.32,6.66,6.66,0,0,0-.57-1.64,23.29,23.29,0,0,0,2.44,0c.34,0,.41-.07.41-.38V96h-5.06v4.87h-1.66V87.45H151ZM144.15,89v2h5.06V89Zm5.06,5.64V92.41h-5.06V94.6Zm6.84-5.16c-2.25,0-2.83-.55-2.83-2.5V79H155v4a42.86,42.86,0,0,0,5.57-2.26l1.2,1.3A53.35,53.35,0,0,1,155,84.49v2.43c0,.74.19.91,1.27.91H160c.91,0,1.08-.41,1.2-2.78a4.35,4.35,0,0,0,1.58.69c-.21,2.88-.74,3.7-2.64,3.7Zm4.11,9.65c1,0,1.17-.48,1.29-3.15a4.68,4.68,0,0,0,1.59.65c-.22,3.24-.75,4.08-2.74,4.08h-4.18c-2.3,0-2.9-.55-2.9-2.52v-8H155v3.77a27.18,27.18,0,0,0,5.84-2.5L162,92.7a31.79,31.79,0,0,1-7,2.67v2.78c0,.79.22.94,1.32.94Z"/>
        <path class="cls-28" d="M170.09,96.47c.53.24,1.06.74,2,1.3,1.61,1,3.63,1.17,6.27,1.17a85.18,85.18,0,0,0,8.78-.48,7.49,7.49,0,0,0-.57,2c-1.61.1-5.67.24-8.26.24-2.93,0-4.92-.29-6.6-1.32-1-.6-1.78-1.37-2.33-1.37-.79,0-2,1.42-3.17,3L165,99.33a12.24,12.24,0,0,1,3.38-2.79V89h-3.28V87.3h5Zm-.17-11.88c-.93-.84-2.83-2.21-4.22-3.22l1.18-1.1c1.36.91,3.31,2.23,4.27,3ZM173,96a.12.12,0,0,0,0,.07c-.1-.36-.41-1.27-.62-1.77.43-.1.81-.61,1.29-1.37a31.62,31.62,0,0,0,2.74-5.38h-4.87V85.91h15.26v1.68h-8.28A38.34,38.34,0,0,1,175,94l7.88-.6c-.77-1.37-1.64-2.81-2.43-4l1.47-.68c1.48,2.33,3.4,5.43,4.32,7.23l-1.56.84c-.24-.53-.58-1.15-1-1.82-8.93.79-10,.88-10.69,1.17Zm12.1-13.9h-12V80.46h12Z"/>
        <path class="cls-28" d="M196.8,91.5a12.27,12.27,0,0,0,0,1.47c-5.78,1.17-6.58,1.39-7.08,1.68a9.59,9.59,0,0,0-.53-1.56c.51-.1,1.08-.72,1.8-1.59a30.31,30.31,0,0,0,2.43-3.29c-3,.41-3.53.53-3.87.7a16,16,0,0,0-.53-1.63c.39-.1.8-.67,1.3-1.49A33.82,33.82,0,0,0,193.4,79l1.63.72A43.09,43.09,0,0,1,191.24,87l3.09-.34c.58-.91,1.11-1.85,1.59-2.78l1.44.84a53,53,0,0,1-5.21,7.56Zm-7.65,6.2c2-.41,5.06-1.13,8.06-1.8l.17,1.46c-2.78.74-5.71,1.46-7.9,2Zm21.72,1.46h-10v1.75h-1.68V87a23.49,23.49,0,0,1-1.61,2.09,7,7,0,0,0-.89-1.56,25.39,25.39,0,0,0,4.44-8.43l1.71.48a34.29,34.29,0,0,1-1.54,3.7h9.26V84.9h-4.17v3h3.57v1.63h-3.57v3.07H210v1.61h-3.62V97.5h4.51ZM204.68,84.9h-3.84v3h3.84Zm0,4.66h-3.84v3.07h3.84Zm-3.84,7.94h3.84V94.24h-3.84Zm4.58-14.4a17.51,17.51,0,0,0-1.61-3.41l1.49-.6A15.54,15.54,0,0,1,207,82.38Z"/>
      </g>
    </g>
  </g>
</svg>