<svg xmlns="http://www.w3.org/2000/svg" xmlns:xlink="http://www.w3.org/1999/xlink" viewBox="0 0 428.97 217.89">
  <defs>
    <style>.cls-1{fill:#fff;}.cls-2{fill:url(#未命名的渐变_4);}.cls-3{fill:url(#未命名的渐变_4-2);}.cls-4{fill:url(#未命名的渐变_4-3);}.cls-5{fill:url(#未命名的渐变_4-4);}.cls-6{fill:url(#未命名的渐变_4-5);}.cls-7{fill:url(#未命名的渐变_4-6);}.cls-8{fill:url(#未命名的渐变_4-7);}.cls-9{fill:url(#未命名的渐变_4-8);}.cls-10{fill:url(#未命名的渐变_4-9);}</style>
    <linearGradient id="未命名的渐变_4" x1="-145.21" y1="-103.77" x2="34.7" y2="-103.77" gradientTransform="matrix(0, -1, -1, 0, 40.74, 40.74)" gradientUnits="userSpaceOnUse">
      <stop offset="0" stop-color="#00dcff" stop-opacity="1">
        <animate attributeName="stop-opacity"
                 values="1;0.93;0.76;0.61;0.48;0.38;0.3;0.24;0.21;0.2;0.21;0.24;0.3;0.38;0.48;0.61;0.76;0.93;1"
                 dur="5s" repeatCount="indefinite"></animate>
      </stop>
      <stop offset="0.01" stop-color="#00dcff" stop-opacity="0.93">
        <animate attributeName="stop-opacity"
                 values="0.93;0.76;0.61;0.48;0.38;0.3;0.24;0.21;0.2;0.21;0.24;0.3;0.38;0.48;0.61;0.76;0.93;1;1"
                 dur="5s" repeatCount="indefinite"></animate>
      </stop>
      <stop offset="0.05" stop-color="#00dcff" stop-opacity="0.76">
        <animate attributeName="stop-opacity"
                 values="0.76;0.61;0.48;0.38;0.3;0.24;0.21;0.2;0.21;0.24;0.3;0.38;0.48;0.61;0.76;0.93;1;1;0.93"
                 dur="5s" repeatCount="indefinite"></animate>
      </stop>
      <stop offset="0.1" stop-color="#00dcff" stop-opacity="0.61">
        <animate attributeName="stop-opacity"
                 values="0.61;0.48;0.38;0.3;0.24;0.21;0.2;0.21;0.24;0.3;0.38;0.48;0.61;0.76;0.93;1;1;0.93;0.76"
                 dur="5s" repeatCount="indefinite"></animate>
      </stop>
      <stop offset="0.14" stop-color="#00dcff" stop-opacity="0.48">
        <animate attributeName="stop-opacity"
                 values="0.48;0.38;0.3;0.24;0.21;0.2;0.21;0.24;0.3;0.38;0.48;0.61;0.76;0.93;1;1;0.93;0.76;0.61"
                 dur="5s" repeatCount="indefinite"></animate>
      </stop>
      <stop offset="0.19" stop-color="#00dcff" stop-opacity="0.38">
        <animate attributeName="stop-opacity"
                 values="0.38;0.3;0.24;0.21;0.2;0.21;0.24;0.3;0.38;0.48;0.61;0.76;0.93;1;1;0.93;0.76;0.61;0.48"
                 dur="5s" repeatCount="indefinite"></animate>
      </stop>
      <stop offset="0.24" stop-color="#00dcff" stop-opacity="0.3">
        <animate attributeName="stop-opacity"
                 values="0.3;0.24;0.21;0.2;0.21;0.24;0.3;0.38;0.48;0.61;0.76;0.93;1;1;0.93;0.76;0.61;0.48;0.38"
                 dur="5s" repeatCount="indefinite"></animate>
      </stop>
      <stop offset="0.31" stop-color="#00dcff" stop-opacity="0.24">
        <animate attributeName="stop-opacity"
                 values="0.24;0.21;0.2;0.21;0.24;0.3;0.38;0.48;0.61;0.76;0.93;1;1;0.93;0.76;0.61;0.48;0.38;0.3"
                 dur="5s" repeatCount="indefinite"></animate>
      </stop>
      <stop offset="0.38" stop-color="#00dcff" stop-opacity="0.21">
        <animate attributeName="stop-opacity"
                 values="0.21;0.2;0.21;0.24;0.3;0.38;0.48;0.61;0.76;0.93;1;1;0.93;0.76;0.61;0.48;0.38;0.3;0.24"
                 dur="5s" repeatCount="indefinite"></animate>
      </stop>
      <stop offset="0.5" stop-color="#00dcff" stop-opacity="0.2">
        <animate attributeName="stop-opacity"
                 values="0.2;0.21;0.24;0.3;0.38;0.48;0.61;0.76;0.93;1;1;0.93;0.76;0.61;0.48;0.38;0.3;0.24;0.21"
                 dur="5s" repeatCount="indefinite"></animate>
      </stop>
      <stop offset="0.62" stop-color="#00dcff" stop-opacity="0.21">
        <animate attributeName="stop-opacity"
                 values="0.21;0.24;0.3;0.38;0.48;0.61;0.76;0.93;1;1;0.93;0.76;0.61;0.48;0.38;0.3;0.24;0.21;0.2"
                 dur="5s" repeatCount="indefinite"></animate>
      </stop>
      <stop offset="0.69" stop-color="#00dcff" stop-opacity="0.24">
        <animate attributeName="stop-opacity"
                 values="0.24;0.3;0.38;0.48;0.61;0.76;0.93;1;1;0.93;0.76;0.61;0.48;0.38;0.3;0.24;0.21;0.2;0.21"
                 dur="5s" repeatCount="indefinite"></animate>
      </stop>
      <stop offset="0.76" stop-color="#00dcff" stop-opacity="0.3">
        <animate attributeName="stop-opacity"
                 values="0.3;0.38;0.48;0.61;0.76;0.93;1;1;0.93;0.76;0.61;0.48;0.38;0.3;0.24;0.21;0.2;0.21;0.24"
                 dur="5s" repeatCount="indefinite"></animate>
      </stop>
      <stop offset="0.81" stop-color="#00dcff" stop-opacity="0.38">
        <animate attributeName="stop-opacity"
                 values="0.38;0.48;0.61;0.76;0.93;1;1;0.93;0.76;0.61;0.48;0.38;0.3;0.24;0.21;0.2;0.21;0.24;0.3"
                 dur="5s" repeatCount="indefinite"></animate>
      </stop>
      <stop offset="0.86" stop-color="#00dcff" stop-opacity="0.48">
        <animate attributeName="stop-opacity"
                 values="0.48;0.61;0.76;0.93;1;1;0.93;0.76;0.61;0.48;0.38;0.3;0.24;0.21;0.2;0.21;0.24;0.3;0.38"
                 dur="5s" repeatCount="indefinite"></animate>
      </stop>
      <stop offset="0.9" stop-color="#00dcff" stop-opacity="0.61">
        <animate attributeName="stop-opacity"
                 values="0.61;0.76;0.93;1;1;0.93;0.76;0.61;0.48;0.38;0.3;0.24;0.21;0.2;0.21;0.24;0.3;0.38;0.48"
                 dur="5s" repeatCount="indefinite"></animate>
      </stop>
      <stop offset="0.95" stop-color="#00dcff" stop-opacity="0.76">
        <animate attributeName="stop-opacity"
                 values="0.76;0.93;1;1;0.93;0.76;0.61;0.48;0.38;0.3;0.24;0.21;0.2;0.21;0.24;0.3;0.38;0.48;0.61"
                 dur="5s" repeatCount="indefinite"></animate>
      </stop>
      <stop offset="0.99" stop-color="#00dcff" stop-opacity="0.93">
        <animate attributeName="stop-opacity"
                 values="0.93;1;1;0.93;0.76;0.61;0.48;0.38;0.3;0.24;0.21;0.2;0.21;0.24;0.3;0.38;0.48;0.61;0.76"
                 dur="5s" repeatCount="indefinite"></animate>
      </stop>
      <stop offset="1" stop-color="#00dcff" stop-opacity="1">
        <animate attributeName="stop-opacity"
                 values="1;1;0.93;0.76;0.61;0.48;0.38;0.3;0.24;0.21;0.2;0.21;0.24;0.3;0.38;0.48;0.61;0.76;0.93"
                 dur="5s" repeatCount="indefinite"></animate>
      </stop>
    </linearGradient>
    <linearGradient id="未命名的渐变_4-2" x1="-145.21" y1="-58.65" x2="34.7" y2="-58.65" xlink:href="#未命名的渐变_4"/>
    <linearGradient id="未命名的渐变_4-3" x1="-145.21" y1="-329.37" x2="-19.22" y2="-329.37" xlink:href="#未命名的渐变_4"/>
    <linearGradient id="未命名的渐变_4-4" x1="-145.21" y1="-374.49" x2="-19.22" y2="-374.49" xlink:href="#未命名的渐变_4"/>
    <linearGradient id="未命名的渐变_4-5" x1="-145.2" y1="-239.13" x2="-1.24" y2="-239.13" xlink:href="#未命名的渐变_4"/>
    <linearGradient id="未命名的渐变_4-6" x1="-145.2" y1="-284.25" x2="-1.24" y2="-284.25" xlink:href="#未命名的渐变_4"/>
    <linearGradient id="未命名的渐变_4-7" x1="-145.21" y1="-194.01" x2="34.7" y2="-194.01" xlink:href="#未命名的渐变_4"/>
    <linearGradient id="未命名的渐变_4-8" x1="-145.21" y1="-148.89" x2="34.7" y2="-148.89" xlink:href="#未命名的渐变_4"/>
    <linearGradient id="未命名的渐变_4-9" x1="-145.21" y1="-13.53" x2="34.7" y2="-13.53" xlink:href="#未命名的渐变_4"/>
  </defs>
  <g id="图层_2" data-name="图层 2">
    <g id="图层_2-2" data-name="图层 2">
      <path class="cls-1" d="M22.26,185.13a5.81,5.81,0,0,1-.17,1.39,3.48,3.48,0,0,1-.56,1.18,2.69,2.69,0,0,1-1,.81,3.1,3.1,0,0,1-1.45.31,3.08,3.08,0,0,1-1.45-.31,2.69,2.69,0,0,1-1-.81,3.48,3.48,0,0,1-.56-1.18,5.81,5.81,0,0,1-.17-1.39v-3.08a5.79,5.79,0,0,1,.17-1.38,3.39,3.39,0,0,1,.56-1.18,2.81,2.81,0,0,1,1-.82,3.55,3.55,0,0,1,2.9,0,2.81,2.81,0,0,1,1,.82,3.39,3.39,0,0,1,.56,1.18,5.79,5.79,0,0,1,.17,1.38Zm-.92-3a4.52,4.52,0,0,0-.13-1.14,2.46,2.46,0,0,0-.41-.91,1.84,1.84,0,0,0-.7-.6,2.41,2.41,0,0,0-2,0,1.77,1.77,0,0,0-.7.6,2.62,2.62,0,0,0-.4.91,4.52,4.52,0,0,0-.13,1.14v3a4.57,4.57,0,0,0,.13,1.14,2.74,2.74,0,0,0,.4.9,1.83,1.83,0,0,0,.7.59,2.41,2.41,0,0,0,2,0,1.91,1.91,0,0,0,.7-.59,2.56,2.56,0,0,0,.41-.9,4.57,4.57,0,0,0,.13-1.14Z"/>
      <path class="cls-1" d="M26.81,180.82a1.62,1.62,0,0,1-.11.64,1.46,1.46,0,0,1-.31.49,1.35,1.35,0,0,1-.47.3,1.41,1.41,0,0,1-.59.11,1.46,1.46,0,0,1-.6-.11,1.35,1.35,0,0,1-.47-.3,1.46,1.46,0,0,1-.31-.49,1.62,1.62,0,0,1-.12-.64v-.92a1.61,1.61,0,0,1,.12-.63,1.33,1.33,0,0,1,.31-.48,1.4,1.4,0,0,1,.47-.32,1.64,1.64,0,0,1,.6-.11,1.59,1.59,0,0,1,.59.11,1.4,1.4,0,0,1,.47.32,1.33,1.33,0,0,1,.31.48,1.61,1.61,0,0,1,.11.63Zm-.67-.94a.89.89,0,0,0-.22-.66.76.76,0,0,0-.59-.24.81.81,0,0,0-.6.24.9.9,0,0,0-.23.66v1a.88.88,0,0,0,.23.64.81.81,0,0,0,.6.24.76.76,0,0,0,.59-.24.87.87,0,0,0,.22-.64Zm-.74,8.73a.34.34,0,0,1-.18.19.28.28,0,0,1-.25,0,.29.29,0,0,1-.2-.16.42.42,0,0,1,0-.27l3.58-9.8a.39.39,0,0,1,.18-.18.27.27,0,0,1,.26,0,.31.31,0,0,1,.19.18.31.31,0,0,1,0,.25Zm4.51-1.33a1.83,1.83,0,0,1-.11.64,1.35,1.35,0,0,1-.32.48,1.25,1.25,0,0,1-.47.31,1.66,1.66,0,0,1-1.19,0,1.38,1.38,0,0,1-.78-.79,1.62,1.62,0,0,1-.12-.64v-.92a1.62,1.62,0,0,1,.12-.64,1.31,1.31,0,0,1,.78-.79,1.44,1.44,0,0,1,.59-.11,1.46,1.46,0,0,1,.6.11,1.35,1.35,0,0,1,.47.3,1.49,1.49,0,0,1,.32.49,1.83,1.83,0,0,1,.11.64Zm-.66-1a.85.85,0,0,0-.23-.63.78.78,0,0,0-.61-.23.75.75,0,0,0-.58.23.85.85,0,0,0-.23.63v1a.89.89,0,0,0,.23.65.75.75,0,0,0,.58.23A.8.8,0,0,0,29,188a.89.89,0,0,0,.23-.65Z"/>
      <path class="cls-1" d="M14.22,152.57a.44.44,0,0,1-.13.32.42.42,0,0,1-.31.13H8.7a.45.45,0,0,1-.33-.12.48.48,0,0,1-.12-.33,3.53,3.53,0,0,1,.11-.88,3.94,3.94,0,0,1,.32-.76,3.84,3.84,0,0,1,.45-.66,5.83,5.83,0,0,1,.55-.56,7.07,7.07,0,0,1,.78-.65l.81-.6c.27-.2.53-.41.77-.61a4.84,4.84,0,0,0,.64-.64,3,3,0,0,0,.44-.74,2.15,2.15,0,0,0,.17-.85,2.63,2.63,0,0,0-.12-.8,1.79,1.79,0,0,0-.37-.66,1.68,1.68,0,0,0-.62-.45,2.31,2.31,0,0,0-.91-.16,4,4,0,0,0-.82.08,2.92,2.92,0,0,0-.65.24,2.18,2.18,0,0,0-.33.2l-.23.18a.66.66,0,0,1-.16.11.35.35,0,0,1-.18,0,.48.48,0,0,1-.31-.13.44.44,0,0,1-.13-.33.55.55,0,0,1,0-.17.83.83,0,0,1,.12-.16,3.53,3.53,0,0,1,1.15-.69,4.47,4.47,0,0,1,1.53-.24,3.09,3.09,0,0,1,1.31.25,2.44,2.44,0,0,1,.91.65,2.53,2.53,0,0,1,.53.93,3.43,3.43,0,0,1,.18,1.1,3,3,0,0,1-.2,1.1,3.61,3.61,0,0,1-.51.9,5.32,5.32,0,0,1-.74.76c-.28.24-.57.47-.86.68l-.89.66a7.83,7.83,0,0,0-.81.7,4.68,4.68,0,0,0-.63.78,2.32,2.32,0,0,0-.35.94h4.55a.44.44,0,0,1,.44.43Z"/>
      <path class="cls-1" d="M22.26,149.45a5.69,5.69,0,0,1-.17,1.39,3.31,3.31,0,0,1-.56,1.18,2.62,2.62,0,0,1-1,.82,3.55,3.55,0,0,1-2.9,0,2.62,2.62,0,0,1-1-.82,3.31,3.31,0,0,1-.56-1.18,5.69,5.69,0,0,1-.17-1.39v-3.06a5.75,5.75,0,0,1,.17-1.39,3.39,3.39,0,0,1,.56-1.18,2.81,2.81,0,0,1,1-.82,3.55,3.55,0,0,1,2.9,0,2.81,2.81,0,0,1,1,.82,3.39,3.39,0,0,1,.56,1.18,5.75,5.75,0,0,1,.17,1.39Zm-.92-3a4.71,4.71,0,0,0-.13-1.15,2.48,2.48,0,0,0-.41-.9,1.84,1.84,0,0,0-.7-.6,2.41,2.41,0,0,0-2,0,1.77,1.77,0,0,0-.7.6,2.65,2.65,0,0,0-.4.9,4.71,4.71,0,0,0-.13,1.15v3a4.57,4.57,0,0,0,.13,1.14,2.84,2.84,0,0,0,.4.9,1.83,1.83,0,0,0,.7.59,2.41,2.41,0,0,0,2,0,1.91,1.91,0,0,0,.7-.59,2.65,2.65,0,0,0,.41-.9,4.57,4.57,0,0,0,.13-1.14Z"/>
      <path class="cls-1" d="M26.81,145.15a1.62,1.62,0,0,1-.11.64,1.46,1.46,0,0,1-.31.49,1.35,1.35,0,0,1-.47.3,1.41,1.41,0,0,1-.59.11,1.46,1.46,0,0,1-.6-.11,1.35,1.35,0,0,1-.47-.3,1.46,1.46,0,0,1-.31-.49,1.62,1.62,0,0,1-.12-.64v-.92a1.61,1.61,0,0,1,.12-.63,1.46,1.46,0,0,1,.31-.49,1.54,1.54,0,0,1,.47-.31,1.64,1.64,0,0,1,.6-.11,1.59,1.59,0,0,1,.59.11,1.54,1.54,0,0,1,.47.31,1.46,1.46,0,0,1,.31.49,1.61,1.61,0,0,1,.11.63Zm-.67-1a.92.92,0,0,0-.22-.66.79.79,0,0,0-.59-.23.85.85,0,0,0-.6.23.93.93,0,0,0-.23.66v1a.9.9,0,0,0,.23.64.81.81,0,0,0,.6.24.76.76,0,0,0,.59-.24.89.89,0,0,0,.22-.64Zm-.74,8.74a.34.34,0,0,1-.18.19.28.28,0,0,1-.25,0,.31.31,0,0,1-.2-.17.39.39,0,0,1,0-.26l3.58-9.8a.47.47,0,0,1,.18-.19.3.3,0,0,1,.26,0,.31.31,0,0,1,.19.18.31.31,0,0,1,0,.25Zm4.51-1.33a1.87,1.87,0,0,1-.11.64,1.35,1.35,0,0,1-.32.48A1.25,1.25,0,0,1,29,153a1.66,1.66,0,0,1-1.19,0,1.38,1.38,0,0,1-.78-.79,1.66,1.66,0,0,1-.12-.64v-.93a1.61,1.61,0,0,1,.12-.63,1.31,1.31,0,0,1,.78-.79,1.44,1.44,0,0,1,.59-.11,1.46,1.46,0,0,1,.6.11,1.35,1.35,0,0,1,.47.3,1.49,1.49,0,0,1,.32.49,1.81,1.81,0,0,1,.11.63Zm-.66-1A.85.85,0,0,0,29,150a.78.78,0,0,0-.61-.23.75.75,0,0,0-.58.23.85.85,0,0,0-.23.63v1a.89.89,0,0,0,.23.65.78.78,0,0,0,.58.23.84.84,0,0,0,.61-.23.89.89,0,0,0,.23-.65Z"/>
      <path class="cls-1" d="M14.37,114.82a.47.47,0,0,1-.12.32.42.42,0,0,1-.3.13h-.9V117a.44.44,0,0,1-.45.46.53.53,0,0,1-.33-.13.44.44,0,0,1-.13-.33v-1.76H8.56a.46.46,0,0,1-.31-.13.44.44,0,0,1-.12-.32.42.42,0,0,1,0-.22l3.21-7.28a.44.44,0,0,1,.25-.25.43.43,0,0,1,.35,0,.45.45,0,0,1,.24.25.43.43,0,0,1,0,.35l-3,6.71h2.87V112.1a.42.42,0,0,1,.13-.32.48.48,0,0,1,.33-.13.41.41,0,0,1,.32.13.42.42,0,0,1,.13.32v2.29H14a.41.41,0,0,1,.3.12A.45.45,0,0,1,14.37,114.82Z"/>
      <path class="cls-1" d="M22.26,113.78a5.69,5.69,0,0,1-.17,1.39,3.31,3.31,0,0,1-.56,1.18,2.62,2.62,0,0,1-1,.82,3.65,3.65,0,0,1-2.9,0,2.62,2.62,0,0,1-1-.82,3.31,3.31,0,0,1-.56-1.18,5.69,5.69,0,0,1-.17-1.39v-3.07a5.73,5.73,0,0,1,.17-1.38,3.39,3.39,0,0,1,.56-1.18,2.81,2.81,0,0,1,1-.82,3.55,3.55,0,0,1,2.9,0,2.81,2.81,0,0,1,1,.82,3.39,3.39,0,0,1,.56,1.18,5.73,5.73,0,0,1,.17,1.38Zm-.92-3a4.6,4.6,0,0,0-.13-1.15,2.61,2.61,0,0,0-.41-.91,1.91,1.91,0,0,0-.7-.59,2.41,2.41,0,0,0-2,0,1.83,1.83,0,0,0-.7.59,2.8,2.8,0,0,0-.4.91,4.6,4.6,0,0,0-.13,1.15v3a4.44,4.44,0,0,0,.13,1.13,2.8,2.8,0,0,0,.4.91,1.83,1.83,0,0,0,.7.59,2.41,2.41,0,0,0,2,0,1.91,1.91,0,0,0,.7-.59,2.61,2.61,0,0,0,.41-.91,4.44,4.44,0,0,0,.13-1.13Z"/>
      <path class="cls-1" d="M26.81,109.48a1.62,1.62,0,0,1-.11.64,1.33,1.33,0,0,1-.31.48,1.25,1.25,0,0,1-.47.31,1.41,1.41,0,0,1-.59.11,1.46,1.46,0,0,1-.6-.11,1.25,1.25,0,0,1-.47-.31,1.33,1.33,0,0,1-.31-.48,1.62,1.62,0,0,1-.12-.64v-.92a1.61,1.61,0,0,1,.12-.63,1.46,1.46,0,0,1,.31-.49,1.54,1.54,0,0,1,.47-.31,1.64,1.64,0,0,1,.6-.11,1.59,1.59,0,0,1,.59.11,1.54,1.54,0,0,1,.47.31,1.46,1.46,0,0,1,.31.49,1.61,1.61,0,0,1,.11.63Zm-.67-1a.92.92,0,0,0-.22-.66.79.79,0,0,0-.59-.23.85.85,0,0,0-.6.23.93.93,0,0,0-.23.66v1a.9.9,0,0,0,.23.65.81.81,0,0,0,.6.24.76.76,0,0,0,.59-.24.9.9,0,0,0,.22-.65Zm-.74,8.74a.34.34,0,0,1-.18.19.28.28,0,0,1-.25,0,.31.31,0,0,1-.2-.17.39.39,0,0,1,0-.26l3.58-9.8a.41.41,0,0,1,.18-.19.3.3,0,0,1,.26,0,.31.31,0,0,1,.19.18.31.31,0,0,1,0,.25Zm4.51-1.33a1.87,1.87,0,0,1-.11.64,1.44,1.44,0,0,1-.32.48,1.25,1.25,0,0,1-.47.31,1.64,1.64,0,0,1-.6.1,1.63,1.63,0,0,1-.59-.1,1.33,1.33,0,0,1-.47-.31,1.42,1.42,0,0,1-.31-.48,1.66,1.66,0,0,1-.12-.64V115a1.61,1.61,0,0,1,.12-.63,1.37,1.37,0,0,1,.31-.49,1.61,1.61,0,0,1,1.66-.3,1.35,1.35,0,0,1,.47.3,1.39,1.39,0,0,1,.32.49,1.81,1.81,0,0,1,.11.63Zm-.66-1a.9.9,0,0,0-.23-.64.82.82,0,0,0-.61-.23.78.78,0,0,0-.58.23.9.9,0,0,0-.23.64v1a.89.89,0,0,0,.23.65.78.78,0,0,0,.58.23.84.84,0,0,0,.61-.23.89.89,0,0,0,.23-.65Z"/>
      <path class="cls-1" d="M14.26,78.65A3.64,3.64,0,0,1,14,80a2.77,2.77,0,0,1-.62,1,2.67,2.67,0,0,1-1,.63,3.45,3.45,0,0,1-1.23.21A2.92,2.92,0,0,1,10,81.55,2.72,2.72,0,0,1,9,80.8a3.4,3.4,0,0,1-.6-1.17,5.09,5.09,0,0,1-.22-1.57,6,6,0,0,1,.29-1.84,9.44,9.44,0,0,1,.78-1.75,11.47,11.47,0,0,1,1.09-1.59,16.72,16.72,0,0,1,1.23-1.38.49.49,0,0,1,.32-.13.45.45,0,0,1,.47.45.47.47,0,0,1,0,.17.42.42,0,0,1-.12.16c-.26.26-.52.54-.79.84s-.51.62-.75,1a9.36,9.36,0,0,0-1.16,2.16,3.12,3.12,0,0,1,.85-.4,2.9,2.9,0,0,1,.86-.13,3.58,3.58,0,0,1,1.14.18,2.89,2.89,0,0,1,1,.56,2.67,2.67,0,0,1,.65,1A3.39,3.39,0,0,1,14.26,78.65Zm-.93,0a2.71,2.71,0,0,0-.16-1,1.92,1.92,0,0,0-.45-.7,1.77,1.77,0,0,0-.68-.42,2.32,2.32,0,0,0-.84-.15,2.45,2.45,0,0,0-.62.08,2.15,2.15,0,0,0-.54.19,3.81,3.81,0,0,0-.45.26,2.84,2.84,0,0,0-.36.29,4,4,0,0,0-.09.84,4.65,4.65,0,0,0,.17,1.32,2.55,2.55,0,0,0,.46.9,1.79,1.79,0,0,0,.66.51,1.93,1.93,0,0,0,.79.17,2.46,2.46,0,0,0,.88-.16,1.69,1.69,0,0,0,.66-.45,2,2,0,0,0,.43-.72A3,3,0,0,0,13.33,78.66Z"/>
      <path class="cls-1" d="M22.26,78.11a5.69,5.69,0,0,1-.17,1.39,3.31,3.31,0,0,1-.56,1.18,2.62,2.62,0,0,1-1,.82,3.65,3.65,0,0,1-2.9,0,2.62,2.62,0,0,1-1-.82,3.31,3.31,0,0,1-.56-1.18,5.69,5.69,0,0,1-.17-1.39V75a5.73,5.73,0,0,1,.17-1.38,3.39,3.39,0,0,1,.56-1.18,2.81,2.81,0,0,1,1-.82,3.55,3.55,0,0,1,2.9,0,2.81,2.81,0,0,1,1,.82,3.39,3.39,0,0,1,.56,1.18A5.73,5.73,0,0,1,22.26,75Zm-.92-3a4.66,4.66,0,0,0-.13-1.15A2.61,2.61,0,0,0,20.8,73a1.91,1.91,0,0,0-.7-.59,2.41,2.41,0,0,0-2,0,1.83,1.83,0,0,0-.7.59,2.8,2.8,0,0,0-.4.91,4.66,4.66,0,0,0-.13,1.15v3A4.44,4.44,0,0,0,17,79.22a2.8,2.8,0,0,0,.4.91,1.83,1.83,0,0,0,.7.59,2.41,2.41,0,0,0,2,0,1.91,1.91,0,0,0,.7-.59,2.61,2.61,0,0,0,.41-.91,4.44,4.44,0,0,0,.13-1.13Z"/>
      <path class="cls-1" d="M26.81,73.81a1.62,1.62,0,0,1-.11.64,1.33,1.33,0,0,1-.31.48,1.25,1.25,0,0,1-.47.31,1.41,1.41,0,0,1-.59.11,1.46,1.46,0,0,1-.6-.11,1.25,1.25,0,0,1-.47-.31,1.33,1.33,0,0,1-.31-.48,1.62,1.62,0,0,1-.12-.64v-.92a1.61,1.61,0,0,1,.12-.63,1.46,1.46,0,0,1,.31-.49,1.54,1.54,0,0,1,.47-.31,1.64,1.64,0,0,1,.6-.11,1.59,1.59,0,0,1,.59.11,1.54,1.54,0,0,1,.47.31,1.46,1.46,0,0,1,.31.49,1.61,1.61,0,0,1,.11.63Zm-.67-1a.92.92,0,0,0-.22-.66.79.79,0,0,0-.59-.23.85.85,0,0,0-.6.23.93.93,0,0,0-.23.66v1a.9.9,0,0,0,.23.65.81.81,0,0,0,.6.24.76.76,0,0,0,.59-.24.9.9,0,0,0,.22-.65ZM25.4,81.6a.34.34,0,0,1-.18.19.28.28,0,0,1-.25,0,.31.31,0,0,1-.2-.17.39.39,0,0,1,0-.26l3.58-9.8a.41.41,0,0,1,.18-.19.3.3,0,0,1,.26,0,.31.31,0,0,1,.19.18.31.31,0,0,1,0,.25Zm4.51-1.33a1.87,1.87,0,0,1-.11.64,1.44,1.44,0,0,1-.32.48,1.25,1.25,0,0,1-.47.31,1.64,1.64,0,0,1-.6.1,1.63,1.63,0,0,1-.59-.1,1.33,1.33,0,0,1-.47-.31,1.42,1.42,0,0,1-.31-.48,1.66,1.66,0,0,1-.12-.64v-.93a1.61,1.61,0,0,1,.12-.63,1.37,1.37,0,0,1,.31-.49,1.61,1.61,0,0,1,1.66-.3,1.35,1.35,0,0,1,.47.3,1.39,1.39,0,0,1,.32.49,1.81,1.81,0,0,1,.11.63Zm-.66-1a.9.9,0,0,0-.23-.64.82.82,0,0,0-.61-.23.78.78,0,0,0-.58.23.9.9,0,0,0-.23.64v1a.89.89,0,0,0,.23.65.78.78,0,0,0,.58.23A.84.84,0,0,0,29,81a.89.89,0,0,0,.23-.65Z"/>
      <path class="cls-1" d="M14.55,43.39a2.64,2.64,0,0,1-.24,1.14,2.54,2.54,0,0,1-.67.86,3.13,3.13,0,0,1-1,.55,4.34,4.34,0,0,1-1.34.19A4.87,4.87,0,0,1,10,46a3.24,3.24,0,0,1-1.05-.53,2.49,2.49,0,0,1-.69-.85A2.58,2.58,0,0,1,8,43.41a2.4,2.4,0,0,1,.18-1,2.54,2.54,0,0,1,.5-.74,3.75,3.75,0,0,1,.74-.55,7.07,7.07,0,0,1,.87-.44,7.62,7.62,0,0,1-.69-.38,2.79,2.79,0,0,1-.58-.5,2.4,2.4,0,0,1-.39-.66,2.56,2.56,0,0,1-.14-.87,2.66,2.66,0,0,1,.23-1.14,2.29,2.29,0,0,1,.61-.82,2.47,2.47,0,0,1,.89-.48,3.42,3.42,0,0,1,1.07-.16,3.49,3.49,0,0,1,1.08.16,2.57,2.57,0,0,1,.87.5,2.29,2.29,0,0,1,.59.81,2.54,2.54,0,0,1,.22,1.1,2.42,2.42,0,0,1-.13.79,2.22,2.22,0,0,1-.37.63,3,3,0,0,1-.55.51,4.24,4.24,0,0,1-.72.42c.3.13.59.26.87.41a3.68,3.68,0,0,1,.73.55,2.42,2.42,0,0,1,.51.76A2.56,2.56,0,0,1,14.55,43.39Zm-.92,0a1.78,1.78,0,0,0-.2-.87,2.2,2.2,0,0,0-.54-.6,3.27,3.27,0,0,0-.76-.43l-.9-.36c-.3.12-.59.25-.87.38a3.58,3.58,0,0,0-.74.46,2.11,2.11,0,0,0-.53.59,1.62,1.62,0,0,0-.2.81,1.8,1.8,0,0,0,.18.82,1.59,1.59,0,0,0,.48.61,2.23,2.23,0,0,0,.75.39,3.14,3.14,0,0,0,.94.13,3.45,3.45,0,0,0,1-.14,1.92,1.92,0,0,0,.75-.4,1.64,1.64,0,0,0,.47-.61A1.85,1.85,0,0,0,13.63,43.37Zm-.51-5a1.91,1.91,0,0,0-.14-.78,1.56,1.56,0,0,0-.39-.58,1.63,1.63,0,0,0-.59-.34,2.21,2.21,0,0,0-.74-.12,2.55,2.55,0,0,0-.74.11,1.64,1.64,0,0,0-.6.35,1.51,1.51,0,0,0-.4.56,2,2,0,0,0-.15.79,1.51,1.51,0,0,0,.15.7,1.63,1.63,0,0,0,.42.52,3.39,3.39,0,0,0,.61.4c.23.11.48.21.74.31.25-.11.48-.22.7-.34a2.9,2.9,0,0,0,.59-.4A1.68,1.68,0,0,0,13,39,1.53,1.53,0,0,0,13.12,38.34Z"/>
      <path class="cls-1" d="M22.26,42.44a5.69,5.69,0,0,1-.17,1.39A3.31,3.31,0,0,1,21.53,45a2.62,2.62,0,0,1-1,.82,3.65,3.65,0,0,1-2.9,0,2.62,2.62,0,0,1-1-.82,3.31,3.31,0,0,1-.56-1.18,5.69,5.69,0,0,1-.17-1.39V39.37A5.73,5.73,0,0,1,16.11,38a3.31,3.31,0,0,1,.56-1.18,2.81,2.81,0,0,1,1-.82,3.08,3.08,0,0,1,1.45-.31,3.1,3.1,0,0,1,1.45.31,2.81,2.81,0,0,1,1,.82A3.31,3.31,0,0,1,22.09,38a5.73,5.73,0,0,1,.17,1.38Zm-.92-3a4.57,4.57,0,0,0-.13-1.14,2.61,2.61,0,0,0-.41-.91,1.91,1.91,0,0,0-.7-.59,2.41,2.41,0,0,0-2,0,1.83,1.83,0,0,0-.7.59,2.8,2.8,0,0,0-.4.91,4.57,4.57,0,0,0-.13,1.14v3A4.49,4.49,0,0,0,17,43.55a2.8,2.8,0,0,0,.4.91,1.83,1.83,0,0,0,.7.59,2.41,2.41,0,0,0,2,0,1.91,1.91,0,0,0,.7-.59,2.61,2.61,0,0,0,.41-.91,4.49,4.49,0,0,0,.13-1.13Z"/>
      <path class="cls-1" d="M26.81,38.14a1.62,1.62,0,0,1-.11.64,1.33,1.33,0,0,1-.31.48,1.25,1.25,0,0,1-.47.31,1.41,1.41,0,0,1-.59.11,1.46,1.46,0,0,1-.6-.11,1.25,1.25,0,0,1-.47-.31,1.33,1.33,0,0,1-.31-.48,1.62,1.62,0,0,1-.12-.64v-.92a1.61,1.61,0,0,1,.12-.63,1.46,1.46,0,0,1,.31-.49,1.38,1.38,0,0,1,.47-.31,1.64,1.64,0,0,1,.6-.11,1.59,1.59,0,0,1,.59.11,1.38,1.38,0,0,1,.47.31,1.46,1.46,0,0,1,.31.49,1.61,1.61,0,0,1,.11.63Zm-.67-1a.92.92,0,0,0-.22-.66.79.79,0,0,0-.59-.23.85.85,0,0,0-.6.23.93.93,0,0,0-.23.66v1a.9.9,0,0,0,.23.65.81.81,0,0,0,.6.24.76.76,0,0,0,.59-.24.9.9,0,0,0,.22-.65Zm-.74,8.74a.37.37,0,0,1-.18.19.28.28,0,0,1-.25,0,.31.31,0,0,1-.2-.17.39.39,0,0,1,0-.26l3.58-9.8a.41.41,0,0,1,.18-.19.3.3,0,0,1,.26,0,.34.34,0,0,1,.2.43Zm4.51-1.33a1.87,1.87,0,0,1-.11.64,1.44,1.44,0,0,1-.32.48A1.25,1.25,0,0,1,29,46a1.64,1.64,0,0,1-.6.1,1.63,1.63,0,0,1-.59-.1,1.33,1.33,0,0,1-.47-.31,1.42,1.42,0,0,1-.31-.48,1.66,1.66,0,0,1-.12-.64v-.93A1.61,1.61,0,0,1,27,43a1.37,1.37,0,0,1,.31-.49,1.67,1.67,0,0,1,.47-.31,1.63,1.63,0,0,1,.59-.1,1.64,1.64,0,0,1,.6.1,1.54,1.54,0,0,1,.47.31,1.39,1.39,0,0,1,.32.49,1.81,1.81,0,0,1,.11.63Zm-.66-1A.9.9,0,0,0,29,43a.82.82,0,0,0-.61-.23.78.78,0,0,0-.58.23.9.9,0,0,0-.23.64v1a.89.89,0,0,0,.23.65.78.78,0,0,0,.58.23.84.84,0,0,0,.61-.23.89.89,0,0,0,.23-.65Z"/>
      <path class="cls-1" d="M6.33,9.91a.44.44,0,0,1-.43.43h-5a.42.42,0,0,1-.31-.13.39.39,0,0,1-.14-.3.43.43,0,0,1,.14-.32.42.42,0,0,1,.31-.13H3.42V1.28L.69,3.17a.43.43,0,0,1-.33.08.48.48,0,0,1-.29-.19A.48.48,0,0,1,0,2.73.37.37,0,0,1,.2,2.45L3.59.11A.39.39,0,0,1,3.88,0a.44.44,0,0,1,.46.46v9H5.9a.38.38,0,0,1,.3.13A.42.42,0,0,1,6.33,9.91Z"/>
      <path class="cls-1" d="M14.42,6.77a5.69,5.69,0,0,1-.17,1.39,3.31,3.31,0,0,1-.56,1.18,2.8,2.8,0,0,1-1,.82,3.26,3.26,0,0,1-1.45.3,3.2,3.2,0,0,1-1.45-.3,2.71,2.71,0,0,1-1-.82,3.31,3.31,0,0,1-.56-1.18A5.69,5.69,0,0,1,8.1,6.77V3.7a5.67,5.67,0,0,1,.17-1.38,3.31,3.31,0,0,1,.56-1.18,2.71,2.71,0,0,1,1-.82A3.08,3.08,0,0,1,11.26,0a3.13,3.13,0,0,1,1.45.31,2.8,2.8,0,0,1,1,.82,3.31,3.31,0,0,1,.56,1.18,5.67,5.67,0,0,1,.17,1.38Zm-.92-3a5.1,5.1,0,0,0-.13-1.14A2.61,2.61,0,0,0,13,1.69a2,2,0,0,0-.7-.6,2.23,2.23,0,0,0-1-.21,2.29,2.29,0,0,0-1,.21,2,2,0,0,0-.69.6,2.8,2.8,0,0,0-.4.91A4.57,4.57,0,0,0,9,3.74v3a4.49,4.49,0,0,0,.13,1.13,2.8,2.8,0,0,0,.4.91,1.88,1.88,0,0,0,.69.59,2.29,2.29,0,0,0,1,.22,2.23,2.23,0,0,0,1-.22,1.91,1.91,0,0,0,.7-.59,2.61,2.61,0,0,0,.41-.91,5,5,0,0,0,.13-1.13Z"/>
      <path class="cls-1" d="M22.26,6.77a5.69,5.69,0,0,1-.17,1.39,3.31,3.31,0,0,1-.56,1.18,2.71,2.71,0,0,1-1,.82,3.65,3.65,0,0,1-2.9,0,2.71,2.71,0,0,1-1-.82,3.31,3.31,0,0,1-.56-1.18,5.69,5.69,0,0,1-.17-1.39V3.7a5.67,5.67,0,0,1,.17-1.38,3.31,3.31,0,0,1,.56-1.18,2.71,2.71,0,0,1,1-.82A3.08,3.08,0,0,1,19.1,0a3.1,3.1,0,0,1,1.45.31,2.71,2.71,0,0,1,1,.82,3.31,3.31,0,0,1,.56,1.18,5.67,5.67,0,0,1,.17,1.38Zm-.92-3a4.57,4.57,0,0,0-.13-1.14,2.61,2.61,0,0,0-.41-.91,2,2,0,0,0-.7-.6,2.51,2.51,0,0,0-2,0,2,2,0,0,0-.7.6,2.8,2.8,0,0,0-.4.91,4.57,4.57,0,0,0-.13,1.14v3A4.49,4.49,0,0,0,17,7.88a2.8,2.8,0,0,0,.4.91,1.83,1.83,0,0,0,.7.59,2.41,2.41,0,0,0,2,0,1.91,1.91,0,0,0,.7-.59,2.61,2.61,0,0,0,.41-.91,4.49,4.49,0,0,0,.13-1.13Z"/>
      <path class="cls-1" d="M26.81,2.47a1.62,1.62,0,0,1-.11.64,1.33,1.33,0,0,1-.31.48,1.25,1.25,0,0,1-.47.31,1.59,1.59,0,0,1-.59.11,1.64,1.64,0,0,1-.6-.11,1.25,1.25,0,0,1-.47-.31A1.33,1.33,0,0,1,24,3.11a1.62,1.62,0,0,1-.12-.64V1.55A1.61,1.61,0,0,1,24,.92a1.46,1.46,0,0,1,.31-.49,1.38,1.38,0,0,1,.47-.31,1.64,1.64,0,0,1,.6-.11,1.59,1.59,0,0,1,.59.11,1.38,1.38,0,0,1,.47.31,1.46,1.46,0,0,1,.31.49,1.61,1.61,0,0,1,.11.63Zm-.67-1a.92.92,0,0,0-.22-.66.79.79,0,0,0-.59-.23.85.85,0,0,0-.6.23.93.93,0,0,0-.23.66v1a.9.9,0,0,0,.23.65.81.81,0,0,0,.6.24.76.76,0,0,0,.59-.24.9.9,0,0,0,.22-.65Zm-.74,8.74a.37.37,0,0,1-.18.19.28.28,0,0,1-.25,0,.31.31,0,0,1-.2-.17.39.39,0,0,1,0-.26L28.34.22A.41.41,0,0,1,28.52,0a.3.3,0,0,1,.26,0A.31.31,0,0,1,29,.21a.31.31,0,0,1,0,.25Zm4.51-1.33a1.87,1.87,0,0,1-.11.64,1.44,1.44,0,0,1-.32.48,1.38,1.38,0,0,1-.47.31,1.64,1.64,0,0,1-.6.1,1.63,1.63,0,0,1-.59-.1,1.48,1.48,0,0,1-.47-.31A1.42,1.42,0,0,1,27,9.57a1.66,1.66,0,0,1-.12-.64V8A1.61,1.61,0,0,1,27,7.37a1.37,1.37,0,0,1,.31-.49,1.67,1.67,0,0,1,.47-.31,1.63,1.63,0,0,1,.59-.1,1.64,1.64,0,0,1,.6.1,1.54,1.54,0,0,1,.47.31,1.39,1.39,0,0,1,.32.49,1.81,1.81,0,0,1,.11.63Zm-.66-1A.9.9,0,0,0,29,7.32a.82.82,0,0,0-.61-.23.78.78,0,0,0-.58.23A.9.9,0,0,0,27.6,8V9a.89.89,0,0,0,.23.65.78.78,0,0,0,.58.23A.84.84,0,0,0,29,9.62.89.89,0,0,0,29.25,9Z"/>
      <path class="cls-1" d="M42.42,196.24a7.63,7.63,0,0,1-.05.8,5.19,5.19,0,0,1-.19.85,4,4,0,0,1-.39.8,2.62,2.62,0,0,1-.65.68,3,3,0,0,1-1,.47,4.5,4.5,0,0,1-1.35.18H36.05a.44.44,0,0,1-.33-.13.45.45,0,0,1-.14-.33v-9.28a.45.45,0,0,1,.14-.33.44.44,0,0,1,.33-.13h2.77a4.87,4.87,0,0,1,1.35.17,3.26,3.26,0,0,1,1,.48,2.62,2.62,0,0,1,.65.68,4.31,4.31,0,0,1,.39.81,5,5,0,0,1,.19.85,8,8,0,0,1,.05.81Zm-.93-2.6c0-.23,0-.46,0-.7a3.63,3.63,0,0,0-.15-.67,2.63,2.63,0,0,0-.29-.61,1.94,1.94,0,0,0-.49-.5,2.45,2.45,0,0,0-.73-.33,3.7,3.7,0,0,0-1-.12H36.51v8.44h2.28a3.12,3.12,0,0,0,1.4-.26,2.09,2.09,0,0,0,.82-.69,2.41,2.41,0,0,0,.38-.95,5,5,0,0,0,.1-1Z"/>
      <path class="cls-1" d="M49.76,199.7a.38.38,0,0,1-.13.3.48.48,0,0,1-.31.1A1,1,0,0,1,49,200a1.21,1.21,0,0,1-.32-.22.76.76,0,0,1-.18-.22,1.39,1.39,0,0,1-.1-.26,2,2,0,0,1-.44.39,2.55,2.55,0,0,1-.5.24,3.45,3.45,0,0,1-.54.11l-.5,0a3.26,3.26,0,0,1-1.11-.16,2,2,0,0,1-.75-.43,1.56,1.56,0,0,1-.41-.64,2.19,2.19,0,0,1-.13-.77V198a2.19,2.19,0,0,1,.13-.77,1.6,1.6,0,0,1,.44-.63,2,2,0,0,1,.77-.42,3.84,3.84,0,0,1,1.14-.15h1.75v-.38a5,5,0,0,0-.06-.83,1.38,1.38,0,0,0-.24-.59,1.1,1.1,0,0,0-.5-.36,2.62,2.62,0,0,0-.82-.11,2.82,2.82,0,0,0-.88.11,3.62,3.62,0,0,0-.63.27.4.4,0,0,1-.33.05.47.47,0,0,1-.23-.18.48.48,0,0,1-.06-.29.41.41,0,0,1,.2-.27,3.72,3.72,0,0,1,2-.47,3.55,3.55,0,0,1,1.23.18,1.79,1.79,0,0,1,.76.54,1.91,1.91,0,0,1,.39.85,5.79,5.79,0,0,1,.11,1.16v2.74a3.79,3.79,0,0,0,0,.38.8.8,0,0,0,.08.26.52.52,0,0,0,.12.17l.19.12A.34.34,0,0,1,49.76,199.7Zm-1.54-2.94H46.54a2.69,2.69,0,0,0-.83.11,1.3,1.3,0,0,0-.51.28.87.87,0,0,0-.25.39,1.41,1.41,0,0,0-.07.45v.13a1.47,1.47,0,0,0,.07.46,1,1,0,0,0,.26.39,1.22,1.22,0,0,0,.49.28,2.6,2.6,0,0,0,.8.1,1.81,1.81,0,0,0,1.28-.41,1.65,1.65,0,0,0,.44-1.26Z"/>
      <path class="cls-1" d="M52.79,199.7a.35.35,0,0,1-.13.3.48.48,0,0,1-.31.1A1,1,0,0,1,52,200a1.33,1.33,0,0,1-.34-.22,1.23,1.23,0,0,1-.35-.52,1.77,1.77,0,0,1-.1-.61v-8.34a.44.44,0,0,1,.13-.33.44.44,0,0,1,.32-.12.41.41,0,0,1,.3.12.44.44,0,0,1,.13.33v8.1a2.06,2.06,0,0,0,0,.39.81.81,0,0,0,.09.25.58.58,0,0,0,.14.17l.2.12A.32.32,0,0,1,52.79,199.7Z"/>
      <path class="cls-1" d="M55.55,190.39a.7.7,0,0,1-.2.49.61.61,0,0,1-.47.19.66.66,0,0,1-.49-.19.7.7,0,0,1-.2-.49.66.66,0,0,1,.2-.48.63.63,0,0,1,.49-.2.59.59,0,0,1,.47.2A.66.66,0,0,1,55.55,190.39Zm-.22,9.27a.43.43,0,0,1-.14.32.47.47,0,0,1-.31.12.44.44,0,0,1-.32-.12.42.42,0,0,1-.13-.32v-6.25a.42.42,0,0,1,.13-.31.41.41,0,0,1,.32-.13.38.38,0,0,1,.17,0,.42.42,0,0,1,.14.09.78.78,0,0,1,.1.15.42.42,0,0,1,0,.16Z"/>
      <path class="cls-1" d="M62.72,199.7a.38.38,0,0,1-.13.3.48.48,0,0,1-.31.1.9.9,0,0,1-.34-.07,1.12,1.12,0,0,1-.33-.22.72.72,0,0,1-.17-.22,1.45,1.45,0,0,1-.11-.26,2,2,0,0,1-.43.39,2.63,2.63,0,0,1-.51.24,3.12,3.12,0,0,1-.53.11l-.51,0a3.34,3.34,0,0,1-1.11-.16,2,2,0,0,1-.74-.43,1.49,1.49,0,0,1-.42-.64,2.19,2.19,0,0,1-.13-.77V198a2,2,0,0,1,.14-.77,1.58,1.58,0,0,1,.43-.63,2,2,0,0,1,.77-.42,3.87,3.87,0,0,1,1.15-.15h1.75v-.38a4,4,0,0,0-.07-.83,1.27,1.27,0,0,0-.24-.59,1,1,0,0,0-.5-.36,2.59,2.59,0,0,0-.81-.11,2.88,2.88,0,0,0-.89.11,3.22,3.22,0,0,0-.62.27.42.42,0,0,1-.34.05.47.47,0,0,1-.23-.18.41.41,0,0,1-.05-.29.37.37,0,0,1,.19-.27,3.74,3.74,0,0,1,2-.47,3.55,3.55,0,0,1,1.23.18,1.73,1.73,0,0,1,.76.54,1.91,1.91,0,0,1,.39.85,5.14,5.14,0,0,1,.11,1.16v2.74a2,2,0,0,0,0,.38.81.81,0,0,0,.07.26.52.52,0,0,0,.12.17l.19.12A.34.34,0,0,1,62.72,199.7Zm-1.53-2.94H59.5a2.73,2.73,0,0,0-.83.11,1.26,1.26,0,0,0-.5.28.89.89,0,0,0-.26.39,1.76,1.76,0,0,0-.07.45v.13a1.48,1.48,0,0,0,.08.46.87.87,0,0,0,.25.39,1.22,1.22,0,0,0,.49.28,2.6,2.6,0,0,0,.8.1,1.79,1.79,0,0,0,1.28-.41,1.61,1.61,0,0,0,.45-1.26Z"/>
      <path class="cls-1" d="M69.67,199.66a.42.42,0,0,1-.13.32.44.44,0,0,1-.32.12.47.47,0,0,1-.31-.12.43.43,0,0,1-.14-.32v-4.11a3.17,3.17,0,0,0,0-.71,1.37,1.37,0,0,0-.23-.55A1,1,0,0,0,68,194a1.75,1.75,0,0,0-.74-.13,2.38,2.38,0,0,0-1.21.29,1.89,1.89,0,0,0-.75.76v4.79a.44.44,0,0,1-.45.44.47.47,0,0,1-.32-.12.46.46,0,0,1-.13-.32v-4.94a2,2,0,0,0,0-.38.61.61,0,0,0-.08-.25.56.56,0,0,0-.14-.16.72.72,0,0,0-.21-.12.61.61,0,0,1-.17-.14.46.46,0,0,1,0-.2.36.36,0,0,1,.13-.31.49.49,0,0,1,.31-.11,1,1,0,0,1,.33.08,1.13,1.13,0,0,1,.35.21,1.29,1.29,0,0,1,.32.52,2.46,2.46,0,0,1,.91-.66,3.41,3.41,0,0,1,1.31-.23,2.56,2.56,0,0,1,1.11.2,1.77,1.77,0,0,1,.69.53,2.09,2.09,0,0,1,.36.8,5.17,5.17,0,0,1,.1,1Z"/>
      <path class="cls-1" d="M46.17,210c1,3.3,2.94,6,5.69,7.21a3.43,3.43,0,0,0-.51.63c-2.81-1.34-4.74-4.13-5.82-7.65a10,10,0,0,1-5.8,7.66,2,2,0,0,0-.51-.54A9.57,9.57,0,0,0,44.88,210h-5.4v-.68H45a26.47,26.47,0,0,0,.27-4.14H46a28.83,28.83,0,0,1-.27,4.14h6V210Z"/>
      <path class="cls-1" d="M55.86,215.38c.3.17.61.5,1.19.9a6.62,6.62,0,0,0,3.75.71c1.85,0,3.88-.11,5.25-.24a4,4,0,0,0-.22.77c-1,.06-3.68.16-5,.16a6.71,6.71,0,0,1-4-.83c-.56-.39-1-.91-1.32-.91-.46,0-1.12.83-1.83,1.88l-.52-.6a5.48,5.48,0,0,1,2.07-1.88v-4.75h-2v-.65h2.64Zm0-7.16a15.59,15.59,0,0,0-2-2.56l.52-.31a17.49,17.49,0,0,1,2.06,2.48Zm5.51,5.48H57v-.65h4.39v-2.29H59a2.34,2.34,0,0,0-1.21.18,3.64,3.64,0,0,0-.24-.67c.23-.05.47-.42.73-.94a14.76,14.76,0,0,0,1-2.06H57.05v-.62h2.5a15.2,15.2,0,0,0,.51-1.48l.7.19c-.15.42-.32.87-.48,1.29h5v.62H60a23.52,23.52,0,0,1-1.39,2.84h2.71v-1.92H62v1.92H65l0,.65H62v2.29h3.6v.65H62v2.9h-.68Z"/>
      <path class="cls-1" d="M230.45,198.82a.49.49,0,0,1-.15.33,2.55,2.55,0,0,1-.58.47,3.15,3.15,0,0,1-.64.31,3.84,3.84,0,0,1-.67.16,3.63,3.63,0,0,1-.65,0,3.79,3.79,0,0,1-1.63-.31,2.68,2.68,0,0,1-1.07-.9,3.62,3.62,0,0,1-.6-1.38,7.56,7.56,0,0,1-.19-1.79v-1.69a7.35,7.35,0,0,1,.2-1.74,4.1,4.1,0,0,1,.62-1.39,3.12,3.12,0,0,1,1.11-.92,3.79,3.79,0,0,1,1.65-.33,4.89,4.89,0,0,1,.66.05,3.63,3.63,0,0,1,.65.16,3,3,0,0,1,.59.3,2.7,2.7,0,0,1,.52.44.73.73,0,0,1,.11.18.29.29,0,0,1,0,.16.45.45,0,0,1-.11.28.43.43,0,0,1-.32.15.32.32,0,0,1-.25-.1c-.07-.06-.15-.14-.26-.22a2,2,0,0,0-.73-.42,3.16,3.16,0,0,0-.9-.12,2.87,2.87,0,0,0-1.19.23,2.11,2.11,0,0,0-.82.69,3.14,3.14,0,0,0-.49,1.11,6.83,6.83,0,0,0-.15,1.51v1.67a7.16,7.16,0,0,0,.14,1.56,3.31,3.31,0,0,0,.45,1.11,1.94,1.94,0,0,0,.8.65,2.91,2.91,0,0,0,1.17.22,3.26,3.26,0,0,0,.92-.14,2.38,2.38,0,0,0,.83-.44l.27-.23a.37.37,0,0,1,.25-.1.34.34,0,0,1,.18,0,.38.38,0,0,1,.13.09,1,1,0,0,1,.08.14A.41.41,0,0,1,230.45,198.82Z"/>
      <path class="cls-1" d="M238.58,193.22a2.64,2.64,0,0,1-.21,1.06,2.36,2.36,0,0,1-.6.83,2.66,2.66,0,0,1-1,.55,4,4,0,0,1-1.3.19h-2.39v3.84a.48.48,0,0,1-.13.32.48.48,0,0,1-.66,0,.44.44,0,0,1-.13-.32v-9.41a.44.44,0,0,1,.46-.46h2.7a4.38,4.38,0,0,1,1.5.23,2.77,2.77,0,0,1,1,.63,2.25,2.25,0,0,1,.55.87,3,3,0,0,1,.17,1Zm-.92-.7a2.1,2.1,0,0,0-.11-.64,1.43,1.43,0,0,0-.38-.58,1.87,1.87,0,0,0-.72-.43,3.06,3.06,0,0,0-1.13-.17h-2.2V195h2.36a2.78,2.78,0,0,0,1-.15,1.74,1.74,0,0,0,.68-.39,1.51,1.51,0,0,0,.4-.57,1.91,1.91,0,0,0,.13-.68Z"/>
      <path class="cls-1" d="M245.93,199.57a.42.42,0,0,1-.13.32.38.38,0,0,1-.3.13h-5.66a.41.41,0,0,1-.32-.13.42.42,0,0,1-.13-.32.78.78,0,0,1,0-.22l.1-.2,5.14-8.44h-4.82a.38.38,0,0,1-.3-.13.42.42,0,0,1-.13-.31.44.44,0,0,1,.13-.32.38.38,0,0,1,.3-.13h5.63a.4.4,0,0,1,.33.13.48.48,0,0,1,.11.32.49.49,0,0,1,0,.19.76.76,0,0,1-.09.18l-5.17,8.5h4.89a.44.44,0,0,1,.43.43Z"/>
      <path class="cls-1" d="M233.54,207.48v2.77h-.67v-2.16H222.74v2.16h-.64v-2.77h5.46v-2.34h.69v2.34Zm-.88,8.89c0,.44-.1.63-.45.75a10.25,10.25,0,0,1-2.2.11,2.69,2.69,0,0,0-.25-.62c1,0,1.71,0,2,0s.26-.08.26-.24V214h-3.7v3.83h-.67V214h-3.92v3.18H223v-3.79h4.59v-1.36h-3.4v-2.79h7.3v2.79h-3.23v1.36h4.39Zm-8.15-9a11.6,11.6,0,0,0-1.22-1.78l.59-.26a11.16,11.16,0,0,1,1.27,1.73Zm.33,4.15h6v-1.67h-6Zm7.48-5.94a19.44,19.44,0,0,1-1.41,1.78l-.53-.24a13.2,13.2,0,0,0,1.28-1.84Z"/>
      <path class="cls-1" d="M247.09,208v9.76h-.67v-1h-10V208h.69v8h4.32V205.35h.68V216h4.33v-8Z"/>
      <path class="cls-1" d="M95.38,199.57a.5.5,0,0,1,0,.24.51.51,0,0,1-.09.18.42.42,0,0,1-.16.11.45.45,0,0,1-.65-.3c-.1-.4-.21-.78-.31-1.16s-.21-.75-.32-1.13H89.49c-.11.38-.23.75-.34,1.13s-.21.76-.3,1.16a.48.48,0,0,1-.17.26.42.42,0,0,1-.26.08.41.41,0,0,1-.19,0,.36.36,0,0,1-.16-.11.4.4,0,0,1-.1-.18.5.5,0,0,1,0-.24c.22-.83.45-1.65.68-2.45s.49-1.59.75-2.36.53-1.53.81-2.29.57-1.5.88-2.25a1.13,1.13,0,0,1,.14-.27.45.45,0,0,1,.14-.16.55.55,0,0,1,.15-.08l.15,0,.15,0a.55.55,0,0,1,.15.08.59.59,0,0,1,.15.16,1.63,1.63,0,0,1,.15.27q.45,1.13.87,2.25c.28.76.55,1.52.81,2.29s.51,1.56.74,2.36S95.17,198.74,95.38,199.57Zm-1.78-2.93c-.29-.94-.6-1.86-.92-2.75s-.65-1.78-1-2.67c-.36.89-.69,1.78-1,2.67s-.62,1.81-.91,2.75Z"/>
      <path class="cls-1" d="M103.28,190.27a.46.46,0,0,1-.13.31.41.41,0,0,1-.32.13h-2.9v9a.44.44,0,0,1-.13.32.44.44,0,0,1-.33.13.44.44,0,0,1-.32-.13.45.45,0,0,1-.14-.32v-9h-2.9a.42.42,0,0,1-.32-.13.42.42,0,0,1-.13-.31.44.44,0,0,1,.13-.32.42.42,0,0,1,.32-.13h6.72a.41.41,0,0,1,.32.13A.48.48,0,0,1,103.28,190.27Z"/>
      <path class="cls-1" d="M110.46,198.82a.49.49,0,0,1-.15.33,2.3,2.3,0,0,1-.57.47,3.42,3.42,0,0,1-.64.31,4.33,4.33,0,0,1-.67.16,3.81,3.81,0,0,1-.66,0,3.75,3.75,0,0,1-1.62-.31,2.71,2.71,0,0,1-1.08-.9,3.62,3.62,0,0,1-.6-1.38,8.15,8.15,0,0,1-.18-1.79v-1.69a7.37,7.37,0,0,1,.19-1.74,3.93,3.93,0,0,1,.63-1.39,3,3,0,0,1,1.11-.92,3.72,3.72,0,0,1,1.64-.33,5.16,5.16,0,0,1,.67.05,3.53,3.53,0,0,1,.64.16,2.81,2.81,0,0,1,.6.3,2.64,2.64,0,0,1,.51.44.73.73,0,0,1,.11.18.29.29,0,0,1,0,.16.44.44,0,0,1-.1.28.43.43,0,0,1-.33.15.33.33,0,0,1-.25-.1l-.25-.22a2,2,0,0,0-.73-.42,3.28,3.28,0,0,0-.91-.12,2.9,2.9,0,0,0-1.19.23,2.18,2.18,0,0,0-.82.69,3,3,0,0,0-.48,1.11,6.25,6.25,0,0,0-.16,1.51v1.67a7.85,7.85,0,0,0,.14,1.56,3.12,3.12,0,0,0,.46,1.11,1.91,1.91,0,0,0,.79.65,3,3,0,0,0,1.17.22,3.21,3.21,0,0,0,.92-.14,2.3,2.3,0,0,0,.83-.44,2.56,2.56,0,0,0,.27-.23.37.37,0,0,1,.25-.1.34.34,0,0,1,.18,0,.38.38,0,0,1,.13.09.5.5,0,0,1,.08.14A.41.41,0,0,1,110.46,198.82Z"/>
      <path class="cls-1" d="M98.56,216.51v.68H86.19v-.68h5.38V205.39h.7v4.48h5.44v.68H92.27v6Z"/>
      <path class="cls-1" d="M102.35,211.33a12.61,12.61,0,0,0-2.28-1.4l.36-.48a12.14,12.14,0,0,1,2.3,1.35Zm-1.86,5.9a42,42,0,0,0,1.93-4.58l.52.38c-.51,1.48-1.26,3.3-1.85,4.58Zm.67-11.89a11.52,11.52,0,0,1,2.42,1.38l-.39.52a11.37,11.37,0,0,0-2.42-1.43Zm4.27,2.14a11.57,11.57,0,0,1-1.57,2.46,5.79,5.79,0,0,0-.61-.37,11.75,11.75,0,0,0,2.43-4.43l.66.17c-.18.52-.38,1.05-.6,1.54h6.72v.63Zm6.14,5.18c-.07,1.05-.14,1.89-.2,2.56h1v.62h-1.09a3.51,3.51,0,0,1-.48,1.47,1.12,1.12,0,0,1-.9.41,13.18,13.18,0,0,1-1.79-.06,1.88,1.88,0,0,0-.18-.6c.78.07,1.51.08,1.76.08s.41,0,.54-.19a2.57,2.57,0,0,0,.37-1.11h-6.44c.17-.84.35-2,.52-3.18h-1.33V212h1.43c.14-1,.26-2.09.36-2.95h6.6s0,.28,0,.37c0,1-.08,1.82-.12,2.58h1.16v.63Zm-.86,2.56c.09-.63.17-1.47.23-2.56h-5.62c-.11.94-.25,1.84-.37,2.56Zm-5-5.53c-.08.74-.19,1.54-.3,2.34H111c.05-.69.09-1.46.13-2.34Zm2.82,5.32a10,10,0,0,0-1.76-1.89l.44-.26a8.3,8.3,0,0,1,1.78,1.85Zm-1-5.18a8.06,8.06,0,0,1,1.74,1.7l-.45.31a7.72,7.72,0,0,0-1.71-1.73Z"/>
      <path class="cls-1" d="M139.13,190.12v.07s0,0,0,.06c-.18.79-.37,1.56-.55,2.32s-.38,1.53-.58,2.29-.41,1.54-.62,2.33l-.68,2.43a1.09,1.09,0,0,1-.22.38.53.53,0,0,1-.39.15.48.48,0,0,1-.37-.15.84.84,0,0,1-.23-.38c-.2-.71-.4-1.41-.58-2.08s-.36-1.35-.53-2-.34-1.32-.51-2-.32-1.3-.48-2c-.15.67-.31,1.32-.47,2s-.33,1.31-.51,2-.35,1.33-.54,2-.38,1.37-.58,2.08a.74.74,0,0,1-.21.38.5.5,0,0,1-.38.15.49.49,0,0,1-.38-.15,1,1,0,0,1-.22-.38c-.24-.83-.46-1.64-.68-2.43s-.42-1.56-.62-2.33-.39-1.53-.58-2.29-.37-1.53-.55-2.32a.69.69,0,0,1,0-.13.37.37,0,0,1,.15-.31.52.52,0,0,1,.33-.12.44.44,0,0,1,.27.09.46.46,0,0,1,.16.28c.16.71.32,1.41.49,2.1s.34,1.39.52,2.08.36,1.4.55,2.11.39,1.44.61,2.19c.2-.73.4-1.44.58-2.14s.37-1.39.54-2.08.34-1.36.5-2l.48-2.05a.8.8,0,0,1,.2-.39.5.5,0,0,1,.38-.15c.28,0,.47.18.56.54.15.69.31,1.37.47,2.05s.33,1.36.5,2,.35,1.38.54,2.08.38,1.41.59,2.14q.31-1.12.6-2.19c.19-.71.37-1.41.55-2.11s.35-1.39.52-2.08.33-1.39.49-2.1a.46.46,0,0,1,.17-.28.44.44,0,0,1,.27-.09.52.52,0,0,1,.33.12A.4.4,0,0,1,139.13,190.12Z"/>
      <path class="cls-1" d="M146.33,199.7a.35.35,0,0,1-.13.3.46.46,0,0,1-.31.1.93.93,0,0,1-.33-.07,1.59,1.59,0,0,1-.35-.22.86.86,0,0,1-.2-.27,1.88,1.88,0,0,1-.12-.3,2.72,2.72,0,0,1-.91.64,3.42,3.42,0,0,1-1.31.22,2.7,2.7,0,0,1-1.09-.19,1.88,1.88,0,0,1-.7-.53,2.27,2.27,0,0,1-.37-.8,4.32,4.32,0,0,1-.11-1v-4.19a.42.42,0,0,1,0-.16.78.78,0,0,1,.1-.15.38.38,0,0,1,.15-.09.33.33,0,0,1,.17,0,.44.44,0,0,1,.32.13.46.46,0,0,1,.13.31v4.12a3.88,3.88,0,0,0,.06.72,1.42,1.42,0,0,0,.23.53,1.13,1.13,0,0,0,.46.34,2,2,0,0,0,.74.12,2.3,2.3,0,0,0,1.24-.3,1.8,1.8,0,0,0,.72-.8v-4.73a.42.42,0,0,1,.13-.31.46.46,0,0,1,.64,0,.45.45,0,0,1,.12.31v5a2.06,2.06,0,0,0,0,.39,1.23,1.23,0,0,0,.08.25.79.79,0,0,0,.14.17l.21.12a.31.31,0,0,1,.17.13A.42.42,0,0,1,146.33,199.7Z"/>
      <path class="cls-1" d="M153.15,199.66a.42.42,0,0,1-.13.32.41.41,0,0,1-.3.12.44.44,0,0,1-.32-.12.42.42,0,0,1-.13-.32v-4.11a3.79,3.79,0,0,0-.07-.71,1.37,1.37,0,0,0-.23-.55,1.07,1.07,0,0,0-.46-.34,1.75,1.75,0,0,0-.74-.13,2.38,2.38,0,0,0-1.21.29,2,2,0,0,0-.75.76v4.79a.42.42,0,0,1-.13.32.47.47,0,0,1-.32.12.41.41,0,0,1-.44-.44v-9.32A.48.48,0,0,1,148,190a.45.45,0,0,1,.32-.12.47.47,0,0,1,.32.12.44.44,0,0,1,.13.33v3.41a2.42,2.42,0,0,1,.87-.58,3.43,3.43,0,0,1,1.22-.2,2.55,2.55,0,0,1,1.1.2,1.77,1.77,0,0,1,.69.53,1.94,1.94,0,0,1,.35.8,4.46,4.46,0,0,1,.11,1Z"/>
      <path class="cls-1" d="M161.09,199.7a.35.35,0,0,1-.13.3.48.48,0,0,1-.31.1.93.93,0,0,1-.33-.07,1.38,1.38,0,0,1-.35-.22.9.9,0,0,1-.21-.27,1.82,1.82,0,0,1-.11-.3,2.72,2.72,0,0,1-.91.64,3.42,3.42,0,0,1-1.31.22,2.7,2.7,0,0,1-1.09-.19,1.88,1.88,0,0,1-.7-.53,2.27,2.27,0,0,1-.37-.8,4.32,4.32,0,0,1-.11-1v-4.19a.42.42,0,0,1,0-.16.78.78,0,0,1,.1-.15.42.42,0,0,1,.14-.09.38.38,0,0,1,.17,0,.44.44,0,0,1,.33.13.46.46,0,0,1,.13.31v4.12a3.88,3.88,0,0,0,.06.72,1.28,1.28,0,0,0,.23.53,1.13,1.13,0,0,0,.46.34,2,2,0,0,0,.74.12,2.3,2.3,0,0,0,1.24-.3,1.8,1.8,0,0,0,.72-.8v-4.73a.42.42,0,0,1,.13-.31A.41.41,0,0,1,160,193a.42.42,0,0,1,.32.13.45.45,0,0,1,.12.31v5a2.06,2.06,0,0,0,0,.39,1.23,1.23,0,0,0,.08.25.79.79,0,0,0,.14.17l.2.12a.3.3,0,0,1,.18.13A.42.42,0,0,1,161.09,199.7Z"/>
      <path class="cls-1" d="M142.28,217c.64,0,.74-.21.81-1.59a1.86,1.86,0,0,0,.6.25c-.09,1.58-.3,2-1.37,2h-3c-1.22,0-1.55-.21-1.55-1.08v-3.8h-.24c-.6,2.51-2,4.22-5.86,5.09a2.49,2.49,0,0,0-.37-.58c3.61-.77,5-2.28,5.56-4.51h-5.44v-.64H137a17.24,17.24,0,0,0,.27-2.19h-4.81v-.63h10v.63H138a19.37,19.37,0,0,1-.26,2.19h5.95v.64h-5.2v3.79c0,.39.16.47.93.47Zm1.41-10.42v.62h-3.48v1.34h-.66v-1.34h-4.11v1.33h-.65v-1.33h-3.35v-.62h3.35v-1.46h.65v1.46h4.11v-1.46h.66v1.46Z"/>
      <path class="cls-1" d="M147.53,211a10.31,10.31,0,0,0-2.37-1.42l.38-.48a8.55,8.55,0,0,1,2.35,1.35Zm-2.05,6.3a45.58,45.58,0,0,0,2-4.46l.54.37c-.55,1.44-1.32,3.23-2,4.47Zm2.52-10a9.07,9.07,0,0,0-2.2-1.56l.39-.46a9.21,9.21,0,0,1,2.22,1.48Zm1.25,8.64v1.22h-.6V211.6h1.72v-2.78h-2.28v-.63h2.28v-2.71H151v2.71h2v.63h-2v2.78h1.57V216Zm0-3.76v3.14h2.69v-3.14Zm8.12,4.64c0,.43-.12.65-.42.76a6.56,6.56,0,0,1-1.83.11,1.93,1.93,0,0,0-.24-.59h1.58c.2,0,.28-.07.28-.29v-3.73h-2.49a7.66,7.66,0,0,1-1.81,4.75,2.63,2.63,0,0,0-.49-.39c1.6-1.67,1.75-4.07,1.75-6v-5.71h3.67Zm-.63-4.36v-2.8h-2.42v1.75c0,.34,0,.69,0,1.05Zm-2.42-6.15v2.72h2.42v-2.72Z"/>
      <path class="cls-1" d="M185.28,197.1a3.11,3.11,0,0,1-.25,1.28,2.51,2.51,0,0,1-.71,1,3.3,3.3,0,0,1-1.13.6,4.93,4.93,0,0,1-1.49.2,9.22,9.22,0,0,1-1.46-.1,4.8,4.8,0,0,1-1.24-.37.41.41,0,0,1-.21-.17.44.44,0,0,1-.07-.24.49.49,0,0,1,.11-.31.37.37,0,0,1,.31-.15.74.74,0,0,1,.18,0l.23.1.33.12.49.12a3.86,3.86,0,0,0,.56.09,5.35,5.35,0,0,0,.73,0,3.92,3.92,0,0,0,1.2-.16,2.4,2.4,0,0,0,.84-.45,1.85,1.85,0,0,0,.5-.68,2.25,2.25,0,0,0,.16-.87,2,2,0,0,0-.09-.63,1.24,1.24,0,0,0-.27-.46,1.54,1.54,0,0,0-.42-.33,2.81,2.81,0,0,0-.58-.23,6.11,6.11,0,0,0-.68-.17l-.8-.15c-.27-.05-.55-.11-.81-.18a5.05,5.05,0,0,1-.72-.24,2.51,2.51,0,0,1-.52-.32,2.12,2.12,0,0,1-.4-.44,2.36,2.36,0,0,1-.26-.6,3.15,3.15,0,0,1-.09-.8,3,3,0,0,1,.24-1.22,2.49,2.49,0,0,1,.65-.91,2.73,2.73,0,0,1,1-.58,4,4,0,0,1,1.27-.2,7,7,0,0,1,1.26.1,4.35,4.35,0,0,1,1.12.32.63.63,0,0,1,.21.18.4.4,0,0,1,.08.22.47.47,0,0,1-.12.32.39.39,0,0,1-.32.15.38.38,0,0,1-.17,0l-.2-.08-.29-.1-.43-.12-.48-.07-.61,0a3,3,0,0,0-1,.14,2.28,2.28,0,0,0-.72.4,2,2,0,0,0-.45.63,2.18,2.18,0,0,0-.16.82,2,2,0,0,0,.1.64,1.48,1.48,0,0,0,.28.45,1.52,1.52,0,0,0,.45.32,3.52,3.52,0,0,0,.58.22,6.66,6.66,0,0,0,.79.18l.89.16a7.9,7.9,0,0,1,.87.22,2.34,2.34,0,0,1,.73.34,2,2,0,0,1,.7.79A2.69,2.69,0,0,1,185.28,197.1Z"/>
      <path class="cls-1" d="M193.45,199.7a.39.39,0,0,1,0,.18.49.49,0,0,1-.11.14.38.38,0,0,1-.15.09l-.18,0a.35.35,0,0,1-.2,0,.51.51,0,0,1-.17-.16c-.44-.76-.89-1.5-1.36-2.23s-1-1.47-1.47-2.2q-.77,1.09-1.47,2.19c-.47.74-.92,1.48-1.36,2.22a.52.52,0,0,1-.18.18.35.35,0,0,1-.2,0,.53.53,0,0,1-.33-.12.45.45,0,0,1-.1-.14.41.41,0,0,1,0-.18.6.6,0,0,1,.08-.24c.47-.81,1-1.6,1.47-2.39s1-1.58,1.59-2.37c-.49-.72-1-1.43-1.4-2.15s-.86-1.44-1.27-2.17a.48.48,0,0,1-.06-.24.42.42,0,0,1,.14-.32.45.45,0,0,1,.32-.13.43.43,0,0,1,.22.06.42.42,0,0,1,.18.19c.36.68.74,1.35,1.14,2s.83,1.31,1.28,2c.44-.65.86-1.3,1.26-2s.79-1.32,1.16-2a.52.52,0,0,1,.17-.19.42.42,0,0,1,.21-.06.48.48,0,0,1,.33.13.39.39,0,0,1,.14.32.57.57,0,0,1,0,.24c-.41.73-.84,1.46-1.28,2.17s-.9,1.43-1.39,2.15q.83,1.2,1.59,2.37c.51.79,1,1.58,1.47,2.39A.49.49,0,0,1,193.45,199.7Z"/>
      <path class="cls-1" d="M200.73,198.82a.49.49,0,0,1-.15.33,2.74,2.74,0,0,1-.57.47,3.23,3.23,0,0,1-.65.31,3.84,3.84,0,0,1-.67.16,3.63,3.63,0,0,1-.65,0,3.82,3.82,0,0,1-1.63-.31,2.68,2.68,0,0,1-1.07-.9,3.62,3.62,0,0,1-.6-1.38,8.15,8.15,0,0,1-.18-1.79v-1.69a7.37,7.37,0,0,1,.19-1.74,3.93,3.93,0,0,1,.63-1.39,3,3,0,0,1,1.11-.92,3.72,3.72,0,0,1,1.64-.33,4.89,4.89,0,0,1,.66.05,3.43,3.43,0,0,1,.65.16,2.52,2.52,0,0,1,.59.3,2.43,2.43,0,0,1,.52.44.73.73,0,0,1,.11.18.29.29,0,0,1,0,.16.4.4,0,0,1-.11.28.41.41,0,0,1-.32.15.33.33,0,0,1-.25-.1c-.07-.06-.15-.14-.26-.22a2,2,0,0,0-.72-.42,3.28,3.28,0,0,0-.91-.12,2.87,2.87,0,0,0-1.19.23,2.11,2.11,0,0,0-.82.69,3,3,0,0,0-.48,1.11,6.25,6.25,0,0,0-.16,1.51v1.67a7.85,7.85,0,0,0,.14,1.56,3.12,3.12,0,0,0,.46,1.11,1.85,1.85,0,0,0,.79.65,3,3,0,0,0,1.17.22,3.21,3.21,0,0,0,.92-.14,2.3,2.3,0,0,0,.83-.44,2.56,2.56,0,0,0,.27-.23.37.37,0,0,1,.25-.1.34.34,0,0,1,.18,0,.38.38,0,0,1,.13.09.5.5,0,0,1,.08.14A.41.41,0,0,1,200.73,198.82Z"/>
      <path class="cls-1" d="M178.34,213.57a9,9,0,0,1-1.46,2.72,6,6,0,0,0-.52-.36,7.16,7.16,0,0,0,1.39-2.5Zm1.64-.75v3.9c0,.38-.09.56-.33.68a4,4,0,0,1-1.31.11,4.11,4.11,0,0,0-.24-.62c.52,0,.94,0,1.08,0s.18,0,.18-.19v-3.9h-2.93v-.62h2.93v-1.7h-3v-.6h3.92a21.3,21.3,0,0,0,.84-2.48l.64.17c-.25.74-.56,1.64-.84,2.31h1.95v.6H180v1.7h2.8v.62Zm2.68-5.55h-6.09v-.6h3a12.05,12.05,0,0,0-.72-1.38l.6-.16a13.25,13.25,0,0,1,.85,1.54h2.38Zm-4.45,2.51a8.86,8.86,0,0,0-.62-2.2l.56-.13a7.53,7.53,0,0,1,.65,2.16Zm3,3.62a13.06,13.06,0,0,1,1.21,2.33l-.54.27a13.21,13.21,0,0,0-1.17-2.36Zm7.73-2.84h-1.66v7.21h-.66v-7.21h-2.58v.67c0,2-.18,4.65-1.53,6.5a1.86,1.86,0,0,0-.5-.42c1.28-1.75,1.4-4.2,1.4-6.08v-4.72a25.17,25.17,0,0,0,4.43-1l.59.5a24,24,0,0,1-4.39,1v3H189Z"/>
      <path class="cls-1" d="M201.93,211.88v6h-.71v-.69h-9.15v.75h-.69v-6Zm-9.86.61v1.66h9.15v-1.66Zm9.15,4v-1.78h-9.15v1.78Zm-.41-6h-8.33v-4.84h8.33Zm-.7-4.23h-7v1.51h7Zm0,2.08h-7v1.54h7Z"/>
      <path class="cls-1" d="M269.46,196.47a6.19,6.19,0,0,1-.18,1.56,3,3,0,0,1-.57,1.15,2.4,2.4,0,0,1-1,.72,4.2,4.2,0,0,1-1.5.25A5.83,5.83,0,0,1,265,200a.41.41,0,0,1-.28-.16.44.44,0,0,1-.09-.27.45.45,0,0,1,.12-.31.39.39,0,0,1,.32-.14l.16,0,.3.06a4.88,4.88,0,0,0,.68,0,3.15,3.15,0,0,0,1.08-.16,1.59,1.59,0,0,0,.72-.5,2.09,2.09,0,0,0,.41-.86,5.89,5.89,0,0,0,.12-1.27v-6.32a.43.43,0,0,1,.14-.32.45.45,0,0,1,.32-.14.45.45,0,0,1,.33.14.43.43,0,0,1,.14.32Z"/>
      <path class="cls-1" d="M272.57,190.39a.69.69,0,0,1-.19.49.7.7,0,0,1-1,0,.7.7,0,0,1-.2-.49.66.66,0,0,1,.2-.48.68.68,0,0,1,1,0A.65.65,0,0,1,272.57,190.39Zm-.22,9.27a.42.42,0,0,1-.13.32.47.47,0,0,1-.32.12.43.43,0,0,1-.31-.12.42.42,0,0,1-.13-.32v-6.25a.42.42,0,0,1,.13-.31.4.4,0,0,1,.31-.13.33.33,0,0,1,.17,0,.38.38,0,0,1,.15.09.78.78,0,0,1,.1.15.41.41,0,0,1,0,.16Z"/>
      <path class="cls-1" d="M279.91,199.66a.42.42,0,0,1-.13.32.43.43,0,0,1-.31.12.47.47,0,0,1-.32-.12.43.43,0,0,1-.14-.32v-4.11a3.17,3.17,0,0,0-.05-.71,1.37,1.37,0,0,0-.23-.55,1,1,0,0,0-.46-.34,1.75,1.75,0,0,0-.74-.13,2.38,2.38,0,0,0-1.21.29,1.89,1.89,0,0,0-.75.76v4.79a.46.46,0,0,1-.13.32.49.49,0,0,1-.64,0,.46.46,0,0,1-.13-.32v-4.94a3.79,3.79,0,0,0,0-.38.81.81,0,0,0-.09-.25.56.56,0,0,0-.14-.16.82.82,0,0,0-.2-.12.54.54,0,0,1-.18-.14.46.46,0,0,1-.05-.2.36.36,0,0,1,.13-.31.51.51,0,0,1,.31-.11,1,1,0,0,1,.34.08,1.08,1.08,0,0,1,.34.21,1.19,1.19,0,0,1,.32.52,2.46,2.46,0,0,1,.91-.66,3.41,3.41,0,0,1,1.31-.23,2.56,2.56,0,0,1,1.11.2,1.77,1.77,0,0,1,.69.53,2.09,2.09,0,0,1,.36.8,4.46,4.46,0,0,1,.1,1Z"/>
      <path class="cls-1" d="M287.22,199.7a.35.35,0,0,1-.13.3.44.44,0,0,1-.3.1,1,1,0,0,1-.35-.07,1.21,1.21,0,0,1-.32-.22.76.76,0,0,1-.18-.22,1.39,1.39,0,0,1-.1-.26,2,2,0,0,1-.44.39,2.55,2.55,0,0,1-.5.24,3.45,3.45,0,0,1-.54.11l-.5,0a3.26,3.26,0,0,1-1.11-.16,2,2,0,0,1-.75-.43,1.7,1.7,0,0,1-.42-.64,2.44,2.44,0,0,1-.13-.77V198a2.19,2.19,0,0,1,.14-.77,1.6,1.6,0,0,1,.44-.63,2,2,0,0,1,.77-.42,3.8,3.8,0,0,1,1.14-.15h1.75v-.38a5,5,0,0,0-.06-.83,1.52,1.52,0,0,0-.24-.59,1.1,1.1,0,0,0-.5-.36,2.62,2.62,0,0,0-.82-.11,2.82,2.82,0,0,0-.88.11,3.06,3.06,0,0,0-.63.27.4.4,0,0,1-.33.05A.47.47,0,0,1,282,194a.48.48,0,0,1-.06-.29.38.38,0,0,1,.2-.27,3.72,3.72,0,0,1,2-.47,3.55,3.55,0,0,1,1.23.18,1.79,1.79,0,0,1,.76.54,1.91,1.91,0,0,1,.39.85,5.79,5.79,0,0,1,.11,1.16v2.74a3.79,3.79,0,0,0,0,.38,1.2,1.2,0,0,0,.07.26.76.76,0,0,0,.13.17l.19.12A.33.33,0,0,1,287.22,199.7Zm-1.53-2.94H284a2.66,2.66,0,0,0-.82.11,1.24,1.24,0,0,0-.51.28.87.87,0,0,0-.25.39,1.41,1.41,0,0,0-.07.45v.13a1.47,1.47,0,0,0,.07.46.89.89,0,0,0,.26.39,1.22,1.22,0,0,0,.49.28,2.6,2.6,0,0,0,.8.1,1.81,1.81,0,0,0,1.28-.41,1.65,1.65,0,0,0,.44-1.26Z"/>
      <path class="cls-1" d="M294.18,199.66a.46.46,0,0,1-.13.32.45.45,0,0,1-.32.12.45.45,0,0,1-.31-.12.4.4,0,0,1-.14-.32v-4.11a3.14,3.14,0,0,0-.06-.71,1.35,1.35,0,0,0-.22-.55,1.13,1.13,0,0,0-.46-.34,1.78,1.78,0,0,0-.74-.13,2.36,2.36,0,0,0-1.21.29,2,2,0,0,0-.76.76v4.79a.42.42,0,0,1-.13.32.45.45,0,0,1-.31.12.44.44,0,0,1-.32-.12.42.42,0,0,1-.13-.32v-4.94a2,2,0,0,0,0-.38,1.23,1.23,0,0,0-.08-.25.46.46,0,0,0-.15-.16.56.56,0,0,0-.2-.12.49.49,0,0,1-.17-.14.35.35,0,0,1-.05-.2.36.36,0,0,1,.13-.31.49.49,0,0,1,.31-.11,1,1,0,0,1,.33.08,1.13,1.13,0,0,1,.35.21,1.29,1.29,0,0,1,.32.52,2.42,2.42,0,0,1,.9-.66,3.5,3.5,0,0,1,1.32-.23,2.52,2.52,0,0,1,1.1.2,1.77,1.77,0,0,1,.69.53,2.09,2.09,0,0,1,.36.8,4.46,4.46,0,0,1,.11,1Z"/>
      <path class="cls-1" d="M268.74,211.22a11.79,11.79,0,0,0-2.22-1.6l.44-.43a11.53,11.53,0,0,1,2.23,1.51Zm-1.86,6a43,43,0,0,0,2.09-4.5l.53.42c-.56,1.46-1.36,3.24-2,4.5Zm2.51-9.78a13.16,13.16,0,0,0-2.16-1.58l.46-.42a12.13,12.13,0,0,1,2.16,1.51Zm2.79,4.78h.65v1.3a4.31,4.31,0,0,1-2.73,4.17,2.52,2.52,0,0,0-.49-.42c2.21-1.1,2.57-2.57,2.57-3.75Zm5-4.71a6.11,6.11,0,0,1-1.91,2.86,11.24,11.24,0,0,0,4.19,1.27,2.14,2.14,0,0,0-.43.62,11.29,11.29,0,0,1-4.33-1.49,12.47,12.47,0,0,1-4.3,1.59,3.39,3.39,0,0,0-.38-.61,11.28,11.28,0,0,0,4.13-1.35,7.11,7.11,0,0,1-2.18-2.89h-1.67v-.63h4a11.1,11.1,0,0,0-.7-1.54l.61-.18a9.52,9.52,0,0,1,.82,1.72h4.14v.63Zm-4.54,0a6.1,6.1,0,0,0,2.06,2.49,5.11,5.11,0,0,0,1.75-2.49Zm3.75,4.69H277v5.55h-.66Z"/>
      <path class="cls-1" d="M287.13,207.35c-.07.62-.16,1.24-.23,1.74h5.24v7.82c0,.52-.14.74-.52.85a11.68,11.68,0,0,1-2.32.11,4.1,4.1,0,0,0-.25-.65c1,0,1.85,0,2.08,0s.33-.08.33-.32v-7.2h-9.12v8.12h-.66v-8.75h4.59c.07-.49.14-1.12.2-1.74h-5.7v-.64h5.76c0-.56.08-1.11.09-1.57l.72.08c0,.47-.1,1-.14,1.49H293v.64Zm0,7.6v2.7h-.65V215h-3.26v-.59h3.26v-1.73h-3v-.58h4.27a15,15,0,0,0,1-2.05l.61.17c-.28.63-.63,1.32-.95,1.88h1.92v.58h-3.19v1.73h3.4V215ZM284.87,210a6.76,6.76,0,0,1,.93,1.74l-.56.2a6.53,6.53,0,0,0-.9-1.76Z"/>
      <path class="cls-1" d="M316,199.71a.42.42,0,0,1-.13.3.45.45,0,0,1-.34.13.55.55,0,0,1-.26,0,.52.52,0,0,1-.18-.18l-5.17-8.33v8.13a.42.42,0,0,1-.13.31.41.41,0,0,1-.3.12.45.45,0,0,1-.31-.12.42.42,0,0,1-.13-.31v-9.59a.38.38,0,0,1,.13-.3.42.42,0,0,1,.33-.13.55.55,0,0,1,.26.06.63.63,0,0,1,.2.2l5.16,8.32v-8.15a.41.41,0,0,1,.12-.3.44.44,0,0,1,.75.3Z"/>
      <path class="cls-1" d="M324.86,196.68a4.73,4.73,0,0,1-.2,1.4,2.92,2.92,0,0,1-.59,1.1,2.6,2.6,0,0,1-1,.71,3.66,3.66,0,0,1-1.43.25,3.79,3.79,0,0,1-1.63-.31,2.83,2.83,0,0,1-1.09-.9,4,4,0,0,1-.6-1.38,8.22,8.22,0,0,1-.18-1.79v-1.69a7.31,7.31,0,0,1,.19-1.74,3.77,3.77,0,0,1,.63-1.39,3,3,0,0,1,1.11-.92,3.81,3.81,0,0,1,1.66-.33,4.89,4.89,0,0,1,.66.05,3.63,3.63,0,0,1,.65.16,2.66,2.66,0,0,1,.61.3,2.19,2.19,0,0,1,.51.46.53.53,0,0,1,.12.15.51.51,0,0,1,0,.17.43.43,0,0,1-.11.28.47.47,0,0,1-.33.15.36.36,0,0,1-.25-.1c-.07-.06-.15-.14-.26-.22a2,2,0,0,0-.74-.42,3.14,3.14,0,0,0-.89-.12,2.73,2.73,0,0,0-1.2.23,2,2,0,0,0-.83.68,3,3,0,0,0-.48,1.11,6.33,6.33,0,0,0-.16,1.52v1.67a7.21,7.21,0,0,0,.15,1.57,3,3,0,0,0,.46,1.1,1.85,1.85,0,0,0,.79.65,2.94,2.94,0,0,0,1.17.22,2.76,2.76,0,0,0,1-.18,2,2,0,0,0,.73-.51,2.2,2.2,0,0,0,.42-.82,3.72,3.72,0,0,0,.14-1.1v-.89h-2a.46.46,0,0,1-.31-.13.43.43,0,0,1,.31-.74h2.49a.43.43,0,0,1,.33.13.45.45,0,0,1,.12.33Z"/>
      <path class="cls-1" d="M333.59,197.42a3.21,3.21,0,0,1-.16,1.05,2,2,0,0,1-.52.83,2.59,2.59,0,0,1-1,.53,4.81,4.81,0,0,1-1.47.19h-3.13a.45.45,0,0,1-.32-.14.41.41,0,0,1-.14-.32v-9.28A.42.42,0,0,1,327,190a.45.45,0,0,1,.32-.14h2.87a4.07,4.07,0,0,1,1.34.2,2.6,2.6,0,0,1,.91.53,2.16,2.16,0,0,1,.53.8,2.78,2.78,0,0,1,.16,1v.43a2.63,2.63,0,0,1-.09.72,1.92,1.92,0,0,1-.29.57,1.76,1.76,0,0,1-.43.43,2.24,2.24,0,0,1-.57.31,3.31,3.31,0,0,1,.74.32,2.51,2.51,0,0,1,.58.49,2.25,2.25,0,0,1,.37.66,2.53,2.53,0,0,1,.12.8Zm-1.36-5a2,2,0,0,0-.1-.66,1.4,1.4,0,0,0-.35-.54,1.59,1.59,0,0,0-.63-.35,2.91,2.91,0,0,0-.95-.13h-2.39v3.74h1.66a6.59,6.59,0,0,0,1.14-.09,2.61,2.61,0,0,0,.88-.27,1.34,1.34,0,0,0,.55-.5,1.46,1.46,0,0,0,.19-.78Zm.44,4.63a1.5,1.5,0,0,0-.17-.74,1.54,1.54,0,0,0-.48-.54,2.31,2.31,0,0,0-.76-.34,4.49,4.49,0,0,0-1-.11h-2.43v3.87h2.67a3.62,3.62,0,0,0,1.08-.13,1.59,1.59,0,0,0,.67-.37,1.3,1.3,0,0,0,.35-.57,2.73,2.73,0,0,0,.09-.72Z"/>
      <path class="cls-1" d="M341.56,198.82a.49.49,0,0,1-.15.33,2.74,2.74,0,0,1-.57.47,3.23,3.23,0,0,1-.65.31,3.84,3.84,0,0,1-.67.16,3.63,3.63,0,0,1-.65,0,3.82,3.82,0,0,1-1.63-.31,2.77,2.77,0,0,1-1.07-.9,3.62,3.62,0,0,1-.6-1.38,8.22,8.22,0,0,1-.18-1.79v-1.69a7.31,7.31,0,0,1,.19-1.74,3.85,3.85,0,0,1,.63-1.39,2.86,2.86,0,0,1,1.11-.92,3.72,3.72,0,0,1,1.64-.33,4.89,4.89,0,0,1,.66.05,3.43,3.43,0,0,1,.65.16,2.94,2.94,0,0,1,.59.29,2.22,2.22,0,0,1,.52.45.73.73,0,0,1,.11.18.29.29,0,0,1,0,.16.44.44,0,0,1-.1.28.45.45,0,0,1-.33.15.33.33,0,0,1-.25-.1c-.07-.06-.15-.14-.26-.22a1.87,1.87,0,0,0-.72-.42,3.28,3.28,0,0,0-.91-.12,2.72,2.72,0,0,0-1.19.23,2.11,2.11,0,0,0-.82.69,3,3,0,0,0-.48,1.11,6.25,6.25,0,0,0-.16,1.51v1.67a7.85,7.85,0,0,0,.14,1.56,3.12,3.12,0,0,0,.46,1.11,1.85,1.85,0,0,0,.79.65,3,3,0,0,0,1.17.22,3.21,3.21,0,0,0,.92-.14,2.3,2.3,0,0,0,.83-.44,2.56,2.56,0,0,0,.27-.23.37.37,0,0,1,.25-.1.34.34,0,0,1,.18,0,.38.38,0,0,1,.13.09.39.39,0,0,1,.08.14A.41.41,0,0,1,341.56,198.82Z"/>
      <path class="cls-1" d="M324,211.33H318.3v5.43c0,.54-.12.76-.56.87a11.5,11.5,0,0,1-2.53.13,4.22,4.22,0,0,0-.25-.7c1.13,0,2.05,0,2.33,0s.36-.07.36-.3v-5.43H312.1v-.65H324Zm-10.85-1.56h-.65V207.3h11.08v2.47h-.69V208h-9.74Zm5-2.64a10,10,0,0,0-1-1.82l.65-.19a10.29,10.29,0,0,1,1,1.8Z"/>
      <path class="cls-1" d="M328.07,211.08a10.66,10.66,0,0,0-2.45-1.53l.39-.49a11.23,11.23,0,0,1,2.44,1.47Zm.75,2a50.08,50.08,0,0,1-2.23,4.52l-.59-.42a41.57,41.57,0,0,0,2.3-4.51Zm-.09-5.66a11.24,11.24,0,0,0-2.38-1.65l.41-.48a10,10,0,0,1,2.36,1.6Zm8.46,3.43a10.06,10.06,0,0,1-2.53,4.43,9.1,9.1,0,0,0,3.81,2,2.85,2.85,0,0,0-.47.57,9.59,9.59,0,0,1-3.82-2.08,11.48,11.48,0,0,1-3.77,2.11,3.79,3.79,0,0,0-.43-.56,10.36,10.36,0,0,0,3.72-2,10.79,10.79,0,0,1-2.41-4h-.65c-.06,2-.37,4.66-1.87,6.51a1.87,1.87,0,0,0-.54-.33c1.58-2,1.76-4.68,1.76-6.71v-3.5h3.49v-2.16h.66v2.16h3.54l.13-.05.46.16a24.09,24.09,0,0,1-1.22,2.73l-.56-.21a19.81,19.81,0,0,0,.87-2h-3.22v2.77h2.49l.14,0Zm-6.55-2.95v2.77h2.84v-2.77Zm1.29,3.4a9.74,9.74,0,0,0,2.25,3.53,8.92,8.92,0,0,0,2.16-3.53Z"/>
      <path class="cls-1" d="M356.08,199.71a.38.38,0,0,1-.13.3.44.44,0,0,1-.34.13.51.51,0,0,1-.25,0,.47.47,0,0,1-.19-.18L350,191.58v8.13a.42.42,0,0,1-.13.31.41.41,0,0,1-.3.12.45.45,0,0,1-.31-.12.46.46,0,0,1-.13-.31v-9.59a.38.38,0,0,1,.13-.3.44.44,0,0,1,.34-.13.51.51,0,0,1,.25.06.63.63,0,0,1,.2.2l5.16,8.32v-8.15a.44.44,0,0,1,.43-.43.44.44,0,0,1,.44.43Z"/>
      <path class="cls-1" d="M363.58,199.7a.35.35,0,0,1-.13.3.45.45,0,0,1-.3.1.8.8,0,0,1-.35-.08,1,1,0,0,1-.32-.21.76.76,0,0,1-.18-.22,1.48,1.48,0,0,1-.1-.27,2.07,2.07,0,0,1-.44.4,2.55,2.55,0,0,1-.5.24,3.45,3.45,0,0,1-.54.11l-.5,0a3.26,3.26,0,0,1-1.11-.16,2,2,0,0,1-.75-.43,1.7,1.7,0,0,1-.42-.64,2.44,2.44,0,0,1-.13-.77V198a2.19,2.19,0,0,1,.14-.77,1.69,1.69,0,0,1,.43-.63,2.07,2.07,0,0,1,.78-.42,3.77,3.77,0,0,1,1.14-.16h1.75v-.37a5.17,5.17,0,0,0-.06-.84,1.51,1.51,0,0,0-.25-.59,1.07,1.07,0,0,0-.49-.35,2.39,2.39,0,0,0-.82-.11,2.82,2.82,0,0,0-.88.11,2.6,2.6,0,0,0-.63.27.4.4,0,0,1-.33.05.47.47,0,0,1-.23-.18.49.49,0,0,1-.06-.29.38.38,0,0,1,.2-.27,3.63,3.63,0,0,1,2-.47,3.55,3.55,0,0,1,1.23.18,1.77,1.77,0,0,1,.76.53,2,2,0,0,1,.39.86,5.68,5.68,0,0,1,.11,1.15v2.75a3.79,3.79,0,0,0,0,.38,1.38,1.38,0,0,0,.07.26.76.76,0,0,0,.13.17.86.86,0,0,0,.19.11A.35.35,0,0,1,363.58,199.7Zm-1.53-2.94h-1.69a2.66,2.66,0,0,0-.82.11,1.24,1.24,0,0,0-.51.28.82.82,0,0,0-.25.39,1.37,1.37,0,0,0-.07.45v.12a1.49,1.49,0,0,0,.07.47,1,1,0,0,0,.25.39,1.26,1.26,0,0,0,.5.28,2.6,2.6,0,0,0,.8.1,1.81,1.81,0,0,0,1.27-.41,1.61,1.61,0,0,0,.45-1.26Z"/>
      <path class="cls-1" d="M370.53,199.66a.41.41,0,0,1-.44.44.45.45,0,0,1-.31-.12.4.4,0,0,1-.14-.32v-4.12a3,3,0,0,0-.06-.7,1.3,1.3,0,0,0-.22-.55,1.25,1.25,0,0,0-.46-.35,2,2,0,0,0-.74-.12,2.36,2.36,0,0,0-1.21.29,2,2,0,0,0-.76.76v4.79a.42.42,0,0,1-.13.32.45.45,0,0,1-.31.12.44.44,0,0,1-.32-.12.42.42,0,0,1-.13-.32v-4.94a2,2,0,0,0,0-.38,1.23,1.23,0,0,0-.08-.25.5.5,0,0,0-.15-.17,1,1,0,0,0-.2-.11.42.42,0,0,1-.17-.15.33.33,0,0,1-.06-.19.39.39,0,0,1,.14-.32.48.48,0,0,1,.31-.1.78.78,0,0,1,.33.08,1.13,1.13,0,0,1,.35.21,1.29,1.29,0,0,1,.32.52,2.42,2.42,0,0,1,.9-.66,3.32,3.32,0,0,1,1.32-.23,2.68,2.68,0,0,1,1.1.19,1.89,1.89,0,0,1,.69.54,2.09,2.09,0,0,1,.36.8,4.46,4.46,0,0,1,.1,1Z"/>
      <path class="cls-1" d="M377.54,199.49a.4.4,0,0,1,0,.23.46.46,0,0,1-.09.2.43.43,0,0,1-.17.13.41.41,0,0,1-.21,0,.36.36,0,0,1-.2-.06.42.42,0,0,1-.18-.19,19.82,19.82,0,0,0-1-1.77c-.38-.58-.77-1.14-1.17-1.67l-1.07,1.1v2.15a.43.43,0,0,1-.14.32.47.47,0,0,1-.31.12.44.44,0,0,1-.32-.12.42.42,0,0,1-.13-.32v-9.33a.44.44,0,0,1,.13-.32.44.44,0,0,1,.32-.13.48.48,0,0,1,.31.13.45.45,0,0,1,.14.32v6.07l3.23-3.31A.36.36,0,0,1,377,193a.42.42,0,0,1,.29.12.38.38,0,0,1,.12.28.4.4,0,0,1-.12.29l-2.1,2.14c.43.57.85,1.16,1.26,1.78A20.55,20.55,0,0,1,377.54,199.49Z"/>
      <path class="cls-1" d="M384,197.25a3.9,3.9,0,0,1-.15,1.1,2.39,2.39,0,0,1-.47.91,2.3,2.3,0,0,1-.84.62,3.66,3.66,0,0,1-2.5,0,2.3,2.3,0,0,1-.84-.62,2.54,2.54,0,0,1-.47-.91,3.9,3.9,0,0,1-.15-1.1v-1.43a3.9,3.9,0,0,1,.15-1.1,2.54,2.54,0,0,1,.47-.91,2.3,2.3,0,0,1,.84-.62,3.66,3.66,0,0,1,2.5,0,2.3,2.3,0,0,1,.84.62,2.39,2.39,0,0,1,.47.91,3.9,3.9,0,0,1,.15,1.1Zm-.89-1.43a3,3,0,0,0-.1-.82,1.7,1.7,0,0,0-.32-.63,1.49,1.49,0,0,0-.57-.41,2.56,2.56,0,0,0-1.67,0,1.49,1.49,0,0,0-.57.41,1.45,1.45,0,0,0-.32.63,3,3,0,0,0-.1.82v1.43a3.1,3.1,0,0,0,.1.83,1.49,1.49,0,0,0,.89,1,2.56,2.56,0,0,0,1.67,0,1.49,1.49,0,0,0,.57-.41,1.78,1.78,0,0,0,.32-.63,3.1,3.1,0,0,0,.1-.83Z"/>
      <path class="cls-1" d="M391.72,199.7a.35.35,0,0,1-.13.3.48.48,0,0,1-.31.1A.78.78,0,0,1,391,200a1.13,1.13,0,0,1-.35-.21.9.9,0,0,1-.21-.27,1.15,1.15,0,0,1-.11-.31,2.46,2.46,0,0,1-.91.64,3.23,3.23,0,0,1-1.31.23,2.66,2.66,0,0,1-1.09-.19,1.74,1.74,0,0,1-.7-.54,2,2,0,0,1-.37-.79,4.32,4.32,0,0,1-.11-1v-4.19a.35.35,0,0,1,0-.17.45.45,0,0,1,.1-.14.71.71,0,0,1,.14-.1.51.51,0,0,1,.17,0,.41.41,0,0,1,.32.13.42.42,0,0,1,.13.31v4.12a3.79,3.79,0,0,0,.07.71,1.32,1.32,0,0,0,.23.54,1.07,1.07,0,0,0,.46.34,2,2,0,0,0,.74.11,2.3,2.3,0,0,0,1.24-.29,1.83,1.83,0,0,0,.72-.81v-4.72a.42.42,0,0,1,.13-.31.41.41,0,0,1,.32-.13.44.44,0,0,1,.32.13.45.45,0,0,1,.12.31v5a1.94,1.94,0,0,0,0,.38.8.8,0,0,0,.08.26.58.58,0,0,0,.14.17l.2.11a.29.29,0,0,1,.17.13A.37.37,0,0,1,391.72,199.7Z"/>
      <path class="cls-1" d="M363.37,207.35c-.07.62-.16,1.23-.23,1.74h5.24v7.81c0,.52-.14.75-.52.86a11.68,11.68,0,0,1-2.32.11,4.19,4.19,0,0,0-.25-.66c1,0,1.84,0,2.08,0s.33-.08.33-.32v-7.2h-9.12v8.12h-.66v-8.75h4.59c.07-.49.14-1.12.2-1.74H357v-.64h5.75c.05-.56.09-1.11.1-1.57l.72.08c-.05.46-.1,1-.14,1.49h5.81v.64Zm0,7.59v2.71h-.65v-2.71h-3.26v-.58h3.26v-1.73h-3V212h4.27a14.35,14.35,0,0,0,1-2l.61.17c-.28.63-.63,1.31-.95,1.87h1.92v.59H363.4v1.73h3.4v.58Zm-2.29-4.9a6.76,6.76,0,0,1,.93,1.74l-.56.19a6.49,6.49,0,0,0-.9-1.75Z"/>
      <path class="cls-1" d="M382.21,206.67v10.7h-.7v-1.14h-8.75v1.22h-.69V206.67Zm-.7,8.88v-8.21h-8.75v8.21Z"/>
      <path class="cls-1" d="M407.93,199.69a.44.44,0,0,1-.13.32.44.44,0,0,1-.33.13.46.46,0,0,1-.33-.13.44.44,0,0,1-.13-.32v-9.54a.41.41,0,0,1,.13-.32.47.47,0,0,1,.33-.14.45.45,0,0,1,.33.14.41.41,0,0,1,.13.32Z"/>
      <path class="cls-1" d="M416.26,198.82a.49.49,0,0,1-.15.33,2.55,2.55,0,0,1-.58.47,3.15,3.15,0,0,1-.64.31,3.84,3.84,0,0,1-.67.16,3.63,3.63,0,0,1-.65,0,3.79,3.79,0,0,1-1.63-.31,2.68,2.68,0,0,1-1.07-.9,3.62,3.62,0,0,1-.6-1.38,7.56,7.56,0,0,1-.19-1.79v-1.69a7.35,7.35,0,0,1,.2-1.74,4.1,4.1,0,0,1,.62-1.39A3.12,3.12,0,0,1,412,190a3.79,3.79,0,0,1,1.65-.33,4.89,4.89,0,0,1,.66.05,3.63,3.63,0,0,1,.65.16,2.73,2.73,0,0,1,.59.3,2.7,2.7,0,0,1,.52.44.73.73,0,0,1,.11.18.29.29,0,0,1,0,.16.45.45,0,0,1-.11.28.43.43,0,0,1-.32.15.32.32,0,0,1-.25-.1c-.07-.06-.15-.14-.26-.22a2,2,0,0,0-.73-.42,3.16,3.16,0,0,0-.9-.12,2.87,2.87,0,0,0-1.19.23,2.11,2.11,0,0,0-.82.69,3.14,3.14,0,0,0-.49,1.11,6.83,6.83,0,0,0-.15,1.51v1.67a7.16,7.16,0,0,0,.14,1.56,3.31,3.31,0,0,0,.45,1.11,1.94,1.94,0,0,0,.8.65,2.91,2.91,0,0,0,1.17.22,3.26,3.26,0,0,0,.92-.14,2.38,2.38,0,0,0,.83-.44l.27-.23a.37.37,0,0,1,.25-.1.34.34,0,0,1,.18,0,.38.38,0,0,1,.13.09,1,1,0,0,1,.08.14A.41.41,0,0,1,416.26,198.82Z"/>
      <path class="cls-1" d="M424.54,190.27a.42.42,0,0,1-.13.31.4.4,0,0,1-.31.13h-2.9v9a.46.46,0,0,1-.47.45.44.44,0,0,1-.45-.45v-9h-2.9a.41.41,0,0,1-.32-.13.42.42,0,0,1-.13-.31.44.44,0,0,1,.13-.32.41.41,0,0,1,.32-.13h6.72a.4.4,0,0,1,.31.13A.44.44,0,0,1,424.54,190.27Z"/>
      <path class="cls-1" d="M414.4,216.51v.68H402v-.68h5.38V205.39h.7v4.48h5.43v.68h-5.43v6Z"/>
      <path class="cls-1" d="M418.19,211.33a12.37,12.37,0,0,0-2.29-1.4l.37-.48a11.73,11.73,0,0,1,2.29,1.35Zm-1.87,5.9a40,40,0,0,0,1.94-4.58l.51.38c-.5,1.48-1.26,3.3-1.84,4.58Zm.68-11.89a11.52,11.52,0,0,1,2.42,1.38l-.39.52a11.46,11.46,0,0,0-2.43-1.43Zm4.27,2.14a11.57,11.57,0,0,1-1.57,2.46,6,6,0,0,0-.62-.37,11.62,11.62,0,0,0,2.44-4.43l.66.17c-.18.52-.38,1.05-.6,1.54h6.72v.63Zm6.13,5.18c-.07,1.05-.14,1.89-.19,2.56h1v.62h-1.1a3.55,3.55,0,0,1-.47,1.47,1.14,1.14,0,0,1-.9.41,13.14,13.14,0,0,1-1.79-.06,2.18,2.18,0,0,0-.18-.6c.78.07,1.51.08,1.76.08s.41,0,.53-.19a2.54,2.54,0,0,0,.38-1.11H420c.17-.84.35-2,.52-3.18H419.2V212h1.42c.14-1,.27-2.09.37-2.95h6.6s0,.28,0,.37c0,1-.08,1.82-.12,2.58h1.16v.63Zm-.85,2.56c.08-.63.17-1.47.22-2.56h-5.61c-.12.94-.26,1.84-.37,2.56Zm-5-5.53c-.08.74-.19,1.54-.31,2.34h5.55c0-.69.08-1.46.13-2.34Zm2.82,5.32a10.13,10.13,0,0,0-1.77-1.89l.45-.26a8.53,8.53,0,0,1,1.78,1.85Zm-1-5.18a7.77,7.77,0,0,1,1.73,1.7l-.44.31a8.17,8.17,0,0,0-1.71-1.73Z"/>
      <polygon class="cls-2" points="158.25 185.95 158.25 6.04 130.78 6.04 130.78 185.95 158.25 185.95 158.25 185.95"/>
      <polygon class="cls-3" points="113.13 185.95 113.13 6.04 85.66 6.04 85.66 185.95 113.13 185.95 113.13 185.95"/>
      <polygon class="cls-4" points="383.85 185.95 383.85 59.96 356.37 59.96 356.37 185.95 383.85 185.95 383.85 185.95"/>
      <polygon class="cls-5" points="428.97 185.95 428.97 59.96 401.49 59.96 401.49 185.95 428.97 185.95 428.97 185.95"/>
      <polygon class="cls-6" points="293.61 185.95 293.61 41.98 266.13 41.98 266.13 185.95 293.61 185.95 293.61 185.95"/>
      <polygon class="cls-7" points="338.73 185.95 338.73 41.98 311.25 41.98 311.25 185.95 338.73 185.95 338.73 185.95"/>
      <polygon class="cls-8" points="248.49 185.95 248.49 6.04 221.01 6.04 221.01 185.95 248.49 185.95 248.49 185.95"/>
      <polygon class="cls-9" points="203.37 185.95 203.37 6.04 175.9 6.04 175.9 185.95 203.37 185.95 203.37 185.95"/>
      <polygon class="cls-10" points="68.01 185.95 68.01 6.04 40.54 6.04 40.54 185.95 68.01 185.95 68.01 185.95"/>
    </g>
  </g>
</svg>