<svg xmlns="http://www.w3.org/2000/svg" viewBox="0 0 330.66 122.54">
  <defs>
    <style>.cls-1{opacity:0.3;}.cls-10,.cls-12,.cls-13,.cls-14,.cls-2,.cls-3,.cls-5,.cls-6,.cls-7,.cls-8,.cls-9
    {fill:none;stroke-linecap:round;stroke-linejoin:round;stroke-width:1.33px;}
    .cls-2,.cls-3,.cls-5,.cls-6,.cls-7,.cls-8{stroke:#88c008;}
    .cls-3{stroke-dasharray:0 2.23;}
    .cls-4{fill:#88c008;}
    .cls-5{stroke-dasharray:0 2.23;}
    .cls-6{stroke-dasharray:0 2.22;}
    .cls-7{stroke-dasharray:0 2.23;}
    .cls-8{stroke-dasharray:0 2.22;}
    .cls-10,.cls-12,.cls-13,.cls-14,.cls-9{stroke:aqua;}
    .cls-10{stroke-dasharray:0 2.13;}
    .cls-11{fill:aqua;}
    .cls-12{stroke-dasharray:0 2.18;}
    .cls-13{stroke-dasharray:0 2.19;}
    .cls-14{stroke-dasharray:0 2.4;}</style>
  </defs>
  <g id="图层_2" data-name="图层 2">
    <g id="图层_2-2" data-name="图层 2">
      <g class="cls-1">
        <line class="cls-2" x1="118.45" y1="33.81" x2="118.45" y2="33.81"/>
        <path class="cls-3" d="M116.68,32.46c-6.44-4.84-22.42-15.82-38.13-18.61-36.41-6.44-63.71,11.32-68.9,15">
          <animate attributeName="stroke-dashoffset" from="115.06" to="0" dur="2s" repeatCount="indefinite"></animate>
        </path>
        <line class="cls-2" x1="8.75" y1="29.52" x2="8.75" y2="29.52"/>
        <polygon class="cls-4" points="117.72 30.42 118.12 33.59 114.95 33.99 116.47 35.17 119.64 34.77 119.24 31.59 117.72 30.42"/>
      </g>
      <g class="cls-1">
        <line class="cls-2" x1="136.06" y1="29.03" x2="136.06" y2="29.03"/>
        <path class="cls-5" d="M137.82,27.67c7.75-5.92,29.6-21.37,51.06-25.17,48.57-8.6,84.8,15.58,90.85,19.94">
          <animate attributeName="stroke-dashoffset" from="0" to="152.779" dur="2s" repeatCount="indefinite"></animate>
        </path>
        <line class="cls-2" x1="280.62" y1="23.1" x2="280.62" y2="23.1"/>
        <polygon class="cls-4" points="139.57 29.21 136.39 28.81 136.8 25.64 135.28 26.81 134.88 29.99 138.05 30.39 139.57 29.21"/>
      </g>
      <g class="cls-1">
        <line class="cls-2" x1="124.28" y1="50.08" x2="124.28" y2="50.08"/>
        <path class="cls-6" d="M126.41,49.45c12.22-3.55,53.47-14.2,87-7.27,73.88,15.26,111,70.83,116,78.75">
          <animate attributeName="stroke-dashoffset" from="231.849" to="0" dur="2s" repeatCount="indefinite"></animate>
        </path>
        <line class="cls-2" x1="329.99" y1="121.87" x2="329.99" y2="121.87"/>
        <polygon class="cls-4" points="127.47 51.55 124.67 50 126.22 47.2 124.38 47.73 122.83 50.53 125.63 52.08 127.47 51.55"/>
      </g>
      <g class="cls-1">
        <line class="cls-2" x1="95.13" y1="45.41" x2="95.13" y2="45.41"/>
        <path class="cls-7" d="M92.91,45.23c-8-.57-27.42-1.12-42.12,5.07-34.08,14.35-47.37,44.08-49.73,50">
          <animate attributeName="stroke-dashoffset" from="115.064" to="0" dur="2s" repeatCount="indefinite"></animate>
        </path>
        <line class="cls-2" x1="0.67" y1="101.35" x2="0.67" y2="101.35"/>
        <polygon class="cls-4" points="92.67 42.96 94.73 45.4 92.28 47.46 94.2 47.63 96.64 45.57 94.58 43.12 92.67 42.96"/>
      </g>
      <g class="cls-1">
        <line class="cls-2" x1="102.59" y1="49.34" x2="102.59" y2="49.34"/>
        <path class="cls-8" d="M102.38,51.55c-.49,6-.87,18,2.81,27.45,8.91,22.78,28.09,32.41,32.71,34.44">
          <animate attributeName="stroke-dashoffset" from="76.481" to="0" dur="2s" repeatCount="indefinite"></animate>
        </path>
        <line class="cls-2" x1="138.92" y1="113.87" x2="138.92" y2="113.87"/>
        <polygon class="cls-4" points="100.07 51.74 102.56 49.74 104.56 52.24 104.77 50.33 102.78 47.83 100.28 49.83 100.07 51.74"/>
      </g>
      <line class="cls-9" x1="125.25" y1="45.31" x2="125.25" y2="45.31"/>
      <path class="cls-10" d="M126.52,43.62a14.59,14.59,0,0,0,1.51-7,10.13,10.13,0,0,0-2.13-6.15">
        <animate attributeName="stroke-dashoffset" from="13.861" to="0" dur="2s" repeatCount="indefinite"></animate>
      </path>
      <line class="cls-9" x1="125.22" y1="29.63" x2="125.22" y2="29.63"/>
      <polygon class="cls-11" points="128.7 29.82 125.5 29.91 125.59 33.11 124.2 31.79 124.1 28.6 127.3 28.5 128.7 29.82"/>
      <line class="cls-9" x1="125.25" y1="45.31" x2="125.25" y2="45.31"/>
      <path class="cls-12" d="M124.2,43.4a16.86,16.86,0,0,0-7.78-6.64c-9.68-3.88-20.22.21-24.77,2.42">
        <animate attributeName="stroke-dashoffset" from="35.997" to="0" dur="2s" repeatCount="indefinite"></animate>
      </path>
      <line class="cls-9" x1="90.68" y1="39.67" x2="90.68" y2="39.67"/>
      <polygon class="cls-11" points="91.98 36.45 91.05 39.51 94.1 40.45 92.41 41.35 89.35 40.41 90.29 37.35 91.98 36.45"/>
      <line class="cls-9" x1="125.25" y1="45.31" x2="125.25" y2="45.31"/>
      <path class="cls-13" d="M123.27,44.38A25.1,25.1,0,0,0,114,42.54c-3.17,0-6.33,2-8.29,3.45">
        <animate attributeName="stroke-dashoffset" from="18.634" to="0" dur="2s" repeatCount="indefinite"></animate>
      </path>
      <line class="cls-9" x1="104.86" y1="46.67" x2="104.86" y2="46.67"/>
      <polygon class="cls-11" points="105.4 43.24 105.18 46.43 108.37 46.65 106.92 47.91 103.73 47.69 103.95 44.5 105.4 43.24"/>
      <line class="cls-9" x1="125.25" y1="45.31" x2="125.25" y2="45.31"/>
      <path class="cls-14" d="M123,46.17a14.38,14.38,0,0,0-1.7,1,11,11,0,0,0-3.91,5">
        <animate attributeName="stroke-dashoffset" from="8.413" to="0" dur="2s" repeatCount="indefinite"></animate>
      </path>
      <line class="cls-9" x1="117.03" y1="53.3" x2="117.03" y2="53.3"/>
      <polygon class="cls-11" points="115.37 50.23 117.12 52.91 119.8 51.16 119.4 53.04 116.73 54.79 114.98 52.11 115.37 50.23"/>
    </g>
  </g>
</svg>