<svg xmlns="http://www.w3.org/2000/svg" xmlns:xlink="http://www.w3.org/1999/xlink" viewBox="0 0 181.06 80.99">
  <defs>
    <style>.cls-1{isolation:isolate;}.cls-2,.cls-26,.cls-27,.cls-29,.cls-30,.cls-31,.cls-32,.cls-33,.cls-34,.cls-35,.cls-36,.cls-37,.cls-38,.cls-39,.cls-40,.cls-41,.cls-42,.cls-43,.cls-44,.cls-45,.cls-46,.cls-47,.cls-48,.cls-49,.cls-50{fill:none;}.cls-2{stroke:#31756c;mix-blend-mode:color-dodge;}.cls-2,.cls-26,.cls-27{stroke-miterlimit:10;}.cls-2,.cls-27{stroke-width:0.97px;}.cls-3{opacity:0.2;}.cls-10,.cls-11,.cls-12,.cls-13,.cls-14,.cls-15,.cls-16,.cls-17,.cls-18,.cls-19,.cls-20,.cls-21,.cls-22,.cls-23,.cls-24,.cls-25,.cls-4,.cls-5,.cls-6,.cls-7,.cls-8,.cls-9{fill:#00dcff;}.cls-5{opacity:0.95;}.cls-6{opacity:0.9;}.cls-7{opacity:0.86;}.cls-8{opacity:0.81;}.cls-9{opacity:0.76;}.cls-10{opacity:0.71;}.cls-11{opacity:0.67;}.cls-12{opacity:0.62;}.cls-13{opacity:0.57;}.cls-14{opacity:0.52;}.cls-15{opacity:0.48;}.cls-16{opacity:0.43;}.cls-17{opacity:0.38;}.cls-18{opacity:0.33;}.cls-19{opacity:0.29;}.cls-20{opacity:0.24;}.cls-21{opacity:0.19;}.cls-22{opacity:0.14;}.cls-23{opacity:0.1;}.cls-24{opacity:0.05;}.cls-25{opacity:0;}.cls-26,.cls-27{stroke:#5cdaff;}.cls-26{stroke-width:1.17px;}.cls-28{fill:url(#未命名的渐变_16);}.cls-29,.cls-30,.cls-31,.cls-32,.cls-33,.cls-34,.cls-35,.cls-36,.cls-37,.cls-38,.cls-39,.cls-40,.cls-41,.cls-42,.cls-43,.cls-44,.cls-45,.cls-46,.cls-47,.cls-48,.cls-49,.cls-50{stroke-linecap:round;stroke-linejoin:round;stroke-width:1.3px;}.cls-29{stroke:url(#新建渐变色板_1);}.cls-30{stroke:url(#新建渐变色板_1-2);}.cls-31{stroke:url(#新建渐变色板_1-3);}.cls-32{stroke:url(#新建渐变色板_1-4);}.cls-33{stroke:url(#新建渐变色板_1-5);}.cls-34{stroke:url(#新建渐变色板_1-6);}.cls-35{stroke:url(#新建渐变色板_1-7);}.cls-36{stroke:url(#新建渐变色板_1-8);}.cls-37{stroke:url(#新建渐变色板_1-9);}.cls-38{stroke:url(#新建渐变色板_1-10);}.cls-39{stroke:url(#新建渐变色板_1-11);}.cls-40{stroke:url(#新建渐变色板_1-12);}.cls-41{stroke:url(#新建渐变色板_1-13);}.cls-42{stroke:url(#新建渐变色板_1-14);}.cls-43{stroke:url(#新建渐变色板_1-15);}.cls-44{stroke:url(#新建渐变色板_1-16);}.cls-45{stroke:url(#新建渐变色板_1-17);}.cls-46{stroke:url(#新建渐变色板_1-18);}.cls-47{stroke:url(#新建渐变色板_1-19);}.cls-48{stroke:url(#新建渐变色板_1-20);}.cls-49{stroke:url(#新建渐变色板_1-21);}.cls-50{stroke:url(#新建渐变色板_1-22);}</style>
    <linearGradient id="未命名的渐变_16" x1="77.05" y1="5.71" x2="99.37" y2="51.36" gradientUnits="userSpaceOnUse">
      <stop offset="0.37" stop-color="#fff" stop-opacity="0.05"/>
      <stop offset="0.62" stop-color="#fff" stop-opacity="0.07"/>
      <stop offset="0.96" stop-color="#fff" stop-opacity="0.14"/>
      <stop offset="1" stop-color="#fff" stop-opacity="0.15"/>
      <animate attributeName="x1" values="33;77.05;99.37;33" dur="5s" repeatCount="indefinite"></animate>
      <animate attributeName="y1" values="0;5.71;51.36;0" dur="5s" repeatCount="indefinite"></animate>
      <animate attributeName="x2" values="22.32;99.37;150;22.32" dur="5s" repeatCount="indefinite"></animate>
      <animate attributeName="y2" values="22.32;51.36;100;22.32" dur="5s" repeatCount="indefinite"></animate>
    </linearGradient>
    <linearGradient id="新建渐变色板_1" x1="60.1" y1="39.3" x2="61.4" y2="39.3" gradientUnits="userSpaceOnUse">
      <stop offset="0" stop-color="#00d7ff"/>
      <stop offset="0.09" stop-color="#0fd9ff"/>
      <stop offset="0.27" stop-color="#36dfff"/>
      <stop offset="0.52" stop-color="#75e9ff"/>
      <stop offset="0.83" stop-color="#cbf7ff"/>
      <stop offset="1" stop-color="#fff"/>
    </linearGradient>
    <linearGradient id="新建渐变色板_1-2" x1="63.18" y1="39.14" x2="69.7" y2="39.14" xlink:href="#新建渐变色板_1"/>
    <linearGradient id="新建渐变色板_1-3" x1="71.48" y1="39.21" x2="80.51" y2="39.21" xlink:href="#新建渐变色板_1"/>
    <linearGradient id="新建渐变色板_1-4" x1="89.95" y1="39.21" x2="96.36" y2="39.21" xlink:href="#新建渐变色板_1"/>
    <linearGradient id="新建渐变色板_1-5" x1="98.14" y1="39.21" x2="104.56" y2="39.21" xlink:href="#新建渐变色板_1"/>
    <linearGradient id="新建渐变色板_1-6" x1="106.34" y1="39.21" x2="112.75" y2="39.21" xlink:href="#新建渐变色板_1"/>
    <linearGradient id="新建渐变色板_1-7" x1="82.28" y1="39.21" x2="88.17" y2="39.21" xlink:href="#新建渐变色板_1"/>
    <linearGradient id="新建渐变色板_1-8" x1="114.53" y1="39.19" x2="120.84" y2="39.19" xlink:href="#新建渐变色板_1"/>
    <linearGradient id="新建渐变色板_1-9" x1="75.24" y1="22.65" x2="84.65" y2="22.65" xlink:href="#新建渐变色板_1"/>
    <linearGradient id="新建渐变色板_1-10" x1="96.25" y1="22.64" x2="105.71" y2="22.64" xlink:href="#新建渐变色板_1"/>
    <linearGradient id="新建渐变色板_1-11" x1="83.31" y1="22.94" x2="87.87" y2="22.94" xlink:href="#新建渐变色板_1"/>
    <linearGradient id="新建渐变色板_1-12" x1="93.07" y1="22.94" x2="97.63" y2="22.94" xlink:href="#新建渐变色板_1"/>
    <linearGradient id="新建渐变色板_1-13" x1="95.87" y1="57.38" x2="106.33" y2="57.38" xlink:href="#新建渐变色板_1"/>
    <linearGradient id="新建渐变色板_1-14" x1="74.62" y1="57.42" x2="85.21" y2="57.42" xlink:href="#新建渐变色板_1"/>
    <linearGradient id="新建渐变色板_1-15" x1="92.82" y1="57.17" x2="97.91" y2="57.17" xlink:href="#新建渐变色板_1"/>
    <linearGradient id="新建渐变色板_1-16" x1="83.04" y1="57.17" x2="88.13" y2="57.17" xlink:href="#新建渐变色板_1"/>
    <linearGradient id="新建渐变色板_1-17" x1="72.92" y1="56.52" x2="108.02" y2="56.52" xlink:href="#新建渐变色板_1"/>
    <linearGradient id="新建渐变色板_1-18" x1="82.09" y1="64.29" x2="98.74" y2="64.29" xlink:href="#新建渐变色板_1"/>
    <linearGradient id="新建渐变色板_1-19" x1="81.41" y1="16.95" x2="99.53" y2="16.95" xlink:href="#新建渐变色板_1"/>
    <linearGradient id="新建渐变色板_1-20" x1="74.35" y1="22.63" x2="106.6" y2="22.63" xlink:href="#新建渐变色板_1"/>
    <linearGradient id="新建渐变色板_1-21" x1="66.23" y1="58.27" x2="114.71" y2="58.27" xlink:href="#新建渐变色板_1"/>
    <linearGradient id="新建渐变色板_1-22" x1="67.19" y1="21.63" x2="113.75" y2="21.63" xlink:href="#新建渐变色板_1"/>
  </defs>
  <g class="cls-1">
    <g id="图层_2" data-name="图层 2">
      <g id="图层_2-2" data-name="图层 2">
        <path class="cls-2" d="M.48,80.41h180V.48H.48Z"/>
        <g class="cls-3">
          <rect class="cls-4" x="4.24" y="3.06" width="172.47" height="74.77"/>
          <rect class="cls-5" x="4.81" y="3.45" width="171.33" height="73.99"/>
          <rect class="cls-6" x="5.39" y="3.84" width="170.18" height="73.21"/>
          <rect class="cls-7" x="5.96" y="4.23" width="169.04" height="72.43"/>
          <rect class="cls-8" x="6.53" y="4.62" width="167.9" height="71.64"/>
          <rect class="cls-9" x="7.1" y="5.02" width="166.76" height="70.86"/>
          <rect class="cls-10" x="7.67" y="5.41" width="165.62" height="70.08"/>
          <rect class="cls-11" x="8.24" y="5.8" width="164.47" height="69.3"/>
          <rect class="cls-12" x="8.81" y="6.19" width="163.33" height="68.51"/>
          <rect class="cls-13" x="9.38" y="6.58" width="162.19" height="67.73"/>
          <rect class="cls-14" x="9.95" y="6.97" width="161.05" height="66.95"/>
          <rect class="cls-15" x="10.52" y="7.36" width="159.91" height="66.17"/>
          <rect class="cls-16" x="11.1" y="7.75" width="158.76" height="65.38"/>
          <rect class="cls-17" x="11.67" y="8.15" width="157.62" height="64.6"/>
          <rect class="cls-18" x="12.24" y="8.54" width="156.48" height="63.82"/>
          <rect class="cls-19" x="12.81" y="8.93" width="155.34" height="63.04"/>
          <rect class="cls-20" x="13.38" y="9.32" width="154.2" height="62.25"/>
          <rect class="cls-21" x="13.95" y="9.71" width="153.05" height="61.47"/>
          <rect class="cls-22" x="14.52" y="10.1" width="151.91" height="60.69"/>
          <rect class="cls-23" x="15.09" y="10.49" width="150.77" height="59.91"/>
          <rect class="cls-24" x="15.66" y="10.88" width="149.63" height="59.12"/>
          <rect class="cls-25" x="16.23" y="11.28" width="148.49" height="58.34"/>
        </g>
        <polyline class="cls-26" points="115.46 80.41 180.47 80.41 180.47 66.97"/>
        <polyline class="cls-27" points="28.27 0.48 0.48 0.48 0.48 14.82"/>
        <polygon class="cls-28" points="4.24 3.06 4.24 63.29 176.71 21.2 176.71 3.06 4.24 3.06"/>
        <line class="cls-29" x1="60.75" y1="34.77" x2="60.75" y2="43.82"/>
        <path class="cls-30" d="M68.88,35.45a4.64,4.64,0,0,0-2.3-.53c-1.44,0-3.17,2.08-2,3s4.44,2,4.44,3.53-1.39,1.87-2.42,1.87a10.66,10.66,0,0,1-2.8-.68"/>
        <path class="cls-31" d="M79.86,39.21a3.89,3.89,0,1,1-7.73,0,3.89,3.89,0,1,1,7.73,0Z"/>
        <path class="cls-32" d="M95.71,39.21c0,3.34-1.14,4.29-2.55,4.29s-2.56-1-2.56-4.29,1.14-4.29,2.56-4.29S95.71,35.87,95.71,39.21Z"/>
        <path class="cls-33" d="M103.91,39.21c0,3.34-1.15,4.29-2.56,4.29s-2.56-1-2.56-4.29,1.15-4.29,2.56-4.29S103.91,35.87,103.91,39.21Z"/>
        <path class="cls-34" d="M112.1,39.21c0,3.34-1.14,4.29-2.56,4.29s-2.55-1-2.55-4.29,1.14-4.29,2.55-4.29S112.1,35.87,112.1,39.21Z"/>
        <path class="cls-35" d="M87.52,34.92H83.64v3.8a3.12,3.12,0,0,1,3.32.84c1.3,1.57-.32,3.94-1.94,3.94S82.93,43,82.93,43"/>
        <polyline class="cls-36" points="115.18 35.79 117.83 35.15 117.83 43.23 115.5 43.23 120.19 43.23"/>
        <path class="cls-37" d="M75.89,28.44c1.76-5.16,4.63-9.26,8.11-11.57"/>
        <path class="cls-38" d="M96.9,16.84c3.5,2.3,6.38,6.42,8.16,11.6"/>
        <path class="cls-39" d="M87.22,17.45c-1.39,2.38-2.53,6.24-3.26,11"/>
        <path class="cls-40" d="M97,28.44c-.72-4.75-1.87-8.61-3.26-11"/>
        <path class="cls-41" d="M105.68,50.47c-1.73,6.3-5,11.31-9.16,13.83"/>
        <path class="cls-42" d="M84.56,64.38c-4.18-2.49-7.54-7.54-9.29-13.91"/>
        <path class="cls-43" d="M93.47,63.87c1.7-2.63,3.06-7.44,3.79-13.4"/>
        <path class="cls-44" d="M83.69,50.47c.73,6,2.09,10.77,3.79,13.4"/>
        <path class="cls-45" d="M73.57,59.7a25.63,25.63,0,0,1,33.8,0"/>
        <path class="cls-46" d="M82.74,64.88a25.76,25.76,0,0,1,15.35,0"/>
        <path class="cls-47" d="M98.88,16.24a25.68,25.68,0,0,1-8.41,1.41,25.68,25.68,0,0,1-8.41-1.41"/>
        <path class="cls-48" d="M106,20a25.55,25.55,0,0,1-15.48,5.2A25.52,25.52,0,0,1,75,20"/>
        <path class="cls-49" d="M66.88,50.47a25.64,25.64,0,0,0,47.18,0"/>
        <path class="cls-50" d="M113.1,28.44a25.61,25.61,0,0,0-45.26,0"/>
      </g>
    </g>
  </g>
</svg>