<svg xmlns="http://www.w3.org/2000/svg" xmlns:xlink="http://www.w3.org/1999/xlink" viewBox="0 0 520.04 180.03">
  <defs>
    <style>.cls-1{fill:none;stroke-miterlimit:10;stroke-width:0.71px;stroke:url(#未命名的渐变_41);}.cls-1,.cls-12,.cls-5,.cls-7,.cls-9{opacity:0.1;}.cls-2{fill:#fff;}.cls-3{fill:#00dcff;}.cls-4{fill:url(#未命名的渐变_4);}.cls-5{fill:url(#未命名的渐变_42);}.cls-6{fill:url(#未命名的渐变_4-2);}.cls-7{fill:url(#未命名的渐变_42-2);}.cls-8{fill:url(#未命名的渐变_4-3);}.cls-9{fill:url(#未命名的渐变_42-3);}.cls-10{fill:url(#未命名的渐变_4-4);}.cls-11{fill:url(#未命名的渐变_4-5);}.cls-12{fill:url(#未命名的渐变_42-4);}</style>
    <linearGradient id="未命名的渐变_41" x1="264.56" y1="141.17" x2="264.56" gradientUnits="userSpaceOnUse">
      <stop offset="0" stop-color="#fff"/>
      <stop offset="1" stop-color="#fff" stop-opacity="0.5"/>
    </linearGradient>
    <linearGradient id="未命名的渐变_4" x1="-3145.57" y1="-1633.93" x2="-3186.2" y2="-1633.93" gradientTransform="translate(-1463.2 3208.19) rotate(90)" gradientUnits="userSpaceOnUse">
      <stop offset="0" stop-color="#00dcff" stop-opacity="1">
        <animate attributeName="stop-opacity"
                 values="1;0.93;0.76;0.61;0.48;0.38;0.3;0.24;0.21;0.2;0.21;0.24;0.3;0.38;0.48;0.61;0.76;0.93;1"
                 dur="5s" repeatCount="indefinite"></animate>
      </stop>
      <stop offset="0.01" stop-color="#00dcff" stop-opacity="0.93">
        <animate attributeName="stop-opacity"
                 values="0.93;0.76;0.61;0.48;0.38;0.3;0.24;0.21;0.2;0.21;0.24;0.3;0.38;0.48;0.61;0.76;0.93;1;1"
                 dur="5s" repeatCount="indefinite"></animate>
      </stop>
      <stop offset="0.05" stop-color="#00dcff" stop-opacity="0.76">
        <animate attributeName="stop-opacity"
                 values="0.76;0.61;0.48;0.38;0.3;0.24;0.21;0.2;0.21;0.24;0.3;0.38;0.48;0.61;0.76;0.93;1;1;0.93"
                 dur="5s" repeatCount="indefinite"></animate>
      </stop>
      <stop offset="0.1" stop-color="#00dcff" stop-opacity="0.61">
        <animate attributeName="stop-opacity"
                 values="0.61;0.48;0.38;0.3;0.24;0.21;0.2;0.21;0.24;0.3;0.38;0.48;0.61;0.76;0.93;1;1;0.93;0.76"
                 dur="5s" repeatCount="indefinite"></animate>
      </stop>
      <stop offset="0.14" stop-color="#00dcff" stop-opacity="0.48">
        <animate attributeName="stop-opacity"
                 values="0.48;0.38;0.3;0.24;0.21;0.2;0.21;0.24;0.3;0.38;0.48;0.61;0.76;0.93;1;1;0.93;0.76;0.61"
                 dur="5s" repeatCount="indefinite"></animate>
      </stop>
      <stop offset="0.19" stop-color="#00dcff" stop-opacity="0.38">
        <animate attributeName="stop-opacity"
                 values="0.38;0.3;0.24;0.21;0.2;0.21;0.24;0.3;0.38;0.48;0.61;0.76;0.93;1;1;0.93;0.76;0.61;0.48"
                 dur="5s" repeatCount="indefinite"></animate>
      </stop>
      <stop offset="0.24" stop-color="#00dcff" stop-opacity="0.3">
        <animate attributeName="stop-opacity"
                 values="0.3;0.24;0.21;0.2;0.21;0.24;0.3;0.38;0.48;0.61;0.76;0.93;1;1;0.93;0.76;0.61;0.48;0.38"
                 dur="5s" repeatCount="indefinite"></animate>
      </stop>
      <stop offset="0.31" stop-color="#00dcff" stop-opacity="0.24">
        <animate attributeName="stop-opacity"
                 values="0.24;0.21;0.2;0.21;0.24;0.3;0.38;0.48;0.61;0.76;0.93;1;1;0.93;0.76;0.61;0.48;0.38;0.3"
                 dur="5s" repeatCount="indefinite"></animate>
      </stop>
      <stop offset="0.38" stop-color="#00dcff" stop-opacity="0.21">
        <animate attributeName="stop-opacity"
                 values="0.21;0.2;0.21;0.24;0.3;0.38;0.48;0.61;0.76;0.93;1;1;0.93;0.76;0.61;0.48;0.38;0.3;0.24"
                 dur="5s" repeatCount="indefinite"></animate>
      </stop>
      <stop offset="0.5" stop-color="#00dcff" stop-opacity="0.2">
        <animate attributeName="stop-opacity"
                 values="0.2;0.21;0.24;0.3;0.38;0.48;0.61;0.76;0.93;1;1;0.93;0.76;0.61;0.48;0.38;0.3;0.24;0.21"
                 dur="5s" repeatCount="indefinite"></animate>
      </stop>
      <stop offset="0.62" stop-color="#00dcff" stop-opacity="0.21">
        <animate attributeName="stop-opacity"
                 values="0.21;0.24;0.3;0.38;0.48;0.61;0.76;0.93;1;1;0.93;0.76;0.61;0.48;0.38;0.3;0.24;0.21;0.2"
                 dur="5s" repeatCount="indefinite"></animate>
      </stop>
      <stop offset="0.69" stop-color="#00dcff" stop-opacity="0.24">
        <animate attributeName="stop-opacity"
                 values="0.24;0.3;0.38;0.48;0.61;0.76;0.93;1;1;0.93;0.76;0.61;0.48;0.38;0.3;0.24;0.21;0.2;0.21"
                 dur="5s" repeatCount="indefinite"></animate>
      </stop>
      <stop offset="0.76" stop-color="#00dcff" stop-opacity="0.3">
        <animate attributeName="stop-opacity"
                 values="0.3;0.38;0.48;0.61;0.76;0.93;1;1;0.93;0.76;0.61;0.48;0.38;0.3;0.24;0.21;0.2;0.21;0.24"
                 dur="5s" repeatCount="indefinite"></animate>
      </stop>
      <stop offset="0.81" stop-color="#00dcff" stop-opacity="0.38">
        <animate attributeName="stop-opacity"
                 values="0.38;0.48;0.61;0.76;0.93;1;1;0.93;0.76;0.61;0.48;0.38;0.3;0.24;0.21;0.2;0.21;0.24;0.3"
                 dur="5s" repeatCount="indefinite"></animate>
      </stop>
      <stop offset="0.86" stop-color="#00dcff" stop-opacity="0.48">
        <animate attributeName="stop-opacity"
                 values="0.48;0.61;0.76;0.93;1;1;0.93;0.76;0.61;0.48;0.38;0.3;0.24;0.21;0.2;0.21;0.24;0.3;0.38"
                 dur="5s" repeatCount="indefinite"></animate>
      </stop>
      <stop offset="0.9" stop-color="#00dcff" stop-opacity="0.61">
        <animate attributeName="stop-opacity"
                 values="0.61;0.76;0.93;1;1;0.93;0.76;0.61;0.48;0.38;0.3;0.24;0.21;0.2;0.21;0.24;0.3;0.38;0.48"
                 dur="5s" repeatCount="indefinite"></animate>
      </stop>
      <stop offset="0.95" stop-color="#00dcff" stop-opacity="0.76">
        <animate attributeName="stop-opacity"
                 values="0.76;0.93;1;1;0.93;0.76;0.61;0.48;0.38;0.3;0.24;0.21;0.2;0.21;0.24;0.3;0.38;0.48;0.61"
                 dur="5s" repeatCount="indefinite"></animate>
      </stop>
      <stop offset="0.99" stop-color="#00dcff" stop-opacity="0.93">
        <animate attributeName="stop-opacity"
                 values="0.93;1;1;0.93;0.76;0.61;0.48;0.38;0.3;0.24;0.21;0.2;0.21;0.24;0.3;0.38;0.48;0.61;0.76"
                 dur="5s" repeatCount="indefinite"></animate>
      </stop>
      <stop offset="1" stop-color="#00dcff" stop-opacity="1">
        <animate attributeName="stop-opacity"
                 values="1;1;0.93;0.76;0.61;0.48;0.38;0.3;0.24;0.21;0.2;0.21;0.24;0.3;0.38;0.48;0.61;0.76;0.93"
                 dur="5s" repeatCount="indefinite"></animate>
      </stop>
    </linearGradient>
    <linearGradient id="未命名的渐变_42" x1="-3145.57" y1="-1633.93" x2="-3067.37" y2="-1633.93" gradientTransform="translate(-1463.2 3208.19) rotate(90)" gradientUnits="userSpaceOnUse">
      <stop offset="0" stop-color="#fff" stop-opacity="0.5"/>
      <stop offset="1" stop-color="#fff"/>
    </linearGradient>
    <linearGradient id="未命名的渐变_4-2" x1="-3122.57" y1="-1729.74" x2="-3186.2" y2="-1729.74" xlink:href="#未命名的渐变_4"/>
    <linearGradient id="未命名的渐变_42-2" x1="-3122.57" y1="-1729.74" x2="-3067.37" y2="-1729.74" xlink:href="#未命名的渐变_42"/>
    <linearGradient id="未命名的渐变_4-3" x1="-3094.49" y1="-1825.54" x2="-3186.2" y2="-1825.54" xlink:href="#未命名的渐变_4"/>
    <linearGradient id="未命名的渐变_42-3" x1="-3094.49" y1="-1825.54" x2="-3067.37" y2="-1825.54" xlink:href="#未命名的渐变_42"/>
    <linearGradient id="未命名的渐变_4-4" x1="-3067.37" y1="-1921.35" x2="-3186.2" y2="-1921.35" xlink:href="#未命名的渐变_4"/>
    <linearGradient id="未命名的渐变_4-5" x1="-3138.66" y1="-1538.12" x2="-3186.2" y2="-1538.12" xlink:href="#未命名的渐变_4"/>
    <linearGradient id="未命名的渐变_42-4" x1="-3138.66" y1="-1538.12" x2="-3067.37" y2="-1538.12" xlink:href="#未命名的渐变_42"/>
  </defs>
  <g id="图层_2" data-name="图层 2">
    <g id="图层_2-2" data-name="图层 2">
      <path class="cls-1" d="M46.52,0V140.82H483"/>
      <path class="cls-2" d="M28.25,20.54a5.3,5.3,0,0,1-.18,1.39,3.22,3.22,0,0,1-.56,1.18,2.81,2.81,0,0,1-1,.82,3.65,3.65,0,0,1-2.9,0,2.81,2.81,0,0,1-1-.82,3.37,3.37,0,0,1-.55-1.18,5.3,5.3,0,0,1-.18-1.39V17.47a5.22,5.22,0,0,1,.18-1.38,3.29,3.29,0,0,1,.55-1.18,2.62,2.62,0,0,1,1-.82,3.55,3.55,0,0,1,2.9,0,2.62,2.62,0,0,1,1,.82,3.15,3.15,0,0,1,.56,1.18,5.22,5.22,0,0,1,.18,1.38Zm-.93-3a4.57,4.57,0,0,0-.13-1.14,2.52,2.52,0,0,0-.4-.91,2,2,0,0,0-.7-.6,2.28,2.28,0,0,0-1-.21,2.25,2.25,0,0,0-1,.21,1.9,1.9,0,0,0-.69.6,2.52,2.52,0,0,0-.4.91,4.57,4.57,0,0,0-.13,1.14v3A4.57,4.57,0,0,0,23,21.65a2.47,2.47,0,0,0,.4.9,2,2,0,0,0,.69.6,2.25,2.25,0,0,0,1,.21,2.28,2.28,0,0,0,1-.21,2.13,2.13,0,0,0,.7-.6,2.47,2.47,0,0,0,.4-.9,4.57,4.57,0,0,0,.13-1.14Z"/>
      <path class="cls-2" d="M32.8,16.24a1.81,1.81,0,0,1-.11.63,1.42,1.42,0,0,1-.31.49,1.67,1.67,0,0,1-.47.31,1.63,1.63,0,0,1-.59.11,1.74,1.74,0,0,1-.61-.11,1.54,1.54,0,0,1-.47-.31,1.42,1.42,0,0,1-.31-.49,1.81,1.81,0,0,1-.11-.63v-.92a1.83,1.83,0,0,1,.11-.64,1.47,1.47,0,0,1,.31-.48,1.25,1.25,0,0,1,.47-.31,1.54,1.54,0,0,1,.61-.11,1.44,1.44,0,0,1,.59.11,1.33,1.33,0,0,1,.47.31,1.47,1.47,0,0,1,.31.48,1.83,1.83,0,0,1,.11.64Zm-.67-.95a1,1,0,0,0-.22-.66.86.86,0,0,0-1.19,0,.89.89,0,0,0-.23.66v1a.88.88,0,0,0,.23.65.88.88,0,0,0,1.19,0,1,1,0,0,0,.22-.65ZM31.38,24a.3.3,0,0,1-.18.2.36.36,0,0,1-.25,0,.32.32,0,0,1-.19-.17.34.34,0,0,1,0-.26L34.32,14a.39.39,0,0,1,.18-.18.34.34,0,0,1,.26,0A.39.39,0,0,1,35,14a.36.36,0,0,1,0,.25Zm4.52-1.33a1.62,1.62,0,0,1-.12.64,1.46,1.46,0,0,1-.31.49,1.39,1.39,0,0,1-.48.3,1.64,1.64,0,0,1-.6.11,1.58,1.58,0,0,1-.58-.11,1.5,1.5,0,0,1-.48-.3,1.64,1.64,0,0,1-.31-.49,1.83,1.83,0,0,1-.11-.64v-.92a1.87,1.87,0,0,1,.11-.64,1.47,1.47,0,0,1,.31-.48,1.52,1.52,0,0,1,.48-.31,1.58,1.58,0,0,1,.58-.11,1.64,1.64,0,0,1,.6.11,1.42,1.42,0,0,1,.48.31,1.33,1.33,0,0,1,.31.48,1.66,1.66,0,0,1,.12.64Zm-.67-1a.86.86,0,0,0-.22-.64.85.85,0,0,0-.62-.23.78.78,0,0,0-.58.23.86.86,0,0,0-.23.64v1a.91.91,0,0,0,.23.66.78.78,0,0,0,.58.22.82.82,0,0,0,.61-.22.87.87,0,0,0,.23-.66Z"/>
      <path class="cls-2" d="M12.28,43.78a.44.44,0,0,1-.43.43H8.26a.39.39,0,0,1-.3-.13.44.44,0,0,1,0-.6.39.39,0,0,1,.3-.13h3.59a.44.44,0,0,1,.43.43Z"/>
      <path class="cls-2" d="M20.2,47.43a.42.42,0,0,1-.13.32.42.42,0,0,1-.31.13H14.68a.42.42,0,0,1-.33-.13.44.44,0,0,1-.12-.32,3.07,3.07,0,0,1,.12-.88,3.67,3.67,0,0,1,.31-.76,3.84,3.84,0,0,1,.45-.66,7.47,7.47,0,0,1,.55-.57c.25-.22.51-.44.78-.64l.82-.61c.26-.2.52-.4.76-.6a5,5,0,0,0,.65-.65,3.22,3.22,0,0,0,.44-.73,2.18,2.18,0,0,0,.16-.85,2.58,2.58,0,0,0-.12-.8,1.75,1.75,0,0,0-.36-.66,1.81,1.81,0,0,0-.63-.45,2.27,2.27,0,0,0-.91-.17,3.37,3.37,0,0,0-.82.09,2.64,2.64,0,0,0-.65.24,1.7,1.7,0,0,0-.33.2l-.22.17-.17.12a.34.34,0,0,1-.17.05.43.43,0,0,1-.31-.14.43.43,0,0,1-.14-.32.53.53,0,0,1,0-.17.55.55,0,0,1,.11-.17,3.73,3.73,0,0,1,1.16-.68,4.37,4.37,0,0,1,1.52-.24,3.23,3.23,0,0,1,1.31.24,2.55,2.55,0,0,1,.91.65,2.66,2.66,0,0,1,.54.94,3.67,3.67,0,0,1,.17,1.1,2.8,2.8,0,0,1-.2,1.1,3.66,3.66,0,0,1-.51.9,4.82,4.82,0,0,1-.74.76c-.28.24-.56.46-.86.68l-.89.66a7.79,7.79,0,0,0-.8.69,3.91,3.91,0,0,0-.63.79,2.49,2.49,0,0,0-.36.94h4.55a.45.45,0,0,1,.31.12A.42.42,0,0,1,20.2,47.43Z"/>
      <path class="cls-2" d="M28.25,44.31a5.3,5.3,0,0,1-.18,1.39,3.15,3.15,0,0,1-.56,1.18,2.81,2.81,0,0,1-1,.82,3.65,3.65,0,0,1-2.9,0,2.81,2.81,0,0,1-1-.82,3.29,3.29,0,0,1-.55-1.18,5.3,5.3,0,0,1-.18-1.39V41.24a5.22,5.22,0,0,1,.18-1.38,3.29,3.29,0,0,1,.55-1.18,2.71,2.71,0,0,1,1-.82,3.55,3.55,0,0,1,2.9,0,2.71,2.71,0,0,1,1,.82,3.15,3.15,0,0,1,.56,1.18,5.22,5.22,0,0,1,.18,1.38Zm-.93-3a4.57,4.57,0,0,0-.13-1.14,2.6,2.6,0,0,0-.4-.91,2.13,2.13,0,0,0-.7-.6,2.28,2.28,0,0,0-1-.21,2.25,2.25,0,0,0-1,.21,2,2,0,0,0-.69.6,2.6,2.6,0,0,0-.4.91,4.57,4.57,0,0,0-.13,1.14v3A4.57,4.57,0,0,0,23,45.42a2.47,2.47,0,0,0,.4.9,1.9,1.9,0,0,0,.69.6,2.25,2.25,0,0,0,1,.21,2.28,2.28,0,0,0,1-.21,2,2,0,0,0,.7-.6,2.47,2.47,0,0,0,.4-.9,4.57,4.57,0,0,0,.13-1.14Z"/>
      <path class="cls-2" d="M32.8,40a1.91,1.91,0,0,1-.11.64,1.38,1.38,0,0,1-.78.79,1.63,1.63,0,0,1-.59.11,1.74,1.74,0,0,1-.61-.11,1.38,1.38,0,0,1-.47-.31,1.47,1.47,0,0,1-.31-.48,1.91,1.91,0,0,1-.11-.64v-.92a1.83,1.83,0,0,1,.11-.64,1.59,1.59,0,0,1,.31-.48,1.38,1.38,0,0,1,.47-.31,1.74,1.74,0,0,1,.61-.11,1.63,1.63,0,0,1,.59.11,1.48,1.48,0,0,1,.47.31,1.59,1.59,0,0,1,.31.48,1.83,1.83,0,0,1,.11.64Zm-.67-.95a1,1,0,0,0-.22-.66.86.86,0,0,0-1.19,0,.89.89,0,0,0-.23.66v1a.88.88,0,0,0,.23.65.88.88,0,0,0,1.19,0,1,1,0,0,0,.22-.65Zm-.75,8.74a.31.31,0,0,1-.18.19A.36.36,0,0,1,31,48a.32.32,0,0,1-.19-.17.33.33,0,0,1,0-.26l3.58-9.81a.39.39,0,0,1,.18-.18.34.34,0,0,1,.26,0,.39.39,0,0,1,.2.18A.36.36,0,0,1,35,38Zm4.52-1.34a1.62,1.62,0,0,1-.12.64,1.46,1.46,0,0,1-.31.49,1.59,1.59,0,0,1-.48.31,1.64,1.64,0,0,1-.6.1,1.57,1.57,0,0,1-.58-.1,1.72,1.72,0,0,1-.48-.31A1.64,1.64,0,0,1,33,47.1a1.83,1.83,0,0,1-.11-.64v-.92A1.91,1.91,0,0,1,33,44.9a1.47,1.47,0,0,1,.31-.48,1.72,1.72,0,0,1,.48-.31,1.58,1.58,0,0,1,.58-.11,1.64,1.64,0,0,1,.6.11,1.59,1.59,0,0,1,.48.31,1.33,1.33,0,0,1,.31.48,1.69,1.69,0,0,1,.12.64Zm-.67-1a.87.87,0,0,0-.22-.64.85.85,0,0,0-.62-.23.78.78,0,0,0-.58.23.88.88,0,0,0-.23.64v1a.91.91,0,0,0,.23.66.78.78,0,0,0,.58.23.82.82,0,0,0,.61-.23.87.87,0,0,0,.23-.66Z"/>
      <path class="cls-2" d="M12.28,67.55a.44.44,0,0,1-.43.43H8.26a.39.39,0,0,1-.3-.13.43.43,0,0,1,0-.6.42.42,0,0,1,.3-.12h3.59a.41.41,0,0,1,.3.12A.38.38,0,0,1,12.28,67.55Z"/>
      <path class="cls-2" d="M20.35,69.12a.47.47,0,0,1-.12.32.42.42,0,0,1-.3.13H19v1.76a.44.44,0,0,1-.13.33.48.48,0,0,1-.32.13.49.49,0,0,1-.33-.13.45.45,0,0,1-.14-.33V69.57H14.54a.42.42,0,0,1-.3-.13.41.41,0,0,1-.13-.32.54.54,0,0,1,.05-.22l3.21-7.28a.44.44,0,0,1,.25-.25.43.43,0,0,1,.35,0,.4.4,0,0,1,.24.25.43.43,0,0,1,0,.35l-3,6.71h2.86V66.4a.43.43,0,0,1,.14-.32.44.44,0,0,1,.33-.13.44.44,0,0,1,.32.13.42.42,0,0,1,.13.32v2.29h.89a.41.41,0,0,1,.3.12A.45.45,0,0,1,20.35,69.12Z"/>
      <path class="cls-2" d="M28.25,68.08a5.24,5.24,0,0,1-.18,1.39,3.15,3.15,0,0,1-.56,1.18,2.62,2.62,0,0,1-1,.82,3.65,3.65,0,0,1-2.9,0,2.62,2.62,0,0,1-1-.82,3.29,3.29,0,0,1-.55-1.18,5.24,5.24,0,0,1-.18-1.39V65a5.28,5.28,0,0,1,.18-1.38,3.37,3.37,0,0,1,.55-1.18,2.81,2.81,0,0,1,1-.82,3.55,3.55,0,0,1,2.9,0,2.81,2.81,0,0,1,1,.82,3.22,3.22,0,0,1,.56,1.18A5.28,5.28,0,0,1,28.25,65Zm-.93-3a4.66,4.66,0,0,0-.13-1.15,2.6,2.6,0,0,0-.4-.91,2,2,0,0,0-.7-.59,2.15,2.15,0,0,0-1-.22,2.12,2.12,0,0,0-1,.22,1.88,1.88,0,0,0-.69.59,2.6,2.6,0,0,0-.4.91,4.66,4.66,0,0,0-.13,1.15v3A4.44,4.44,0,0,0,23,69.19a2.6,2.6,0,0,0,.4.91,1.88,1.88,0,0,0,.69.59,2.12,2.12,0,0,0,1,.22,2.15,2.15,0,0,0,1-.22,2,2,0,0,0,.7-.59,2.6,2.6,0,0,0,.4-.91,4.44,4.44,0,0,0,.13-1.13Z"/>
      <path class="cls-2" d="M32.8,63.78a1.83,1.83,0,0,1-.11.64,1.47,1.47,0,0,1-.31.48,1.33,1.33,0,0,1-.47.31,1.44,1.44,0,0,1-.59.11,1.54,1.54,0,0,1-.61-.11,1.25,1.25,0,0,1-.47-.31,1.47,1.47,0,0,1-.31-.48,1.83,1.83,0,0,1-.11-.64v-.92a1.81,1.81,0,0,1,.11-.63,1.64,1.64,0,0,1,.31-.49,1.54,1.54,0,0,1,.47-.31,1.74,1.74,0,0,1,.61-.11,1.63,1.63,0,0,1,.59.11,1.67,1.67,0,0,1,.47.31,1.64,1.64,0,0,1,.31.49,1.81,1.81,0,0,1,.11.63Zm-.67-1a1,1,0,0,0-.22-.66.88.88,0,0,0-1.19,0,.89.89,0,0,0-.23.66v1a.86.86,0,0,0,.23.65.86.86,0,0,0,1.19,0,.94.94,0,0,0,.22-.65Zm-.75,8.74a.29.29,0,0,1-.18.19.28.28,0,0,1-.25,0,.29.29,0,0,1-.19-.17.33.33,0,0,1,0-.26l3.58-9.8a.41.41,0,0,1,.18-.19.3.3,0,0,1,.26,0,.32.32,0,0,1,.2.18.36.36,0,0,1,0,.25Zm4.52-1.33a1.66,1.66,0,0,1-.12.64,1.42,1.42,0,0,1-.31.48,1.28,1.28,0,0,1-.48.31,1.64,1.64,0,0,1-.6.1,1.57,1.57,0,0,1-.58-.1,1.37,1.37,0,0,1-.48-.31,1.59,1.59,0,0,1-.31-.48,1.87,1.87,0,0,1-.11-.64v-.93a1.81,1.81,0,0,1,.11-.63,1.52,1.52,0,0,1,.31-.49,1.5,1.5,0,0,1,.48-.3,1.4,1.4,0,0,1,.58-.11,1.46,1.46,0,0,1,.6.11,1.39,1.39,0,0,1,.48.3,1.37,1.37,0,0,1,.31.49,1.61,1.61,0,0,1,.12.63Zm-.67-1a.89.89,0,0,0-.22-.64.85.85,0,0,0-.62-.23.78.78,0,0,0-.58.23.9.9,0,0,0-.23.64v1a.89.89,0,0,0,.23.65.78.78,0,0,0,.58.23.82.82,0,0,0,.61-.23.85.85,0,0,0,.23-.65Z"/>
      <path class="cls-2" d="M12.28,91.32a.42.42,0,0,1-.13.31.41.41,0,0,1-.3.12H8.26a.42.42,0,0,1-.3-.12.45.45,0,0,1-.12-.31A.41.41,0,0,1,8,91a.42.42,0,0,1,.3-.12h3.59a.41.41,0,0,1,.3.12A.38.38,0,0,1,12.28,91.32Z"/>
      <path class="cls-2" d="M20.24,92.39A3.6,3.6,0,0,1,20,93.7a3,3,0,0,1-.62,1,2.86,2.86,0,0,1-1,.63,3.55,3.55,0,0,1-1.24.22A2.91,2.91,0,0,1,16,95.29a2.63,2.63,0,0,1-.94-.75,3.42,3.42,0,0,1-.61-1.17,5.42,5.42,0,0,1-.21-1.57A5.8,5.8,0,0,1,14.5,90a9.4,9.4,0,0,1,.77-1.75,13.53,13.53,0,0,1,1.09-1.59,16.79,16.79,0,0,1,1.24-1.38.47.47,0,0,1,.32-.13.45.45,0,0,1,.34.13.44.44,0,0,1,.13.33.29.29,0,0,1,0,.16.42.42,0,0,1-.11.16c-.27.26-.53.54-.79.84s-.51.62-.75,1a10.15,10.15,0,0,0-.66,1,7.39,7.39,0,0,0-.5,1.12,3.14,3.14,0,0,1,.85-.4,2.83,2.83,0,0,1,.85-.13,3.69,3.69,0,0,1,1.15.18,2.75,2.75,0,0,1,.95.56A2.57,2.57,0,0,1,20,91,3.57,3.57,0,0,1,20.24,92.39Zm-.92,0a2.7,2.7,0,0,0-.17-1,1.92,1.92,0,0,0-.45-.7,1.73,1.73,0,0,0-.67-.42,2.32,2.32,0,0,0-.84-.14,2.48,2.48,0,0,0-.63.07,3.13,3.13,0,0,0-.54.19,4.83,4.83,0,0,0-.45.26,3.78,3.78,0,0,0-.36.29,4.78,4.78,0,0,0-.08.84,4.32,4.32,0,0,0,.17,1.32,2.71,2.71,0,0,0,.45.9,1.69,1.69,0,0,0,.66.51,2,2,0,0,0,.79.17,2.23,2.23,0,0,0,.88-.16,1.8,1.8,0,0,0,.67-.45,2.14,2.14,0,0,0,.42-.72A3,3,0,0,0,19.32,92.4Z"/>
      <path class="cls-2" d="M28.25,91.85a5.37,5.37,0,0,1-.18,1.4,3.3,3.3,0,0,1-.56,1.18,2.69,2.69,0,0,1-1,.81,3.55,3.55,0,0,1-2.9,0,2.69,2.69,0,0,1-1-.81,3.46,3.46,0,0,1-.55-1.18,5.37,5.37,0,0,1-.18-1.4V88.79a5.35,5.35,0,0,1,.18-1.39,3.37,3.37,0,0,1,.55-1.18,2.81,2.81,0,0,1,1-.82,3.55,3.55,0,0,1,2.9,0,2.81,2.81,0,0,1,1,.82,3.22,3.22,0,0,1,.56,1.18,5.35,5.35,0,0,1,.18,1.39Zm-.93-3a4.57,4.57,0,0,0-.13-1.14,2.45,2.45,0,0,0-.4-.91,1.92,1.92,0,0,0-.7-.6,2.15,2.15,0,0,0-1-.22,2.12,2.12,0,0,0-1,.22,1.81,1.81,0,0,0-.69.6,2.45,2.45,0,0,0-.4.91,4.57,4.57,0,0,0-.13,1.14v3A4.57,4.57,0,0,0,23,93a2.63,2.63,0,0,0,.4.9,1.88,1.88,0,0,0,.69.59,2.12,2.12,0,0,0,1,.22,2.15,2.15,0,0,0,1-.22,2,2,0,0,0,.7-.59,2.63,2.63,0,0,0,.4-.9,4.57,4.57,0,0,0,.13-1.14Z"/>
      <path class="cls-2" d="M32.8,87.56a1.81,1.81,0,0,1-.11.63,1.64,1.64,0,0,1-.31.49,1.52,1.52,0,0,1-1.06.41,1.54,1.54,0,0,1-.61-.11,1.35,1.35,0,0,1-.47-.3,1.64,1.64,0,0,1-.31-.49,1.81,1.81,0,0,1-.11-.63v-.93a1.81,1.81,0,0,1,.11-.63,1.47,1.47,0,0,1,.31-.48,1.4,1.4,0,0,1,.47-.32,1.74,1.74,0,0,1,.61-.11,1.63,1.63,0,0,1,.59.11,1.51,1.51,0,0,1,.47.32,1.47,1.47,0,0,1,.31.48,1.81,1.81,0,0,1,.11.63Zm-.67-1a1,1,0,0,0-.22-.66.88.88,0,0,0-1.19,0,.89.89,0,0,0-.23.66v1a.84.84,0,0,0,.23.64.86.86,0,0,0,1.19,0,.92.92,0,0,0,.22-.64Zm-.75,8.74a.29.29,0,0,1-.18.19.28.28,0,0,1-.25,0,.27.27,0,0,1-.19-.17.33.33,0,0,1,0-.26l3.58-9.8a.47.47,0,0,1,.18-.19.3.3,0,0,1,.26,0,.32.32,0,0,1,.2.18.36.36,0,0,1,0,.25ZM35.9,94a1.62,1.62,0,0,1-.12.64,1.33,1.33,0,0,1-.31.48,1.28,1.28,0,0,1-.48.31,1.64,1.64,0,0,1-.6.11,1.58,1.58,0,0,1-.58-.11,1.37,1.37,0,0,1-.48-.31,1.47,1.47,0,0,1-.31-.48,1.83,1.83,0,0,1-.11-.64v-.92a1.83,1.83,0,0,1,.11-.64,1.64,1.64,0,0,1,.31-.49,1.5,1.5,0,0,1,.48-.3,1.4,1.4,0,0,1,.58-.11,1.46,1.46,0,0,1,.6.11,1.39,1.39,0,0,1,.48.3,1.46,1.46,0,0,1,.31.49,1.62,1.62,0,0,1,.12.64Zm-.67-1a.85.85,0,0,0-.22-.63.81.81,0,0,0-.62-.23.75.75,0,0,0-.58.23.85.85,0,0,0-.23.63v1a.89.89,0,0,0,.23.65.78.78,0,0,0,.58.23A.82.82,0,0,0,35,94.7a.85.85,0,0,0,.23-.65Z"/>
      <path class="cls-2" d="M12.28,115.1a.41.41,0,0,1-.13.3.42.42,0,0,1-.3.13H8.26a.43.43,0,0,1-.3-.13.44.44,0,0,1-.12-.3.45.45,0,0,1,.12-.31.42.42,0,0,1,.3-.12h3.59a.41.41,0,0,1,.3.12A.42.42,0,0,1,12.28,115.1Z"/>
      <path class="cls-2" d="M20.54,116.58a2.57,2.57,0,0,1-.24,1.13,2.39,2.39,0,0,1-.68.86,2.87,2.87,0,0,1-1,.55,4.05,4.05,0,0,1-1.34.2,4.54,4.54,0,0,1-1.3-.18,3.08,3.08,0,0,1-1-.52,2.36,2.36,0,0,1-.69-.85,2.63,2.63,0,0,1-.26-1.18,2.27,2.27,0,0,1,.19-1,2.31,2.31,0,0,1,.5-.73,3.41,3.41,0,0,1,.73-.55c.28-.16.57-.31.88-.45a5.21,5.21,0,0,1-.7-.38A2.46,2.46,0,0,1,15,113a2,2,0,0,1-.39-.66,2.33,2.33,0,0,1-.15-.87,2.74,2.74,0,0,1,.23-1.15,2.25,2.25,0,0,1,.61-.81,2.67,2.67,0,0,1,.89-.49,3.79,3.79,0,0,1,1.07-.16,3.4,3.4,0,0,1,1.08.17,2.6,2.6,0,0,1,.88.49,2.42,2.42,0,0,1,.59.81,2.73,2.73,0,0,1,.21,1.1,2.15,2.15,0,0,1-.13.79,2.12,2.12,0,0,1-.36.64,3,3,0,0,1-.56.51,5.32,5.32,0,0,1-.71.42,7.57,7.57,0,0,1,.86.41,3.07,3.07,0,0,1,.73.54,2.31,2.31,0,0,1,.51.76A2.64,2.64,0,0,1,20.54,116.58Zm-.93,0a1.74,1.74,0,0,0-.2-.86,2,2,0,0,0-.53-.6,3.37,3.37,0,0,0-.77-.44c-.29-.12-.59-.24-.9-.35l-.86.38a3.92,3.92,0,0,0-.75.45,2.16,2.16,0,0,0-.53.6,1.57,1.57,0,0,0-.19.81,1.73,1.73,0,0,0,.66,1.43,2.25,2.25,0,0,0,.74.38,3.16,3.16,0,0,0,.95.14,3.33,3.33,0,0,0,1-.14A2.38,2.38,0,0,0,19,118a1.74,1.74,0,0,0,.63-1.4Zm-.5-5a2.14,2.14,0,0,0-.14-.79,1.69,1.69,0,0,0-.39-.57,1.85,1.85,0,0,0-.59-.35,2.27,2.27,0,0,0-.75-.12,2.3,2.3,0,0,0-.74.12,2,2,0,0,0-.6.34,1.78,1.78,0,0,0-.4.57,1.94,1.94,0,0,0-.15.78,1.55,1.55,0,0,0,.16.71,1.72,1.72,0,0,0,.41.52,2.73,2.73,0,0,0,.62.39,7,7,0,0,0,.73.31c.25-.1.48-.22.71-.33a2.85,2.85,0,0,0,.58-.41,1.77,1.77,0,0,0,.4-.51A1.4,1.4,0,0,0,19.11,111.53Z"/>
      <path class="cls-2" d="M28.25,115.63a5.3,5.3,0,0,1-.18,1.39,3.22,3.22,0,0,1-.56,1.18,2.81,2.81,0,0,1-1,.82,3.65,3.65,0,0,1-2.9,0,2.81,2.81,0,0,1-1-.82A3.37,3.37,0,0,1,22.1,117a5.3,5.3,0,0,1-.18-1.39v-3.07a5.22,5.22,0,0,1,.18-1.38,3.29,3.29,0,0,1,.55-1.18,2.62,2.62,0,0,1,1-.82,3.55,3.55,0,0,1,2.9,0,2.62,2.62,0,0,1,1,.82,3.15,3.15,0,0,1,.56,1.18,5.22,5.22,0,0,1,.18,1.38Zm-.93-3a4.57,4.57,0,0,0-.13-1.14,2.52,2.52,0,0,0-.4-.91,2,2,0,0,0-.7-.6,2.28,2.28,0,0,0-1-.21,2.25,2.25,0,0,0-1,.21,1.9,1.9,0,0,0-.69.6,2.52,2.52,0,0,0-.4.91,4.57,4.57,0,0,0-.13,1.14v3a4.57,4.57,0,0,0,.13,1.14,2.47,2.47,0,0,0,.4.9,2,2,0,0,0,.69.6,2.25,2.25,0,0,0,1,.21,2.28,2.28,0,0,0,1-.21,2.13,2.13,0,0,0,.7-.6,2.47,2.47,0,0,0,.4-.9,4.57,4.57,0,0,0,.13-1.14Z"/>
      <path class="cls-2" d="M32.8,111.33a1.81,1.81,0,0,1-.11.63,1.42,1.42,0,0,1-.31.49,1.67,1.67,0,0,1-.47.31,1.63,1.63,0,0,1-.59.11,1.74,1.74,0,0,1-.61-.11,1.54,1.54,0,0,1-.47-.31,1.42,1.42,0,0,1-.31-.49,1.81,1.81,0,0,1-.11-.63v-.92a1.83,1.83,0,0,1,.11-.64,1.47,1.47,0,0,1,.31-.48,1.25,1.25,0,0,1,.47-.31,1.54,1.54,0,0,1,.61-.11,1.44,1.44,0,0,1,.59.11,1.33,1.33,0,0,1,.47.31,1.47,1.47,0,0,1,.31.48,1.83,1.83,0,0,1,.11.64Zm-.67-1a1,1,0,0,0-.22-.66.86.86,0,0,0-1.19,0,.89.89,0,0,0-.23.66v1a.88.88,0,0,0,.23.65.88.88,0,0,0,1.19,0,1,1,0,0,0,.22-.65Zm-.75,8.73a.3.3,0,0,1-.18.2.36.36,0,0,1-.25,0,.32.32,0,0,1-.19-.17.34.34,0,0,1,0-.26l3.58-9.81a.39.39,0,0,1,.18-.18.34.34,0,0,1,.26,0,.39.39,0,0,1,.2.18.36.36,0,0,1,0,.25Zm4.52-1.33a1.62,1.62,0,0,1-.12.64,1.46,1.46,0,0,1-.31.49,1.39,1.39,0,0,1-.48.3,1.64,1.64,0,0,1-.6.11,1.58,1.58,0,0,1-.58-.11,1.5,1.5,0,0,1-.48-.3,1.64,1.64,0,0,1-.31-.49,1.83,1.83,0,0,1-.11-.64v-.92a1.87,1.87,0,0,1,.11-.64,1.47,1.47,0,0,1,.31-.48,1.52,1.52,0,0,1,.48-.31,1.58,1.58,0,0,1,.58-.11,1.64,1.64,0,0,1,.6.11,1.42,1.42,0,0,1,.48.31,1.33,1.33,0,0,1,.31.48,1.66,1.66,0,0,1,.12.64Zm-.67-1a.86.86,0,0,0-.22-.64.85.85,0,0,0-.62-.23.78.78,0,0,0-.58.23.86.86,0,0,0-.23.64v1a.93.93,0,0,0,.23.66.78.78,0,0,0,.58.22.82.82,0,0,0,.61-.22.89.89,0,0,0,.23-.66Z"/>
      <path class="cls-2" d="M4.44,138.87a.42.42,0,0,1-.13.3.38.38,0,0,1-.3.13H.42a.39.39,0,0,1-.3-.13.43.43,0,0,1,0-.6.39.39,0,0,1,.3-.13H4a.38.38,0,0,1,.3.13A.42.42,0,0,1,4.44,138.87Z"/>
      <path class="cls-2" d="M12.31,142.54a.41.41,0,0,1-.12.3.42.42,0,0,1-.31.13h-5a.44.44,0,0,1-.32-.13.38.38,0,0,1-.13-.3.41.41,0,0,1,.13-.32.44.44,0,0,1,.32-.13H9.4v-8.18L6.67,135.8a.44.44,0,0,1-.61-.11.46.46,0,0,1-.07-.34.45.45,0,0,1,.19-.28l3.39-2.33a.43.43,0,0,1,.29-.1.44.44,0,0,1,.33.13.45.45,0,0,1,.14.33v9h1.55a.42.42,0,0,1,.31.13A.44.44,0,0,1,12.31,142.54Z"/>
      <path class="cls-2" d="M20.41,139.4a5.3,5.3,0,0,1-.18,1.39,3.31,3.31,0,0,1-.56,1.18,2.71,2.71,0,0,1-1,.82,3.2,3.2,0,0,1-1.45.3,3.2,3.2,0,0,1-1.45-.3,2.71,2.71,0,0,1-1-.82,3.29,3.29,0,0,1-.55-1.18,5.3,5.3,0,0,1-.18-1.39v-3.07a5.22,5.22,0,0,1,.18-1.38,3.29,3.29,0,0,1,.55-1.18,2.71,2.71,0,0,1,1-.82,3.08,3.08,0,0,1,1.45-.31,3.08,3.08,0,0,1,1.45.31,2.71,2.71,0,0,1,1,.82,3.31,3.31,0,0,1,.56,1.18,5.22,5.22,0,0,1,.18,1.38Zm-.93-3a4.57,4.57,0,0,0-.13-1.14,2.6,2.6,0,0,0-.4-.91,2.13,2.13,0,0,0-.7-.6,2.28,2.28,0,0,0-1-.21,2.25,2.25,0,0,0-1,.21,2,2,0,0,0-.7.6,2.8,2.8,0,0,0-.4.91,5.1,5.1,0,0,0-.13,1.14v3a5.1,5.1,0,0,0,.13,1.14,2.65,2.65,0,0,0,.4.9,1.84,1.84,0,0,0,.7.6,2.25,2.25,0,0,0,1,.21,2.28,2.28,0,0,0,1-.21,1.92,1.92,0,0,0,.7-.6,2.47,2.47,0,0,0,.4-.9,4.57,4.57,0,0,0,.13-1.14Z"/>
      <path class="cls-2" d="M28.25,139.4a5.3,5.3,0,0,1-.18,1.39,3.15,3.15,0,0,1-.56,1.18,2.71,2.71,0,0,1-1,.82,3.65,3.65,0,0,1-2.9,0,2.71,2.71,0,0,1-1-.82,3.29,3.29,0,0,1-.55-1.18,5.3,5.3,0,0,1-.18-1.39v-3.07A5.22,5.22,0,0,1,22.1,135a3.29,3.29,0,0,1,.55-1.18,2.71,2.71,0,0,1,1-.82,3.55,3.55,0,0,1,2.9,0,2.71,2.71,0,0,1,1,.82,3.15,3.15,0,0,1,.56,1.18,5.22,5.22,0,0,1,.18,1.38Zm-.93-3a4.57,4.57,0,0,0-.13-1.14,2.6,2.6,0,0,0-.4-.91,2.13,2.13,0,0,0-.7-.6,2.28,2.28,0,0,0-1-.21,2.25,2.25,0,0,0-1,.21,2,2,0,0,0-.69.6,2.6,2.6,0,0,0-.4.91,4.57,4.57,0,0,0-.13,1.14v3a4.57,4.57,0,0,0,.13,1.14,2.47,2.47,0,0,0,.4.9,1.81,1.81,0,0,0,.69.6,2.25,2.25,0,0,0,1,.21,2.28,2.28,0,0,0,1-.21,1.92,1.92,0,0,0,.7-.6,2.47,2.47,0,0,0,.4-.9,4.57,4.57,0,0,0,.13-1.14Z"/>
      <path class="cls-2" d="M32.8,135.1a1.87,1.87,0,0,1-.11.64,1.38,1.38,0,0,1-.78.79,1.63,1.63,0,0,1-.59.11,1.74,1.74,0,0,1-.61-.11,1.38,1.38,0,0,1-.47-.31,1.47,1.47,0,0,1-.31-.48,1.87,1.87,0,0,1-.11-.64v-.92a1.77,1.77,0,0,1,.11-.63,1.52,1.52,0,0,1,.31-.49,1.38,1.38,0,0,1,.47-.31,1.74,1.74,0,0,1,.61-.11,1.63,1.63,0,0,1,.59.11,1.48,1.48,0,0,1,.47.31,1.52,1.52,0,0,1,.31.49,1.77,1.77,0,0,1,.11.63Zm-.67-.95a1,1,0,0,0-.22-.66.77.77,0,0,0-.59-.23.78.78,0,0,0-.6.23.89.89,0,0,0-.23.66v1a.86.86,0,0,0,.23.65.78.78,0,0,0,.6.23.77.77,0,0,0,.59-.23.94.94,0,0,0,.22-.65Zm-.75,8.74a.31.31,0,0,1-.18.19.36.36,0,0,1-.25,0,.29.29,0,0,1-.19-.17.33.33,0,0,1,0-.26l3.58-9.8a.37.37,0,0,1,.18-.19.34.34,0,0,1,.26,0,.39.39,0,0,1,.2.18.36.36,0,0,1,0,.25Zm4.52-1.34a1.62,1.62,0,0,1-.12.64,1.46,1.46,0,0,1-.31.49A1.42,1.42,0,0,1,35,143a1.64,1.64,0,0,1-.6.1,1.57,1.57,0,0,1-.58-.1,1.52,1.52,0,0,1-.48-.31,1.64,1.64,0,0,1-.31-.49,1.83,1.83,0,0,1-.11-.64v-.92A1.81,1.81,0,0,1,33,140a1.42,1.42,0,0,1,.31-.49,1.72,1.72,0,0,1,.48-.31,1.58,1.58,0,0,1,.58-.11,1.64,1.64,0,0,1,.6.11,1.59,1.59,0,0,1,.48.31,1.29,1.29,0,0,1,.31.49,1.61,1.61,0,0,1,.12.63Zm-.67-1A.87.87,0,0,0,35,140a.85.85,0,0,0-.62-.23.78.78,0,0,0-.58.23.88.88,0,0,0-.23.64v1a.89.89,0,0,0,.23.65.78.78,0,0,0,.58.23.82.82,0,0,0,.61-.23.85.85,0,0,0,.23-.65Z"/>
      <path class="cls-2" d="M59.34,14.66a.46.46,0,0,1-.13.32.42.42,0,0,1-.31.13H53.82a.42.42,0,0,1-.33-.13.44.44,0,0,1-.12-.32,3.53,3.53,0,0,1,.11-.88,4.65,4.65,0,0,1,.31-.76,4.55,4.55,0,0,1,.46-.66,5.83,5.83,0,0,1,.55-.56,7.07,7.07,0,0,1,.78-.65l.81-.6.77-.61a4.36,4.36,0,0,0,.64-.65,2.73,2.73,0,0,0,.44-.73,2.15,2.15,0,0,0,.17-.85,2.63,2.63,0,0,0-.12-.8,1.94,1.94,0,0,0-.37-.66,1.64,1.64,0,0,0-.63-.45,2.23,2.23,0,0,0-.9-.16,3.93,3.93,0,0,0-.82.08,2.92,2.92,0,0,0-.65.24,2,2,0,0,0-.34.2l-.22.17-.16.12a.35.35,0,0,1-.18,0,.48.48,0,0,1-.31-.13A.44.44,0,0,1,53.58,6a.55.55,0,0,1,0-.17.83.83,0,0,1,.12-.16A3.53,3.53,0,0,1,54.88,5a4.47,4.47,0,0,1,1.53-.24A3.09,3.09,0,0,1,57.72,5a2.53,2.53,0,0,1,.91.64,2.82,2.82,0,0,1,.53.94,3.38,3.38,0,0,1,.18,1.1,3,3,0,0,1-.2,1.1,3.36,3.36,0,0,1-.52.9,4.75,4.75,0,0,1-.73.76c-.28.24-.57.46-.86.68l-.89.66a9.17,9.17,0,0,0-.81.69,5.2,5.2,0,0,0-.63.79,2.47,2.47,0,0,0-.35.94H58.9a.44.44,0,0,1,.44.43Z"/>
      <path class="cls-2" d="M67.38,11.54a5.69,5.69,0,0,1-.17,1.39,3.31,3.31,0,0,1-.56,1.18,2.62,2.62,0,0,1-1,.82,3.26,3.26,0,0,1-1.45.3,3.2,3.2,0,0,1-1.45-.3,2.62,2.62,0,0,1-1-.82,3.31,3.31,0,0,1-.56-1.18,5.69,5.69,0,0,1-.17-1.39V8.47a5.73,5.73,0,0,1,.17-1.38,3.31,3.31,0,0,1,.56-1.18,2.81,2.81,0,0,1,1-.82,3.08,3.08,0,0,1,1.45-.31,3.13,3.13,0,0,1,1.45.31,2.81,2.81,0,0,1,1,.82,3.31,3.31,0,0,1,.56,1.18,5.73,5.73,0,0,1,.17,1.38Zm-.92-3a4.57,4.57,0,0,0-.13-1.14,2.61,2.61,0,0,0-.41-.91,1.91,1.91,0,0,0-.7-.59,2.41,2.41,0,0,0-2,0,1.83,1.83,0,0,0-.7.59,2.8,2.8,0,0,0-.4.91A4.57,4.57,0,0,0,62,8.51v3a4.49,4.49,0,0,0,.13,1.13,2.8,2.8,0,0,0,.4.91,1.83,1.83,0,0,0,.7.59,2.41,2.41,0,0,0,2,0,1.91,1.91,0,0,0,.7-.59,2.61,2.61,0,0,0,.41-.91,4.49,4.49,0,0,0,.13-1.13Z"/>
      <path class="cls-2" d="M75,14.66a.46.46,0,0,1-.13.32.42.42,0,0,1-.31.13H69.5a.42.42,0,0,1-.33-.13.44.44,0,0,1-.12-.32,3.12,3.12,0,0,1,.12-.88,3.37,3.37,0,0,1,.31-.76,3.84,3.84,0,0,1,.45-.66,5.83,5.83,0,0,1,.55-.56,8.14,8.14,0,0,1,.78-.65l.81-.6.77-.61a4.36,4.36,0,0,0,.64-.65,2.73,2.73,0,0,0,.44-.73,2.15,2.15,0,0,0,.17-.85,2.63,2.63,0,0,0-.12-.8,1.79,1.79,0,0,0-.37-.66A1.68,1.68,0,0,0,73,5.8a2.31,2.31,0,0,0-.91-.16,4,4,0,0,0-.82.08A2.92,2.92,0,0,0,70.6,6a1.59,1.59,0,0,0-.33.2L70,6.33l-.16.12a.34.34,0,0,1-.17,0,.48.48,0,0,1-.32-.13A.49.49,0,0,1,69.26,6a.38.38,0,0,1,0-.17.51.51,0,0,1,.11-.16A3.64,3.64,0,0,1,70.56,5a4.47,4.47,0,0,1,1.53-.24A3.09,3.09,0,0,1,73.4,5a2.53,2.53,0,0,1,.91.64,2.66,2.66,0,0,1,.53.94A3.38,3.38,0,0,1,75,7.71a3,3,0,0,1-.2,1.1,3.61,3.61,0,0,1-.51.9,5.3,5.3,0,0,1-.74.76c-.28.24-.57.46-.86.68l-.89.66a7.79,7.79,0,0,0-.8.69,4.71,4.71,0,0,0-.64.79,2.65,2.65,0,0,0-.35.94h4.55a.44.44,0,0,1,.44.43Z"/>
      <path class="cls-2" d="M82.78,12.06a3.86,3.86,0,0,1-.18,1.17,2.88,2.88,0,0,1-.58,1A2.75,2.75,0,0,1,81,15a3.56,3.56,0,0,1-1.46.27,4.69,4.69,0,0,1-1.14-.13,2.83,2.83,0,0,1-1.06-.52.47.47,0,0,1-.22-.38.5.5,0,0,1,.13-.32.45.45,0,0,1,.32-.14l.13,0a.35.35,0,0,1,.13.08,2.7,2.7,0,0,0,.78.42,3.37,3.37,0,0,0,.93.13,2.75,2.75,0,0,0,1.06-.19,1.9,1.9,0,0,0,.71-.52,2,2,0,0,0,.4-.74,2.84,2.84,0,0,0,.13-.88,2.38,2.38,0,0,0-.55-1.73,2,2,0,0,0-1.52-.56,2.14,2.14,0,0,0-.65.08,2,2,0,0,0-.51.26c-.11.09-.2.16-.27.23l-.19.19-.16.12a.31.31,0,0,1-.2,0,.43.43,0,0,1-.31-.12.41.41,0,0,1-.12-.34l.15-4.9A.44.44,0,0,1,77.68,5,.47.47,0,0,1,78,4.91h3.78A.45.45,0,0,1,82.1,5a.45.45,0,0,1,.12.31.43.43,0,0,1-.44.43H78.4l-.11,3.66A2,2,0,0,1,79,9.05a2.39,2.39,0,0,1,.82-.13,3.43,3.43,0,0,1,1.24.21,2.39,2.39,0,0,1,.93.61,2.7,2.7,0,0,1,.58,1A3.91,3.91,0,0,1,82.78,12.06Z"/>
      <path class="cls-2" d="M89.91,11.53a.34.34,0,0,1-.11.28.37.37,0,0,1-.25.1H85.49v.41a3.28,3.28,0,0,0,.1.86,1.88,1.88,0,0,0,.32.65,1.56,1.56,0,0,0,.56.42,2,2,0,0,0,.81.15,3.68,3.68,0,0,0,1.07-.13,3.44,3.44,0,0,0,.78-.32.32.32,0,0,1,.3,0,.35.35,0,0,1,.22.21.39.39,0,0,1,0,.28.41.41,0,0,1-.18.24,3.42,3.42,0,0,1-1,.41,5,5,0,0,1-1.19.13A2.89,2.89,0,0,1,86,15a2.08,2.08,0,0,1-.82-.63,2.39,2.39,0,0,1-.46-.93,4.52,4.52,0,0,1-.14-1.12V11a4.52,4.52,0,0,1,.14-1.12,2.62,2.62,0,0,1,.46-.93A2.31,2.31,0,0,1,86,8.29a2.81,2.81,0,0,1,1.23-.23,2.94,2.94,0,0,1,1.25.23,2.08,2.08,0,0,1,.82.63,2.54,2.54,0,0,1,.44.92A4.47,4.47,0,0,1,89.91,11ZM89,10.87A3.61,3.61,0,0,0,89,10a1.65,1.65,0,0,0-.3-.64A1.39,1.39,0,0,0,88.11,9a2.11,2.11,0,0,0-.84-.14,2,2,0,0,0-.82.14,1.37,1.37,0,0,0-.55.42,1.74,1.74,0,0,0-.31.64,3.25,3.25,0,0,0-.1.85v.26H89Z"/>
      <path class="cls-2" d="M155.94,14.66a.42.42,0,0,1-.13.32.39.39,0,0,1-.3.13h-5.08a.4.4,0,0,1-.33-.13.44.44,0,0,1-.12-.32,3.12,3.12,0,0,1,.11-.88,3.91,3.91,0,0,1,.31-.76,3.39,3.39,0,0,1,.46-.66,5.73,5.73,0,0,1,.54-.56,8.27,8.27,0,0,1,.79-.65l.81-.6.77-.61a4.9,4.9,0,0,0,.64-.65,3,3,0,0,0,.44-.73,2.15,2.15,0,0,0,.16-.85,2.63,2.63,0,0,0-.12-.8,1.92,1.92,0,0,0-.36-.66,1.72,1.72,0,0,0-.63-.45,2.23,2.23,0,0,0-.9-.16,4.1,4.1,0,0,0-.83.08,2.84,2.84,0,0,0-.64.24,2,2,0,0,0-.34.2l-.22.17-.17.12a.31.31,0,0,1-.17,0,.46.46,0,0,1-.31-.13.44.44,0,0,1-.13-.33.55.55,0,0,1,0-.17.42.42,0,0,1,.12-.16A3.43,3.43,0,0,1,151.49,5,4.39,4.39,0,0,1,153,4.78a3.13,3.13,0,0,1,1.31.25,2.62,2.62,0,0,1,.91.64,3,3,0,0,1,.53.94,3.67,3.67,0,0,1,.17,1.1,3,3,0,0,1-.19,1.1,3.36,3.36,0,0,1-.52.9,4.82,4.82,0,0,1-.74.76c-.27.24-.56.46-.86.68l-.88.66a7,7,0,0,0-.81.69,5.2,5.2,0,0,0-.63.79,2.49,2.49,0,0,0-.36.94h4.56a.39.39,0,0,1,.3.13A.38.38,0,0,1,155.94,14.66Z"/>
      <path class="cls-2" d="M164,11.54a5.69,5.69,0,0,1-.17,1.39,3.48,3.48,0,0,1-.56,1.18,2.73,2.73,0,0,1-1,.82,3.63,3.63,0,0,1-2.89,0,2.65,2.65,0,0,1-1-.82,3.47,3.47,0,0,1-.55-1.18,5.24,5.24,0,0,1-.17-1.39V8.47a5.27,5.27,0,0,1,.17-1.38,3.47,3.47,0,0,1,.55-1.18,2.85,2.85,0,0,1,1-.82,3.52,3.52,0,0,1,2.89,0,2.94,2.94,0,0,1,1,.82,3.48,3.48,0,0,1,.56,1.18A5.73,5.73,0,0,1,164,8.47Zm-.92-3a5.1,5.1,0,0,0-.13-1.14,2.81,2.81,0,0,0-.41-.91,2,2,0,0,0-.7-.59,2.43,2.43,0,0,0-2,0,1.88,1.88,0,0,0-.69.59,2.8,2.8,0,0,0-.4.91,4.57,4.57,0,0,0-.13,1.14v3a4.49,4.49,0,0,0,.13,1.13,2.8,2.8,0,0,0,.4.91,1.88,1.88,0,0,0,.69.59,2.43,2.43,0,0,0,2,0,2,2,0,0,0,.7-.59,2.81,2.81,0,0,0,.41-.91,5,5,0,0,0,.13-1.13Z"/>
      <path class="cls-2" d="M171.44,12.34a3.15,3.15,0,0,1-.2,1.1,2.55,2.55,0,0,1-.59.92,2.78,2.78,0,0,1-1,.64,3.66,3.66,0,0,1-1.38.23,6.69,6.69,0,0,1-.8,0,4.09,4.09,0,0,1-.71-.17,3.56,3.56,0,0,1-.65-.32,3.78,3.78,0,0,1-.6-.5.43.43,0,0,1-.16-.32.46.46,0,0,1,.13-.31.42.42,0,0,1,.3-.13.24.24,0,0,1,.14.05.83.83,0,0,1,.16.12l.21.18a2.35,2.35,0,0,0,.31.21,2.31,2.31,0,0,0,.76.33,3.38,3.38,0,0,0,.88.1,2.75,2.75,0,0,0,1-.17,2,2,0,0,0,.72-.47,1.77,1.77,0,0,0,.42-.68,2.54,2.54,0,0,0,.14-.83,2.13,2.13,0,0,0-.2-1,1.56,1.56,0,0,0-.54-.6,2.44,2.44,0,0,0-.79-.33,5.75,5.75,0,0,0-.95-.11l-.15,0a.24.24,0,0,1-.14,0,.36.36,0,0,1-.11-.13.4.4,0,0,1,0-.2.44.44,0,0,1,0-.21.46.46,0,0,1,.12-.12.27.27,0,0,1,.14-.07l.14,0,.49-.06a4.84,4.84,0,0,0,.51-.14,2.47,2.47,0,0,0,.49-.24,1.49,1.49,0,0,0,.41-.34,1.89,1.89,0,0,0,.28-.48,1.68,1.68,0,0,0,.1-.62,2.53,2.53,0,0,0-.1-.71,1.64,1.64,0,0,0-.32-.63,1.73,1.73,0,0,0-.62-.46,2.21,2.21,0,0,0-.95-.18,3.11,3.11,0,0,0-.84.11,3.15,3.15,0,0,0-.67.29,1.94,1.94,0,0,0-.3.21l-.2.17-.15.12a.28.28,0,0,1-.16,0,.43.43,0,0,1-.28-.11.41.41,0,0,1-.12-.3.45.45,0,0,1,.17-.35,2.4,2.4,0,0,1,.44-.39,3.22,3.22,0,0,1,.58-.32,3.69,3.69,0,0,1,.71-.22,4.44,4.44,0,0,1,.84-.08,3.15,3.15,0,0,1,1.35.26,2.55,2.55,0,0,1,.87.65,2.59,2.59,0,0,1,.47.88,3.45,3.45,0,0,1,.14.94,2.37,2.37,0,0,1-.13.83,1.91,1.91,0,0,1-.34.65,2,2,0,0,1-.52.48,3.09,3.09,0,0,1-.68.34,3.73,3.73,0,0,1,.79.32,2.46,2.46,0,0,1,.6.51,2.08,2.08,0,0,1,.39.72A3.22,3.22,0,0,1,171.44,12.34Z"/>
      <path class="cls-2" d="M179.67,11.54a5.69,5.69,0,0,1-.17,1.39,3.48,3.48,0,0,1-.56,1.18,2.69,2.69,0,0,1-1,.82,3.26,3.26,0,0,1-1.45.3,3.2,3.2,0,0,1-1.45-.3,2.62,2.62,0,0,1-1-.82,3.31,3.31,0,0,1-.56-1.18,5.69,5.69,0,0,1-.17-1.39V8.47a5.73,5.73,0,0,1,.17-1.38,3.31,3.31,0,0,1,.56-1.18,2.81,2.81,0,0,1,1-.82,3.08,3.08,0,0,1,1.45-.31,3.13,3.13,0,0,1,1.45.31,2.91,2.91,0,0,1,1,.82,3.48,3.48,0,0,1,.56,1.18,5.73,5.73,0,0,1,.17,1.38Zm-.92-3a4.57,4.57,0,0,0-.13-1.14,2.61,2.61,0,0,0-.41-.91,1.91,1.91,0,0,0-.7-.59,2.11,2.11,0,0,0-1-.22,2.16,2.16,0,0,0-1,.22,1.88,1.88,0,0,0-.69.59,2.8,2.8,0,0,0-.4.91,4.57,4.57,0,0,0-.13,1.14v3a4.49,4.49,0,0,0,.13,1.13,2.8,2.8,0,0,0,.4.91,1.88,1.88,0,0,0,.69.59,2.16,2.16,0,0,0,1,.22,2.11,2.11,0,0,0,1-.22,1.91,1.91,0,0,0,.7-.59,2.61,2.61,0,0,0,.41-.91,4.49,4.49,0,0,0,.13-1.13Z"/>
      <path class="cls-2" d="M186.52,11.53a.38.38,0,0,1-.11.28.39.39,0,0,1-.25.1H182.1v.41a3.28,3.28,0,0,0,.1.86,1.88,1.88,0,0,0,.32.65,1.48,1.48,0,0,0,.56.42,2,2,0,0,0,.81.15,3.73,3.73,0,0,0,1.07-.13,3.18,3.18,0,0,0,.77-.32.35.35,0,0,1,.31,0,.36.36,0,0,1,.21.21.45.45,0,0,1,0,.28.41.41,0,0,1-.18.24,3.42,3.42,0,0,1-1,.41,5,5,0,0,1-1.19.13,2.86,2.86,0,0,1-1.24-.23,2.18,2.18,0,0,1-.83-.63,2.52,2.52,0,0,1-.45-.93,4.09,4.09,0,0,1-.14-1.12V11a4.09,4.09,0,0,1,.14-1.12,2.62,2.62,0,0,1,.46-.93,2.28,2.28,0,0,1,.82-.64,2.89,2.89,0,0,1,1.24-.23,2.94,2.94,0,0,1,1.25.23,2,2,0,0,1,.81.63,2.4,2.4,0,0,1,.45.92,4.47,4.47,0,0,1,.13,1.12Zm-.87-.66a3.61,3.61,0,0,0-.09-.84,1.65,1.65,0,0,0-.3-.64,1.35,1.35,0,0,0-.55-.41,2.5,2.5,0,0,0-1.65,0,1.37,1.37,0,0,0-.55.42,1.59,1.59,0,0,0-.31.64,3.25,3.25,0,0,0-.1.85v.26h3.55Z"/>
      <path class="cls-2" d="M252.55,14.66a.42.42,0,0,1-.13.32.42.42,0,0,1-.31.13H247a.42.42,0,0,1-.33-.13.44.44,0,0,1-.12-.32,3.12,3.12,0,0,1,.12-.88A3.91,3.91,0,0,1,247,13a3.84,3.84,0,0,1,.45-.66,7.3,7.3,0,0,1,.55-.56,9.59,9.59,0,0,1,.78-.65l.82-.6.76-.61a4.44,4.44,0,0,0,.65-.65,3,3,0,0,0,.44-.73,2.15,2.15,0,0,0,.16-.85,2.63,2.63,0,0,0-.12-.8,1.92,1.92,0,0,0-.36-.66,1.81,1.81,0,0,0-.63-.45,2.25,2.25,0,0,0-.91-.16,4,4,0,0,0-.82.08,3.12,3.12,0,0,0-.65.24,2.39,2.39,0,0,0-.33.2l-.22.17-.17.12a.34.34,0,0,1-.17,0,.46.46,0,0,1-.45-.46.59.59,0,0,1,0-.17.42.42,0,0,1,.12-.16A3.43,3.43,0,0,1,248.1,5a4.37,4.37,0,0,1,1.52-.24,3.06,3.06,0,0,1,1.31.25,2.53,2.53,0,0,1,.91.64,2.85,2.85,0,0,1,.54.94,3.67,3.67,0,0,1,.17,1.1,3,3,0,0,1-.19,1.1,3.65,3.65,0,0,1-.52.9,4.82,4.82,0,0,1-.74.76c-.28.24-.56.46-.86.68l-.88.66a7,7,0,0,0-.81.69,4.2,4.2,0,0,0-.63.79,2.49,2.49,0,0,0-.36.94h4.55a.42.42,0,0,1,.31.13A.38.38,0,0,1,252.55,14.66Z"/>
      <path class="cls-2" d="M260.6,11.54a5.24,5.24,0,0,1-.18,1.39,3.29,3.29,0,0,1-.55,1.18,2.73,2.73,0,0,1-1,.82,3.65,3.65,0,0,1-2.9,0,2.62,2.62,0,0,1-1-.82,3.29,3.29,0,0,1-.55-1.18,5.24,5.24,0,0,1-.18-1.39V8.47a5.28,5.28,0,0,1,.18-1.38A3.29,3.29,0,0,1,255,5.91a2.81,2.81,0,0,1,1-.82,3.55,3.55,0,0,1,2.9,0,2.94,2.94,0,0,1,1,.82,3.29,3.29,0,0,1,.55,1.18,5.28,5.28,0,0,1,.18,1.38Zm-.93-3a4.57,4.57,0,0,0-.13-1.14,2.6,2.6,0,0,0-.4-.91,2,2,0,0,0-.7-.59,2.15,2.15,0,0,0-1-.22,2.12,2.12,0,0,0-1,.22,1.88,1.88,0,0,0-.69.59,2.6,2.6,0,0,0-.4.91,4.57,4.57,0,0,0-.13,1.14v3a4.49,4.49,0,0,0,.13,1.13,2.6,2.6,0,0,0,.4.91,1.88,1.88,0,0,0,.69.59,2.12,2.12,0,0,0,1,.22,2.15,2.15,0,0,0,1-.22,2,2,0,0,0,.7-.59,2.6,2.6,0,0,0,.4-.91,4.49,4.49,0,0,0,.13-1.13Z"/>
      <path class="cls-2" d="M268.05,12.34a3.15,3.15,0,0,1-.2,1.1,2.55,2.55,0,0,1-.59.92,2.78,2.78,0,0,1-1,.64,3.72,3.72,0,0,1-1.39.23,6.52,6.52,0,0,1-.79,0,3.88,3.88,0,0,1-.71-.17,3.56,3.56,0,0,1-.65-.32,3.39,3.39,0,0,1-.6-.5.4.4,0,0,1-.16-.32.42.42,0,0,1,.13-.31.41.41,0,0,1,.29-.13.3.3,0,0,1,.15.05l.16.12.21.18a3,3,0,0,0,.3.21,2.36,2.36,0,0,0,.77.33,3.38,3.38,0,0,0,.88.1,2.79,2.79,0,0,0,1-.17,1.92,1.92,0,0,0,.71-.47,1.79,1.79,0,0,0,.43-.68,2.54,2.54,0,0,0,.14-.83,2.13,2.13,0,0,0-.2-1,1.74,1.74,0,0,0-.54-.6,2.44,2.44,0,0,0-.79-.33,5.75,5.75,0,0,0-.95-.11l-.15,0a.24.24,0,0,1-.14,0,.28.28,0,0,1-.11-.13.39.39,0,0,1-.05-.2.43.43,0,0,1,.05-.21.43.43,0,0,1,.11-.12.3.3,0,0,1,.15-.07l.14,0,.49-.06a4.84,4.84,0,0,0,.51-.14,2.47,2.47,0,0,0,.49-.24,1.45,1.45,0,0,0,.4-.34,1.64,1.64,0,0,0,.28-.48,1.49,1.49,0,0,0,.11-.62,2.53,2.53,0,0,0-.1-.71,1.53,1.53,0,0,0-.33-.63,1.61,1.61,0,0,0-.61-.46A2.21,2.21,0,0,0,265,5.6a3.11,3.11,0,0,0-.84.11,3.15,3.15,0,0,0-.67.29,1.94,1.94,0,0,0-.3.21l-.2.17-.15.12a.28.28,0,0,1-.16,0,.41.41,0,0,1-.28-.11.38.38,0,0,1-.13-.3.49.49,0,0,1,.17-.35,2.87,2.87,0,0,1,.45-.39,3.22,3.22,0,0,1,.58-.32,3.48,3.48,0,0,1,.71-.22,4.41,4.41,0,0,1,.83-.08,3.15,3.15,0,0,1,1.35.26,2.5,2.5,0,0,1,.88.65,2.4,2.4,0,0,1,.46.88,3.11,3.11,0,0,1,.14.94,2.64,2.64,0,0,1-.12.83,1.91,1.91,0,0,1-.34.65,2,2,0,0,1-.53.48,3,3,0,0,1-.67.34,3.64,3.64,0,0,1,.78.32,2.33,2.33,0,0,1,.61.51,2.47,2.47,0,0,1,.39.72A3.22,3.22,0,0,1,268.05,12.34Z"/>
      <path class="cls-2" d="M276,12.06a3.59,3.59,0,0,1-.19,1.17,2.85,2.85,0,0,1-.57,1,2.75,2.75,0,0,1-1,.71,3.62,3.62,0,0,1-1.46.27,4.77,4.77,0,0,1-1.15-.13,2.9,2.9,0,0,1-1.06-.52.48.48,0,0,1-.21-.38.45.45,0,0,1,.13-.32.43.43,0,0,1,.32-.14l.13,0a.35.35,0,0,1,.13.08,2.46,2.46,0,0,0,.78.42,3.37,3.37,0,0,0,.93.13,2.74,2.74,0,0,0,1.05-.19,2,2,0,0,0,.72-.52,2.12,2.12,0,0,0,.4-.74,3.17,3.17,0,0,0,.13-.88,2.38,2.38,0,0,0-.56-1.73A2,2,0,0,0,273,9.77a2.08,2.08,0,0,0-.64.08,2,2,0,0,0-.52.26c-.11.09-.2.16-.27.23s-.13.14-.19.19a.61.61,0,0,1-.16.12.29.29,0,0,1-.19,0,.4.4,0,0,1-.43-.46l.15-4.9A.44.44,0,0,1,270.9,5a.45.45,0,0,1,.31-.12H275a.44.44,0,0,1,.32.12.42.42,0,0,1,.13.31.39.39,0,0,1-.13.3.41.41,0,0,1-.32.13h-3.37l-.11,3.66a2,2,0,0,1,.71-.38,2.43,2.43,0,0,1,.82-.13,3.49,3.49,0,0,1,1.25.21,2.55,2.55,0,0,1,.93.61,2.85,2.85,0,0,1,.58,1A4.18,4.18,0,0,1,276,12.06Z"/>
      <path class="cls-2" d="M283.13,11.53a.38.38,0,0,1-.11.28.39.39,0,0,1-.25.1h-4.06v.41a3.28,3.28,0,0,0,.1.86,1.72,1.72,0,0,0,.32.65,1.41,1.41,0,0,0,.56.42,2,2,0,0,0,.81.15,3.61,3.61,0,0,0,1.06-.13,3.44,3.44,0,0,0,.78-.32.35.35,0,0,1,.31,0,.36.36,0,0,1,.21.21.45.45,0,0,1,0,.28.43.43,0,0,1-.19.24,3.26,3.26,0,0,1-1,.41,5.08,5.08,0,0,1-1.2.13,2.84,2.84,0,0,1-1.23-.23,2.11,2.11,0,0,1-.83-.63,2.7,2.7,0,0,1-.46-.93,4.52,4.52,0,0,1-.14-1.12V11A4.09,4.09,0,0,1,278,9.86a2.46,2.46,0,0,1,.46-.93,2.28,2.28,0,0,1,.82-.64,3.46,3.46,0,0,1,2.48,0,2.08,2.08,0,0,1,.82.63,2.25,2.25,0,0,1,.44.92,4.46,4.46,0,0,1,.14,1.12Zm-.87-.66a3.61,3.61,0,0,0-.09-.84,1.65,1.65,0,0,0-.3-.64,1.42,1.42,0,0,0-.55-.41,2.08,2.08,0,0,0-.84-.14,2,2,0,0,0-.81.14,1.37,1.37,0,0,0-.55.42,1.61,1.61,0,0,0-.32.64,3.76,3.76,0,0,0-.09.85v.26h3.55Z"/>
      <path class="cls-2" d="M349.16,14.66A.42.42,0,0,1,349,15a.42.42,0,0,1-.31.13h-5.08a.42.42,0,0,1-.33-.13.44.44,0,0,1-.12-.32,3.12,3.12,0,0,1,.12-.88,3.37,3.37,0,0,1,.31-.76,3.84,3.84,0,0,1,.45-.66,7.3,7.3,0,0,1,.55-.56,9.59,9.59,0,0,1,.78-.65l.81-.6.77-.61a4.36,4.36,0,0,0,.64-.65,2.5,2.5,0,0,0,.44-.73,2.15,2.15,0,0,0,.17-.85,2.63,2.63,0,0,0-.12-.8,1.79,1.79,0,0,0-.37-.66,1.68,1.68,0,0,0-.62-.45,2.28,2.28,0,0,0-.91-.16,4,4,0,0,0-.82.08,2.92,2.92,0,0,0-.65.24,1.91,1.91,0,0,0-.33.2l-.22.17-.17.12a.34.34,0,0,1-.17,0,.44.44,0,0,1-.31-.13A.45.45,0,0,1,343.4,6a.38.38,0,0,1,0-.17.51.51,0,0,1,.11-.16A3.57,3.57,0,0,1,344.71,5a4.37,4.37,0,0,1,1.52-.24,3.09,3.09,0,0,1,1.31.25,2.53,2.53,0,0,1,.91.64,2.66,2.66,0,0,1,.53.94,3.38,3.38,0,0,1,.18,1.1,3,3,0,0,1-.2,1.1,3.61,3.61,0,0,1-.51.9,5.3,5.3,0,0,1-.74.76c-.28.24-.57.46-.86.68l-.89.66a7.79,7.79,0,0,0-.8.69,4.71,4.71,0,0,0-.64.79,2.65,2.65,0,0,0-.35.94h4.55a.42.42,0,0,1,.31.13A.38.38,0,0,1,349.16,14.66Z"/>
      <path class="cls-2" d="M357.2,11.54a5.24,5.24,0,0,1-.17,1.39,3.31,3.31,0,0,1-.56,1.18,2.62,2.62,0,0,1-1,.82,3.65,3.65,0,0,1-2.9,0,2.62,2.62,0,0,1-1-.82,3.29,3.29,0,0,1-.55-1.18,5.24,5.24,0,0,1-.18-1.39V8.47a5.28,5.28,0,0,1,.18-1.38,3.29,3.29,0,0,1,.55-1.18,2.81,2.81,0,0,1,1-.82,3.55,3.55,0,0,1,2.9,0,2.81,2.81,0,0,1,1,.82A3.31,3.31,0,0,1,357,7.09a5.27,5.27,0,0,1,.17,1.38Zm-.92-3a4.57,4.57,0,0,0-.13-1.14,2.8,2.8,0,0,0-.4-.91,1.94,1.94,0,0,0-.71-.59,2.08,2.08,0,0,0-1-.22,2.12,2.12,0,0,0-1,.22,1.91,1.91,0,0,0-.7.59,2.8,2.8,0,0,0-.4.91,5.1,5.1,0,0,0-.13,1.14v3a5,5,0,0,0,.13,1.13,2.8,2.8,0,0,0,.4.91,1.91,1.91,0,0,0,.7.59,2.12,2.12,0,0,0,1,.22,2.08,2.08,0,0,0,1-.22,1.94,1.94,0,0,0,.71-.59,2.8,2.8,0,0,0,.4-.91,4.49,4.49,0,0,0,.13-1.13Z"/>
      <path class="cls-2" d="M365,12.58a.47.47,0,0,1-.12.32.42.42,0,0,1-.3.13h-.89v1.76a.49.49,0,0,1-.13.33.48.48,0,0,1-.32.13.49.49,0,0,1-.33-.13.45.45,0,0,1-.14-.33V13h-3.58a.42.42,0,0,1-.3-.13.41.41,0,0,1-.13-.32.54.54,0,0,1,.05-.22L362,5.08a.44.44,0,0,1,.25-.25.43.43,0,0,1,.35,0,.4.4,0,0,1,.24.25.43.43,0,0,1,0,.35l-3,6.7h2.86V9.86a.43.43,0,0,1,.14-.32.44.44,0,0,1,.33-.13.44.44,0,0,1,.32.13.46.46,0,0,1,.13.32v2.28h.89a.42.42,0,0,1,.3.13A.45.45,0,0,1,365,12.58Z"/>
      <path class="cls-2" d="M372.89,11.54a5.24,5.24,0,0,1-.18,1.39,3.31,3.31,0,0,1-.56,1.18,2.62,2.62,0,0,1-1,.82,3.65,3.65,0,0,1-2.9,0,2.62,2.62,0,0,1-1-.82,3.29,3.29,0,0,1-.55-1.18,5.24,5.24,0,0,1-.18-1.39V8.47a5.28,5.28,0,0,1,.18-1.38,3.29,3.29,0,0,1,.55-1.18,2.81,2.81,0,0,1,1-.82,3.55,3.55,0,0,1,2.9,0,2.81,2.81,0,0,1,1,.82,3.31,3.31,0,0,1,.56,1.18,5.28,5.28,0,0,1,.18,1.38Zm-.93-3a4.57,4.57,0,0,0-.13-1.14,2.6,2.6,0,0,0-.4-.91,2,2,0,0,0-.7-.59,2.15,2.15,0,0,0-1-.22,2.12,2.12,0,0,0-1,.22,2,2,0,0,0-.7.59,2.59,2.59,0,0,0-.39.91,4.57,4.57,0,0,0-.13,1.14v3a4.49,4.49,0,0,0,.13,1.13,2.59,2.59,0,0,0,.39.91,2,2,0,0,0,.7.59,2.12,2.12,0,0,0,1,.22,2.15,2.15,0,0,0,1-.22,2,2,0,0,0,.7-.59,2.6,2.6,0,0,0,.4-.91,4.49,4.49,0,0,0,.13-1.13Z"/>
      <path class="cls-2" d="M379.74,11.53a.38.38,0,0,1-.11.28.42.42,0,0,1-.26.1h-4.06v.41a3.26,3.26,0,0,0,.11.86,1.59,1.59,0,0,0,.32.65,1.44,1.44,0,0,0,.55.42,2,2,0,0,0,.81.15,3.68,3.68,0,0,0,1.07-.13A3.44,3.44,0,0,0,379,14a.34.34,0,0,1,.31,0,.36.36,0,0,1,.21.21.45.45,0,0,1,0,.28.47.47,0,0,1-.19.24,3.26,3.26,0,0,1-1,.41,5.08,5.08,0,0,1-1.2.13,2.89,2.89,0,0,1-1.24-.23,2.15,2.15,0,0,1-.82-.63,2.54,2.54,0,0,1-.46-.93,4.52,4.52,0,0,1-.14-1.12V11a4.52,4.52,0,0,1,.14-1.12,2.48,2.48,0,0,1,.47-.93,2.19,2.19,0,0,1,.82-.64,2.87,2.87,0,0,1,1.23-.23,2.91,2.91,0,0,1,1.25.23,2.08,2.08,0,0,1,.82.63,2.38,2.38,0,0,1,.44.92,4.46,4.46,0,0,1,.14,1.12Zm-.87-.66a3.61,3.61,0,0,0-.09-.84,1.82,1.82,0,0,0-.31-.64,1.39,1.39,0,0,0-.54-.41,2.11,2.11,0,0,0-.84-.14,2,2,0,0,0-.82.14,1.44,1.44,0,0,0-.55.42,1.74,1.74,0,0,0-.31.64,3.74,3.74,0,0,0-.1.85v.26h3.56Z"/>
      <path class="cls-2" d="M445.76,14.66a.42.42,0,0,1-.13.32.38.38,0,0,1-.3.13h-5.08a.42.42,0,0,1-.33-.13.44.44,0,0,1-.12-.32,3.53,3.53,0,0,1,.11-.88,3.68,3.68,0,0,1,.77-1.42,4.85,4.85,0,0,1,.55-.56,7.07,7.07,0,0,1,.78-.65l.81-.6.77-.61a4.36,4.36,0,0,0,.64-.65,2.73,2.73,0,0,0,.44-.73,2.15,2.15,0,0,0,.16-.85,3,3,0,0,0-.11-.8,1.94,1.94,0,0,0-.37-.66,1.64,1.64,0,0,0-.63-.45,2.23,2.23,0,0,0-.9-.16,3.93,3.93,0,0,0-.82.08,2.75,2.75,0,0,0-.65.24,2,2,0,0,0-.34.2l-.22.17-.17.12a.31.31,0,0,1-.17,0,.46.46,0,0,1-.31-.13A.44.44,0,0,1,440,6a.55.55,0,0,1,0-.17.56.56,0,0,1,.12-.16A3.53,3.53,0,0,1,441.31,5a4.47,4.47,0,0,1,1.53-.24,3.13,3.13,0,0,1,1.31.25,2.62,2.62,0,0,1,.91.64,2.82,2.82,0,0,1,.53.94,3.38,3.38,0,0,1,.17,1.1,3,3,0,0,1-.19,1.1,3.36,3.36,0,0,1-.52.9,5.23,5.23,0,0,1-.73.76c-.28.24-.57.46-.87.68l-.88.66a7.93,7.93,0,0,0-.81.69,5.2,5.2,0,0,0-.63.79,2.49,2.49,0,0,0-.36.94h4.56a.44.44,0,0,1,.43.43Z"/>
      <path class="cls-2" d="M453.81,11.54a5.69,5.69,0,0,1-.17,1.39,3.48,3.48,0,0,1-.56,1.18,2.65,2.65,0,0,1-1,.82,3.63,3.63,0,0,1-2.89,0,2.65,2.65,0,0,1-1-.82,3.47,3.47,0,0,1-.55-1.18,5.24,5.24,0,0,1-.17-1.39V8.47a5.27,5.27,0,0,1,.17-1.38,3.47,3.47,0,0,1,.55-1.18,2.85,2.85,0,0,1,1-.82,3.52,3.52,0,0,1,2.89,0,2.85,2.85,0,0,1,1,.82,3.48,3.48,0,0,1,.56,1.18,5.73,5.73,0,0,1,.17,1.38Zm-.92-3a5.1,5.1,0,0,0-.13-1.14,2.61,2.61,0,0,0-.41-.91,1.91,1.91,0,0,0-.7-.59,2.11,2.11,0,0,0-1-.22,2.16,2.16,0,0,0-1,.22,1.88,1.88,0,0,0-.69.59,2.8,2.8,0,0,0-.4.91,4.57,4.57,0,0,0-.13,1.14v3a4.49,4.49,0,0,0,.13,1.13,2.8,2.8,0,0,0,.4.91,1.88,1.88,0,0,0,.69.59,2.16,2.16,0,0,0,1,.22,2.11,2.11,0,0,0,1-.22,1.91,1.91,0,0,0,.7-.59,2.61,2.61,0,0,0,.41-.91,5,5,0,0,0,.13-1.13Z"/>
      <path class="cls-2" d="M461.37,12.06a3.86,3.86,0,0,1-.18,1.17,3,3,0,0,1-.58,1,2.75,2.75,0,0,1-1,.71,3.59,3.59,0,0,1-1.46.27A4.83,4.83,0,0,1,457,15.1a3,3,0,0,1-1.06-.52.48.48,0,0,1-.21-.38.45.45,0,0,1,.13-.32.43.43,0,0,1,.32-.14l.13,0a.35.35,0,0,1,.13.08,2.46,2.46,0,0,0,.78.42,3.37,3.37,0,0,0,.93.13,2.75,2.75,0,0,0,1.06-.19,2,2,0,0,0,1.11-1.26,2.84,2.84,0,0,0,.13-.88,2.38,2.38,0,0,0-.56-1.73,2,2,0,0,0-1.51-.56,2.14,2.14,0,0,0-.65.08,2.11,2.11,0,0,0-.52.26l-.27.23-.18.19-.16.12a.33.33,0,0,1-.2,0,.45.45,0,0,1-.32-.12.44.44,0,0,1-.11-.34l.15-4.9a.44.44,0,0,1,.15-.31.47.47,0,0,1,.32-.12h3.78a.43.43,0,0,1,.31.12.42.42,0,0,1,.13.31.39.39,0,0,1-.13.3.4.4,0,0,1-.31.13H457l-.11,3.66a2,2,0,0,1,.71-.38,2.49,2.49,0,0,1,.83-.13,3.43,3.43,0,0,1,1.24.21,2.47,2.47,0,0,1,.93.61,2.7,2.7,0,0,1,.58,1A4.18,4.18,0,0,1,461.37,12.06Z"/>
      <path class="cls-2" d="M469.49,11.54a5.69,5.69,0,0,1-.17,1.39,3.31,3.31,0,0,1-.56,1.18,2.62,2.62,0,0,1-1,.82,3.65,3.65,0,0,1-2.9,0,2.62,2.62,0,0,1-1-.82,3.31,3.31,0,0,1-.56-1.18,5.69,5.69,0,0,1-.17-1.39V8.47a5.73,5.73,0,0,1,.17-1.38,3.31,3.31,0,0,1,.56-1.18,2.81,2.81,0,0,1,1-.82,3.55,3.55,0,0,1,2.9,0,2.81,2.81,0,0,1,1,.82,3.31,3.31,0,0,1,.56,1.18,5.73,5.73,0,0,1,.17,1.38Zm-.92-3a4.57,4.57,0,0,0-.13-1.14,2.61,2.61,0,0,0-.41-.91,1.91,1.91,0,0,0-.7-.59,2.41,2.41,0,0,0-2,0,1.83,1.83,0,0,0-.7.59,2.8,2.8,0,0,0-.4.91,4.57,4.57,0,0,0-.13,1.14v3a4.49,4.49,0,0,0,.13,1.13,2.8,2.8,0,0,0,.4.91,1.83,1.83,0,0,0,.7.59,2.41,2.41,0,0,0,2,0,1.91,1.91,0,0,0,.7-.59,2.61,2.61,0,0,0,.41-.91,4.49,4.49,0,0,0,.13-1.13Z"/>
      <path class="cls-2" d="M476.34,11.53a.34.34,0,0,1-.11.28.37.37,0,0,1-.25.1h-4.06v.41a3.28,3.28,0,0,0,.1.86,1.88,1.88,0,0,0,.32.65,1.48,1.48,0,0,0,.56.42,2,2,0,0,0,.81.15,3.73,3.73,0,0,0,1.07-.13,3.44,3.44,0,0,0,.78-.32.32.32,0,0,1,.3,0,.41.41,0,0,1,.22.21.45.45,0,0,1,0,.28.41.41,0,0,1-.18.24,3.42,3.42,0,0,1-1,.41,5,5,0,0,1-1.19.13,2.89,2.89,0,0,1-1.24-.23,2.08,2.08,0,0,1-.82-.63,2.39,2.39,0,0,1-.46-.93,4.09,4.09,0,0,1-.14-1.12V11a4.09,4.09,0,0,1,.14-1.12,2.62,2.62,0,0,1,.46-.93,2.23,2.23,0,0,1,.83-.64,2.81,2.81,0,0,1,1.23-.23,2.94,2.94,0,0,1,1.25.23,2,2,0,0,1,.81.63,2.4,2.4,0,0,1,.45.92,4.47,4.47,0,0,1,.13,1.12Zm-.87-.66a3.61,3.61,0,0,0-.09-.84,1.65,1.65,0,0,0-.3-.64,1.35,1.35,0,0,0-.55-.41,2.5,2.5,0,0,0-1.65,0,1.37,1.37,0,0,0-.55.42A1.59,1.59,0,0,0,472,10a3.25,3.25,0,0,0-.1.85v.26h3.55Z"/>
      <path class="cls-2" d="M396.52,150.48l-.26.37a23.48,23.48,0,0,0,6.65,5.42,1.74,1.74,0,0,0-.51.6,26.93,26.93,0,0,1-6.53-5.46,19.5,19.5,0,0,1-6.49,5.4,2.24,2.24,0,0,0-.51-.56,17.58,17.58,0,0,0,7-6.06Zm-.29,12.34h6v.68H389.51v-.68h6V160h-4.11v-.66h4.11v-2.7h-4.14v-.67h9.12v.67h-4.25v2.7h4.32V160h-4.32Z"/>
      <path class="cls-2" d="M408.31,150.55a24.86,24.86,0,0,1-1.49,3.32V164h-.72V155.1a16.84,16.84,0,0,1-1.56,2.1,4.84,4.84,0,0,0-.45-.66,17.62,17.62,0,0,0,3.53-6.17Zm4.95-.09c-.11.23-.23.45-.35.69a14.22,14.22,0,0,0,4.89,4.7,7.28,7.28,0,0,0-.51.58,16,16,0,0,1-4.74-4.65,14.42,14.42,0,0,1-4.78,4.86,2.63,2.63,0,0,0-.48-.52,13,13,0,0,0,5.2-5.79Zm-3.17,5.6h.72v2a6.84,6.84,0,0,1-2.68,6,2.34,2.34,0,0,0-.53-.51,6.07,6.07,0,0,0,2.49-5.46Zm4.32,0h.72v7.88h-.72Z"/>
      <path class="cls-2" d="M423.25,150.57a23.08,23.08,0,0,1-1.61,3.49V164H421V155.2a14.19,14.19,0,0,1-1.53,2,4.38,4.38,0,0,0-.43-.66,18.19,18.19,0,0,0,3.6-6.18Zm9.39,12.19v.66h-10v-.66h1.52v-8.47h2.58c.12-.45.24-1,.36-1.64h-3.83V152h3.95c.1-.58.19-1.15.25-1.65l.78.09c-.09.48-.19,1-.31,1.56h4.2v.66h-4.34c-.13.6-.25,1.17-.39,1.64h3.78v8.47Zm-7.82-7.86v1.52h5.69V154.9Zm5.69,2.12h-5.69v1.54h5.69Zm-5.69,3.67h5.69v-1.54h-5.69Zm0,2.07h5.69v-1.47h-5.69Z"/>
      <path class="cls-2" d="M435.47,152.89a9,9,0,0,1-1,1.86,3.84,3.84,0,0,0-.42-.6,10.09,10.09,0,0,0,1.55-3.75l.64.17a14.28,14.28,0,0,1-.49,1.66h2.34v.66Zm2.58,8.34a5.55,5.55,0,0,0,.24.59,14.68,14.68,0,0,0-2.7,1.9,2.43,2.43,0,0,0-.43-.54,1.68,1.68,0,0,0,.72-1.32v-3.34h-1.7v-.66h1.7v-2.39H434.8v-.66h2.92v.66h-1.18v2.39h1.63v.66h-1.63v3.69Zm2.24.33c.3.14.58.41,1.06.72a5.3,5.3,0,0,0,2.85.6c1,0,2.58,0,3.62-.16a2.65,2.65,0,0,0-.21.78c-.83,0-2.51.09-3.44.09a5.22,5.22,0,0,1-3-.71c-.51-.36-.9-.73-1.22-.73s-1,.73-1.66,1.59l-.51-.63a5.41,5.41,0,0,1,1.84-1.56v-5.19H438.4v-.68h1.89Zm-.44-7.81a13.06,13.06,0,0,0-1.35-2.42l.59-.25a14.54,14.54,0,0,1,1.38,2.4Zm4.2,5.59h-3.31v-.67h3.31v-2.39h-1.57a2.13,2.13,0,0,0-1.13.2,2.53,2.53,0,0,0-.24-.68c.23-.06.44-.46.69-1a22.21,22.21,0,0,0,.92-2.19H440.8v-.68h2.14a16.11,16.11,0,0,0,.47-1.6l.72.16-.45,1.44h3.79v.68h-4.05a25.67,25.67,0,0,1-1.32,3h1.95v-1.92h.71v1.92h2.44v.64h-2.44v2.39h2.77v.67h-2.77v2.84h-.71Z"/>
      <path class="cls-3" d="M465.75,157.25h-1.32V161h-2v-.67h-2.08v1.75c0,1.06-.2,1.62-.94,1.93a8.1,8.1,0,0,1-3.12.36,8.52,8.52,0,0,0-.66-2c.92,0,1.92,0,2.23,0s.4-.07.4-.33v-1.71h-3.6v-1.87h3.6v-1.21h-4.59v-1.9h4.59v-1.16h-3v-.75c-.21.23-.45.45-.66.65a17.82,17.82,0,0,0-1.52-1.3l-1.69.83a40.35,40.35,0,0,0-2.41-4.43l1.91-.87c.79,1.25,1.85,2.88,2.45,4a14.34,14.34,0,0,0,3.47-4.75l2,.61-.47.93h2.88l.31-.09,1.44,1a24.81,24.81,0,0,1-1.5,2.3h2.88v3h1.32ZM449,162.67a53.07,53.07,0,0,0,2.63-6.17l2,1c-.74,2.12-1.61,4.32-2.38,6.1ZM457.3,151a15.81,15.81,0,0,1-1,1.35h3a14.17,14.17,0,0,0,.81-1.35Zm3.05,4.38h2.08v-1.16h-2.08Zm2.08,1.9h-2.08v1.21h2.08Z"/>
      <path class="cls-3" d="M477,155.45a3.22,3.22,0,0,1-.36.24,36,36,0,0,0,7.35,1.65,8.43,8.43,0,0,0-1.3,1.7,35.2,35.2,0,0,1-7.65-2.43,33.33,33.33,0,0,1-7.17,2.5,7.55,7.55,0,0,0-1.15-1.62c3-.56,6.73-1.68,8.71-3Zm-7.65-1.78h-1.89v-3.35h6.79v-.61h-5.59V148.2H482v1.51h-5.62v.61h6.92v3.35h-2v-2h-4.94v2.72h-2.1v-2.72h-4.9Zm12.48,6a17.52,17.52,0,0,1-4.07,2.73c.74.25,1.44.51,2,.7l-.85,1.55a52.39,52.39,0,0,0-7.81-2.54l.81-1.29c1,.21,2.21.5,3.4.83a24.3,24.3,0,0,0,2.85-1.32h-8.88v-1.51h5.62a11,11,0,0,0-1.12-1.05l1.24-.91a10.34,10.34,0,0,1,1.66,1.49l-.6.47h4.11l.29-.11Zm-12.28-5.62h4.14v1.2h-4.14Zm4.12-1.8v1.15H470v-1.15Zm7,0v1.15h-3.76v-1.15Zm-3.76,1.8h4.2v1.2h-4.2Z"/>
      <path class="cls-3" d="M491.11,157.25c-.62.17-1.23.35-1.86.51V162c0,1-.18,1.51-.75,1.83a5.2,5.2,0,0,1-2.53.38,7.77,7.77,0,0,0-.59-1.91c.63,0,1.3,0,1.51,0s.31-.07.31-.31V158.3c-.69.18-1.33.36-1.95.5l-.32-2.09c.65-.12,1.42-.3,2.27-.5V153h-2v-2h2v-3.4h2.05V151h1.62v2h-1.62v2.7l1.6-.42Zm2.66-9.43h2.05v16.56h-2.05V160h-2.72v-1.93h2.72v-1.94H491.5v-1.85h2.27v-2h-2.32v-1.87h2.32Zm8,12.21H499.1v4.39h-2.05V147.8h2.05v2.65h2.47v1.87H499.1v2h2.32v1.85H499.1v2h2.68Z"/>
      <path class="cls-3" d="M518.47,152.84a20.36,20.36,0,0,1-2,6.65,8.65,8.65,0,0,0,3.55,3,8.43,8.43,0,0,0-1.48,1.83,9.85,9.85,0,0,1-3.37-2.9,11.52,11.52,0,0,1-3.81,3.05,9.21,9.21,0,0,0-1.19-1.88,9.5,9.5,0,0,0,3.85-3.07,21,21,0,0,1-1.35-3.71,10.77,10.77,0,0,1-1,1.47,13.09,13.09,0,0,0-1.26-1.38c-.09,5-.18,7-.63,7.56a1.76,1.76,0,0,1-1.21.79,12.16,12.16,0,0,1-1.92.07,5.61,5.61,0,0,0-.56-1.94c.57,0,1.1,0,1.38,0a.53.53,0,0,0,.51-.27c.23-.39.34-1.91.41-6.12h-1.51c0,2.84-.41,5.83-2.65,8.3a7.28,7.28,0,0,0-1.56-1.4,10.3,10.3,0,0,0,2.19-7.13v-3.48h-1.76v-2h3.47a19.52,19.52,0,0,0-.73-2.34l1.89-.45a22.37,22.37,0,0,1,.86,2.36l-1.48.43h3.93v2h-4.16v1.77h3.56s0,.61,0,.86v.14A17.81,17.81,0,0,0,513,147.6l2.18.35a29.37,29.37,0,0,1-.61,2.91h5.22v2Zm-4.5.07a20.81,20.81,0,0,0,1.28,4.34,18.1,18.1,0,0,0,1.11-4.41H514Z"/>
      <path class="cls-2" d="M54.17,174.36a8,8,0,0,1,2.4-5.67L57,169a7.5,7.5,0,0,0,0,10.77l-.47.28A8,8,0,0,1,54.17,174.36Z"/>
      <path class="cls-2" d="M63.07,178.53a.41.41,0,0,1-.11.28.36.36,0,0,1-.26.11H58.34a.38.38,0,0,1-.28-.11.39.39,0,0,1-.1-.28,2.57,2.57,0,0,1,.1-.75,3,3,0,0,1,.65-1.22,5.35,5.35,0,0,1,.47-.48c.21-.2.44-.38.67-.56l.7-.52.66-.51a4.83,4.83,0,0,0,.55-.56,2.48,2.48,0,0,0,.37-.63,1.73,1.73,0,0,0,.14-.73,2.15,2.15,0,0,0-.1-.68,1.57,1.57,0,0,0-.31-.57,1.43,1.43,0,0,0-.54-.38,1.8,1.8,0,0,0-.77-.14,3,3,0,0,0-.71.07,2.52,2.52,0,0,0-.55.2,1.46,1.46,0,0,0-.29.18l-.19.14a1.1,1.1,0,0,1-.14.11.42.42,0,0,1-.15,0,.37.37,0,0,1-.27-.12.41.41,0,0,1-.11-.28.39.39,0,0,1,0-.14.33.33,0,0,1,.1-.14,3,3,0,0,1,1-.59,3.75,3.75,0,0,1,1.31-.21,2.78,2.78,0,0,1,1.13.21,2.25,2.25,0,0,1,1.23,1.36,3,3,0,0,1,.15.94,2.43,2.43,0,0,1-.17,1,3,3,0,0,1-.44.77,4.28,4.28,0,0,1-.63.65l-.74.59-.76.56a6.68,6.68,0,0,0-.69.59,3.84,3.84,0,0,0-.54.68,2.23,2.23,0,0,0-.31.8H62.7a.38.38,0,0,1,.37.37Z"/>
      <path class="cls-2" d="M70,175.86a4.68,4.68,0,0,1-.15,1.19,2.86,2.86,0,0,1-.48,1,2.29,2.29,0,0,1-.84.7,3.11,3.11,0,0,1-2.49,0,2.29,2.29,0,0,1-.84-.7,3,3,0,0,1-.47-1,4.68,4.68,0,0,1-.15-1.19v-2.63A4.68,4.68,0,0,1,64.7,172a3,3,0,0,1,.47-1,2.39,2.39,0,0,1,.84-.7,3,3,0,0,1,2.49,0,2.39,2.39,0,0,1,.84.7,2.86,2.86,0,0,1,.48,1,4.68,4.68,0,0,1,.15,1.19Zm-.79-2.6a4.23,4.23,0,0,0-.11-1,2.15,2.15,0,0,0-.35-.78,1.77,1.77,0,0,0-.6-.52,2,2,0,0,0-.87-.18,1.91,1.91,0,0,0-.86.18,1.77,1.77,0,0,0-.6.52,2.15,2.15,0,0,0-.34.78,4.23,4.23,0,0,0-.11,1v2.58a4.23,4.23,0,0,0,.11,1,2.31,2.31,0,0,0,.34.78,1.71,1.71,0,0,0,.6.5,1.79,1.79,0,0,0,.86.19,1.83,1.83,0,0,0,.87-.19,1.71,1.71,0,0,0,.6-.5,2.32,2.32,0,0,0,.35-.78,4.23,4.23,0,0,0,.11-1Z"/>
      <path class="cls-2" d="M76.51,178.53a.37.37,0,0,1-.11.28.36.36,0,0,1-.26.11H71.78a.38.38,0,0,1-.28-.11.39.39,0,0,1-.1-.28,2.57,2.57,0,0,1,.1-.75,3.12,3.12,0,0,1,.26-.66,3.72,3.72,0,0,1,.39-.56,5.35,5.35,0,0,1,.47-.48c.21-.2.44-.38.67-.56L74,175l.66-.51a4.14,4.14,0,0,0,.55-.56,2.52,2.52,0,0,0,.38-.63,1.9,1.9,0,0,0,.14-.73,2.15,2.15,0,0,0-.11-.68,1.57,1.57,0,0,0-.31-.57,1.43,1.43,0,0,0-.54-.38,1.8,1.8,0,0,0-.77-.14,3,3,0,0,0-.71.07,2.73,2.73,0,0,0-.55.2,1.46,1.46,0,0,0-.29.18l-.19.14a1.1,1.1,0,0,1-.14.11.42.42,0,0,1-.15,0,.37.37,0,0,1-.27-.12.41.41,0,0,1-.11-.28.39.39,0,0,1,0-.14.33.33,0,0,1,.1-.14,2.9,2.9,0,0,1,1-.59,3.65,3.65,0,0,1,1.3-.21,2.78,2.78,0,0,1,1.13.21,2.36,2.36,0,0,1,.78.56,2.33,2.33,0,0,1,.45.8,3,3,0,0,1,.15.94,2.63,2.63,0,0,1-.16,1,3.3,3.3,0,0,1-.45.77,4.28,4.28,0,0,1-.63.65c-.24.2-.48.4-.74.59l-.76.56a6.68,6.68,0,0,0-.69.59,3.84,3.84,0,0,0-.54.68,2.21,2.21,0,0,0-.3.8h3.9a.36.36,0,0,1,.26.11A.33.33,0,0,1,76.51,178.53Z"/>
      <path class="cls-2" d="M83.17,176.3a3.08,3.08,0,0,1-.16,1,2.46,2.46,0,0,1-.49.88,2.39,2.39,0,0,1-.86.61,3,3,0,0,1-1.25.23,4.06,4.06,0,0,1-1-.11,2.54,2.54,0,0,1-.9-.45.37.37,0,0,1-.07-.6.34.34,0,0,1,.27-.12l.11,0a.26.26,0,0,1,.11.07,2.29,2.29,0,0,0,.67.36,2.86,2.86,0,0,0,.8.11,2.19,2.19,0,0,0,.9-.17,1.55,1.55,0,0,0,.61-.44,1.63,1.63,0,0,0,.35-.63,2.68,2.68,0,0,0,.11-.76,2,2,0,0,0-.48-1.48,1.74,1.74,0,0,0-1.3-.48,1.84,1.84,0,0,0-.55.07,1.4,1.4,0,0,0-.44.22l-.23.2-.17.16-.13.11a.43.43,0,0,1-.17,0,.37.37,0,0,1-.27-.11.33.33,0,0,1-.1-.29l.13-4.2a.36.36,0,0,1,.13-.26.4.4,0,0,1,.27-.11h3.24a.37.37,0,0,1,.27.11.36.36,0,0,1,0,.52.33.33,0,0,1-.27.11h-2.9l-.09,3.14a1.91,1.91,0,0,1,.61-.33,2.3,2.3,0,0,1,.71-.1,2.91,2.91,0,0,1,1.06.17,2.12,2.12,0,0,1,.8.53,2.41,2.41,0,0,1,.5.84A3.64,3.64,0,0,1,83.17,176.3Z"/>
      <path class="cls-2" d="M94,169.73v10h-.59v-.86H86.66v.86h-.57v-10Zm-7.31.57v2.29h6.72V170.3Zm0,2.84v2.31h6.72v-2.31Zm6.72,5.2V176H86.66v2.32Z"/>
      <path class="cls-2" d="M100.52,175.07a22.42,22.42,0,0,0-1.25-1.87v6.58H98.7v-6.5a12.34,12.34,0,0,1-1.91,3.65,2.25,2.25,0,0,0-.37-.49,12.57,12.57,0,0,0,2.15-4.32H96.78v-.54H98.7v-2.64h.57v2.64h1.67v.54H99.27v.36c.36.43,1.42,1.78,1.65,2.13Zm2.16-.12a11.5,11.5,0,0,1-1.64,3.63,3.94,3.94,0,0,0-.48-.31,9.75,9.75,0,0,0,1.58-3.44Zm4.77-2.14v.54h-3V179c0,.41-.1.59-.4.7a6.58,6.58,0,0,1-1.68.11,2.29,2.29,0,0,0-.2-.59c.7,0,1.29,0,1.46,0s.23,0,.23-.22v-5.6h-2.68v-.54Zm-.64-2.31h-5.17V170h5.17Zm-.86,4.3a21.91,21.91,0,0,1,1.46,3.57l-.56.19a18.28,18.28,0,0,0-1.41-3.6Z"/>
      <path class="cls-2" d="M113.78,176c0,.14.12.39.16.51a26.58,26.58,0,0,0-4.13,2,2.42,2.42,0,0,0-.32-.49,1.12,1.12,0,0,0,.62-.92v-7.14h.6v7.4Zm4.14-6.55a18.37,18.37,0,0,1-1.33,6.81,21.65,21.65,0,0,1,2.92,3.19l-.49.37a20.77,20.77,0,0,0-2.69-3.07,7.5,7.5,0,0,1-3.74,3.18,2.37,2.37,0,0,0-.42-.5c4-1.55,4.85-4.54,5.15-10Zm-3.41,3.7a15.79,15.79,0,0,0-1.84-2.88l.49-.25a16.35,16.35,0,0,1,1.87,2.83Z"/>
      <path class="cls-2" d="M126,178.53a.37.37,0,0,1-.11.28.36.36,0,0,1-.26.11h-4.35a.36.36,0,0,1-.39-.39,2.57,2.57,0,0,1,.1-.75,2.7,2.7,0,0,1,.27-.66,3.67,3.67,0,0,1,.38-.56,5.35,5.35,0,0,1,.47-.48c.21-.2.44-.38.67-.56l.7-.52.66-.51a4.14,4.14,0,0,0,.55-.56,2.52,2.52,0,0,0,.38-.63,1.9,1.9,0,0,0,.14-.73,2.15,2.15,0,0,0-.11-.68,1.44,1.44,0,0,0-.31-.57,1.47,1.47,0,0,0-.53-.38,1.87,1.87,0,0,0-.78-.14,3,3,0,0,0-.71.07,2.73,2.73,0,0,0-.55.2,1.83,1.83,0,0,0-.29.18l-.19.14a1.1,1.1,0,0,1-.14.11.34.34,0,0,1-.42-.08.41.41,0,0,1-.11-.28.39.39,0,0,1,0-.14.33.33,0,0,1,.1-.14,2.9,2.9,0,0,1,1-.59,3.71,3.71,0,0,1,1.31-.21,2.76,2.76,0,0,1,1.12.21,2.36,2.36,0,0,1,.78.56,2.18,2.18,0,0,1,.45.8,3,3,0,0,1,.15.94,2.63,2.63,0,0,1-.16,1,3,3,0,0,1-.45.77,4.28,4.28,0,0,1-.63.65c-.24.2-.48.4-.74.59l-.76.56a6.68,6.68,0,0,0-.69.59,3.84,3.84,0,0,0-.54.68,2.21,2.21,0,0,0-.3.8h3.9a.36.36,0,0,1,.26.11A.33.33,0,0,1,126,178.53Z"/>
      <path class="cls-2" d="M132.85,175.86a4.68,4.68,0,0,1-.15,1.19,2.86,2.86,0,0,1-.48,1,2.29,2.29,0,0,1-.84.7,2.64,2.64,0,0,1-1.24.26,2.61,2.61,0,0,1-1.24-.26,2.24,2.24,0,0,1-.85-.7,3,3,0,0,1-.47-1,4.68,4.68,0,0,1-.15-1.19v-2.63a4.68,4.68,0,0,1,.15-1.19,3,3,0,0,1,.47-1,2.34,2.34,0,0,1,.85-.7,2.61,2.61,0,0,1,1.24-.27,2.64,2.64,0,0,1,1.24.27,2.39,2.39,0,0,1,.84.7,2.86,2.86,0,0,1,.48,1,4.68,4.68,0,0,1,.15,1.19Zm-.79-2.6a4.23,4.23,0,0,0-.11-1,2.15,2.15,0,0,0-.35-.78,1.77,1.77,0,0,0-.6-.52,2.17,2.17,0,0,0-1.73,0,1.65,1.65,0,0,0-.59.52,2.15,2.15,0,0,0-.35.78,4.23,4.23,0,0,0-.11,1v2.58a4.23,4.23,0,0,0,.11,1,2.32,2.32,0,0,0,.35.78,1.6,1.6,0,0,0,.59.5,2.06,2.06,0,0,0,1.73,0,1.71,1.71,0,0,0,.6-.5,2.32,2.32,0,0,0,.35-.78,4.23,4.23,0,0,0,.11-1Z"/>
      <path class="cls-2" d="M139.35,178.55a.35.35,0,0,1-.1.26.38.38,0,0,1-.26.11h-4.31a.4.4,0,0,1-.27-.11.34.34,0,0,1-.12-.26.38.38,0,0,1,.12-.28.4.4,0,0,1,.27-.11h2.18v-7l-2.34,1.62a.36.36,0,0,1-.28.07.39.39,0,0,1-.25-.16.42.42,0,0,1-.05-.29.36.36,0,0,1,.16-.24l2.9-2a.39.39,0,0,1,.26-.09.38.38,0,0,1,.28.12.35.35,0,0,1,.12.28v7.7H139a.38.38,0,0,1,.26.11A.4.4,0,0,1,139.35,178.55Z"/>
      <path class="cls-2" d="M146.05,176.3a3.08,3.08,0,0,1-.16,1,2.46,2.46,0,0,1-.49.88,2.39,2.39,0,0,1-.86.61,3,3,0,0,1-1.25.23,3.93,3.93,0,0,1-1-.11,2.58,2.58,0,0,1-.91-.45.39.39,0,0,1-.07-.6.36.36,0,0,1,.27-.12l.12,0,.11.07a2.17,2.17,0,0,0,.67.36,2.74,2.74,0,0,0,.79.11,2.24,2.24,0,0,0,.91-.17,1.63,1.63,0,0,0,.61-.44,1.75,1.75,0,0,0,.34-.63,2.68,2.68,0,0,0,.11-.76,2.07,2.07,0,0,0-.47-1.48,1.75,1.75,0,0,0-1.3-.48,1.86,1.86,0,0,0-.56.07,1.51,1.51,0,0,0-.44.22l-.23.2c-.06.06-.12.11-.16.16l-.14.11a.43.43,0,0,1-.17,0,.37.37,0,0,1-.27-.11.39.39,0,0,1-.1-.29l.13-4.2a.36.36,0,0,1,.13-.26.4.4,0,0,1,.27-.11h3.24a.37.37,0,0,1,.27.11.36.36,0,0,1,0,.52.33.33,0,0,1-.27.11H142.3l-.1,3.14a2,2,0,0,1,.61-.33,2.34,2.34,0,0,1,.71-.1,3,3,0,0,1,1.07.17,2.16,2.16,0,0,1,.79.53,2.26,2.26,0,0,1,.5.84A3.64,3.64,0,0,1,146.05,176.3Z"/>
      <path class="cls-2" d="M158.31,176.93h-4.5v2.88h-.57v-2.88h-5.66v-.57h2v-3.27h3.63V171H150.1a11.41,11.41,0,0,1-1.93,2.49,3,3,0,0,0-.52-.36,10.46,10.46,0,0,0,2.83-4.25l.59.15a15.34,15.34,0,0,1-.65,1.42h7.39V171h-4v2.08h3.75v.55h-3.75v2.72h4.5Zm-5.07-.57v-2.72h-3.06v2.72Z"/>
      <path class="cls-2" d="M169.63,172.19c-.21,4.91-.37,6.58-.85,7.11a1.06,1.06,0,0,1-.87.37c-.39,0-1.16,0-1.9-.06a1.12,1.12,0,0,0-.2-.58c.84.08,1.65.08,1.91.08s.42,0,.53-.17c.4-.38.6-2,.78-6.51h-4.5a9.49,9.49,0,0,1-4.42,7.23,2,2,0,0,0-.45-.41,9.13,9.13,0,0,0,4.3-6.82h-4v-.58h4c.05-.56.06-1.1.06-1.6V169h.58v1.3c0,.5,0,1,0,1.6h5Zm-7.2-.88a11.08,11.08,0,0,0-1.34-1.79l.48-.24a11.07,11.07,0,0,1,1.37,1.75Zm4.39,5.46a13.1,13.1,0,0,0-1.78-2.41l.46-.25a12,12,0,0,1,1.81,2.36Z"/>
      <path class="cls-2" d="M179.59,175.26a6.45,6.45,0,0,0,2.85,2.14,1.84,1.84,0,0,0-.39.44,7,7,0,0,1-3.07-2.58h-4a8,8,0,0,1-3.09,2.75,2.2,2.2,0,0,0-.41-.45,7.19,7.19,0,0,0,2.88-2.3H171.6v-.52H174v-4h-1.92v-.52H174v-1.3h.57v1.3h4.7v-1.29h.58v1.29h1.91v.52h-1.91v4h2.4v.52ZM177.2,179h4.26v.52h-9V179h4.19V177.4H174v-.52h2.65v-1.16h.56v1.16h2.71v.52H177.2Zm-2.59-8.2v1h4.7v-1Zm0,2.47h4.7v-1h-4.7Zm0,1.52h4.7v-1h-4.7Z"/>
      <path class="cls-2" d="M183.61,169.64h4v.53h-1.84a20.55,20.55,0,0,1-.82,3.12h2.35v5H185v1h-.52v-4.74a10,10,0,0,1-.72,1.2,2.06,2.06,0,0,0-.34-.53,12.47,12.47,0,0,0,1.84-5h-1.6Zm3.17,4.18H185v3.9h1.83Zm7.22,1v4.86h-.56V179h-5.38v-4.21h.59v3.66h2.1v-4.69h-2.4V170h.54v3.18h1.86V169h.58v4.2h1.76V170h.56v3.72h-2.32v4.69h2.11v-3.67Z"/>
      <path class="cls-2" d="M195.6,179.54a2.19,2.19,0,0,0,1.49-2,.77.77,0,0,1-.25,0,.68.68,0,0,1-.75-.73.7.7,0,0,1,.75-.73c.56,0,.86.48.86,1.22a2.78,2.78,0,0,1-1.89,2.62Z"/>
      <path class="cls-2" d="M206.84,178.53a.41.41,0,0,1-.11.28.4.4,0,0,1-.27.11h-4.35a.4.4,0,0,1-.29-.11.43.43,0,0,1-.1-.28,2.57,2.57,0,0,1,.1-.75,3.81,3.81,0,0,1,.27-.66,3.12,3.12,0,0,1,.39-.56,4.27,4.27,0,0,1,.47-.48,7.35,7.35,0,0,1,.67-.56c.23-.17.47-.34.69-.52l.66-.51a4.14,4.14,0,0,0,.55-.56,2.25,2.25,0,0,0,.38-.63,1.9,1.9,0,0,0,.14-.73,2.15,2.15,0,0,0-.1-.68,1.59,1.59,0,0,0-.32-.57,1.47,1.47,0,0,0-.53-.38,1.87,1.87,0,0,0-.78-.14,3,3,0,0,0-.7.07,2.83,2.83,0,0,0-.56.2,1.83,1.83,0,0,0-.29.18l-.19.14a1.1,1.1,0,0,1-.14.11.33.33,0,0,1-.15,0,.34.34,0,0,1-.26-.12.38.38,0,0,1-.12-.28.39.39,0,0,1,0-.14.45.45,0,0,1,.1-.14,3.1,3.1,0,0,1,1-.59,3.71,3.71,0,0,1,1.31-.21,2.73,2.73,0,0,1,1.12.21,2.17,2.17,0,0,1,.78.56,2.2,2.2,0,0,1,.46.8,3,3,0,0,1,.15.94,2.63,2.63,0,0,1-.17,1,3.27,3.27,0,0,1-.44.77,4.9,4.9,0,0,1-.64.65c-.23.2-.48.4-.73.59s-.51.37-.76.56a6.68,6.68,0,0,0-.69.59,4.43,4.43,0,0,0-.55.68,2.21,2.21,0,0,0-.3.8h3.9a.4.4,0,0,1,.27.11A.36.36,0,0,1,206.84,178.53Z"/>
      <path class="cls-2" d="M213.73,175.86a4.68,4.68,0,0,1-.15,1.19,2.84,2.84,0,0,1-.47,1,2.24,2.24,0,0,1-.85.7,3.09,3.09,0,0,1-2.48,0,2.14,2.14,0,0,1-.84-.7,2.86,2.86,0,0,1-.48-1,4.68,4.68,0,0,1-.15-1.19v-2.63a4.68,4.68,0,0,1,.15-1.19,2.86,2.86,0,0,1,.48-1,2.23,2.23,0,0,1,.84-.7,3,3,0,0,1,2.48,0,2.34,2.34,0,0,1,.85.7,2.84,2.84,0,0,1,.47,1,4.68,4.68,0,0,1,.15,1.19Zm-.79-2.6a3.74,3.74,0,0,0-.11-1,2,2,0,0,0-.35-.78,1.77,1.77,0,0,0-.6-.52,1.91,1.91,0,0,0-.86-.18,2,2,0,0,0-.87.18,1.65,1.65,0,0,0-.59.52,2,2,0,0,0-.34.78,3.74,3.74,0,0,0-.12,1v2.58a3.74,3.74,0,0,0,.12,1,2.13,2.13,0,0,0,.34.78,1.6,1.6,0,0,0,.59.5,1.83,1.83,0,0,0,.87.19,1.79,1.79,0,0,0,.86-.19,1.71,1.71,0,0,0,.6-.5,2.14,2.14,0,0,0,.35-.78,3.74,3.74,0,0,0,.11-1Z"/>
      <path class="cls-2" d="M220.28,178.53a.41.41,0,0,1-.11.28.4.4,0,0,1-.27.11h-4.35a.36.36,0,0,1-.28-.11.39.39,0,0,1-.11-.28,3,3,0,0,1,.1-.75,3.81,3.81,0,0,1,.27-.66,3.12,3.12,0,0,1,.39-.56,4.27,4.27,0,0,1,.47-.48,7.35,7.35,0,0,1,.67-.56l.7-.52.65-.51a4.14,4.14,0,0,0,.55-.56,2.25,2.25,0,0,0,.38-.63,1.9,1.9,0,0,0,.14-.73,2.15,2.15,0,0,0-.1-.68,1.57,1.57,0,0,0-.31-.57,1.51,1.51,0,0,0-.54-.38,1.87,1.87,0,0,0-.78-.14,3,3,0,0,0-.7.07,2.83,2.83,0,0,0-.56.2,1.7,1.7,0,0,0-.28.18l-.19.14-.15.11a.33.33,0,0,1-.14,0,.36.36,0,0,1-.27-.12.38.38,0,0,1-.12-.28.39.39,0,0,1,0-.14.45.45,0,0,1,.1-.14,3.1,3.1,0,0,1,1-.59,3.71,3.71,0,0,1,1.31-.21,2.73,2.73,0,0,1,1.12.21,2.17,2.17,0,0,1,.78.56,2.2,2.2,0,0,1,.46.8,3,3,0,0,1,.15.94,2.63,2.63,0,0,1-.17,1,3.27,3.27,0,0,1-.44.77,4.82,4.82,0,0,1-.63.65l-.74.59c-.26.18-.51.37-.76.56a6.68,6.68,0,0,0-.69.59,3.84,3.84,0,0,0-.54.68,2.06,2.06,0,0,0-.31.8h3.9a.4.4,0,0,1,.27.11A.36.36,0,0,1,220.28,178.53Z"/>
      <path class="cls-2" d="M226.93,176.3a3.37,3.37,0,0,1-.15,1,2.48,2.48,0,0,1-.5.88,2.35,2.35,0,0,1-.85.61,3,3,0,0,1-1.26.23,3.93,3.93,0,0,1-1-.11,2.66,2.66,0,0,1-.91-.45.4.4,0,0,1-.18-.32.45.45,0,0,1,.11-.28.38.38,0,0,1,.28-.12l.11,0a.34.34,0,0,1,.11.07,2.29,2.29,0,0,0,.67.36,2.79,2.79,0,0,0,.79.11,2.24,2.24,0,0,0,.91-.17,1.63,1.63,0,0,0,.61-.44,1.77,1.77,0,0,0,.35-.63,2.68,2.68,0,0,0,.1-.76,2,2,0,0,0-.47-1.48,1.75,1.75,0,0,0-1.3-.48,1.91,1.91,0,0,0-.56.07,1.65,1.65,0,0,0-.44.22l-.23.2L223,175l-.14.11a.38.38,0,0,1-.44-.07.35.35,0,0,1-.09-.29l.12-4.2a.41.41,0,0,1,.4-.37h3.24a.41.41,0,0,1,.28.11.39.39,0,0,1,0,.52.37.37,0,0,1-.28.11h-2.89l-.1,3.14a2.07,2.07,0,0,1,.62-.33,2.24,2.24,0,0,1,.7-.1,3,3,0,0,1,1.07.17,2.08,2.08,0,0,1,.79.53,2.14,2.14,0,0,1,.5.84A3.37,3.37,0,0,1,226.93,176.3Z"/>
      <path class="cls-2" d="M233.09,175.51a.43.43,0,0,1-.11.3.87.87,0,0,1-.29.23,1.67,1.67,0,0,1-.41.16,2.61,2.61,0,0,1-.48.05,1.61,1.61,0,0,1-.56-.08l-.44-.17a3,3,0,0,0-.41-.18,1,1,0,0,0-.44-.08.94.94,0,0,0-.37,0l-.22.12-.17.12a.34.34,0,0,1-.2.06.4.4,0,0,1-.29-.12.38.38,0,0,1-.12-.28.48.48,0,0,1,.11-.3,1.06,1.06,0,0,1,.3-.24,1.67,1.67,0,0,1,.41-.16,2,2,0,0,1,.49-.06,1.53,1.53,0,0,1,.54.09,3,3,0,0,1,.45.18l.41.18a1.33,1.33,0,0,0,.45.08,1.15,1.15,0,0,0,.36-.05l.23-.12.17-.12a.3.3,0,0,1,.19,0,.38.38,0,0,1,.29.11A.41.41,0,0,1,233.09,175.51Z"/>
      <path class="cls-2" d="M239.74,178.53a.37.37,0,0,1-.11.28.36.36,0,0,1-.26.11H235a.38.38,0,0,1-.28-.11.39.39,0,0,1-.1-.28,2.57,2.57,0,0,1,.1-.75,3.12,3.12,0,0,1,.26-.66,4.63,4.63,0,0,1,.39-.56,5.35,5.35,0,0,1,.47-.48c.21-.2.44-.38.67-.56l.7-.52.66-.51a4.14,4.14,0,0,0,.55-.56,2.52,2.52,0,0,0,.38-.63,1.9,1.9,0,0,0,.14-.73,2.15,2.15,0,0,0-.11-.68,1.44,1.44,0,0,0-.85-.95,1.8,1.8,0,0,0-.77-.14,3,3,0,0,0-.71.07,2.73,2.73,0,0,0-.55.2,1.83,1.83,0,0,0-.29.18l-.19.14a1.1,1.1,0,0,1-.14.11.34.34,0,0,1-.42-.08.41.41,0,0,1-.11-.28.39.39,0,0,1,0-.14.33.33,0,0,1,.1-.14,2.9,2.9,0,0,1,1-.59,3.71,3.71,0,0,1,1.31-.21,2.76,2.76,0,0,1,1.12.21,2.36,2.36,0,0,1,.78.56,2.33,2.33,0,0,1,.45.8,3,3,0,0,1,.15.94,2.63,2.63,0,0,1-.16,1,3.3,3.3,0,0,1-.45.77,4.28,4.28,0,0,1-.63.65c-.24.2-.48.4-.74.59l-.76.56a6.68,6.68,0,0,0-.69.59,3.84,3.84,0,0,0-.54.68,2.21,2.21,0,0,0-.3.8h3.9a.36.36,0,0,1,.26.11A.33.33,0,0,1,239.74,178.53Z"/>
      <path class="cls-2" d="M246.64,175.86a4.68,4.68,0,0,1-.15,1.19,2.86,2.86,0,0,1-.48,1,2.29,2.29,0,0,1-.84.7,2.64,2.64,0,0,1-1.24.26,2.68,2.68,0,0,1-1.25-.26,2.29,2.29,0,0,1-.84-.7,3,3,0,0,1-.47-1,4.68,4.68,0,0,1-.15-1.19v-2.63a4.68,4.68,0,0,1,.15-1.19,3,3,0,0,1,.47-1,2.39,2.39,0,0,1,.84-.7,2.68,2.68,0,0,1,1.25-.27,2.64,2.64,0,0,1,1.24.27,2.39,2.39,0,0,1,.84.7,2.86,2.86,0,0,1,.48,1,4.68,4.68,0,0,1,.15,1.19Zm-.79-2.6a4.23,4.23,0,0,0-.11-1,2.15,2.15,0,0,0-.35-.78,1.77,1.77,0,0,0-.6-.52,2.17,2.17,0,0,0-1.73,0,1.77,1.77,0,0,0-.6.52,2.33,2.33,0,0,0-.34.78,4.23,4.23,0,0,0-.11,1v2.58a4.23,4.23,0,0,0,.11,1,2.52,2.52,0,0,0,.34.78,1.71,1.71,0,0,0,.6.5,2.06,2.06,0,0,0,1.73,0,1.71,1.71,0,0,0,.6-.5,2.32,2.32,0,0,0,.35-.78,4.23,4.23,0,0,0,.11-1Z"/>
      <path class="cls-2" d="M253.12,176.3a3.08,3.08,0,0,1-.16,1,2.46,2.46,0,0,1-.49.88,2.39,2.39,0,0,1-.86.61,3,3,0,0,1-1.25.23,3.93,3.93,0,0,1-1-.11,2.5,2.5,0,0,1-.91-.45.39.39,0,0,1-.07-.6.34.34,0,0,1,.27-.12l.11,0a.37.37,0,0,1,.12.07,2.24,2.24,0,0,0,.66.36,2.86,2.86,0,0,0,.8.11,2.24,2.24,0,0,0,.91-.17,1.71,1.71,0,0,0,.61-.44,1.75,1.75,0,0,0,.34-.63,2.68,2.68,0,0,0,.11-.76,2,2,0,0,0-.48-1.48,1.74,1.74,0,0,0-1.3-.48,1.84,1.84,0,0,0-.55.07,1.4,1.4,0,0,0-.44.22l-.23.2-.16.16-.14.11a.43.43,0,0,1-.17,0,.37.37,0,0,1-.27-.11.36.36,0,0,1-.1-.29l.13-4.2a.36.36,0,0,1,.13-.26.4.4,0,0,1,.27-.11h3.24a.37.37,0,0,1,.27.11.36.36,0,0,1,0,.52.33.33,0,0,1-.27.11h-2.9l-.09,3.14a2,2,0,0,1,.61-.33,2.3,2.3,0,0,1,.71-.1,3,3,0,0,1,1.07.17,2.16,2.16,0,0,1,.79.53,2.26,2.26,0,0,1,.5.84A3.64,3.64,0,0,1,253.12,176.3Z"/>
      <path class="cls-2" d="M260.08,175.86a4.68,4.68,0,0,1-.15,1.19,2.86,2.86,0,0,1-.48,1,2.21,2.21,0,0,1-.84.7,2.64,2.64,0,0,1-1.24.26,2.61,2.61,0,0,1-1.24-.26,2.14,2.14,0,0,1-.84-.7,2.86,2.86,0,0,1-.48-1,4.68,4.68,0,0,1-.15-1.19v-2.63a4.68,4.68,0,0,1,.15-1.19,2.86,2.86,0,0,1,.48-1,2.23,2.23,0,0,1,.84-.7,2.61,2.61,0,0,1,1.24-.27,2.64,2.64,0,0,1,1.24.27,2.3,2.3,0,0,1,.84.7,2.86,2.86,0,0,1,.48,1,4.68,4.68,0,0,1,.15,1.19Zm-.79-2.6a4.23,4.23,0,0,0-.11-1,2.15,2.15,0,0,0-.35-.78,1.77,1.77,0,0,0-.6-.52,2.17,2.17,0,0,0-1.73,0,1.65,1.65,0,0,0-.59.52,2.15,2.15,0,0,0-.35.78,4.23,4.23,0,0,0-.11,1v2.58a4.23,4.23,0,0,0,.11,1,2.32,2.32,0,0,0,.35.78,1.6,1.6,0,0,0,.59.5,2.06,2.06,0,0,0,1.73,0,1.71,1.71,0,0,0,.6-.5,2.32,2.32,0,0,0,.35-.78,4.23,4.23,0,0,0,.11-1Z"/>
      <path class="cls-2" d="M270.64,169.73v10h-.59v-.86h-6.72v.86h-.57v-10Zm-7.31.57v2.29h6.72V170.3Zm0,2.84v2.31h6.72v-2.31Zm6.72,5.2V176h-6.72v2.32Z"/>
      <path class="cls-2" d="M277.19,175.07c-.21-.39-.81-1.27-1.24-1.87v6.58h-.58v-6.5a12.34,12.34,0,0,1-1.91,3.65,2.25,2.25,0,0,0-.37-.49,12.57,12.57,0,0,0,2.15-4.32h-1.79v-.54h1.92v-2.64H276v2.64h1.66v.54H276v.36c.36.43,1.41,1.78,1.64,2.13Zm2.16-.12a11.5,11.5,0,0,1-1.64,3.63,3.94,3.94,0,0,0-.48-.31,9.58,9.58,0,0,0,1.58-3.44Zm4.77-2.14v.54h-3.05V179c0,.41-.1.59-.4.7a6.58,6.58,0,0,1-1.68.11,2.29,2.29,0,0,0-.2-.59c.71,0,1.29,0,1.46,0s.23,0,.23-.22v-5.6H277.8v-.54Zm-.64-2.31h-5.17V170h5.17Zm-.85,4.3a22.71,22.71,0,0,1,1.45,3.57l-.55.19a19,19,0,0,0-1.42-3.6Z"/>
      <path class="cls-2" d="M290.45,176c0,.14.12.39.16.51a26.58,26.58,0,0,0-4.13,2,2.06,2.06,0,0,0-.32-.49,1.1,1.1,0,0,0,.62-.92v-7.14h.6v7.4Zm4.14-6.55a18.37,18.37,0,0,1-1.33,6.81,21.77,21.77,0,0,1,2.93,3.19l-.5.37a20.64,20.64,0,0,0-2.68-3.07,7.54,7.54,0,0,1-3.74,3.18,3.18,3.18,0,0,0-.42-.5c4-1.55,4.84-4.54,5.14-10Zm-3.41,3.7a15.27,15.27,0,0,0-1.84-2.88l.49-.25a16.35,16.35,0,0,1,1.87,2.83Z"/>
      <path class="cls-2" d="M302.63,178.53a.38.38,0,0,1-.12.28.36.36,0,0,1-.26.11H297.9a.4.4,0,0,1-.29-.11.39.39,0,0,1-.1-.28,2.57,2.57,0,0,1,.1-.75,3.81,3.81,0,0,1,.27-.66,3.12,3.12,0,0,1,.39-.56,4.27,4.27,0,0,1,.47-.48,7.35,7.35,0,0,1,.67-.56c.23-.17.47-.34.69-.52l.66-.51a4.14,4.14,0,0,0,.55-.56,2.52,2.52,0,0,0,.38-.63,1.9,1.9,0,0,0,.14-.73,2.48,2.48,0,0,0-.1-.68,1.59,1.59,0,0,0-.32-.57,1.47,1.47,0,0,0-.53-.38,1.87,1.87,0,0,0-.78-.14,3,3,0,0,0-.71.07,2.73,2.73,0,0,0-.55.2,1.83,1.83,0,0,0-.29.18l-.19.14a1.1,1.1,0,0,1-.14.11.33.33,0,0,1-.15,0,.34.34,0,0,1-.26-.12.38.38,0,0,1-.12-.28.39.39,0,0,1,0-.14.33.33,0,0,1,.1-.14,3.1,3.1,0,0,1,1-.59,3.71,3.71,0,0,1,1.31-.21,2.73,2.73,0,0,1,1.12.21,2.23,2.23,0,0,1,1.24,1.36,3,3,0,0,1,.15.94,2.63,2.63,0,0,1-.17,1,3.27,3.27,0,0,1-.44.77,4.9,4.9,0,0,1-.64.65c-.23.2-.48.4-.73.59s-.51.37-.76.56a5.08,5.08,0,0,0-.69.59,4.43,4.43,0,0,0-.55.68,2.21,2.21,0,0,0-.3.8h3.9a.36.36,0,0,1,.26.11A.34.34,0,0,1,302.63,178.53Z"/>
      <path class="cls-2" d="M309.52,175.86a4.68,4.68,0,0,1-.15,1.19,3,3,0,0,1-.47,1,2.24,2.24,0,0,1-.85.7,3.09,3.09,0,0,1-2.48,0,2.14,2.14,0,0,1-.84-.7,2.86,2.86,0,0,1-.48-1,4.68,4.68,0,0,1-.15-1.19v-2.63a4.68,4.68,0,0,1,.15-1.19,2.86,2.86,0,0,1,.48-1,2.23,2.23,0,0,1,.84-.7,3,3,0,0,1,2.48,0,2.34,2.34,0,0,1,.85.7,3,3,0,0,1,.47,1,4.68,4.68,0,0,1,.15,1.19Zm-.79-2.6a4.23,4.23,0,0,0-.11-1,2,2,0,0,0-.35-.78,1.77,1.77,0,0,0-.6-.52,2.17,2.17,0,0,0-1.73,0,1.65,1.65,0,0,0-.59.52,2.15,2.15,0,0,0-.35.78,4.23,4.23,0,0,0-.11,1v2.58a4.23,4.23,0,0,0,.11,1,2.32,2.32,0,0,0,.35.78,1.6,1.6,0,0,0,.59.5,2.06,2.06,0,0,0,1.73,0,1.71,1.71,0,0,0,.6-.5,2.14,2.14,0,0,0,.35-.78,4.23,4.23,0,0,0,.11-1Z"/>
      <path class="cls-2" d="M316,178.55a.38.38,0,0,1-.37.37h-4.31a.4.4,0,0,1-.27-.11.34.34,0,0,1-.12-.26.38.38,0,0,1,.12-.28.4.4,0,0,1,.27-.11h2.18v-7l-2.34,1.62a.35.35,0,0,1-.28.07.35.35,0,0,1-.24-.16.38.38,0,0,1-.06-.29.36.36,0,0,1,.16-.24l2.91-2a.35.35,0,0,1,.25-.09.38.38,0,0,1,.28.12.35.35,0,0,1,.12.28v7.7h1.33a.36.36,0,0,1,.26.11A.41.41,0,0,1,316,178.55Z"/>
      <path class="cls-2" d="M322.91,173.29a4.63,4.63,0,0,1-.12,1.05,6.14,6.14,0,0,1-.32,1,9,9,0,0,1-.48,1,9.19,9.19,0,0,1-.6.93,9.37,9.37,0,0,1-.68.85c-.23.27-.47.53-.71.77a.41.41,0,0,1-.28.11.38.38,0,0,1-.28-.12.41.41,0,0,1-.11-.28.34.34,0,0,1,.12-.26c.22-.23.45-.47.68-.73s.44-.53.65-.82a10.4,10.4,0,0,0,.56-.9,6.24,6.24,0,0,0,.44-.95,2.68,2.68,0,0,1-.73.34,2.44,2.44,0,0,1-.73.11,3.21,3.21,0,0,1-1-.15A2.27,2.27,0,0,1,318,174a3,3,0,0,1-.21-1.17,3.29,3.29,0,0,1,.19-1.12,2.52,2.52,0,0,1,.54-.86,2.44,2.44,0,0,1,.82-.54,3,3,0,0,1,1.06-.18,2.38,2.38,0,0,1,1,.22,2.07,2.07,0,0,1,.81.63,2.91,2.91,0,0,1,.51,1A4.68,4.68,0,0,1,322.91,173.29Zm-.8,0a3.75,3.75,0,0,0-.14-1.13,2.22,2.22,0,0,0-.38-.77A1.42,1.42,0,0,0,321,171a1.76,1.76,0,0,0-.68-.14,2,2,0,0,0-.75.13,1.73,1.73,0,0,0-.57.38,1.79,1.79,0,0,0-.35.62,2.68,2.68,0,0,0,0,1.68,1.67,1.67,0,0,0,.38.6,1.54,1.54,0,0,0,.57.36,2.43,2.43,0,0,0,1.26,0,2.27,2.27,0,0,0,.46-.16,1.87,1.87,0,0,0,.39-.22l.32-.24c0-.12,0-.24,0-.36S322.11,173.41,322.11,173.29Z"/>
      <path class="cls-2" d="M335,176.93h-4.49v2.88h-.58v-2.88h-5.66v-.57h2v-3.27h3.63V171h-3.14a11.11,11.11,0,0,1-1.93,2.49,3,3,0,0,0-.52-.36,10.46,10.46,0,0,0,2.83-4.25l.59.15a15.34,15.34,0,0,1-.65,1.42h7.39V171h-4v2.08h3.74v.55h-3.74v2.72H335Zm-5.07-.57v-2.72h-3.06v2.72Z"/>
      <path class="cls-2" d="M346.3,172.19c-.2,4.91-.37,6.58-.85,7.11a1.05,1.05,0,0,1-.86.37c-.4,0-1.17,0-1.91-.06a1.11,1.11,0,0,0-.19-.58c.84.08,1.64.08,1.9.08s.42,0,.53-.17c.4-.38.6-2,.78-6.51h-4.5a9.49,9.49,0,0,1-4.42,7.23,2,2,0,0,0-.45-.41,9.1,9.1,0,0,0,4.3-6.82h-3.95v-.58h4c0-.56.06-1.1.06-1.6V169h.57v1.3c0,.5,0,1-.05,1.6h5Zm-7.2-.88a11.08,11.08,0,0,0-1.34-1.79l.48-.24a10.52,10.52,0,0,1,1.37,1.75Zm4.39,5.46a13.1,13.1,0,0,0-1.78-2.41l.46-.25a12.51,12.51,0,0,1,1.82,2.36Z"/>
      <path class="cls-2" d="M356.26,175.26a6.42,6.42,0,0,0,2.86,2.14,1.88,1.88,0,0,0-.4.44,7.05,7.05,0,0,1-3.07-2.58h-4a8,8,0,0,1-3.09,2.75,2,2,0,0,0-.41-.45,7.19,7.19,0,0,0,2.88-2.3h-2.75v-.52h2.44v-4h-1.92v-.52h1.92v-1.3h.57v1.3H356v-1.29h.57v1.29h1.91v.52h-1.91v4H359v.52ZM353.88,179h4.25v.52h-9V179h4.18V177.4h-2.65v-.52h2.65v-1.16h.57v1.16h2.71v.52h-2.71Zm-2.6-8.2v1H356v-1Zm0,2.47H356v-1h-4.71Zm0,1.52H356v-1h-4.71Z"/>
      <path class="cls-2" d="M360.29,169.64h4v.53h-1.83a21.77,21.77,0,0,1-.83,3.12H364v5h-2.35v1h-.52v-4.74a7.94,7.94,0,0,1-.72,1.2,2,2,0,0,0-.33-.53,12.47,12.47,0,0,0,1.83-5h-1.59Zm3.16,4.18h-1.83v3.9h1.83Zm7.22,1v4.86h-.56V179h-5.37v-4.21h.58v3.66h2.1v-4.69H365V170h.54v3.18h1.86V169H368v4.2h1.76V170h.56v3.72H368v4.69h2.11v-3.67Z"/>
      <path class="cls-2" d="M374.61,174.36a7.91,7.91,0,0,1-2.4,5.67l-.46-.28a7.52,7.52,0,0,0,0-10.77l.46-.29A7.91,7.91,0,0,1,374.61,174.36Z"/>
      <path class="cls-3" d="M68.37,158.33a1.39,1.39,0,0,1-.09.5,1.28,1.28,0,0,1-.27.4,1.38,1.38,0,0,1-.4.28,1.21,1.21,0,0,1-.5.1h-.52v1.26a1.26,1.26,0,0,1-.11.51,1.19,1.19,0,0,1-.28.42,1.31,1.31,0,0,1-1,.39,1.46,1.46,0,0,1-.52-.1,1.37,1.37,0,0,1-.42-.29,1.34,1.34,0,0,1-.28-.42,1.25,1.25,0,0,1-.1-.51v-1.26H59.57a1.21,1.21,0,0,1-.5-.1,1.31,1.31,0,0,1-.4-.26,1.41,1.41,0,0,1-.27-.4,1.46,1.46,0,0,1-.09-.52,1,1,0,0,1,0-.36l.11-.27,4.06-9.62a1.49,1.49,0,0,1,.31-.46,1.27,1.27,0,0,1,.44-.28,1.25,1.25,0,0,1,.51-.1,1.35,1.35,0,0,1,.52.11,1.43,1.43,0,0,1,.44.32,1.3,1.3,0,0,1,.27.43,1.45,1.45,0,0,1,.11.51,1.4,1.4,0,0,1-.1.54l-3.36,7.9h2.26v-1.62a1.34,1.34,0,0,1,.1-.52,1.52,1.52,0,0,1,.28-.43,1.19,1.19,0,0,1,.42-.28,1.27,1.27,0,0,1,.52-.11,1.35,1.35,0,0,1,.52.11,1.24,1.24,0,0,1,.71.71,1.35,1.35,0,0,1,.11.52v1.62h.52a1.39,1.39,0,0,1,.5.1,1.38,1.38,0,0,1,.4.28,1.41,1.41,0,0,1,.27.4A1.43,1.43,0,0,1,68.37,158.33Z"/>
      <path class="cls-3" d="M79.33,157A6.54,6.54,0,0,1,79,159a4.83,4.83,0,0,1-.92,1.65,4.33,4.33,0,0,1-1.51,1.11,5.5,5.5,0,0,1-4.12,0,4.29,4.29,0,0,1-1.5-1.11A4.69,4.69,0,0,1,70,159a6.84,6.84,0,0,1-.31-2.06v-4.5a6.71,6.71,0,0,1,.31-2,4.73,4.73,0,0,1,.93-1.66,4.29,4.29,0,0,1,1.5-1.11,5.5,5.5,0,0,1,4.12,0,4.33,4.33,0,0,1,1.51,1.11,4.87,4.87,0,0,1,.92,1.66,6.41,6.41,0,0,1,.31,2Zm-2.76-4.56a4.13,4.13,0,0,0-.15-1.18,2.43,2.43,0,0,0-.42-.82,1.72,1.72,0,0,0-.65-.49,2.21,2.21,0,0,0-1.65,0,1.69,1.69,0,0,0-.64.49,2.26,2.26,0,0,0-.42.82,4.15,4.15,0,0,0-.14,1.18v4.64a4.11,4.11,0,0,0,.14,1.18,2.18,2.18,0,0,0,.42.82,1.57,1.57,0,0,0,.64.48,2.21,2.21,0,0,0,1.65,0,1.6,1.6,0,0,0,.65-.48,2.34,2.34,0,0,0,.42-.82,4.08,4.08,0,0,0,.15-1.18Z"/>
      <path class="cls-3" d="M85.82,150.71a2.35,2.35,0,0,1-.2,1,2,2,0,0,1-.5.7,2,2,0,0,1-.74.42,2.9,2.9,0,0,1-1.78,0,2,2,0,0,1-.73-.42,1.89,1.89,0,0,1-.51-.7,2.35,2.35,0,0,1-.19-1v-1.2a2.29,2.29,0,0,1,.19-1,1.93,1.93,0,0,1,.51-.71,2,2,0,0,1,.73-.42,2.9,2.9,0,0,1,1.78,0,2,2,0,0,1,1.24,1.13,2.28,2.28,0,0,1,.2,1Zm-1.63-1.22a.83.83,0,0,0-.19-.61.78.78,0,0,0-1,0,.83.83,0,0,0-.19.61v1.26a.83.83,0,0,0,.19.61.78.78,0,0,0,1,0,.83.83,0,0,0,.19-.61Zm.16,12.22a.72.72,0,0,1-.4.42.78.78,0,0,1-.6,0,.75.75,0,0,1-.43-.41.68.68,0,0,1,0-.59l4.94-13.4a.74.74,0,0,1,.4-.43.68.68,0,0,1,.59,0,.69.69,0,0,1,.43.39.78.78,0,0,1,0,.6ZM91.07,160a2.32,2.32,0,0,1-.19,1,2,2,0,0,1-.5.7,2.5,2.5,0,0,1-.75.42,2.91,2.91,0,0,1-.89.14,2.86,2.86,0,0,1-.89-.14,2.34,2.34,0,0,1-.74-.42,2.15,2.15,0,0,1-.51-.7,2.32,2.32,0,0,1-.19-1v-1.22a2.32,2.32,0,0,1,.19-1,2.19,2.19,0,0,1,.51-.71,2,2,0,0,1,.74-.42,2.6,2.6,0,0,1,.89-.14,2.63,2.63,0,0,1,.89.14,2.13,2.13,0,0,1,.75.42,2,2,0,0,1,.5.71,2.32,2.32,0,0,1,.19,1Zm-1.62-1.26a.82.82,0,0,0-.19-.59.69.69,0,0,0-.52-.19.66.66,0,0,0-.5.19.82.82,0,0,0-.19.59V160a.85.85,0,0,0,.19.61.66.66,0,0,0,.5.19.72.72,0,0,0,.51-.19.81.81,0,0,0,.2-.61Z"/>
      <path class="cls-3" d="M163.18,158a4.1,4.1,0,0,1-.3,1.54,3.78,3.78,0,0,1-.92,1.34,4.36,4.36,0,0,1-1.52.94,5.92,5.92,0,0,1-2.16.36,7.05,7.05,0,0,1-2.1-.27,3.39,3.39,0,0,1-1.41-.82,1.84,1.84,0,0,1-.35-.49,1.34,1.34,0,0,1-.13-.54,1.2,1.2,0,0,1,.33-.83A1.16,1.16,0,0,1,155,159a1.14,1.14,0,0,1,.46-.09.92.92,0,0,1,.46.13c.15.08.34.2.57.35a3.15,3.15,0,0,0,.77.32,4.11,4.11,0,0,0,.92.1,2.26,2.26,0,0,0,1.63-.57,2.09,2.09,0,0,0,.59-1.55,2.14,2.14,0,0,0-.18-.93,1.6,1.6,0,0,0-.48-.6,2.16,2.16,0,0,0-.72-.33,5,5,0,0,0-.89-.11,2.81,2.81,0,0,1-.5,0,1.11,1.11,0,0,1-.45-.17.91.91,0,0,1-.32-.35,1.28,1.28,0,0,1-.12-.6,1.08,1.08,0,0,1,.13-.56,1.1,1.1,0,0,1,.35-.36,1.5,1.5,0,0,1,.47-.19,2.94,2.94,0,0,1,.51-.05,4.71,4.71,0,0,0,.85-.1,2.37,2.37,0,0,0,.73-.29,1.62,1.62,0,0,0,.51-.56,1.78,1.78,0,0,0,.19-.85,2.75,2.75,0,0,0-.1-.7,1.55,1.55,0,0,0-.32-.61,1.6,1.6,0,0,0-.6-.43,2.25,2.25,0,0,0-.91-.16,3.14,3.14,0,0,0-1,.13,3.62,3.62,0,0,0-.8.36l-.26.16-.25.16a1.36,1.36,0,0,1-.28.11,1,1,0,0,1-.32,0,1.09,1.09,0,0,1-.39-.08,1.13,1.13,0,0,1-.35-.21,1,1,0,0,1-.25-.36,1.38,1.38,0,0,1-.09-.52,1.33,1.33,0,0,1,.16-.62,1.86,1.86,0,0,1,.54-.6,3.75,3.75,0,0,1,.55-.36,4.67,4.67,0,0,1,.74-.33,4.79,4.79,0,0,1,.94-.23,6.55,6.55,0,0,1,1.13-.09,5.66,5.66,0,0,1,1.43.17,4.32,4.32,0,0,1,1.11.48,3.43,3.43,0,0,1,.81.69,3.78,3.78,0,0,1,.56.83,4.28,4.28,0,0,1,.31.89,4.47,4.47,0,0,1,.1.87,3.51,3.51,0,0,1-.54,2,3.39,3.39,0,0,1-1.62,1.26,4.2,4.2,0,0,1,1,.49,2.93,2.93,0,0,1,.76.73,3.32,3.32,0,0,1,.48,1A4.8,4.8,0,0,1,163.18,158Z"/>
      <path class="cls-3" d="M174.54,157.41a5.56,5.56,0,0,1-.29,1.77,4.29,4.29,0,0,1-.86,1.53,4.17,4.17,0,0,1-1.5,1.07,5.37,5.37,0,0,1-2.18.41A7.17,7.17,0,0,1,168,162a5,5,0,0,1-1.5-.63,1.49,1.49,0,0,1-.54-.55,1.3,1.3,0,0,1-.16-.62,1.43,1.43,0,0,1,.09-.5,1.41,1.41,0,0,1,.26-.42,1.45,1.45,0,0,1,.39-.3,1.18,1.18,0,0,1,.5-.11,1.57,1.57,0,0,1,.37,0,1.4,1.4,0,0,1,.39.19,2.61,2.61,0,0,0,.32.2,4.34,4.34,0,0,0,.43.21,3.44,3.44,0,0,0,.54.17,2.45,2.45,0,0,0,.62.07,2.21,2.21,0,0,0,1-.19,1.69,1.69,0,0,0,.64-.51,2,2,0,0,0,.35-.74,3.85,3.85,0,0,0,.1-.91,3.46,3.46,0,0,0-.13-1,1.91,1.91,0,0,0-.37-.68,1.39,1.39,0,0,0-.55-.39,1.84,1.84,0,0,0-.66-.12,2.37,2.37,0,0,0-.49,0,1.52,1.52,0,0,0-.38.11l-.32.16-.29.2c-.1.08-.2.14-.28.21l-.25.16a1.1,1.1,0,0,1-.55.15,1.51,1.51,0,0,1-.53-.09,1.26,1.26,0,0,1-.42-.27,1.12,1.12,0,0,1-.27-.43,1.29,1.29,0,0,1-.08-.56l.19-6.17a1.49,1.49,0,0,1,.14-.51,1.35,1.35,0,0,1,.3-.4,1.27,1.27,0,0,1,.41-.27,1.29,1.29,0,0,1,.48-.1h4.84a1.26,1.26,0,0,1,.51.11,1.19,1.19,0,0,1,.42.28,1.34,1.34,0,0,1,.28.42,1.35,1.35,0,0,1,0,1,1.3,1.3,0,0,1-.28.41,1.34,1.34,0,0,1-.42.28,1.25,1.25,0,0,1-.51.1h-3.69l-.09,3.09a3.33,3.33,0,0,1,.74-.23,4.13,4.13,0,0,1,.78-.08,4.66,4.66,0,0,1,1.75.31,3.58,3.58,0,0,1,1.34.89,4,4,0,0,1,.85,1.44A5.81,5.81,0,0,1,174.54,157.41Z"/>
      <path class="cls-3" d="M181.44,150.71a2.35,2.35,0,0,1-.19,1,1.92,1.92,0,0,1-.51.7,2,2,0,0,1-.73.42,2.9,2.9,0,0,1-1.78,0,2,2,0,0,1-.74-.42,2,2,0,0,1-.51-.7,2.51,2.51,0,0,1-.19-1v-1.2a2.48,2.48,0,0,1,.19-1,2.19,2.19,0,0,1,.51-.71,2.16,2.16,0,0,1,.74-.42,2.9,2.9,0,0,1,1.78,0,2.11,2.11,0,0,1,.73.42,2.05,2.05,0,0,1,.51.71,2.32,2.32,0,0,1,.19,1Zm-1.62-1.22a.83.83,0,0,0-.19-.61.78.78,0,0,0-1,0,.83.83,0,0,0-.19.61v1.26a.83.83,0,0,0,.19.61.78.78,0,0,0,1,0,.83.83,0,0,0,.19-.61Zm.16,12.22a.79.79,0,0,1-.41.43.8.8,0,0,1-.59,0,.76.76,0,0,1-.44-1l4.94-13.39a.77.77,0,0,1,.41-.44.68.68,0,0,1,.59,0,.72.72,0,0,1,.43.39.88.88,0,0,1,0,.6ZM186.7,160a2.48,2.48,0,0,1-.19,1,1.89,1.89,0,0,1-.51.7,2.34,2.34,0,0,1-.74.42,3,3,0,0,1-.9.14,2.91,2.91,0,0,1-.89-.14,2.29,2.29,0,0,1-.73-.42,2,2,0,0,1-.51-.7,2.32,2.32,0,0,1-.19-1v-1.22a2.32,2.32,0,0,1,.19-1,2.05,2.05,0,0,1,.51-.71,2,2,0,0,1,.73-.42,2.63,2.63,0,0,1,.89-.14,2.73,2.73,0,0,1,.9.14,2,2,0,0,1,.74.42,1.93,1.93,0,0,1,.51.71,2.48,2.48,0,0,1,.19,1Zm-1.62-1.26a.78.78,0,0,0-.2-.59.68.68,0,0,0-.52-.19.66.66,0,0,0-.49.19.78.78,0,0,0-.19.59V160a.81.81,0,0,0,.19.61.66.66,0,0,0,.49.19.73.73,0,0,0,.52-.19.81.81,0,0,0,.2-.61Z"/>
      <path class="cls-3" d="M256.07,157.41a5.56,5.56,0,0,1-.29,1.77,4.47,4.47,0,0,1-.87,1.53,4.17,4.17,0,0,1-1.5,1.07,5.28,5.28,0,0,1-2.17.41,7.31,7.31,0,0,1-1.72-.19,5,5,0,0,1-1.49-.63,1.35,1.35,0,0,1-.54-.55,1.33,1.33,0,0,1-.16-.62,1.43,1.43,0,0,1,.09-.5,1.29,1.29,0,0,1,.26-.42,1.27,1.27,0,0,1,.39-.3,1.15,1.15,0,0,1,.5-.11,1.64,1.64,0,0,1,.37,0,1.4,1.4,0,0,1,.39.19l.31.2.44.21a3.44,3.44,0,0,0,.54.17,3,3,0,0,0,.62.07,2.13,2.13,0,0,0,1-.19,1.55,1.55,0,0,0,.64-.51,1.88,1.88,0,0,0,.35-.74,3.39,3.39,0,0,0,.11-.91,3.46,3.46,0,0,0-.13-1,2.06,2.06,0,0,0-.38-.69,1.36,1.36,0,0,0-.54-.38,1.85,1.85,0,0,0-.67-.12,2.33,2.33,0,0,0-.48,0,1.41,1.41,0,0,0-.38.11l-.32.16-.29.2-.28.2-.25.17a.85.85,0,0,1-.26.11,1,1,0,0,1-.3,0,1.5,1.5,0,0,1-.52-.09,1.17,1.17,0,0,1-.42-.27,1.28,1.28,0,0,1-.28-.43,1.32,1.32,0,0,1-.07-.57l.19-6.16a1.29,1.29,0,0,1,.14-.51,1.4,1.4,0,0,1,.3-.41,1.43,1.43,0,0,1,.41-.26,1.29,1.29,0,0,1,.48-.1h4.83a1.27,1.27,0,0,1,.52.11,1.29,1.29,0,0,1,.42.28,1.34,1.34,0,0,1,.28.42,1.35,1.35,0,0,1,0,1,1.3,1.3,0,0,1-.28.41,1.47,1.47,0,0,1-.42.28,1.27,1.27,0,0,1-.52.1H250.4l-.1,3.09a3.26,3.26,0,0,1,.75-.23,4.13,4.13,0,0,1,.78-.08,4.7,4.7,0,0,1,1.75.31,3.56,3.56,0,0,1,1.33.88,4.11,4.11,0,0,1,.86,1.45A5.77,5.77,0,0,1,256.07,157.41Z"/>
      <path class="cls-3" d="M267.27,157.41a5.56,5.56,0,0,1-.29,1.77,4.47,4.47,0,0,1-.87,1.53,4.22,4.22,0,0,1-1.49,1.07,5.37,5.37,0,0,1-2.18.41,7.31,7.31,0,0,1-1.72-.19,5,5,0,0,1-1.49-.63,1.41,1.41,0,0,1-.54-.55,1.33,1.33,0,0,1-.16-.62,1.43,1.43,0,0,1,.09-.5,1.29,1.29,0,0,1,.26-.42,1.27,1.27,0,0,1,.39-.3,1.15,1.15,0,0,1,.5-.11,1.57,1.57,0,0,1,.37,0,1.4,1.4,0,0,1,.39.19,2.61,2.61,0,0,0,.32.2,4.34,4.34,0,0,0,.43.21,3.44,3.44,0,0,0,.54.17,3,3,0,0,0,.62.07,2.13,2.13,0,0,0,1-.19,1.55,1.55,0,0,0,.64-.51,2,2,0,0,0,.36-.74,3.85,3.85,0,0,0,.1-.91,3.46,3.46,0,0,0-.13-1,2.05,2.05,0,0,0-.37-.69,1.47,1.47,0,0,0-.55-.38,1.85,1.85,0,0,0-.67-.12,2.33,2.33,0,0,0-.48,0,1.41,1.41,0,0,0-.38.11,3.18,3.18,0,0,0-.32.16l-.29.2-.28.2-.25.17a1.1,1.1,0,0,1-.55.15,1.51,1.51,0,0,1-.53-.09,1.17,1.17,0,0,1-.42-.27,1.28,1.28,0,0,1-.28-.43,1.32,1.32,0,0,1-.07-.57l.19-6.16a1.29,1.29,0,0,1,.14-.51,1.4,1.4,0,0,1,.3-.41,1.43,1.43,0,0,1,.41-.26,1.29,1.29,0,0,1,.48-.1h4.83a1.27,1.27,0,0,1,.52.11,1.19,1.19,0,0,1,.42.28,1.34,1.34,0,0,1,.28.42,1.35,1.35,0,0,1,0,1,1.3,1.3,0,0,1-.28.41,1.34,1.34,0,0,1-.42.28,1.27,1.27,0,0,1-.52.1H261.6l-.1,3.09a3.59,3.59,0,0,1,.75-.23,4.13,4.13,0,0,1,.78-.08,4.66,4.66,0,0,1,1.75.31,3.56,3.56,0,0,1,1.33.88,4,4,0,0,1,.86,1.45A5.77,5.77,0,0,1,267.27,157.41Z"/>
      <path class="cls-3" d="M274.17,150.71a2.35,2.35,0,0,1-.19,1,2,2,0,0,1-.51.7,2,2,0,0,1-.73.42,2.91,2.91,0,0,1-.89.14,2.86,2.86,0,0,1-.89-.14,2,2,0,0,1-.74-.42,2,2,0,0,1-.51-.7,2.51,2.51,0,0,1-.19-1v-1.2a2.48,2.48,0,0,1,.19-1,2.19,2.19,0,0,1,.51-.71,2.16,2.16,0,0,1,.74-.42,2.6,2.6,0,0,1,.89-.14,2.63,2.63,0,0,1,.89.14,2.11,2.11,0,0,1,.73.42,2.19,2.19,0,0,1,.51.71,2.32,2.32,0,0,1,.19,1Zm-1.62-1.22a.83.83,0,0,0-.2-.61.72.72,0,0,0-.5-.19.73.73,0,0,0-.51.19.83.83,0,0,0-.2.61v1.26a.83.83,0,0,0,.2.61.69.69,0,0,0,.51.19.68.68,0,0,0,.5-.19.83.83,0,0,0,.2-.61Zm.16,12.22a.79.79,0,0,1-.41.43.8.8,0,0,1-.59,0,.73.73,0,0,1-.43-.41.71.71,0,0,1,0-.59l4.94-13.39a.74.74,0,0,1,.41-.44.68.68,0,0,1,.59,0,.72.72,0,0,1,.43.39.88.88,0,0,1,0,.6Zm6.71-1.76a2.48,2.48,0,0,1-.18,1,1.89,1.89,0,0,1-.51.7,2.28,2.28,0,0,1-.75.42,2.9,2.9,0,0,1-1.78,0,2.45,2.45,0,0,1-.74-.42,2,2,0,0,1-.5-.7,2.32,2.32,0,0,1-.19-1v-1.22a2.32,2.32,0,0,1,.19-1,2,2,0,0,1,.5-.71,2.09,2.09,0,0,1,.74-.42,2.9,2.9,0,0,1,1.78,0,2,2,0,0,1,.75.42,1.93,1.93,0,0,1,.51.71,2.48,2.48,0,0,1,.18,1Zm-1.62-1.26a.78.78,0,0,0-.19-.59.68.68,0,0,0-.52-.19.64.64,0,0,0-.49.19.78.78,0,0,0-.19.59V160a.81.81,0,0,0,.19.61.64.64,0,0,0,.49.19.69.69,0,0,0,.51-.19.77.77,0,0,0,.2-.61Z"/>
      <path class="cls-3" d="M355.75,148.75a1.63,1.63,0,0,1-.05.36,1.9,1.9,0,0,1-.12.36L351,161.31a1.27,1.27,0,0,1-.28.46,1.39,1.39,0,0,1-.43.3,1.58,1.58,0,0,1-.52.12,1.5,1.5,0,0,1-1-.38,1.39,1.39,0,0,1-.3-.43,1.35,1.35,0,0,1,0-1.07l4.1-10.26h-5.13a1.27,1.27,0,0,1-.52-.1,1.47,1.47,0,0,1-.42-.28,1.3,1.3,0,0,1-.28-.41,1.35,1.35,0,0,1,0-1,1.34,1.34,0,0,1,.28-.42,1.29,1.29,0,0,1,.42-.28,1.27,1.27,0,0,1,.52-.11h7a1.25,1.25,0,0,1,.5.11,1.19,1.19,0,0,1,.42.28,1.37,1.37,0,0,1,.29.42A1.26,1.26,0,0,1,355.75,148.75Z"/>
      <path class="cls-3" d="M367,148.75a1.63,1.63,0,0,1-.05.36,1.9,1.9,0,0,1-.12.36l-4.58,11.84a1.27,1.27,0,0,1-.28.46,1.39,1.39,0,0,1-.43.3,1.52,1.52,0,0,1-.52.12,1.37,1.37,0,0,1-.55-.1,1.31,1.31,0,0,1-.45-.28,1.43,1.43,0,0,1-.31-.43,1.48,1.48,0,0,1,0-1.07l4.11-10.26h-5.14a1.22,1.22,0,0,1-.51-.1,1.34,1.34,0,0,1-.42-.28,1.33,1.33,0,0,1-.29-.41,1.35,1.35,0,0,1,0-1,1.37,1.37,0,0,1,.29-.42,1.19,1.19,0,0,1,.42-.28,1.23,1.23,0,0,1,.51-.11h7a1.22,1.22,0,0,1,.5.11,1.19,1.19,0,0,1,.42.28,1.37,1.37,0,0,1,.29.42A1.26,1.26,0,0,1,367,148.75Z"/>
      <path class="cls-3" d="M373.51,150.71a2.35,2.35,0,0,1-.19,1,2.15,2.15,0,0,1-.51.7,2,2,0,0,1-.73.42,3,3,0,0,1-.89.14,2.86,2.86,0,0,1-.89-.14,2,2,0,0,1-.74-.42,2.15,2.15,0,0,1-.51-.7,2.51,2.51,0,0,1-.19-1v-1.2a2.45,2.45,0,0,1,.19-1,2.19,2.19,0,0,1,.51-.71,2,2,0,0,1,.74-.42,2.6,2.6,0,0,1,.89-.14,2.67,2.67,0,0,1,.89.14,2,2,0,0,1,.73.42,2.19,2.19,0,0,1,.51.71,2.29,2.29,0,0,1,.19,1Zm-1.62-1.22a.83.83,0,0,0-.2-.61.72.72,0,0,0-.5-.19.73.73,0,0,0-.51.19.83.83,0,0,0-.2.61v1.26a.83.83,0,0,0,.2.61.69.69,0,0,0,.51.19.68.68,0,0,0,.5-.19.83.83,0,0,0,.2-.61Zm.16,12.22a.74.74,0,0,1-.41.42.75.75,0,0,1-.59,0,.73.73,0,0,1-.43-.41.71.71,0,0,1,0-.59l4.94-13.4a.75.75,0,0,1,.41-.43.68.68,0,0,1,.59,0,.72.72,0,0,1,.43.39.88.88,0,0,1,0,.6Zm6.71-1.76a2.48,2.48,0,0,1-.18,1,1.89,1.89,0,0,1-.51.7,2.28,2.28,0,0,1-.75.42,2.9,2.9,0,0,1-1.78,0,2.45,2.45,0,0,1-.74-.42,2,2,0,0,1-.5-.7,2.32,2.32,0,0,1-.19-1v-1.22a2.32,2.32,0,0,1,.19-1,2,2,0,0,1,.5-.71,2.09,2.09,0,0,1,.74-.42,2.9,2.9,0,0,1,1.78,0,2,2,0,0,1,.75.42,1.93,1.93,0,0,1,.51.71,2.48,2.48,0,0,1,.18,1Zm-1.62-1.26a.78.78,0,0,0-.19-.59.68.68,0,0,0-.52-.19.64.64,0,0,0-.49.19.78.78,0,0,0-.19.59V160a.81.81,0,0,0,.19.61.64.64,0,0,0,.49.19.69.69,0,0,0,.51-.19.77.77,0,0,0,.2-.61Z"/>
      <rect class="cls-4" x="145.94" y="21.99" width="49.59" height="40.63"/>
      <rect class="cls-5" x="145.94" y="62.62" width="49.59" height="78.2"/>
      <rect class="cls-6" x="241.75" y="21.99" width="49.59" height="63.63"/>
      <rect class="cls-7" x="241.75" y="85.62" width="49.59" height="55.2"/>
      <rect class="cls-8" x="337.55" y="21.99" width="49.59" height="91.71"/>
      <rect class="cls-9" x="337.55" y="113.7" width="49.59" height="27.12"/>
      <rect class="cls-10" x="433.36" y="21.99" width="49.59" height="118.83"/>
      <rect class="cls-11" x="50.13" y="21.99" width="49.59" height="47.55"/>
      <rect class="cls-12" x="50.13" y="69.54" width="49.59" height="71.28"/>
    </g>
  </g>
</svg>