<svg xmlns="http://www.w3.org/2000/svg" xmlns:xlink="http://www.w3.org/1999/xlink" viewBox="0 0 181.06 80.99">
  <defs>
    <style>.cls-1{isolation:isolate;}.cls-2,.cls-26,.cls-27,.cls-33,.cls-34,.cls-35,.cls-36,.cls-37,.cls-38,.cls-39,.cls-40,.cls-41{fill:none;}.cls-2{stroke:#31756c;mix-blend-mode:color-dodge;}.cls-2,.cls-26,.cls-27{stroke-miterlimit:10;}.cls-2,.cls-27{stroke-width:0.97px;}.cls-3{opacity:0.2;}.cls-10,.cls-11,.cls-12,.cls-13,.cls-14,.cls-15,.cls-16,.cls-17,.cls-18,.cls-19,.cls-20,.cls-21,.cls-22,.cls-23,.cls-24,.cls-25,.cls-4,.cls-5,.cls-6,.cls-7,.cls-8,.cls-9{fill:#00dcff;}.cls-5{opacity:0.95;}.cls-6{opacity:0.9;}.cls-7{opacity:0.86;}.cls-8{opacity:0.81;}.cls-9{opacity:0.76;}.cls-10{opacity:0.71;}.cls-11{opacity:0.67;}.cls-12{opacity:0.62;}.cls-13{opacity:0.57;}.cls-14{opacity:0.52;}.cls-15{opacity:0.48;}.cls-16{opacity:0.43;}.cls-17{opacity:0.38;}.cls-18{opacity:0.33;}.cls-19{opacity:0.29;}.cls-20{opacity:0.24;}.cls-21{opacity:0.19;}.cls-22{opacity:0.14;}.cls-23{opacity:0.1;}.cls-24{opacity:0.05;}.cls-25{opacity:0;}.cls-26,.cls-27{stroke:#5cdaff;}.cls-26{stroke-width:1.17px;}.cls-28{fill:url(#未命名的渐变_16);}.cls-29{fill:url(#新建渐变色板_1);}.cls-30{fill:url(#新建渐变色板_1-2);}.cls-31{fill:url(#新建渐变色板_1-3);}.cls-32{fill:url(#新建渐变色板_1-4);}.cls-33,.cls-34,.cls-35,.cls-36,.cls-37,.cls-38,.cls-39,.cls-40,.cls-41{stroke-linecap:round;stroke-linejoin:round;stroke-width:1.55px;}.cls-33,.cls-34,.cls-35,.cls-36,.cls-37,.cls-38{fill-rule:evenodd;}.cls-33{stroke:url(#新建渐变色板_1-5);}.cls-34{stroke:url(#新建渐变色板_1-6);}.cls-35{stroke:url(#新建渐变色板_1-7);}.cls-36{stroke:url(#新建渐变色板_1-8);}.cls-37{stroke:url(#新建渐变色板_1-9);}.cls-38{stroke:url(#新建渐变色板_1-10);}.cls-39{stroke:url(#新建渐变色板_1-11);}.cls-40{stroke:url(#新建渐变色板_1-12);}.cls-41{stroke:url(#新建渐变色板_1-13);}</style>
    <linearGradient id="未命名的渐变_16" x1="77.05" y1="5.71" x2="99.37" y2="51.36" gradientUnits="userSpaceOnUse">
      <stop offset="0.37" stop-color="#fff" stop-opacity="0.05"/>
      <stop offset="0.62" stop-color="#fff" stop-opacity="0.07"/>
      <stop offset="0.96" stop-color="#fff" stop-opacity="0.14"/>
      <stop offset="1" stop-color="#fff" stop-opacity="0.15"/>
      <animate attributeName="x1" values="33;77.05;99.37;33" dur="5s" repeatCount="indefinite"></animate>
      <animate attributeName="y1" values="0;5.71;51.36;0" dur="5s" repeatCount="indefinite"></animate>
      <animate attributeName="x2" values="22.32;99.37;150;22.32" dur="5s" repeatCount="indefinite"></animate>
      <animate attributeName="y2" values="22.32;51.36;100;22.32" dur="5s" repeatCount="indefinite"></animate>
    </linearGradient>
    <linearGradient id="新建渐变色板_1" x1="77.25" y1="41.76" x2="78.56" y2="41.76" gradientUnits="userSpaceOnUse">
      <stop offset="0" stop-color="#00d7ff"/>
      <stop offset="0.09" stop-color="#0fd9ff"/>
      <stop offset="0.27" stop-color="#36dfff"/>
      <stop offset="0.52" stop-color="#75e9ff"/>
      <stop offset="0.83" stop-color="#cbf7ff"/>
      <stop offset="1" stop-color="#fff"/>
    </linearGradient>
    <linearGradient id="新建渐变色板_1-2" x1="56.27" y1="39.79" x2="62.83" y2="39.79" xlink:href="#新建渐变色板_1"/>
    <linearGradient id="新建渐变色板_1-3" x1="63.81" y1="39.79" x2="70.7" y2="39.79" xlink:href="#新建渐变色板_1"/>
    <linearGradient id="新建渐变色板_1-4" x1="71.68" y1="39.79" x2="78.56" y2="39.79" xlink:href="#新建渐变色板_1"/>
    <linearGradient id="新建渐变色板_1-5" x1="104.96" y1="38.9" x2="115.62" y2="38.9" xlink:href="#新建渐变色板_1"/>
    <linearGradient id="新建渐变色板_1-6" x1="96.17" y1="39.55" x2="108.75" y2="39.55" xlink:href="#新建渐变色板_1"/>
    <linearGradient id="新建渐变色板_1-7" x1="91.7" y1="47.38" x2="102.59" y2="47.38" xlink:href="#新建渐变色板_1"/>
    <linearGradient id="新建渐变色板_1-8" x1="92.55" y1="54.82" x2="105.82" y2="54.82" xlink:href="#新建渐变色板_1"/>
    <linearGradient id="新建渐变色板_1-9" x1="104.85" y1="55.11" x2="116.8" y2="55.11" xlink:href="#新建渐变色板_1"/>
    <linearGradient id="新建渐变色板_1-10" x1="109.01" y1="48.77" x2="120.25" y2="48.77" xlink:href="#新建渐变色板_1"/>
    <linearGradient id="新建渐变色板_1-11" x1="126.49" y1="41.24" x2="135.71" y2="41.24" xlink:href="#新建渐变色板_1"/>
    <linearGradient id="新建渐变色板_1-12" x1="45.25" y1="24.49" x2="135.71" y2="24.49" xlink:href="#新建渐变色板_1"/>
    <linearGradient id="新建渐变色板_1-13" x1="45.25" y1="47.36" x2="128.04" y2="47.36" xlink:href="#新建渐变色板_1"/>
  </defs>
  <g class="cls-1">
    <g id="图层_2" data-name="图层 2">
      <g id="图层_2-2" data-name="图层 2">
        <path class="cls-2" d="M.48,80.41h180V.48H.48Z"/>
        <g class="cls-3">
          <rect class="cls-4" x="4.24" y="3.06" width="172.47" height="74.77"/>
          <rect class="cls-5" x="4.81" y="3.45" width="171.33" height="73.99"/>
          <rect class="cls-6" x="5.39" y="3.84" width="170.18" height="73.21"/>
          <rect class="cls-7" x="5.96" y="4.23" width="169.04" height="72.43"/>
          <rect class="cls-8" x="6.53" y="4.62" width="167.9" height="71.64"/>
          <rect class="cls-9" x="7.1" y="5.02" width="166.76" height="70.86"/>
          <rect class="cls-10" x="7.67" y="5.41" width="165.62" height="70.08"/>
          <rect class="cls-11" x="8.24" y="5.8" width="164.47" height="69.3"/>
          <rect class="cls-12" x="8.81" y="6.19" width="163.33" height="68.51"/>
          <rect class="cls-13" x="9.38" y="6.58" width="162.19" height="67.73"/>
          <rect class="cls-14" x="9.95" y="6.97" width="161.05" height="66.95"/>
          <rect class="cls-15" x="10.52" y="7.36" width="159.91" height="66.17"/>
          <rect class="cls-16" x="11.1" y="7.75" width="158.76" height="65.38"/>
          <rect class="cls-17" x="11.67" y="8.15" width="157.62" height="64.6"/>
          <rect class="cls-18" x="12.24" y="8.54" width="156.48" height="63.82"/>
          <rect class="cls-19" x="12.81" y="8.93" width="155.34" height="63.04"/>
          <rect class="cls-20" x="13.38" y="9.32" width="154.2" height="62.25"/>
          <rect class="cls-21" x="13.95" y="9.71" width="153.05" height="61.47"/>
          <rect class="cls-22" x="14.52" y="10.1" width="151.91" height="60.69"/>
          <rect class="cls-23" x="15.09" y="10.49" width="150.77" height="59.91"/>
          <rect class="cls-24" x="15.66" y="10.88" width="149.63" height="59.12"/>
          <rect class="cls-25" x="16.23" y="11.28" width="148.49" height="58.34"/>
        </g>
        <polyline class="cls-26" points="115.46 80.41 180.47 80.41 180.47 66.97"/>
        <polyline class="cls-27" points="28.27 0.48 0.48 0.48 0.48 14.82"/>
        <polygon class="cls-28" points="4.24 3.06 4.24 63.29 176.71 21.2 176.71 3.06 4.24 3.06"/>
        <path class="cls-29" d="M77.79,41.72v-.2h.14c.07,0,.14,0,.14.1s-.07.1-.16.1Zm0,.09h.12l.17.28h.11L78,41.8a.17.17,0,0,0,.17-.18c0-.13-.08-.19-.24-.19h-.25v.66h.1Zm.12.6a.65.65,0,1,0-.66-.65.64.64,0,0,0,.66.65m-.53-.65a.53.53,0,1,1,.53.54.52.52,0,0,1-.53-.54"/>
        <path class="cls-30" d="M62.63,42.41a.2.2,0,0,0,.2-.2V39.33a.2.2,0,0,0-.2-.2H59A.13.13,0,0,1,58.9,39V38a.13.13,0,0,1,.13-.13h1a.13.13,0,0,1,.13.13v.33a.2.2,0,0,0,.19.2H62a.19.19,0,0,0,.19-.2v-.92a.19.19,0,0,0-.19-.2H57.13a.2.2,0,0,0-.2.2v2.23a.2.2,0,0,0,.2.2h3.6a.13.13,0,0,1,.13.13v1.7a.13.13,0,0,1-.13.13H58.37a.13.13,0,0,1-.13-.13v-1a.2.2,0,0,0-.2-.2H56.47a.2.2,0,0,0-.2.2v1.57a.2.2,0,0,0,.2.2Z"/>
        <path class="cls-31" d="M66.11,40.53s0,0,0,0h0L68,42.35a.2.2,0,0,0,.14.06H70.5a.2.2,0,0,0,.2-.2V40.64a.2.2,0,0,0-.2-.2H68.81a.21.21,0,0,1-.14,0l-1.23-1.24s0,0,0,0,0,0,0,0l.57-.58a.2.2,0,0,1,.14-.05h1.7a.2.2,0,0,0,.19-.2v-.92a.2.2,0,0,0-.19-.2h-1.7a.2.2,0,0,0-.14.06s-1.84,1.85-1.85,1.85h0a0,0,0,0,1,0,0V37.36a.2.2,0,0,0-.2-.2H64a.2.2,0,0,0-.2.2v1.57a.2.2,0,0,0,.2.2.13.13,0,0,1,.13.13v1.05a.13.13,0,0,1-.13.13.2.2,0,0,0-.2.2v1.57a.2.2,0,0,0,.2.2h1.9a.2.2,0,0,0,.2-.2Z"/>
        <path class="cls-32" d="M73.78,42.41a.19.19,0,0,0,.19-.2V40.64a.19.19,0,0,0-.19-.2.13.13,0,0,1-.13-.13v-.39a.13.13,0,0,1,.13-.13h.72a.13.13,0,0,1,.13.13.19.19,0,0,0,.2.19H76.4a.19.19,0,0,0,.2-.19V39a.2.2,0,0,0-.2-.2H74.83a.2.2,0,0,0-.2.2.13.13,0,0,1-.13.13h-.72a.13.13,0,0,1-.13-.13V38a.13.13,0,0,1,.13-.13h2a.13.13,0,0,1,.13.13v.33a.2.2,0,0,0,.2.2h2.23a.19.19,0,0,0,.19-.2v-.92a.19.19,0,0,0-.19-.2H71.88a.2.2,0,0,0-.2.2v1.57a.2.2,0,0,0,.2.2.13.13,0,0,1,.13.13v1.05a.13.13,0,0,1-.13.13.2.2,0,0,0-.2.2v1.57a.2.2,0,0,0,.2.2Z"/>
        <path class="cls-33" d="M108,34.8h1.41a2.72,2.72,0,0,1,2.26,1l1.65,2.52,1.52-1.06-2,5.54L107,43l1.42-1.13-2.15-3.19a.69.69,0,0,0-.55-.23Z"/>
        <path class="cls-34" d="M96.94,40.52l2.81-4.61A3.21,3.21,0,0,1,102,34.85l6-.05-2.28,3.67a.66.66,0,0,0-.3.21L102,44.3Z"/>
        <path class="cls-35" d="M93.31,50.71l-.56-1.3a2.55,2.55,0,0,1,.08-2.47l1.84-2.46-1.64-1,6.26-.18,2.52,5.33-1.68-.91-2.3,3.18a.61.61,0,0,0,0,.6Z"/>
        <path class="cls-36" d="M103.3,58.89,97.64,58a3.41,3.41,0,0,1-1.93-1.7l-2.38-5.54,4.52.77a.6.6,0,0,0,.32.19L105,52.79Z"/>
        <path class="cls-37" d="M116,55l-.72,1.24a3,3,0,0,1-2.15,1.54l-3.36.28.26,1.84-4.42-4.37,2.81-5.26.38,1.79,4.26-.4a.72.72,0,0,0,.52-.39Z"/>
        <path class="cls-38" d="M116.17,42.56l3.08,4.63a3,3,0,0,1-.12,2.49L116.05,55l-2.44-3.73a.52.52,0,0,0,0-.36l-3.77-5.62Z"/>
        <polygon class="cls-39" points="127.27 64.1 134.93 51.86 134.93 18.37 127.27 30.61 127.27 64.1"/>
        <polygon class="cls-40" points="134.93 18.37 53.69 18.37 46.02 30.61 127.27 30.61 134.93 18.37"/>
        <rect class="cls-41" x="46.02" y="30.61" width="81.24" height="33.49"/>
      </g>
    </g>
  </g>
</svg>