<svg xmlns="http://www.w3.org/2000/svg" xmlns:xlink="http://www.w3.org/1999/xlink" viewBox="0 0 295.99 227.79">
  <defs>
    <style>.cls-1{fill:url(#未命名的渐变_4);}.cls-2{fill:#fff;}.cls-3,.cls-5{opacity:0.1;}.cls-3{fill:url(#未命名的渐变_42);}.cls-4{fill:url(#未命名的渐变_4-2);}.cls-5{fill:url(#未命名的渐变_42-2);}.cls-6{opacity:0.4;fill:url(#未命名的渐变_41);}.cls-7{fill:#00dcff;}</style>
    <linearGradient id="未命名的渐变_4" x1="102.44" y1="185.69" x2="102.44" y2="123.88" gradientUnits="userSpaceOnUse">
      <stop offset="0" stop-color="#00dcff" stop-opacity="1">
        <animate attributeName="stop-opacity"
                 values="1;0.93;0.76;0.61;0.48;0.38;0.3;0.24;0.21;0.2;0.21;0.24;0.3;0.38;0.48;0.61;0.76;0.93;1"
                 dur="5s" repeatCount="indefinite"></animate>
      </stop>
      <stop offset="0.01" stop-color="#00dcff" stop-opacity="0.93">
        <animate attributeName="stop-opacity"
                 values="0.93;0.76;0.61;0.48;0.38;0.3;0.24;0.21;0.2;0.21;0.24;0.3;0.38;0.48;0.61;0.76;0.93;1;1"
                 dur="5s" repeatCount="indefinite"></animate>
      </stop>
      <stop offset="0.05" stop-color="#00dcff" stop-opacity="0.76">
        <animate attributeName="stop-opacity"
                 values="0.76;0.61;0.48;0.38;0.3;0.24;0.21;0.2;0.21;0.24;0.3;0.38;0.48;0.61;0.76;0.93;1;1;0.93"
                 dur="5s" repeatCount="indefinite"></animate>
      </stop>
      <stop offset="0.1" stop-color="#00dcff" stop-opacity="0.61">
        <animate attributeName="stop-opacity"
                 values="0.61;0.48;0.38;0.3;0.24;0.21;0.2;0.21;0.24;0.3;0.38;0.48;0.61;0.76;0.93;1;1;0.93;0.76"
                 dur="5s" repeatCount="indefinite"></animate>
      </stop>
      <stop offset="0.14" stop-color="#00dcff" stop-opacity="0.48">
        <animate attributeName="stop-opacity"
                 values="0.48;0.38;0.3;0.24;0.21;0.2;0.21;0.24;0.3;0.38;0.48;0.61;0.76;0.93;1;1;0.93;0.76;0.61"
                 dur="5s" repeatCount="indefinite"></animate>
      </stop>
      <stop offset="0.19" stop-color="#00dcff" stop-opacity="0.38">
        <animate attributeName="stop-opacity"
                 values="0.38;0.3;0.24;0.21;0.2;0.21;0.24;0.3;0.38;0.48;0.61;0.76;0.93;1;1;0.93;0.76;0.61;0.48"
                 dur="5s" repeatCount="indefinite"></animate>
      </stop>
      <stop offset="0.24" stop-color="#00dcff" stop-opacity="0.3">
        <animate attributeName="stop-opacity"
                 values="0.3;0.24;0.21;0.2;0.21;0.24;0.3;0.38;0.48;0.61;0.76;0.93;1;1;0.93;0.76;0.61;0.48;0.38"
                 dur="5s" repeatCount="indefinite"></animate>
      </stop>
      <stop offset="0.31" stop-color="#00dcff" stop-opacity="0.24">
        <animate attributeName="stop-opacity"
                 values="0.24;0.21;0.2;0.21;0.24;0.3;0.38;0.48;0.61;0.76;0.93;1;1;0.93;0.76;0.61;0.48;0.38;0.3"
                 dur="5s" repeatCount="indefinite"></animate>
      </stop>
      <stop offset="0.38" stop-color="#00dcff" stop-opacity="0.21">
        <animate attributeName="stop-opacity"
                 values="0.21;0.2;0.21;0.24;0.3;0.38;0.48;0.61;0.76;0.93;1;1;0.93;0.76;0.61;0.48;0.38;0.3;0.24"
                 dur="5s" repeatCount="indefinite"></animate>
      </stop>
      <stop offset="0.5" stop-color="#00dcff" stop-opacity="0.2">
        <animate attributeName="stop-opacity"
                 values="0.2;0.21;0.24;0.3;0.38;0.48;0.61;0.76;0.93;1;1;0.93;0.76;0.61;0.48;0.38;0.3;0.24;0.21"
                 dur="5s" repeatCount="indefinite"></animate>
      </stop>
      <stop offset="0.62" stop-color="#00dcff" stop-opacity="0.21">
        <animate attributeName="stop-opacity"
                 values="0.21;0.24;0.3;0.38;0.48;0.61;0.76;0.93;1;1;0.93;0.76;0.61;0.48;0.38;0.3;0.24;0.21;0.2"
                 dur="5s" repeatCount="indefinite"></animate>
      </stop>
      <stop offset="0.69" stop-color="#00dcff" stop-opacity="0.24">
        <animate attributeName="stop-opacity"
                 values="0.24;0.3;0.38;0.48;0.61;0.76;0.93;1;1;0.93;0.76;0.61;0.48;0.38;0.3;0.24;0.21;0.2;0.21"
                 dur="5s" repeatCount="indefinite"></animate>
      </stop>
      <stop offset="0.76" stop-color="#00dcff" stop-opacity="0.3">
        <animate attributeName="stop-opacity"
                 values="0.3;0.38;0.48;0.61;0.76;0.93;1;1;0.93;0.76;0.61;0.48;0.38;0.3;0.24;0.21;0.2;0.21;0.24"
                 dur="5s" repeatCount="indefinite"></animate>
      </stop>
      <stop offset="0.81" stop-color="#00dcff" stop-opacity="0.38">
        <animate attributeName="stop-opacity"
                 values="0.38;0.48;0.61;0.76;0.93;1;1;0.93;0.76;0.61;0.48;0.38;0.3;0.24;0.21;0.2;0.21;0.24;0.3"
                 dur="5s" repeatCount="indefinite"></animate>
      </stop>
      <stop offset="0.86" stop-color="#00dcff" stop-opacity="0.48">
        <animate attributeName="stop-opacity"
                 values="0.48;0.61;0.76;0.93;1;1;0.93;0.76;0.61;0.48;0.38;0.3;0.24;0.21;0.2;0.21;0.24;0.3;0.38"
                 dur="5s" repeatCount="indefinite"></animate>
      </stop>
      <stop offset="0.9" stop-color="#00dcff" stop-opacity="0.61">
        <animate attributeName="stop-opacity"
                 values="0.61;0.76;0.93;1;1;0.93;0.76;0.61;0.48;0.38;0.3;0.24;0.21;0.2;0.21;0.24;0.3;0.38;0.48"
                 dur="5s" repeatCount="indefinite"></animate>
      </stop>
      <stop offset="0.95" stop-color="#00dcff" stop-opacity="0.76">
        <animate attributeName="stop-opacity"
                 values="0.76;0.93;1;1;0.93;0.76;0.61;0.48;0.38;0.3;0.24;0.21;0.2;0.21;0.24;0.3;0.38;0.48;0.61"
                 dur="5s" repeatCount="indefinite"></animate>
      </stop>
      <stop offset="0.99" stop-color="#00dcff" stop-opacity="0.93">
        <animate attributeName="stop-opacity"
                 values="0.93;1;1;0.93;0.76;0.61;0.48;0.38;0.3;0.24;0.21;0.2;0.21;0.24;0.3;0.38;0.48;0.61;0.76"
                 dur="5s" repeatCount="indefinite"></animate>
      </stop>
      <stop offset="1" stop-color="#00dcff" stop-opacity="1">
        <animate attributeName="stop-opacity"
                 values="1;1;0.93;0.76;0.61;0.48;0.38;0.3;0.24;0.21;0.2;0.21;0.24;0.3;0.38;0.48;0.61;0.76;0.93"
                 dur="5s" repeatCount="indefinite"></animate>
      </stop>
    </linearGradient>
    <linearGradient id="未命名的渐变_42" x1="34.15" y1="185.69" x2="34.15" y2="153.15" gradientUnits="userSpaceOnUse">
      <stop offset="0" stop-color="#fff" stop-opacity="0.5"/>
      <stop offset="1" stop-color="#fff"/>
    </linearGradient>
    <linearGradient id="未命名的渐变_4-2" x1="261.83" y1="185.69" x2="261.83" y2="0" xlink:href="#未命名的渐变_4"/>
    <linearGradient id="未命名的渐变_42-2" x1="193.55" y1="185.69" x2="193.55" y2="80.09" xlink:href="#未命名的渐变_42"/>
    <linearGradient id="未命名的渐变_41" x1="52.86" y1="220.19" x2="63" y2="220.19" gradientUnits="userSpaceOnUse">
      <stop offset="0" stop-color="#fff"/>
      <stop offset="1" stop-color="#fff" stop-opacity="0.5"/>
    </linearGradient>
  </defs>
  <g id="图层_2" data-name="图层 2">
    <g id="图层_2-2" data-name="图层 2">
      <rect class="cls-1" x="68.3" y="123.88" width="68.29" height="61.81"/>
      <path class="cls-2" d="M92,141.43a.77.77,0,0,1-.06.3,1,1,0,0,1-.16.24.82.82,0,0,1-.54.22H86.29a.73.73,0,0,1-.3-.06.74.74,0,0,1-.4-.4.77.77,0,0,1-.06-.3.72.72,0,0,1,.06-.29.74.74,0,0,1,.4-.4.73.73,0,0,1,.3-.06h2.16V134l-2.06,1.38a.77.77,0,0,1-.28.12.69.69,0,0,1-.55-.12.53.53,0,0,1-.21-.21.72.72,0,0,1-.12-.27.93.93,0,0,1,0-.29.81.81,0,0,1,.11-.27.88.88,0,0,1,.21-.22L88.77,132a.8.8,0,0,1,.47-.15.67.67,0,0,1,.31.07.81.81,0,0,1,.42.42.6.6,0,0,1,.07.3v8h1.2a.82.82,0,0,1,.54.22,1,1,0,0,1,.16.24A.72.72,0,0,1,92,141.43Z"/>
      <path class="cls-2" d="M99.43,139.4a2.88,2.88,0,0,1-.21,1.08,2.62,2.62,0,0,1-.62.93,3.09,3.09,0,0,1-1,.66,4.12,4.12,0,0,1-1.47.24,4.65,4.65,0,0,1-1.48-.2,2.52,2.52,0,0,1-1.07-.65,1.1,1.1,0,0,1-.2-.28.71.71,0,0,1-.08-.31.65.65,0,0,1,.68-.68.51.51,0,0,1,.31.11l.44.28a2.59,2.59,0,0,0,.62.27,3,3,0,0,0,.71.08,2,2,0,0,0,.77-.13,1.57,1.57,0,0,0,.57-.35,1.53,1.53,0,0,0,.35-.54,1.92,1.92,0,0,0,.12-.69,1.67,1.67,0,0,0-.15-.75,1.28,1.28,0,0,0-.41-.48,1.5,1.5,0,0,0-.6-.27,3.5,3.5,0,0,0-.74-.08,1.33,1.33,0,0,1-.28,0,.68.68,0,0,1-.25-.09.61.61,0,0,1-.19-.2.73.73,0,0,1-.07-.35.68.68,0,0,1,.08-.34.58.58,0,0,1,.2-.21.81.81,0,0,1,.27-.11,1.24,1.24,0,0,1,.27,0,3,3,0,0,0,.65-.08,1.94,1.94,0,0,0,.59-.25,1.26,1.26,0,0,0,.6-1.12,2.24,2.24,0,0,0-.08-.57,1.51,1.51,0,0,0-.27-.5,1.3,1.3,0,0,0-.49-.36,1.77,1.77,0,0,0-.73-.13,2.39,2.39,0,0,0-.73.1,2.62,2.62,0,0,0-.59.25l-.23.15-.18.14-.18.09a.46.46,0,0,1-.21,0,.59.59,0,0,1-.23,0,.7.7,0,0,1-.4-.64.73.73,0,0,1,.09-.35,1.12,1.12,0,0,1,.29-.34,2.91,2.91,0,0,1,.41-.3,2.72,2.72,0,0,1,.54-.26,3.83,3.83,0,0,1,.67-.18,4.14,4.14,0,0,1,.81-.07,3.73,3.73,0,0,1,1,.12,3.29,3.29,0,0,1,.76.33,2.34,2.34,0,0,1,.55.48,2.42,2.42,0,0,1,.38.58,3.48,3.48,0,0,1,.21.62,3.31,3.31,0,0,1,.06.61,2.41,2.41,0,0,1-.4,1.45,2.55,2.55,0,0,1-1.17.85,3.4,3.4,0,0,1,.72.34,2.11,2.11,0,0,1,.56.51,2.37,2.37,0,0,1,.36.71A3.3,3.3,0,0,1,99.43,139.4Z"/>
      <path class="cls-2" d="M103.62,141.15a1.18,1.18,0,0,1-.09.46,1.15,1.15,0,0,1-.25.37,1.18,1.18,0,0,1-.37.24,1.17,1.17,0,0,1-.9,0,1.31,1.31,0,0,1-.37-.24,1.34,1.34,0,0,1-.25-.37,1.18,1.18,0,0,1-.09-.46,1.13,1.13,0,0,1,.09-.45,1.21,1.21,0,0,1,.25-.37,1.34,1.34,0,0,1,.37-.25,1.17,1.17,0,0,1,.9,0,1.21,1.21,0,0,1,.37.25,1.05,1.05,0,0,1,.25.37A1.13,1.13,0,0,1,103.62,141.15Z"/>
      <path class="cls-2" d="M111.24,139.4a2.88,2.88,0,0,1-.21,1.08,2.76,2.76,0,0,1-.62.93,3.25,3.25,0,0,1-1,.66,4.12,4.12,0,0,1-1.47.24,4.69,4.69,0,0,1-1.48-.2,2.52,2.52,0,0,1-1.07-.65,1.1,1.1,0,0,1-.2-.28.71.71,0,0,1-.08-.31.66.66,0,0,1,.2-.49.65.65,0,0,1,.48-.19.51.51,0,0,1,.31.11l.44.28a2.78,2.78,0,0,0,.62.27,3.11,3.11,0,0,0,.72.08,2,2,0,0,0,.77-.13,1.5,1.5,0,0,0,.91-.89,1.92,1.92,0,0,0,.12-.69,1.67,1.67,0,0,0-.15-.75,1.28,1.28,0,0,0-.41-.48,1.5,1.5,0,0,0-.6-.27,3.4,3.4,0,0,0-.73-.08,1.43,1.43,0,0,1-.29,0,.75.75,0,0,1-.25-.09.49.49,0,0,1-.18-.2.72.72,0,0,1-.08-.35.68.68,0,0,1,.08-.34.58.58,0,0,1,.2-.21.9.9,0,0,1,.27-.11l.27,0a2.89,2.89,0,0,0,.65-.08A1.84,1.84,0,0,0,109,136a1.42,1.42,0,0,0,.44-.44,1.29,1.29,0,0,0,.16-.68,1.87,1.87,0,0,0-.08-.57,1.22,1.22,0,0,0-.27-.5,1.27,1.27,0,0,0-.48-.36,1.82,1.82,0,0,0-.74-.13,2.32,2.32,0,0,0-.72.1,2.44,2.44,0,0,0-.59.25l-.23.15-.19.14-.18.09a.42.42,0,0,1-.2,0,.67.67,0,0,1-.24,0,.86.86,0,0,1-.2-.13.93.93,0,0,1-.14-.22.88.88,0,0,1,0-.29.73.73,0,0,1,.09-.35,1,1,0,0,1,.29-.34,2.77,2.77,0,0,1,.4-.3,3.39,3.39,0,0,1,.54-.26,4.4,4.4,0,0,1,1.48-.25,3.73,3.73,0,0,1,1,.12,3.11,3.11,0,0,1,.76.33A2.65,2.65,0,0,1,111,134a3.36,3.36,0,0,1,.07.61,2.42,2.42,0,0,1-.41,1.45,2.55,2.55,0,0,1-1.17.85,3.26,3.26,0,0,1,.73.34,2.06,2.06,0,0,1,.55.51,2,2,0,0,1,.36.71A3.28,3.28,0,0,1,111.24,139.4Z"/>
      <path class="cls-2" d="M119.37,139.07a3.61,3.61,0,0,1-.24,1.35,2.88,2.88,0,0,1-.67,1,2.92,2.92,0,0,1-1,.65,3.73,3.73,0,0,1-1.32.22,2.9,2.9,0,0,1-1.34-.29,2.85,2.85,0,0,1-1-.8,3.63,3.63,0,0,1-.61-1.21,5.32,5.32,0,0,1-.21-1.52,5.75,5.75,0,0,1,.28-1.78A9.32,9.32,0,0,1,114,135a11.37,11.37,0,0,1,1-1.56,14.21,14.21,0,0,1,1.17-1.34.86.86,0,0,1,.56-.24.88.88,0,0,1,.33.07.78.78,0,0,1,.26.17.72.72,0,0,1,.16.25.81.81,0,0,1,.06.31.74.74,0,0,1-.06.27.75.75,0,0,1-.19.26c-.2.2-.4.42-.59.65s-.4.48-.59.74-.36.53-.53.81a6.9,6.9,0,0,0-.43.86,2.58,2.58,0,0,1,.55-.23,2.78,2.78,0,0,1,.57-.07,3.89,3.89,0,0,1,1.18.19,2.9,2.9,0,0,1,1,.58,2.68,2.68,0,0,1,.68,1A3.35,3.35,0,0,1,119.37,139.07Zm-1.59,0a1.8,1.8,0,0,0-.44-1.29,1.61,1.61,0,0,0-1.22-.46,2.42,2.42,0,0,0-.47,0,3.31,3.31,0,0,0-.41.13,1.92,1.92,0,0,0-.35.18l-.28.19q0,.14,0,.3c0,.1,0,.2,0,.29a3.87,3.87,0,0,0,.14,1.1,2.36,2.36,0,0,0,.35.73,1.31,1.31,0,0,0,.51.41,1.48,1.48,0,0,0,.58.13,1.54,1.54,0,0,0,1.22-.47A1.89,1.89,0,0,0,117.78,139.11Z"/>
      <rect class="cls-3" x="0.01" y="153.15" width="68.29" height="32.54"/>
      <path class="cls-2" d="M27.48,162a1.8,1.8,0,0,1,0,.22c0,.08-.05.15-.07.21L24,171.07a.77.77,0,0,1-.17.27.81.81,0,0,1-.24.17.73.73,0,0,1-.3.07.65.65,0,0,1-.31-.05.62.62,0,0,1-.27-.17.64.64,0,0,1-.18-.25,1,1,0,0,1-.07-.29.81.81,0,0,1,.06-.31l3.08-7.75H21.69a.72.72,0,0,1-.29-.06.63.63,0,0,1-.24-.16.6.6,0,0,1-.16-.24.69.69,0,0,1-.07-.29.82.82,0,0,1,.07-.3.74.74,0,0,1,.4-.4.72.72,0,0,1,.29-.06h5a.77.77,0,0,1,.3.06.63.63,0,0,1,.23.16.81.81,0,0,1,.17.24A1,1,0,0,1,27.48,162Z"/>
      <path class="cls-2" d="M31.41,170.42a1.18,1.18,0,0,1-.09.46,1.6,1.6,0,0,1-.25.37,1.31,1.31,0,0,1-.37.24,1.13,1.13,0,0,1-.45.09,1.22,1.22,0,0,1-.46-.09,1.13,1.13,0,0,1-.36-.24,1.15,1.15,0,0,1-.25-.37,1,1,0,0,1-.1-.46,1,1,0,0,1,.1-.45,1.05,1.05,0,0,1,.25-.37,1,1,0,0,1,.36-.25,1.22,1.22,0,0,1,.46-.09,1.13,1.13,0,0,1,.45.09,1.15,1.15,0,0,1,.37.25,1.41,1.41,0,0,1,.25.37A1.13,1.13,0,0,1,31.41,170.42Z"/>
      <path class="cls-2" d="M39.34,162a1.8,1.8,0,0,1,0,.22,1,1,0,0,1-.07.21l-3.34,8.63a1,1,0,0,1-.18.27.81.81,0,0,1-.24.17.73.73,0,0,1-.3.07.65.65,0,0,1-.31-.05.69.69,0,0,1-.27-.17.64.64,0,0,1-.18-.25,1,1,0,0,1-.07-.29.81.81,0,0,1,.06-.31l3.08-7.75h-4a.72.72,0,0,1-.29-.06.63.63,0,0,1-.24-.16.6.6,0,0,1-.16-.24.68.68,0,0,1-.06-.29.8.8,0,0,1,.06-.3.74.74,0,0,1,.4-.4.72.72,0,0,1,.29-.06h5a.77.77,0,0,1,.3.06.78.78,0,0,1,.24.16,1,1,0,0,1,.16.24A1,1,0,0,1,39.34,162Z"/>
      <path class="cls-2" d="M47.21,168.33a3.66,3.66,0,0,1-.24,1.36,2.88,2.88,0,0,1-.67,1,2.83,2.83,0,0,1-1,.65,3.71,3.71,0,0,1-1.31.22,3,3,0,0,1-1.35-.29,2.73,2.73,0,0,1-1-.8,3.6,3.6,0,0,1-.62-1.22,5.2,5.2,0,0,1-.21-1.51,6.07,6.07,0,0,1,.28-1.78,9,9,0,0,1,.72-1.7,11.69,11.69,0,0,1,1-1.56A14.21,14.21,0,0,1,44,161.38a.67.67,0,0,1,.28-.18.71.71,0,0,1,.28-.06.72.72,0,0,1,.33.07.78.78,0,0,1,.26.17.72.72,0,0,1,.16.25.78.78,0,0,1,.06.31.74.74,0,0,1-.06.27.75.75,0,0,1-.19.26c-.2.2-.39.42-.59.65a11.18,11.18,0,0,0-1.11,1.55,7.62,7.62,0,0,0-.44.85,2.41,2.41,0,0,1,.56-.22,2.1,2.1,0,0,1,.56-.07,3.6,3.6,0,0,1,1.18.19,2.81,2.81,0,0,1,1,.58,2.73,2.73,0,0,1,.68,1A3.42,3.42,0,0,1,47.21,168.33Zm-1.59,0a1.78,1.78,0,0,0-.44-1.29,1.58,1.58,0,0,0-1.21-.46,2.45,2.45,0,0,0-.48,0l-.41.13a2.69,2.69,0,0,0-.34.17,2.26,2.26,0,0,0-.28.2,2.43,2.43,0,0,0,0,.3c0,.1,0,.2,0,.29a3.87,3.87,0,0,0,.14,1.1,2.17,2.17,0,0,0,.36.73,1.3,1.3,0,0,0,.5.41,1.48,1.48,0,0,0,.58.13,1.54,1.54,0,0,0,1.22-.47A1.91,1.91,0,0,0,45.62,168.38Z"/>
      <path class="cls-2" d="M64.81,200.45a.42.42,0,0,1-.13.32.42.42,0,0,1-.31.13H59.29a.42.42,0,0,1-.33-.13.44.44,0,0,1-.12-.32,3.07,3.07,0,0,1,.12-.88,3.67,3.67,0,0,1,.31-.76,3.84,3.84,0,0,1,.45-.66c.18-.2.36-.39.55-.57s.51-.44.78-.64l.82-.61c.26-.2.52-.4.76-.6a4.44,4.44,0,0,0,.65-.65,3.22,3.22,0,0,0,.44-.73,2.15,2.15,0,0,0,.16-.85,2.58,2.58,0,0,0-.12-.8,1.92,1.92,0,0,0-.36-.66,1.81,1.81,0,0,0-.63-.45,2.24,2.24,0,0,0-.91-.17,3.37,3.37,0,0,0-.82.09,3.12,3.12,0,0,0-.65.24,1.7,1.7,0,0,0-.33.2l-.22.17-.17.12a.34.34,0,0,1-.17,0,.43.43,0,0,1-.31-.14.43.43,0,0,1-.14-.32.53.53,0,0,1,0-.17.44.44,0,0,1,.12-.17,3.57,3.57,0,0,1,1.15-.68,4.37,4.37,0,0,1,1.52-.24,3.23,3.23,0,0,1,1.31.24,2.55,2.55,0,0,1,.91.65,2.75,2.75,0,0,1,.54.94,3.67,3.67,0,0,1,.17,1.1,3,3,0,0,1-.19,1.1,3.84,3.84,0,0,1-.52.9,4.82,4.82,0,0,1-.74.76c-.28.24-.56.46-.86.68l-.89.66a7.79,7.79,0,0,0-.8.69,4.2,4.2,0,0,0-.63.79,2.49,2.49,0,0,0-.36.94h4.55a.45.45,0,0,1,.31.12A.42.42,0,0,1,64.81,200.45Z"/>
      <path class="cls-2" d="M72.86,197.33a5.3,5.3,0,0,1-.18,1.39,3.15,3.15,0,0,1-.56,1.18,2.71,2.71,0,0,1-1,.82,3.65,3.65,0,0,1-2.9,0,2.71,2.71,0,0,1-1-.82,3.29,3.29,0,0,1-.55-1.18,5.3,5.3,0,0,1-.18-1.39v-3.07a5.22,5.22,0,0,1,.18-1.38,3.29,3.29,0,0,1,.55-1.18,2.71,2.71,0,0,1,1-.82,3.55,3.55,0,0,1,2.9,0,2.71,2.71,0,0,1,1,.82,3.15,3.15,0,0,1,.56,1.18,5.22,5.22,0,0,1,.18,1.38Zm-.93-3a4.57,4.57,0,0,0-.13-1.14,2.6,2.6,0,0,0-.4-.91,2.13,2.13,0,0,0-.7-.6,2.28,2.28,0,0,0-1-.21,2.25,2.25,0,0,0-1,.21,2,2,0,0,0-.69.6,2.6,2.6,0,0,0-.4.91,4.57,4.57,0,0,0-.13,1.14v3a4.57,4.57,0,0,0,.13,1.14,2.47,2.47,0,0,0,.4.9,1.81,1.81,0,0,0,.69.6,2.25,2.25,0,0,0,1,.21,2.28,2.28,0,0,0,1-.21,1.92,1.92,0,0,0,.7-.6,2.47,2.47,0,0,0,.4-.9,4.57,4.57,0,0,0,.13-1.14Z"/>
      <path class="cls-2" d="M80.49,200.45a.42.42,0,0,1-.13.32.4.4,0,0,1-.31.13H75a.42.42,0,0,1-.34-.13.44.44,0,0,1-.12-.32,3.07,3.07,0,0,1,.12-.88,3.67,3.67,0,0,1,.31-.76,3.39,3.39,0,0,1,.46-.66,7.27,7.27,0,0,1,.54-.57,10,10,0,0,1,.79-.64l.81-.61c.27-.2.52-.4.76-.6a4.44,4.44,0,0,0,.65-.65,3.22,3.22,0,0,0,.44-.73,2.15,2.15,0,0,0,.16-.85,2.58,2.58,0,0,0-.12-.8,1.92,1.92,0,0,0-.36-.66,1.81,1.81,0,0,0-.63-.45,2.22,2.22,0,0,0-.9-.17,3.46,3.46,0,0,0-.83.09,2.84,2.84,0,0,0-.64.24,1.53,1.53,0,0,0-.34.2l-.22.17-.17.12a.34.34,0,0,1-.17,0,.46.46,0,0,1-.44-.46.51.51,0,0,1,0-.17.44.44,0,0,1,.12-.17,3.57,3.57,0,0,1,1.15-.68,4.39,4.39,0,0,1,1.53-.24,3.29,3.29,0,0,1,1.31.24,2.51,2.51,0,0,1,.9.65,2.75,2.75,0,0,1,.54.94,3.67,3.67,0,0,1,.17,1.1,3,3,0,0,1-.19,1.1,3.52,3.52,0,0,1-.52.9,4.82,4.82,0,0,1-.74.76c-.27.24-.56.46-.86.68l-.88.66a7,7,0,0,0-.81.69,5.2,5.2,0,0,0-.63.79,2.49,2.49,0,0,0-.36.94h4.55a.43.43,0,0,1,.31.12A.42.42,0,0,1,80.49,200.45Z"/>
      <path class="cls-2" d="M88.33,200.45a.42.42,0,0,1-.13.32.39.39,0,0,1-.3.13H82.82a.44.44,0,0,1-.34-.13.48.48,0,0,1-.11-.32,3.08,3.08,0,0,1,.11-.88,3.67,3.67,0,0,1,.31-.76,3.39,3.39,0,0,1,.46-.66,7.27,7.27,0,0,1,.54-.57,10,10,0,0,1,.79-.64l.81-.61c.27-.2.52-.4.77-.6a4.9,4.9,0,0,0,.64-.65,3.22,3.22,0,0,0,.44-.73,2.15,2.15,0,0,0,.16-.85,2.58,2.58,0,0,0-.12-.8,1.92,1.92,0,0,0-.36-.66,1.72,1.72,0,0,0-.63-.45,2.22,2.22,0,0,0-.9-.17,3.46,3.46,0,0,0-.83.09,2.84,2.84,0,0,0-.64.24,1.53,1.53,0,0,0-.34.2l-.22.17-.17.12a.31.31,0,0,1-.17,0,.46.46,0,0,1-.44-.46.51.51,0,0,1,0-.17.44.44,0,0,1,.12-.17,3.57,3.57,0,0,1,1.15-.68,4.39,4.39,0,0,1,1.53-.24,3.29,3.29,0,0,1,1.31.24,2.65,2.65,0,0,1,.91.65,2.9,2.9,0,0,1,.53.94,3.67,3.67,0,0,1,.17,1.1,3,3,0,0,1-.19,1.1,3.52,3.52,0,0,1-.52.9,4.82,4.82,0,0,1-.74.76c-.27.24-.56.46-.86.68l-.88.66a7,7,0,0,0-.81.69,5.2,5.2,0,0,0-.63.79,2.49,2.49,0,0,0-.36.94H87.9a.42.42,0,0,1,.3.12A.42.42,0,0,1,88.33,200.45Z"/>
      <path class="cls-2" d="M223.32,200.45a.46.46,0,0,1-.13.32.42.42,0,0,1-.31.13H217.8a.42.42,0,0,1-.33-.13.44.44,0,0,1-.12-.32,3.07,3.07,0,0,1,.12-.88,3.19,3.19,0,0,1,.31-.76,3.84,3.84,0,0,1,.45-.66c.18-.2.36-.39.55-.57s.51-.44.78-.64l.82-.61c.26-.2.52-.4.76-.6a4.36,4.36,0,0,0,.64-.65,2.63,2.63,0,0,0,.44-.73,2.15,2.15,0,0,0,.17-.85,2.58,2.58,0,0,0-.12-.8,1.79,1.79,0,0,0-.37-.66,1.68,1.68,0,0,0-.62-.45,2.31,2.31,0,0,0-.91-.17,3.37,3.37,0,0,0-.82.09,2.92,2.92,0,0,0-.65.24,1.44,1.44,0,0,0-.33.2l-.22.17-.17.12a.34.34,0,0,1-.17,0,.41.41,0,0,1-.31-.14.43.43,0,0,1-.14-.32.35.35,0,0,1,0-.17.55.55,0,0,1,.11-.17,3.8,3.8,0,0,1,1.15-.68,4.47,4.47,0,0,1,1.53-.24,3.26,3.26,0,0,1,1.31.24,2.53,2.53,0,0,1,1.44,1.59,3.38,3.38,0,0,1,.18,1.1,3,3,0,0,1-.2,1.1,3.8,3.8,0,0,1-.51.9,5.3,5.3,0,0,1-.74.76c-.28.24-.57.46-.86.68l-.89.66a7.79,7.79,0,0,0-.8.69,4.71,4.71,0,0,0-.64.79,2.65,2.65,0,0,0-.35.94h4.55a.45.45,0,0,1,.31.12A.46.46,0,0,1,223.32,200.45Z"/>
      <path class="cls-2" d="M231.36,197.33a5.3,5.3,0,0,1-.17,1.39,3.31,3.31,0,0,1-.56,1.18,2.71,2.71,0,0,1-1,.82,3.65,3.65,0,0,1-2.9,0,2.71,2.71,0,0,1-1-.82,3.29,3.29,0,0,1-.55-1.18,5.3,5.3,0,0,1-.18-1.39v-3.07a5.22,5.22,0,0,1,.18-1.38,3.29,3.29,0,0,1,.55-1.18,2.71,2.71,0,0,1,1-.82,3.55,3.55,0,0,1,2.9,0,2.71,2.71,0,0,1,1,.82,3.31,3.31,0,0,1,.56,1.18,5.22,5.22,0,0,1,.17,1.38Zm-.92-3a4.57,4.57,0,0,0-.13-1.14,2.44,2.44,0,0,0-.41-.91,2,2,0,0,0-.7-.6,2.2,2.2,0,0,0-1-.21,2.25,2.25,0,0,0-1,.21,2,2,0,0,0-.7.6,2.8,2.8,0,0,0-.4.91,5.1,5.1,0,0,0-.13,1.14v3a5.1,5.1,0,0,0,.13,1.14,2.65,2.65,0,0,0,.4.9,1.77,1.77,0,0,0,.7.6,2.25,2.25,0,0,0,1,.21,2.2,2.2,0,0,0,1-.21,1.77,1.77,0,0,0,.7-.6,2.33,2.33,0,0,0,.41-.9,4.57,4.57,0,0,0,.13-1.14Z"/>
      <path class="cls-2" d="M239,200.45a.42.42,0,0,1-.13.32.42.42,0,0,1-.31.13h-5.08a.42.42,0,0,1-.33-.13.44.44,0,0,1-.12-.32,3.07,3.07,0,0,1,.12-.88,3.67,3.67,0,0,1,.31-.76,3.84,3.84,0,0,1,.45-.66c.18-.2.36-.39.55-.57s.51-.44.78-.64l.82-.61c.26-.2.52-.4.76-.6a4.44,4.44,0,0,0,.65-.65,3.22,3.22,0,0,0,.44-.73,2.15,2.15,0,0,0,.16-.85,2.58,2.58,0,0,0-.12-.8,1.79,1.79,0,0,0-.37-.66,1.68,1.68,0,0,0-.62-.45,2.27,2.27,0,0,0-.91-.17,3.37,3.37,0,0,0-.82.09,3.12,3.12,0,0,0-.65.24,1.7,1.7,0,0,0-.33.2l-.22.17-.17.12a.34.34,0,0,1-.17,0,.43.43,0,0,1-.31-.14.43.43,0,0,1-.14-.32.53.53,0,0,1,0-.17.55.55,0,0,1,.11-.17,3.73,3.73,0,0,1,1.16-.68,4.37,4.37,0,0,1,1.52-.24,3.23,3.23,0,0,1,1.31.24,2.55,2.55,0,0,1,.91.65,2.75,2.75,0,0,1,.54.94,3.67,3.67,0,0,1,.17,1.1,3.21,3.21,0,0,1-.19,1.1,3.84,3.84,0,0,1-.52.9,5.3,5.3,0,0,1-.74.76c-.28.24-.56.46-.86.68l-.89.66a7.79,7.79,0,0,0-.8.69,4.2,4.2,0,0,0-.63.79,2.49,2.49,0,0,0-.36.94h4.55a.45.45,0,0,1,.31.12A.42.42,0,0,1,239,200.45Z"/>
      <path class="cls-2" d="M246.77,197.85a3.87,3.87,0,0,1-.19,1.17,2.73,2.73,0,0,1-.57,1,2.86,2.86,0,0,1-1,.72,3.62,3.62,0,0,1-1.46.27,4.71,4.71,0,0,1-1.15-.13,2.83,2.83,0,0,1-1.06-.52.48.48,0,0,1-.21-.38.44.44,0,0,1,.13-.32.39.39,0,0,1,.32-.14.32.32,0,0,1,.13,0,.46.46,0,0,1,.13.08,2.25,2.25,0,0,0,.78.41,2.94,2.94,0,0,0,.93.13,2.56,2.56,0,0,0,1-.19,1.88,1.88,0,0,0,.71-.51,2,2,0,0,0,.41-.74,3.17,3.17,0,0,0,.12-.88,2.36,2.36,0,0,0-.55-1.73,2,2,0,0,0-1.52-.57,2.06,2.06,0,0,0-.64.09,1.69,1.69,0,0,0-.52.26,2.28,2.28,0,0,0-.27.23l-.19.19a.83.83,0,0,1-.16.12.38.38,0,0,1-.19.05.41.41,0,0,1-.32-.13.37.37,0,0,1-.11-.33l.15-4.91a.37.37,0,0,1,.15-.3.42.42,0,0,1,.31-.13h3.78a.46.46,0,0,1,.32.13.43.43,0,0,1,.13.3.46.46,0,0,1-.13.31.42.42,0,0,1-.32.13h-3.38l-.11,3.66a2.31,2.31,0,0,1,.72-.39,2.71,2.71,0,0,1,.82-.12,3.49,3.49,0,0,1,1.25.21,2.43,2.43,0,0,1,.92.61,2.53,2.53,0,0,1,.58,1A4,4,0,0,1,246.77,197.85Z"/>
      <rect class="cls-4" x="227.69" width="68.29" height="185.69"/>
      <path class="cls-2" d="M247.06,15.52a2.87,2.87,0,0,1-.2,1.08,2.65,2.65,0,0,1-.63.93,2.93,2.93,0,0,1-1,.65,3.9,3.9,0,0,1-1.47.25,5,5,0,0,1-1.48-.2,2.62,2.62,0,0,1-1.07-.65,1.31,1.31,0,0,1-.2-.28.75.75,0,0,1-.08-.31.68.68,0,0,1,.68-.69.58.58,0,0,1,.31.11,5.07,5.07,0,0,0,.44.28,2.43,2.43,0,0,0,.62.28,3,3,0,0,0,.71.08,2.13,2.13,0,0,0,.78-.13,1.52,1.52,0,0,0,.56-.35,1.67,1.67,0,0,0,.35-.55,1.91,1.91,0,0,0,.12-.68,1.67,1.67,0,0,0-.15-.75,1.31,1.31,0,0,0-.41-.49,1.63,1.63,0,0,0-.6-.26,4.28,4.28,0,0,0-.74-.09,1.32,1.32,0,0,1-.28,0,.69.69,0,0,1-.25-.1.52.52,0,0,1-.19-.2.83.83,0,0,1-.07-.35.64.64,0,0,1,.08-.33.58.58,0,0,1,.2-.21.81.81,0,0,1,.27-.11l.27,0a2.91,2.91,0,0,0,.65-.09,1.83,1.83,0,0,0,.59-.24,1.29,1.29,0,0,0,.43-.44,1.24,1.24,0,0,0,.17-.69,2.1,2.1,0,0,0-.08-.56,1.39,1.39,0,0,0-.27-.51,1.36,1.36,0,0,0-.48-.35,1.81,1.81,0,0,0-.74-.14,2.74,2.74,0,0,0-.73.1,2.82,2.82,0,0,0-.58.26,1.53,1.53,0,0,0-.23.15,1.62,1.62,0,0,1-.19.13l-.18.1a.56.56,0,0,1-.44,0,.53.53,0,0,1-.2-.13.64.64,0,0,1-.14-.21.94.94,0,0,1,0-.3.79.79,0,0,1,.09-.35,1.35,1.35,0,0,1,.28-.34,3.3,3.3,0,0,1,.95-.55,4.07,4.07,0,0,1,.67-.19,5.13,5.13,0,0,1,.81-.06,3.73,3.73,0,0,1,1,.12,2.77,2.77,0,0,1,.76.33,2.16,2.16,0,0,1,.56.48,2.65,2.65,0,0,1,.58,1.2,3.23,3.23,0,0,1,.06.61,2.38,2.38,0,0,1-.4,1.44,2.42,2.42,0,0,1-1.17.85,3.49,3.49,0,0,1,.73.34,2.23,2.23,0,0,1,.55.51,2.26,2.26,0,0,1,.36.71A3.43,3.43,0,0,1,247.06,15.52Z"/>
      <path class="cls-2" d="M255.2,15.18a3.7,3.7,0,0,1-.24,1.36,2.88,2.88,0,0,1-.67,1,2.94,2.94,0,0,1-1,.64,3.64,3.64,0,0,1-1.31.23,3,3,0,0,1-1.34-.29,2.88,2.88,0,0,1-1-.81,3.53,3.53,0,0,1-.61-1.21,5.25,5.25,0,0,1-.21-1.51,6.05,6.05,0,0,1,.27-1.78,9.47,9.47,0,0,1,.73-1.7,11.62,11.62,0,0,1,1-1.56q.59-.73,1.17-1.35a1.1,1.1,0,0,1,.28-.18,1,1,0,0,1,.28,0,.83.83,0,0,1,.59.24.62.62,0,0,1,.17.25.73.73,0,0,1,.06.3.66.66,0,0,1-.06.27.7.7,0,0,1-.2.27c-.19.2-.39.41-.59.65s-.39.47-.58.73-.36.53-.53.81-.31.57-.44.86a2.6,2.6,0,0,1,.56-.22,2.22,2.22,0,0,1,.57-.07,3.5,3.5,0,0,1,1.17.19,3,3,0,0,1,1,.57,2.87,2.87,0,0,1,.68,1A3.6,3.6,0,0,1,255.2,15.18Zm-1.59,0a1.82,1.82,0,0,0-.44-1.29,1.64,1.64,0,0,0-1.22-.46,2.26,2.26,0,0,0-.47,0,1.64,1.64,0,0,0-.41.13,2.85,2.85,0,0,0-.35.17,2,2,0,0,0-.28.2l0,.29c0,.11,0,.21,0,.3a3.75,3.75,0,0,0,.14,1.09,2.43,2.43,0,0,0,.35.74,1.59,1.59,0,0,0,.5.41,1.71,1.71,0,0,0,1.81-.35A1.89,1.89,0,0,0,253.61,15.22Z"/>
      <path class="cls-2" d="M259.1,17.27a1.14,1.14,0,0,1-.1.45,1.17,1.17,0,0,1-.62.62,1.17,1.17,0,0,1-.9,0,1.15,1.15,0,0,1-.37-.25,1.27,1.27,0,0,1-.25-.37,1.17,1.17,0,0,1,0-.9,1.27,1.27,0,0,1,.25-.37,1.15,1.15,0,0,1,.37-.25,1.06,1.06,0,0,1,.9,0,1.17,1.17,0,0,1,.62.62A1.14,1.14,0,0,1,259.1,17.27Z"/>
      <path class="cls-2" d="M267.12,17.55a.72.72,0,0,1-.06.29.74.74,0,0,1-.17.25.6.6,0,0,1-.24.16.72.72,0,0,1-.29.06h-4.95a.73.73,0,0,1-.3-.06.78.78,0,0,1-.24-.16.82.82,0,0,1-.22-.54.73.73,0,0,1,.06-.3.78.78,0,0,1,.16-.24,1,1,0,0,1,.24-.16.73.73,0,0,1,.3-.06h2.16V10.14l-2.06,1.39a.77.77,0,0,1-.28.12.71.71,0,0,1-.29,0,.66.66,0,0,1-.26-.11.53.53,0,0,1-.21-.21.77.77,0,0,1-.12-.28.71.71,0,0,1,0-.29.77.77,0,0,1,.11-.27,1,1,0,0,1,.21-.21l3.21-2.14a.78.78,0,0,1,.47-.15.81.81,0,0,1,.31.06.74.74,0,0,1,.25.17.85.85,0,0,1,.17.25.67.67,0,0,1,.07.31v8h1.2a.77.77,0,0,1,.53.22.81.81,0,0,1,.17.24A.73.73,0,0,1,267.12,17.55Z"/>
      <path class="cls-2" d="M274.75,17.55a.82.82,0,0,1-.22.54.78.78,0,0,1-.24.16.77.77,0,0,1-.3.06h-4.76a.74.74,0,0,1-.55-.21.79.79,0,0,1-.2-.55,3.86,3.86,0,0,1,.12-1,4.09,4.09,0,0,1,.32-.83,3.82,3.82,0,0,1,.49-.7,4.78,4.78,0,0,1,.59-.6c.23-.2.46-.39.71-.57l.71-.52c.24-.17.46-.35.67-.52a4,4,0,0,0,.55-.54,2.75,2.75,0,0,0,.38-.6,1.7,1.7,0,0,0,.14-.69,1.9,1.9,0,0,0-.09-.58,1.33,1.33,0,0,0-.28-.49,1.42,1.42,0,0,0-.48-.35,1.87,1.87,0,0,0-.71-.13,2.75,2.75,0,0,0-.75.09,3.26,3.26,0,0,0-.56.23,2,2,0,0,0-.3.18l-.22.15a1.24,1.24,0,0,1-.2.1.54.54,0,0,1-.22.05.77.77,0,0,1-.3-.06.78.78,0,0,1-.24-.16.7.7,0,0,1-.17-.24.73.73,0,0,1-.06-.3.8.8,0,0,1,.06-.3.61.61,0,0,1,.22-.27,4,4,0,0,1,1.24-.69A5,5,0,0,1,271.65,8a3.39,3.39,0,0,1,1.42.27,2.75,2.75,0,0,1,1.51,1.66,3.67,3.67,0,0,1,.17,1.07,3,3,0,0,1-.17,1,3.08,3.08,0,0,1-.45.84,3.86,3.86,0,0,1-.64.7c-.24.21-.49.42-.75.62l-.79.58a7.51,7.51,0,0,0-.75.59,4.18,4.18,0,0,0-.6.67,2.85,2.85,0,0,0-.39.78H274a.77.77,0,0,1,.3.06,1,1,0,0,1,.24.16.78.78,0,0,1,.16.24A.73.73,0,0,1,274.75,17.55Z"/>
      <path class="cls-2" d="M282.69,15.18a3.7,3.7,0,0,1-.24,1.36,3,3,0,0,1-.67,1,2.94,2.94,0,0,1-1,.64,3.68,3.68,0,0,1-1.31.23,3,3,0,0,1-1.34-.29,2.88,2.88,0,0,1-1-.81,3.37,3.37,0,0,1-.61-1.21,5.25,5.25,0,0,1-.21-1.51,6.05,6.05,0,0,1,.27-1.78,8.22,8.22,0,0,1,.73-1.7,11.62,11.62,0,0,1,1-1.56,15.76,15.76,0,0,1,1.17-1.35,1,1,0,0,1,.28-.18A1,1,0,0,1,280,8a.8.8,0,0,1,.34.07.81.81,0,0,1,.42.42.94.94,0,0,1,.05.3.86.86,0,0,1-.05.27.82.82,0,0,1-.2.27c-.2.2-.39.41-.59.65s-.39.47-.58.73a8.67,8.67,0,0,0-.53.81,7.75,7.75,0,0,0-.44.86,2.41,2.41,0,0,1,.56-.22,2.15,2.15,0,0,1,.56-.07,3.56,3.56,0,0,1,1.18.19,2.85,2.85,0,0,1,1,.57,2.74,2.74,0,0,1,.68,1A3.42,3.42,0,0,1,282.69,15.18Zm-1.6,0a1.77,1.77,0,0,0-.44-1.29,1.62,1.62,0,0,0-1.21-.46,2.44,2.44,0,0,0-.48,0,2,2,0,0,0-.41.13l-.34.17a1.55,1.55,0,0,0-.28.2,1.36,1.36,0,0,0,0,.29c0,.11,0,.21,0,.3A3.78,3.78,0,0,0,278,15.7a2.22,2.22,0,0,0,.36.74,1.39,1.39,0,0,0,.5.41,1.52,1.52,0,0,0,.59.12,1.5,1.5,0,0,0,1.21-.47A1.84,1.84,0,0,0,281.09,15.22Z"/>
      <rect class="cls-5" x="159.4" y="80.09" width="68.29" height="105.61"/>
      <path class="cls-2" d="M186.77,97.63a.73.73,0,0,1-.06.3.67.67,0,0,1-.16.24.63.63,0,0,1-.24.16.8.8,0,0,1-.3.06h-4.76a.72.72,0,0,1-.55-.21.77.77,0,0,1-.2-.55,3.84,3.84,0,0,1,.12-1,3.56,3.56,0,0,1,.81-1.54,6.67,6.67,0,0,1,.59-.6c.23-.2.46-.39.7-.56l.72-.53c.24-.17.46-.34.67-.51a5.65,5.65,0,0,0,.55-.54,2.38,2.38,0,0,0,.37-.6,1.58,1.58,0,0,0,.14-.69,2.25,2.25,0,0,0-.08-.58,1.32,1.32,0,0,0-.76-.84,1.73,1.73,0,0,0-.71-.13,2.75,2.75,0,0,0-.75.09,3,3,0,0,0-.57.23A2.45,2.45,0,0,0,182,90l-.23.15-.19.1a.54.54,0,0,1-.22,0,.73.73,0,0,1-.3-.06.75.75,0,0,1-.24-.15.66.66,0,0,1-.17-.24.73.73,0,0,1-.07-.3.78.78,0,0,1,.07-.3.61.61,0,0,1,.22-.27,3.85,3.85,0,0,1,1.24-.69,4.71,4.71,0,0,1,1.55-.24,3.43,3.43,0,0,1,1.42.27,2.91,2.91,0,0,1,1,.7,2.84,2.84,0,0,1,.55,1,3.67,3.67,0,0,1,.17,1.07,3,3,0,0,1-.17,1,3.4,3.4,0,0,1-.45.84,4.22,4.22,0,0,1-.64.7c-.24.21-.49.41-.76.61s-.52.4-.79.58a8.79,8.79,0,0,0-.74.6,4.18,4.18,0,0,0-.6.67,2.2,2.2,0,0,0-.39.78H186a.8.8,0,0,1,.3.06.74.74,0,0,1,.4.4A.72.72,0,0,1,186.77,97.63Z"/>
      <path class="cls-2" d="M194.85,94.85a4.76,4.76,0,0,1-.21,1.43,3.3,3.3,0,0,1-.61,1.16,3,3,0,0,1-1,.78,3.29,3.29,0,0,1-1.45.3,3.25,3.25,0,0,1-1.44-.3,2.87,2.87,0,0,1-1-.78,3.3,3.3,0,0,1-.61-1.16,4.75,4.75,0,0,1-.2-1.43V91.73a4.69,4.69,0,0,1,.2-1.42,3.44,3.44,0,0,1,.61-1.17,3,3,0,0,1,1-.79,3.39,3.39,0,0,1,1.44-.29,3.44,3.44,0,0,1,1.45.29,3.12,3.12,0,0,1,1,.79,3.44,3.44,0,0,1,.61,1.17,4.69,4.69,0,0,1,.21,1.42Zm-1.6-3.14a2.6,2.6,0,0,0-.44-1.62,1.5,1.5,0,0,0-1.26-.57,1.48,1.48,0,0,0-1.25.57,2.61,2.61,0,0,0-.43,1.62v3.17a2.61,2.61,0,0,0,.43,1.62,1.5,1.5,0,0,0,1.25.56,1.52,1.52,0,0,0,1.26-.56,2.6,2.6,0,0,0,.44-1.62Z"/>
      <path class="cls-2" d="M198.68,97.35a1.14,1.14,0,0,1-.09.46,1.17,1.17,0,0,1-.62.62,1.17,1.17,0,0,1-.9,0,1.15,1.15,0,0,1-.37-.25,1.21,1.21,0,0,1-.25-.37,1.14,1.14,0,0,1-.09-.46,1.13,1.13,0,0,1,.09-.45,1.34,1.34,0,0,1,.25-.37,1.6,1.6,0,0,1,.37-.25,1.17,1.17,0,0,1,.9,0,1.41,1.41,0,0,1,.37.25,1.15,1.15,0,0,1,.25.37A1.13,1.13,0,0,1,198.68,97.35Z"/>
      <path class="cls-2" d="M206.67,91.88a5.38,5.38,0,0,1-.13,1.2,6.84,6.84,0,0,1-.35,1.17,10.5,10.5,0,0,1-.53,1.13,11.53,11.53,0,0,1-.66,1.05c-.24.34-.49.67-.75,1s-.52.6-.79.87a.77.77,0,0,1-.56.25.88.88,0,0,1-.33-.07.9.9,0,0,1-.26-.17.71.71,0,0,1-.16-.26.73.73,0,0,1-.06-.3.66.66,0,0,1,.06-.27.75.75,0,0,1,.19-.27c.2-.2.4-.41.6-.65a8.45,8.45,0,0,0,.58-.73c.19-.26.37-.53.53-.8a7,7,0,0,0,.43-.87,2,2,0,0,1-.56.22,2.74,2.74,0,0,1-.56.06,3.88,3.88,0,0,1-1.18-.18,2.9,2.9,0,0,1-1-.57,2.76,2.76,0,0,1-.69-1,3.44,3.44,0,0,1-.25-1.38A3.61,3.61,0,0,1,200.5,90a3,3,0,0,1,.67-1,2.94,2.94,0,0,1,1-.64,3.62,3.62,0,0,1,1.3-.22,2.92,2.92,0,0,1,1.35.29,2.85,2.85,0,0,1,1,.8,3.65,3.65,0,0,1,.62,1.21A5.23,5.23,0,0,1,206.67,91.88Zm-1.6,0a3.85,3.85,0,0,0-.14-1.09,2.26,2.26,0,0,0-.36-.73,1.3,1.3,0,0,0-.5-.41,1.33,1.33,0,0,0-.58-.13,1.92,1.92,0,0,0-.71.12,1.26,1.26,0,0,0-.51.35,1.53,1.53,0,0,0-.31.56,2.11,2.11,0,0,0-.11.73,1.82,1.82,0,0,0,.44,1.29,1.6,1.6,0,0,0,1.23.46,2.35,2.35,0,0,0,.47,0l.41-.13a2.21,2.21,0,0,0,.34-.18,3.15,3.15,0,0,0,.27-.19,1.54,1.54,0,0,0,.05-.31C205.07,92.08,205.07,92,205.07,91.88Z"/>
      <rect class="cls-6" x="52.86" y="215.12" width="10.14" height="10.14"/>
      <path class="cls-2" d="M69.79,220.93a51.18,51.18,0,0,1-2.12,4.68l-.58-.34a42.8,42.8,0,0,0,2.18-4.68Zm-.62-3.63a15.53,15.53,0,0,0-1.92-2.86l.52-.25a15.12,15.12,0,0,1,2,2.79Zm10.12.81a15.77,15.77,0,0,1-1.89,4.79c.35,1.61.84,2.62,1.41,2.65.28,0,.49-.83.62-2.27a1.46,1.46,0,0,0,.51.31c-.25,2.11-.63,2.74-1.12,2.73-.85,0-1.47-1-1.9-2.72a10.63,10.63,0,0,1-2.76,2.59c-.11-.12-.35-.33-.5-.46a9.36,9.36,0,0,0,3.06-2.91,43.57,43.57,0,0,1-.71-6.25H71.4v3c0,2-.22,4.8-1.62,6.75a2,2,0,0,0-.52-.39c1.36-1.86,1.51-4.44,1.51-6.36V216H76c0-.75-.07-1.5-.1-2.27h.62c0,.77,0,1.52.08,2.27h3.06v.61h-3a49.7,49.7,0,0,0,.59,5.45,15.14,15.14,0,0,0,1.47-4Zm-3.62.34H72v-.56h3.63Zm-2.84,5v.89h-.58v-4.62h3.23v3.73Zm0-3.14v2.55h2.1v-2.55ZM79,215.69A9.79,9.79,0,0,0,77.12,214l.42-.36a10.18,10.18,0,0,1,1.89,1.62Z"/>
      <path class="cls-2" d="M91.91,221.12c-1.86,2.83-5.67,4.49-10.57,5.16a3.64,3.64,0,0,0-.34-.65c4.83-.6,8.53-2.13,10.31-4.8Zm-7.53-5.05a20.74,20.74,0,0,1-2.51,4.47,3.26,3.26,0,0,0-.59-.33,16.48,16.48,0,0,0,2.45-4.31Zm3.18-2.48v8.54H86.9v-8.54ZM91,215.9a34.46,34.46,0,0,1,2.64,4.17l-.57.33a37.38,37.38,0,0,0-2.62-4.25Z"/>
      <path class="cls-2" d="M97.52,215.17a28.88,28.88,0,0,1-.7,3.5H99.3v5.7H96.79v1.25h-.6v-5.11a9.75,9.75,0,0,1-.75,1.48c-.1-.12-.33-.39-.47-.52a16.26,16.26,0,0,0,1.91-6.3H95.11v-.62h4.68v.62Zm1.18,4.12H96.79v4.47H98.7Zm3.32-.63c-.25,3.08-.76,5.46-2.09,7.18a3.88,3.88,0,0,0-.52-.44c1.31-1.54,1.77-3.86,2-6.74H99.71v-.6h1.72c0-.33,0-.63,0-1l.65.05-.06.91h5.73v.6Zm5.17-1.89h-6.74v-2.72h.6v2.11h2.45v-2.57h.63v2.57h2.43v-2.11h.63ZM105.12,219c-.05,1-.1,1.84-.21,2.62a5.2,5.2,0,0,0,3.06,4.12,2,2,0,0,0-.42.49,5.29,5.29,0,0,1-2.87-3.46,4.89,4.89,0,0,1-3.22,3.57,2.16,2.16,0,0,0-.39-.46c2.9-1.09,3.3-3.24,3.43-6.88ZM102,222.83a7.28,7.28,0,0,0,.79-2.66l.54.08a8.59,8.59,0,0,1-.83,2.86Zm3.71-.08a19.27,19.27,0,0,0,1-2.62l.58.22c-.37.86-.77,1.89-1.15,2.61Z"/>
      <path class="cls-2" d="M113.67,220.45c-.62.2-1.22.38-1.81.58v4.27c0,.45-.13.63-.39.74a5.29,5.29,0,0,1-1.6.13,3.1,3.1,0,0,0-.24-.63H111c.18,0,.26-.07.26-.25v-4.06l-1.88.58-.2-.67c.58-.15,1.29-.36,2.08-.59v-3.4h-1.91v-.65h1.91v-2.92h.64v2.92h1.65v.65h-1.65v3.19l1.72-.52Zm2.71-6.79H117v12.62h-.65v-3.84h-2.55v-.63h2.55v-2.26h-2.21v-.61h2.21v-2.21h-2.25v-.62h2.25Zm5.43,8.84h-2.64v3.79h-.64V213.66h.64v2.45h2.48v.62h-2.48v2.21h2.38v.61h-2.38v2.32h2.64Z"/>
      <path class="cls-2" d="M128.59,218.73s0,.26,0,.36c-.12,4.68-.21,6.18-.56,6.66a1,1,0,0,1-.77.35c-.34,0-.94,0-1.52,0a1.68,1.68,0,0,0-.19-.64c.64.05,1.24.05,1.47.05s.32,0,.43-.16c.25-.33.38-1.78.48-6h-2.34v.25c0,2.33-.27,4.71-2.19,6.7a2.45,2.45,0,0,0-.5-.45c1.82-1.85,2-4.18,2-6.26v-3h-1.82v-.64h6.21v.64h-3.74v2.15Zm-2.35-3a12.64,12.64,0,0,0-.79-1.9l.58-.21a13.47,13.47,0,0,1,.82,1.86Zm8.56,1.18a16.34,16.34,0,0,1-2,5.85,7.26,7.26,0,0,0,3.08,3,2.73,2.73,0,0,0-.49.56,7.83,7.83,0,0,1-3-2.94,9.83,9.83,0,0,1-3.52,3,3.48,3.48,0,0,0-.44-.59,8.7,8.7,0,0,0,3.61-3,18.68,18.68,0,0,1-1.54-4.6,11.6,11.6,0,0,1-1.17,2.17,6.93,6.93,0,0,0-.56-.47,16,16,0,0,0,2.38-6.24l.68.13c-.18.85-.39,1.72-.65,2.54h4.59v.64Zm-3.81,0a.55.55,0,0,1-.05.17,17.63,17.63,0,0,0,1.52,5,15.63,15.63,0,0,0,1.65-5.18Z"/>
      <path class="cls-2" d="M142.73,227.31a.46.46,0,0,1-.13.35.42.42,0,0,1-.32.13.32.32,0,0,1-.19,0,.4.4,0,0,1-.17-.17,9.34,9.34,0,0,1-.79-1.62,11.72,11.72,0,0,1-.52-1.72,15.16,15.16,0,0,1-.28-1.75c-.05-.59-.08-1.16-.08-1.72s0-1.13.08-1.72a15.33,15.33,0,0,1,.28-1.76,11.72,11.72,0,0,1,.52-1.72,9.15,9.15,0,0,1,.79-1.6.43.43,0,0,1,.17-.18.41.41,0,0,1,.19-.05.46.46,0,0,1,.32.13.45.45,0,0,1,.13.34c0,.05,0,.1,0,.15a.61.61,0,0,1-.07.17A8.52,8.52,0,0,0,142,216a10.68,10.68,0,0,0-.45,1.56,13,13,0,0,0-.25,1.62c-.05.54-.08,1.08-.08,1.6s0,1.07.08,1.61a12.38,12.38,0,0,0,.25,1.6,10.8,10.8,0,0,0,.45,1.57,9,9,0,0,0,.7,1.47.51.51,0,0,1,.07.15C142.72,227.21,142.73,227.26,142.73,227.31Z"/>
      <path class="cls-2" d="M147.77,222.54h-2.59v1.4h-.63V215h3.22Zm-2.59-6.92v6.27h2v-6.27Zm9.63,10a3.41,3.41,0,0,0,.8-.06.54.54,0,0,0,.4-.35,9.17,9.17,0,0,0,.11-1.38,2,2,0,0,0,.63.33,6,6,0,0,1-.18,1.49.76.76,0,0,1-.59.49,4.58,4.58,0,0,1-1.11.11h-1.33a2.77,2.77,0,0,1-1.06-.2c-.33-.14-.47-.39-.47-1.56v-2.05h-3v-4.72h.63v4.09H152v-5.49h-3.64v-.65H152v-2h.66v2h3.9v.65h-3.9v5.49h2.4v-4.1h.66v5.68h-.66v-.95h-2.4v2.2c0,.5.09.81.3.9a2.55,2.55,0,0,0,.64.08Z"/>
      <path class="cls-2" d="M160.59,220.76c0,.56,0,1.13-.08,1.72a13.27,13.27,0,0,1-.28,1.75,13,13,0,0,1-.51,1.72,9.3,9.3,0,0,1-.78,1.62.56.56,0,0,1-.18.17.37.37,0,0,1-.2,0,.42.42,0,0,1-.32-.13.46.46,0,0,1-.13-.35.77.77,0,0,1,0-.15.51.51,0,0,1,.07-.15,9.85,9.85,0,0,0,.69-1.47,10.8,10.8,0,0,0,.45-1.57,12.38,12.38,0,0,0,.25-1.6c0-.54.08-1.08.08-1.61s0-1.06-.08-1.6a13,13,0,0,0-.25-1.62,10.68,10.68,0,0,0-.45-1.56,9.29,9.29,0,0,0-.69-1.46.61.61,0,0,1-.07-.17.77.77,0,0,1,0-.15.45.45,0,0,1,.13-.34.46.46,0,0,1,.32-.13.49.49,0,0,1,.2.05.61.61,0,0,1,.18.18,9.11,9.11,0,0,1,.78,1.6,13,13,0,0,1,.51,1.72,13.41,13.41,0,0,1,.28,1.76C160.56,219.63,160.59,220.2,160.59,220.76Z"/>
      <rect class="cls-7" x="172.64" y="215.12" width="10.14" height="10.14"/>
      <path class="cls-2" d="M198.08,225.35c.43,0,.52-.16.56-1.12a2,2,0,0,0,.63.26c-.09,1.19-.29,1.51-1.15,1.51h-2.41c-1.08,0-1.37-.21-1.37-1.11v-5.41H192c-.25,3.41-.95,5.66-4.43,6.84a2.17,2.17,0,0,0-.45-.57c3.35-1,4-3.16,4.18-6.27h-4.09v-.65h5.63v-5.24h.69v5.24h5.57v.65H195v5.41c0,.38.11.46.73.46Zm-7.71-7.49a21.55,21.55,0,0,0-2-3l.55-.28a24.9,24.9,0,0,1,2.07,2.92Zm7.82-3a26.76,26.76,0,0,1-2.14,3l-.56-.25a20.32,20.32,0,0,0,2-3Z"/>
      <path class="cls-2" d="M204.93,213.81a21.3,21.3,0,0,1-1.42,3v9.48h-.68v-8.4A15.54,15.54,0,0,1,201.1,220a4.37,4.37,0,0,0-.44-.62,16.56,16.56,0,0,0,3.64-5.78Zm4.36,4.71c.65,3.3,2,6,4.32,7.18a2.61,2.61,0,0,0-.52.58c-2.12-1.22-3.42-3.55-4.18-6.54a9.76,9.76,0,0,1-4,6.52,3,3,0,0,0-.56-.46,9.43,9.43,0,0,0,4.09-7.28h-3.83v-.66h3.89c0-.39,0-.8,0-1.16v-3.08h.67v3.08c0,.38,0,.77,0,1.16h4.32v.66Zm2.93-1.61a22.76,22.76,0,0,0-1.79-2.5l.51-.29a17.5,17.5,0,0,1,1.81,2.44Z"/>
      <path class="cls-2" d="M220.5,227.31a.46.46,0,0,1-.13.35.41.41,0,0,1-.32.13.34.34,0,0,1-.19,0,.4.4,0,0,1-.17-.17,10.12,10.12,0,0,1-.79-1.62,13,13,0,0,1-.51-1.72,13.27,13.27,0,0,1-.28-1.75,16.48,16.48,0,0,1,0-3.44,13.41,13.41,0,0,1,.28-1.76,13,13,0,0,1,.51-1.72,9.91,9.91,0,0,1,.79-1.6.43.43,0,0,1,.17-.18.44.44,0,0,1,.64.42.76.76,0,0,1,0,.15.41.41,0,0,1-.07.17,8.48,8.48,0,0,0-.69,1.46,10.72,10.72,0,0,0-.46,1.56,13,13,0,0,0-.25,1.62c-.05.54-.08,1.08-.08,1.6s0,1.07.08,1.61a12.38,12.38,0,0,0,.25,1.6,10.84,10.84,0,0,0,.46,1.57,9,9,0,0,0,.69,1.47.34.34,0,0,1,.07.15A.76.76,0,0,1,220.5,227.31Z"/>
      <path class="cls-2" d="M228.84,221.91a4.86,4.86,0,0,1-.19,1.41,3,3,0,0,1-.59,1.09,2.66,2.66,0,0,1-1,.72,3.85,3.85,0,0,1-1.43.25,3.79,3.79,0,0,1-1.63-.32,2.8,2.8,0,0,1-1.09-.89,3.77,3.77,0,0,1-.59-1.38,7.68,7.68,0,0,1-.19-1.79v-1.69a7.44,7.44,0,0,1,.2-1.75,3.84,3.84,0,0,1,.62-1.39,3,3,0,0,1,1.12-.91,3.73,3.73,0,0,1,1.65-.33,3.78,3.78,0,0,1,1.32.2,3.36,3.36,0,0,1,.6.3,2.47,2.47,0,0,1,.51.46.36.36,0,0,1,.12.16.45.45,0,0,1,0,.16.41.41,0,0,1-.11.29.43.43,0,0,1-.33.14.36.36,0,0,1-.24-.09c-.07-.07-.16-.14-.27-.23a1.89,1.89,0,0,0-.73-.41,3.22,3.22,0,0,0-2.1.1,2.22,2.22,0,0,0-.83.69,3.33,3.33,0,0,0-.48,1.11,6.79,6.79,0,0,0-.16,1.51V221a7.11,7.11,0,0,0,.15,1.56,3,3,0,0,0,.46,1.1,1.9,1.9,0,0,0,.8.66,2.9,2.9,0,0,0,1.16.21,2.73,2.73,0,0,0,1-.18,1.82,1.82,0,0,0,.73-.51,2.21,2.21,0,0,0,.43-.82,4,4,0,0,0,.14-1.09V221h-2a.38.38,0,0,1-.3-.13.42.42,0,0,1-.13-.31.39.39,0,0,1,.13-.3.42.42,0,0,1,.3-.13h2.5a.44.44,0,0,1,.32.13.48.48,0,0,1,.12.33Z"/>
      <path class="cls-2" d="M241.41,215.36v.06a.13.13,0,0,0,0,.06c-.18.79-.37,1.56-.56,2.32s-.37,1.53-.57,2.29-.41,1.55-.63,2.33-.44,1.6-.68,2.43a1,1,0,0,1-.21.38.53.53,0,0,1-.39.15.56.56,0,0,1-.38-.14,1,1,0,0,1-.22-.39c-.2-.71-.4-1.4-.58-2.08s-.37-1.34-.54-2-.33-1.31-.5-2l-.48-2c-.15.66-.31,1.31-.47,2s-.33,1.3-.51,2-.35,1.33-.54,2-.38,1.37-.58,2.08a.82.82,0,0,1-.21.39.56.56,0,0,1-.38.14.49.49,0,0,1-.38-.15.89.89,0,0,1-.22-.38c-.24-.83-.47-1.64-.68-2.43s-.43-1.56-.62-2.33-.39-1.52-.58-2.29-.37-1.53-.56-2.32c0,0,0-.09,0-.12a.39.39,0,0,1,.15-.32.57.57,0,0,1,.33-.11.53.53,0,0,1,.27.08.46.46,0,0,1,.16.28c.16.71.32,1.41.49,2.1l.51,2.09c.18.69.37,1.39.56,2.1s.39,1.45.61,2.19c.2-.73.4-1.44.58-2.14s.36-1.39.54-2.08.34-1.36.5-2,.32-1.35.48-2a.89.89,0,0,1,.2-.4.5.5,0,0,1,.38-.14c.28,0,.47.18.56.54.15.69.31,1.37.47,2s.32,1.36.5,2,.35,1.38.54,2.08.38,1.41.59,2.14q.32-1.11.6-2.19c.19-.71.37-1.41.55-2.1s.35-1.39.52-2.09.33-1.39.49-2.1a.42.42,0,0,1,.17-.28.5.5,0,0,1,.27-.08.57.57,0,0,1,.33.11A.42.42,0,0,1,241.41,215.36Z"/>
      <path class="cls-2" d="M248,224.89a.41.41,0,0,1-.13.32.38.38,0,0,1-.3.13.44.44,0,0,1-.45-.45v-4.11a3.79,3.79,0,0,0-.07-.71,1.32,1.32,0,0,0-.23-.54,1.09,1.09,0,0,0-.46-.35,1.94,1.94,0,0,0-.74-.12,2.38,2.38,0,0,0-1.21.28,2.1,2.1,0,0,0-.75.76v4.79a.41.41,0,0,1-.13.32.44.44,0,0,1-.32.13.42.42,0,0,1-.32-.13.44.44,0,0,1-.12-.32v-9.32a.44.44,0,0,1,.12-.32.42.42,0,0,1,.32-.13.44.44,0,0,1,.32.13.41.41,0,0,1,.13.32V219a2.27,2.27,0,0,1,.87-.57,3.21,3.21,0,0,1,1.22-.21,2.7,2.7,0,0,1,1.1.2,1.7,1.7,0,0,1,.69.54,1.88,1.88,0,0,1,.35.8,4.32,4.32,0,0,1,.11,1Z"/>
      <path class="cls-2" d="M252.15,220.76c0,.56,0,1.13-.08,1.72a13.27,13.27,0,0,1-.28,1.75,13,13,0,0,1-.51,1.72,9.3,9.3,0,0,1-.78,1.62.56.56,0,0,1-.18.17.37.37,0,0,1-.2,0,.42.42,0,0,1-.32-.13.46.46,0,0,1-.13-.35.77.77,0,0,1,0-.15,1,1,0,0,1,.07-.15,9.85,9.85,0,0,0,.69-1.47,10.8,10.8,0,0,0,.45-1.57,12.38,12.38,0,0,0,.25-1.6c0-.54.08-1.08.08-1.61s0-1.06-.08-1.6a13,13,0,0,0-.25-1.62,10.68,10.68,0,0,0-.45-1.56,9.29,9.29,0,0,0-.69-1.46,1.22,1.22,0,0,1-.07-.17.77.77,0,0,1,0-.15.45.45,0,0,1,.13-.34.46.46,0,0,1,.32-.13.49.49,0,0,1,.2.05.61.61,0,0,1,.18.18,9.11,9.11,0,0,1,.78,1.6,13,13,0,0,1,.51,1.72,13.41,13.41,0,0,1,.28,1.76C252.12,219.63,252.15,220.2,252.15,220.76Z"/>
    </g>
  </g>
</svg>