<svg xmlns="http://www.w3.org/2000/svg" xmlns:xlink="http://www.w3.org/1999/xlink" viewBox="0 0 180.95 80.89">
  <defs>
    <style>.cls-1{isolation:isolate;}.cls-2,.cls-26,.cls-28,.cls-29,.cls-30,.cls-31,.cls-32{fill:none;}.cls-2{stroke:#31756c;mix-blend-mode:color-dodge;}.cls-2,.cls-26{stroke-miterlimit:10;stroke-width:0.97px;}.cls-3{opacity:0.2;}.cls-10,.cls-11,.cls-12,.cls-13,.cls-14,.cls-15,.cls-16,.cls-17,.cls-18,.cls-19,.cls-20,.cls-21,.cls-22,.cls-23,.cls-24,.cls-25,.cls-4,.cls-5,.cls-6,.cls-7,.cls-8,.cls-9{fill:#00dcff;}.cls-5{opacity:0.95;}.cls-6{opacity:0.9;}.cls-7{opacity:0.86;}.cls-8{opacity:0.81;}.cls-9{opacity:0.76;}.cls-10{opacity:0.71;}.cls-11{opacity:0.67;}.cls-12{opacity:0.62;}.cls-13{opacity:0.57;}.cls-14{opacity:0.52;}.cls-15{opacity:0.48;}.cls-16{opacity:0.43;}.cls-17{opacity:0.38;}.cls-18{opacity:0.33;}.cls-19{opacity:0.29;}.cls-20{opacity:0.24;}.cls-21{opacity:0.19;}.cls-22{opacity:0.14;}.cls-23{opacity:0.1;}.cls-24{opacity:0.05;}.cls-25{opacity:0;}.cls-26{stroke:#5cdaff;}.cls-27{fill:url(#未命名的渐变_16);}.cls-28,.cls-29,.cls-30,.cls-31,.cls-32{stroke-linecap:round;stroke-linejoin:round;stroke-width:1.56px;}.cls-28{stroke:url(#新建渐变色板_1);}.cls-29{stroke:url(#新建渐变色板_1-2);}.cls-30{stroke:url(#新建渐变色板_1-3);}.cls-31{stroke:url(#新建渐变色板_1-4);}.cls-32{stroke:url(#新建渐变色板_1-5);}.cls-33{fill:url(#新建渐变色板_1-6);}</style>
    <linearGradient id="未命名的渐变_16" x1="77.05" y1="5.71" x2="99.37" y2="51.36" gradientUnits="userSpaceOnUse">
      <stop offset="0.37" stop-color="#fff" stop-opacity="0.05"/>
      <stop offset="0.62" stop-color="#fff" stop-opacity="0.07"/>
      <stop offset="0.96" stop-color="#fff" stop-opacity="0.14"/>
      <stop offset="1" stop-color="#fff" stop-opacity="0.15"/>
      <animate attributeName="x1" values="33;77.05;99.37;33" dur="5s" repeatCount="indefinite"></animate>
      <animate attributeName="y1" values="0;5.71;51.36;0" dur="5s" repeatCount="indefinite"></animate>
      <animate attributeName="x2" values="22.32;99.37;150;22.32" dur="5s" repeatCount="indefinite"></animate>
      <animate attributeName="y2" values="22.32;51.36;100;22.32" dur="5s" repeatCount="indefinite"></animate>
    </linearGradient>
    <linearGradient id="新建渐变色板_1" x1="67.82" y1="29.9" x2="81.26" y2="29.9" gradientUnits="userSpaceOnUse">
      <stop offset="0" stop-color="#00d7ff"/>
      <stop offset="0.09" stop-color="#0fd9ff"/>
      <stop offset="0.27" stop-color="#36dfff"/>
      <stop offset="0.52" stop-color="#75e9ff"/>
      <stop offset="0.83" stop-color="#cbf7ff"/>
      <stop offset="1" stop-color="#fff"/>
    </linearGradient>
    <linearGradient id="新建渐变色板_1-2" x1="82.88" y1="29.9" x2="96.32" y2="29.9" xlink:href="#新建渐变色板_1"/>
    <linearGradient id="新建渐变色板_1-3" x1="97.95" y1="29.9" x2="111.39" y2="29.9" xlink:href="#新建渐变色板_1"/>
    <linearGradient id="新建渐变色板_1-4" x1="111.4" y1="59.7" x2="118.16" y2="59.7" gradientTransform="translate(229.56 119.41) rotate(-180)" xlink:href="#新建渐变色板_1"/>
    <linearGradient id="新建渐变色板_1-5" x1="62.79" y1="59.7" x2="112.96" y2="59.7" xlink:href="#新建渐变色板_1"/>
    <linearGradient id="新建渐变色板_1-6" x1="76.12" y1="59.91" x2="98.2" y2="59.91" xlink:href="#新建渐变色板_1"/>
  </defs>
  <g class="cls-1">
    <g id="图层_2" data-name="图层 2">
      <g id="图层_2-2" data-name="图层 2">
        <path class="cls-2" d="M.48,80.41h180V.48H.48Z"/>
        <g class="cls-3">
          <rect class="cls-4" x="4.24" y="3.06" width="172.47" height="74.77"/>
          <rect class="cls-5" x="4.81" y="3.45" width="171.33" height="73.99"/>
          <rect class="cls-6" x="5.39" y="3.84" width="170.18" height="73.21"/>
          <rect class="cls-7" x="5.96" y="4.23" width="169.04" height="72.43"/>
          <rect class="cls-8" x="6.53" y="4.62" width="167.9" height="71.64"/>
          <rect class="cls-9" x="7.1" y="5.02" width="166.76" height="70.86"/>
          <rect class="cls-10" x="7.67" y="5.41" width="165.62" height="70.08"/>
          <rect class="cls-11" x="8.24" y="5.8" width="164.47" height="69.3"/>
          <rect class="cls-12" x="8.81" y="6.19" width="163.33" height="68.51"/>
          <rect class="cls-13" x="9.38" y="6.58" width="162.19" height="67.73"/>
          <rect class="cls-14" x="9.95" y="6.97" width="161.05" height="66.95"/>
          <rect class="cls-15" x="10.52" y="7.36" width="159.91" height="66.17"/>
          <rect class="cls-16" x="11.1" y="7.75" width="158.76" height="65.38"/>
          <rect class="cls-17" x="11.67" y="8.15" width="157.62" height="64.6"/>
          <rect class="cls-18" x="12.24" y="8.54" width="156.48" height="63.82"/>
          <rect class="cls-19" x="12.81" y="8.93" width="155.34" height="63.04"/>
          <rect class="cls-20" x="13.38" y="9.32" width="154.2" height="62.25"/>
          <rect class="cls-21" x="13.95" y="9.71" width="153.05" height="61.47"/>
          <rect class="cls-22" x="14.52" y="10.1" width="151.91" height="60.69"/>
          <rect class="cls-23" x="15.09" y="10.49" width="150.77" height="59.91"/>
          <rect class="cls-24" x="15.66" y="10.88" width="149.63" height="59.12"/>
          <rect class="cls-25" x="16.23" y="11.28" width="148.49" height="58.34"/>
        </g>
        <polyline class="cls-26" points="87.12 80.41 180.47 80.41 180.47 71.2"/>
        <polyline class="cls-26" points="28.27 0.48 0.48 0.48 0.48 14.82"/>
        <polygon class="cls-27" points="4.24 3.06 4.24 63.29 176.71 21.2 176.71 3.06 4.24 3.06"/>
        <path class="cls-28" d="M80.48,14.17V21a7.82,7.82,0,0,1-2.29,5.54l-7.3,7.3a7.82,7.82,0,0,0-2.29,5.54v6.26"/>
        <path class="cls-29" d="M95.55,14.17V21a7.83,7.83,0,0,1-2.3,5.54L86,33.84a7.87,7.87,0,0,0-2.29,5.54v6.26"/>
        <path class="cls-30" d="M110.61,14.17V21a7.87,7.87,0,0,1-2.29,5.54l-7.3,7.3a7.83,7.83,0,0,0-2.3,5.54v6.26"/>
        <rect class="cls-31" x="112.18" y="55.32" width="5.2" height="8.76" transform="translate(229.56 119.41) rotate(180)"/>
        <rect class="cls-32" x="63.57" y="51.79" width="48.61" height="15.82"/>
        <polygon class="cls-33" points="76.12 61.2 92.57 56.48 88.83 59.73 98.19 58.75 83.37 63.33 86.07 60.65 76.12 61.2"/>
      </g>
    </g>
  </g>
</svg>