<svg xmlns="http://www.w3.org/2000/svg" xmlns:xlink="http://www.w3.org/1999/xlink" viewBox="0 0 295.99 226.32">
  <defs>
    <style>.cls-1{fill:url(#未命名的渐变_4);}.cls-2,.cls-5,.cls-7,.cls-9{opacity:0.1;}.cls-2{fill:url(#未命名的渐变_42);}.cls-3{fill:#fff;}.cls-4{fill:url(#未命名的渐变_4-2);}.cls-5{fill:url(#未命名的渐变_42-2);}.cls-6{fill:url(#未命名的渐变_4-3);}.cls-7{fill:url(#未命名的渐变_42-3);}.cls-8{fill:url(#未命名的渐变_4-4);}.cls-9{fill:url(#未命名的渐变_42-4);}.cls-10{opacity:0.4;fill:url(#未命名的渐变_41);}.cls-11{fill:#00dcff;}</style>
    <linearGradient id="未命名的渐变_4" x1="106.93" y1="87.57" x2="106.93" gradientUnits="userSpaceOnUse">
      <stop offset="0" stop-color="#00dcff" stop-opacity="1">
        <animate attributeName="stop-opacity"
                 values="1;0.93;0.76;0.61;0.48;0.38;0.3;0.24;0.21;0.2;0.21;0.24;0.3;0.38;0.48;0.61;0.76;0.93;1"
                 dur="5s" repeatCount="indefinite"></animate>
      </stop>
      <stop offset="0.01" stop-color="#00dcff" stop-opacity="0.93">
        <animate attributeName="stop-opacity"
                 values="0.93;0.76;0.61;0.48;0.38;0.3;0.24;0.21;0.2;0.21;0.24;0.3;0.38;0.48;0.61;0.76;0.93;1;1"
                 dur="5s" repeatCount="indefinite"></animate>
      </stop>
      <stop offset="0.05" stop-color="#00dcff" stop-opacity="0.76">
        <animate attributeName="stop-opacity"
                 values="0.76;0.61;0.48;0.38;0.3;0.24;0.21;0.2;0.21;0.24;0.3;0.38;0.48;0.61;0.76;0.93;1;1;0.93"
                 dur="5s" repeatCount="indefinite"></animate>
      </stop>
      <stop offset="0.1" stop-color="#00dcff" stop-opacity="0.61">
        <animate attributeName="stop-opacity"
                 values="0.61;0.48;0.38;0.3;0.24;0.21;0.2;0.21;0.24;0.3;0.38;0.48;0.61;0.76;0.93;1;1;0.93;0.76"
                 dur="5s" repeatCount="indefinite"></animate>
      </stop>
      <stop offset="0.14" stop-color="#00dcff" stop-opacity="0.48">
        <animate attributeName="stop-opacity"
                 values="0.48;0.38;0.3;0.24;0.21;0.2;0.21;0.24;0.3;0.38;0.48;0.61;0.76;0.93;1;1;0.93;0.76;0.61"
                 dur="5s" repeatCount="indefinite"></animate>
      </stop>
      <stop offset="0.19" stop-color="#00dcff" stop-opacity="0.38">
        <animate attributeName="stop-opacity"
                 values="0.38;0.3;0.24;0.21;0.2;0.21;0.24;0.3;0.38;0.48;0.61;0.76;0.93;1;1;0.93;0.76;0.61;0.48"
                 dur="5s" repeatCount="indefinite"></animate>
      </stop>
      <stop offset="0.24" stop-color="#00dcff" stop-opacity="0.3">
        <animate attributeName="stop-opacity"
                 values="0.3;0.24;0.21;0.2;0.21;0.24;0.3;0.38;0.48;0.61;0.76;0.93;1;1;0.93;0.76;0.61;0.48;0.38"
                 dur="5s" repeatCount="indefinite"></animate>
      </stop>
      <stop offset="0.31" stop-color="#00dcff" stop-opacity="0.24">
        <animate attributeName="stop-opacity"
                 values="0.24;0.21;0.2;0.21;0.24;0.3;0.38;0.48;0.61;0.76;0.93;1;1;0.93;0.76;0.61;0.48;0.38;0.3"
                 dur="5s" repeatCount="indefinite"></animate>
      </stop>
      <stop offset="0.38" stop-color="#00dcff" stop-opacity="0.21">
        <animate attributeName="stop-opacity"
                 values="0.21;0.2;0.21;0.24;0.3;0.38;0.48;0.61;0.76;0.93;1;1;0.93;0.76;0.61;0.48;0.38;0.3;0.24"
                 dur="5s" repeatCount="indefinite"></animate>
      </stop>
      <stop offset="0.5" stop-color="#00dcff" stop-opacity="0.2">
        <animate attributeName="stop-opacity"
                 values="0.2;0.21;0.24;0.3;0.38;0.48;0.61;0.76;0.93;1;1;0.93;0.76;0.61;0.48;0.38;0.3;0.24;0.21"
                 dur="5s" repeatCount="indefinite"></animate>
      </stop>
      <stop offset="0.62" stop-color="#00dcff" stop-opacity="0.21">
        <animate attributeName="stop-opacity"
                 values="0.21;0.24;0.3;0.38;0.48;0.61;0.76;0.93;1;1;0.93;0.76;0.61;0.48;0.38;0.3;0.24;0.21;0.2"
                 dur="5s" repeatCount="indefinite"></animate>
      </stop>
      <stop offset="0.69" stop-color="#00dcff" stop-opacity="0.24">
        <animate attributeName="stop-opacity"
                 values="0.24;0.3;0.38;0.48;0.61;0.76;0.93;1;1;0.93;0.76;0.61;0.48;0.38;0.3;0.24;0.21;0.2;0.21"
                 dur="5s" repeatCount="indefinite"></animate>
      </stop>
      <stop offset="0.76" stop-color="#00dcff" stop-opacity="0.3">
        <animate attributeName="stop-opacity"
                 values="0.3;0.38;0.48;0.61;0.76;0.93;1;1;0.93;0.76;0.61;0.48;0.38;0.3;0.24;0.21;0.2;0.21;0.24"
                 dur="5s" repeatCount="indefinite"></animate>
      </stop>
      <stop offset="0.81" stop-color="#00dcff" stop-opacity="0.38">
        <animate attributeName="stop-opacity"
                 values="0.38;0.48;0.61;0.76;0.93;1;1;0.93;0.76;0.61;0.48;0.38;0.3;0.24;0.21;0.2;0.21;0.24;0.3"
                 dur="5s" repeatCount="indefinite"></animate>
      </stop>
      <stop offset="0.86" stop-color="#00dcff" stop-opacity="0.48">
        <animate attributeName="stop-opacity"
                 values="0.48;0.61;0.76;0.93;1;1;0.93;0.76;0.61;0.48;0.38;0.3;0.24;0.21;0.2;0.21;0.24;0.3;0.38"
                 dur="5s" repeatCount="indefinite"></animate>
      </stop>
      <stop offset="0.9" stop-color="#00dcff" stop-opacity="0.61">
        <animate attributeName="stop-opacity"
                 values="0.61;0.76;0.93;1;1;0.93;0.76;0.61;0.48;0.38;0.3;0.24;0.21;0.2;0.21;0.24;0.3;0.38;0.48"
                 dur="5s" repeatCount="indefinite"></animate>
      </stop>
      <stop offset="0.95" stop-color="#00dcff" stop-opacity="0.76">
        <animate attributeName="stop-opacity"
                 values="0.76;0.93;1;1;0.93;0.76;0.61;0.48;0.38;0.3;0.24;0.21;0.2;0.21;0.24;0.3;0.38;0.48;0.61"
                 dur="5s" repeatCount="indefinite"></animate>
      </stop>
      <stop offset="0.99" stop-color="#00dcff" stop-opacity="0.93">
        <animate attributeName="stop-opacity"
                 values="0.93;1;1;0.93;0.76;0.61;0.48;0.38;0.3;0.24;0.21;0.2;0.21;0.24;0.3;0.38;0.48;0.61;0.76"
                 dur="5s" repeatCount="indefinite"></animate>
      </stop>
      <stop offset="1" stop-color="#00dcff" stop-opacity="1">
        <animate attributeName="stop-opacity"
                 values="1;1;0.93;0.76;0.61;0.48;0.38;0.3;0.24;0.21;0.2;0.21;0.24;0.3;0.38;0.48;0.61;0.76;0.93"
                 dur="5s" repeatCount="indefinite"></animate>
      </stop>
    </linearGradient>
    <linearGradient id="未命名的渐变_42" x1="106.93" y1="185.69" x2="106.93" y2="87.57" gradientUnits="userSpaceOnUse">
      <stop offset="0" stop-color="#fff" stop-opacity="0.5"/>
      <stop offset="1" stop-color="#fff"/>
    </linearGradient>
    <linearGradient id="未命名的渐变_4-2" x1="189.05" y1="121.06" x2="189.05" xlink:href="#未命名的渐变_4"/>
    <linearGradient id="未命名的渐变_42-2" x1="189.05" y1="185.69" x2="189.05" y2="121.06" xlink:href="#未命名的渐变_42"/>
    <linearGradient id="未命名的渐变_4-3" x1="24.81" y1="52.09" x2="24.81" xlink:href="#未命名的渐变_4"/>
    <linearGradient id="未命名的渐变_42-3" x1="24.81" y1="185.69" x2="24.81" y2="52.09" xlink:href="#未命名的渐变_42"/>
    <linearGradient id="未命名的渐变_4-4" x1="271.17" y1="147.08" x2="271.17" xlink:href="#未命名的渐变_4"/>
    <linearGradient id="未命名的渐变_42-4" x1="271.17" y1="185.69" x2="271.17" y2="147.08" xlink:href="#未命名的渐变_42"/>
    <linearGradient id="未命名的渐变_41" x1="52.86" y1="220.19" x2="63" y2="220.19" gradientUnits="userSpaceOnUse">
      <stop offset="0" stop-color="#fff"/>
      <stop offset="1" stop-color="#fff" stop-opacity="0.5"/>
    </linearGradient>
  </defs>
  <g id="图层_2" data-name="图层 2">
    <g id="图层_2-2" data-name="图层 2">
      <rect class="cls-1" x="82.12" width="49.62" height="87.57"/>
      <rect class="cls-2" x="82.12" y="87.57" width="49.62" height="98.12"/>
      <path class="cls-3" d="M101.06,200.45a.42.42,0,0,1-.13.32.42.42,0,0,1-.31.13H95.54a.42.42,0,0,1-.33-.13.44.44,0,0,1-.12-.32,3.07,3.07,0,0,1,.12-.88,3.67,3.67,0,0,1,.31-.76,3.84,3.84,0,0,1,.45-.66c.18-.2.36-.39.55-.57s.51-.44.78-.64l.82-.61c.26-.2.52-.4.76-.6a3.92,3.92,0,0,0,.64-.65,2.94,2.94,0,0,0,.45-.73,2.34,2.34,0,0,0,.16-.85,2.58,2.58,0,0,0-.12-.8,1.79,1.79,0,0,0-.37-.66,1.68,1.68,0,0,0-.62-.45,2.27,2.27,0,0,0-.91-.17,3.37,3.37,0,0,0-.82.09,2.92,2.92,0,0,0-.65.24,1.44,1.44,0,0,0-.33.2l-.22.17-.17.12a.34.34,0,0,1-.17,0,.43.43,0,0,1-.31-.14.43.43,0,0,1-.14-.32.35.35,0,0,1,0-.17.55.55,0,0,1,.11-.17,3.73,3.73,0,0,1,1.16-.68,4.37,4.37,0,0,1,1.52-.24,3.23,3.23,0,0,1,1.31.24,2.53,2.53,0,0,1,1.44,1.59,3.38,3.38,0,0,1,.18,1.1,3,3,0,0,1-.2,1.1,3.8,3.8,0,0,1-.51.9,5.3,5.3,0,0,1-.74.76c-.28.24-.56.46-.86.68l-.89.66a7.79,7.79,0,0,0-.8.69,4.71,4.71,0,0,0-.64.79,2.65,2.65,0,0,0-.35.94h4.55a.45.45,0,0,1,.31.12A.42.42,0,0,1,101.06,200.45Z"/>
      <path class="cls-3" d="M109.11,197.33a5.3,5.3,0,0,1-.18,1.39,3.31,3.31,0,0,1-.56,1.18,2.71,2.71,0,0,1-1,.82,3.65,3.65,0,0,1-2.9,0,2.71,2.71,0,0,1-1-.82,3.29,3.29,0,0,1-.55-1.18,5.3,5.3,0,0,1-.18-1.39v-3.07a5.22,5.22,0,0,1,.18-1.38,3.29,3.29,0,0,1,.55-1.18,2.71,2.71,0,0,1,1-.82,3.55,3.55,0,0,1,2.9,0,2.71,2.71,0,0,1,1,.82,3.31,3.31,0,0,1,.56,1.18,5.22,5.22,0,0,1,.18,1.38Zm-.93-3a4.57,4.57,0,0,0-.13-1.14,2.6,2.6,0,0,0-.4-.91,2.13,2.13,0,0,0-.7-.6,2.28,2.28,0,0,0-1-.21,2.25,2.25,0,0,0-1,.21,2,2,0,0,0-.7.6,2.8,2.8,0,0,0-.4.91,5.1,5.1,0,0,0-.13,1.14v3a5.1,5.1,0,0,0,.13,1.14,2.65,2.65,0,0,0,.4.9,1.84,1.84,0,0,0,.7.6,2.25,2.25,0,0,0,1,.21,2.28,2.28,0,0,0,1-.21,1.92,1.92,0,0,0,.7-.6,2.47,2.47,0,0,0,.4-.9,4.57,4.57,0,0,0,.13-1.14Z"/>
      <path class="cls-3" d="M116.74,200.45a.42.42,0,0,1-.13.32.42.42,0,0,1-.31.13h-5.08a.42.42,0,0,1-.33-.13.44.44,0,0,1-.12-.32,3.07,3.07,0,0,1,.12-.88,3.67,3.67,0,0,1,.31-.76,3.84,3.84,0,0,1,.45-.66c.18-.2.36-.39.55-.57s.51-.44.78-.64l.82-.61c.26-.2.52-.4.76-.6a4.44,4.44,0,0,0,.65-.65,3.22,3.22,0,0,0,.44-.73,2.15,2.15,0,0,0,.16-.85,2.58,2.58,0,0,0-.12-.8,1.92,1.92,0,0,0-.36-.66,1.81,1.81,0,0,0-.63-.45,2.24,2.24,0,0,0-.91-.17,3.37,3.37,0,0,0-.82.09,3.12,3.12,0,0,0-.65.24,1.7,1.7,0,0,0-.33.2l-.22.17-.17.12a.34.34,0,0,1-.17,0,.46.46,0,0,1-.44-.46.51.51,0,0,1,0-.17.44.44,0,0,1,.12-.17,3.57,3.57,0,0,1,1.15-.68,4.39,4.39,0,0,1,1.53-.24,3.21,3.21,0,0,1,1.3.24,2.55,2.55,0,0,1,.91.65,2.75,2.75,0,0,1,.54.94,3.67,3.67,0,0,1,.17,1.1,3,3,0,0,1-.19,1.1,3.84,3.84,0,0,1-.52.9,4.82,4.82,0,0,1-.74.76c-.28.24-.56.46-.86.68l-.88.66a7,7,0,0,0-.81.69,4.2,4.2,0,0,0-.63.79,2.49,2.49,0,0,0-.36.94h4.55a.45.45,0,0,1,.31.12A.42.42,0,0,1,116.74,200.45Z"/>
      <path class="cls-3" d="M124.4,198.12a3.11,3.11,0,0,1-.2,1.1,2.59,2.59,0,0,1-.59.93,2.78,2.78,0,0,1-1,.64,3.93,3.93,0,0,1-1.39.23,4.92,4.92,0,0,1-.79-.05,3.2,3.2,0,0,1-.71-.16,3.56,3.56,0,0,1-.65-.32,3.06,3.06,0,0,1-.6-.5.42.42,0,0,1,0-.63.37.37,0,0,1,.29-.13.3.3,0,0,1,.15.05l.16.12.21.17a2.94,2.94,0,0,0,.3.22,2.36,2.36,0,0,0,.77.33,3.85,3.85,0,0,0,.87.1,2.6,2.6,0,0,0,1-.18,1.79,1.79,0,0,0,.71-.46,2,2,0,0,0,.43-.68,2.54,2.54,0,0,0,.14-.83,2.13,2.13,0,0,0-.2-1,1.78,1.78,0,0,0-.54-.61,2.43,2.43,0,0,0-.79-.32,4.85,4.85,0,0,0-.95-.11l-.15,0-.14-.05a.45.45,0,0,1-.11-.13.41.41,0,0,1,0-.21.39.39,0,0,1,0-.2.69.69,0,0,1,.11-.13.39.39,0,0,1,.15-.06l.14,0a3.2,3.2,0,0,0,.49-.07,3.13,3.13,0,0,0,1-.37,1.61,1.61,0,0,0,.68-.82,1.71,1.71,0,0,0,.11-.62,2.48,2.48,0,0,0-.1-.71,1.59,1.59,0,0,0-.33-.63,1.61,1.61,0,0,0-.61-.46,2.21,2.21,0,0,0-1-.18,3.11,3.11,0,0,0-.84.11,3.15,3.15,0,0,0-.67.29,1.94,1.94,0,0,0-.3.21l-.2.17-.15.12a.29.29,0,0,1-.16,0,.37.37,0,0,1-.28-.11.35.35,0,0,1-.13-.3.47.47,0,0,1,.17-.34,2.48,2.48,0,0,1,.45-.39,2.91,2.91,0,0,1,.58-.32,3,3,0,0,1,.71-.22,4.41,4.41,0,0,1,.83-.08,3.15,3.15,0,0,1,1.35.26,2.38,2.38,0,0,1,.88.65,2.48,2.48,0,0,1,.46.88,3.11,3.11,0,0,1,.14.94,2.64,2.64,0,0,1-.12.83,2.06,2.06,0,0,1-.87,1.13,2.61,2.61,0,0,1-.67.33,4.25,4.25,0,0,1,.78.33,2.33,2.33,0,0,1,.61.51,2.47,2.47,0,0,1,.39.72A3.15,3.15,0,0,1,124.4,198.12Z"/>
      <path class="cls-3" d="M104.94,50.75a.68.68,0,0,1-.06.29,1,1,0,0,1-.15.24.73.73,0,0,1-.23.16.72.72,0,0,1-.29.06h-.54v1.17a.73.73,0,0,1-.06.3.78.78,0,0,1-.16.24,1,1,0,0,1-.25.17.77.77,0,0,1-.3.06.73.73,0,0,1-.3-.06.74.74,0,0,1-.25-.17,1,1,0,0,1-.17-.24.73.73,0,0,1-.06-.3V51.5H98.89a.64.64,0,0,1-.28-.06.61.61,0,0,1-.23-.15.78.78,0,0,1-.16-.24.73.73,0,0,1-.06-.3.65.65,0,0,1,0-.21l.06-.16,2.95-6.92a1,1,0,0,1,.18-.26.73.73,0,0,1,.26-.17.93.93,0,0,1,.29-.05.85.85,0,0,1,.31.06.76.76,0,0,1,.26.18.82.82,0,0,1,.16.25.81.81,0,0,1,0,.31.85.85,0,0,1-.06.31L100.11,50h2V48.48a.8.8,0,0,1,.06-.3,1,1,0,0,1,.17-.24.72.72,0,0,1,.25-.16.73.73,0,0,1,.3-.06.77.77,0,0,1,.3.06,1,1,0,0,1,.25.16.78.78,0,0,1,.16.24.8.8,0,0,1,.06.3V50h.54a.72.72,0,0,1,.29.06.73.73,0,0,1,.23.16,1,1,0,0,1,.15.24A.67.67,0,0,1,104.94,50.75Z"/>
      <path class="cls-3" d="M112.39,50.15a3.84,3.84,0,0,1-.19,1.22,3.2,3.2,0,0,1-.59,1.05,2.93,2.93,0,0,1-1,.74,3.79,3.79,0,0,1-1.5.28,5,5,0,0,1-1.19-.13,3.25,3.25,0,0,1-1.06-.47.9.9,0,0,1-.3-.32.76.76,0,0,1-.09-.35.71.71,0,0,1,0-.29.87.87,0,0,1,.15-.25.76.76,0,0,1,.23-.17.78.78,0,0,1,.3-.07l.21,0a.85.85,0,0,1,.23.12l.28.17a2.53,2.53,0,0,0,.33.16,2.34,2.34,0,0,0,.4.12,2.25,2.25,0,0,0,.46,0,1.9,1.9,0,0,0,.8-.15,1.37,1.37,0,0,0,.53-.41,1.54,1.54,0,0,0,.3-.6,2.73,2.73,0,0,0,.09-.72,2.44,2.44,0,0,0-.11-.81,1.43,1.43,0,0,0-.31-.56,1.18,1.18,0,0,0-.47-.33,1.64,1.64,0,0,0-.6-.1,1.61,1.61,0,0,0-.62.1,1.89,1.89,0,0,0-.46.26l-.23.17-.18.14a.7.7,0,0,1-.16.1.45.45,0,0,1-.2,0,.81.81,0,0,1-.31-.06.78.78,0,0,1-.24-.16.76.76,0,0,1-.16-.26.66.66,0,0,1,0-.32l.16-4.51a.78.78,0,0,1,.07-.3.81.81,0,0,1,.17-.23.72.72,0,0,1,.25-.16.87.87,0,0,1,.28,0h3.51a.8.8,0,0,1,.3.06.74.74,0,0,1,.4.4.73.73,0,0,1,.06.3.72.72,0,0,1-.06.29.74.74,0,0,1-.4.4.8.8,0,0,1-.3.06H108.3l-.1,2.66a2.29,2.29,0,0,1,.59-.24,3.32,3.32,0,0,1,.65-.07,3.45,3.45,0,0,1,1.23.21,2.71,2.71,0,0,1,.93.62,2.82,2.82,0,0,1,.59,1A4.26,4.26,0,0,1,112.39,50.15Z"/>
      <path class="cls-3" d="M117.23,45.42a1.74,1.74,0,0,1-.12.67,1.34,1.34,0,0,1-.34.49,1.48,1.48,0,0,1-.5.3,1.84,1.84,0,0,1-.62.11,1.74,1.74,0,0,1-.61-.11,1.53,1.53,0,0,1-.51-.3,1.32,1.32,0,0,1-.33-.49,1.57,1.57,0,0,1-.13-.67v-.87a1.6,1.6,0,0,1,.13-.67,1.41,1.41,0,0,1,.33-.49,1.53,1.53,0,0,1,.51-.3,1.74,1.74,0,0,1,.61-.1,1.83,1.83,0,0,1,.62.1,1.48,1.48,0,0,1,.5.3,1.44,1.44,0,0,1,.34.49,1.78,1.78,0,0,1,.12.67Zm-1-.9a.61.61,0,0,0-.17-.49.59.59,0,0,0-.43-.16.6.6,0,0,0-.44.16.64.64,0,0,0-.16.49v.94a.66.66,0,0,0,.16.49.6.6,0,0,0,.44.17.6.6,0,0,0,.43-.17.62.62,0,0,0,.17-.49Zm-.18,8.62a.46.46,0,0,1-.6.27.46.46,0,0,1-.17-.09.4.4,0,0,1-.1-.15.34.34,0,0,1,0-.18.29.29,0,0,1,0-.18l3.5-9.52a.51.51,0,0,1,.25-.27.47.47,0,0,1,.37,0,.5.5,0,0,1,.28.62Zm4.65-1.25a1.74,1.74,0,0,1-.13.67,1.39,1.39,0,0,1-.34.48,1.53,1.53,0,0,1-.51.3,1.79,1.79,0,0,1-.62.1,1.72,1.72,0,0,1-.6-.1A1.53,1.53,0,0,1,118,53a1.42,1.42,0,0,1-.35-.48,1.74,1.74,0,0,1-.12-.67V51a1.69,1.69,0,0,1,.12-.66,1.37,1.37,0,0,1,.35-.49,1.4,1.4,0,0,1,.51-.31,1.72,1.72,0,0,1,.6-.1,1.79,1.79,0,0,1,.62.1,1.4,1.4,0,0,1,.51.31,1.34,1.34,0,0,1,.34.49,1.69,1.69,0,0,1,.13.66Zm-1-.91a.65.65,0,0,0-.17-.49.58.58,0,0,0-.45-.17.57.57,0,0,0-.42.17.64.64,0,0,0-.16.49v.92a.69.69,0,0,0,.16.51.6.6,0,0,0,.42.16.62.62,0,0,0,.45-.16.7.7,0,0,0,.17-.51Z"/>
      <path class="cls-3" d="M99.86,135.63a3.91,3.91,0,0,1-.18,1.17,2.9,2.9,0,0,1-.58,1,2.77,2.77,0,0,1-1,.72,3.59,3.59,0,0,1-1.46.27,4.83,4.83,0,0,1-1.15-.13,3,3,0,0,1-1.06-.52.45.45,0,0,1-.08-.7.42.42,0,0,1,.32-.15.31.31,0,0,1,.13,0,.26.26,0,0,1,.13.08,2.34,2.34,0,0,0,.78.41,3,3,0,0,0,.93.13,2.58,2.58,0,0,0,1.06-.19,2.09,2.09,0,0,0,.71-.51,2,2,0,0,0,.4-.74,2.84,2.84,0,0,0,.13-.88,2.41,2.41,0,0,0-.55-1.73,2,2,0,0,0-1.52-.57,2.13,2.13,0,0,0-.65.09,1.76,1.76,0,0,0-.51.26,2.28,2.28,0,0,0-.27.23l-.19.18a.83.83,0,0,1-.16.13.45.45,0,0,1-.52-.08.41.41,0,0,1-.11-.34l.15-4.9a.48.48,0,0,1,.47-.43h3.78a.44.44,0,0,1,.32.13.42.42,0,0,1,.12.3.45.45,0,0,1-.12.31.44.44,0,0,1-.32.13H95.48L95.37,133a2.11,2.11,0,0,1,.72-.39,2.66,2.66,0,0,1,.82-.12,3.43,3.43,0,0,1,1.24.21,2.39,2.39,0,0,1,.93.61,2.66,2.66,0,0,1,.58,1A4.24,4.24,0,0,1,99.86,135.63Z"/>
      <path class="cls-3" d="M107.7,135.63a3.91,3.91,0,0,1-.18,1.17,2.84,2.84,0,0,1-1.58,1.73,3.59,3.59,0,0,1-1.46.27,4.83,4.83,0,0,1-1.15-.13,2.87,2.87,0,0,1-1-.52.47.47,0,0,1-.22-.38.48.48,0,0,1,.13-.32.42.42,0,0,1,.32-.15.28.28,0,0,1,.13,0,.26.26,0,0,1,.13.08,2.44,2.44,0,0,0,.78.41,3,3,0,0,0,.93.13,2.58,2.58,0,0,0,1.06-.19,2,2,0,0,0,.71-.51,2,2,0,0,0,.4-.74,2.84,2.84,0,0,0,.13-.88,2.36,2.36,0,0,0-.55-1.73,2,2,0,0,0-1.52-.57,2.13,2.13,0,0,0-.65.09,1.76,1.76,0,0,0-.51.26,2.28,2.28,0,0,0-.27.23l-.19.18a.83.83,0,0,1-.16.13.39.39,0,0,1-.2.05.4.4,0,0,1-.31-.13.39.39,0,0,1-.12-.34l.15-4.9a.48.48,0,0,1,.47-.43h3.78a.43.43,0,0,1,.44.43.45.45,0,0,1-.12.31.42.42,0,0,1-.32.13h-3.38l-.11,3.66a2.11,2.11,0,0,1,.72-.39,2.66,2.66,0,0,1,.82-.12,3.43,3.43,0,0,1,1.24.21,2.39,2.39,0,0,1,.93.61,2.66,2.66,0,0,1,.58,1A4,4,0,0,1,107.7,135.63Z"/>
      <path class="cls-3" d="M112.54,130.81a1.69,1.69,0,0,1-.12.64,1.33,1.33,0,0,1-.31.48,1.38,1.38,0,0,1-.47.31,1.59,1.59,0,0,1-.59.11,1.64,1.64,0,0,1-.6-.11,1.38,1.38,0,0,1-.47-.31,1.33,1.33,0,0,1-.31-.48,1.69,1.69,0,0,1-.11-.64v-.92a1.66,1.66,0,0,1,.11-.64,1.42,1.42,0,0,1,.31-.48,1.38,1.38,0,0,1,.47-.31,1.64,1.64,0,0,1,.6-.11,1.59,1.59,0,0,1,.59.11,1.38,1.38,0,0,1,.47.31,1.42,1.42,0,0,1,.31.48,1.66,1.66,0,0,1,.12.64Zm-.67-.95a.93.93,0,0,0-.23-.66.75.75,0,0,0-.59-.24.81.81,0,0,0-.6.24.92.92,0,0,0-.22.66v1a.9.9,0,0,0,.22.65.81.81,0,0,0,.6.23.74.74,0,0,0,.59-.23.9.9,0,0,0,.23-.65Zm-.75,8.74a.37.37,0,0,1-.18.19.36.36,0,0,1-.25,0,.27.27,0,0,1-.19-.17.33.33,0,0,1,0-.26l3.58-9.81a.39.39,0,0,1,.18-.18.34.34,0,0,1,.26,0,.37.37,0,0,1,.19.18.31.31,0,0,1,0,.25Zm4.51-1.34a1.83,1.83,0,0,1-.11.64,1.64,1.64,0,0,1-.31.49,1.52,1.52,0,0,1-.48.31,1.64,1.64,0,0,1-.6.1,1.63,1.63,0,0,1-.59-.1,1.48,1.48,0,0,1-.47-.31,1.46,1.46,0,0,1-.31-.49,1.62,1.62,0,0,1-.11-.64v-.92a1.61,1.61,0,0,1,.11-.63,1.29,1.29,0,0,1,.31-.49,1.67,1.67,0,0,1,.47-.31,1.66,1.66,0,0,1,1.19,0,1.72,1.72,0,0,1,.48.31,1.42,1.42,0,0,1,.31.49,1.81,1.81,0,0,1,.11.63Zm-.66-1a.88.88,0,0,0-.23-.64.82.82,0,0,0-.61-.23.78.78,0,0,0-.58.23.88.88,0,0,0-.23.64v1a.91.91,0,0,0,.23.66.78.78,0,0,0,.58.23.84.84,0,0,0,.61-.23.91.91,0,0,0,.23-.66Z"/>
      <rect class="cls-4" x="164.24" width="49.62" height="121.06"/>
      <rect class="cls-5" x="164.24" y="121.06" width="49.62" height="64.63"/>
      <path class="cls-3" d="M183.18,200.45a.46.46,0,0,1-.13.32.42.42,0,0,1-.31.13h-5.08a.42.42,0,0,1-.33-.13.44.44,0,0,1-.12-.32,3.07,3.07,0,0,1,.12-.88,3.19,3.19,0,0,1,.31-.76,3.84,3.84,0,0,1,.45-.66,7.4,7.4,0,0,1,.55-.57,9.84,9.84,0,0,1,.78-.64c.28-.2.55-.41.81-.61s.53-.4.77-.6a4.36,4.36,0,0,0,.64-.65,2.9,2.9,0,0,0,.44-.73,2.15,2.15,0,0,0,.17-.85,2.58,2.58,0,0,0-.12-.8,1.79,1.79,0,0,0-.37-.66,1.68,1.68,0,0,0-.62-.45,2.31,2.31,0,0,0-.91-.17,3.37,3.37,0,0,0-.82.09,2.92,2.92,0,0,0-.65.24,1.25,1.25,0,0,0-.33.2l-.23.17-.16.12a.34.34,0,0,1-.17,0,.45.45,0,0,1-.32-.14.46.46,0,0,1-.13-.32.35.35,0,0,1,0-.17.55.55,0,0,1,.11-.17,3.68,3.68,0,0,1,1.15-.68,4.47,4.47,0,0,1,1.53-.24,3.26,3.26,0,0,1,1.31.24A2.53,2.53,0,0,1,183,192.4a3.38,3.38,0,0,1,.18,1.1,3,3,0,0,1-.2,1.1,3.8,3.8,0,0,1-.51.9,5.3,5.3,0,0,1-.74.76c-.28.24-.57.46-.86.68l-.89.66a7.79,7.79,0,0,0-.8.69,4.71,4.71,0,0,0-.64.79,2.47,2.47,0,0,0-.35.94h4.55a.45.45,0,0,1,.31.12A.46.46,0,0,1,183.18,200.45Z"/>
      <path class="cls-3" d="M191.22,197.33a5.3,5.3,0,0,1-.17,1.39,3.31,3.31,0,0,1-.56,1.18,2.71,2.71,0,0,1-1,.82,3.65,3.65,0,0,1-2.9,0,2.71,2.71,0,0,1-1-.82,3.48,3.48,0,0,1-.56-1.18,5.75,5.75,0,0,1-.17-1.39v-3.07a5.67,5.67,0,0,1,.17-1.38,3.48,3.48,0,0,1,.56-1.18,2.71,2.71,0,0,1,1-.82,3.55,3.55,0,0,1,2.9,0,2.71,2.71,0,0,1,1,.82,3.31,3.31,0,0,1,.56,1.18,5.22,5.22,0,0,1,.17,1.38Zm-.92-3a4.57,4.57,0,0,0-.13-1.14,2.61,2.61,0,0,0-.41-.91,2,2,0,0,0-.7-.6,2.2,2.2,0,0,0-1-.21,2.25,2.25,0,0,0-1,.21,2,2,0,0,0-.7.6,2.8,2.8,0,0,0-.4.91,5.1,5.1,0,0,0-.13,1.14v3a5.1,5.1,0,0,0,.13,1.14,2.65,2.65,0,0,0,.4.9,1.77,1.77,0,0,0,.7.6,2.25,2.25,0,0,0,1,.21,2.2,2.2,0,0,0,1-.21,1.77,1.77,0,0,0,.7-.6,2.48,2.48,0,0,0,.41-.9,4.57,4.57,0,0,0,.13-1.14Z"/>
      <path class="cls-3" d="M198.86,200.45a.42.42,0,0,1-.13.32.42.42,0,0,1-.31.13h-5.08a.42.42,0,0,1-.33-.13.44.44,0,0,1-.12-.32,3.07,3.07,0,0,1,.12-.88,3.67,3.67,0,0,1,.31-.76,3.84,3.84,0,0,1,.45-.66c.18-.2.36-.39.55-.57s.51-.44.78-.64l.82-.61c.26-.2.52-.4.76-.6a3.92,3.92,0,0,0,.64-.65,2.94,2.94,0,0,0,.45-.73,2.34,2.34,0,0,0,.16-.85,2.58,2.58,0,0,0-.12-.8,1.79,1.79,0,0,0-.37-.66,1.68,1.68,0,0,0-.62-.45,2.27,2.27,0,0,0-.91-.17,3.37,3.37,0,0,0-.82.09,2.92,2.92,0,0,0-.65.24,1.44,1.44,0,0,0-.33.2l-.22.17-.17.12a.34.34,0,0,1-.17,0,.43.43,0,0,1-.31-.14.43.43,0,0,1-.14-.32.35.35,0,0,1,0-.17.55.55,0,0,1,.11-.17,3.73,3.73,0,0,1,1.16-.68,4.37,4.37,0,0,1,1.52-.24,3.23,3.23,0,0,1,1.31.24,2.53,2.53,0,0,1,1.44,1.59,3.38,3.38,0,0,1,.18,1.1,3,3,0,0,1-.2,1.1,3.8,3.8,0,0,1-.51.9,5.3,5.3,0,0,1-.74.76c-.28.24-.57.46-.86.68l-.89.66a7.79,7.79,0,0,0-.8.69,4.71,4.71,0,0,0-.64.79,2.65,2.65,0,0,0-.35.94h4.55a.45.45,0,0,1,.31.12A.42.42,0,0,1,198.86,200.45Z"/>
      <path class="cls-3" d="M206.85,198.36a.44.44,0,0,1-.12.32.38.38,0,0,1-.3.13h-.89v1.77a.46.46,0,0,1-.13.32.45.45,0,0,1-.32.14.45.45,0,0,1-.33-.14.43.43,0,0,1-.14-.32v-1.77H201a.41.41,0,0,1-.3-.12.43.43,0,0,1-.13-.33.63.63,0,0,1,0-.22l3.21-7.28a.42.42,0,0,1,.25-.24.43.43,0,0,1,.35,0,.38.38,0,0,1,.24.25.43.43,0,0,1,0,.35l-3,6.7h2.86v-2.28a.42.42,0,0,1,.14-.32.44.44,0,0,1,.33-.13.44.44,0,0,1,.32.13.44.44,0,0,1,.13.32v2.28h.89a.38.38,0,0,1,.3.13A.42.42,0,0,1,206.85,198.36Z"/>
      <path class="cls-3" d="M186.86,64.79a3.61,3.61,0,0,1-.24,1.35,2.88,2.88,0,0,1-.67,1,3,3,0,0,1-1,.65,3.64,3.64,0,0,1-1.31.22,2.9,2.9,0,0,1-1.34-.29,2.85,2.85,0,0,1-1-.8,3.63,3.63,0,0,1-.61-1.21,5.32,5.32,0,0,1-.21-1.52,6,6,0,0,1,.27-1.77,9.88,9.88,0,0,1,.73-1.71,13,13,0,0,1,1-1.56c.39-.49.78-.94,1.17-1.34a1.1,1.1,0,0,1,.28-.18.72.72,0,0,1,.28,0,.9.9,0,0,1,.34.06.74.74,0,0,1,.25.17.7.7,0,0,1,.17.25.81.81,0,0,1,.06.31.66.66,0,0,1-.06.27.68.68,0,0,1-.2.26l-.59.65c-.2.23-.39.48-.58.74s-.36.53-.53.81-.31.57-.44.86a2.65,2.65,0,0,1,.56-.23,2.78,2.78,0,0,1,.57-.07,3.51,3.51,0,0,1,1.17.2,2.69,2.69,0,0,1,1,.57,2.77,2.77,0,0,1,.68,1A3.56,3.56,0,0,1,186.86,64.79Zm-1.59,0a1.82,1.82,0,0,0-.44-1.29,1.61,1.61,0,0,0-1.22-.46,1.74,1.74,0,0,0-.47.05,2.2,2.2,0,0,0-.41.12,1.92,1.92,0,0,0-.35.18,2,2,0,0,0-.28.2c0,.09,0,.18,0,.29s0,.2,0,.29a3.82,3.82,0,0,0,.14,1.1,2.36,2.36,0,0,0,.35.73,1.34,1.34,0,0,0,1.09.54,1.55,1.55,0,0,0,1.22-.47A1.89,1.89,0,0,0,185.27,64.83Z"/>
      <path class="cls-3" d="M194.8,64.37a5.09,5.09,0,0,1-.2,1.43A3.32,3.32,0,0,1,194,67a2.79,2.79,0,0,1-1,.78,3.25,3.25,0,0,1-1.44.29,3.29,3.29,0,0,1-1.45-.29,3,3,0,0,1-1-.78,3.47,3.47,0,0,1-.61-1.16,5.09,5.09,0,0,1-.2-1.43V61.25a5,5,0,0,1,.2-1.42,3.52,3.52,0,0,1,.61-1.17,3.12,3.12,0,0,1,1-.79,3.44,3.44,0,0,1,1.45-.29,3.39,3.39,0,0,1,1.44.29,2.92,2.92,0,0,1,1,.79,3.37,3.37,0,0,1,.62,1.17,5,5,0,0,1,.2,1.42Zm-1.6-3.14a2.54,2.54,0,0,0-.44-1.62,1.67,1.67,0,0,0-2.51,0,2.61,2.61,0,0,0-.43,1.62V64.4a2.62,2.62,0,0,0,.43,1.62,1.69,1.69,0,0,0,2.51,0,2.56,2.56,0,0,0,.44-1.62Z"/>
      <path class="cls-3" d="M199.35,60a1.74,1.74,0,0,1-.12.67,1.59,1.59,0,0,1-.34.49,1.53,1.53,0,0,1-.51.3,1.74,1.74,0,0,1-.61.1,1.83,1.83,0,0,1-.62-.1,1.4,1.4,0,0,1-.84-.79,1.74,1.74,0,0,1-.12-.67v-.87a1.74,1.74,0,0,1,.12-.67,1.48,1.48,0,0,1,.34-.49,1.45,1.45,0,0,1,.5-.31,2.12,2.12,0,0,1,.62-.1,2,2,0,0,1,.61.1,1.4,1.4,0,0,1,.51.31,1.48,1.48,0,0,1,.34.49,1.74,1.74,0,0,1,.12.67Zm-1-.9a.67.67,0,0,0-.17-.5.63.63,0,0,0-.43-.16.64.64,0,0,0-.44.16.67.67,0,0,0-.16.5v.94a.66.66,0,0,0,.16.49.6.6,0,0,0,.44.16.59.59,0,0,0,.43-.16.66.66,0,0,0,.17-.49Zm-.18,8.62a.43.43,0,0,1-.25.26.45.45,0,0,1-.36,0,.39.39,0,0,1-.16-.1.76.76,0,0,1-.11-.14,1.16,1.16,0,0,1,0-.18.52.52,0,0,1,0-.18l3.5-9.52a.46.46,0,0,1,.26-.27.43.43,0,0,1,.37,0,.49.49,0,0,1,.26.25.5.5,0,0,1,0,.36Zm4.64-1.26a1.71,1.71,0,0,1-.12.67,1.59,1.59,0,0,1-.34.49,1.44,1.44,0,0,1-.51.29,1.94,1.94,0,0,1-1.23,0,1.32,1.32,0,0,1-.5-.29,1.46,1.46,0,0,1-.35-.49,1.71,1.71,0,0,1-.12-.67V65.6a1.78,1.78,0,0,1,.12-.67,1.57,1.57,0,0,1,.35-.49,1.48,1.48,0,0,1,.5-.3,1.94,1.94,0,0,1,1.23,0,1.63,1.63,0,0,1,.51.3,1.72,1.72,0,0,1,.34.49,1.78,1.78,0,0,1,.12.67Zm-1-.91a.66.66,0,0,0-.17-.49.61.61,0,0,0-.45-.16.57.57,0,0,0-.42.16.66.66,0,0,0-.17.49v.93a.69.69,0,0,0,.17.5.57.57,0,0,0,.42.17.64.64,0,0,0,.45-.17.69.69,0,0,0,.17-.5Z"/>
      <path class="cls-3" d="M182.21,152.07a.44.44,0,0,1-.12.32.38.38,0,0,1-.3.13h-.9v1.77a.44.44,0,0,1-.13.32.41.41,0,0,1-.32.13.46.46,0,0,1-.33-.13.44.44,0,0,1-.13-.32v-1.77H176.4a.45.45,0,0,1-.31-.12.46.46,0,0,1-.07-.55l3.21-7.28a.41.41,0,0,1,.24-.24.45.45,0,0,1,.36,0,.47.47,0,0,1,.24.26.4.4,0,0,1,0,.34l-3,6.71H180v-2.28a.41.41,0,0,1,.13-.32.46.46,0,0,1,.33-.13.44.44,0,0,1,.45.45v2.28h.9a.38.38,0,0,1,.3.13A.41.41,0,0,1,182.21,152.07Z"/>
      <path class="cls-3" d="M190.1,151a5.75,5.75,0,0,1-.17,1.39,3.31,3.31,0,0,1-.56,1.18,2.91,2.91,0,0,1-1,.82,3.26,3.26,0,0,1-1.45.3,3.2,3.2,0,0,1-1.45-.3,2.81,2.81,0,0,1-1-.82,3.31,3.31,0,0,1-.56-1.18,5.75,5.75,0,0,1-.17-1.39V148a5.67,5.67,0,0,1,.17-1.38,3.31,3.31,0,0,1,.56-1.18,2.62,2.62,0,0,1,1-.82,3.08,3.08,0,0,1,1.45-.31,3.13,3.13,0,0,1,1.45.31,2.69,2.69,0,0,1,1,.82,3.31,3.31,0,0,1,.56,1.18,5.67,5.67,0,0,1,.17,1.38Zm-.92-3a5.1,5.1,0,0,0-.13-1.14,2.53,2.53,0,0,0-.41-.91,2,2,0,0,0-.7-.6,2.23,2.23,0,0,0-1-.21,2.29,2.29,0,0,0-1,.21,2,2,0,0,0-.69.6,2.7,2.7,0,0,0-.4.91,4.57,4.57,0,0,0-.13,1.14v3a4.57,4.57,0,0,0,.13,1.14,2.65,2.65,0,0,0,.4.9,2,2,0,0,0,.69.6,2.29,2.29,0,0,0,1,.21,2.23,2.23,0,0,0,1-.21,2,2,0,0,0,.7-.6,2.48,2.48,0,0,0,.41-.9,5.1,5.1,0,0,0,.13-1.14Z"/>
      <path class="cls-3" d="M194.65,146.74a1.69,1.69,0,0,1-.11.64,1.33,1.33,0,0,1-.31.48,1.54,1.54,0,0,1-.47.31,1.66,1.66,0,0,1-1.19,0,1.54,1.54,0,0,1-.47-.31,1.33,1.33,0,0,1-.31-.48,1.69,1.69,0,0,1-.12-.64v-.92a1.62,1.62,0,0,1,.12-.64,1.42,1.42,0,0,1,.31-.48,1.25,1.25,0,0,1,.47-.31,1.46,1.46,0,0,1,.6-.11,1.44,1.44,0,0,1,.59.11,1.25,1.25,0,0,1,.47.31,1.42,1.42,0,0,1,.31.48,1.62,1.62,0,0,1,.11.64Zm-.67-1a.92.92,0,0,0-.22-.66.76.76,0,0,0-.59-.24.8.8,0,0,0-.6.24.93.93,0,0,0-.23.66v1a.92.92,0,0,0,.23.65.83.83,0,0,0,.6.23.79.79,0,0,0,.59-.23.92.92,0,0,0,.22-.65Zm-.74,8.74a.37.37,0,0,1-.18.19.36.36,0,0,1-.25,0,.32.32,0,0,1-.21-.43l3.58-9.81a.39.39,0,0,1,.18-.18.33.33,0,0,1,.26,0,.37.37,0,0,1,.19.18.31.31,0,0,1,0,.25Zm4.51-1.34a1.83,1.83,0,0,1-.11.64,1.49,1.49,0,0,1-.32.49,1.54,1.54,0,0,1-.47.31,1.64,1.64,0,0,1-.6.1,1.63,1.63,0,0,1-.59-.1,1.54,1.54,0,0,1-.47-.31,1.46,1.46,0,0,1-.31-.49,1.62,1.62,0,0,1-.12-.64v-.92a1.69,1.69,0,0,1,.12-.64,1.33,1.33,0,0,1,.31-.48,1.38,1.38,0,0,1,.47-.31,1.66,1.66,0,0,1,1.19,0,1.38,1.38,0,0,1,.47.31,1.35,1.35,0,0,1,.32.48,1.91,1.91,0,0,1,.11.64Zm-.66-1a.88.88,0,0,0-.23-.64.82.82,0,0,0-.61-.23.78.78,0,0,0-.58.23.88.88,0,0,0-.23.64v1a.91.91,0,0,0,.23.66.78.78,0,0,0,.58.23.84.84,0,0,0,.61-.23.91.91,0,0,0,.23-.66Z"/>
      <rect class="cls-6" x="0.01" width="49.62" height="52.09"/>
      <rect class="cls-7" x="0.01" y="52.09" width="49.62" height="133.61"/>
      <path class="cls-3" d="M18.94,200.45a.42.42,0,0,1-.13.32.42.42,0,0,1-.31.13H13.42a.42.42,0,0,1-.33-.13.44.44,0,0,1-.12-.32,3.07,3.07,0,0,1,.12-.88,3.67,3.67,0,0,1,.31-.76,3.84,3.84,0,0,1,.45-.66c.18-.2.36-.39.55-.57s.51-.44.78-.64l.82-.61c.26-.2.52-.4.76-.6a4.44,4.44,0,0,0,.65-.65,3.22,3.22,0,0,0,.44-.73,2.15,2.15,0,0,0,.16-.85,2.58,2.58,0,0,0-.12-.8,1.92,1.92,0,0,0-.36-.66,1.81,1.81,0,0,0-.63-.45,2.27,2.27,0,0,0-.91-.17,3.37,3.37,0,0,0-.82.09,3.12,3.12,0,0,0-.65.24,1.7,1.7,0,0,0-.33.2l-.22.17-.17.12a.34.34,0,0,1-.17,0,.43.43,0,0,1-.31-.14.43.43,0,0,1-.14-.32.53.53,0,0,1,0-.17.55.55,0,0,1,.11-.17,3.73,3.73,0,0,1,1.16-.68,4.37,4.37,0,0,1,1.52-.24,3.23,3.23,0,0,1,1.31.24,2.55,2.55,0,0,1,.91.65,2.75,2.75,0,0,1,.54.94,3.67,3.67,0,0,1,.17,1.1,3,3,0,0,1-.19,1.1,3.84,3.84,0,0,1-.52.9,5.3,5.3,0,0,1-.74.76c-.28.24-.56.46-.86.68l-.89.66a7.79,7.79,0,0,0-.8.69,4.2,4.2,0,0,0-.63.79A2.49,2.49,0,0,0,14,200H18.5a.45.45,0,0,1,.31.12A.42.42,0,0,1,18.94,200.45Z"/>
      <path class="cls-3" d="M27,197.33a5.3,5.3,0,0,1-.18,1.39,3.15,3.15,0,0,1-.56,1.18,2.71,2.71,0,0,1-1,.82,3.65,3.65,0,0,1-2.9,0,2.71,2.71,0,0,1-1-.82,3.29,3.29,0,0,1-.55-1.18,5.3,5.3,0,0,1-.18-1.39v-3.07a5.22,5.22,0,0,1,.18-1.38,3.29,3.29,0,0,1,.55-1.18,2.71,2.71,0,0,1,1-.82,3.55,3.55,0,0,1,2.9,0,2.71,2.71,0,0,1,1,.82,3.15,3.15,0,0,1,.56,1.18,5.22,5.22,0,0,1,.18,1.38Zm-.93-3a4.57,4.57,0,0,0-.13-1.14,2.6,2.6,0,0,0-.4-.91,2.13,2.13,0,0,0-.7-.6,2.28,2.28,0,0,0-1-.21,2.25,2.25,0,0,0-1,.21,2,2,0,0,0-.69.6,2.6,2.6,0,0,0-.4.91,4.57,4.57,0,0,0-.13,1.14v3a4.57,4.57,0,0,0,.13,1.14,2.47,2.47,0,0,0,.4.9,1.81,1.81,0,0,0,.69.6,2.25,2.25,0,0,0,1,.21,2.28,2.28,0,0,0,1-.21,1.92,1.92,0,0,0,.7-.6,2.47,2.47,0,0,0,.4-.9,4.57,4.57,0,0,0,.13-1.14Z"/>
      <path class="cls-3" d="M34.62,200.45a.42.42,0,0,1-.13.32.4.4,0,0,1-.31.13H29.11a.42.42,0,0,1-.34-.13.44.44,0,0,1-.12-.32,3.07,3.07,0,0,1,.12-.88,3.67,3.67,0,0,1,.31-.76,3.39,3.39,0,0,1,.46-.66,7.27,7.27,0,0,1,.54-.57,10,10,0,0,1,.79-.64l.81-.61c.27-.2.52-.4.76-.6a4.44,4.44,0,0,0,.65-.65,3.22,3.22,0,0,0,.44-.73,2.15,2.15,0,0,0,.16-.85,2.58,2.58,0,0,0-.12-.8,1.92,1.92,0,0,0-.36-.66,1.81,1.81,0,0,0-.63-.45,2.22,2.22,0,0,0-.9-.17,3.46,3.46,0,0,0-.83.09,2.84,2.84,0,0,0-.64.24,1.53,1.53,0,0,0-.34.2l-.22.17-.17.12a.34.34,0,0,1-.17,0,.46.46,0,0,1-.44-.46.51.51,0,0,1,0-.17.44.44,0,0,1,.12-.17,3.57,3.57,0,0,1,1.15-.68,4.39,4.39,0,0,1,1.53-.24,3.29,3.29,0,0,1,1.31.24,2.51,2.51,0,0,1,.9.65,2.75,2.75,0,0,1,.54.94,3.67,3.67,0,0,1,.17,1.1,3,3,0,0,1-.19,1.1,3.52,3.52,0,0,1-.52.9,4.82,4.82,0,0,1-.74.76c-.28.24-.56.46-.86.68l-.88.66a7,7,0,0,0-.81.69,4.65,4.65,0,0,0-.63.79,2.49,2.49,0,0,0-.36.94h4.55a.43.43,0,0,1,.31.12A.42.42,0,0,1,34.62,200.45Z"/>
      <path class="cls-3" d="M42.46,200.45a.42.42,0,0,1-.13.32.39.39,0,0,1-.3.13H37a.42.42,0,0,1-.34-.13.44.44,0,0,1-.12-.32,3.07,3.07,0,0,1,.12-.88,3.67,3.67,0,0,1,.31-.76,3.39,3.39,0,0,1,.46-.66,7.27,7.27,0,0,1,.54-.57,10,10,0,0,1,.79-.64l.81-.61c.27-.2.52-.4.77-.6a4.9,4.9,0,0,0,.64-.65,3.22,3.22,0,0,0,.44-.73,2.15,2.15,0,0,0,.16-.85,2.58,2.58,0,0,0-.12-.8,1.92,1.92,0,0,0-.36-.66,1.72,1.72,0,0,0-.63-.45,2.22,2.22,0,0,0-.9-.17,3.46,3.46,0,0,0-.83.09,2.84,2.84,0,0,0-.64.24,1.53,1.53,0,0,0-.34.2l-.22.17-.17.12a.31.31,0,0,1-.17,0,.46.46,0,0,1-.44-.46.51.51,0,0,1,0-.17.44.44,0,0,1,.12-.17,3.57,3.57,0,0,1,1.15-.68,4.39,4.39,0,0,1,1.53-.24,3.29,3.29,0,0,1,1.31.24,2.65,2.65,0,0,1,.91.65,2.9,2.9,0,0,1,.53.94,3.67,3.67,0,0,1,.17,1.1,3,3,0,0,1-.19,1.1,3.52,3.52,0,0,1-.52.9,4.82,4.82,0,0,1-.74.76c-.27.24-.56.46-.86.68l-.88.66a7,7,0,0,0-.81.69,5.2,5.2,0,0,0-.63.79,2.49,2.49,0,0,0-.36.94H42a.42.42,0,0,1,.3.12A.42.42,0,0,1,42.46,200.45Z"/>
      <path class="cls-3" d="M22.33,28.22a2.88,2.88,0,0,1-.21,1.08,2.76,2.76,0,0,1-.62.93,3.07,3.07,0,0,1-1.05.65,3.81,3.81,0,0,1-1.46.25,4.9,4.9,0,0,1-1.48-.2,2.56,2.56,0,0,1-1.07-.65,1.14,1.14,0,0,1-.21-.28.71.71,0,0,1-.08-.31.68.68,0,0,1,.68-.69.56.56,0,0,1,.31.11c.11.08.26.17.44.28a2.43,2.43,0,0,0,.62.28,3.11,3.11,0,0,0,.72.08,2,2,0,0,0,.77-.13,1.49,1.49,0,0,0,.91-.9,1.87,1.87,0,0,0,.12-.68,1.67,1.67,0,0,0-.15-.75,1.3,1.3,0,0,0-.41-.49,1.63,1.63,0,0,0-.6-.26,4.16,4.16,0,0,0-.73-.09,1.42,1.42,0,0,1-.29,0,.77.77,0,0,1-.25-.1.44.44,0,0,1-.18-.2.67.67,0,0,1-.08-.35.64.64,0,0,1,.08-.33.6.6,0,0,1,.21-.21.85.85,0,0,1,.26-.11l.28,0A2.35,2.35,0,0,0,19.5,25a2,2,0,0,0,.6-.24,1.51,1.51,0,0,0,.43-.44,1.31,1.31,0,0,0,.16-.69,1.77,1.77,0,0,0-.08-.56,1.26,1.26,0,0,0-.26-.5,1.39,1.39,0,0,0-.49-.36,1.82,1.82,0,0,0-.74-.13,2.73,2.73,0,0,0-.72.09,2.91,2.91,0,0,0-.59.26l-.23.15-.19.14a1.51,1.51,0,0,1-.18.09.4.4,0,0,1-.2,0,.69.69,0,0,1-.24-.05.5.5,0,0,1-.19-.13.46.46,0,0,1-.14-.21.73.73,0,0,1-.06-.3.72.72,0,0,1,.09-.34,1.12,1.12,0,0,1,.29-.35,3.46,3.46,0,0,1,.4-.29,2.7,2.7,0,0,1,.54-.26,3.38,3.38,0,0,1,.68-.18,4,4,0,0,1,.8-.07,3.73,3.73,0,0,1,1,.12,2.77,2.77,0,0,1,.76.33,2.19,2.19,0,0,1,.56.48,2.53,2.53,0,0,1,.37.57,2.46,2.46,0,0,1,.21.63,3.26,3.26,0,0,1,.07.61,2.39,2.39,0,0,1-.41,1.44,2.5,2.5,0,0,1-1.17.86,2.86,2.86,0,0,1,.73.33,2.27,2.27,0,0,1,.56.51,2.24,2.24,0,0,1,.35.71A3.07,3.07,0,0,1,22.33,28.22Z"/>
      <path class="cls-3" d="M30.57,27.47a4.69,4.69,0,0,1-.21,1.42,3.32,3.32,0,0,1-.62,1.16,2.86,2.86,0,0,1-1,.79,3.77,3.77,0,0,1-2.9,0,2.86,2.86,0,0,1-1-.79,3.32,3.32,0,0,1-.62-1.16,5,5,0,0,1-.2-1.42V24.34a5.08,5.08,0,0,1,.2-1.42,3.32,3.32,0,0,1,.62-1.16,2.75,2.75,0,0,1,1-.79,3.77,3.77,0,0,1,2.9,0,2.75,2.75,0,0,1,1,.79,3.32,3.32,0,0,1,.62,1.16,4.74,4.74,0,0,1,.21,1.42ZM29,24.33a2.57,2.57,0,0,0-.45-1.63,1.66,1.66,0,0,0-2.5,0,2.64,2.64,0,0,0-.44,1.63v3.16A2.58,2.58,0,0,0,26,29.11a1.68,1.68,0,0,0,2.5,0A2.52,2.52,0,0,0,29,27.49Z"/>
      <path class="cls-3" d="M35.11,23.11a1.71,1.71,0,0,1-.12.67,1.34,1.34,0,0,1-.34.49,1.22,1.22,0,0,1-.5.3,1.8,1.8,0,0,1-.62.11,1.74,1.74,0,0,1-.61-.11,1.34,1.34,0,0,1-.84-.79,1.54,1.54,0,0,1-.13-.67v-.87a1.6,1.6,0,0,1,.13-.67,1.41,1.41,0,0,1,.33-.49,1.63,1.63,0,0,1,.51-.3,1.74,1.74,0,0,1,.61-.1,1.79,1.79,0,0,1,.62.1,1.48,1.48,0,0,1,.5.3,1.44,1.44,0,0,1,.34.49,1.78,1.78,0,0,1,.12.67Zm-1-.89a.62.62,0,0,0-.17-.5.57.57,0,0,0-.43-.16.6.6,0,0,0-.44.16.7.7,0,0,0-.16.5v.93a.69.69,0,0,0,.16.49.6.6,0,0,0,.44.17.58.58,0,0,0,.43-.17.61.61,0,0,0,.17-.49ZM34,30.84a.47.47,0,0,1-.24.26.45.45,0,0,1-.36,0,.46.46,0,0,1-.17-.09.4.4,0,0,1-.1-.15.33.33,0,0,1,0-.17.31.31,0,0,1,0-.19L36.57,21a.49.49,0,0,1,.25-.28.5.5,0,0,1,.63.24.52.52,0,0,1,0,.37Zm4.65-1.26a1.57,1.57,0,0,1-.13.67,1.39,1.39,0,0,1-.34.48,1.3,1.3,0,0,1-.51.3,1.79,1.79,0,0,1-.62.1,1.72,1.72,0,0,1-.6-.1,1.38,1.38,0,0,1-.51-.3,1.27,1.27,0,0,1-.34-.48,1.57,1.57,0,0,1-.13-.67V28.7a1.57,1.57,0,0,1,.13-.67,1.31,1.31,0,0,1,.34-.49,1.4,1.4,0,0,1,.51-.31,1.72,1.72,0,0,1,.6-.1,1.79,1.79,0,0,1,.62.1,1.32,1.32,0,0,1,.51.31,1.44,1.44,0,0,1,.34.49,1.57,1.57,0,0,1,.13.67Zm-1-.91a.66.66,0,0,0-.16-.49A.62.62,0,0,0,37,28a.57.57,0,0,0-.42.17.66.66,0,0,0-.16.49v.92a.69.69,0,0,0,.16.51.6.6,0,0,0,.42.16.61.61,0,0,0,.45-.16.7.7,0,0,0,.17-.51Z"/>
      <path class="cls-3" d="M17.87,113a1.17,1.17,0,0,1-.05.3l-3.65,9.31a.41.41,0,0,1-.23.25.39.39,0,0,1-.35,0,.46.46,0,0,1-.27-.6l3.49-8.83H12.19a.42.42,0,0,1-.31-.13.46.46,0,0,1-.13-.31.43.43,0,0,1,.13-.3.42.42,0,0,1,.31-.13h5.25a.4.4,0,0,1,.31.13A.42.42,0,0,1,17.87,113Z"/>
      <path class="cls-3" d="M25.86,119.18a5.3,5.3,0,0,1-.17,1.39,3.31,3.31,0,0,1-.56,1.18,2.71,2.71,0,0,1-1,.82,3.65,3.65,0,0,1-2.9,0,2.71,2.71,0,0,1-1-.82,3.29,3.29,0,0,1-.55-1.18,5.3,5.3,0,0,1-.18-1.39v-3.07a5.22,5.22,0,0,1,.18-1.38,3.29,3.29,0,0,1,.55-1.18,2.71,2.71,0,0,1,1-.82,3.55,3.55,0,0,1,2.9,0,2.71,2.71,0,0,1,1,.82,3.31,3.31,0,0,1,.56,1.18,5.22,5.22,0,0,1,.17,1.38Zm-.92-3a4.57,4.57,0,0,0-.13-1.14,2.61,2.61,0,0,0-.41-.91,2,2,0,0,0-.7-.6,2.2,2.2,0,0,0-1-.21,2.25,2.25,0,0,0-1,.21,2,2,0,0,0-.7.6,2.8,2.8,0,0,0-.4.91,5.1,5.1,0,0,0-.13,1.14v3a5.1,5.1,0,0,0,.13,1.14,2.65,2.65,0,0,0,.4.9,1.77,1.77,0,0,0,.7.6,2.25,2.25,0,0,0,1,.21,2.2,2.2,0,0,0,1-.21,1.77,1.77,0,0,0,.7-.6,2.48,2.48,0,0,0,.41-.9,4.57,4.57,0,0,0,.13-1.14Z"/>
      <path class="cls-3" d="M30.42,114.88a1.66,1.66,0,0,1-.12.64A1.21,1.21,0,0,1,30,116a1.38,1.38,0,0,1-.47.31,1.59,1.59,0,0,1-.59.11,1.64,1.64,0,0,1-.6-.11,1.38,1.38,0,0,1-.47-.31,1.33,1.33,0,0,1-.31-.48,1.66,1.66,0,0,1-.11-.64V114a1.57,1.57,0,0,1,.11-.63,1.36,1.36,0,0,1,.78-.8,1.64,1.64,0,0,1,.6-.11,1.59,1.59,0,0,1,.59.11,1.38,1.38,0,0,1,.47.31,1.25,1.25,0,0,1,.31.49,1.57,1.57,0,0,1,.12.63Zm-.67-.95a.93.93,0,0,0-.23-.66.74.74,0,0,0-.59-.23.77.77,0,0,0-.59.23.89.89,0,0,0-.23.66v1a.86.86,0,0,0,.23.65.77.77,0,0,0,.59.23.74.74,0,0,0,.59-.23.9.9,0,0,0,.23-.65ZM29,122.67a.34.34,0,0,1-.18.19.36.36,0,0,1-.25,0,.27.27,0,0,1-.19-.17.33.33,0,0,1,0-.26l3.58-9.8a.37.37,0,0,1,.18-.19.34.34,0,0,1,.26,0,.37.37,0,0,1,.19.18.28.28,0,0,1,0,.25Zm4.51-1.34a1.62,1.62,0,0,1-.11.64,1.46,1.46,0,0,1-.31.49,1.52,1.52,0,0,1-.48.31,1.64,1.64,0,0,1-.6.1,1.57,1.57,0,0,1-.58-.1,1.42,1.42,0,0,1-.48-.31,1.46,1.46,0,0,1-.31-.49,1.62,1.62,0,0,1-.11-.64v-.92a1.61,1.61,0,0,1,.11-.63,1.29,1.29,0,0,1,.31-.49,1.51,1.51,0,0,1,1.06-.42,1.64,1.64,0,0,1,.6.11,1.72,1.72,0,0,1,.48.31,1.29,1.29,0,0,1,.31.49,1.61,1.61,0,0,1,.11.63Zm-.66-1a.84.84,0,0,0-.23-.64.82.82,0,0,0-.61-.23.78.78,0,0,0-.58.23.88.88,0,0,0-.23.64v1a.89.89,0,0,0,.23.65.78.78,0,0,0,.58.23.84.84,0,0,0,.61-.23.89.89,0,0,0,.23-.65Z"/>
      <rect class="cls-8" x="246.36" width="49.62" height="147.08"/>
      <rect class="cls-9" x="246.36" y="147.08" width="49.62" height="38.61"/>
      <path class="cls-3" d="M265.3,200.45a.46.46,0,0,1-.13.32.42.42,0,0,1-.31.13h-5.08a.42.42,0,0,1-.33-.13.44.44,0,0,1-.12-.32,3.48,3.48,0,0,1,.11-.88,3.69,3.69,0,0,1,.32-.76,3.34,3.34,0,0,1,.45-.66,7.4,7.4,0,0,1,.55-.57,8.32,8.32,0,0,1,.78-.64c.28-.2.55-.41.81-.61s.52-.4.77-.6a4.36,4.36,0,0,0,.64-.65,2.9,2.9,0,0,0,.44-.73,2.15,2.15,0,0,0,.17-.85,2.58,2.58,0,0,0-.12-.8,1.94,1.94,0,0,0-.37-.66,1.68,1.68,0,0,0-.62-.45,2.31,2.31,0,0,0-.91-.17,3.32,3.32,0,0,0-.82.09,2.92,2.92,0,0,0-.65.24,1.53,1.53,0,0,0-.34.2l-.22.17a.88.88,0,0,1-.17.12.31.31,0,0,1-.17,0,.44.44,0,0,1-.31-.14.42.42,0,0,1-.13-.32.51.51,0,0,1,0-.17.88.88,0,0,1,.12-.17,3.68,3.68,0,0,1,1.15-.68,4.47,4.47,0,0,1,1.53-.24,3.26,3.26,0,0,1,1.31.24,2.53,2.53,0,0,1,1.44,1.59,3.38,3.38,0,0,1,.18,1.1,3,3,0,0,1-.2,1.1,3.52,3.52,0,0,1-.52.9,5.23,5.23,0,0,1-.73.76c-.28.24-.57.46-.86.68l-.89.66a9.17,9.17,0,0,0-.81.69,5.2,5.2,0,0,0-.63.79,2.32,2.32,0,0,0-.35.94h4.55a.45.45,0,0,1,.31.12A.46.46,0,0,1,265.3,200.45Z"/>
      <path class="cls-3" d="M273.34,197.33a5.75,5.75,0,0,1-.17,1.39,3.31,3.31,0,0,1-.56,1.18,2.8,2.8,0,0,1-1,.82,3.26,3.26,0,0,1-1.45.3,3.2,3.2,0,0,1-1.45-.3,2.71,2.71,0,0,1-1-.82,3.31,3.31,0,0,1-.56-1.18,5.75,5.75,0,0,1-.17-1.39v-3.07a5.67,5.67,0,0,1,.17-1.38,3.31,3.31,0,0,1,.56-1.18,2.71,2.71,0,0,1,1-.82,3.08,3.08,0,0,1,1.45-.31,3.13,3.13,0,0,1,1.45.31,2.8,2.8,0,0,1,1,.82,3.31,3.31,0,0,1,.56,1.18,5.67,5.67,0,0,1,.17,1.38Zm-.92-3a4.57,4.57,0,0,0-.13-1.14,2.61,2.61,0,0,0-.41-.91,2,2,0,0,0-.7-.6,2.23,2.23,0,0,0-1-.21,2.29,2.29,0,0,0-1,.21,2,2,0,0,0-.69.6,2.8,2.8,0,0,0-.4.91,4.57,4.57,0,0,0-.13,1.14v3a4.57,4.57,0,0,0,.13,1.14,2.65,2.65,0,0,0,.4.9,1.81,1.81,0,0,0,.69.6,2.29,2.29,0,0,0,1,.21,2.23,2.23,0,0,0,1-.21,1.84,1.84,0,0,0,.7-.6,2.48,2.48,0,0,0,.41-.9,4.57,4.57,0,0,0,.13-1.14Z"/>
      <path class="cls-3" d="M281,200.45a.46.46,0,0,1-.13.32.42.42,0,0,1-.31.13h-5.08a.42.42,0,0,1-.33-.13.44.44,0,0,1-.12-.32,3.07,3.07,0,0,1,.12-.88,3.19,3.19,0,0,1,.31-.76,3.84,3.84,0,0,1,.45-.66,7.4,7.4,0,0,1,.55-.57,9.84,9.84,0,0,1,.78-.64c.28-.2.55-.41.81-.61s.53-.4.77-.6a4.36,4.36,0,0,0,.64-.65,2.9,2.9,0,0,0,.44-.73,2.15,2.15,0,0,0,.17-.85,2.58,2.58,0,0,0-.12-.8,1.79,1.79,0,0,0-.37-.66,1.68,1.68,0,0,0-.62-.45,2.31,2.31,0,0,0-.91-.17,3.37,3.37,0,0,0-.82.09,2.92,2.92,0,0,0-.65.24,1.25,1.25,0,0,0-.33.2l-.23.17-.16.12a.34.34,0,0,1-.17,0,.45.45,0,0,1-.32-.14.46.46,0,0,1-.13-.32.35.35,0,0,1,0-.17.55.55,0,0,1,.11-.17,3.68,3.68,0,0,1,1.15-.68,4.47,4.47,0,0,1,1.53-.24,3.26,3.26,0,0,1,1.31.24,2.53,2.53,0,0,1,1.44,1.59,3.38,3.38,0,0,1,.18,1.1,3,3,0,0,1-.2,1.1,3.8,3.8,0,0,1-.51.9,5.3,5.3,0,0,1-.74.76c-.28.24-.57.46-.86.68l-.89.66a9.17,9.17,0,0,0-.81.69,5.2,5.2,0,0,0-.63.79,2.47,2.47,0,0,0-.35.94h4.55a.45.45,0,0,1,.31.12A.46.46,0,0,1,281,200.45Z"/>
      <path class="cls-3" d="M288.74,197.85a3.86,3.86,0,0,1-.18,1.17,2.84,2.84,0,0,1-1.58,1.73,3.59,3.59,0,0,1-1.46.27,4.83,4.83,0,0,1-1.15-.13,2.87,2.87,0,0,1-1.05-.52.47.47,0,0,1-.22-.38.48.48,0,0,1,.13-.32.41.41,0,0,1,.32-.14.27.27,0,0,1,.13,0,.35.35,0,0,1,.13.08,2.44,2.44,0,0,0,.78.41,3,3,0,0,0,.93.13,2.58,2.58,0,0,0,1.06-.19,1.88,1.88,0,0,0,.71-.51,2,2,0,0,0,.4-.74,2.84,2.84,0,0,0,.13-.88,2.36,2.36,0,0,0-.55-1.73,2,2,0,0,0-1.52-.57,2.13,2.13,0,0,0-.65.09,1.76,1.76,0,0,0-.51.26,2.28,2.28,0,0,0-.27.23l-.19.19-.16.12a.39.39,0,0,1-.2.05.4.4,0,0,1-.31-.13.38.38,0,0,1-.12-.33l.15-4.91a.48.48,0,0,1,.47-.43h3.78a.46.46,0,0,1,.32.13.42.42,0,0,1,.12.3.45.45,0,0,1-.12.31.42.42,0,0,1-.32.13h-3.38l-.11,3.66a2.11,2.11,0,0,1,.72-.39,2.66,2.66,0,0,1,.82-.12,3.43,3.43,0,0,1,1.24.21,2.39,2.39,0,0,1,.93.61,2.66,2.66,0,0,1,.58,1A4,4,0,0,1,288.74,197.85Z"/>
      <path class="cls-3" d="M269.18,79.81a2.72,2.72,0,0,1-.23,1.11,2.69,2.69,0,0,1-.66.9,3.1,3.1,0,0,1-1.06.59,4.25,4.25,0,0,1-1.43.22,4.84,4.84,0,0,1-1.43-.2,3.11,3.11,0,0,1-1.07-.56,2.55,2.55,0,0,1-.67-.89,2.81,2.81,0,0,1-.23-1.15,2.52,2.52,0,0,1,.14-.85,2.15,2.15,0,0,1,.4-.69,3.39,3.39,0,0,1,.61-.58,5.77,5.77,0,0,1,.78-.48,5.72,5.72,0,0,1-.57-.39,3.21,3.21,0,0,1-.46-.51,2.53,2.53,0,0,1-.31-.64,2.64,2.64,0,0,1-.12-.83,3,3,0,0,1,.22-1.15,2.33,2.33,0,0,1,.61-.83,2.51,2.51,0,0,1,.92-.51,3.8,3.8,0,0,1,2.31,0,2.71,2.71,0,0,1,.91.52,2.42,2.42,0,0,1,.59.82,2.67,2.67,0,0,1,.21,1.08,2.27,2.27,0,0,1-.33,1.21,3.24,3.24,0,0,1-1.11,1,8,8,0,0,1,.76.45,2.85,2.85,0,0,1,.63.57,2.68,2.68,0,0,1,.43.76A3.14,3.14,0,0,1,269.18,79.81Zm-1.6-.12a1.3,1.3,0,0,0-.15-.65,1.58,1.58,0,0,0-.42-.48,2.58,2.58,0,0,0-.61-.36c-.23-.11-.48-.21-.74-.32a6.19,6.19,0,0,0-.63.32,2.66,2.66,0,0,0-.53.38,1.55,1.55,0,0,0-.37.48,1.25,1.25,0,0,0-.14.59,1.57,1.57,0,0,0,.14.67,1.3,1.3,0,0,0,.37.49,1.45,1.45,0,0,0,.56.31,2.24,2.24,0,0,0,.7.1,2.47,2.47,0,0,0,.75-.11,1.76,1.76,0,0,0,.57-.32,1.24,1.24,0,0,0,.37-.48A1.38,1.38,0,0,0,267.58,79.69ZM267.13,75a1.57,1.57,0,0,0-.1-.6,1.11,1.11,0,0,0-.28-.44,1.24,1.24,0,0,0-.43-.26,1.53,1.53,0,0,0-.54-.09,1.61,1.61,0,0,0-.54.09,1.28,1.28,0,0,0-.44.26,1.3,1.3,0,0,0-.29.43,1.5,1.5,0,0,0-.11.58,1.2,1.2,0,0,0,.12.55,1.3,1.3,0,0,0,.32.42,2.39,2.39,0,0,0,.47.31c.19.09.38.18.59.26a4.53,4.53,0,0,0,.49-.29,2.16,2.16,0,0,0,.39-.34,1.45,1.45,0,0,0,.26-.4A1.21,1.21,0,0,0,267.13,75Z"/>
      <path class="cls-3" d="M276.92,79a5,5,0,0,1-.2,1.43,3.49,3.49,0,0,1-.62,1.16,3,3,0,0,1-1,.79,3.75,3.75,0,0,1-2.89,0,3,3,0,0,1-1-.79,3.3,3.3,0,0,1-.61-1.16,4.71,4.71,0,0,1-.2-1.43V75.84a4.73,4.73,0,0,1,.2-1.42,3.3,3.3,0,0,1,.61-1.16,2.79,2.79,0,0,1,1-.79,3.75,3.75,0,0,1,2.89,0,2.79,2.79,0,0,1,1,.79,3.49,3.49,0,0,1,.62,1.16,5.08,5.08,0,0,1,.2,1.42Zm-1.6-3.13a2.64,2.64,0,0,0-.44-1.63,1.67,1.67,0,0,0-2.51,0,2.64,2.64,0,0,0-.43,1.63V79a2.59,2.59,0,0,0,.43,1.62,1.69,1.69,0,0,0,2.51,0,2.58,2.58,0,0,0,.44-1.62Z"/>
      <path class="cls-3" d="M281.47,74.61a1.54,1.54,0,0,1-.13.67,1.32,1.32,0,0,1-.33.49,1.63,1.63,0,0,1-.51.3,1.74,1.74,0,0,1-.61.11,1.8,1.8,0,0,1-.62-.11,1.48,1.48,0,0,1-.5-.3,1.34,1.34,0,0,1-.34-.49,1.71,1.71,0,0,1-.12-.67v-.87a1.78,1.78,0,0,1,.12-.67,1.44,1.44,0,0,1,.34-.49,1.48,1.48,0,0,1,.5-.3,1.79,1.79,0,0,1,.62-.1,1.74,1.74,0,0,1,.61.1,1.63,1.63,0,0,1,.51.3,1.41,1.41,0,0,1,.33.49,1.6,1.6,0,0,1,.13.67Zm-1-.9a.65.65,0,0,0-.17-.49.6.6,0,0,0-.43-.16.6.6,0,0,0-.44.16.64.64,0,0,0-.16.49v.94a.66.66,0,0,0,.16.49.6.6,0,0,0,.44.17.61.61,0,0,0,.43-.17.66.66,0,0,0,.17-.49Zm-.19,8.62a.46.46,0,0,1-.6.27.44.44,0,0,1-.27-.24.48.48,0,0,1,0-.18.57.57,0,0,1,0-.18l3.5-9.52a.53.53,0,0,1,.26-.27.45.45,0,0,1,.36,0,.49.49,0,0,1,.26.25.44.44,0,0,1,0,.37ZM285,81.08a1.74,1.74,0,0,1-.12.67,1.42,1.42,0,0,1-.35.48,1.48,1.48,0,0,1-.5.3,1.83,1.83,0,0,1-.62.1,1.77,1.77,0,0,1-.61-.1,1.48,1.48,0,0,1-.5-.3,1.42,1.42,0,0,1-.35-.48,1.74,1.74,0,0,1-.13-.67V80.2a1.7,1.7,0,0,1,.13-.67,1.51,1.51,0,0,1,.85-.8,1.77,1.77,0,0,1,.61-.1,1.83,1.83,0,0,1,.62.1,1.51,1.51,0,0,1,.85.8,1.71,1.71,0,0,1,.12.67Zm-1-.91a.66.66,0,0,0-.17-.49.61.61,0,0,0-.45-.17.57.57,0,0,0-.42.17.66.66,0,0,0-.17.49v.92a.7.7,0,0,0,.17.51.57.57,0,0,0,.42.16.6.6,0,0,0,.44-.16.66.66,0,0,0,.18-.51Z"/>
      <path class="cls-3" d="M269.24,170.08a.41.41,0,0,1-.13.32.42.42,0,0,1-.31.13h-5.08a.45.45,0,0,1-.33-.12.48.48,0,0,1-.12-.33,3.12,3.12,0,0,1,.12-.88,3.91,3.91,0,0,1,.31-.76,3.84,3.84,0,0,1,.45-.66,7.3,7.3,0,0,1,.55-.56,9.59,9.59,0,0,1,.78-.65l.82-.6.76-.61a4.3,4.3,0,0,0,.64-.64,3,3,0,0,0,.45-.74,2.34,2.34,0,0,0,.16-.85,2.63,2.63,0,0,0-.12-.8,1.79,1.79,0,0,0-.37-.66,1.68,1.68,0,0,0-.62-.45,2.28,2.28,0,0,0-.91-.16,4,4,0,0,0-.82.08,2.92,2.92,0,0,0-.65.24,2.84,2.84,0,0,0-.33.2l-.22.18-.17.12a.33.33,0,0,1-.17,0,.42.42,0,0,1-.31-.13.45.45,0,0,1-.14-.33.38.38,0,0,1,0-.17.51.51,0,0,1,.11-.16,3.57,3.57,0,0,1,1.16-.69,4.37,4.37,0,0,1,1.52-.24,3.22,3.22,0,0,1,1.31.25,2.55,2.55,0,0,1,1.44,1.58,3.43,3.43,0,0,1,.18,1.1,3,3,0,0,1-.2,1.1,3.61,3.61,0,0,1-.51.9,4.83,4.83,0,0,1-.74.76c-.28.24-.57.47-.86.69l-.89.65a6.8,6.8,0,0,0-.8.7,4.28,4.28,0,0,0-.64.78,2.65,2.65,0,0,0-.35.94h4.55a.42.42,0,0,1,.31.13A.38.38,0,0,1,269.24,170.08Z"/>
      <path class="cls-3" d="M277.28,167a5.37,5.37,0,0,1-.17,1.4,3.48,3.48,0,0,1-.56,1.18,2.69,2.69,0,0,1-1,.81,3.55,3.55,0,0,1-2.9,0,2.69,2.69,0,0,1-1-.81,3.46,3.46,0,0,1-.55-1.18A5.37,5.37,0,0,1,271,167V163.9a5.35,5.35,0,0,1,.18-1.39,3.37,3.37,0,0,1,.55-1.18,2.81,2.81,0,0,1,1-.82,3.55,3.55,0,0,1,2.9,0,2.81,2.81,0,0,1,1,.82,3.39,3.39,0,0,1,.56,1.18,5.35,5.35,0,0,1,.17,1.39Zm-.92-3a4.71,4.71,0,0,0-.13-1.15,2.47,2.47,0,0,0-.4-.9,1.87,1.87,0,0,0-.71-.6,2.08,2.08,0,0,0-1-.22,2.12,2.12,0,0,0-1,.22,1.84,1.84,0,0,0-.7.6,2.65,2.65,0,0,0-.4.9,5.26,5.26,0,0,0-.13,1.15v3a5.1,5.1,0,0,0,.13,1.14,2.84,2.84,0,0,0,.4.9,1.91,1.91,0,0,0,.7.59,2.12,2.12,0,0,0,1,.22,2.08,2.08,0,0,0,1-.22,1.94,1.94,0,0,0,.71-.59,2.63,2.63,0,0,0,.4-.9,4.57,4.57,0,0,0,.13-1.14Z"/>
      <path class="cls-3" d="M281.84,162.66a1.62,1.62,0,0,1-.12.64,1.33,1.33,0,0,1-.77.79,1.46,1.46,0,0,1-.6.11,1.49,1.49,0,0,1-.6-.11,1.35,1.35,0,0,1-.47-.3,1.57,1.57,0,0,1-.42-1.13v-.92a1.61,1.61,0,0,1,.11-.63,1.47,1.47,0,0,1,.31-.48,1.4,1.4,0,0,1,.47-.32,1.68,1.68,0,0,1,.6-.11,1.64,1.64,0,0,1,.6.11,1.36,1.36,0,0,1,.46.32,1.21,1.21,0,0,1,.31.48,1.61,1.61,0,0,1,.12.63Zm-.67-.95a1,1,0,0,0-.22-.66.88.88,0,0,0-1.19,0,.89.89,0,0,0-.23.66v1a.84.84,0,0,0,.23.64.86.86,0,0,0,1.19,0,.92.92,0,0,0,.22-.64Zm-.75,8.74a.29.29,0,0,1-.18.19.28.28,0,0,1-.25,0,.27.27,0,0,1-.19-.17.33.33,0,0,1,0-.26l3.58-9.8a.47.47,0,0,1,.18-.19.3.3,0,0,1,.26,0,.29.29,0,0,1,.19.18.28.28,0,0,1,0,.25Zm4.51-1.33a1.62,1.62,0,0,1-.11.64,1.33,1.33,0,0,1-.31.48,1.37,1.37,0,0,1-.48.31,1.64,1.64,0,0,1-.6.11,1.58,1.58,0,0,1-.58-.11,1.37,1.37,0,0,1-.48-.31,1.33,1.33,0,0,1-.31-.48,1.62,1.62,0,0,1-.11-.64v-.92a1.62,1.62,0,0,1,.11-.64,1.46,1.46,0,0,1,.31-.49,1.5,1.5,0,0,1,.48-.3,1.4,1.4,0,0,1,.58-.11,1.46,1.46,0,0,1,.6.11,1.5,1.5,0,0,1,.48.3,1.46,1.46,0,0,1,.31.49,1.62,1.62,0,0,1,.11.64Zm-.66-1a.85.85,0,0,0-.22-.63.81.81,0,0,0-.62-.23.75.75,0,0,0-.58.23.85.85,0,0,0-.23.63v1a.89.89,0,0,0,.23.65.78.78,0,0,0,.58.23.82.82,0,0,0,.61-.23.85.85,0,0,0,.23-.65Z"/>
      <rect class="cls-10" x="52.86" y="215.12" width="10.14" height="10.14"/>
      <path class="cls-3" d="M71.62,213.66h.69v12.62h-.69v-3.53h-4.3v-.66h4.3V219.6H67.88V219h3.74v-2.42h-4v-.66h4Zm8.13,9.13H75.36v3.49h-.68V213.66h.68v2.22h4.15v.66H75.36V219h3.87v.64H75.36v2.54h4.39Z"/>
      <path class="cls-3" d="M93.62,215.28H91.86v9.86c0,.61-.17.87-.62,1a15.61,15.61,0,0,1-2.79.12,3.78,3.78,0,0,0-.29-.74c1.2,0,2.3,0,2.63,0s.38-.12.38-.41v-9.85H81.28v-.66H93.62Zm-10.15,7.44v1.14h-.66v-6.24H88.4v5.1Zm0-4.44v3.78h4.26v-3.78Z"/>
      <path class="cls-3" d="M107.8,222.79h-1.73v2.52c0,.52-.14.74-.52.87a11.32,11.32,0,0,1-2.35.13,3.91,3.91,0,0,0-.28-.68c1,0,1.9,0,2.15,0s.34-.08.34-.32v-2.52h-8v3.53h-.66v-3.53H95.09v-.63h1.69v-5.38h4.27v-1.64H95.56v-.64h11.77v.64h-5.62v1.64h4.36v5.38h1.73Zm-10.36-5.38v2h3.61v-2Zm0,4.75h3.61v-2.1H97.44Zm4.27-4.75v2h3.7v-2Zm3.7,4.75v-2.1h-3.7v2.1Z"/>
      <path class="cls-3" d="M121.64,225.14v.66H109.27v-.66h5.84v-4h-4.39v-.66h4.39v-3.43h-3.54a11.6,11.6,0,0,1-1.57,2.45c-.13-.1-.44-.29-.61-.39a13,13,0,0,0,2.64-5.25l.68.14a21.46,21.46,0,0,1-.85,2.41h3.25v-2.83h.69v2.83H121v.64H115.8v3.43h4.72v.66H115.8v4Z"/>
      <path class="cls-3" d="M127.4,214.41a12.94,12.94,0,0,1,1.91,3l-.55.27c-.1-.23-.23-.48-.37-.76a32.49,32.49,0,0,0-4.8.43,4,4,0,0,0-.22-.67c.19,0,.39-.24.61-.56a12.3,12.3,0,0,0,1.59-2.59l.67.25a17.92,17.92,0,0,1-1.87,2.82l3.72-.21a17.81,17.81,0,0,0-1.22-1.77Zm1.33,10.94c0,.45-.1.65-.41.77a6.67,6.67,0,0,1-1.83.13,2.51,2.51,0,0,0-.24-.66,15.39,15.39,0,0,0,1.58,0c.2,0,.24,0,.24-.22v-2.06h-3.49v2.95h-.64v-7.74h4.79Zm-4.15-6.23v1.49h3.49v-1.49Zm3.49,3.61v-1.55h-3.49v1.55Zm3.59-3.1c-1.15,0-1.49-.23-1.49-1.14v-4.9h.66v2.55a29.56,29.56,0,0,0,3.69-1.4l.47.5a32.86,32.86,0,0,1-4.16,1.46v1.78c0,.42.14.51.84.51h2.62c.59,0,.7-.25.76-1.7a2.2,2.2,0,0,0,.63.26c-.1,1.64-.31,2.08-1.35,2.08Zm2.72,5.91c.63,0,.72-.3.79-1.95a1.59,1.59,0,0,0,.62.25c-.1,1.85-.31,2.3-1.39,2.3h-2.71c-1.18,0-1.52-.23-1.52-1.15v-4.9h.68v2.39a18,18,0,0,0,3.88-1.54l.44.52a19.58,19.58,0,0,1-4.32,1.6V225c0,.42.14.54.85.54Z"/>
      <path class="cls-3" d="M139.47,219.53a21.15,21.15,0,0,0-2.41-1.54l.4-.45a26.64,26.64,0,0,1,2.4,1.44Zm.71,2c-.63,1.47-1.47,3.27-2.17,4.53l-.59-.39a38.47,38.47,0,0,0,2.21-4.53Zm-.07-5.66a26.67,26.67,0,0,0-2.35-1.65l.39-.45c.78.47,1.84,1.15,2.37,1.56Zm1.78,2.19c0,2.41-.22,5.77-1.86,8.11a2.4,2.4,0,0,0-.55-.34c1.6-2.29,1.75-5.46,1.75-7.77v-3.82h8.43v.63h-7.77Zm2.28,4.44a12.06,12.06,0,0,1-1.87,2.87l-.56-.36a9.38,9.38,0,0,0,1.8-2.66Zm2.06-1.08v4c0,.41-.08.59-.39.7a7,7,0,0,1-1.86.1,3.81,3.81,0,0,0-.21-.59c.77,0,1.4,0,1.57,0s.25-.07.25-.22v-4H142.9v-4.69h2.27c.15-.46.33-1.09.43-1.53l.72.18c-.17.45-.35.94-.52,1.35h3.25v4.69Zm-2.7-2.63h4.87v-1.49h-4.87Zm0,2.06h4.87v-1.52h-4.87Zm4.54,1.41c.63.87,1.37,2,1.75,2.69l-.62.3a28.94,28.94,0,0,0-1.71-2.76Z"/>
      <rect class="cls-11" x="172.64" y="215.12" width="10.14" height="10.14"/>
      <path class="cls-3" d="M199.4,215.28h-1.77v9.86c0,.61-.17.87-.62,1a15.41,15.41,0,0,1-2.78.12,4.59,4.59,0,0,0-.3-.74c1.21,0,2.3,0,2.64,0s.37-.12.37-.41v-9.85h-9.89v-.66H199.4Zm-10.16,7.44v1.14h-.66v-6.24h5.59v5.1Zm0-4.44v3.78h4.26v-3.78Z"/>
      <path class="cls-3" d="M213.58,222.79h-1.74v2.52c0,.52-.14.74-.52.87a11.26,11.26,0,0,1-2.35.13,3.91,3.91,0,0,0-.28-.68c1,0,1.9,0,2.16,0s.33-.08.33-.32v-2.52h-8v3.53h-.66v-3.53h-1.69v-.63h1.69v-5.38h4.28v-1.64h-5.5v-.64H213.1v.64h-5.62v1.64h4.36v5.38h1.74Zm-10.37-5.38v2h3.62v-2Zm0,4.75h3.62v-2.1h-3.62Zm4.27-4.75v2h3.7v-2Zm3.7,4.75v-2.1h-3.7v2.1Z"/>
      <path class="cls-3" d="M227.41,225.14v.66H215v-.66h5.84v-4H216.5v-.66h4.38v-3.43h-3.54a10.86,10.86,0,0,1-1.57,2.45c-.13-.1-.44-.29-.6-.39a13.11,13.11,0,0,0,2.63-5.25l.69.14a23.7,23.7,0,0,1-.86,2.41h3.25v-2.83h.69v2.83h5.21v.64h-5.21v3.43h4.72v.66h-4.72v4Z"/>
      <path class="cls-3" d="M233.17,214.41a12.94,12.94,0,0,1,1.91,3l-.55.27c-.1-.23-.22-.48-.36-.76a32.57,32.57,0,0,0-4.81.43,4,4,0,0,0-.22-.67c.19,0,.39-.24.61-.56a12.3,12.3,0,0,0,1.59-2.59l.67.25a18.62,18.62,0,0,1-1.86,2.82l3.71-.21a17.81,17.81,0,0,0-1.22-1.77Zm1.33,10.94c0,.45-.09.65-.4.77a6.8,6.8,0,0,1-1.84.13,2.51,2.51,0,0,0-.24-.66,15.65,15.65,0,0,0,1.59,0c.19,0,.23,0,.23-.22v-2.06h-3.48v2.95h-.65v-7.74h4.79Zm-4.14-6.23v1.49h3.48v-1.49Zm3.48,3.61v-1.55h-3.48v1.55Zm3.59-3.1c-1.15,0-1.48-.23-1.48-1.14v-4.9h.65v2.55a28.4,28.4,0,0,0,3.69-1.4l.47.5a32.86,32.86,0,0,1-4.16,1.46v1.78c0,.42.14.51.85.51h2.61c.59,0,.7-.25.76-1.7a2.2,2.2,0,0,0,.63.26c-.1,1.64-.31,2.08-1.34,2.08Zm2.72,5.91c.63,0,.73-.3.8-1.95a1.55,1.55,0,0,0,.61.25c-.09,1.85-.3,2.3-1.38,2.3h-2.72c-1.18,0-1.51-.23-1.51-1.15v-4.9h.67v2.39a17.79,17.79,0,0,0,3.88-1.54l.45.52a19.68,19.68,0,0,1-4.33,1.6V225c0,.42.14.54.85.54Z"/>
      <path class="cls-3" d="M245.24,219.53a20.3,20.3,0,0,0-2.41-1.54l.41-.45a26.36,26.36,0,0,1,2.39,1.44Zm.71,2c-.63,1.47-1.47,3.27-2.17,4.53l-.59-.39a40,40,0,0,0,2.22-4.53Zm-.07-5.66a25.25,25.25,0,0,0-2.35-1.65l.39-.45c.79.47,1.84,1.15,2.37,1.56Zm1.78,2.19c0,2.41-.22,5.77-1.86,8.11a2.4,2.4,0,0,0-.55-.34c1.6-2.29,1.75-5.46,1.75-7.77v-3.82h8.44v.63h-7.78Zm2.29,4.44a12.08,12.08,0,0,1-1.88,2.87l-.56-.36a9.62,9.62,0,0,0,1.81-2.66Zm2.06-1.08v4c0,.41-.09.59-.4.7a7,7,0,0,1-1.86.1,3.81,3.81,0,0,0-.21-.59c.77,0,1.4,0,1.57,0s.25-.07.25-.22v-4h-2.69v-4.69h2.27c.15-.46.34-1.09.43-1.53l.72.18c-.17.45-.35.94-.52,1.35h3.25v4.69Zm-2.71-2.63h4.88v-1.49H249.3Zm0,2.06h4.88v-1.52H249.3Zm4.54,1.41c.63.87,1.37,2,1.75,2.69l-.62.3a30.82,30.82,0,0,0-1.7-2.76Z"/>
    </g>
  </g>
</svg>