<svg xmlns="http://www.w3.org/2000/svg" xmlns:xlink="http://www.w3.org/1999/xlink" viewBox="0 0 180.95 80.89">
  <defs>
    <style>.cls-1{isolation:isolate;}.cls-2,.cls-26,.cls-28,.cls-29,.cls-30,.cls-31,.cls-32,.cls-33,.cls-34,.cls-35,.cls-36,.cls-37,.cls-38,.cls-39,.cls-40,.cls-42,.cls-43,.cls-44,.cls-45,.cls-46,.cls-47,.cls-48,.cls-49,.cls-50,.cls-51,.cls-52{fill:none;}.cls-2{stroke:#31756c;mix-blend-mode:color-dodge;}.cls-2,.cls-26{stroke-miterlimit:10;stroke-width:0.97px;}.cls-3{opacity:0.2;}.cls-10,.cls-11,.cls-12,.cls-13,.cls-14,.cls-15,.cls-16,.cls-17,.cls-18,.cls-19,.cls-20,.cls-21,.cls-22,.cls-23,.cls-24,.cls-25,.cls-4,.cls-5,.cls-6,.cls-7,.cls-8,.cls-9{fill:#00dcff;}.cls-5{opacity:0.95;}.cls-6{opacity:0.9;}.cls-7{opacity:0.86;}.cls-8{opacity:0.81;}.cls-9{opacity:0.76;}.cls-10{opacity:0.71;}.cls-11{opacity:0.67;}.cls-12{opacity:0.62;}.cls-13{opacity:0.57;}.cls-14{opacity:0.52;}.cls-15{opacity:0.48;}.cls-16{opacity:0.43;}.cls-17{opacity:0.38;}.cls-18{opacity:0.33;}.cls-19{opacity:0.29;}.cls-20{opacity:0.24;}.cls-21{opacity:0.19;}.cls-22{opacity:0.14;}.cls-23{opacity:0.1;}.cls-24{opacity:0.05;}.cls-25{opacity:0;}.cls-26{stroke:#5cdaff;}.cls-27{fill:url(#未命名的渐变_16);}.cls-28,.cls-29,.cls-30,.cls-31,.cls-32,.cls-33,.cls-34,.cls-35,.cls-36,.cls-37,.cls-38,.cls-39,.cls-40,.cls-42,.cls-43,.cls-44,.cls-45,.cls-46,.cls-47,.cls-48,.cls-49,.cls-50,.cls-51,.cls-52{stroke-linecap:round;stroke-linejoin:round;stroke-width:1.56px;}.cls-28{stroke:url(#新建渐变色板_1);}.cls-29{stroke:url(#新建渐变色板_1-2);}.cls-30{stroke:url(#新建渐变色板_1-3);}.cls-31{stroke:url(#新建渐变色板_1-4);}.cls-32{stroke:url(#新建渐变色板_1-5);}.cls-33{stroke:url(#新建渐变色板_1-6);}.cls-34{stroke:url(#新建渐变色板_1-7);}.cls-35{stroke:url(#新建渐变色板_1-8);}.cls-36{stroke:url(#新建渐变色板_1-9);}.cls-37{stroke:url(#新建渐变色板_1-10);}.cls-38{stroke:url(#新建渐变色板_1-11);}.cls-39{stroke:url(#新建渐变色板_1-12);}.cls-40{stroke:url(#新建渐变色板_1-13);}.cls-41{opacity:0.5;}.cls-42{stroke:url(#新建渐变色板_1-14);}.cls-43{stroke:url(#新建渐变色板_1-15);}.cls-44{stroke:url(#新建渐变色板_1-16);}.cls-45{stroke:url(#新建渐变色板_1-17);}.cls-46{stroke:url(#新建渐变色板_1-18);}.cls-47{stroke:url(#新建渐变色板_1-19);}.cls-48{stroke:url(#新建渐变色板_1-20);}.cls-49{stroke:url(#新建渐变色板_1-21);}.cls-50{stroke:url(#新建渐变色板_1-22);}.cls-51{stroke:url(#新建渐变色板_1-23);}.cls-52{stroke:url(#新建渐变色板_1-24);}</style>
    <linearGradient id="未命名的渐变_16" x1="77.05" y1="5.71" x2="99.37" y2="51.36" gradientUnits="userSpaceOnUse">
      <stop offset="0.37" stop-color="#fff" stop-opacity="0.05"/>
      <stop offset="0.62" stop-color="#fff" stop-opacity="0.07"/>
      <stop offset="0.96" stop-color="#fff" stop-opacity="0.14"/>
      <stop offset="1" stop-color="#fff" stop-opacity="0.15"/>
      <animate attributeName="x1" values="33;77.05;99.37;33" dur="5s" repeatCount="indefinite"></animate>
      <animate attributeName="y1" values="0;5.71;51.36;0" dur="5s" repeatCount="indefinite"></animate>
      <animate attributeName="x2" values="22.32;99.37;150;22.32" dur="5s" repeatCount="indefinite"></animate>
      <animate attributeName="y2" values="22.32;51.36;100;22.32" dur="5s" repeatCount="indefinite"></animate>
    </linearGradient>
    <linearGradient id="新建渐变色板_1" x1="46.86" y1="41.88" x2="46.86" y2="12.27" gradientUnits="userSpaceOnUse">
      <stop offset="0" stop-color="#00d7ff"/>
      <stop offset="0.09" stop-color="#0fd9ff"/>
      <stop offset="0.27" stop-color="#36dfff"/>
      <stop offset="0.52" stop-color="#75e9ff"/>
      <stop offset="0.83" stop-color="#cbf7ff"/>
      <stop offset="1" stop-color="#fff"/>
    </linearGradient>
    <linearGradient id="新建渐变色板_1-2" x1="43.35" y1="48.74" x2="80.3" y2="48.74" xlink:href="#新建渐变色板_1"/>
    <linearGradient id="新建渐变色板_1-3" x1="38.34" y1="68" x2="85.31" y2="68" xlink:href="#新建渐变色板_1"/>
    <linearGradient id="新建渐变色板_1-4" x1="47.84" y1="49.48" x2="54.91" y2="49.48" xlink:href="#新建渐变色板_1"/>
    <linearGradient id="新建渐变色板_1-5" x1="58.29" y1="49.48" x2="65.36" y2="49.48" xlink:href="#新建渐变色板_1"/>
    <linearGradient id="新建渐变色板_1-6" x1="68.74" y1="49.48" x2="75.81" y2="49.48" xlink:href="#新建渐变色板_1"/>
    <linearGradient id="新建渐变色板_1-7" x1="47.84" y1="53.7" x2="54.91" y2="53.7" xlink:href="#新建渐变色板_1"/>
    <linearGradient id="新建渐变色板_1-8" x1="58.29" y1="53.7" x2="65.36" y2="53.7" xlink:href="#新建渐变色板_1"/>
    <linearGradient id="新建渐变色板_1-9" x1="68.74" y1="53.7" x2="75.81" y2="53.7" xlink:href="#新建渐变色板_1"/>
    <linearGradient id="新建渐变色板_1-10" x1="112.52" y1="39.98" x2="142.62" y2="39.98" xlink:href="#新建渐变色板_1"/>
    <linearGradient id="新建渐变色板_1-11" x1="98.13" y1="42.99" x2="114.07" y2="42.99" xlink:href="#新建渐变色板_1"/>
    <linearGradient id="新建渐变色板_1-12" x1="126.67" y1="42.99" x2="142.62" y2="42.99" xlink:href="#新建渐变色板_1"/>
    <linearGradient id="新建渐变色板_1-13" x1="98.13" y1="45.99" x2="128.23" y2="45.99" xlink:href="#新建渐变色板_1"/>
    <linearGradient id="新建渐变色板_1-14" x1="112.52" y1="50.11" x2="142.62" y2="50.11" xlink:href="#新建渐变色板_1"/>
    <linearGradient id="新建渐变色板_1-15" x1="126.67" y1="53.12" x2="142.62" y2="53.12" xlink:href="#新建渐变色板_1"/>
    <linearGradient id="新建渐变色板_1-16" x1="98.13" y1="53.12" x2="114.07" y2="53.12" xlink:href="#新建渐变色板_1"/>
    <linearGradient id="新建渐变色板_1-17" x1="98.13" y1="56.12" x2="128.23" y2="56.12" xlink:href="#新建渐变色板_1"/>
    <linearGradient id="新建渐变色板_1-18" x1="112.52" y1="60.24" x2="142.62" y2="60.24" xlink:href="#新建渐变色板_1"/>
    <linearGradient id="新建渐变色板_1-19" x1="126.67" y1="63.25" x2="142.62" y2="63.25" xlink:href="#新建渐变色板_1"/>
    <linearGradient id="新建渐变色板_1-20" x1="98.13" y1="63.25" x2="114.07" y2="63.25" xlink:href="#新建渐变色板_1"/>
    <linearGradient id="新建渐变色板_1-21" x1="98.13" y1="66.25" x2="128.23" y2="66.25" xlink:href="#新建渐变色板_1"/>
    <linearGradient id="新建渐变色板_1-22" x1="121.48" y1="36.53" x2="121.48" y2="13.39" xlink:href="#新建渐变色板_1"/>
    <linearGradient id="新建渐变色板_1-23" x1="134.54" y1="30.49" x2="134.54" y2="19.06" xlink:href="#新建渐变色板_1"/>
    <linearGradient id="新建渐变色板_1-24" x1="110.83" y1="20.61" x2="110.83" y2="12.62" xlink:href="#新建渐变色板_1"/>
  </defs>
  <g class="cls-1">
    <g id="图层_2" data-name="图层 2">
      <g id="图层_2-2" data-name="图层 2">
        <path class="cls-2" d="M.48,80.41h180V.48H.48Z"/>
        <g class="cls-3">
          <rect class="cls-4" x="4.24" y="3.06" width="172.47" height="74.77"/>
          <rect class="cls-5" x="4.81" y="3.45" width="169.98" height="73.99"/>
          <rect class="cls-6" x="5.39" y="3.84" width="167.48" height="73.21"/>
          <rect class="cls-7" x="5.96" y="4.23" width="164.99" height="72.43"/>
          <rect class="cls-8" x="6.53" y="4.62" width="162.5" height="71.64"/>
          <rect class="cls-9" x="7.1" y="5.02" width="160.01" height="70.86"/>
          <rect class="cls-10" x="7.67" y="5.41" width="157.52" height="70.08"/>
          <rect class="cls-11" x="8.24" y="5.8" width="155.02" height="69.3"/>
          <rect class="cls-12" x="8.81" y="6.19" width="152.53" height="68.51"/>
          <rect class="cls-13" x="9.38" y="6.58" width="150.04" height="67.73"/>
          <rect class="cls-14" x="9.95" y="6.97" width="147.55" height="66.95"/>
          <rect class="cls-15" x="10.52" y="7.36" width="145.06" height="66.17"/>
          <rect class="cls-16" x="11.1" y="7.75" width="142.57" height="65.38"/>
          <rect class="cls-17" x="11.67" y="8.15" width="140.07" height="64.6"/>
          <rect class="cls-18" x="12.24" y="8.54" width="137.58" height="63.82"/>
          <rect class="cls-19" x="12.81" y="8.93" width="135.09" height="63.04"/>
          <rect class="cls-20" x="13.38" y="9.32" width="132.6" height="62.25"/>
          <rect class="cls-21" x="13.95" y="9.71" width="130.11" height="61.47"/>
          <rect class="cls-22" x="14.52" y="10.1" width="127.62" height="60.69"/>
          <rect class="cls-23" x="15.09" y="10.49" width="125.12" height="59.91"/>
          <rect class="cls-24" x="15.66" y="10.88" width="122.63" height="59.12"/>
          <rect class="cls-25" x="16.23" y="11.28" width="120.14" height="58.34"/>
        </g>
        <polyline class="cls-26" points="87.12 80.41 180.47 80.41 180.47 71.2"/>
        <polyline class="cls-26" points="28.27 0.48 0.48 0.48 0.48 14.82"/>
        <polygon class="cls-27" points="4.24 3.06 4.24 63.29 176.71 21.2 176.71 3.06 4.24 3.06"/>
        <polygon class="cls-28" points="49.59 41.1 44.13 41.1 45.17 13.05 48.55 13.05 49.59 41.1"/>
        <polygon class="cls-29" points="79.52 45.54 79.52 61.58 44.13 61.58 44.13 45.54 53.46 45.54 53.46 35.9 62.52 45.32 62.52 35.9 71.3 45.27 71.3 35.9 79.52 45.54"/>
        <line class="cls-30" x1="84.54" y1="68" x2="39.12" y2="68"/>
        <rect class="cls-31" x="48.62" y="49.38" width="5.52" height="0.2"/>
        <rect class="cls-32" x="59.07" y="49.38" width="5.52" height="0.2"/>
        <rect class="cls-33" x="69.52" y="49.38" width="5.52" height="0.2"/>
        <rect class="cls-34" x="48.62" y="53.6" width="5.52" height="0.2"/>
        <rect class="cls-35" x="59.07" y="53.6" width="5.52" height="0.2"/>
        <rect class="cls-36" x="69.52" y="53.6" width="5.52" height="0.2"/>
        <rect class="cls-37" x="113.29" y="39.26" width="28.55" height="1.44"/>
        <polygon class="cls-38" points="98.91 46.71 113.29 40.7 113.29 39.26 98.91 45.28 98.91 46.71"/>
        <polygon class="cls-39" points="127.45 46.71 141.84 40.7 141.84 39.26 127.45 45.28 127.45 46.71"/>
        <rect class="cls-40" x="98.91" y="45.28" width="28.55" height="1.44"/>
        <g class="cls-41">
          <rect class="cls-42" x="113.29" y="49.39" width="28.55" height="1.44"/>
          <polygon class="cls-43" points="127.45 56.84 141.84 50.83 141.84 49.39 127.45 55.41 127.45 56.84"/>
          <polygon class="cls-44" points="98.91 56.84 113.29 50.83 113.29 49.39 98.91 55.41 98.91 56.84"/>
          <rect class="cls-45" x="98.91" y="55.41" width="28.55" height="1.44"/>
        </g>
        <g class="cls-3">
          <rect class="cls-46" x="113.29" y="59.52" width="28.55" height="1.44"/>
          <polygon class="cls-47" points="127.45 66.97 141.84 60.96 141.84 59.52 127.45 65.53 127.45 66.97"/>
          <polygon class="cls-48" points="98.91 66.97 113.29 60.96 113.29 59.52 98.91 65.53 98.91 66.97"/>
          <rect class="cls-49" x="98.91" y="65.53" width="28.55" height="1.44"/>
        </g>
        <path class="cls-50" d="M124.27,21.09a27.46,27.46,0,0,1-2.79-6.92,27.28,27.28,0,0,1-2.8,6.92c-2.12,3.79-3.14,5.58-3.14,8.14,0,3.26,2.65,6.52,5.94,6.52s5.93-3.26,5.93-6.52C127.41,26.67,126.39,24.88,124.27,21.09Z"/>
        <path class="cls-51" d="M135.81,23a12.39,12.39,0,0,1-1.27-3.16A12.69,12.69,0,0,1,133.26,23c-1,1.74-1.44,2.55-1.44,3.73a2.73,2.73,0,1,0,5.43,0C137.25,25.55,136.78,24.74,135.81,23Z"/>
        <path class="cls-52" d="M111.66,15.46a8.28,8.28,0,0,1-.83-2.06,8.6,8.6,0,0,1-.84,2.06,4.9,4.9,0,0,0-.94,2.43,1.78,1.78,0,1,0,3.55,0A4.9,4.9,0,0,0,111.66,15.46Z"/>
      </g>
    </g>
  </g>
</svg>