<svg xmlns="http://www.w3.org/2000/svg" xmlns:xlink="http://www.w3.org/1999/xlink" viewBox="0 0 277.34 173.3">
  <defs>
    <style>.cls-1{fill:none;stroke-miterlimit:10;stroke-width:0.64px;opacity:0.1;stroke:url(#未命名的渐变_41);}.cls-2,.cls-5,.cls-6{opacity:0.3;}.cls-2{fill:url(#未命名的渐变_42);}.cls-3{fill:url(#未命名的渐变_4);}.cls-4{fill:url(#未命名的渐变_4-2);}.cls-5{fill:url(#未命名的渐变_42-2);}.cls-6{fill:url(#未命名的渐变_42-3);}.cls-7{fill:url(#未命名的渐变_4-3);}.cls-8{fill:#fff;}.cls-10,.cls-9{fill-rule:evenodd;}.cls-9{opacity:0.4;fill:url(#未命名的渐变_42-4);}.cls-10{fill:url(#未命名的渐变_70);}.cls-11{fill:#80edff;}</style>
    <linearGradient id="未命名的渐变_41" y1="82.74" x2="270.32" y2="82.74" gradientUnits="userSpaceOnUse">
      <stop offset="0" stop-color="#fff"/>
      <stop offset="1" stop-color="#fff" stop-opacity="0.5"/>
    </linearGradient>
    <linearGradient id="未命名的渐变_42" x1="159.91" y1="145.58" x2="159.91" y2="44.33" gradientTransform="matrix(-1, 0, 0, 1, 279.64, 0)" gradientUnits="userSpaceOnUse">
      <stop offset="0" stop-color="#fff" stop-opacity="0.5"/>
      <stop offset="1" stop-color="#fff"/>
    </linearGradient>
    <linearGradient id="未命名的渐变_4" x1="119.74" y1="145.58" x2="119.74" y2="98.4" gradientTransform="matrix(-1, 0, 0, 1, 279.64, 0)" gradientUnits="userSpaceOnUse">
      <stop offset="0" stop-color="#00dcff" stop-opacity="1">
        <animate attributeName="stop-opacity"
                 values="1;0.93;0.76;0.61;0.48;0.38;0.3;0.24;0.21;0.2;0.21;0.24;0.3;0.38;0.48;0.61;0.76;0.93;1"
                 dur="5s" repeatCount="indefinite"></animate>
      </stop>
      <stop offset="0.01" stop-color="#00dcff" stop-opacity="0.93">
        <animate attributeName="stop-opacity"
                 values="0.93;0.76;0.61;0.48;0.38;0.3;0.24;0.21;0.2;0.21;0.24;0.3;0.38;0.48;0.61;0.76;0.93;1;1"
                 dur="5s" repeatCount="indefinite"></animate>
      </stop>
      <stop offset="0.05" stop-color="#00dcff" stop-opacity="0.76">
        <animate attributeName="stop-opacity"
                 values="0.76;0.61;0.48;0.38;0.3;0.24;0.21;0.2;0.21;0.24;0.3;0.38;0.48;0.61;0.76;0.93;1;1;0.93"
                 dur="5s" repeatCount="indefinite"></animate>
      </stop>
      <stop offset="0.1" stop-color="#00dcff" stop-opacity="0.61">
        <animate attributeName="stop-opacity"
                 values="0.61;0.48;0.38;0.3;0.24;0.21;0.2;0.21;0.24;0.3;0.38;0.48;0.61;0.76;0.93;1;1;0.93;0.76"
                 dur="5s" repeatCount="indefinite"></animate>
      </stop>
      <stop offset="0.14" stop-color="#00dcff" stop-opacity="0.48">
        <animate attributeName="stop-opacity"
                 values="0.48;0.38;0.3;0.24;0.21;0.2;0.21;0.24;0.3;0.38;0.48;0.61;0.76;0.93;1;1;0.93;0.76;0.61"
                 dur="5s" repeatCount="indefinite"></animate>
      </stop>
      <stop offset="0.19" stop-color="#00dcff" stop-opacity="0.38">
        <animate attributeName="stop-opacity"
                 values="0.38;0.3;0.24;0.21;0.2;0.21;0.24;0.3;0.38;0.48;0.61;0.76;0.93;1;1;0.93;0.76;0.61;0.48"
                 dur="5s" repeatCount="indefinite"></animate>
      </stop>
      <stop offset="0.24" stop-color="#00dcff" stop-opacity="0.3">
        <animate attributeName="stop-opacity"
                 values="0.3;0.24;0.21;0.2;0.21;0.24;0.3;0.38;0.48;0.61;0.76;0.93;1;1;0.93;0.76;0.61;0.48;0.38"
                 dur="5s" repeatCount="indefinite"></animate>
      </stop>
      <stop offset="0.31" stop-color="#00dcff" stop-opacity="0.24">
        <animate attributeName="stop-opacity"
                 values="0.24;0.21;0.2;0.21;0.24;0.3;0.38;0.48;0.61;0.76;0.93;1;1;0.93;0.76;0.61;0.48;0.38;0.3"
                 dur="5s" repeatCount="indefinite"></animate>
      </stop>
      <stop offset="0.38" stop-color="#00dcff" stop-opacity="0.21">
        <animate attributeName="stop-opacity"
                 values="0.21;0.2;0.21;0.24;0.3;0.38;0.48;0.61;0.76;0.93;1;1;0.93;0.76;0.61;0.48;0.38;0.3;0.24"
                 dur="5s" repeatCount="indefinite"></animate>
      </stop>
      <stop offset="0.5" stop-color="#00dcff" stop-opacity="0.2">
        <animate attributeName="stop-opacity"
                 values="0.2;0.21;0.24;0.3;0.38;0.48;0.61;0.76;0.93;1;1;0.93;0.76;0.61;0.48;0.38;0.3;0.24;0.21"
                 dur="5s" repeatCount="indefinite"></animate>
      </stop>
      <stop offset="0.62" stop-color="#00dcff" stop-opacity="0.21">
        <animate attributeName="stop-opacity"
                 values="0.21;0.24;0.3;0.38;0.48;0.61;0.76;0.93;1;1;0.93;0.76;0.61;0.48;0.38;0.3;0.24;0.21;0.2"
                 dur="5s" repeatCount="indefinite"></animate>
      </stop>
      <stop offset="0.69" stop-color="#00dcff" stop-opacity="0.24">
        <animate attributeName="stop-opacity"
                 values="0.24;0.3;0.38;0.48;0.61;0.76;0.93;1;1;0.93;0.76;0.61;0.48;0.38;0.3;0.24;0.21;0.2;0.21"
                 dur="5s" repeatCount="indefinite"></animate>
      </stop>
      <stop offset="0.76" stop-color="#00dcff" stop-opacity="0.3">
        <animate attributeName="stop-opacity"
                 values="0.3;0.38;0.48;0.61;0.76;0.93;1;1;0.93;0.76;0.61;0.48;0.38;0.3;0.24;0.21;0.2;0.21;0.24"
                 dur="5s" repeatCount="indefinite"></animate>
      </stop>
      <stop offset="0.81" stop-color="#00dcff" stop-opacity="0.38">
        <animate attributeName="stop-opacity"
                 values="0.38;0.48;0.61;0.76;0.93;1;1;0.93;0.76;0.61;0.48;0.38;0.3;0.24;0.21;0.2;0.21;0.24;0.3"
                 dur="5s" repeatCount="indefinite"></animate>
      </stop>
      <stop offset="0.86" stop-color="#00dcff" stop-opacity="0.48">
        <animate attributeName="stop-opacity"
                 values="0.48;0.61;0.76;0.93;1;1;0.93;0.76;0.61;0.48;0.38;0.3;0.24;0.21;0.2;0.21;0.24;0.3;0.38"
                 dur="5s" repeatCount="indefinite"></animate>
      </stop>
      <stop offset="0.9" stop-color="#00dcff" stop-opacity="0.61">
        <animate attributeName="stop-opacity"
                 values="0.61;0.76;0.93;1;1;0.93;0.76;0.61;0.48;0.38;0.3;0.24;0.21;0.2;0.21;0.24;0.3;0.38;0.48"
                 dur="5s" repeatCount="indefinite"></animate>
      </stop>
      <stop offset="0.95" stop-color="#00dcff" stop-opacity="0.76">
        <animate attributeName="stop-opacity"
                 values="0.76;0.93;1;1;0.93;0.76;0.61;0.48;0.38;0.3;0.24;0.21;0.2;0.21;0.24;0.3;0.38;0.48;0.61"
                 dur="5s" repeatCount="indefinite"></animate>
      </stop>
      <stop offset="0.99" stop-color="#00dcff" stop-opacity="0.93">
        <animate attributeName="stop-opacity"
                 values="0.93;1;1;0.93;0.76;0.61;0.48;0.38;0.3;0.24;0.21;0.2;0.21;0.24;0.3;0.38;0.48;0.61;0.76"
                 dur="5s" repeatCount="indefinite"></animate>
      </stop>
      <stop offset="1" stop-color="#00dcff" stop-opacity="1">
        <animate attributeName="stop-opacity"
                 values="1;1;0.93;0.76;0.61;0.48;0.38;0.3;0.24;0.21;0.2;0.21;0.24;0.3;0.38;0.48;0.61;0.76;0.93"
                 dur="5s" repeatCount="indefinite"></animate>
      </stop>
    </linearGradient>
    <linearGradient id="未命名的渐变_4-2" x1="29.41" y1="145.57" x2="29.41" y2="140.15" gradientTransform="matrix(-1, 0, 0, 1, 98.99, 0)" xlink:href="#未命名的渐变_4"/>
    <linearGradient id="未命名的渐变_42-2" x1="69.58" y1="145.58" x2="69.58" y2="114.93" gradientTransform="matrix(-1, 0, 0, 1, 98.99, 0)" xlink:href="#未命名的渐变_42"/>
    <linearGradient id="未命名的渐变_42-3" x1="250.24" y1="1641.02" x2="250.24" y2="1751.18" gradientTransform="translate(460.29 1786.18) rotate(180)" xlink:href="#未命名的渐变_42"/>
    <linearGradient id="未命名的渐变_4-3" x1="210.06" y1="1692.9" x2="210.06" y2="1641.02" gradientTransform="translate(460.29 1786.18) rotate(180)" xlink:href="#未命名的渐变_4"/>
    <linearGradient id="未命名的渐变_42-4" x1="73.97" y1="9.68" x2="73.97" y2="0.68" gradientTransform="matrix(1, 0, 0, 1, 0, 0)" xlink:href="#未命名的渐变_42"/>
    <linearGradient id="未命名的渐变_70" x1="159.39" y1="9" x2="159.39" gradientUnits="userSpaceOnUse">
      <stop offset="0" stop-color="#80edff"/>
      <stop offset="1" stop-color="#00dcff"/>
    </linearGradient>
  </defs>
  <g id="图层_2" data-name="图层 2">
    <g id="图层_2-2" data-name="图层 2">
      <polyline class="cls-1" points="0.32 19.58 0.32 145.58 270.32 145.58"/>
      <polygon class="cls-2" points="139.82 44.33 99.65 44.33 99.65 145.58 139.82 145.58 139.82 44.33 139.82 44.33"/>
      <polygon class="cls-3" points="179.99 98.4 139.82 98.4 139.82 145.58 179.99 145.58 179.99 98.4 179.99 98.4"/>
      <polygon class="cls-4" points="89.66 140.15 49.49 140.15 49.49 145.57 89.66 145.57 89.66 140.15 89.66 140.15"/>
      <polygon class="cls-5" points="49.49 114.93 9.32 114.93 9.32 145.58 49.49 145.58 49.49 114.93 49.49 114.93"/>
      <polygon class="cls-6" points="230.15 145.16 189.97 145.16 189.97 35 230.15 35 230.15 145.16 230.15 145.16"/>
      <polygon class="cls-7" points="270.32 145.16 230.15 145.16 230.15 93.28 270.32 93.28 270.32 145.16 270.32 145.16"/>
      <path class="cls-8" d="M177.58,9.44a.34.34,0,0,1-.34.34.35.35,0,0,1-.24-.1.34.34,0,0,1-.11-.24V3.21l-2.3,4.94a.44.44,0,0,1-.14.16.46.46,0,0,1-.2,0,.36.36,0,0,1-.2-.06.34.34,0,0,1-.14-.15l-2.29-4.93V9.44a.34.34,0,0,1-.34.34.33.33,0,0,1-.24-.1.34.34,0,0,1-.11-.24V1.9a.34.34,0,0,1,.11-.24.38.38,0,0,1,.26-.1.36.36,0,0,1,.35.22l2.62,5.57,2.62-5.58a.3.3,0,0,1,.16-.17.58.58,0,0,1,.18,0,.36.36,0,0,1,.25.1.33.33,0,0,1,.1.24Z"/>
      <path class="cls-8" d="M184.64,6.81a4.08,4.08,0,0,1-.13,1.05,2.78,2.78,0,0,1-.41.93l.73.64a.31.31,0,0,1,.12.24.43.43,0,0,1-.1.23.35.35,0,0,1-.23.12.29.29,0,0,1-.25-.1l-.72-.66a2.41,2.41,0,0,1-.73.38,3.13,3.13,0,0,1-1,.14,3.18,3.18,0,0,1-.91-.12,2.43,2.43,0,0,1-.69-.32,2.16,2.16,0,0,1-.51-.49,2.8,2.8,0,0,1-.34-.61,3.13,3.13,0,0,1-.19-.7,4.49,4.49,0,0,1-.06-.73V4.53a4.62,4.62,0,0,1,.06-.74,3.2,3.2,0,0,1,.19-.69,2.59,2.59,0,0,1,.34-.61,2.16,2.16,0,0,1,.51-.49,2.43,2.43,0,0,1,.69-.32,3.18,3.18,0,0,1,.91-.12,3,3,0,0,1,.89.12,2.37,2.37,0,0,1,.7.32,2.12,2.12,0,0,1,.5.49,2.59,2.59,0,0,1,.34.61,3.2,3.2,0,0,1,.19.69,4.62,4.62,0,0,1,.06.74Zm-.72-2.28a3.53,3.53,0,0,0-.11-.88,1.88,1.88,0,0,0-.33-.73,1.55,1.55,0,0,0-.6-.5,2.47,2.47,0,0,0-1.85,0,1.49,1.49,0,0,0-.61.49,1.81,1.81,0,0,0-.33.73,3.68,3.68,0,0,0-.11.89V6.81a3.62,3.62,0,0,0,.11.89,1.75,1.75,0,0,0,.33.73,1.51,1.51,0,0,0,.61.5,2.14,2.14,0,0,0,.93.18,2.29,2.29,0,0,0,.66-.09,2,2,0,0,0,.51-.24l-.45-.41a.35.35,0,0,1-.12-.24.33.33,0,0,1,.09-.23.27.27,0,0,1,.22-.1.36.36,0,0,1,.24.1l.46.4a2.14,2.14,0,0,0,.26-.68,3.47,3.47,0,0,0,.09-.81Z"/>
      <path class="cls-8" d="M190.92,9.33a.34.34,0,0,1-.11.25.33.33,0,0,1-.24.1h-3.95a.35.35,0,0,1-.25-.1.33.33,0,0,1-.1-.25V1.92a.33.33,0,0,1,.1-.25.36.36,0,0,1,.52,0,.33.33,0,0,1,.1.25V9h3.58a.33.33,0,0,1,.24.1A.3.3,0,0,1,190.92,9.33Z"/>
      <path class="cls-8" d="M195.54,3c0,.66-.09,1.33-.19,2H200s0,.21,0,.28c-.23,3.18-.45,4.35-.86,4.78a1.09,1.09,0,0,1-.81.28,15.88,15.88,0,0,1-1.82-.06,1,1,0,0,0-.19-.51c.82.08,1.58.09,1.86.09a.74.74,0,0,0,.51-.12c.34-.31.55-1.42.76-4.23h-4.2a6.31,6.31,0,0,1-3.29,5,1.56,1.56,0,0,0-.4-.41C194.51,8.7,194.84,5.64,195,3h-3.11V2.51h9.31V3Zm1.22-.63A12.14,12.14,0,0,0,196,.69l.5-.19a13.39,13.39,0,0,1,.79,1.65Z"/>
      <path class="cls-8" d="M208.32,7.66a9.69,9.69,0,0,0,4.26,2.24,2.07,2.07,0,0,0-.34.44,10,10,0,0,1-4.51-2.68v2.82h-.52V7.71a10,10,0,0,1-4.42,2.6,2,2,0,0,0-.34-.43,10,10,0,0,0,4.22-2.22h-4V7.18h4.59v-1h.52v1h4.64v.48Zm3.18-1.1a30,30,0,0,0-3.69-1,16.48,16.48,0,0,1-4.91.93,1.33,1.33,0,0,0-.23-.46,18.5,18.5,0,0,0,4.27-.65c-.86-.18-1.78-.33-2.73-.47.39-.35.84-.8,1.27-1.26h-2.72V3.21h3.13a9.2,9.2,0,0,0,.82-1.06l.46.16a10.49,10.49,0,0,1-.72.9h5.81v.46h-2.11a4.16,4.16,0,0,1-1.69,1.6,34.49,34.49,0,0,1,3.5.91Zm-8.06-3.65h-.5V1.4h4.47a5.67,5.67,0,0,0-.52-.76l.44-.17a9.71,9.71,0,0,1,.64.93h4.13V2.91h-.51v-1h-8.15Zm2.61.76c-.34.35-.67.7-1,1,.9.14,1.8.31,2.65.47a4,4,0,0,0,1.82-1.44Z"/>
      <path class="cls-8" d="M88.76,6.79c0,.13.08.34.11.45a20.89,20.89,0,0,0-3.13,1.5,1.78,1.78,0,0,0-.27-.48.78.78,0,0,0,.42-.71V4.2l-1.41.32L84.38,4l1.51-.33V.94h.51V3.59l2.25-.51.1.47-2.35.53V7.79Zm5.5-4.89c-.18,5.69-.32,7.53-.76,8.07a1,1,0,0,1-.76.38c-.35,0-1,0-1.54,0A1.26,1.26,0,0,0,91,9.78c.68.05,1.3.05,1.54.05A.46.46,0,0,0,93,9.66c.36-.42.55-2.31.7-7.58H91.11c-.07,3.38-.31,6.71-3.24,8.36a1.77,1.77,0,0,0-.42-.4c2.88-1.53,3.08-4.77,3.14-8h-1.9V1.57h5.57Z"/>
      <path class="cls-8" d="M96.67,3.24a11.25,11.25,0,0,0-.87-2.11L96.26,1a10.8,10.8,0,0,1,.88,2.09Zm3.88,6.48c0,.36-.1.52-.35.61a5.41,5.41,0,0,1-1.58.09,1.91,1.91,0,0,0-.17-.49c.66,0,1.21,0,1.36,0s.22,0,.22-.22v-2H96.57v2.73h-.51V3.56h2v-3h.52v3h2Zm-4-5.65V5.41H100V4.07ZM100,7.26V5.9H96.57V7.26Zm-.56-4.18a13.53,13.53,0,0,0,1-2.22L101,1a19.38,19.38,0,0,1-1.11,2.19Zm2.47-1.27h.51v6h-.51Zm3-1.09v9c0,.44-.14.61-.43.71a7.22,7.22,0,0,1-1.86.1,2.54,2.54,0,0,0-.21-.53c.82,0,1.49,0,1.7,0s.29-.08.29-.28v-9Z"/>
      <path class="cls-8" d="M108.19,5.48a9,9,0,0,0-1.61-1.33l.34-.33a11.16,11.16,0,0,1,1.63,1.28Zm-1.38,4.41a32.38,32.38,0,0,0,1.38-3.39l.43.31c-.38,1.09-.9,2.44-1.34,3.38Zm.66-9.07A10.5,10.5,0,0,1,109,2.26l-.37.36a9.6,9.6,0,0,0-1.54-1.5Zm3.83,1.91a16.85,16.85,0,0,1-.8,1.77v6H110V5.36a8.43,8.43,0,0,1-.94,1.26,2.3,2.3,0,0,0-.37-.32,10.83,10.83,0,0,0,2.08-3.71Zm5.17-.42h-7.21V1.8h3.58A8.07,8.07,0,0,0,112.3.64l.48-.15a8.09,8.09,0,0,1,.62,1.31h3.07ZM116,4.12a9.43,9.43,0,0,1-1.92,4.18,6.47,6.47,0,0,0,2.4,1.73,2.42,2.42,0,0,0-.36.42,6.82,6.82,0,0,1-2.36-1.79,7.86,7.86,0,0,1-2.6,1.83,1.52,1.52,0,0,0-.32-.39,7.31,7.31,0,0,0,2.6-1.82,10.07,10.07,0,0,1-1.39-2.62,8.87,8.87,0,0,1-.93,1.2,4,4,0,0,0-.36-.35A10,10,0,0,0,113,2.59l.51.13A10.67,10.67,0,0,1,113,4h2.64l.09,0Zm-3.28.37c-.11.23-.24.45-.36.68a9.15,9.15,0,0,0,1.4,2.75,8.57,8.57,0,0,0,1.64-3.43Zm.57.46a5.38,5.38,0,0,1,1.12,1.28l-.33.26A5.5,5.5,0,0,0,113,5.19Z"/>
      <path class="cls-8" d="M121.56,3c0,.66-.09,1.33-.19,2h4.69s0,.21,0,.28c-.23,3.18-.45,4.35-.86,4.78a1.09,1.09,0,0,1-.81.28,15.88,15.88,0,0,1-1.82-.06,1,1,0,0,0-.19-.51c.82.08,1.58.09,1.86.09a.76.76,0,0,0,.51-.12c.34-.31.55-1.42.76-4.23h-4.21a6.27,6.27,0,0,1-3.28,5,1.56,1.56,0,0,0-.4-.41C120.53,8.7,120.86,5.64,121,3h-3.12V2.51h9.32V3Zm1.22-.63A12.14,12.14,0,0,0,122,.69l.5-.19a15,15,0,0,1,.79,1.65Z"/>
      <path class="cls-8" d="M134.34,7.66A9.69,9.69,0,0,0,138.6,9.9a2.07,2.07,0,0,0-.34.44,10,10,0,0,1-4.51-2.68v2.82h-.52V7.71a10,10,0,0,1-4.42,2.6,2,2,0,0,0-.34-.43,10,10,0,0,0,4.22-2.22h-4.05V7.18h4.59v-1h.52v1h4.64v.48Zm3.18-1.1a30,30,0,0,0-3.69-1,16.48,16.48,0,0,1-4.91.93,1.53,1.53,0,0,0-.23-.46A18.5,18.5,0,0,0,133,5.4c-.86-.18-1.79-.33-2.73-.47.39-.35.83-.8,1.27-1.26h-2.72V3.21h3.13a9.07,9.07,0,0,0,.81-1.06l.47.16a10.49,10.49,0,0,1-.72.9h5.81v.46h-2.11a4.18,4.18,0,0,1-1.7,1.6,34.06,34.06,0,0,1,3.51.91Zm-8.06-3.65H129V1.4h4.47a5.67,5.67,0,0,0-.52-.76l.44-.17a9.71,9.71,0,0,1,.64.93h4.13V2.91h-.51v-1h-8.15Zm2.6.76c-.34.35-.67.7-1,1,.9.14,1.8.31,2.65.47a4,4,0,0,0,1.82-1.44Z"/>
      <polygon class="cls-9" points="69.47 0.68 78.47 0.68 78.47 9.68 69.47 9.68 69.47 0.68 69.47 0.68"/>
      <path class="cls-8" d="M24.34,153.5a7.47,7.47,0,0,0-1.85-1.1l.29-.4a7,7,0,0,1,1.85,1.07Zm-1.59,4.87a31.65,31.65,0,0,0,1.57-3.48l.42.28a35.2,35.2,0,0,1-1.52,3.49Zm.51-9.22a7.91,7.91,0,0,1,1.87,1.26l-.31.42a8.45,8.45,0,0,0-1.88-1.3Zm2,2.06h.49v7.63h-.49Zm1.49-.35a10.14,10.14,0,0,0-1.37-1.71l.39-.24a9.8,9.8,0,0,1,1.38,1.67Zm4,6.51H26.47v-.47h1.91v-2.28H26.79v-.49h1.59v-2.06H26.63v-.48h4v.48H28.89v2.06h1.55v.49H28.89v2.28h1.85Zm1.31.67c0,.43-.12.62-.42.72a8.84,8.84,0,0,1-1.87.1,2,2,0,0,0-.2-.55c.8,0,1.51,0,1.73,0s.26-.08.26-.28v-8.11H27.47v-.5h4.58Z"/>
      <path class="cls-8" d="M35.4,153.62a14,14,0,0,0-1.88-1.18l.31-.37a13.71,13.71,0,0,1,1.88,1.13Zm-1.54,4.76a28.48,28.48,0,0,0,1.78-3.51l.41.33c-.49,1.13-1.17,2.54-1.72,3.51Zm.53-9.3a13.71,13.71,0,0,1,2,1.38l-.34.41a12.88,12.88,0,0,0-2-1.44Zm9,3.25v1.73H42.9v-1.28H36.78v1.28h-.51v-1.73h1.22v-3h4.74v3Zm-1.12,5.93c0,.33-.08.48-.32.55a5.91,5.91,0,0,1-1.53.1,1.46,1.46,0,0,0-.18-.46c.64,0,1.17,0,1.32,0s.2-.05.2-.19V157H37.9v1.92h-.51v-5.19h4.9Zm-4.39-4.1v1h3.88v-1Zm3.88,2.38v-1H37.9v1ZM38,149.8v.88h2.24v1.65h1.5V149.8Zm0,2.53h1.77v-1.22H38Z"/>
      <path class="cls-8" d="M47.69,149.05a15.5,15.5,0,0,1-1.18,2.38V159H46v-6.74a12.28,12.28,0,0,1-1.38,1.66c-.07-.11-.24-.36-.34-.48a12.9,12.9,0,0,0,2.92-4.49Zm3.44,5.86a4.13,4.13,0,0,1-.79,2.23,11.25,11.25,0,0,0,4.24,1.3,2.11,2.11,0,0,0-.33.49A11.3,11.3,0,0,1,50,157.51,6,6,0,0,1,47.4,159a2.45,2.45,0,0,0-.31-.43,5.5,5.5,0,0,0,2.5-1.29,5.85,5.85,0,0,1-1.74-1.87l.45-.18a5.22,5.22,0,0,0,1.61,1.67,3.81,3.81,0,0,0,.72-1.94h-2.8V152h2.84v-1.25H47.46v-.5h3.21V149h.52v1.27H54.5v.5H51.19V152H54.1v2.93Zm-.47-.48c0-.24,0-.48,0-.72v-1.26H48.33v2Zm.53-2v1.26c0,.24,0,.48,0,.72H53.6v-2Z"/>
      <path class="cls-8" d="M64.64,158c0,.44-.13.62-.45.72a8.76,8.76,0,0,1-2,.09,1.49,1.49,0,0,0-.19-.52c.86,0,1.62,0,1.84,0s.28-.07.28-.29v-2.59H60.78v3.36h-.53v-3.36h-3A6.43,6.43,0,0,1,55.83,159a1.64,1.64,0,0,0-.41-.38c1.22-1.37,1.34-3.32,1.34-4.87v-4h7.88Zm-4.39-3.1v-2.12h-3v.9c0,.38,0,.8,0,1.22Zm-3-4.7v2.07h3v-2.07Zm6.82,0H60.78v2.07h3.33Zm0,4.7v-2.12H60.78v2.12Z"/>
      <path class="cls-8" d="M69.36,149c-.19.55-.41,1.19-.6,1.66h1.92v7H67.54v.91h-.49v-7.95h1.22a14.62,14.62,0,0,0,.53-1.79Zm.81,2.15H67.54v2.63h2.63Zm0,6.06v-2.95H67.54v2.95ZM76.08,151c-.19,5.11-.34,6.78-.78,7.3a1,1,0,0,1-.77.34,12.94,12.94,0,0,1-1.58,0,1.36,1.36,0,0,0-.18-.51c.73,0,1.37.06,1.62.06s.35,0,.46-.16c.36-.4.55-2.1.71-6.8H72.48a10.77,10.77,0,0,1-1.07,2c-.09-.07-.32-.2-.46-.28a10.76,10.76,0,0,0,1.69-4.09l.51.12a14,14,0,0,1-.49,1.71h3.42Zm-2.14,4.91a19,19,0,0,0-1.79-2.57l.43-.24a19.87,19.87,0,0,1,1.8,2.52Z"/>
      <path class="cls-8" d="M17.36,163.37a26.21,26.21,0,0,1-.55,2.75h1.94v4.47h-2v1h-.48v-4a7,7,0,0,1-.59,1.16c-.08-.09-.25-.3-.36-.4a12.85,12.85,0,0,0,1.49-4.95H15.47v-.49h3.67v.49Zm.92,3.23H16.79v3.51h1.49Zm2.61-.49c-.2,2.42-.59,4.29-1.64,5.64a3.58,3.58,0,0,0-.41-.35c1-1.21,1.39-3,1.55-5.29H19.07v-.48h1.36l0-.75.51,0c0,.24,0,.47,0,.71h4.5v.48ZM25,164.62H19.66v-2.13h.47v1.66h1.93v-2h.49v2h1.9v-1.66H25Zm-1.63,1.72c0,.76-.08,1.44-.16,2a4.09,4.09,0,0,0,2.41,3.24,1.18,1.18,0,0,0-.33.38A4.15,4.15,0,0,1,23,169.3a3.83,3.83,0,0,1-2.53,2.8,1.79,1.79,0,0,0-.31-.36c2.28-.86,2.6-2.54,2.7-5.4Zm-2.44,3a5.64,5.64,0,0,0,.63-2.09l.41.07a6.15,6.15,0,0,1-.65,2.24Zm2.91-.06a15.51,15.51,0,0,0,.82-2.06l.45.18c-.29.67-.61,1.48-.9,2Z"/>
      <path class="cls-8" d="M30,167.51c-.48.16-1,.3-1.42.46v3.35c0,.35-.1.5-.31.58a4,4,0,0,1-1.25.1,2.34,2.34,0,0,0-.19-.49h1.05c.14,0,.2-.06.2-.2v-3.19l-1.48.46-.15-.53,1.63-.46v-2.67h-1.5v-.51h1.5v-2.3h.5v2.3h1.3v.51h-1.3v2.51c.44-.14.89-.28,1.36-.41Zm2.14-5.33h.5v9.91h-.5v-3h-2v-.5h2v-1.77H30.44v-.48h1.74v-1.74H30.4v-.49h1.78Zm4.25,6.94H34.37v3h-.51v-9.92h.51v1.92h1.94v.49H34.37v1.74h1.87v.48H34.37v1.82h2.06Z"/>
      <path class="cls-8" d="M41.77,166.16s0,.21,0,.29c-.09,3.67-.17,4.85-.44,5.22a.73.73,0,0,1-.61.28c-.26,0-.74,0-1.19,0a1.31,1.31,0,0,0-.15-.51c.51,0,1,0,1.15,0s.26,0,.35-.13.29-1.39.37-4.68H39.4v.19a7,7,0,0,1-1.71,5.26,2.33,2.33,0,0,0-.4-.35,6.56,6.56,0,0,0,1.61-4.92v-2.36H37.47V164h4.87v.51H39.4v1.68Zm-1.85-2.38a9,9,0,0,0-.62-1.49l.45-.17a10.41,10.41,0,0,1,.65,1.47Zm6.72.93a12.75,12.75,0,0,1-1.55,4.6,5.73,5.73,0,0,0,2.42,2.34,2,2,0,0,0-.38.44,6.08,6.08,0,0,1-2.36-2.31A7.6,7.6,0,0,1,42,172.12a2.48,2.48,0,0,0-.34-.46,6.93,6.93,0,0,0,2.84-2.37,14,14,0,0,1-1.21-3.61,9.33,9.33,0,0,1-.93,1.7,5.7,5.7,0,0,0-.44-.37,12.55,12.55,0,0,0,1.87-4.9l.54.1a18.74,18.74,0,0,1-.52,2h3.61v.51Zm-3,0a.61.61,0,0,1,0,.13,13.9,13.9,0,0,0,1.18,3.94,12.11,12.11,0,0,0,1.3-4.07Z"/>
      <path class="cls-8" d="M58.39,171.35v.45H48.48v-.45h4.67v-.77H49.36v-.43h3.79v-.73H49.72V166.7h7.56v2.72H53.67v.73h3.84v.43H53.67v.77Zm-.11-5.23H48.56v-.45h9.72Zm-1.35-1h-7v-2.65h7Zm-6.7,2.73h2.92v-.76H50.23ZM53.15,169v-.78H50.23V169Zm3.25-6.14h-6v.74h6Zm0,1.1h-6v.76h6Zm.36,3.13H53.67v.76h3.09Zm0,1.13H53.67V169h3.09Z"/>
      <path class="cls-8" d="M61.4,172.9a.35.35,0,0,1-.1.27.31.31,0,0,1-.25.11.28.28,0,0,1-.15,0,.37.37,0,0,1-.14-.14,7.32,7.32,0,0,1-.61-1.26,9.63,9.63,0,0,1-.41-1.36,13.19,13.19,0,0,1-.22-1.38c0-.46-.07-.9-.07-1.34s0-.89.07-1.36a13.19,13.19,0,0,1,.22-1.38,9.13,9.13,0,0,1,.41-1.35,7.32,7.32,0,0,1,.61-1.26.37.37,0,0,1,.14-.14.42.42,0,0,1,.15,0,.36.36,0,0,1,.35.37.49.49,0,0,1,0,.12.35.35,0,0,1,0,.13,7.13,7.13,0,0,0-.55,1.15,8.67,8.67,0,0,0-.36,1.23,10.8,10.8,0,0,0-.19,1.27q-.06.63-.06,1.26t.06,1.26a11,11,0,0,0,.19,1.26,8.67,8.67,0,0,0,.36,1.23,7.13,7.13,0,0,0,.55,1.15.31.31,0,0,1,0,.12A.49.49,0,0,1,61.4,172.9Z"/>
      <path class="cls-8" d="M66.67,170.87a.24.24,0,0,1,0,.18.33.33,0,0,1-.07.16.32.32,0,0,1-.13.1.35.35,0,0,1-.17,0,.32.32,0,0,1-.16,0,.35.35,0,0,1-.13-.16c-.25-.47-.52-.93-.82-1.39s-.6-.89-.91-1.31l-.85.87V171a.32.32,0,0,1-.1.25.36.36,0,0,1-.25.1.34.34,0,0,1-.35-.35v-7.32a.34.34,0,0,1,.35-.36.42.42,0,0,1,.25.1.35.35,0,0,1,.1.26v4.76l2.54-2.6a.3.3,0,0,1,.22-.1.34.34,0,0,1,.23.1.31.31,0,0,1,.09.22.32.32,0,0,1-.09.23L64.81,168c.34.45.67.91,1,1.4A16.19,16.19,0,0,1,66.67,170.87Z"/>
      <path class="cls-8" d="M71.53,170.92a3.87,3.87,0,0,1-.11.92,2,2,0,0,1-.35.76,1.58,1.58,0,0,1-.65.51,2.21,2.21,0,0,1-1,.19,4,4,0,0,1-.79-.07A2.92,2.92,0,0,1,68,173a.31.31,0,0,1-.21-.29.35.35,0,0,1,0-.14.44.44,0,0,1,.08-.11.31.31,0,0,1,.13-.06.38.38,0,0,1,.15,0l.55.16a2.55,2.55,0,0,0,.72.08,1.64,1.64,0,0,0,.67-.12,1.09,1.09,0,0,0,.44-.35,1.48,1.48,0,0,0,.24-.54,3.08,3.08,0,0,0,.08-.71v-.32a2.77,2.77,0,0,1-.37.22,2.5,2.5,0,0,1-.38.15,1.76,1.76,0,0,1-.37.08l-.34,0a2.15,2.15,0,0,1-.89-.16,1.31,1.31,0,0,1-.58-.45,1.83,1.83,0,0,1-.32-.69,4.15,4.15,0,0,1-.1-.91V168a3.8,3.8,0,0,1,.11-.92,1.7,1.7,0,0,1,.33-.72,1.62,1.62,0,0,1,.59-.47,2.22,2.22,0,0,1,.9-.17l.33,0,.35.09a2.48,2.48,0,0,1,.37.17,2.19,2.19,0,0,1,.37.25v-.19a.33.33,0,0,1,.1-.25.39.39,0,0,1,.25-.1.36.36,0,0,1,.25.1.33.33,0,0,1,.1.25Zm-.7-3.9a1.91,1.91,0,0,0-.7-.5,1.69,1.69,0,0,0-.35-.1l-.3,0a1.19,1.19,0,0,0-1,.41,1.94,1.94,0,0,0-.3,1.17v1a3.2,3.2,0,0,0,.06.65,1.28,1.28,0,0,0,.22.47,1,1,0,0,0,.4.29,1.51,1.51,0,0,0,.6.1l.31,0a1.64,1.64,0,0,0,.35-.09,2.43,2.43,0,0,0,.37-.16,2,2,0,0,0,.34-.25Z"/>
      <path class="cls-8" d="M72.8,171.89a.31.31,0,0,1-.16.21.33.33,0,0,1-.26,0,.28.28,0,0,1-.2-.17.34.34,0,0,1,0-.26l2.9-9a.31.31,0,0,1,.17-.2.33.33,0,0,1,.26,0,.37.37,0,0,1,.2.17.34.34,0,0,1,0,.26Z"/>
      <path class="cls-8" d="M80.63,171a.26.26,0,0,1-.1.23.41.41,0,0,1-.24.08.7.7,0,0,1-.27-.06.78.78,0,0,1-.26-.17.75.75,0,0,1-.14-.17,1.8,1.8,0,0,1-.08-.21,1.43,1.43,0,0,1-.34.31,2.09,2.09,0,0,1-.4.19l-.42.09-.39,0a2.79,2.79,0,0,1-.88-.12,1.58,1.58,0,0,1-.58-.35,1.29,1.29,0,0,1-.33-.5,1.72,1.72,0,0,1-.1-.6v-.09a1.52,1.52,0,0,1,.11-.6,1.28,1.28,0,0,1,.34-.5,1.56,1.56,0,0,1,.6-.33,3,3,0,0,1,.9-.12h1.38v-.3a4.09,4.09,0,0,0-.05-.65,1.25,1.25,0,0,0-.19-.47.91.91,0,0,0-.39-.27,1.93,1.93,0,0,0-.64-.09,2.33,2.33,0,0,0-.7.09,2.19,2.19,0,0,0-.49.21.35.35,0,0,1-.26,0,.4.4,0,0,1-.19-.15.33.33,0,0,1,0-.22.29.29,0,0,1,.15-.21,2.92,2.92,0,0,1,1.55-.38,2.61,2.61,0,0,1,1,.15,1.48,1.48,0,0,1,.6.42,1.6,1.6,0,0,1,.31.67,5,5,0,0,1,.08.91v2.16a2.33,2.33,0,0,0,0,.29.65.65,0,0,0,.06.21.31.31,0,0,0,.1.13l.14.09A.28.28,0,0,1,80.63,171Zm-1.2-2.32H78.1a2,2,0,0,0-.65.09,1,1,0,0,0-.4.22.79.79,0,0,0-.2.31,1.34,1.34,0,0,0,0,.35v.1a1.09,1.09,0,0,0,.06.36.69.69,0,0,0,.2.31.91.91,0,0,0,.39.22,2.12,2.12,0,0,0,.62.08,1.47,1.47,0,0,0,1-.32,1.31,1.31,0,0,0,.35-1Z"/>
      <path class="cls-8" d="M83.53,167.76c0,.44,0,.88-.06,1.34a13.19,13.19,0,0,1-.22,1.38,11.1,11.1,0,0,1-.4,1.36,7.37,7.37,0,0,1-.62,1.26.37.37,0,0,1-.14.14.28.28,0,0,1-.15,0,.33.33,0,0,1-.26-.11.39.39,0,0,1-.1-.27.5.5,0,0,1,0-.12.61.61,0,0,1,.05-.12,6.33,6.33,0,0,0,.54-1.15,8.67,8.67,0,0,0,.36-1.23,11,11,0,0,0,.2-1.26q.06-.65.06-1.26t-.06-1.26a10.82,10.82,0,0,0-.2-1.27,8.67,8.67,0,0,0-.36-1.23,6.33,6.33,0,0,0-.54-1.15.69.69,0,0,1-.05-.13.5.5,0,0,1,0-.12.38.38,0,0,1,.1-.26.36.36,0,0,1,.26-.11.42.42,0,0,1,.15,0,.37.37,0,0,1,.14.14,7.37,7.37,0,0,1,.62,1.26,10.47,10.47,0,0,1,.4,1.35,13.19,13.19,0,0,1,.22,1.38C83.51,166.87,83.53,167.32,83.53,167.76Z"/>
      <polygon class="cls-10" points="154.89 0 163.89 0 163.89 9 154.89 9 154.89 0 154.89 0"/>
      <path class="cls-8" d="M115.28,149.57a10,10,0,0,1,1.5,2.38l-.43.21c-.08-.18-.18-.38-.29-.6a25.2,25.2,0,0,0-3.77.34,2.3,2.3,0,0,0-.18-.52c.16,0,.31-.19.49-.44a9.82,9.82,0,0,0,1.24-2l.53.2a13.91,13.91,0,0,1-1.47,2.21l2.92-.17a15.36,15.36,0,0,0-1-1.38Zm1,8.59c0,.36-.08.51-.32.61a5.55,5.55,0,0,1-1.44.1,2.18,2.18,0,0,0-.19-.52c.6,0,1.09,0,1.24,0s.19,0,.19-.18v-1.61h-2.74v2.32h-.51V152.8h3.77Zm-3.26-4.89v1.16h2.74v-1.16Zm2.74,2.84v-1.22h-2.74v1.22Zm2.82-2.45c-.91,0-1.17-.17-1.17-.89v-3.85H118v2a22.25,22.25,0,0,0,2.89-1.09l.37.39a25.63,25.63,0,0,1-3.26,1.15v1.39c0,.33.11.41.66.41h2c.47,0,.55-.2.6-1.34a2,2,0,0,0,.49.21c-.07,1.28-.24,1.62-1,1.62Zm2.13,4.65c.49,0,.57-.23.63-1.53a1.26,1.26,0,0,0,.48.2c-.08,1.45-.24,1.8-1.09,1.8h-2.13c-.93,0-1.19-.18-1.19-.9V154H118v1.88a13.82,13.82,0,0,0,3-1.21l.36.41a15.67,15.67,0,0,1-3.4,1.25v1.53c0,.33.11.42.67.42Z"/>
      <path class="cls-8" d="M132.84,158.15v.45h-9.92v-.45h4.68v-.77h-3.79V157h3.79v-.73h-3.43V153.5h7.56v2.72h-3.61V157H132v.43h-3.84v.77Zm-.11-5.23H123v-.45h9.72Zm-1.36-1h-7v-2.65h7Zm-6.7,2.73h2.93v-.76h-2.93Zm2.93,1.15V155h-2.93v.78Zm3.25-6.14h-6v.74h6Zm0,1.1h-6v.76h6Zm.36,3.13h-3.09v.76h3.09Zm0,1.13h-3.09v.78h3.09Z"/>
      <path class="cls-8" d="M135.91,154.81v3.35c0,.37-.1.52-.33.62a4.13,4.13,0,0,1-1.33.1,2.69,2.69,0,0,0-.18-.52h1.12c.14,0,.2,0,.2-.2V155l-1.51.5-.14-.5c.45-.14,1-.31,1.65-.53v-2.75h-1.51v-.5h1.51v-2.29h.52v2.29h1.34v.5h-1.34v2.57l1.36-.46.08.48Zm4.32-.67h.52v1.08c0,1.11-.31,2.57-3.41,3.59a2,2,0,0,0-.33-.44c3-.89,3.22-2.23,3.22-3.17Zm-1.83,2.63h-.5v-3.94h5.2v3.93h-.52v-3.47H138.4Zm4.34-4.88h-4.55v-2.54h4.55Zm-.53-2.09h-3.5v1.65h3.5Zm-1,7c.89.52,2.06,1.25,2.66,1.7l-.34.4a30.6,30.6,0,0,0-2.63-1.76Z"/>
      <path class="cls-8" d="M147.52,154.28c.42.46,1.33,1.62,1.56,1.93l-.35.44c-.23-.38-.86-1.21-1.3-1.78v4h-.49v-4.16a10.41,10.41,0,0,1-1.79,2.79,3.46,3.46,0,0,0-.29-.45,9.39,9.39,0,0,0,1.83-2.78H145v-.48h2v-1.36h-1.56V152h1.56v-1.32h-1.81v-.47h1.81v-1.25h.49v1.25H149v.47h-1.59V152h1.4v.48h-1.4v1.36h1.8v.48Zm6.45,4c.39,0,.46-.3.5-1.65a1.21,1.21,0,0,0,.47.23c-.07,1.45-.21,1.86-.95,1.86h-1.65c-.8,0-1-.18-1-1v-2.23l-2.07.31-.08-.49,2.15-.32v-2l-1.82.29-.08-.47,1.9-.3v-1.86c-.61.22-1.21.41-1.81.59a1.76,1.76,0,0,0-.18-.4,16.24,16.24,0,0,0,4.32-1.84l.46.36a11.84,11.84,0,0,1-2.28,1.09v2l2.57-.41.09.48-2.66.41v2l3-.44.08.47-3,.46v2.32c0,.45.09.55.54.55Z"/>
      <path class="cls-8" d="M158.74,149c-.19.55-.41,1.19-.59,1.66h1.91v7h-3.13v.91h-.5v-7.95h1.22a14.62,14.62,0,0,0,.53-1.79Zm.82,2.15h-2.63v2.63h2.63Zm0,6.06v-2.95h-2.63v2.95Zm5.9-6.24c-.18,5.11-.34,6.78-.78,7.3a1,1,0,0,1-.77.34,12.94,12.94,0,0,1-1.58,0,1.2,1.2,0,0,0-.18-.51c.73,0,1.38.06,1.62.06s.35,0,.46-.16c.36-.4.55-2.1.72-6.8h-3.08a10.78,10.78,0,0,1-1.08,2c-.09-.07-.32-.2-.45-.28a10.75,10.75,0,0,0,1.68-4.09l.52.12a14,14,0,0,1-.5,1.71h3.42Zm-2.14,4.91a18,18,0,0,0-1.78-2.57l.42-.24a18.91,18.91,0,0,1,1.8,2.52Z"/>
      <path class="cls-8" d="M106.74,163.37a23.88,23.88,0,0,1-.55,2.75h2v4.47h-2v1h-.47v-4a7.87,7.87,0,0,1-.6,1.16c-.08-.09-.25-.3-.36-.4a12.85,12.85,0,0,0,1.49-4.95h-1.38v-.49h3.67v.49Zm.93,3.23h-1.5v3.51h1.5Zm2.6-.49c-.2,2.42-.59,4.29-1.64,5.64a2.78,2.78,0,0,0-.4-.35c1-1.21,1.38-3,1.55-5.29h-1.32v-.48h1.35l0-.75.51,0c0,.24,0,.47,0,.71h4.49v.48Zm4.06-1.49H109v-2.13h.47v1.66h1.93v-2h.49v2h1.91v-1.66h.49Zm-1.63,1.72a19.67,19.67,0,0,1-.16,2,4.09,4.09,0,0,0,2.41,3.24,1.31,1.31,0,0,0-.33.38,4.17,4.17,0,0,1-2.26-2.71,3.81,3.81,0,0,1-2.53,2.8,1.52,1.52,0,0,0-.31-.36c2.28-.86,2.6-2.54,2.7-5.4Zm-2.44,3a5.64,5.64,0,0,0,.63-2.09l.42.07a6.57,6.57,0,0,1-.65,2.24Zm2.92-.06a17,17,0,0,0,.81-2.06l.45.18c-.28.67-.6,1.48-.9,2Z"/>
      <path class="cls-8" d="M119.42,167.51,118,168v3.35c0,.35-.09.5-.3.58a4.06,4.06,0,0,1-1.26.1,3,3,0,0,0-.18-.49h1c.14,0,.2-.06.2-.2v-3.19l-1.48.46-.15-.53,1.63-.46v-2.67H116v-.51h1.5v-2.3h.5v2.3h1.3v.51H118v2.51l1.36-.41Zm2.14-5.33h.5v9.91h-.5v-3h-2v-.5h2v-1.77h-1.74v-.48h1.74v-1.74h-1.77v-.49h1.77Zm4.26,6.94h-2.07v3h-.51v-9.92h.51v1.92h2v.49h-2v1.74h1.87v.48h-1.87v1.82h2.07Z"/>
      <path class="cls-8" d="M131.15,166.16s0,.21,0,.29c-.09,3.67-.17,4.85-.44,5.22a.72.72,0,0,1-.61.28c-.26,0-.73,0-1.18,0a1.52,1.52,0,0,0-.16-.51c.51,0,1,0,1.16,0s.25,0,.34-.13.3-1.39.37-4.68h-1.83v.19a7,7,0,0,1-1.72,5.26,2,2,0,0,0-.4-.35,6.56,6.56,0,0,0,1.61-4.92v-2.36h-1.43V164h4.87v.51h-2.93v1.68Zm-1.85-2.38a9.78,9.78,0,0,0-.61-1.49l.45-.17a13.38,13.38,0,0,1,.65,1.47Zm6.72.93a12.56,12.56,0,0,1-1.55,4.6,5.73,5.73,0,0,0,2.42,2.34,2.36,2.36,0,0,0-.38.44,6.08,6.08,0,0,1-2.36-2.31,7.6,7.6,0,0,1-2.77,2.34,2.1,2.1,0,0,0-.34-.46,6.87,6.87,0,0,0,2.84-2.37,14,14,0,0,1-1.21-3.61,8.76,8.76,0,0,1-.93,1.7,3.42,3.42,0,0,0-.44-.37,12.55,12.55,0,0,0,1.87-4.9l.54.1a18.71,18.71,0,0,1-.51,2h3.6v.51Zm-3,0a.61.61,0,0,1,0,.13,13.91,13.91,0,0,0,1.19,3.94,12.57,12.57,0,0,0,1.3-4.07Z"/>
      <path class="cls-8" d="M147.77,171.35v.45h-9.91v-.45h4.68v-.77h-3.8v-.43h3.8v-.73H139.1V166.7h7.56v2.72h-3.61v.73h3.84v.43h-3.84v.77Zm-.11-5.23H138v-.45h9.71Zm-1.35-1h-7v-2.65h7Zm-6.7,2.73h2.93v-.76h-2.93Zm2.93,1.15v-.78h-2.93V169Zm3.24-6.14h-6v.74h6Zm0,1.1h-6v.76h6Zm.36,3.13h-3.09v.76h3.09Zm0,1.13h-3.09V169h3.09Z"/>
      <path class="cls-8" d="M150.79,172.9a.35.35,0,0,1-.11.27.3.3,0,0,1-.25.11.28.28,0,0,1-.15,0,.36.36,0,0,1-.13-.14,7.37,7.37,0,0,1-.62-1.26,11.16,11.16,0,0,1-.41-1.36,13.19,13.19,0,0,1-.22-1.38c0-.46-.06-.9-.06-1.34s0-.89.06-1.36a13.19,13.19,0,0,1,.22-1.38,10.51,10.51,0,0,1,.41-1.35,7.37,7.37,0,0,1,.62-1.26.36.36,0,0,1,.13-.14.42.42,0,0,1,.15,0,.33.33,0,0,1,.25.11.35.35,0,0,1,.11.26.5.5,0,0,1,0,.12.24.24,0,0,1-.05.13,7.08,7.08,0,0,0-.54,1.15,8.67,8.67,0,0,0-.36,1.23,9.07,9.07,0,0,0-.2,1.27q-.06.63-.06,1.26t.06,1.26a9.17,9.17,0,0,0,.2,1.26,8.67,8.67,0,0,0,.36,1.23,7.08,7.08,0,0,0,.54,1.15.21.21,0,0,1,.05.12A.5.5,0,0,1,150.79,172.9Z"/>
      <path class="cls-8" d="M156.06,170.87a.29.29,0,0,1,0,.18.33.33,0,0,1-.07.16.32.32,0,0,1-.13.1.33.33,0,0,1-.17,0,.34.34,0,0,1-.16,0,.43.43,0,0,1-.13-.16c-.25-.47-.52-.93-.81-1.39s-.61-.89-.92-1.31l-.85.87V171a.32.32,0,0,1-.1.25.36.36,0,0,1-.25.1.33.33,0,0,1-.25-.1.32.32,0,0,1-.1-.25v-7.32a.35.35,0,0,1,.1-.26.37.37,0,0,1,.25-.1.42.42,0,0,1,.25.1.35.35,0,0,1,.1.26v4.76l2.54-2.6a.32.32,0,0,1,.22-.1.39.39,0,0,1,.24.1.31.31,0,0,1,.09.22.32.32,0,0,1-.09.23L154.19,168c.34.45.67.91,1,1.4S155.79,170.36,156.06,170.87Z"/>
      <path class="cls-8" d="M160.91,170.92a3.87,3.87,0,0,1-.1.92,2,2,0,0,1-.36.76,1.61,1.61,0,0,1-.64.51,2.29,2.29,0,0,1-1,.19,4,4,0,0,1-.79-.07,2.92,2.92,0,0,1-.69-.2.31.31,0,0,1-.21-.29.35.35,0,0,1,0-.14.31.31,0,0,1,.09-.11.23.23,0,0,1,.12-.06.43.43,0,0,1,.16,0l.54.16a2.55,2.55,0,0,0,.72.08,1.72,1.72,0,0,0,.68-.12,1.06,1.06,0,0,0,.43-.35,1.21,1.21,0,0,0,.24-.54,3.08,3.08,0,0,0,.08-.71v-.32a2.77,2.77,0,0,1-.37.22,2.5,2.5,0,0,1-.38.15,1.63,1.63,0,0,1-.37.08l-.33,0a2.16,2.16,0,0,1-.9-.16,1.36,1.36,0,0,1-.58-.45,1.83,1.83,0,0,1-.32-.69,4.19,4.19,0,0,1-.09-.91V168a3.82,3.82,0,0,1,.1-.92,2,2,0,0,1,.33-.72,1.62,1.62,0,0,1,.59-.47,2.22,2.22,0,0,1,.9-.17l.33,0a2.7,2.7,0,0,1,.36.09,2.92,2.92,0,0,1,.36.17,2.19,2.19,0,0,1,.37.25v-.19a.33.33,0,0,1,.1-.25.42.42,0,0,1,.25-.1.34.34,0,0,1,.25.1.33.33,0,0,1,.1.25Zm-.7-3.9a2,2,0,0,0-.34-.31,2.09,2.09,0,0,0-.36-.19,1.54,1.54,0,0,0-.35-.1l-.3,0a1.15,1.15,0,0,0-1,.41,1.87,1.87,0,0,0-.31,1.17v1a2.59,2.59,0,0,0,.07.65,1,1,0,0,0,.22.47.87.87,0,0,0,.39.29,1.57,1.57,0,0,0,.6.1l.31,0a1.89,1.89,0,0,0,.36-.09,2.83,2.83,0,0,0,.36-.16,1.42,1.42,0,0,0,.34-.25Z"/>
      <path class="cls-8" d="M162.19,171.89a.36.36,0,0,1-.17.21.33.33,0,0,1-.26,0,.3.3,0,0,1-.2-.17.33.33,0,0,1,0-.26l2.89-9a.34.34,0,0,1,.17-.2.33.33,0,0,1,.26,0,.34.34,0,0,1,.22.43Z"/>
      <path class="cls-8" d="M170,171a.26.26,0,0,1-.1.23.41.41,0,0,1-.24.08.74.74,0,0,1-.27-.06.78.78,0,0,1-.26-.17A.7.7,0,0,1,169,171a1,1,0,0,1-.09-.21,1.43,1.43,0,0,1-.34.31,2.09,2.09,0,0,1-.4.19,2.59,2.59,0,0,1-.42.09l-.39,0a2.84,2.84,0,0,1-.88-.12,1.58,1.58,0,0,1-.58-.35,1.29,1.29,0,0,1-.33-.5,1.72,1.72,0,0,1-.1-.6v-.09a1.73,1.73,0,0,1,.11-.6,1.28,1.28,0,0,1,.34-.5,1.61,1.61,0,0,1,.61-.33,2.86,2.86,0,0,1,.89-.12h1.38v-.3a4.09,4.09,0,0,0-.05-.65,1.25,1.25,0,0,0-.19-.47.91.91,0,0,0-.39-.27,1.93,1.93,0,0,0-.64-.09,2.33,2.33,0,0,0-.7.09,2.19,2.19,0,0,0-.49.21.35.35,0,0,1-.26,0,.34.34,0,0,1-.18-.15.33.33,0,0,1,0-.22.31.31,0,0,1,.16-.21,2.86,2.86,0,0,1,1.54-.38,2.61,2.61,0,0,1,1,.15,1.48,1.48,0,0,1,.6.42,1.6,1.6,0,0,1,.31.67,5,5,0,0,1,.08.91v2.16a2.33,2.33,0,0,0,0,.29,1.05,1.05,0,0,0,.06.21.41.41,0,0,0,.1.13l.15.09A.28.28,0,0,1,170,171Zm-1.2-2.32h-1.33a2,2,0,0,0-.65.09,1,1,0,0,0-.39.22.62.62,0,0,0-.2.31,1,1,0,0,0-.06.35v.1a1.09,1.09,0,0,0,.06.36.69.69,0,0,0,.2.31.91.91,0,0,0,.39.22,2.15,2.15,0,0,0,.63.08,1.46,1.46,0,0,0,1-.32,1.31,1.31,0,0,0,.35-1Z"/>
      <path class="cls-8" d="M172.91,167.76c0,.44,0,.88-.06,1.34a11,11,0,0,1-.22,1.38,9.59,9.59,0,0,1-.4,1.36,7.37,7.37,0,0,1-.62,1.26.37.37,0,0,1-.14.14.28.28,0,0,1-.15,0,.3.3,0,0,1-.25-.11.35.35,0,0,1-.11-.27.5.5,0,0,1,0-.12.61.61,0,0,1,.05-.12,7.13,7.13,0,0,0,.55-1.15,10.19,10.19,0,0,0,.35-1.23,11,11,0,0,0,.2-1.26q.06-.65.06-1.26t-.06-1.26a10.82,10.82,0,0,0-.2-1.27,10.19,10.19,0,0,0-.35-1.23,7.13,7.13,0,0,0-.55-1.15.69.69,0,0,1-.05-.13.5.5,0,0,1,0-.12.35.35,0,0,1,.11-.26.33.33,0,0,1,.25-.11.42.42,0,0,1,.15,0,.37.37,0,0,1,.14.14,7.37,7.37,0,0,1,.62,1.26,9.09,9.09,0,0,1,.4,1.35,11,11,0,0,1,.22,1.38C172.89,166.87,172.91,167.32,172.91,167.76Z"/>
      <path class="cls-8" d="M212.77,149.13c-.11.17-.23.34-.35.5a13.23,13.23,0,0,0,4.73,3.25,1.29,1.29,0,0,0-.37.47,14.52,14.52,0,0,1-4.66-3.34,12.3,12.3,0,0,1-4.64,3.4,2.07,2.07,0,0,0-.37-.43,11.26,11.26,0,0,0,5.21-4.06Zm-4,5.45h6.65v4.24h-.54v-.65h-5.57v.7h-.54Zm6.05-2v.5h-5.55v-.5Zm-5.51,2.52v2.61h5.57v-2.61Z"/>
      <path class="cls-8" d="M222,156.36a3.79,3.79,0,0,0,.2.45,15.28,15.28,0,0,0-2.4,1.77,2,2,0,0,0-.31-.48,1,1,0,0,0,.5-.85v-4.32h-1.83v-.52h2.36v4.94Zm-1.06-5.14a12.85,12.85,0,0,0-1.69-1.72l.36-.33a12.83,12.83,0,0,1,1.7,1.64Zm7.13,2h-2.94v5.68h-.54V153.2h-2.87v-.53h2.87v-3.73h.54v3.73h2.94Z"/>
      <path class="cls-8" d="M231.06,159.7a.35.35,0,0,1-.11.27.31.31,0,0,1-.25.11.28.28,0,0,1-.15,0,.36.36,0,0,1-.13-.14,7.11,7.11,0,0,1-.62-1.27,10.51,10.51,0,0,1-.41-1.35,13.19,13.19,0,0,1-.22-1.38c0-.46-.06-.9-.06-1.34s0-.89.06-1.36a13.19,13.19,0,0,1,.22-1.38,10.51,10.51,0,0,1,.41-1.35,7.37,7.37,0,0,1,.62-1.26.36.36,0,0,1,.13-.14.42.42,0,0,1,.15,0,.34.34,0,0,1,.25.11.35.35,0,0,1,.11.26.5.5,0,0,1,0,.12.24.24,0,0,1,0,.13,6.71,6.71,0,0,0-.54,1.15,8.67,8.67,0,0,0-.36,1.23,9.07,9.07,0,0,0-.2,1.27q-.06.63-.06,1.26t.06,1.26a9.17,9.17,0,0,0,.2,1.26,8.67,8.67,0,0,0,.36,1.23,7.08,7.08,0,0,0,.54,1.15.21.21,0,0,1,0,.12A.5.5,0,0,1,231.06,159.7Z"/>
      <path class="cls-8" d="M236.33,157.67a.29.29,0,0,1,0,.18.33.33,0,0,1-.07.16.32.32,0,0,1-.13.1.35.35,0,0,1-.17,0,.32.32,0,0,1-.16,0,.43.43,0,0,1-.13-.16c-.25-.47-.52-.93-.81-1.39s-.61-.89-.92-1.31l-.85.87v1.68a.32.32,0,0,1-.1.25.36.36,0,0,1-.25.1.33.33,0,0,1-.25-.1.32.32,0,0,1-.1-.25v-7.32a.35.35,0,0,1,.1-.26.37.37,0,0,1,.25-.1.42.42,0,0,1,.25.1.35.35,0,0,1,.1.26v4.76l2.54-2.6a.32.32,0,0,1,.22-.1.39.39,0,0,1,.24.1.31.31,0,0,1,.09.22.32.32,0,0,1-.09.23l-1.66,1.68c.34.45.67.91,1,1.4S236.06,157.16,236.33,157.67Z"/>
      <path class="cls-8" d="M241.18,157.72a4.47,4.47,0,0,1-.1.92,2.14,2.14,0,0,1-.36.76,1.61,1.61,0,0,1-.64.51,2.29,2.29,0,0,1-1,.19,4,4,0,0,1-.79-.07,2.92,2.92,0,0,1-.69-.2.31.31,0,0,1-.21-.29.35.35,0,0,1,0-.14.31.31,0,0,1,.09-.11.23.23,0,0,1,.12-.06h.16l.54.16a2.55,2.55,0,0,0,.72.08,1.64,1.64,0,0,0,.67-.12,1,1,0,0,0,.44-.35,1.21,1.21,0,0,0,.24-.54,3.08,3.08,0,0,0,.08-.71v-.32a2.77,2.77,0,0,1-.37.22,2.5,2.5,0,0,1-.38.15,1.63,1.63,0,0,1-.37.08l-.33,0a2.16,2.16,0,0,1-.9-.16,1.36,1.36,0,0,1-.58-.45,1.83,1.83,0,0,1-.32-.69,4.15,4.15,0,0,1-.1-.91v-.88a3.8,3.8,0,0,1,.11-.92,2,2,0,0,1,.33-.72,1.62,1.62,0,0,1,.59-.47,2.22,2.22,0,0,1,.9-.17l.33,0,.36.09a2.92,2.92,0,0,1,.36.17,2.19,2.19,0,0,1,.37.25v-.19a.33.33,0,0,1,.1-.25.42.42,0,0,1,.25-.1.36.36,0,0,1,.25.1.33.33,0,0,1,.1.25Zm-.7-3.9a1.91,1.91,0,0,0-.7-.5,1.54,1.54,0,0,0-.35-.1l-.3,0a1.19,1.19,0,0,0-1,.41,1.94,1.94,0,0,0-.3,1.17v1a2.59,2.59,0,0,0,.07.65,1,1,0,0,0,.22.47.87.87,0,0,0,.39.29,1.57,1.57,0,0,0,.6.1l.31,0a1.89,1.89,0,0,0,.36-.09,2.83,2.83,0,0,0,.36-.16,1.66,1.66,0,0,0,.34-.25Z"/>
      <path class="cls-8" d="M242.46,158.69a.36.36,0,0,1-.17.21.33.33,0,0,1-.26,0,.3.3,0,0,1-.2-.17.33.33,0,0,1,0-.26l2.89-9a.34.34,0,0,1,.17-.2.33.33,0,0,1,.26,0,.34.34,0,0,1,.22.43Z"/>
      <path class="cls-8" d="M250.28,157.84a.26.26,0,0,1-.1.23.41.41,0,0,1-.24.08.74.74,0,0,1-.27-.06.78.78,0,0,1-.26-.17.52.52,0,0,1-.13-.17,1,1,0,0,1-.09-.21,1.43,1.43,0,0,1-.34.31,2.09,2.09,0,0,1-.4.19,2.59,2.59,0,0,1-.42.09l-.39,0a2.84,2.84,0,0,1-.88-.12,1.58,1.58,0,0,1-.58-.35,1.29,1.29,0,0,1-.33-.5,1.72,1.72,0,0,1-.1-.6v-.09a1.73,1.73,0,0,1,.11-.6,1.28,1.28,0,0,1,.34-.5,1.64,1.64,0,0,1,.6-.33,3,3,0,0,1,.9-.12h1.38v-.3A4,4,0,0,0,249,154a1.25,1.25,0,0,0-.19-.47.91.91,0,0,0-.39-.27,1.93,1.93,0,0,0-.64-.09,2.33,2.33,0,0,0-.7.09,2.19,2.19,0,0,0-.49.21.35.35,0,0,1-.26,0,.34.34,0,0,1-.18-.15.28.28,0,0,1-.05-.22.31.31,0,0,1,.16-.21,2.86,2.86,0,0,1,1.54-.38,2.61,2.61,0,0,1,1,.15,1.39,1.39,0,0,1,.6.42,1.6,1.6,0,0,1,.31.67,5,5,0,0,1,.08.91v2.16a2.33,2.33,0,0,0,0,.29.65.65,0,0,0,.06.21.41.41,0,0,0,.1.13l.15.09A.28.28,0,0,1,250.28,157.84Zm-1.2-2.32h-1.33a2,2,0,0,0-.65.09.91.91,0,0,0-.39.22.62.62,0,0,0-.2.31,1,1,0,0,0-.06.35v.1a1.09,1.09,0,0,0,.06.36.69.69,0,0,0,.2.31.91.91,0,0,0,.39.22,2.15,2.15,0,0,0,.63.08,1.46,1.46,0,0,0,1-.32,1.31,1.31,0,0,0,.35-1Z"/>
      <path class="cls-8" d="M253.18,154.56c0,.44,0,.88-.06,1.34a11,11,0,0,1-.22,1.38,9.09,9.09,0,0,1-.4,1.35,7.11,7.11,0,0,1-.62,1.27.37.37,0,0,1-.14.14.28.28,0,0,1-.15,0,.3.3,0,0,1-.25-.11.35.35,0,0,1-.11-.27.5.5,0,0,1,0-.12.61.61,0,0,1,.05-.12,7.13,7.13,0,0,0,.55-1.15,10.19,10.19,0,0,0,.35-1.23,11,11,0,0,0,.2-1.26q.06-.65.06-1.26t-.06-1.26a10.82,10.82,0,0,0-.2-1.27,10.19,10.19,0,0,0-.35-1.23,6.75,6.75,0,0,0-.55-1.15.69.69,0,0,1-.05-.13.5.5,0,0,1,0-.12.35.35,0,0,1,.11-.26.33.33,0,0,1,.25-.11.42.42,0,0,1,.15,0,.37.37,0,0,1,.14.14,7.37,7.37,0,0,1,.62,1.26,9.09,9.09,0,0,1,.4,1.35,11,11,0,0,1,.22,1.38C253.16,153.67,253.18,154.12,253.18,154.56Z"/>
      <path class="cls-8" d="M61.23,97.68a.37.37,0,0,1-.1.24.36.36,0,0,1-.24.09H58.07a.32.32,0,0,1-.23-.09.33.33,0,0,1-.1-.24.3.3,0,0,1,.1-.24.33.33,0,0,1,.23-.1h2.82a.37.37,0,0,1,.24.1A.33.33,0,0,1,61.23,97.68Z"/>
      <path class="cls-8" d="M67.45,100.54a.35.35,0,0,1-.1.26.37.37,0,0,1-.24.1h-4a.33.33,0,0,1-.26-.1.38.38,0,0,1-.1-.26,2.61,2.61,0,0,1,.09-.69,3.49,3.49,0,0,1,.25-.59,2.68,2.68,0,0,1,.36-.52,4.57,4.57,0,0,1,.43-.45,6,6,0,0,1,.61-.5l.64-.48.6-.47a4.09,4.09,0,0,0,.51-.51,2.26,2.26,0,0,0,.34-.58,1.6,1.6,0,0,0,.13-.67,2.18,2.18,0,0,0-.09-.63,1.48,1.48,0,0,0-.29-.52,1.5,1.5,0,0,0-.49-.35,1.91,1.91,0,0,0-.71-.13,3.08,3.08,0,0,0-.65.07,2.35,2.35,0,0,0-.51.19,1.28,1.28,0,0,0-.26.16l-.17.13-.14.1a.28.28,0,0,1-.13,0A.35.35,0,0,1,63,94a.35.35,0,0,1-.1-.26.31.31,0,0,1,0-.13.22.22,0,0,1,.09-.13A2.92,2.92,0,0,1,64,93a3.68,3.68,0,0,1,1.2-.19,2.67,2.67,0,0,1,1,.19,2.13,2.13,0,0,1,.72.51,2.45,2.45,0,0,1,.42.74,2.76,2.76,0,0,1,.13.86,2.41,2.41,0,0,1-.15.87,3,3,0,0,1-.41.71,3.59,3.59,0,0,1-.58.59c-.22.19-.44.37-.67.54l-.7.51a6.89,6.89,0,0,0-.63.55,3.67,3.67,0,0,0-.5.62,2,2,0,0,0-.28.74h3.58a.36.36,0,0,1,.24.09A.33.33,0,0,1,67.45,100.54Z"/>
      <path class="cls-8" d="M70.1,100.45a2.44,2.44,0,0,1-.11.76,1.94,1.94,0,0,1-.26.54,1,1,0,0,1-.31.31.58.58,0,0,1-.26.11.25.25,0,0,1-.15,0A.2.2,0,0,1,69,102a.25.25,0,0,1,.07-.19l.16-.17a1.54,1.54,0,0,0,.18-.23,1,1,0,0,0,.1-.38.86.86,0,0,1-.23-.06.59.59,0,0,1-.19-.13.76.76,0,0,1-.12-.19.64.64,0,0,1,0-.24.69.69,0,0,1,0-.24.64.64,0,0,1,.13-.19.72.72,0,0,1,.2-.14.61.61,0,0,1,.24,0,.55.55,0,0,1,.26,0,.53.53,0,0,1,.19.15.72.72,0,0,1,.12.21A.8.8,0,0,1,70.1,100.45Z"/>
      <path class="cls-8" d="M76.45,98.84a2,2,0,0,1-.19.89,1.85,1.85,0,0,1-.53.68,2.42,2.42,0,0,1-.81.43,3.52,3.52,0,0,1-1.06.16,3.7,3.7,0,0,1-1-.14,2.36,2.36,0,0,1-.82-.42,1.86,1.86,0,0,1-.54-.67,1.92,1.92,0,0,1-.2-.92,2,2,0,0,1,.14-.76,1.94,1.94,0,0,1,.4-.58,2.84,2.84,0,0,1,.57-.43,7.43,7.43,0,0,1,.69-.35,5.86,5.86,0,0,1-.55-.3,2.11,2.11,0,0,1-.45-.39,1.58,1.58,0,0,1-.3-.52,1.76,1.76,0,0,1-.12-.68,2.13,2.13,0,0,1,.18-.9,1.83,1.83,0,0,1,.48-.64,2,2,0,0,1,.7-.38,3,3,0,0,1,.84-.13,2.91,2.91,0,0,1,.85.13,2.13,2.13,0,0,1,.69.39,2,2,0,0,1,.46.64,2.13,2.13,0,0,1,.17.86,1.77,1.77,0,0,1-.1.63,1.86,1.86,0,0,1-.29.49,2.16,2.16,0,0,1-.44.41,3.76,3.76,0,0,1-.56.33,4.72,4.72,0,0,1,.68.32,2.5,2.5,0,0,1,.58.43,1.92,1.92,0,0,1,.4.59A2.09,2.09,0,0,1,76.45,98.84Zm-.73,0a1.42,1.42,0,0,0-.15-.68,1.71,1.71,0,0,0-.42-.47,2.92,2.92,0,0,0-.6-.34l-.71-.28c-.23.09-.46.19-.68.3a2.66,2.66,0,0,0-.59.36,1.62,1.62,0,0,0-.41.46,1.19,1.19,0,0,0-.16.64,1.47,1.47,0,0,0,.14.64,1.37,1.37,0,0,0,.38.48,1.66,1.66,0,0,0,.59.31,2.82,2.82,0,0,0,.74.1,2.67,2.67,0,0,0,.78-.11,1.65,1.65,0,0,0,.59-.31,1.3,1.3,0,0,0,.37-.48A1.41,1.41,0,0,0,75.72,98.82Zm-.39-3.95a1.71,1.71,0,0,0-.11-.62,1.4,1.4,0,0,0-.31-.44,1.36,1.36,0,0,0-.46-.28,1.95,1.95,0,0,0-1.17,0,1.29,1.29,0,0,0-.47.27,1.36,1.36,0,0,0-.32.45,1.62,1.62,0,0,0-.11.61,1.22,1.22,0,0,0,.12.56,1.42,1.42,0,0,0,.33.41,2.19,2.19,0,0,0,.48.3,6.31,6.31,0,0,0,.58.25c.19-.09.37-.17.55-.27a2.31,2.31,0,0,0,.46-.31,1.53,1.53,0,0,0,.31-.41A1.08,1.08,0,0,0,75.33,94.87Z"/>
      <path class="cls-8" d="M82.38,98.51a2.84,2.84,0,0,1-.18,1,2.25,2.25,0,0,1-.49.78,2.12,2.12,0,0,1-.75.49,2.54,2.54,0,0,1-1,.18,2.19,2.19,0,0,1-1-.21,2,2,0,0,1-.74-.58,2.91,2.91,0,0,1-.48-.93,4.22,4.22,0,0,1-.16-1.23,4.53,4.53,0,0,1,.23-1.45,6.67,6.67,0,0,1,.61-1.37A9.49,9.49,0,0,1,79.33,94c.32-.39.64-.75,1-1.08a.4.4,0,0,1,.25-.11.37.37,0,0,1,.27.11.33.33,0,0,1,.1.25.68.68,0,0,1,0,.14.35.35,0,0,1-.1.12c-.2.2-.41.42-.62.66s-.4.49-.59.75a8.63,8.63,0,0,0-.51.82,6.28,6.28,0,0,0-.4.88,2.73,2.73,0,0,1,.67-.32,2.65,2.65,0,0,1,.67-.1,2.7,2.7,0,0,1,.9.15,2.07,2.07,0,0,1,1.27,1.19A2.88,2.88,0,0,1,82.38,98.51Zm-.73,0a2,2,0,0,0-.13-.77,1.45,1.45,0,0,0-.35-.56,1.69,1.69,0,0,0-.53-.33,2.08,2.08,0,0,0-.66-.11,1.88,1.88,0,0,0-.49.06,2.41,2.41,0,0,0-.43.15,2,2,0,0,0-.35.21c-.11.07-.2.15-.29.22a3.68,3.68,0,0,0-.06.66,3.56,3.56,0,0,0,.13,1,2.25,2.25,0,0,0,.36.71,1.43,1.43,0,0,0,.52.4,1.47,1.47,0,0,0,.62.13,1.85,1.85,0,0,0,.69-.12,1.53,1.53,0,0,0,.86-.93A2.49,2.49,0,0,0,81.65,98.52Z"/>
      <path class="cls-8" d="M88.54,98.51a2.84,2.84,0,0,1-.18,1,2.38,2.38,0,0,1-.48.78,2.16,2.16,0,0,1-.76.49,2.54,2.54,0,0,1-1,.18,2.19,2.19,0,0,1-1-.21,2,2,0,0,1-.74-.58,2.91,2.91,0,0,1-.48-.93,4.22,4.22,0,0,1-.16-1.23A4.53,4.53,0,0,1,84,96.6a6.67,6.67,0,0,1,.61-1.37A9.49,9.49,0,0,1,85.49,94c.32-.39.64-.75,1-1.08a.4.4,0,0,1,.25-.11.37.37,0,0,1,.27.11.33.33,0,0,1,.1.25.68.68,0,0,1,0,.14.35.35,0,0,1-.1.12c-.2.2-.41.42-.62.66s-.4.49-.59.75a8.63,8.63,0,0,0-.51.82,6.28,6.28,0,0,0-.4.88,2.73,2.73,0,0,1,.67-.32,2.55,2.55,0,0,1,1.57,0,2.07,2.07,0,0,1,1.27,1.19A2.88,2.88,0,0,1,88.54,98.51Zm-.73,0a2,2,0,0,0-.13-.77,1.45,1.45,0,0,0-.35-.56,1.69,1.69,0,0,0-.53-.33,2.08,2.08,0,0,0-.66-.11,1.88,1.88,0,0,0-.49.06,2.41,2.41,0,0,0-.43.15,2,2,0,0,0-.35.21,2.28,2.28,0,0,0-.28.22,3,3,0,0,0-.07.66,3.56,3.56,0,0,0,.13,1,2.25,2.25,0,0,0,.36.71,1.43,1.43,0,0,0,.52.4,1.47,1.47,0,0,0,.62.13,1.85,1.85,0,0,0,.69-.12,1.39,1.39,0,0,0,.52-.36,1.47,1.47,0,0,0,.34-.57A2.49,2.49,0,0,0,87.81,98.52Z"/>
      <path class="cls-8" d="M242.05,88.09a.37.37,0,0,1-.09.25.33.33,0,0,1-.24.1H241v1.39a.37.37,0,0,1-.1.25.36.36,0,0,1-.26.11.34.34,0,0,1-.25-.11.31.31,0,0,1-.11-.25V88.44h-2.82a.33.33,0,0,1-.24-.1.36.36,0,0,1-.1-.25.34.34,0,0,1,.05-.17l2.52-5.72a.34.34,0,0,1,.19-.2.39.39,0,0,1,.28,0,.34.34,0,0,1,.19.2.32.32,0,0,1,0,.27l-2.32,5.27h2.25V86a.33.33,0,0,1,.11-.26.37.37,0,0,1,.25-.1A.34.34,0,0,1,241,86v1.79h.7a.33.33,0,0,1,.24.1A.36.36,0,0,1,242.05,88.09Z"/>
      <path class="cls-8" d="M244.58,89.63a2.55,2.55,0,0,1-.11.77,2,2,0,0,1-.26.53,1.36,1.36,0,0,1-.31.32.65.65,0,0,1-.27.1.24.24,0,0,1-.14,0,.21.21,0,0,1-.07-.15.27.27,0,0,1,.08-.19l.16-.17a1.54,1.54,0,0,0,.18-.23.91.91,0,0,0,.1-.38.6.6,0,0,1-.23-.06.59.59,0,0,1-.19-.13.64.64,0,0,1-.13-.19.59.59,0,0,1,0-.23.7.7,0,0,1,.05-.25.5.5,0,0,1,.13-.19.53.53,0,0,1,.2-.13.47.47,0,0,1,.24,0,.66.66,0,0,1,.25,0,.75.75,0,0,1,.2.15.66.66,0,0,1,.12.22A1.09,1.09,0,0,1,244.58,89.63Z"/>
      <path class="cls-8" d="M250.52,87.9a2.27,2.27,0,0,1-.16.86,2.06,2.06,0,0,1-.46.73,2.23,2.23,0,0,1-.78.5,2.8,2.8,0,0,1-1.09.19,4,4,0,0,1-.62,0,2.54,2.54,0,0,1-.56-.13,2.67,2.67,0,0,1-.51-.25,2.78,2.78,0,0,1-.47-.39.36.36,0,0,1-.13-.26.37.37,0,0,1,.1-.24.33.33,0,0,1,.24-.1.15.15,0,0,1,.11,0l.13.09.16.14.24.17a2.1,2.1,0,0,0,.6.26,3,3,0,0,0,.69.07,2.11,2.11,0,0,0,.79-.13,1.48,1.48,0,0,0,.56-.37,1.39,1.39,0,0,0,.33-.53,1.78,1.78,0,0,0,.11-.65,1.67,1.67,0,0,0-.15-.75,1.33,1.33,0,0,0-.43-.48,1.66,1.66,0,0,0-.62-.26,4.28,4.28,0,0,0-.75-.09h-.11a.21.21,0,0,1-.11,0,.28.28,0,0,1-.09-.1.44.44,0,0,1,0-.32.45.45,0,0,1,.09-.1.26.26,0,0,1,.12,0l.1,0a2.78,2.78,0,0,0,.39,0,2,2,0,0,0,.4-.11,2.76,2.76,0,0,0,.39-.18,2.08,2.08,0,0,0,.32-.27,1.4,1.4,0,0,0,.22-.38,1.44,1.44,0,0,0,.08-.49,2.15,2.15,0,0,0-.08-.55,1.33,1.33,0,0,0-.26-.5,1.27,1.27,0,0,0-.48-.36,1.81,1.81,0,0,0-.74-.14,2.31,2.31,0,0,0-.67.09,2.46,2.46,0,0,0-.52.22,1.24,1.24,0,0,0-.24.17l-.15.13-.12.1a.28.28,0,0,1-.13,0,.31.31,0,0,1-.22-.09.29.29,0,0,1-.1-.23.36.36,0,0,1,.14-.27,1.8,1.8,0,0,1,.35-.31,2.4,2.4,0,0,1,.45-.25,3.06,3.06,0,0,1,.56-.17,3.45,3.45,0,0,1,.66-.06,2.42,2.42,0,0,1,1.06.2,1.87,1.87,0,0,1,.68.51,1.93,1.93,0,0,1,.37.69,2.76,2.76,0,0,1,.11.74,1.89,1.89,0,0,1-.1.65,1.53,1.53,0,0,1-.26.51,1.69,1.69,0,0,1-.42.38,2.37,2.37,0,0,1-.53.26,2.89,2.89,0,0,1,.62.26,1.81,1.81,0,0,1,.47.4,1.79,1.79,0,0,1,.31.56A2.6,2.6,0,0,1,250.52,87.9Z"/>
      <path class="cls-8" d="M256.94,88.09a.37.37,0,0,1-.09.25.3.3,0,0,1-.24.1h-.7v1.39a.33.33,0,0,1-.1.25.34.34,0,0,1-.25.11.36.36,0,0,1-.26-.11.34.34,0,0,1-.11-.25V88.44h-2.81a.3.3,0,0,1-.24-.1.32.32,0,0,1-.1-.25.33.33,0,0,1,0-.17l2.52-5.72a.36.36,0,0,1,.2-.2.36.36,0,0,1,.27,0,.31.31,0,0,1,.19.2.32.32,0,0,1,0,.27l-2.32,5.27h2.25V86a.36.36,0,0,1,.11-.26.4.4,0,0,1,.26-.1.37.37,0,0,1,.25.1.35.35,0,0,1,.1.26v1.79h.7a.3.3,0,0,1,.24.1A.36.36,0,0,1,256.94,88.09Z"/>
      <path class="cls-8" d="M263.25,88a2.2,2.2,0,0,1-.19.9,1.92,1.92,0,0,1-.53.67,2.37,2.37,0,0,1-.82.43,3.13,3.13,0,0,1-1,.16,3.64,3.64,0,0,1-1-.14,2.34,2.34,0,0,1-.82-.41,1.89,1.89,0,0,1-.74-1.6,1.84,1.84,0,0,1,.14-.76,1.78,1.78,0,0,1,.4-.57,2.54,2.54,0,0,1,.57-.44c.22-.12.45-.24.69-.35-.19-.09-.38-.19-.55-.29a2.11,2.11,0,0,1-.45-.39,1.68,1.68,0,0,1-.3-.52,1.85,1.85,0,0,1-.12-.69,2.13,2.13,0,0,1,.18-.9,1.93,1.93,0,0,1,.48-.64,2.16,2.16,0,0,1,.7-.38,2.94,2.94,0,0,1,.84-.12,2.61,2.61,0,0,1,.85.13,2.13,2.13,0,0,1,.69.39,1.83,1.83,0,0,1,.46.63,2.14,2.14,0,0,1,.17.87,1.72,1.72,0,0,1-.1.62,1.92,1.92,0,0,1-.29.5,2.44,2.44,0,0,1-.44.4,3.76,3.76,0,0,1-.56.33,6.1,6.1,0,0,1,.68.32,2.5,2.5,0,0,1,.58.43,1.92,1.92,0,0,1,.4.59A2.09,2.09,0,0,1,263.25,88Zm-.73,0a1.26,1.26,0,0,0-.16-.67,1.57,1.57,0,0,0-.41-.48,3.22,3.22,0,0,0-.61-.34l-.7-.28-.68.3a2.66,2.66,0,0,0-.59.36,1.53,1.53,0,0,0-.41.47,1.16,1.16,0,0,0-.16.63,1.51,1.51,0,0,0,.14.65,1.37,1.37,0,0,0,.38.48,1.82,1.82,0,0,0,.59.3,2.45,2.45,0,0,0,.74.1,2.37,2.37,0,0,0,.78-.11,1.51,1.51,0,0,0,.59-.31,1.24,1.24,0,0,0,.37-.48A1.41,1.41,0,0,0,262.52,88Zm-.39-4a1.48,1.48,0,0,0-.12-.61,1.19,1.19,0,0,0-.3-.45,1.29,1.29,0,0,0-.47-.27,1.54,1.54,0,0,0-.58-.1,1.81,1.81,0,0,0-.58.09,1.29,1.29,0,0,0-.47.27,1.23,1.23,0,0,0-.32.45,1.48,1.48,0,0,0-.11.61,1.22,1.22,0,0,0,.12.56,1.3,1.3,0,0,0,.33.41,1.87,1.87,0,0,0,.48.3,6.31,6.31,0,0,0,.58.25l.55-.26a2.67,2.67,0,0,0,.46-.32,1.49,1.49,0,0,0,.31-.4A1.15,1.15,0,0,0,262.13,84.05Z"/>
      <path class="cls-11" d="M49.36,87.73A19.36,19.36,0,0,0,51.92,98a27.69,27.69,0,0,0,7.1,8.11,46,46,0,0,0,19.88,8.58l.55-4.11a42.88,42.88,0,0,1-19.22-6.15,26.15,26.15,0,0,1-7.43-7A18.82,18.82,0,0,1,49.36,87.73Z"/>
      <polygon class="cls-11" points="77.33 117.36 86.33 113.08 78.12 107.42 77.33 117.36"/>
      <path class="cls-8" d="M153.81,59.78a.34.34,0,0,1-.33.33h-2.83a.3.3,0,0,1-.23-.1.32.32,0,0,1-.09-.23.32.32,0,0,1,.09-.24.3.3,0,0,1,.23-.1h2.83a.29.29,0,0,1,.23.1A.3.3,0,0,1,153.81,59.78Z"/>
      <path class="cls-8" d="M160.3,60.94a2,2,0,0,1-.19.89,1.85,1.85,0,0,1-.53.68,2.42,2.42,0,0,1-.81.43,3.53,3.53,0,0,1-1.06.15,3.7,3.7,0,0,1-1-.13,2.65,2.65,0,0,1-.82-.42,1.86,1.86,0,0,1-.54-.67,1.92,1.92,0,0,1-.2-.92,2,2,0,0,1,.14-.76,1.94,1.94,0,0,1,.4-.58,2.51,2.51,0,0,1,.57-.43,7.43,7.43,0,0,1,.69-.35,5.86,5.86,0,0,1-.55-.3,2.11,2.11,0,0,1-.45-.39,1.58,1.58,0,0,1-.3-.52,1.76,1.76,0,0,1-.12-.68,2.13,2.13,0,0,1,.18-.9,1.83,1.83,0,0,1,.48-.64,2,2,0,0,1,.7-.38,3,3,0,0,1,.84-.13,2.91,2.91,0,0,1,.85.13,2,2,0,0,1,.69.39,2,2,0,0,1,.46.64,2.13,2.13,0,0,1,.17.86,1.77,1.77,0,0,1-.1.63,1.86,1.86,0,0,1-.29.49,2.16,2.16,0,0,1-.44.41,3.76,3.76,0,0,1-.56.33,4.72,4.72,0,0,1,.68.32,2.78,2.78,0,0,1,.58.42,1.91,1.91,0,0,1,.4.6A2.09,2.09,0,0,1,160.3,60.94Zm-.73,0a1.42,1.42,0,0,0-.15-.68,1.71,1.71,0,0,0-.42-.47,2.92,2.92,0,0,0-.6-.34l-.71-.28c-.23.09-.46.19-.68.3a3.06,3.06,0,0,0-.59.35,1.65,1.65,0,0,0-.41.47,1.19,1.19,0,0,0-.16.64,1.47,1.47,0,0,0,.14.64,1.37,1.37,0,0,0,.38.48,1.84,1.84,0,0,0,.59.31,2.82,2.82,0,0,0,.74.1,2.67,2.67,0,0,0,.78-.11,1.65,1.65,0,0,0,.59-.31,1.44,1.44,0,0,0,.38-.48A1.59,1.59,0,0,0,159.57,60.92Zm-.39-4a1.71,1.71,0,0,0-.11-.62,1.29,1.29,0,0,0-.31-.44,1.36,1.36,0,0,0-.46-.28,1.95,1.95,0,0,0-1.17,0,1.37,1.37,0,0,0-.47.27,1.36,1.36,0,0,0-.32.45,1.62,1.62,0,0,0-.11.61,1.22,1.22,0,0,0,.12.56,1.26,1.26,0,0,0,.33.4,1.89,1.89,0,0,0,.48.31,6.31,6.31,0,0,0,.58.25c.19-.09.38-.17.55-.27a2.31,2.31,0,0,0,.46-.31,1.53,1.53,0,0,0,.31-.41A1.08,1.08,0,0,0,159.18,57Z"/>
      <path class="cls-8" d="M162.68,62.55a2.18,2.18,0,0,1-.11.76,1.94,1.94,0,0,1-.26.54,1,1,0,0,1-.31.31.5.5,0,0,1-.26.11.3.3,0,0,1-.15,0,.2.2,0,0,1-.06-.15.25.25,0,0,1,.07-.19l.17-.17a1.53,1.53,0,0,0,.17-.23,1,1,0,0,0,.11-.39.64.64,0,0,1-.24-.05.46.46,0,0,1-.18-.13.59.59,0,0,1-.13-.19.6.6,0,0,1,0-.48.91.91,0,0,1,.13-.19.72.72,0,0,1,.2-.14.67.67,0,0,1,.24,0,.55.55,0,0,1,.26.05.4.4,0,0,1,.19.15.72.72,0,0,1,.12.21A.8.8,0,0,1,162.68,62.55Z"/>
      <path class="cls-8" d="M168.62,60.82a2.47,2.47,0,0,1-.15.86,2,2,0,0,1-.47.73,2.1,2.1,0,0,1-.77.5,3,3,0,0,1-1.09.18q-.33,0-.63,0a3.16,3.16,0,0,1-.55-.13,3,3,0,0,1-.51-.25,3.39,3.39,0,0,1-.48-.4.33.33,0,0,1-.12-.25.33.33,0,0,1,.1-.24.3.3,0,0,1,.23-.1l.12,0,.12.1a1.77,1.77,0,0,1,.17.14,1.91,1.91,0,0,0,.24.17,2,2,0,0,0,.6.26,2.87,2.87,0,0,0,.69.07,2.15,2.15,0,0,0,.79-.13,1.57,1.57,0,0,0,.56-.37,1.36,1.36,0,0,0,.33-.54,2,2,0,0,0,.11-.65,1.54,1.54,0,0,0-.16-.75,1.2,1.2,0,0,0-.42-.47,1.81,1.81,0,0,0-.62-.26,4.52,4.52,0,0,0-.75-.09h-.12a.27.27,0,0,1-.11,0,.24.24,0,0,1-.08-.09.29.29,0,0,1,0-.17.24.24,0,0,1,0-.15.18.18,0,0,1,.09-.1.16.16,0,0,1,.11-.05l.11,0,.38-.05a3.11,3.11,0,0,0,.41-.11,2.64,2.64,0,0,0,.38-.18,1.43,1.43,0,0,0,.32-.28,1.14,1.14,0,0,0,.22-.37,1.23,1.23,0,0,0,.08-.49,2.08,2.08,0,0,0-.07-.55,1.31,1.31,0,0,0-.74-.86,1.68,1.68,0,0,0-.75-.14,2.29,2.29,0,0,0-.66.09,2.11,2.11,0,0,0-.53.22l-.23.16-.16.14-.12.09a.16.16,0,0,1-.12,0,.29.29,0,0,1-.22-.09.26.26,0,0,1-.1-.23.38.38,0,0,1,.13-.28,2,2,0,0,1,.35-.3,2.25,2.25,0,0,1,.46-.25,2.83,2.83,0,0,1,.56-.18,3.34,3.34,0,0,1,.65-.06,2.5,2.5,0,0,1,1.06.2,2,2,0,0,1,.69.52,1.92,1.92,0,0,1,.37.69,2.76,2.76,0,0,1,.11.74,2.16,2.16,0,0,1-.1.65,2.06,2.06,0,0,1-.27.51,1.66,1.66,0,0,1-.41.38,2.9,2.9,0,0,1-.53.26,2.39,2.39,0,0,1,.61.26,1.71,1.71,0,0,1,.48.4,1.58,1.58,0,0,1,.3.56A2.27,2.27,0,0,1,168.62,60.82Z"/>
      <path class="cls-8" d="M174.78,60.82a2.47,2.47,0,0,1-.15.86,2,2,0,0,1-.47.73,2.1,2.1,0,0,1-.77.5,3,3,0,0,1-1.09.18q-.33,0-.63,0a3.16,3.16,0,0,1-.55-.13,3,3,0,0,1-.51-.25,3.39,3.39,0,0,1-.48-.4A.33.33,0,0,1,170,62a.33.33,0,0,1,.1-.24.3.3,0,0,1,.23-.1l.12,0,.13.1.16.14a1.91,1.91,0,0,0,.24.17,2,2,0,0,0,.6.26,2.87,2.87,0,0,0,.69.07,2.15,2.15,0,0,0,.79-.13,1.57,1.57,0,0,0,.56-.37,1.36,1.36,0,0,0,.33-.54,2,2,0,0,0,.11-.65,1.54,1.54,0,0,0-.16-.75,1.13,1.13,0,0,0-.42-.47,1.81,1.81,0,0,0-.62-.26,4.52,4.52,0,0,0-.75-.09H172a.27.27,0,0,1-.11,0,.24.24,0,0,1-.08-.09.29.29,0,0,1,0-.17.24.24,0,0,1,0-.15.18.18,0,0,1,.09-.1.16.16,0,0,1,.11-.05l.11,0,.38-.05a3.11,3.11,0,0,0,.41-.11,2.64,2.64,0,0,0,.38-.18,1.43,1.43,0,0,0,.32-.28,1.14,1.14,0,0,0,.22-.37,1.22,1.22,0,0,0,.09-.49,2.09,2.09,0,0,0-.08-.55,1.31,1.31,0,0,0-.74-.86,1.68,1.68,0,0,0-.75-.14,2.29,2.29,0,0,0-.66.09,1.89,1.89,0,0,0-.52.22l-.24.16-.16.14-.12.09a.16.16,0,0,1-.12,0,.29.29,0,0,1-.22-.09.26.26,0,0,1-.1-.23.38.38,0,0,1,.13-.28,2,2,0,0,1,.35-.3,2.25,2.25,0,0,1,.46-.25,2.83,2.83,0,0,1,.56-.18,3.34,3.34,0,0,1,.65-.06,2.5,2.5,0,0,1,1.06.2,2,2,0,0,1,.69.52,1.92,1.92,0,0,1,.37.69,2.76,2.76,0,0,1,.11.74,2.16,2.16,0,0,1-.1.65,1.78,1.78,0,0,1-.27.51,1.66,1.66,0,0,1-.41.38,2.9,2.9,0,0,1-.53.26,2.39,2.39,0,0,1,.61.26,1.71,1.71,0,0,1,.48.4,1.58,1.58,0,0,1,.3.56A2.27,2.27,0,0,1,174.78,60.82Z"/>
      <path class="cls-8" d="M181.13,55.32a.66.66,0,0,1,0,.23l-2.86,7.31a.39.39,0,0,1-.19.21.36.36,0,0,1-.48-.47l2.74-6.94h-3.64a.33.33,0,0,1-.24-.1.36.36,0,0,1-.09-.24.32.32,0,0,1,.33-.34h4.13a.33.33,0,0,1,.25.1A.32.32,0,0,1,181.13,55.32Z"/>
      <path class="cls-8" d="M198.7,31.85a.29.29,0,0,1-.1.23.3.3,0,0,1-.24.1h-3.94a.33.33,0,0,1-.25-.1.3.3,0,0,1-.11-.23.36.36,0,0,1,.11-.26.33.33,0,0,1,.25-.1h2V25.07l-2.15,1.48a.3.3,0,0,1-.26.06.35.35,0,0,1-.27-.41.3.3,0,0,1,.14-.22l2.67-1.84a.35.35,0,0,1,.23-.07.35.35,0,0,1,.26.1.35.35,0,0,1,.11.26v7.06h1.21a.3.3,0,0,1,.24.1A.35.35,0,0,1,198.7,31.85Z"/>
      <path class="cls-8" d="M204.84,29.79a3.09,3.09,0,0,1-.14.91,2.33,2.33,0,0,1-.45.8,2.2,2.2,0,0,1-.79.57,2.85,2.85,0,0,1-1.15.21,3.82,3.82,0,0,1-.9-.1,2.18,2.18,0,0,1-.83-.42.36.36,0,0,1-.17-.29.39.39,0,0,1,.1-.25.34.34,0,0,1,.26-.12l.1,0,.1.06a1.73,1.73,0,0,0,.61.33,2.39,2.39,0,0,0,.73.1,2,2,0,0,0,.83-.15,1.46,1.46,0,0,0,.56-.4,1.57,1.57,0,0,0,.32-.58,2.61,2.61,0,0,0,.1-.69,1.87,1.87,0,0,0-.44-1.36,1.58,1.58,0,0,0-1.19-.45,2,2,0,0,0-.51.07,1.28,1.28,0,0,0-.4.21,1.42,1.42,0,0,0-.22.18l-.14.14a.91.91,0,0,1-.13.1.24.24,0,0,1-.15,0,.32.32,0,0,1-.25-.1.31.31,0,0,1-.09-.27l.12-3.85a.31.31,0,0,1,.12-.24.37.37,0,0,1,.24-.1h3a.36.36,0,0,1,.25.1.33.33,0,0,1,.1.24.3.3,0,0,1-.1.24.33.33,0,0,1-.25.11H201.4l-.09,2.87a1.74,1.74,0,0,1,.57-.3,1.87,1.87,0,0,1,.64-.1,2.72,2.72,0,0,1,1,.17,1.94,1.94,0,0,1,.73.48,1.89,1.89,0,0,1,.45.77A3.05,3.05,0,0,1,204.84,29.79Z"/>
      <path class="cls-8" d="M207.55,31.73a2.51,2.51,0,0,1-.11.77,2.09,2.09,0,0,1-.26.54,1.29,1.29,0,0,1-.31.31.53.53,0,0,1-.27.1.24.24,0,0,1-.14-.05.18.18,0,0,1-.07-.15.27.27,0,0,1,.08-.19c0-.05.1-.1.16-.16a1.13,1.13,0,0,0,.17-.24.78.78,0,0,0,.11-.38.59.59,0,0,1-.23-.05.85.85,0,0,1-.19-.14.64.64,0,0,1-.13-.19.59.59,0,0,1,0-.23.6.6,0,0,1,.05-.24.53.53,0,0,1,.13-.2.46.46,0,0,1,.2-.13.6.6,0,0,1,.24-.05.66.66,0,0,1,.25.05.58.58,0,0,1,.19.15.61.61,0,0,1,.13.22A1.09,1.09,0,0,1,207.55,31.73Z"/>
      <path class="cls-8" d="M213.57,29.79a2.79,2.79,0,0,1-.14.91,2.33,2.33,0,0,1-.45.8,2.2,2.2,0,0,1-.79.57,2.83,2.83,0,0,1-1.14.21,3.85,3.85,0,0,1-.91-.1,2.25,2.25,0,0,1-.83-.42.34.34,0,0,1-.06-.54.3.3,0,0,1,.25-.12l.1,0,.1.06a1.82,1.82,0,0,0,.61.33,2.45,2.45,0,0,0,.74.1,2.09,2.09,0,0,0,.83-.15,1.51,1.51,0,0,0,.55-.4,1.57,1.57,0,0,0,.32-.58,2.26,2.26,0,0,0,.1-.69,1.83,1.83,0,0,0-.44-1.36,1.55,1.55,0,0,0-1.19-.45,2,2,0,0,0-.51.07,1.28,1.28,0,0,0-.4.21,1,1,0,0,0-.21.18l-.15.14a.57.57,0,0,1-.13.1.24.24,0,0,1-.15,0,.33.33,0,0,1-.25-.1.31.31,0,0,1-.09-.27l.12-3.85a.39.39,0,0,1,.12-.24.37.37,0,0,1,.24-.1h3a.37.37,0,0,1,.25.1.36.36,0,0,1,.09.24.32.32,0,0,1-.09.24.34.34,0,0,1-.25.11h-2.66l-.08,2.87a1.6,1.6,0,0,1,.56-.3,1.91,1.91,0,0,1,.64-.1,2.68,2.68,0,0,1,1,.17A1.94,1.94,0,0,1,213,28a2,2,0,0,1,.46.77A3.32,3.32,0,0,1,213.57,29.79Z"/>
      <path class="cls-8" d="M219.73,29.79a2.79,2.79,0,0,1-.14.91,2.33,2.33,0,0,1-.45.8,2.2,2.2,0,0,1-.79.57,2.83,2.83,0,0,1-1.14.21,3.85,3.85,0,0,1-.91-.1,2.25,2.25,0,0,1-.83-.42.34.34,0,0,1-.06-.54.3.3,0,0,1,.25-.12l.1,0,.1.06a1.82,1.82,0,0,0,.61.33,2.45,2.45,0,0,0,.74.1,2.09,2.09,0,0,0,.83-.15,1.51,1.51,0,0,0,.55-.4,1.57,1.57,0,0,0,.32-.58,2.26,2.26,0,0,0,.1-.69,1.83,1.83,0,0,0-.44-1.36,1.55,1.55,0,0,0-1.19-.45,1.83,1.83,0,0,0-.5.07,1.23,1.23,0,0,0-.41.21,1,1,0,0,0-.21.18l-.15.14a.57.57,0,0,1-.13.1.24.24,0,0,1-.15,0,.33.33,0,0,1-.25-.1.31.31,0,0,1-.09-.27l.12-3.85a.39.39,0,0,1,.12-.24.37.37,0,0,1,.24-.1h3a.37.37,0,0,1,.25.1.37.37,0,0,1,.1.24.33.33,0,0,1-.1.24.34.34,0,0,1-.25.11h-2.66l-.08,2.87a1.6,1.6,0,0,1,.56-.3,1.91,1.91,0,0,1,.64-.1,2.68,2.68,0,0,1,1,.17,1.94,1.94,0,0,1,.73.48,2,2,0,0,1,.46.77A3.32,3.32,0,0,1,219.73,29.79Z"/>
      <path class="cls-8" d="M225.92,31.85a.34.34,0,0,1-.34.33h-4a.36.36,0,0,1-.25-.1.29.29,0,0,1-.1-.23.35.35,0,0,1,.1-.26.36.36,0,0,1,.25-.1h2V25.07l-2.14,1.48a.32.32,0,0,1-.27.06.37.37,0,0,1-.22-.15.35.35,0,0,1,.1-.48l2.66-1.84a.35.35,0,0,1,.23-.07.35.35,0,0,1,.26.1.35.35,0,0,1,.11.26v7.06h1.22a.33.33,0,0,1,.24.1A.4.4,0,0,1,225.92,31.85Z"/>
      <path class="cls-11" d="M141.94,49.83a19.36,19.36,0,0,0,2.56,10.24,27.69,27.69,0,0,0,7.1,8.11,46,46,0,0,0,19.88,8.58l.55-4.11a42.88,42.88,0,0,1-19.22-6.15,26.42,26.42,0,0,1-7.43-7A18.82,18.82,0,0,1,141.94,49.83Z"/>
      <polygon class="cls-11" points="169.92 79.47 178.92 75.18 170.7 69.52 169.92 79.47"/>
      <path class="cls-8" d="M244.05,50.44a.34.34,0,0,1-.34.34h-2.82a.34.34,0,0,1-.23-.58.32.32,0,0,1,.23-.09h2.82a.36.36,0,0,1,.24.09A.37.37,0,0,1,244.05,50.44Z"/>
      <path class="cls-8" d="M250.23,53.32a.34.34,0,0,1-.34.34H246a.33.33,0,0,1-.25-.1.3.3,0,0,1-.11-.24.34.34,0,0,1,.11-.25A.33.33,0,0,1,246,53h2V46.54L245.8,48a.39.39,0,0,1-.26.06.35.35,0,0,1-.27-.41.28.28,0,0,1,.15-.22l2.66-1.84a.35.35,0,0,1,.23-.07.35.35,0,0,1,.26.1.35.35,0,0,1,.11.26V53h1.21a.3.3,0,0,1,.24.1A.33.33,0,0,1,250.23,53.32Z"/>
      <path class="cls-8" d="M256.39,53.32a.32.32,0,0,1-.33.34h-3.95a.33.33,0,0,1-.25-.1.3.3,0,0,1-.11-.24.34.34,0,0,1,.11-.25.33.33,0,0,1,.25-.1h2V46.54L252,48a.39.39,0,0,1-.26.06.35.35,0,0,1-.27-.41.28.28,0,0,1,.15-.22l2.66-1.84a.35.35,0,0,1,.23-.07.35.35,0,0,1,.26.1.35.35,0,0,1,.11.26V53h1.22a.33.33,0,0,1,.24.1A.37.37,0,0,1,256.39,53.32Z"/>
      <path class="cls-8" d="M259.08,53.21A2.55,2.55,0,0,1,259,54a2,2,0,0,1-.26.53,1.36,1.36,0,0,1-.31.32.65.65,0,0,1-.27.1.24.24,0,0,1-.14,0,.21.21,0,0,1-.07-.15.27.27,0,0,1,.08-.19l.16-.17a1.54,1.54,0,0,0,.18-.23.91.91,0,0,0,.1-.38.6.6,0,0,1-.23-.06.59.59,0,0,1-.19-.13.64.64,0,0,1-.13-.19.59.59,0,0,1,0-.23.7.7,0,0,1,0-.25.5.5,0,0,1,.13-.19.53.53,0,0,1,.2-.13.47.47,0,0,1,.24,0,.66.66,0,0,1,.25,0,.75.75,0,0,1,.2.15A.66.66,0,0,1,259,53,1.09,1.09,0,0,1,259.08,53.21Z"/>
      <path class="cls-8" d="M265.16,53.31a.33.33,0,0,1-.1.25.33.33,0,0,1-.24.1h-4a.33.33,0,0,1-.26-.1.35.35,0,0,1-.09-.25,2.5,2.5,0,0,1,.09-.69,2.85,2.85,0,0,1,.6-1.12,3.58,3.58,0,0,1,.43-.44,7.49,7.49,0,0,1,.61-.51l.64-.48c.21-.15.41-.31.6-.47a4.09,4.09,0,0,0,.51-.51,2.39,2.39,0,0,0,.34-.57,1.68,1.68,0,0,0,.13-.68,2.06,2.06,0,0,0-.09-.62,1.4,1.4,0,0,0-.29-.52,1.26,1.26,0,0,0-.49-.35,1.7,1.7,0,0,0-.71-.13,3.2,3.2,0,0,0-.65.06,2.35,2.35,0,0,0-.51.19,2,2,0,0,0-.26.16l-.17.13-.13.1a.32.32,0,0,1-.14,0,.33.33,0,0,1-.24-.1.36.36,0,0,1-.11-.26.35.35,0,0,1,0-.13.51.51,0,0,1,.09-.13,2.85,2.85,0,0,1,.91-.54,3.61,3.61,0,0,1,1.2-.18,2.44,2.44,0,0,1,1,.19,1.89,1.89,0,0,1,.72.51A2,2,0,0,1,265,47a2.8,2.8,0,0,1,.13.86,2.41,2.41,0,0,1-.15.87,3.09,3.09,0,0,1-.4.71,5.45,5.45,0,0,1-.58.6l-.68.53-.7.52a5.57,5.57,0,0,0-.63.54,3.67,3.67,0,0,0-.5.62,2.07,2.07,0,0,0-.28.74h3.58a.33.33,0,0,1,.24.1A.3.3,0,0,1,265.16,53.31Z"/>
      <path class="cls-8" d="M271.49,50.86a4.34,4.34,0,0,1-.14,1.09,2.66,2.66,0,0,1-.44.93,2.19,2.19,0,0,1-.77.64,2.52,2.52,0,0,1-1.14.24,2.46,2.46,0,0,1-1.14-.24,2.19,2.19,0,0,1-.77-.64,2.85,2.85,0,0,1-.44-.93,4.34,4.34,0,0,1-.13-1.09V48.45a4.34,4.34,0,0,1,.13-1.09,2.85,2.85,0,0,1,.44-.93,2.19,2.19,0,0,1,.77-.64,2.46,2.46,0,0,1,1.14-.24,2.52,2.52,0,0,1,1.14.24,2.19,2.19,0,0,1,.77.64,2.66,2.66,0,0,1,.44.93,4.34,4.34,0,0,1,.14,1.09Zm-.73-2.38a3.71,3.71,0,0,0-.1-.9,2.2,2.2,0,0,0-.32-.71,1.55,1.55,0,0,0-.55-.47,1.64,1.64,0,0,0-.79-.17,1.69,1.69,0,0,0-.8.17,1.44,1.44,0,0,0-.54.47,2.2,2.2,0,0,0-.32.71,4.28,4.28,0,0,0-.1.9v2.36a4.11,4.11,0,0,0,.1.89,2.2,2.2,0,0,0,.32.71,1.53,1.53,0,0,0,.54.47,1.81,1.81,0,0,0,.8.17,1.77,1.77,0,0,0,.79-.17,1.66,1.66,0,0,0,.55-.47,2.2,2.2,0,0,0,.32-.71,3.57,3.57,0,0,0,.1-.89Z"/>
      <path class="cls-8" d="M277.34,51.48a2.27,2.27,0,0,1-.16.86,2.06,2.06,0,0,1-.46.73,2.23,2.23,0,0,1-.78.5,2.8,2.8,0,0,1-1.09.19,4,4,0,0,1-.62,0,2.54,2.54,0,0,1-.56-.13,3,3,0,0,1-.51-.25,2.78,2.78,0,0,1-.47-.39.36.36,0,0,1-.13-.26.37.37,0,0,1,.1-.24.33.33,0,0,1,.24-.1.15.15,0,0,1,.11,0l.13.09.16.14.24.17a2.1,2.1,0,0,0,.6.26,3,3,0,0,0,.69.07,2.11,2.11,0,0,0,.79-.13,1.48,1.48,0,0,0,.56-.37,1.39,1.39,0,0,0,.33-.53,1.78,1.78,0,0,0,.12-.65,1.67,1.67,0,0,0-.16-.75,1.33,1.33,0,0,0-.43-.48,1.66,1.66,0,0,0-.62-.26,4.28,4.28,0,0,0-.75-.09h-.11a.21.21,0,0,1-.11,0,.28.28,0,0,1-.09-.1.44.44,0,0,1,0-.32.45.45,0,0,1,.09-.1.26.26,0,0,1,.12,0l.1,0a2.78,2.78,0,0,0,.39,0,2,2,0,0,0,.4-.11,2.76,2.76,0,0,0,.39-.18,2.08,2.08,0,0,0,.32-.27,1.4,1.4,0,0,0,.22-.38,1.44,1.44,0,0,0,.08-.49,2.15,2.15,0,0,0-.08-.55,1.33,1.33,0,0,0-.26-.5,1.27,1.27,0,0,0-.48-.36,1.81,1.81,0,0,0-.74-.14,2.19,2.19,0,0,0-.66.09,2.35,2.35,0,0,0-.53.22,1.24,1.24,0,0,0-.24.17l-.15.13-.12.1a.28.28,0,0,1-.13,0,.31.31,0,0,1-.22-.09.29.29,0,0,1-.1-.23.36.36,0,0,1,.14-.27,1.8,1.8,0,0,1,.35-.31,2.76,2.76,0,0,1,.45-.25,3.06,3.06,0,0,1,.56-.17,3.45,3.45,0,0,1,.66-.06,2.42,2.42,0,0,1,1.06.2,1.87,1.87,0,0,1,.68.51A1.79,1.79,0,0,1,277,47a2.76,2.76,0,0,1,.11.74,1.89,1.89,0,0,1-.1.65,1.53,1.53,0,0,1-.26.51,1.69,1.69,0,0,1-.42.38,2.37,2.37,0,0,1-.53.26,2.89,2.89,0,0,1,.62.26,1.81,1.81,0,0,1,.47.4,1.74,1.74,0,0,1,.31.57A2.49,2.49,0,0,1,277.34,51.48Z"/>
      <path class="cls-11" d="M232.18,40.49a19.23,19.23,0,0,0,2.56,10.24,27.86,27.86,0,0,0,7.1,8.12,46,46,0,0,0,19.87,8.57l.56-4.11a42.88,42.88,0,0,1-19.22-6.15,26,26,0,0,1-7.43-7A18.73,18.73,0,0,1,232.18,40.49Z"/>
      <polygon class="cls-11" points="260.15 70.13 269.15 65.84 260.94 60.19 260.15 70.13"/>
      <path class="cls-8" d="M69.77,136.05a2,2,0,0,1-.19.89,1.82,1.82,0,0,1-.53.67,2.42,2.42,0,0,1-.81.44,3.53,3.53,0,0,1-1.06.15,3.75,3.75,0,0,1-1-.14,2.43,2.43,0,0,1-.82-.41,2,2,0,0,1-.54-.67,2.11,2.11,0,0,1-.2-.92,2,2,0,0,1,.14-.77,1.9,1.9,0,0,1,.4-.57,3.09,3.09,0,0,1,.57-.44c.22-.12.45-.24.69-.35a4.63,4.63,0,0,1-.54-.29,1.89,1.89,0,0,1-.76-.91A1.82,1.82,0,0,1,65,132a2.29,2.29,0,0,1,.17-.9,1.79,1.79,0,0,1,.48-.63,2.23,2.23,0,0,1,.71-.39,2.82,2.82,0,0,1,.83-.12,2.57,2.57,0,0,1,.85.13,1.94,1.94,0,0,1,.69.39,1.71,1.71,0,0,1,.46.63,2,2,0,0,1,.17.87,1.72,1.72,0,0,1-.1.62,1.68,1.68,0,0,1-.29.5,2.35,2.35,0,0,1-.43.4,4.34,4.34,0,0,1-.56.33c.23.1.46.2.68.32a2.67,2.67,0,0,1,.57.43,1.8,1.8,0,0,1,.4.6A2.05,2.05,0,0,1,69.77,136.05Zm-.72,0a1.38,1.38,0,0,0-.16-.67,1.91,1.91,0,0,0-.42-.48,2.85,2.85,0,0,0-.6-.34l-.71-.28-.68.3a4.2,4.2,0,0,0-.59.36,1.53,1.53,0,0,0-.41.47,1.25,1.25,0,0,0-.16.63,1.51,1.51,0,0,0,.14.65,1.29,1.29,0,0,0,.39.48,1.77,1.77,0,0,0,.58.3,2.84,2.84,0,0,0,1.53,0,1.58,1.58,0,0,0,.59-.31,1.35,1.35,0,0,0,.37-.48A1.52,1.52,0,0,0,69.05,136Zm-.4-3.94a1.67,1.67,0,0,0-.11-.62,1.21,1.21,0,0,0-.31-.45,1.24,1.24,0,0,0-.46-.27,1.63,1.63,0,0,0-.59-.1,1.79,1.79,0,0,0-.57.09,1.22,1.22,0,0,0-.48.28,1.17,1.17,0,0,0-.31.44,1.49,1.49,0,0,0-.12.62,1.18,1.18,0,0,0,.12.55,1.3,1.3,0,0,0,.33.41,2.33,2.33,0,0,0,.48.31c.18.08.38.17.58.24l.55-.26a2.33,2.33,0,0,0,.46-.32,1.31,1.31,0,0,0,.31-.4A1.11,1.11,0,0,0,68.65,132.08Z"/>
      <path class="cls-8" d="M75.61,135.71a3.14,3.14,0,0,1-.14.91,2.2,2.2,0,0,1-.46.8,2.08,2.08,0,0,1-.78.57,2.85,2.85,0,0,1-1.15.21,3.76,3.76,0,0,1-.9-.11,2.08,2.08,0,0,1-.83-.41.36.36,0,0,1-.17-.29.35.35,0,0,1,.1-.25.32.32,0,0,1,.25-.12l.11,0,.1.06a1.91,1.91,0,0,0,.61.33,2.39,2.39,0,0,0,.73.1,2.05,2.05,0,0,0,.83-.15,1.54,1.54,0,0,0,.56-.4,1.73,1.73,0,0,0,.32-.58,2.61,2.61,0,0,0,.1-.69,1.85,1.85,0,0,0-.44-1.36,1.58,1.58,0,0,0-1.19-.45,1.61,1.61,0,0,0-.51.07,1.23,1.23,0,0,0-.41.21l-.21.18-.14.14a.91.91,0,0,1-.13.1.24.24,0,0,1-.15,0,.32.32,0,0,1-.25-.1.32.32,0,0,1-.09-.27l.12-3.85a.34.34,0,0,1,.11-.24.42.42,0,0,1,.25-.1h3a.37.37,0,0,1,.25.1.33.33,0,0,1,.1.24.31.31,0,0,1-.1.24.34.34,0,0,1-.25.11H72.17l-.09,2.87a1.7,1.7,0,0,1,.56-.3,2,2,0,0,1,.65-.1,2.72,2.72,0,0,1,1,.17,1.88,1.88,0,0,1,.73.47,2.13,2.13,0,0,1,.45.78A3.05,3.05,0,0,1,75.61,135.71Z"/>
      <path class="cls-8" d="M21.22,110.84a.34.34,0,0,1-.11.25.3.3,0,0,1-.24.1h-4a.33.33,0,0,1-.26-.1.37.37,0,0,1-.09-.25,2.63,2.63,0,0,1,.09-.7,2.81,2.81,0,0,1,.24-.59,4,4,0,0,1,.36-.52,6.14,6.14,0,0,1,.43-.45,8,8,0,0,1,.62-.5l.63-.48.61-.47a3.43,3.43,0,0,0,.5-.51,2.3,2.3,0,0,0,.35-.58,1.78,1.78,0,0,0,.13-.67,1.89,1.89,0,0,0-.1-.63,1.36,1.36,0,0,0-.29-.51,1.3,1.3,0,0,0-.49-.36,1.85,1.85,0,0,0-.71-.12,3.2,3.2,0,0,0-.65.06,2.47,2.47,0,0,0-.5.19,1.13,1.13,0,0,0-.27.16l-.17.13-.13.1a.32.32,0,0,1-.14,0,.33.33,0,0,1-.24-.1.36.36,0,0,1-.11-.26.35.35,0,0,1,0-.13.51.51,0,0,1,.09-.13,3,3,0,0,1,.91-.54,3.6,3.6,0,0,1,1.2-.19,2.67,2.67,0,0,1,1,.19,2.19,2.19,0,0,1,.71.51,2.09,2.09,0,0,1,.42.74,2.82,2.82,0,0,1,.14.86,2.21,2.21,0,0,1-.16.87,2.76,2.76,0,0,1-.4.71,4.66,4.66,0,0,1-.58.6l-.68.53-.69.52a4.92,4.92,0,0,0-.64.54,3.18,3.18,0,0,0-.49.62,1.84,1.84,0,0,0-.28.74h3.57a.3.3,0,0,1,.24.1A.3.3,0,0,1,21.22,110.84Z"/>
      <path class="cls-8" d="M23.87,110.74a2.16,2.16,0,0,1-.12.76,1.94,1.94,0,0,1-.26.54,1.19,1.19,0,0,1-.31.32.57.57,0,0,1-.26.1.24.24,0,0,1-.14,0,.18.18,0,0,1-.07-.15.25.25,0,0,1,.07-.19l.17-.17a1.06,1.06,0,0,0,.17-.23,1,1,0,0,0,.11-.38.77.77,0,0,1-.23-.06.43.43,0,0,1-.19-.13.5.5,0,0,1-.13-.19.64.64,0,0,1-.05-.24.69.69,0,0,1,.05-.24.58.58,0,0,1,.57-.37.53.53,0,0,1,.26,0,.58.58,0,0,1,.19.15.72.72,0,0,1,.12.21A.86.86,0,0,1,23.87,110.74Z"/>
      <path class="cls-8" d="M30.06,106a4.58,4.58,0,0,1-.11,1,5.36,5.36,0,0,1-.29.94,6.24,6.24,0,0,1-.44.9,8.24,8.24,0,0,1-.55.85,9.82,9.82,0,0,1-.62.79c-.22.25-.44.48-.66.7a.34.34,0,0,1-.25.11.36.36,0,0,1-.26-.11.42.42,0,0,1-.1-.26.38.38,0,0,1,.11-.25c.21-.2.41-.42.62-.66s.41-.49.6-.75.36-.54.52-.83a5.69,5.69,0,0,0,.4-.87,2.73,2.73,0,0,1-.67.32,2.8,2.8,0,0,1-.68.1,2.7,2.7,0,0,1-.9-.15,1.89,1.89,0,0,1-.75-.44,2,2,0,0,1-.51-.75,2.69,2.69,0,0,1-.19-1.07,2.84,2.84,0,0,1,.17-1,2.4,2.4,0,0,1,.49-.78,2.12,2.12,0,0,1,.75-.49,2.59,2.59,0,0,1,1-.18,2.18,2.18,0,0,1,1,.21,2,2,0,0,1,.74.58,2.75,2.75,0,0,1,.47.92A4.32,4.32,0,0,1,30.06,106Zm-.73,0a3.44,3.44,0,0,0-.13-1,2,2,0,0,0-.35-.71,1.46,1.46,0,0,0-.52-.41,1.67,1.67,0,0,0-.62-.12,1.85,1.85,0,0,0-.69.12,1.26,1.26,0,0,0-.52.35,1.59,1.59,0,0,0-.33.57,2.19,2.19,0,0,0-.11.75,2.28,2.28,0,0,0,.12.78,1.45,1.45,0,0,0,.35.55,1.39,1.39,0,0,0,.53.33,2,2,0,0,0,1.15.05l.42-.14a2.12,2.12,0,0,0,.36-.21c.11-.07.2-.15.29-.22s0-.22,0-.33S29.33,106.14,29.33,106Z"/>
      <path class="cls-8" d="M36.05,108.79a3.16,3.16,0,0,1-.14.92,2.33,2.33,0,0,1-.45.8,2.3,2.3,0,0,1-.79.56,2.68,2.68,0,0,1-1.15.22,3.82,3.82,0,0,1-.9-.11,2.22,2.22,0,0,1-.83-.41.38.38,0,0,1-.17-.3.36.36,0,0,1,.1-.25.34.34,0,0,1,.25-.11l.11,0a.27.27,0,0,1,.1.06,1.91,1.91,0,0,0,.61.33,2.39,2.39,0,0,0,.73.1,2.05,2.05,0,0,0,.83-.15,1.54,1.54,0,0,0,.56-.4,1.77,1.77,0,0,0,.32-.59,2.61,2.61,0,0,0,.1-.69,1.88,1.88,0,0,0-.44-1.36,1.85,1.85,0,0,0-1.7-.37,1.25,1.25,0,0,0-.4.2l-.22.18-.14.15-.13.1a.33.33,0,0,1-.15,0,.35.35,0,0,1-.25-.09.32.32,0,0,1-.09-.27l.12-3.85a.29.29,0,0,1,.12-.24.33.33,0,0,1,.24-.1h3a.32.32,0,0,1,.25.1.34.34,0,0,1,0,.48.32.32,0,0,1-.25.1H32.61l-.09,2.88a1.94,1.94,0,0,1,.56-.31,2.27,2.27,0,0,1,.65-.09,2.72,2.72,0,0,1,1,.16,1.94,1.94,0,0,1,.73.48,2.18,2.18,0,0,1,.45.77A3.13,3.13,0,0,1,36.05,108.79Z"/>
      <path class="cls-8" d="M42.23,110.85a.33.33,0,0,1-.1.24.3.3,0,0,1-.24.1H38a.33.33,0,0,1-.25-.1.34.34,0,0,1-.11-.24.34.34,0,0,1,.11-.25.33.33,0,0,1,.25-.1h2v-6.43l-2.15,1.48a.3.3,0,0,1-.26.06.3.3,0,0,1-.22-.14.34.34,0,0,1,0-.26.27.27,0,0,1,.15-.22l2.66-1.84a.36.36,0,0,1,.23-.08.36.36,0,0,1,.26.11.33.33,0,0,1,.11.25v7.07h1.21a.3.3,0,0,1,.24.1A.33.33,0,0,1,42.23,110.85Z"/>
      <path class="cls-8" d="M152.93,93.53a.37.37,0,0,1-.09.25.31.31,0,0,1-.24.1h-.7v1.39a.37.37,0,0,1-.1.25.36.36,0,0,1-.26.11.34.34,0,0,1-.25-.11.31.31,0,0,1-.11-.25V93.88h-2.82a.29.29,0,0,1-.23-.1.32.32,0,0,1-.1-.25.33.33,0,0,1,0-.17l2.52-5.73a.35.35,0,0,1,.19-.19.39.39,0,0,1,.28,0,.34.34,0,0,1,.19.2.32.32,0,0,1,0,.27l-2.32,5.27h2.25v-1.8a.31.31,0,0,1,.11-.25.33.33,0,0,1,.25-.1.35.35,0,0,1,.26.1.37.37,0,0,1,.1.25v1.8h.7a.31.31,0,0,1,.24.1A.32.32,0,0,1,152.93,93.53Z"/>
      <path class="cls-8" d="M155.46,95.07a2.44,2.44,0,0,1-.11.76,1.94,1.94,0,0,1-.26.54,1.19,1.19,0,0,1-.31.32.65.65,0,0,1-.27.1.24.24,0,0,1-.14-.05.2.2,0,0,1-.06-.15.25.25,0,0,1,.07-.19l.16-.17a1.54,1.54,0,0,0,.18-.23,1,1,0,0,0,.1-.38.86.86,0,0,1-.23-.06.59.59,0,0,1-.19-.13.62.62,0,0,1-.12-.19.64.64,0,0,1-.05-.24.69.69,0,0,1,.05-.24.5.5,0,0,1,.13-.19.72.72,0,0,1,.2-.14.61.61,0,0,1,.24,0,.58.58,0,0,1,.26,0,.9.9,0,0,1,.19.15.72.72,0,0,1,.12.21A.84.84,0,0,1,155.46,95.07Z"/>
      <path class="cls-8" d="M161.55,95.17a.34.34,0,0,1-.11.25.31.31,0,0,1-.24.1h-4a.33.33,0,0,1-.26-.1.37.37,0,0,1-.09-.25,2.63,2.63,0,0,1,.09-.7,2.81,2.81,0,0,1,.24-.59,2.68,2.68,0,0,1,.36-.52,4.57,4.57,0,0,1,.43-.45c.19-.17.4-.34.61-.5l.64-.48c.21-.16.41-.31.6-.47a3.51,3.51,0,0,0,.51-.51,2.63,2.63,0,0,0,.35-.58,1.78,1.78,0,0,0,.12-.67,2.18,2.18,0,0,0-.09-.63,1.36,1.36,0,0,0-.29-.51,1.39,1.39,0,0,0-.49-.36,1.88,1.88,0,0,0-.71-.12,3.2,3.2,0,0,0-.65.06,2.26,2.26,0,0,0-.5.19,1.13,1.13,0,0,0-.27.16l-.17.13-.13.1a.32.32,0,0,1-.14,0,.33.33,0,0,1-.24-.1.36.36,0,0,1-.11-.26.35.35,0,0,1,0-.13.51.51,0,0,1,.09-.13,2.85,2.85,0,0,1,.91-.54,3.6,3.6,0,0,1,1.2-.19,2.61,2.61,0,0,1,1,.19,2.13,2.13,0,0,1,.72.51,2.09,2.09,0,0,1,.42.74,2.82,2.82,0,0,1,.14.86,2.41,2.41,0,0,1-.16.87,3.09,3.09,0,0,1-.4.71,4.66,4.66,0,0,1-.58.6l-.68.53-.7.52a5.57,5.57,0,0,0-.63.54,3.67,3.67,0,0,0-.5.62,2,2,0,0,0-.28.74h3.58a.31.31,0,0,1,.24.1A.3.3,0,0,1,161.55,95.17Z"/>
      <path class="cls-8" d="M167.74,93.13a2.84,2.84,0,0,1-.18,1,2.16,2.16,0,0,1-.49.78,2,2,0,0,1-.75.49,2.54,2.54,0,0,1-1,.18,2.19,2.19,0,0,1-1-.21,2,2,0,0,1-.74-.58,2.77,2.77,0,0,1-.48-.92,4.33,4.33,0,0,1-.16-1.24,4.43,4.43,0,0,1,.23-1.44,6.52,6.52,0,0,1,.61-1.38,9.49,9.49,0,0,1,.85-1.25c.32-.39.64-.75,1-1.08a.4.4,0,0,1,.25-.11.37.37,0,0,1,.27.11.33.33,0,0,1,.1.25.32.32,0,0,1,0,.14.24.24,0,0,1-.09.12c-.2.2-.41.42-.62.66s-.4.49-.59.75a7.93,7.93,0,0,0-.51.82,6.28,6.28,0,0,0-.4.88,2.38,2.38,0,0,1,.67-.31,2.29,2.29,0,0,1,.67-.11,2.74,2.74,0,0,1,.9.15,2.18,2.18,0,0,1,.75.44,2.14,2.14,0,0,1,.52.75A2.92,2.92,0,0,1,167.74,93.13Zm-.73,0a2.06,2.06,0,0,0-.13-.78,1.45,1.45,0,0,0-.35-.56,1.69,1.69,0,0,0-.53-.33,2.08,2.08,0,0,0-.66-.11,2,2,0,0,0-.5.06,2.6,2.6,0,0,0-.42.15,2,2,0,0,0-.35.21c-.11.07-.2.15-.29.22a3.68,3.68,0,0,0-.06.66,3.56,3.56,0,0,0,.13,1,2.15,2.15,0,0,0,.36.71,1.33,1.33,0,0,0,.52.4,1.47,1.47,0,0,0,.62.13,1.88,1.88,0,0,0,.69-.12,1.47,1.47,0,0,0,.52-.36,1.5,1.5,0,0,0,.34-.56A2.58,2.58,0,0,0,167,93.15Z"/>
      <path class="cls-8" d="M173.72,93.34a2.27,2.27,0,0,1-.16.86,1.93,1.93,0,0,1-.46.73,2.14,2.14,0,0,1-.78.5,3,3,0,0,1-1.09.19,5.87,5.87,0,0,1-.62,0,3.27,3.27,0,0,1-.56-.13,4,4,0,0,1-.51-.25,2.86,2.86,0,0,1-.47-.4.32.32,0,0,1-.12-.25.33.33,0,0,1,.1-.24.29.29,0,0,1,.23-.1.2.2,0,0,1,.11,0l.13.1.16.14.24.17a2.23,2.23,0,0,0,.6.26,3,3,0,0,0,.69.07,2.11,2.11,0,0,0,.79-.13,1.48,1.48,0,0,0,.56-.37,1.55,1.55,0,0,0,.34-.53,2,2,0,0,0,.11-.65,1.71,1.71,0,0,0-.16-.76,1.22,1.22,0,0,0-.43-.47,1.66,1.66,0,0,0-.62-.26,4.28,4.28,0,0,0-.74-.09h-.12l-.11,0a.43.43,0,0,1-.09-.1.38.38,0,0,1,0-.16.25.25,0,0,1,0-.16.27.27,0,0,1,.08-.1.31.31,0,0,1,.12-.05l.11,0,.38,0a3,3,0,0,0,.4-.11,2.32,2.32,0,0,0,.39-.18,1.69,1.69,0,0,0,.32-.27,1.57,1.57,0,0,0,.22-.38,1.44,1.44,0,0,0,.08-.49,2.09,2.09,0,0,0-.08-.55,1.31,1.31,0,0,0-.74-.86,1.66,1.66,0,0,0-.74-.14,2.19,2.19,0,0,0-.66.09,2.35,2.35,0,0,0-.53.22,2,2,0,0,0-.24.16l-.15.14-.12.1a.28.28,0,0,1-.13,0,.33.33,0,0,1-.22-.09.29.29,0,0,1-.1-.23.4.4,0,0,1,.14-.28,2.11,2.11,0,0,1,.35-.3,2.76,2.76,0,0,1,.45-.25,2.44,2.44,0,0,1,.56-.17,2.84,2.84,0,0,1,.66-.07,2.41,2.41,0,0,1,1.06.21,1.87,1.87,0,0,1,.68.51,1.79,1.79,0,0,1,.37.69,2.76,2.76,0,0,1,.11.74,1.89,1.89,0,0,1-.1.65,1.53,1.53,0,0,1-.26.51,1.69,1.69,0,0,1-.42.38,2.37,2.37,0,0,1-.53.26,2.89,2.89,0,0,1,.62.26,1.81,1.81,0,0,1,.47.4,1.59,1.59,0,0,1,.31.56A2.55,2.55,0,0,1,173.72,93.34Z"/>
      <path class="cls-8" d="M108.42,41.52a.33.33,0,0,1-.1.24.37.37,0,0,1-.24.1h-4a.37.37,0,0,1-.24-.1.34.34,0,0,1-.11-.24.36.36,0,0,1,.11-.26.37.37,0,0,1,.24-.1h2V34.74L104,36.22a.31.31,0,0,1-.26.06.32.32,0,0,1-.22-.15.34.34,0,0,1-.05-.26.32.32,0,0,1,.14-.22l2.67-1.84a.33.33,0,0,1,.23-.07.37.37,0,0,1,.26.1.35.35,0,0,1,.1.26v7.06h1.22a.37.37,0,0,1,.24.1A.35.35,0,0,1,108.42,41.52Z"/>
      <path class="cls-8" d="M114.62,41.5a.32.32,0,0,1-.1.25.34.34,0,0,1-.24.11h-4a.38.38,0,0,1-.26-.1.39.39,0,0,1-.09-.26,2.5,2.5,0,0,1,.09-.69,2.63,2.63,0,0,1,.25-.6,3.64,3.64,0,0,1,.35-.52,6,6,0,0,1,.43-.44,7.64,7.64,0,0,1,.62-.51l.64-.47.6-.48a3.93,3.93,0,0,0,.5-.5,2.49,2.49,0,0,0,.35-.58,1.63,1.63,0,0,0,.13-.67,2.18,2.18,0,0,0-.09-.63,1.55,1.55,0,0,0-.29-.52,1.46,1.46,0,0,0-.49-.35,1.75,1.75,0,0,0-.72-.13,2.46,2.46,0,0,0-.64.07,2.35,2.35,0,0,0-.51.18,1.74,1.74,0,0,0-.26.16l-.18.14-.13.09a.2.2,0,0,1-.13,0,.34.34,0,0,1-.25-.11.33.33,0,0,1-.1-.25.59.59,0,0,1,0-.13.38.38,0,0,1,.09-.13,2.71,2.71,0,0,1,.91-.54,3.36,3.36,0,0,1,1.2-.19,2.49,2.49,0,0,1,1,.19,2,2,0,0,1,1.13,1.25,2.72,2.72,0,0,1,.14.86,2.31,2.31,0,0,1-.15.86,2.93,2.93,0,0,1-.41.71,3.65,3.65,0,0,1-.58.6c-.22.19-.44.36-.68.54l-.69.51a6.84,6.84,0,0,0-.64.55,3.54,3.54,0,0,0-.49.61,2.07,2.07,0,0,0-.28.74h3.58a.37.37,0,0,1,.24.1A.33.33,0,0,1,114.62,41.5Z"/>
      <path class="cls-8" d="M117.27,41.4a2.51,2.51,0,0,1-.11.77,2.27,2.27,0,0,1-.26.54,1.29,1.29,0,0,1-.31.31.53.53,0,0,1-.27.1.19.19,0,0,1-.14,0,.16.16,0,0,1-.07-.15.29.29,0,0,1,.07-.18l.17-.17a.92.92,0,0,0,.17-.24.9.9,0,0,0,.11-.38.59.59,0,0,1-.23-.05.64.64,0,0,1-.19-.13.69.69,0,0,1-.13-.2.59.59,0,0,1,0-.23.47.47,0,0,1,0-.24.53.53,0,0,1,.13-.2.64.64,0,0,1,.19-.13.69.69,0,0,1,.24-.05.53.53,0,0,1,.26.06.45.45,0,0,1,.19.14.68.68,0,0,1,.12.22A.75.75,0,0,1,117.27,41.4Z"/>
      <path class="cls-8" d="M123.38,39.47a2.87,2.87,0,0,1-.17,1,2.4,2.4,0,0,1-.49.78,2.12,2.12,0,0,1-.75.49,2.8,2.8,0,0,1-1,.17,2.32,2.32,0,0,1-1-.2,2.1,2.1,0,0,1-.74-.58,2.73,2.73,0,0,1-.48-.93,4.2,4.2,0,0,1-.17-1.23,4.83,4.83,0,0,1,.23-1.45,8,8,0,0,1,.61-1.37,8.94,8.94,0,0,1,.86-1.25,12.79,12.79,0,0,1,1-1.08.38.38,0,0,1,.25-.11.37.37,0,0,1,.27.11.36.36,0,0,1,.1.25.28.28,0,0,1,0,.13.47.47,0,0,1-.09.12c-.21.21-.41.43-.62.67a7.51,7.51,0,0,0-.59.75,8.73,8.73,0,0,0-.52.82,6.92,6.92,0,0,0-.39.88,2.67,2.67,0,0,1,.66-.32,2.33,2.33,0,0,1,.68-.1,3,3,0,0,1,.9.14,2.35,2.35,0,0,1,.75.44,2.08,2.08,0,0,1,.51.76A2.69,2.69,0,0,1,123.38,39.47Zm-.72,0a2.06,2.06,0,0,0-.13-.78,1.5,1.5,0,0,0-.36-.55,1.32,1.32,0,0,0-.53-.33,2,2,0,0,0-.66-.11,1.93,1.93,0,0,0-.49.06,1.5,1.5,0,0,0-.42.15,2.3,2.3,0,0,0-.35.2,2.45,2.45,0,0,0-.29.23,3.68,3.68,0,0,0-.06.66,3.44,3.44,0,0,0,.13,1,2,2,0,0,0,.35.71,1.38,1.38,0,0,0,.53.41,1.59,1.59,0,0,0,.61.13,1.75,1.75,0,0,0,.7-.13,1.45,1.45,0,0,0,.52-.35,1.41,1.41,0,0,0,.33-.57A2.24,2.24,0,0,0,122.66,39.48Z"/>
      <path class="cls-8" d="M129.67,39.05a4.28,4.28,0,0,1-.13,1.09,2.85,2.85,0,0,1-.44.93,2.19,2.19,0,0,1-.77.64,2.52,2.52,0,0,1-1.14.24,2.46,2.46,0,0,1-1.14-.24,2.1,2.1,0,0,1-.77-.64,2.66,2.66,0,0,1-.44-.93,4.28,4.28,0,0,1-.14-1.09V36.64a4.34,4.34,0,0,1,.14-1.09,2.54,2.54,0,0,1,.44-.92,2.13,2.13,0,0,1,.77-.65,2.46,2.46,0,0,1,1.14-.24,2.52,2.52,0,0,1,1.14.24,2.21,2.21,0,0,1,.77.65,2.71,2.71,0,0,1,.44.92,4.34,4.34,0,0,1,.13,1.09ZM129,36.67a4.11,4.11,0,0,0-.1-.89,2.16,2.16,0,0,0-.32-.72,1.55,1.55,0,0,0-.55-.47,1.94,1.94,0,0,0-1.59,0,1.44,1.44,0,0,0-.54.47,2,2,0,0,0-.32.72,3.57,3.57,0,0,0-.1.89V39a3.57,3.57,0,0,0,.1.89,1.93,1.93,0,0,0,.32.71,1.44,1.44,0,0,0,.54.47,1.94,1.94,0,0,0,1.59,0,1.55,1.55,0,0,0,.55-.47,2.11,2.11,0,0,0,.32-.71A4.11,4.11,0,0,0,129,39Z"/>
      <path class="cls-8" d="M135.83,39.05a4.28,4.28,0,0,1-.13,1.09,2.85,2.85,0,0,1-.44.93,2.19,2.19,0,0,1-.77.64,2.52,2.52,0,0,1-1.14.24,2.46,2.46,0,0,1-1.14-.24,2.1,2.1,0,0,1-.77-.64,2.66,2.66,0,0,1-.44-.93,4.28,4.28,0,0,1-.14-1.09V36.64a4.34,4.34,0,0,1,.14-1.09,2.54,2.54,0,0,1,.44-.92,2.13,2.13,0,0,1,.77-.65,2.46,2.46,0,0,1,1.14-.24,2.52,2.52,0,0,1,1.14.24,2.21,2.21,0,0,1,.77.65,2.71,2.71,0,0,1,.44.92,4.34,4.34,0,0,1,.13,1.09Zm-.72-2.38a4.11,4.11,0,0,0-.1-.89,2.16,2.16,0,0,0-.32-.72,1.55,1.55,0,0,0-.55-.47,1.94,1.94,0,0,0-1.59,0,1.44,1.44,0,0,0-.54.47,2,2,0,0,0-.32.72,3.57,3.57,0,0,0-.1.89V39a3.57,3.57,0,0,0,.1.89,1.93,1.93,0,0,0,.32.71,1.44,1.44,0,0,0,.54.47,1.94,1.94,0,0,0,1.59,0,1.55,1.55,0,0,0,.55-.47,2.11,2.11,0,0,0,.32-.71,4.11,4.11,0,0,0,.1-.89Z"/>
    </g>
  </g>
</svg>