<svg xmlns="http://www.w3.org/2000/svg" xmlns:xlink="http://www.w3.org/1999/xlink" viewBox="0 0 305.93 181.64">
  <defs>
    <style>.cls-1{fill:#fff;}.cls-2{fill:none;stroke-miterlimit:10;stroke-width:0.64px;opacity:0.1;stroke:url(#未命名的渐变_41);}.cls-3,.cls-4{fill-rule:evenodd;}.cls-3{fill:url(#未命名的渐变_70);}.cls-4{opacity:0.4;fill:url(#未命名的渐变_42);}.cls-5{fill:url(#未命名的渐变_4);}.cls-6,.cls-9{opacity:0.3;}.cls-6{fill:url(#未命名的渐变_42-2);}.cls-7{fill:#80edff;}.cls-8{fill:url(#未命名的渐变_4-2);}.cls-9{fill:url(#未命名的渐变_42-3);}</style>
    <linearGradient id="未命名的渐变_41" y1="76.32" x2="270.32" y2="76.32" gradientUnits="userSpaceOnUse">
      <stop offset="0" stop-color="#fff"/>
      <stop offset="1" stop-color="#fff" stop-opacity="0.5"/>
    </linearGradient>
    <linearGradient id="未命名的渐变_70" x1="146.37" y1="9.01" x2="146.37" y2="0.01" gradientUnits="userSpaceOnUse">
      <stop offset="0" stop-color="#80edff"/>
      <stop offset="1" stop-color="#00dcff"/>
    </linearGradient>
    <linearGradient id="未命名的渐变_42" x1="63.47" y1="9.01" x2="63.47" y2="0.01" gradientUnits="userSpaceOnUse">
      <stop offset="0" stop-color="#fff" stop-opacity="0.5"/>
      <stop offset="1" stop-color="#fff"/>
    </linearGradient>
    <linearGradient id="未命名的渐变_4" x1="98.66" y1="139.16" x2="98.66" y2="126.23" gradientUnits="userSpaceOnUse">
      <stop offset="0" stop-color="#00dcff" stop-opacity="1">
        <animate attributeName="stop-opacity"
                 values="1;0.93;0.76;0.61;0.48;0.38;0.3;0.24;0.21;0.2;0.21;0.24;0.3;0.38;0.48;0.61;0.76;0.93;1"
                 dur="5s" repeatCount="indefinite"></animate>
      </stop>
      <stop offset="0.01" stop-color="#00dcff" stop-opacity="0.93">
        <animate attributeName="stop-opacity"
                 values="0.93;0.76;0.61;0.48;0.38;0.3;0.24;0.21;0.2;0.21;0.24;0.3;0.38;0.48;0.61;0.76;0.93;1;1"
                 dur="5s" repeatCount="indefinite"></animate>
      </stop>
      <stop offset="0.05" stop-color="#00dcff" stop-opacity="0.76">
        <animate attributeName="stop-opacity"
                 values="0.76;0.61;0.48;0.38;0.3;0.24;0.21;0.2;0.21;0.24;0.3;0.38;0.48;0.61;0.76;0.93;1;1;0.93"
                 dur="5s" repeatCount="indefinite"></animate>
      </stop>
      <stop offset="0.1" stop-color="#00dcff" stop-opacity="0.61">
        <animate attributeName="stop-opacity"
                 values="0.61;0.48;0.38;0.3;0.24;0.21;0.2;0.21;0.24;0.3;0.38;0.48;0.61;0.76;0.93;1;1;0.93;0.76"
                 dur="5s" repeatCount="indefinite"></animate>
      </stop>
      <stop offset="0.14" stop-color="#00dcff" stop-opacity="0.48">
        <animate attributeName="stop-opacity"
                 values="0.48;0.38;0.3;0.24;0.21;0.2;0.21;0.24;0.3;0.38;0.48;0.61;0.76;0.93;1;1;0.93;0.76;0.61"
                 dur="5s" repeatCount="indefinite"></animate>
      </stop>
      <stop offset="0.19" stop-color="#00dcff" stop-opacity="0.38">
        <animate attributeName="stop-opacity"
                 values="0.38;0.3;0.24;0.21;0.2;0.21;0.24;0.3;0.38;0.48;0.61;0.76;0.93;1;1;0.93;0.76;0.61;0.48"
                 dur="5s" repeatCount="indefinite"></animate>
      </stop>
      <stop offset="0.24" stop-color="#00dcff" stop-opacity="0.3">
        <animate attributeName="stop-opacity"
                 values="0.3;0.24;0.21;0.2;0.21;0.24;0.3;0.38;0.48;0.61;0.76;0.93;1;1;0.93;0.76;0.61;0.48;0.38"
                 dur="5s" repeatCount="indefinite"></animate>
      </stop>
      <stop offset="0.31" stop-color="#00dcff" stop-opacity="0.24">
        <animate attributeName="stop-opacity"
                 values="0.24;0.21;0.2;0.21;0.24;0.3;0.38;0.48;0.61;0.76;0.93;1;1;0.93;0.76;0.61;0.48;0.38;0.3"
                 dur="5s" repeatCount="indefinite"></animate>
      </stop>
      <stop offset="0.38" stop-color="#00dcff" stop-opacity="0.21">
        <animate attributeName="stop-opacity"
                 values="0.21;0.2;0.21;0.24;0.3;0.38;0.48;0.61;0.76;0.93;1;1;0.93;0.76;0.61;0.48;0.38;0.3;0.24"
                 dur="5s" repeatCount="indefinite"></animate>
      </stop>
      <stop offset="0.5" stop-color="#00dcff" stop-opacity="0.2">
        <animate attributeName="stop-opacity"
                 values="0.2;0.21;0.24;0.3;0.38;0.48;0.61;0.76;0.93;1;1;0.93;0.76;0.61;0.48;0.38;0.3;0.24;0.21"
                 dur="5s" repeatCount="indefinite"></animate>
      </stop>
      <stop offset="0.62" stop-color="#00dcff" stop-opacity="0.21">
        <animate attributeName="stop-opacity"
                 values="0.21;0.24;0.3;0.38;0.48;0.61;0.76;0.93;1;1;0.93;0.76;0.61;0.48;0.38;0.3;0.24;0.21;0.2"
                 dur="5s" repeatCount="indefinite"></animate>
      </stop>
      <stop offset="0.69" stop-color="#00dcff" stop-opacity="0.24">
        <animate attributeName="stop-opacity"
                 values="0.24;0.3;0.38;0.48;0.61;0.76;0.93;1;1;0.93;0.76;0.61;0.48;0.38;0.3;0.24;0.21;0.2;0.21"
                 dur="5s" repeatCount="indefinite"></animate>
      </stop>
      <stop offset="0.76" stop-color="#00dcff" stop-opacity="0.3">
        <animate attributeName="stop-opacity"
                 values="0.3;0.38;0.48;0.61;0.76;0.93;1;1;0.93;0.76;0.61;0.48;0.38;0.3;0.24;0.21;0.2;0.21;0.24"
                 dur="5s" repeatCount="indefinite"></animate>
      </stop>
      <stop offset="0.81" stop-color="#00dcff" stop-opacity="0.38">
        <animate attributeName="stop-opacity"
                 values="0.38;0.48;0.61;0.76;0.93;1;1;0.93;0.76;0.61;0.48;0.38;0.3;0.24;0.21;0.2;0.21;0.24;0.3"
                 dur="5s" repeatCount="indefinite"></animate>
      </stop>
      <stop offset="0.86" stop-color="#00dcff" stop-opacity="0.48">
        <animate attributeName="stop-opacity"
                 values="0.48;0.61;0.76;0.93;1;1;0.93;0.76;0.61;0.48;0.38;0.3;0.24;0.21;0.2;0.21;0.24;0.3;0.38"
                 dur="5s" repeatCount="indefinite"></animate>
      </stop>
      <stop offset="0.9" stop-color="#00dcff" stop-opacity="0.61">
        <animate attributeName="stop-opacity"
                 values="0.61;0.76;0.93;1;1;0.93;0.76;0.61;0.48;0.38;0.3;0.24;0.21;0.2;0.21;0.24;0.3;0.38;0.48"
                 dur="5s" repeatCount="indefinite"></animate>
      </stop>
      <stop offset="0.95" stop-color="#00dcff" stop-opacity="0.76">
        <animate attributeName="stop-opacity"
                 values="0.76;0.93;1;1;0.93;0.76;0.61;0.48;0.38;0.3;0.24;0.21;0.2;0.21;0.24;0.3;0.38;0.48;0.61"
                 dur="5s" repeatCount="indefinite"></animate>
      </stop>
      <stop offset="0.99" stop-color="#00dcff" stop-opacity="0.93">
        <animate attributeName="stop-opacity"
                 values="0.93;1;1;0.93;0.76;0.61;0.48;0.38;0.3;0.24;0.21;0.2;0.21;0.24;0.3;0.38;0.48;0.61;0.76"
                 dur="5s" repeatCount="indefinite"></animate>
      </stop>
      <stop offset="1" stop-color="#00dcff" stop-opacity="1">
        <animate attributeName="stop-opacity"
                 values="1;1;0.93;0.76;0.61;0.48;0.38;0.3;0.24;0.21;0.2;0.21;0.24;0.3;0.38;0.48;0.61;0.76;0.93"
                 dur="5s" repeatCount="indefinite"></animate>
      </stop>
    </linearGradient>
    <linearGradient id="未命名的渐变_42-2" x1="39.1" y1="139.16" x2="39.1" y2="102.52" xlink:href="#未命名的渐变_42"/>
    <linearGradient id="未命名的渐变_4-2" x1="180.99" y1="139.16" x2="180.99" y2="109.21" gradientTransform="matrix(-1, 0, 0, 1, 421.53, 0)" xlink:href="#未命名的渐变_4"/>
    <linearGradient id="未命名的渐变_42-3" x1="240.54" y1="139.16" x2="240.54" y2="33.01" gradientTransform="matrix(-1, 0, 0, 1, 421.53, 0)" xlink:href="#未命名的渐变_42"/>
  </defs>
  <g id="图层_2" data-name="图层 2">
    <g id="图层_2-2" data-name="图层 2">
      <path class="cls-1" d="M3.09,164.31a11.35,11.35,0,0,1-1.79,2.33,4.17,4.17,0,0,0-.46-.33,10.69,10.69,0,0,0,2.55-3.74l.52.16c-.17.36-.34.73-.54,1.08h7.08v.5Zm6.16,4.28c0,.88-.1,1.57-.15,2.1h1.37v.48H9a2.41,2.41,0,0,1-.33,1.12.87.87,0,0,1-.7.31,11.79,11.79,0,0,1-1.38,0,1.12,1.12,0,0,0-.14-.45c.6,0,1.15.06,1.35.06a.46.46,0,0,0,.41-.15,2.08,2.08,0,0,0,.27-.85H2c.14-.68.3-1.6.46-2.58H.87v-.48H2.52c.13-.88.25-1.8.34-2.53h6.5s0,.21,0,.29c0,.86,0,1.59-.09,2.24H10.8v.48Zm-.68,2.1c.07-.52.12-1.21.17-2.1H3c-.12.77-.24,1.5-.34,2.1Zm-5.26-4.63c-.07.65-.17,1.34-.27,2.05H8.75c0-.6.06-1.28.09-2.05Zm1.26,2.69a10.39,10.39,0,0,1,2.27,1.5l-.33.37a10,10,0,0,0-2.25-1.55Zm2.18-.83a8.75,8.75,0,0,0-2.13-1.33l.32-.32a8.74,8.74,0,0,1,2.12,1.28Z"/>
      <path class="cls-1" d="M21.42,170H17.29v2.64h-.52V170h-5.2v-.52h1.86v-3h3.34v-1.91H13.88a10.16,10.16,0,0,1-1.77,2.28,3.53,3.53,0,0,0-.47-.33,9.77,9.77,0,0,0,2.6-3.9l.53.14a14.11,14.11,0,0,1-.59,1.31H21v.5H17.29v1.91h3.44v.5H17.29v2.5h4.13Zm-4.65-.52V167H14v2.5Z"/>
      <path class="cls-1" d="M24.3,168.4a39.67,39.67,0,0,1-1.66,3.68l-.46-.27a33.94,33.94,0,0,0,1.71-3.67Zm-.48-2.85a13,13,0,0,0-1.51-2.24l.41-.2a12.86,12.86,0,0,1,1.54,2.19Zm7.94.64A12.21,12.21,0,0,1,30.27,170c.28,1.27.66,2.06,1.12,2.08.22,0,.38-.65.48-1.78a1.16,1.16,0,0,0,.41.24c-.2,1.66-.5,2.16-.88,2.15-.67,0-1.16-.83-1.5-2.14a8.27,8.27,0,0,1-2.17,2,2.73,2.73,0,0,0-.39-.36,7.54,7.54,0,0,0,2.41-2.29,33.26,33.26,0,0,1-.56-4.91H25.57v2.39a9.36,9.36,0,0,1-1.28,5.3,1.58,1.58,0,0,0-.41-.31,8.53,8.53,0,0,0,1.19-5V164.5h4.09c0-.59-.05-1.18-.07-1.79h.48c0,.61,0,1.2.07,1.79H32V165H29.67a36.72,36.72,0,0,0,.46,4.28,12.11,12.11,0,0,0,1.16-3.17Zm-2.84.27H26.07V166h2.85Zm-2.23,3.94v.71h-.45v-3.63h2.53v2.92Zm0-2.46v2h1.65v-2Zm4.84-3.65A7.48,7.48,0,0,0,30.05,163l.33-.29A7.84,7.84,0,0,1,31.87,164Z"/>
      <path class="cls-1" d="M41.35,168.56c-1.46,2.22-4.45,3.52-8.3,4a3,3,0,0,0-.27-.5c3.8-.47,6.7-1.67,8.1-3.77Zm-5.92-4a15.72,15.72,0,0,1-2,3.51,3.82,3.82,0,0,0-.46-.25,13.22,13.22,0,0,0,1.93-3.39Zm2.5-1.94v6.71h-.52v-6.71Zm2.72,1.81a27,27,0,0,1,2.08,3.28l-.45.25a29.27,29.27,0,0,0-2.06-3.33Z"/>
      <path class="cls-1" d="M45.43,163.88a23.46,23.46,0,0,1-.55,2.75h1.95v4.48h-2v1h-.47v-4a8,8,0,0,1-.6,1.17,3.3,3.3,0,0,0-.36-.41,12.8,12.8,0,0,0,1.49-5H43.54v-.48h3.67v.48Zm.93,3.24h-1.5v3.5h1.5Zm2.6-.5c-.2,2.42-.59,4.29-1.64,5.64a3.57,3.57,0,0,0-.4-.35c1-1.21,1.38-3,1.55-5.29H47.15v-.47H48.5c0-.26,0-.5,0-.75l.51,0c0,.24,0,.48,0,.72h4.5v.47ZM53,165.13H47.73V163h.47v1.66h1.93v-2h.49v2h1.91V163H53Zm-1.63,1.72a20.1,20.1,0,0,1-.16,2.06,4.07,4.07,0,0,0,2.41,3.23,1.35,1.35,0,0,0-.33.39,4.19,4.19,0,0,1-2.26-2.72,3.84,3.84,0,0,1-2.53,2.81,1.8,1.8,0,0,0-.3-.37c2.27-.86,2.59-2.54,2.69-5.4ZM49,169.9a5.76,5.76,0,0,0,.63-2.09l.42.06a6.63,6.63,0,0,1-.65,2.25Zm2.92-.07a17.47,17.47,0,0,0,.81-2.05l.45.17c-.28.67-.6,1.49-.9,2.05Z"/>
      <path class="cls-1" d="M57.78,168l-1.41.45v3.35c0,.36-.1.5-.31.59a4.06,4.06,0,0,1-1.26.1,3,3,0,0,0-.18-.5h1c.14,0,.2-.05.2-.2v-3.19l-1.48.47-.15-.53,1.63-.46v-2.68h-1.5v-.5h1.5v-2.3h.51v2.3h1.29v.5H56.37V168l1.35-.41Zm2.14-5.34h.5v9.91h-.5v-3h-2v-.49h2v-1.78H58.18v-.48h1.74V165.1H58.15v-.48h1.77Zm4.26,6.94H62.11v3H61.6v-9.93h.51v1.93h2v.48h-2v1.74H64v.48H62.11v1.82h2.07Z"/>
      <path class="cls-1" d="M69.18,166.67s0,.21,0,.29c-.09,3.68-.16,4.85-.44,5.23a.74.74,0,0,1-.61.27c-.26,0-.73,0-1.18,0a1.67,1.67,0,0,0-.16-.51c.51.05,1,.05,1.16.05s.25,0,.34-.13.3-1.4.37-4.69H66.82v.2a7,7,0,0,1-1.72,5.26,2,2,0,0,0-.4-.36,6.53,6.53,0,0,0,1.61-4.91V165H64.88v-.5h4.87v.5H66.82v1.68Zm-1.85-2.37a9.47,9.47,0,0,0-.61-1.5l.45-.16a13.29,13.29,0,0,1,.65,1.46Zm6.72.92a12.56,12.56,0,0,1-1.55,4.6,5.76,5.76,0,0,0,2.42,2.35,2,2,0,0,0-.38.43,6,6,0,0,1-2.36-2.31,7.72,7.72,0,0,1-2.77,2.35,1.89,1.89,0,0,0-.34-.46,7,7,0,0,0,2.84-2.38,13.92,13.92,0,0,1-1.21-3.61,9.17,9.17,0,0,1-.93,1.71,4.14,4.14,0,0,0-.43-.38,12.66,12.66,0,0,0,1.87-4.89l.53.1a18.71,18.71,0,0,1-.51,2h3.61v.5Zm-3,0a.5.5,0,0,1,0,.13,13.81,13.81,0,0,0,1.19,3.94,12.57,12.57,0,0,0,1.3-4.07Z"/>
      <path class="cls-1" d="M79.52,168.49a3.17,3.17,0,0,0,0,.46,22,22,0,0,0-3.77.73,5.07,5.07,0,0,0-.17-.51,2.29,2.29,0,0,0,.85-.73,16.09,16.09,0,0,0,1.39-1.71,11.66,11.66,0,0,0-2.15.33,3.84,3.84,0,0,0-.16-.52c.17,0,.38-.3.65-.69a18.72,18.72,0,0,0,1.74-3.16l.5.22a21.22,21.22,0,0,1-2.08,3.52l1.85-.19A13.51,13.51,0,0,0,79,165l.47.28a23.93,23.93,0,0,1-2.82,3.65Zm-4,2.86c1-.18,2.56-.49,4.08-.8l0,.47-4,.85ZM85.07,165c-.17,5.05-.3,6.7-.72,7.2a.92.92,0,0,1-.76.35,14.71,14.71,0,0,1-1.55,0,1.16,1.16,0,0,0-.18-.52c.71.06,1.35.06,1.59.06a.43.43,0,0,0,.43-.15c.35-.38.53-2.07.67-6.71H81a9.52,9.52,0,0,1-1,1.69,2.86,2.86,0,0,0-.45-.28,10.93,10.93,0,0,0,1.77-4l.52.11a17,17,0,0,1-.67,1.94h3.83Zm-2.28,4.49a11.51,11.51,0,0,0-2.17-2.44l.39-.31a13.15,13.15,0,0,1,2.19,2.42Z"/>
      <path class="cls-1" d="M87.64,164.11a7,7,0,0,1-1,1.43,2,2,0,0,0-.43-.29,7.39,7.39,0,0,0,1.62-2.65l.51.14c-.12.29-.25.61-.4.9h3.15v.47h-2.2a7.21,7.21,0,0,1,.41,1.17l-.5.15a6.45,6.45,0,0,0-.45-1.32Zm6.07,4v1.15h2.18v.49H93.71v2.1c0,.39-.1.55-.41.64a10,10,0,0,1-1.87.09,2,2,0,0,0-.21-.51c.86,0,1.5,0,1.72,0s.24-.06.24-.22v-2.1H86.57v-.49h6.61v-1.15H86.26v-.49h4.65v-1.2H87.33V166h3.58v-.66l-.06,0c-.1-.08-.31-.25-.44-.33A5.67,5.67,0,0,0,92,162.6l.5.13a8.11,8.11,0,0,1-.4.91H96v.47H93.36a5.5,5.5,0,0,1,.72,1.2l-.47.2a6.39,6.39,0,0,0-.82-1.4h-.94a6.75,6.75,0,0,1-.73,1h.33V166H95.1v.48H91.45v1.2h4.7v.49ZM88.61,170a7.76,7.76,0,0,1,2,1.68l-.42.34a7.39,7.39,0,0,0-2-1.72Z"/>
      <path class="cls-1" d="M106.71,167.62h-4.49v4.07c0,.49-.16.66-.5.76a9.79,9.79,0,0,1-2.16.1,3.08,3.08,0,0,0-.23-.55c1,0,1.78,0,2,0s.33-.08.33-.31v-4.08H97v-.52h4.68V164H97.76v-.52h8.18V164h-3.72v3.11h4.49Z"/>
      <path class="cls-1" d="M116.33,171.8c.46,0,.55-.25.59-1.76a1.43,1.43,0,0,0,.51.25c-.08,1.61-.24,2-1.07,2h-1.83c-.84,0-1.08-.19-1.08-.9V168l-1.9.11c-.22,2.37-.88,3.81-3.47,4.55a1.87,1.87,0,0,0-.33-.45c2.46-.65,3-1.94,3.23-4.06a10.23,10.23,0,0,0-2.3.22c0-.12-.12-.4-.18-.57a1.75,1.75,0,0,0,.75-.53,19.4,19.4,0,0,0,1.9-2.25h-3.36v-.52h9.48V165h-5.42a19.64,19.64,0,0,1-2.34,2.69l5.89-.31a18.67,18.67,0,0,0-1.76-1.5l.41-.26a18.09,18.09,0,0,1,2.93,2.66l-.44.31c-.18-.22-.41-.48-.67-.75l-1.89.11v3.48c0,.31.09.39.59.39Zm-3.54-7.42a10.47,10.47,0,0,0-.94-1.57l.48-.18a11.18,11.18,0,0,1,1,1.53Z"/>
      <path class="cls-1" d="M121.93,163.06a11,11,0,0,1-3.21,4.4,2,2,0,0,0-.46-.38,9.51,9.51,0,0,0,3.13-4.18Zm4.62,3.8s0,.21,0,.29c-.19,3.42-.35,4.64-.73,5.06a1,1,0,0,1-.77.29,14.63,14.63,0,0,1-1.77-.05,1.31,1.31,0,0,0-.19-.53c.78.08,1.53.09,1.77.09s.38,0,.49-.13c.32-.31.49-1.45.66-4.5h-3.41c-.3,2.22-1,4.29-3.8,5.26a1.85,1.85,0,0,0-.33-.42c2.66-.89,3.31-2.83,3.58-4.84h-2.32v-.52Zm-1.55-4a11.18,11.18,0,0,0,3.17,4.05,2.15,2.15,0,0,0-.42.43,13.29,13.29,0,0,1-3.23-4.28Z"/>
      <path class="cls-1" d="M131.74,170.75c-.19-.32-.65-1-1-1.53a6.71,6.71,0,0,1-1.53,3.38,1.58,1.58,0,0,0-.38-.35c1.46-1.65,1.62-3.74,1.62-5.78v-3.72h.47v3.71a21.29,21.29,0,0,1-.09,2.13c.29.37,1.07,1.5,1.27,1.77Zm-1.85-5.89a8.51,8.51,0,0,1-.63,2.76l-.37-.21a7.94,7.94,0,0,0,.6-2.62Zm2.38-.41c-.28.73-.6,1.64-.89,2.21l-.33-.15a16.21,16.21,0,0,0,.76-2.23Zm-.68,7.9a6.26,6.26,0,0,0,1.34-2.29l.43.16a7.31,7.31,0,0,1-1.34,2.37Zm1.94-8.1a9.77,9.77,0,0,1-1.45,3,3.38,3.38,0,0,0-.41-.31,10.24,10.24,0,0,0,1.81-4.4l.47.09c-.08.37-.18.76-.28,1.12H135l.1,0,.27.1c-.38,3-1.55,5-3,5.95a1.48,1.48,0,0,0-.33-.38,5.23,5.23,0,0,0,1.75-1.92c-.29-.21-.69-.48-1-.68l.25-.31c.3.19.67.42,1,.63a9.46,9.46,0,0,0,.43-1,10.84,10.84,0,0,0-1-.55l.21-.33c.3.13.65.32.93.47a9.69,9.69,0,0,0,.32-1.48Zm1.05,6a18.11,18.11,0,0,1,.29,2.12l-.47.07a16.21,16.21,0,0,0-.29-2.12Zm2.59-4.78c.28,1.7.88,3.24,1.87,3.93a1.88,1.88,0,0,0-.35.39,5.93,5.93,0,0,1-1.75-3.29,4.92,4.92,0,0,1-2.13,3.28,1.57,1.57,0,0,0-.34-.34,4.82,4.82,0,0,0,2.12-4h-1.34V165h1.36v-2.37h.48V165h1.75v.48Zm-1.06,4.73a13.62,13.62,0,0,1,.79,2.11l-.45.14a17.38,17.38,0,0,0-.77-2.12Zm1.64-.17a19.21,19.21,0,0,1,1.27,2.32l-.45.19a23.41,23.41,0,0,0-1.25-2.37Zm.48-5.38a7.69,7.69,0,0,0-.8-1.64l.39-.14a8.53,8.53,0,0,1,.83,1.61Z"/>
      <path class="cls-1" d="M142.77,171.29a21.75,21.75,0,0,0-1.34-1.79,6.4,6.4,0,0,1-1.53,3.05,2.33,2.33,0,0,0-.36-.34c1.5-1.66,1.67-3.75,1.67-5.82v-3.7h.48v3.7a16.48,16.48,0,0,1-.16,2.55c.36.38,1.36,1.63,1.61,1.95Zm-2-6.41a7.94,7.94,0,0,1-.67,2.75l-.4-.2a7.94,7.94,0,0,0,.66-2.61Zm2.35-.13c-.28.74-.59,1.66-.86,2.23l-.33-.16a22.33,22.33,0,0,0,.74-2.27Zm5.52,7.24c.28,0,.32-.16.35-1.23a1.26,1.26,0,0,0,.46.2c-.05,1.19-.19,1.48-.75,1.48h-1.18c-.66,0-.83-.14-.83-.75V169h-1.3c-.16,1.92-.64,3-2.45,3.66a1.24,1.24,0,0,0-.33-.43c1.7-.54,2.12-1.53,2.26-3.23h-1.83v-.47h6.23V169h-2.06v2.73c0,.24.05.29.35.29Zm.16-7.05a6.29,6.29,0,0,1-2.11,1.63,2.38,2.38,0,0,0,1.71.92c.31,0,.42-.33.47-1.27a1.06,1.06,0,0,0,.41.24c-.1,1.16-.31,1.51-.9,1.51a2.86,2.86,0,0,1-2.13-1.2,14.82,14.82,0,0,1-2.57.91,2.11,2.11,0,0,0-.36-.44,15.42,15.42,0,0,0,2.65-.83,6.86,6.86,0,0,1-.87-1.78l-1.71.17-.07-.46,1.66-.17a7.62,7.62,0,0,1-.26-1.54h.51a7.86,7.86,0,0,0,.24,1.49l3.54-.36.07.46-3.49.35a6.29,6.29,0,0,0,.81,1.62,5.4,5.4,0,0,0,1.93-1.44Z"/>
      <path class="cls-1" d="M155.07,171.46a.33.33,0,0,1-.1.24.33.33,0,0,1-.24.1h-3.95a.35.35,0,0,1-.25-.1.3.3,0,0,1-.11-.24.34.34,0,0,1,.11-.25.35.35,0,0,1,.25-.1h2v-6.43l-2.15,1.49a.38.38,0,0,1-.26.06.37.37,0,0,1-.22-.15.35.35,0,0,1,.1-.48l2.66-1.84a.35.35,0,0,1,.23-.07.35.35,0,0,1,.26.1.35.35,0,0,1,.11.26v7.06h1.22a.33.33,0,0,1,.24.1A.37.37,0,0,1,155.07,171.46Z"/>
      <path class="cls-1" d="M160.93,171.45a.33.33,0,0,1-.1.25.33.33,0,0,1-.24.1h-4a.33.33,0,0,1-.26-.1.35.35,0,0,1-.09-.25,2.5,2.5,0,0,1,.09-.69,2.85,2.85,0,0,1,.6-1.12,3.58,3.58,0,0,1,.43-.44,7.49,7.49,0,0,1,.61-.51l.64-.48c.21-.15.41-.31.6-.47a4.09,4.09,0,0,0,.51-.51,2.39,2.39,0,0,0,.34-.57,1.67,1.67,0,0,0,.13-.67,2.08,2.08,0,0,0-.09-.63,1.4,1.4,0,0,0-.29-.52,1.26,1.26,0,0,0-.49-.35,1.73,1.73,0,0,0-.71-.13,3.2,3.2,0,0,0-.65.06,2.35,2.35,0,0,0-.51.19,2,2,0,0,0-.26.16l-.17.14-.14.09a.25.25,0,0,1-.13,0,.33.33,0,0,1-.24-.1.36.36,0,0,1-.11-.26.35.35,0,0,1,0-.13.51.51,0,0,1,.09-.13,2.92,2.92,0,0,1,.9-.54,3.69,3.69,0,0,1,1.2-.18,2.46,2.46,0,0,1,1,.19,1.89,1.89,0,0,1,.72.51,2,2,0,0,1,.42.73,2.82,2.82,0,0,1,.13.87,2.39,2.39,0,0,1-.15.86,3.09,3.09,0,0,1-.4.71,5.45,5.45,0,0,1-.58.6l-.68.53-.7.52a5.57,5.57,0,0,0-.63.54,3.67,3.67,0,0,0-.5.62,2.07,2.07,0,0,0-.28.74h3.58a.33.33,0,0,1,.24.1A.3.3,0,0,1,160.93,171.45Z"/>
      <path class="cls-1" d="M166.92,169a4.34,4.34,0,0,1-.13,1.09,2.66,2.66,0,0,1-.44.93,2.19,2.19,0,0,1-.77.64,2.52,2.52,0,0,1-1.14.24,2.46,2.46,0,0,1-1.14-.24,2.1,2.1,0,0,1-.77-.64,2.66,2.66,0,0,1-.44-.93A4.34,4.34,0,0,1,162,169v-2.41a4.34,4.34,0,0,1,.13-1.09,2.66,2.66,0,0,1,.44-.93,2.1,2.1,0,0,1,.77-.64,2.46,2.46,0,0,1,1.14-.24,2.52,2.52,0,0,1,1.14.24,2.19,2.19,0,0,1,.77.64,2.66,2.66,0,0,1,.44.93,4.34,4.34,0,0,1,.13,1.09Zm-.72-2.38a3.71,3.71,0,0,0-.1-.9,2.2,2.2,0,0,0-.32-.71,1.55,1.55,0,0,0-.55-.47,1.64,1.64,0,0,0-.79-.17,1.69,1.69,0,0,0-.8.17,1.44,1.44,0,0,0-.54.47,2.2,2.2,0,0,0-.32.71,4.28,4.28,0,0,0-.1.9V169a4.11,4.11,0,0,0,.1.89,2.2,2.2,0,0,0,.32.71,1.53,1.53,0,0,0,.54.47,1.81,1.81,0,0,0,.8.17,1.77,1.77,0,0,0,.79-.17,1.66,1.66,0,0,0,.55-.47,2.2,2.2,0,0,0,.32-.71,3.57,3.57,0,0,0,.1-.89Z"/>
      <path class="cls-1" d="M172.76,169a4.34,4.34,0,0,1-.14,1.09,2.66,2.66,0,0,1-.44.93,2.19,2.19,0,0,1-.77.64,2.52,2.52,0,0,1-1.14.24,2.46,2.46,0,0,1-1.14-.24,2.1,2.1,0,0,1-.77-.64,2.66,2.66,0,0,1-.44-.93,4.34,4.34,0,0,1-.13-1.09v-2.41a4.34,4.34,0,0,1,.13-1.09,2.66,2.66,0,0,1,.44-.93,2.1,2.1,0,0,1,.77-.64,2.46,2.46,0,0,1,1.14-.24,2.52,2.52,0,0,1,1.14.24,2.19,2.19,0,0,1,.77.64,2.66,2.66,0,0,1,.44.93,4.34,4.34,0,0,1,.14,1.09Zm-.73-2.38a3.71,3.71,0,0,0-.1-.9,2.2,2.2,0,0,0-.32-.71,1.55,1.55,0,0,0-.55-.47,1.64,1.64,0,0,0-.79-.17,1.69,1.69,0,0,0-.8.17,1.44,1.44,0,0,0-.54.47,2.2,2.2,0,0,0-.32.71,4.28,4.28,0,0,0-.1.9V169a4.11,4.11,0,0,0,.1.89,2.2,2.2,0,0,0,.32.71,1.53,1.53,0,0,0,.54.47,1.81,1.81,0,0,0,.8.17,1.77,1.77,0,0,0,.79-.17,1.66,1.66,0,0,0,.55-.47,2.2,2.2,0,0,0,.32-.71,3.57,3.57,0,0,0,.1-.89Z"/>
      <path class="cls-1" d="M178.59,169a4.34,4.34,0,0,1-.14,1.09,2.66,2.66,0,0,1-.44.93,2.19,2.19,0,0,1-.77.64,2.52,2.52,0,0,1-1.14.24,2.46,2.46,0,0,1-1.14-.24,2.1,2.1,0,0,1-.77-.64,2.66,2.66,0,0,1-.44-.93,4.34,4.34,0,0,1-.13-1.09v-2.41a4.34,4.34,0,0,1,.13-1.09,2.66,2.66,0,0,1,.44-.93,2.1,2.1,0,0,1,.77-.64,2.46,2.46,0,0,1,1.14-.24,2.52,2.52,0,0,1,1.14.24,2.19,2.19,0,0,1,.77.64,2.66,2.66,0,0,1,.44.93,4.34,4.34,0,0,1,.14,1.09Zm-.73-2.38a3.71,3.71,0,0,0-.1-.9,2.2,2.2,0,0,0-.32-.71,1.55,1.55,0,0,0-.55-.47,1.64,1.64,0,0,0-.79-.17,1.69,1.69,0,0,0-.8.17,1.44,1.44,0,0,0-.54.47,2.2,2.2,0,0,0-.32.71,4.28,4.28,0,0,0-.1.9V169a4.11,4.11,0,0,0,.1.89,2.2,2.2,0,0,0,.32.71,1.53,1.53,0,0,0,.54.47,1.81,1.81,0,0,0,.8.17,1.77,1.77,0,0,0,.79-.17,1.66,1.66,0,0,0,.55-.47,2.2,2.2,0,0,0,.32-.71,3.57,3.57,0,0,0,.1-.89Z"/>
      <path class="cls-1" d="M184.42,169a4.34,4.34,0,0,1-.14,1.09,2.66,2.66,0,0,1-.44.93,2.19,2.19,0,0,1-.77.64,2.52,2.52,0,0,1-1.14.24,2.46,2.46,0,0,1-1.14-.24A2.1,2.1,0,0,1,180,171a2.66,2.66,0,0,1-.44-.93,4.34,4.34,0,0,1-.13-1.09v-2.41a4.34,4.34,0,0,1,.13-1.09,2.66,2.66,0,0,1,.44-.93,2.1,2.1,0,0,1,.77-.64,2.46,2.46,0,0,1,1.14-.24,2.52,2.52,0,0,1,1.14.24,2.19,2.19,0,0,1,.77.64,2.66,2.66,0,0,1,.44.93,4.34,4.34,0,0,1,.14,1.09Zm-.73-2.38a3.71,3.71,0,0,0-.1-.9,2.2,2.2,0,0,0-.32-.71,1.55,1.55,0,0,0-.55-.47,1.64,1.64,0,0,0-.79-.17,1.69,1.69,0,0,0-.8.17,1.44,1.44,0,0,0-.54.47,2.2,2.2,0,0,0-.32.71,4.28,4.28,0,0,0-.1.9V169a4.11,4.11,0,0,0,.1.89,2.2,2.2,0,0,0,.32.71,1.53,1.53,0,0,0,.54.47,1.81,1.81,0,0,0,.8.17,1.77,1.77,0,0,0,.79-.17,1.66,1.66,0,0,0,.55-.47,2.2,2.2,0,0,0,.32-.71,3.57,3.57,0,0,0,.1-.89Z"/>
      <path class="cls-1" d="M195,171.59v.52h-9.67v-.52h5.32a39.54,39.54,0,0,0,1.77-5.55l.6.1a55.24,55.24,0,0,1-1.81,5.45Zm-.43-6.3H185.8v-.53h8.79Zm-6.05,5.7a39.78,39.78,0,0,0-1.12-4.83l.52-.11a40.37,40.37,0,0,1,1.14,4.82Zm1.53-6.46a12.88,12.88,0,0,0-.54-1.77l.5-.14a15.2,15.2,0,0,1,.57,1.74Z"/>
      <path class="cls-1" d="M199.91,165.15c0,.66-.09,1.33-.19,2h4.69s0,.21,0,.28c-.23,3.18-.45,4.35-.86,4.78a1.12,1.12,0,0,1-.81.29,14.08,14.08,0,0,1-1.81-.07,1.14,1.14,0,0,0-.19-.51c.81.08,1.57.09,1.86.09a.73.73,0,0,0,.5-.12c.35-.31.55-1.42.76-4.22h-4.2a6.28,6.28,0,0,1-3.29,5,1.56,1.56,0,0,0-.4-.41c2.93-1.4,3.26-4.46,3.39-7.07h-3.11v-.52h9.32v.52Zm1.22-.64a15,15,0,0,0-.77-1.7l.49-.18a11.06,11.06,0,0,1,.79,1.65Z"/>
      <path class="cls-1" d="M212,167.5a6.83,6.83,0,0,0,4.6,4.64,2,2,0,0,0-.35.48,7.5,7.5,0,0,1-4.69-4.87c-.41,1.72-1.54,3.51-4.59,4.87a1.52,1.52,0,0,0-.34-.44c3-1.31,4.06-3,4.42-4.68h-4.22V167h4.32a10.73,10.73,0,0,0,.09-1.47v-1.4h-4v-.53h8.68v.53h-4.1v1.4a10.59,10.59,0,0,1-.08,1.47h4.67v.54Z"/>
      <path class="cls-1" d="M222.19,163.77a8.1,8.1,0,0,1-4.43,6,1.79,1.79,0,0,0-.38-.4,7.09,7.09,0,0,0,2.37-1.68,12.41,12.41,0,0,0-1.45-1l.29-.3a8.65,8.65,0,0,1,1.46,1,9.34,9.34,0,0,0,.77-1.16,10.85,10.85,0,0,0-1.54-.88l.26-.33a12.47,12.47,0,0,1,1.49.8,9,9,0,0,0,.56-1.66h-2.05a9.34,9.34,0,0,1-2,2.75,3.89,3.89,0,0,0-.36-.34,9.2,9.2,0,0,0,2.45-4l.52.13c-.11.31-.24.64-.39,1h2l.11,0Zm-4.95,8.61a8.28,8.28,0,0,0,1.5-2.07l.47.14a10.55,10.55,0,0,1-1.5,2.15Zm3.86-1.88a14.59,14.59,0,0,1,.26,1.93l-.51.08a11.58,11.58,0,0,0-.24-2Zm3.51-4.91a5.68,5.68,0,0,0,2.56,3.9,2.06,2.06,0,0,0-.35.43,5.89,5.89,0,0,1-2.44-3.4,5.34,5.34,0,0,1-2.88,3.41,1.79,1.79,0,0,0-.4-.37,5,5,0,0,0,2.94-4h-1.93v-.51h2c0-.16,0-.33,0-.48v-1.84h.51v1.84c0,.15,0,.32,0,.48H227v.51Zm-1.24,4.84a11.51,11.51,0,0,1,.74,1.95l-.51.13a10.48,10.48,0,0,0-.72-2Zm3-5.72a8.26,8.26,0,0,0-1.26-1.51l.38-.25a8.07,8.07,0,0,1,1.29,1.48Zm-.73,5.53a11.62,11.62,0,0,1,1.54,2.14l-.48.25a11.74,11.74,0,0,0-1.52-2.18Z"/>
      <path class="cls-1" d="M230.12,164.43a11,11,0,0,1-1.84,2.7,3.28,3.28,0,0,0-.47-.33,10.75,10.75,0,0,0,2.51-4.2l.52.14c-.16.4-.31.82-.5,1.22h7.19v.47Zm5.62,2.48c.11,2.54.47,5.19,1.42,5.19.21,0,.29-.58.31-1.52a2.07,2.07,0,0,0,.4.28c-.06,1.28-.2,1.76-.75,1.76-1.32,0-1.72-2.28-1.88-5.23h-6.16v-.48Zm-5.62-1v-.47h6.65v.47Z"/>
      <path class="cls-1" d="M248.17,167.29H240v1a7.8,7.8,0,0,1-1.1,4.4,1.74,1.74,0,0,0-.43-.34,7.18,7.18,0,0,0,1-4.07v-1.48h5.23a11.2,11.2,0,0,0,1-1.93l.55.18a15.35,15.35,0,0,1-1,1.75h2.91Zm-.32-2.71H239.3v-.5h4.34a6.05,6.05,0,0,0-.78-1.27l.48-.16a6.37,6.37,0,0,1,.88,1.34l-.22.09h3.85Zm-5.84,2a8.12,8.12,0,0,0-1-1.63l.43-.18a7.34,7.34,0,0,1,1,1.6Z"/>
      <path class="cls-1" d="M259.07,171.71v.52h-9.71v-.52H254v-3.13h-3.44v-.52H254v-2.69h-2.78a9.21,9.21,0,0,1-1.24,1.92c-.1-.08-.34-.23-.47-.31a10.32,10.32,0,0,0,2.07-4.12l.54.11a19.18,19.18,0,0,1-.67,1.89H254v-2.22h.54v2.22h4.09v.51h-4.09v2.69h3.7v.52h-3.7v3.13Z"/>
      <path class="cls-1" d="M262.74,162.74c-.19.55-.41,1.18-.6,1.66h1.92v7h-3.14v.9h-.49V164.4h1.22a15.31,15.31,0,0,0,.53-1.8Zm.81,2.14h-2.63v2.63h2.63Zm0,6.06V168h-2.63v2.94Zm5.91-6.23c-.19,5.1-.34,6.77-.78,7.29a1,1,0,0,1-.77.34,15.12,15.12,0,0,1-1.59,0,1.18,1.18,0,0,0-.17-.52c.72.06,1.37.07,1.62.07a.5.5,0,0,0,.46-.17c.36-.39.55-2.1.71-6.8h-3.08a10.33,10.33,0,0,1-1.08,2.05,2.93,2.93,0,0,0-.45-.29,10.92,10.92,0,0,0,1.69-4.09l.51.12a14.13,14.13,0,0,1-.49,1.72h3.42Zm-2.15,4.9a17.38,17.38,0,0,0-1.78-2.56l.43-.24a18.76,18.76,0,0,1,1.79,2.52Z"/>
      <path class="cls-1" d="M272.47,163.88a23.46,23.46,0,0,1-.55,2.75h1.95v4.48h-2v1h-.47v-4a8,8,0,0,1-.6,1.17,3.3,3.3,0,0,0-.36-.41,13,13,0,0,0,1.5-5h-1.39v-.48h3.68v.48Zm.93,3.24h-1.5v3.5h1.5Zm2.6-.5c-.19,2.42-.59,4.29-1.64,5.64a3.57,3.57,0,0,0-.4-.35c1-1.21,1.38-3,1.55-5.29h-1.32v-.47h1.35c0-.26,0-.5,0-.75l.5,0c0,.24,0,.48,0,.72h4.5v.47Zm4.06-1.49h-5.29V163h.48v1.66h1.92v-2h.5v2h1.9V163h.49Zm-1.62,1.72c0,.76-.08,1.44-.17,2.06a4.07,4.07,0,0,0,2.41,3.23,1.52,1.52,0,0,0-.33.39,4.19,4.19,0,0,1-2.26-2.72,3.84,3.84,0,0,1-2.53,2.81,1.8,1.8,0,0,0-.3-.37c2.27-.86,2.59-2.54,2.69-5.4ZM276,169.9a5.76,5.76,0,0,0,.63-2.09l.42.06a6.63,6.63,0,0,1-.65,2.25Zm2.92-.07a15.88,15.88,0,0,0,.81-2.05l.45.17c-.28.67-.6,1.49-.9,2.05Z"/>
      <path class="cls-1" d="M284.83,168l-1.42.45v3.35c0,.36-.1.5-.31.59a4.06,4.06,0,0,1-1.26.1,3,3,0,0,0-.18-.5h1c.15,0,.2-.05.2-.2v-3.19l-1.47.47-.16-.53,1.63-.46v-2.68h-1.5v-.5h1.5v-2.3h.51v2.3h1.29v.5h-1.29V168l1.35-.41Zm2.13-5.34h.51v9.91H287v-3h-2v-.49h2v-1.78h-1.74v-.48H287V165.1h-1.77v-.48H287Zm4.26,6.94h-2.07v3h-.51v-9.93h.51v1.93h2v.48h-2v1.74H291v.48h-1.87v1.82h2.07Z"/>
      <path class="cls-1" d="M296.22,166.67s0,.21,0,.29c-.09,3.68-.16,4.85-.44,5.23a.73.73,0,0,1-.6.27c-.27,0-.74,0-1.19,0a1.44,1.44,0,0,0-.16-.51c.51.05,1,.05,1.16.05s.25,0,.34-.13.3-1.4.37-4.69h-1.83v.2a7,7,0,0,1-1.72,5.26,2,2,0,0,0-.4-.36,6.53,6.53,0,0,0,1.61-4.91V165h-1.43v-.5h4.87v.5h-2.93v1.68Zm-1.85-2.37a9.47,9.47,0,0,0-.61-1.5l.45-.16a11.63,11.63,0,0,1,.65,1.46Zm6.73.92a12.75,12.75,0,0,1-1.56,4.6,5.72,5.72,0,0,0,2.43,2.35,1.81,1.81,0,0,0-.39.43,6,6,0,0,1-2.36-2.31,7.72,7.72,0,0,1-2.77,2.35,1.89,1.89,0,0,0-.34-.46A7,7,0,0,0,299,169.8a14.3,14.3,0,0,1-1.21-3.61,9.15,9.15,0,0,1-.92,1.71,5.74,5.74,0,0,0-.44-.38,12.66,12.66,0,0,0,1.87-4.89l.54.1c-.15.67-.31,1.35-.52,2h3.61v.5Zm-3,0a.5.5,0,0,1,0,.13,13.81,13.81,0,0,0,1.19,3.94,12.57,12.57,0,0,0,1.3-4.07Z"/>
      <path class="cls-1" d="M305.93,170.76a1.62,1.62,0,0,1-3.23,0,1.62,1.62,0,1,1,3.23,0Zm-.42,0a1.2,1.2,0,0,0-2.39,0,1.2,1.2,0,0,0,2.39,0Z"/>
      <path class="cls-1" d="M3.59,176.38a.23.23,0,0,1,0,.2.31.31,0,0,1-.15.1l-1,.27.62.78a.23.23,0,0,1,.07.17.2.2,0,0,1-.1.17.23.23,0,0,1-.2.05A.27.27,0,0,1,2.7,178l-.56-.83-.55.83a.24.24,0,0,1-.14.12.21.21,0,0,1-.19-.05.2.2,0,0,1-.1-.17.27.27,0,0,1,.06-.17l.63-.78-1-.27-.09,0-.06-.06a.16.16,0,0,1,0-.09.22.22,0,0,1,0-.11.22.22,0,0,1,.13-.15.28.28,0,0,1,.18,0l.94.36,0-1a.23.23,0,0,1,0-.18.21.21,0,0,1,.18-.07.21.21,0,0,1,.19.07.29.29,0,0,1,0,.18l0,1,.93-.36a.31.31,0,0,1,.19,0A.22.22,0,0,1,3.59,176.38Z"/>
      <path class="cls-1" d="M8.48,176.65a6.67,6.67,0,0,0,2.81,3.29,2.61,2.61,0,0,0-.27.31,7.45,7.45,0,0,1-2.9-3.6H8v3h1.9V180H8v1.5H7.6V180H5.71v-.37H7.6v-3H7.44a8.06,8.06,0,0,1-2.84,3.61,1.8,1.8,0,0,0-.26-.29,7.28,7.28,0,0,0,2.72-3.32H4.51v-.36H7.6v-1.68H8v1.68h3.12v.36Z"/>
      <path class="cls-1" d="M13.89,178.39c-.47.76-1.08,1.67-1.57,2.3l-.33-.25a24.44,24.44,0,0,0,1.62-2.28Zm-.33-2a7.54,7.54,0,0,0-1.44-1l.22-.26a6.54,6.54,0,0,1,1.45,1Zm2.85.83a4.26,4.26,0,0,1,0,.5,4.19,4.19,0,0,0,2.46,3.39,1.83,1.83,0,0,0-.24.31,4.14,4.14,0,0,1-2.34-2.86,4.36,4.36,0,0,1-2.58,2.93,1.35,1.35,0,0,0-.26-.28,4,4,0,0,0,2.61-4v-.47h.37Zm-1.35-.93a7.55,7.55,0,0,1-.79,1.61,2.91,2.91,0,0,0-.35-.2,8.4,8.4,0,0,0,1.22-3.13l.38.07a10.62,10.62,0,0,1-.35,1.29h3.09l.08,0,.26.14a9.82,9.82,0,0,1-.79,2l-.31-.16a8,8,0,0,0,.64-1.58Z"/>
      <path class="cls-1" d="M21.73,174.73a11,11,0,0,1-.83,1.69v5.09h-.35V177a7.53,7.53,0,0,1-.92,1.13,1.53,1.53,0,0,0-.22-.32,9.19,9.19,0,0,0,2-3.14Zm2.52,2v1.69H26v3.09h-.36v-.29H22.54v.32h-.36v-3.12h1.71V176.7h-2.2v-.35h2.2v-1.74h.36v1.74H26.5v.35Zm1.4,2H22.54v2.09h3.11Z"/>
      <path class="cls-1" d="M28.19,175.54a4.72,4.72,0,0,1-.69.86,2.43,2.43,0,0,0-.29-.21,4.42,4.42,0,0,0,1.09-1.6l.35.08c-.08.18-.17.37-.26.54h2.2v.33H29.12a4.58,4.58,0,0,1,.35.61l-.33.14a3.81,3.81,0,0,0-.41-.75Zm5.87,4.65H32.23v1.32h-.36v-1.32H29.62c-.19.48-.68,1-1.92,1.33a1.23,1.23,0,0,0-.24-.28,2.54,2.54,0,0,0,1.74-1.05H27.33v-.32h2a2.12,2.12,0,0,0,0-.33v-.46H28.27V176.3h4.94v2.78h-1v.79h1.83Zm-5.42-3.06h4.2v-.54h-4.2Zm0,.82h4.2v-.54h-4.2Zm0,.84h4.2v-.56h-4.2Zm3.23,1.08v-.79H29.73v.47c0,.1,0,.2,0,.32Zm-.73-4.33a4.08,4.08,0,0,1-.64.76,2.11,2.11,0,0,0-.31-.21,3.65,3.65,0,0,0,1-1.5l.35.07a2.73,2.73,0,0,1-.25.55H34v.33H32.32a2.41,2.41,0,0,1,.42.59l-.29.16a3.38,3.38,0,0,0-.56-.75Z"/>
      <path class="cls-1" d="M38.13,179.07c0,.09.08.25.1.33a17.9,17.9,0,0,0-2.63,1.27,1.35,1.35,0,0,0-.2-.31.7.7,0,0,0,.4-.59v-4.53h.38v4.7Zm2.63-4.16a11.76,11.76,0,0,1-.84,4.33,14.49,14.49,0,0,1,1.86,2l-.32.24a13.08,13.08,0,0,0-1.7-2,4.86,4.86,0,0,1-2.39,2,1.57,1.57,0,0,0-.26-.33c2.53-1,3.08-2.88,3.27-6.37Zm-2.17,2.35a9.74,9.74,0,0,0-1.17-1.83l.31-.16a10.11,10.11,0,0,1,1.19,1.8Z"/>
      <path class="cls-1" d="M45.9,175.63a.5.5,0,0,1,0,.16l-2,5.07a.2.2,0,0,1-.13.14.25.25,0,0,1-.19,0,.29.29,0,0,1-.14-.13.23.23,0,0,1,0-.2l1.9-4.81H42.8a.24.24,0,0,1-.24-.24.28.28,0,0,1,.07-.17.25.25,0,0,1,.17-.06h2.86a.25.25,0,0,1,.17.06A.28.28,0,0,1,45.9,175.63Z"/>
      <path class="cls-1" d="M53.62,179.69H50.76v1.83H50.4v-1.83H46.8v-.36h1.29v-2.08H50.4v-1.32h-2a7.21,7.21,0,0,1-1.23,1.58,2.13,2.13,0,0,0-.33-.23,6.65,6.65,0,0,0,1.8-2.7l.38.09c-.13.31-.27.62-.42.91h4.7v.35H50.76v1.32h2.38v.35H50.76v1.73h2.86Zm-3.22-.36V177.6H48.45v1.73Z"/>
      <path class="cls-1" d="M56.71,174.74a12.19,12.19,0,0,1-.82,1.66v5.11h-.37V177a8.61,8.61,0,0,1-.92,1.11,1.65,1.65,0,0,0-.23-.33,9,9,0,0,0,2-3.14Zm2.11,1.51v1.28h2.32v.35H58.82v1.33h2.43v.35H58.82v1.95h-.37v-5.26h-.66a8.19,8.19,0,0,1-1.14,1.66,3.67,3.67,0,0,0-.29-.23,8.61,8.61,0,0,0,1.72-3l.34.09a10.63,10.63,0,0,1-.46,1.1h3.33v.35Z"/>
      <path class="cls-1" d="M68.45,176.68c-.13,3.12-.24,4.19-.54,4.52a.71.71,0,0,1-.55.24c-.26,0-.74,0-1.22,0A.68.68,0,0,0,66,181c.53.05,1,.05,1.21.05s.27,0,.34-.11c.25-.24.38-1.3.5-4.14H65.21a6.07,6.07,0,0,1-2.82,4.6,1.16,1.16,0,0,0-.28-.26,5.8,5.8,0,0,0,2.73-4.34H62.33v-.37h2.54c0-.36,0-.7,0-1v-.82h.36v.82c0,.32,0,.66,0,1h3.21Zm-4.58-.56A6.55,6.55,0,0,0,63,175l.31-.16a7.27,7.27,0,0,1,.87,1.12Zm2.79,3.47a8.52,8.52,0,0,0-1.13-1.53l.29-.16A7.43,7.43,0,0,1,67,179.4Z"/>
      <path class="cls-1" d="M76.47,180.9v.35H69.74v-.35h3.18v-2.18H70.53v-.36h2.39v-1.87H71a6.06,6.06,0,0,1-.86,1.34,3.16,3.16,0,0,0-.33-.21,7.12,7.12,0,0,0,1.44-2.87l.37.08a13.48,13.48,0,0,1-.46,1.31h1.77V174.6h.37v1.54h2.84v.35H73.29v1.87h2.57v.36H73.29v2.18Z"/>
      <path class="cls-1" d="M81.05,174.74c0,.06-.08.11-.12.18A7.21,7.21,0,0,0,84.21,177a1.87,1.87,0,0,0-.28.35,7.81,7.81,0,0,1-3.21-2.16,8,8,0,0,1-3.26,2.21,1.2,1.2,0,0,0-.22-.36,6.78,6.78,0,0,0,3.51-2.48Zm-.89,5.5H78.31v.67H78v-3.2h2.2Zm-1.85-2.18v1.84h1.5v-1.84ZM82.14,177H79.23v-.34h2.91Zm1.37,2.93c0,.23-.05.35-.23.42a4.46,4.46,0,0,1-1.17.07A1.89,1.89,0,0,0,82,180c.52,0,.91,0,1,0s.16,0,.16-.15v-1.84H81.45v3.47H81.1v-3.81h2.41Z"/>
      <path class="cls-1" d="M91.14,181c0,.29-.08.42-.29.49a6.38,6.38,0,0,1-1.3.06,1.28,1.28,0,0,0-.14-.35h1.17c.15,0,.2-.06.2-.2v-5.64H86.13v2a7.48,7.48,0,0,1-1,4.24,1.32,1.32,0,0,0-.29-.24,7,7,0,0,0,.92-4V175h5.38Zm-3-3.49v-.91H86.69v-.32h1.49v-.75h.35v.75h1.58v.32H88.53v.91h1.8v.32H86.48v-.32Zm-.92,3v.43h-.34v-2.37h3v1.94Zm0-1.63v1.32h2.27v-1.32Z"/>
      <path class="cls-1" d="M96.24,179.64H92.51v-.34h.78V176h-.67v-.33h.67v-1h.34v1h1.64v-1h.35v1h.59V176h-.59v3.28h.62ZM94,180a5,5,0,0,1-1.12,1.55c-.07,0-.21-.16-.31-.22a4,4,0,0,0,1.08-1.43ZM93.63,176v.81h1.64V176Zm0,2h1.64v-.91H93.63Zm0,1.24h1.64v-.93H93.63Zm1.37.58a6.23,6.23,0,0,1,.77,1.15l-.3.18a6.57,6.57,0,0,0-.76-1.17ZM99.18,181c0,.27-.07.39-.25.45a3.83,3.83,0,0,1-1.08.08,1.63,1.63,0,0,0-.13-.37h1c.11,0,.16,0,.16-.17v-2H97a5.87,5.87,0,0,1-.76,2.66,1,1,0,0,0-.3-.22,6.7,6.7,0,0,0,.75-3.59V175h2.53Zm-.35-2.39v-1.45H97v.64c0,.26,0,.53,0,.81ZM97,175.35v1.42h1.83v-1.42Z"/>
      <path class="cls-1" d="M100.21,181.35a1.38,1.38,0,0,0,1-1.25.44.44,0,0,1-.16,0,.42.42,0,0,1-.47-.46.45.45,0,0,1,.47-.47c.36,0,.55.31.55.78a1.77,1.77,0,0,1-1.21,1.67Z"/>
      <path class="cls-1" d="M107.58,175.44c-.12.43-.24.91-.37,1.27h3.18v4.23c0,.27-.06.38-.25.45a5.3,5.3,0,0,1-1.16.07,1.4,1.4,0,0,0-.14-.37c.5,0,.9,0,1,0s.16,0,.16-.15v-3.87h-1.51v4.19h-.37v-4.19h-1.5v4.19h-.36v-4.19h-1.44v4.45h-.37v-4.81h2.37c.1-.37.22-.87.3-1.27h-3.08v-.36h6.76v.36Z"/>
      <path class="cls-1" d="M118.34,179.09v.33H115.1c-.42,1-1.27,1.67-3,2.05a1.21,1.21,0,0,0-.21-.31c1.58-.33,2.38-.88,2.8-1.74h-2.88v-.33h3a10,10,0,0,0,.34-2.76h.38a11.15,11.15,0,0,1-.33,2.76Zm-6-2.1H112v-1.43h3.08a5.93,5.93,0,0,0-.49-.87l.36-.1a5.35,5.35,0,0,1,.54,1h2.63V177h-.37v-1.08h-5.39Zm.23.63a5.29,5.29,0,0,1,1.22.9l-.23.28a5.57,5.57,0,0,0-1.21-.93Zm1.66-.05a5.21,5.21,0,0,0-1.14-.9l.24-.23a5.4,5.4,0,0,1,1.14.87Zm1.31,2.11a12.62,12.62,0,0,1,2.74,1.5l-.24.28a11.5,11.5,0,0,0-2.69-1.51Z"/>
      <path class="cls-1" d="M121.8,175.08c-.24.61-.55,1.34-.82,2a2.41,2.41,0,0,1,.76,1.71,1,1,0,0,1-.28.82.9.9,0,0,1-.38.13,4.68,4.68,0,0,1-.53,0,1,1,0,0,0-.11-.34,2.22,2.22,0,0,0,.51,0,.44.44,0,0,0,.26-.07.72.72,0,0,0,.17-.57,2.34,2.34,0,0,0-.78-1.64c.27-.61.54-1.28.72-1.81H120v6.25h-.36v-6.59h1.88l.06,0Zm1.24,3.35a7.16,7.16,0,0,1-1.06,2.31,2,2,0,0,0-.3-.2,6.38,6.38,0,0,0,1-2.18Zm3-1.36v.35h-2V181c0,.26-.06.36-.25.43a3.83,3.83,0,0,1-1.08.08,1.39,1.39,0,0,0-.12-.38,8.85,8.85,0,0,0,.93,0c.12,0,.15,0,.15-.13v-3.57h-1.71v-.35Zm-.42-1.47h-3.29v-.35h3.29Zm-.54,2.75a13.23,13.23,0,0,1,.93,2.26l-.36.12a11,11,0,0,0-.9-2.29Z"/>
      <path class="cls-1" d="M133.67,180.79v.37h-6.74v-.37h2.93v-6.06h.38v2.44h3v.37h-3v3.25Z"/>
      <path class="cls-1" d="M138.63,176.65a6.67,6.67,0,0,0,2.81,3.29,1.93,1.93,0,0,0-.27.31,7.45,7.45,0,0,1-2.9-3.6h-.15v3H140V180h-1.9v1.5h-.37V180h-1.89v-.37h1.89v-3h-.16a8.06,8.06,0,0,1-2.84,3.61,1.8,1.8,0,0,0-.26-.29,7.28,7.28,0,0,0,2.72-3.32h-2.55v-.36h3.09v-1.68h.37v1.68h3.12v.36Z"/>
      <path class="cls-1" d="M144.6,179.19l-2.47.85-.1-.37,1.13-.35v-3.41h-1v-.35h2.33v.35h-1v3.29l1-.33Zm1.94-2.12h.37v1.63c0,1-.24,2.1-2.4,2.78a1.09,1.09,0,0,0-.23-.29c2.09-.61,2.26-1.64,2.26-2.49ZM149,175v.34h-2c-.12.32-.24.66-.35.92h1.81v3.55h-.37v-3.22h-2.75v3.23H145v-3.56h1.29a9,9,0,0,0,.31-.92h-1.92V175Zm-1.77,5a13.19,13.19,0,0,1,1.76,1.31l-.25.29a12.28,12.28,0,0,0-1.74-1.35Z"/>
      <path class="cls-1" d="M155.68,175.11v6.39h-.37V181H151v.55h-.37v-6.39Zm-4.64.36v1.46h4.27v-1.46Zm0,1.81v1.47h4.27v-1.47Zm4.27,3.31v-1.48H151v1.48Z"/>
      <path class="cls-1" d="M159.2,174.75a11.47,11.47,0,0,1-.61,1.54v5.23h-.35V177a8.26,8.26,0,0,1-.76,1.11,1.94,1.94,0,0,0-.22-.34,9.1,9.1,0,0,0,1.6-3.07ZM164,177.4v.2c-.14,2.48-.26,3.37-.54,3.66a.64.64,0,0,1-.51.21,10.68,10.68,0,0,1-1.17,0,.77.77,0,0,0-.12-.35c.52,0,1,0,1.18,0s.24,0,.32-.1.35-1,.47-3.28h-1.44c.14-.57.33-1.48.46-2.23h-1.77c0,2.06-.2,4.68-1.68,6a1.37,1.37,0,0,0-.29-.24c1.43-1.24,1.57-3.82,1.61-5.78h-1v-.35H163c-.12.69-.29,1.58-.43,2.23Z"/>
      <path class="cls-1" d="M167.52,176.21a9.72,9.72,0,0,1-.93,1.59v3.68h-.36v-3.24a6.91,6.91,0,0,1-1,.94l-.21-.31a7.15,7.15,0,0,0,2.11-2.66h-2v-.36h2.12a8.45,8.45,0,0,0,.44-1.25l.38.1c-.13.39-.26.77-.42,1.15h4.07v.36Zm4.25,4.78v.35h-4.63V181h2.12v-2.41h-1.81v-.35h1.81v-1.58h.36v1.58h1.85v.35h-1.85V181Z"/>
      <path class="cls-1" d="M174.11,180.24a5.86,5.86,0,0,1,.71.47,3.65,3.65,0,0,0,2,.38c.91,0,2-.06,2.75-.13a1.38,1.38,0,0,0-.1.4c-.49,0-1.84.08-2.66.08a3.73,3.73,0,0,1-2.11-.44c-.29-.19-.57-.46-.75-.46s-.65.43-1.06,1l-.26-.3a3.18,3.18,0,0,1,1.13-1v-2.6h-1.12v-.35h1.48Zm.11-3.91a14.64,14.64,0,0,0-1.36-1l.25-.24c.45.29,1,.7,1.36.95Zm4.72,3.92c-.08-.17-.19-.38-.32-.61a19.15,19.15,0,0,0-3.51.38,3.43,3.43,0,0,0-.13-.38c.11,0,.24-.22.4-.47a12.33,12.33,0,0,0,1-1.91h-1.68v-.35h4.86v.35h-2.76a13.36,13.36,0,0,1-1.22,2.29l2.9-.22c-.28-.49-.61-1-.9-1.48l.31-.13c.5.76,1.12,1.77,1.41,2.35Zm0-4.76h-3.79v-.35H179Z"/>
      <path class="cls-1" d="M182.65,176.34a7.82,7.82,0,0,1-.86,1.15v4.07h-.37v-3.67a9,9,0,0,1-1,1,3.69,3.69,0,0,0-.28-.28,8.82,8.82,0,0,0,2.21-2.34Zm-.3-1.6a9.32,9.32,0,0,1-1.92,1.84l-.23-.28a7.92,7.92,0,0,0,1.8-1.7Zm4.8,2.79h-1.23V181c0,.27-.07.38-.29.44a7,7,0,0,1-1.38.06,1.68,1.68,0,0,0-.15-.34c.6,0,1.12,0,1.27,0s.19-.05.19-.17v-3.45h-2.73v-.36h4.32Zm-.26-2.09h-3.73v-.36h3.73Z"/>
      <polyline class="cls-2" points="0.32 13.16 0.32 139.16 270.32 139.16"/>
      <path class="cls-1" d="M48.15,149.63H44v2.64H43.5v-2.64H38.31v-.51h1.86v-3H43.5v-1.9H40.62a10.48,10.48,0,0,1-1.78,2.28,2.44,2.44,0,0,0-.47-.33,9.67,9.67,0,0,0,2.6-3.9l.54.13a14.39,14.39,0,0,1-.6,1.31h6.78v.51H44v1.9h3.43v.51H44v2.5h4.12Zm-4.65-.51v-2.5H40.69v2.5Z"/>
      <path class="cls-1" d="M51.15,143.54a21.57,21.57,0,0,1-.55,2.75h1.95v4.48h-2v1h-.47v-4a8.54,8.54,0,0,1-.6,1.17,3.3,3.3,0,0,0-.36-.41,13,13,0,0,0,1.5-5H49.26v-.49h3.68v.49Zm.93,3.23h-1.5v3.51h1.5Zm2.61-.49c-.2,2.42-.6,4.29-1.64,5.64a3.58,3.58,0,0,0-.41-.35c1-1.21,1.39-3,1.55-5.29H52.87v-.48h1.35c0-.25,0-.49,0-.74l.5,0c0,.24,0,.47,0,.71h4.5v.48Zm4.06-1.49h-5.3v-2.13h.48v1.66h1.92v-2h.5v2h1.9v-1.66h.5Zm-1.63,1.72c0,.76-.08,1.44-.17,2.06a4.07,4.07,0,0,0,2.41,3.23,1.37,1.37,0,0,0-.33.39,4.15,4.15,0,0,1-2.25-2.72,3.84,3.84,0,0,1-2.53,2.8,1.79,1.79,0,0,0-.31-.36c2.28-.86,2.59-2.54,2.69-5.4Zm-2.45,3.05a5.76,5.76,0,0,0,.63-2.09l.42.06a6.63,6.63,0,0,1-.65,2.25Zm2.92-.07a14.22,14.22,0,0,0,.81-2.06l.46.18c-.29.67-.61,1.48-.91,2Z"/>
      <path class="cls-1" d="M63.84,147.69c-.49.15-1,.29-1.42.45v3.35c0,.35-.1.5-.31.59a4.45,4.45,0,0,1-1.25.09,3.06,3.06,0,0,0-.19-.49h1c.15,0,.2-.05.2-.2V148.3l-1.47.46-.16-.52,1.63-.47V145.1H60.42v-.51h1.49V142.3h.51v2.29h1.3v.51h-1.3v2.51l1.35-.41ZM66,142.35h.51v9.91H66v-3H64v-.5h2V147H64.23v-.48H66v-1.74H64.2v-.48H66Zm4.26,6.94H68.16v3h-.5v-9.92h.5v1.93h2v.48h-2v1.74H70V147H68.16v1.82h2.07Z"/>
      <path class="cls-1" d="M75.56,146.33s0,.21,0,.29c-.09,3.67-.16,4.85-.44,5.22a.71.71,0,0,1-.6.28c-.27,0-.74,0-1.19,0a1.65,1.65,0,0,0-.15-.51c.5.05,1,.05,1.15.05s.25,0,.34-.14.3-1.39.38-4.68H73.2v.2a7,7,0,0,1-1.72,5.26,1.94,1.94,0,0,0-.39-.36,6.54,6.54,0,0,0,1.6-4.91v-2.37H71.26v-.51h4.88v.51H73.2v1.68ZM73.72,144a10.63,10.63,0,0,0-.62-1.5l.45-.16a11,11,0,0,1,.65,1.46Zm6.72.92a12.94,12.94,0,0,1-1.55,4.6,5.62,5.62,0,0,0,2.42,2.34,2.4,2.4,0,0,0-.39.44A5.93,5.93,0,0,1,78.57,150a7.84,7.84,0,0,1-2.78,2.35,1.94,1.94,0,0,0-.34-.47,6.8,6.8,0,0,0,2.84-2.37,14.44,14.44,0,0,1-1.21-3.61,8.75,8.75,0,0,1-.92,1.7c-.09-.09-.32-.27-.44-.37a12.65,12.65,0,0,0,1.87-4.9l.54.1c-.15.67-.31,1.36-.52,2h3.61v.5Zm-3,0a.61.61,0,0,1,0,.13A13.81,13.81,0,0,0,78.6,149a12.33,12.33,0,0,0,1.3-4.07Z"/>
      <path class="cls-1" d="M84.2,153.08a.36.36,0,0,1-.1.27.35.35,0,0,1-.26.1.28.28,0,0,1-.15,0,.32.32,0,0,1-.13-.13,8.77,8.77,0,0,1-.62-1.27,9.59,9.59,0,0,1-.4-1.36,9.09,9.09,0,0,1-.22-1.37,13.05,13.05,0,0,1,0-2.7,9.56,9.56,0,0,1,.22-1.39,9.09,9.09,0,0,1,.4-1.35,8.18,8.18,0,0,1,.62-1.26.44.44,0,0,1,.13-.14.42.42,0,0,1,.15,0,.36.36,0,0,1,.26.11.35.35,0,0,1,.1.26.49.49,0,0,1,0,.12.31.31,0,0,1-.06.13,8,8,0,0,0-.54,1.15,8.67,8.67,0,0,0-.36,1.23,10.82,10.82,0,0,0-.2,1.27c0,.42-.06.85-.06,1.26s0,.84.06,1.26a10.34,10.34,0,0,0,.2,1.26,8.67,8.67,0,0,0,.36,1.23,7.56,7.56,0,0,0,.54,1.15.38.38,0,0,1,.06.13A.49.49,0,0,1,84.2,153.08Z"/>
      <path class="cls-1" d="M89.44,151a.33.33,0,0,1,0,.19.26.26,0,0,1-.07.15.35.35,0,0,1-.13.11.47.47,0,0,1-.17,0,.34.34,0,0,1-.16,0,.39.39,0,0,1-.13-.15c-.25-.47-.52-.94-.81-1.39s-.61-.9-.92-1.32l-.84.87v1.68a.31.31,0,0,1-.11.25.35.35,0,0,1-.25.1.33.33,0,0,1-.25-.1.3.3,0,0,1-.1-.25v-7.32a.34.34,0,0,1,.35-.35.35.35,0,0,1,.25.1.34.34,0,0,1,.11.25v4.76l2.54-2.6a.28.28,0,0,1,.22-.09.35.35,0,0,1,.23.09.32.32,0,0,1,.09.23.31.31,0,0,1-.09.22l-1.66,1.68c.34.45.67.92,1,1.4S89.17,150.53,89.44,151Z"/>
      <path class="cls-1" d="M94.29,151.09a4,4,0,0,1-.1.93,1.94,1.94,0,0,1-.36.75,1.73,1.73,0,0,1-.64.52,2.45,2.45,0,0,1-1,.18,5.06,5.06,0,0,1-.79-.06,3.48,3.48,0,0,1-.69-.21.31.31,0,0,1-.21-.29.28.28,0,0,1,0-.13.24.24,0,0,1,.09-.11.29.29,0,0,1,.12-.07h.16a5,5,0,0,0,.54.16,2.53,2.53,0,0,0,.72.09,1.72,1.72,0,0,0,.68-.13,1.09,1.09,0,0,0,.44-.35,1.32,1.32,0,0,0,.23-.54,3.08,3.08,0,0,0,.08-.71v-.32a2,2,0,0,1-.37.22,2.88,2.88,0,0,1-.75.24l-.33,0a2.16,2.16,0,0,1-.9-.16,1.42,1.42,0,0,1-.58-.44,2,2,0,0,1-.32-.7,4.16,4.16,0,0,1-.09-.9v-.89a3.73,3.73,0,0,1,.1-.91,2,2,0,0,1,.33-.72,1.49,1.49,0,0,1,.6-.47,2,2,0,0,1,.89-.17l.33,0a1.61,1.61,0,0,1,.36.1,1.89,1.89,0,0,1,.36.16,2.19,2.19,0,0,1,.37.25v-.18a.3.3,0,0,1,.11-.25.33.33,0,0,1,.24-.1.3.3,0,0,1,.25.1.32.32,0,0,1,.1.25Zm-.7-3.9a1.88,1.88,0,0,0-.34-.3,2.16,2.16,0,0,0-.36-.2,1.62,1.62,0,0,0-.34-.1l-.31,0a1.15,1.15,0,0,0-1,.4,1.87,1.87,0,0,0-.31,1.17v1a2.54,2.54,0,0,0,.07.65,1.18,1.18,0,0,0,.22.48,1,1,0,0,0,.39.29,1.8,1.8,0,0,0,.6.09l.31,0a2,2,0,0,0,.36-.1,1.89,1.89,0,0,0,.36-.16,1.72,1.72,0,0,0,.34-.24Z"/>
      <path class="cls-1" d="M97.57,147.93q0,.66-.06,1.35a10.56,10.56,0,0,1-.22,1.37,11.1,11.1,0,0,1-.4,1.36,7.84,7.84,0,0,1-.62,1.27.34.34,0,0,1-.14.13.28.28,0,0,1-.15,0,.32.32,0,0,1-.25-.1.37.37,0,0,1-.11-.27.5.5,0,0,1,0-.12.69.69,0,0,1,0-.13,6.75,6.75,0,0,0,.55-1.15,10.19,10.19,0,0,0,.35-1.23,10.34,10.34,0,0,0,.2-1.26q.06-.63.06-1.26c0-.41,0-.84-.06-1.26a10.82,10.82,0,0,0-.2-1.27,10.19,10.19,0,0,0-.35-1.23,7.13,7.13,0,0,0-.55-1.15.65.65,0,0,1-.07-.25.36.36,0,0,1,.11-.26.33.33,0,0,1,.25-.11.42.42,0,0,1,.15,0,.47.47,0,0,1,.14.14,7.37,7.37,0,0,1,.62,1.26,10.47,10.47,0,0,1,.4,1.35,11.15,11.15,0,0,1,.22,1.39Q97.57,147.27,97.57,147.93Z"/>
      <polygon class="cls-3" points="141.87 0.01 150.87 0.01 150.87 9.01 141.87 9.01 141.87 0.01 141.87 0.01"/>
      <path class="cls-1" d="M158.63,7.34h-5.4V6.85h1.1V2.12h-.92V1.64h.92V.2h.5V1.64h2.34V.2h.51V1.64h.87v.48h-.87V6.85h.95Zm-3.24.45a6.37,6.37,0,0,1-1.49,2.12,2.78,2.78,0,0,0-.43-.31,5.37,5.37,0,0,0,1.41-1.94Zm-.56-5.67V3.34h2.34V2.12Zm0,2.92h2.34V3.8h-2.34Zm0,1.81h2.34V5.5h-2.34Zm1.92.81a7.92,7.92,0,0,1,1,1.37l-.42.26a8.14,8.14,0,0,0-1-1.41Zm6.48-3.35H162v5.75h-.51V4.31h-2v.56c0,2-.22,3.8-1.63,5.28a3.28,3.28,0,0,0-.39-.34C158.8,8.43,159,6.67,159,4.86V1.19A19.45,19.45,0,0,0,162.68.13l.43.4a19.92,19.92,0,0,1-3.64,1V3.81h3.76Z"/>
      <path class="cls-1" d="M168.59,8.17c0,.15,0,.36,0,.47a23.59,23.59,0,0,0-3.66,1,2.25,2.25,0,0,0-.22-.48c.1,0,.21-.16.21-.54V6.26h3.37V4.73h-3.58V4.24h4.08v2.5h-3.4v2.2Zm.51-5h-4.32V.81h.48V2.68h1.44V.13h.47V2.68h1.45V.81h.48Zm4.46,6.31c.19,0,.22-.27.24-1.46a1.23,1.23,0,0,0,.43.21c0,1.27-.16,1.67-.63,1.67h-.66c-.53,0-.65-.18-.65-.85V1.22h-1.76V3.88c0,1.82-.17,4.38-1.39,6.16a2.36,2.36,0,0,0-.42-.33C169.91,8,170,5.63,170,3.87V.74h2.75V9c0,.38,0,.42.22.42Z"/>
      <path class="cls-1" d="M185.09,6.94h-4.47V9.31c0,.37-.09.54-.41.61a9.55,9.55,0,0,1-1.92.09,1.73,1.73,0,0,0-.21-.49c.84,0,1.55,0,1.74,0s.27,0,.27-.21V6.94H175.4v-.5h4.69V5.78a10.59,10.59,0,0,0,2.42-1.31h-5.9V4h6.48l.12,0,.37.27a10.38,10.38,0,0,1-3,1.82v.41h4.47Zm-.7-6.46a54.66,54.66,0,0,1-8.19.78,1.55,1.55,0,0,0-.15-.46,55.2,55.2,0,0,0,7.86-.75Zm-7,3.22a13,13,0,0,0-.94-1.86l.46-.19a11.19,11.19,0,0,1,1,1.85Zm2.77-.2a11.33,11.33,0,0,0-.71-1.91l.49-.15a13.59,13.59,0,0,1,.74,1.87Zm1.95,0a16,16,0,0,0,1.39-2.27l.55.23a21.08,21.08,0,0,1-1.5,2.23Z"/>
      <path class="cls-1" d="M191.72,8.81a.3.3,0,0,1,0,.2.25.25,0,0,1-.06.17.36.36,0,0,1-.14.11.41.41,0,0,1-.18.05.37.37,0,0,1-.17-.05.38.38,0,0,1-.14-.16c-.28-.55-.59-1.1-.92-1.65s-.66-1.09-1-1.65H187.4V9a.37.37,0,0,1-.1.25.36.36,0,0,1-.52,0,.34.34,0,0,1-.11-.25V1.59a.38.38,0,0,1,.37-.37h2.11a3.59,3.59,0,0,1,1.16.17,2.23,2.23,0,0,1,.79.44,1.81,1.81,0,0,1,.45.65,2.19,2.19,0,0,1,.14.77v.49a2.05,2.05,0,0,1-.1.65,2,2,0,0,1-.32.59,2.13,2.13,0,0,1-.55.47,2.29,2.29,0,0,1-.8.28c.33.52.65,1,1,1.55S191.46,8.3,191.72,8.81ZM191,3.25a1.69,1.69,0,0,0-.09-.49,1.12,1.12,0,0,0-.3-.43A1.62,1.62,0,0,0,190,2a2.68,2.68,0,0,0-.87-.12H187.4V5.16h1.75A2.34,2.34,0,0,0,190,5a1.76,1.76,0,0,0,.56-.33,1.14,1.14,0,0,0,.31-.46,1.48,1.48,0,0,0,.1-.5Z"/>
      <path class="cls-1" d="M197.14,6.43a.29.29,0,0,1-.29.29h-3.19v.33a2.73,2.73,0,0,0,.08.67,1.52,1.52,0,0,0,.25.51,1.09,1.09,0,0,0,.44.33,1.56,1.56,0,0,0,.64.12,2.93,2.93,0,0,0,.84-.1,2.6,2.6,0,0,0,.61-.25.23.23,0,0,1,.24,0,.3.3,0,0,1,.17.16.31.31,0,0,1-.13.41,2.44,2.44,0,0,1-.8.32,4,4,0,0,1-.94.11,2.15,2.15,0,0,1-1-.19,1.62,1.62,0,0,1-.65-.49,1.92,1.92,0,0,1-.36-.73A3.6,3.6,0,0,1,193,7V6a3.68,3.68,0,0,1,.11-.89,2.26,2.26,0,0,1,.36-.73,1.92,1.92,0,0,1,.65-.5,2.73,2.73,0,0,1,1.95,0,1.61,1.61,0,0,1,.64.5,1.73,1.73,0,0,1,.35.72,3.6,3.6,0,0,1,.11.88Zm-.69-.52a2.73,2.73,0,0,0-.07-.66,1.28,1.28,0,0,0-.23-.5,1.18,1.18,0,0,0-.43-.33,1.82,1.82,0,0,0-.66-.11,1.52,1.52,0,0,0-.64.12,1,1,0,0,0-.44.32,1.34,1.34,0,0,0-.24.51,2.71,2.71,0,0,0-.08.66v.21h2.79Z"/>
      <path class="cls-1" d="M201.83,8.57a.34.34,0,0,1,0,.24.31.31,0,0,1-.16.18,2.68,2.68,0,0,1-.67.24,3.25,3.25,0,0,1-.69.08,2.3,2.3,0,0,1-1-.18,1.8,1.8,0,0,1-.65-.5,2,2,0,0,1-.38-.76,3.74,3.74,0,0,1-.12-1V6.13a3.12,3.12,0,0,1,.13-.93,2.48,2.48,0,0,1,.39-.78,1.93,1.93,0,0,1,.66-.53,2.06,2.06,0,0,1,.93-.19,3.37,3.37,0,0,1,.69.07,2.41,2.41,0,0,1,.65.24.43.43,0,0,1,.16.2.27.27,0,0,1,0,.23.28.28,0,0,1-.17.15.32.32,0,0,1-.25,0,2.07,2.07,0,0,0-.47-.18,2.92,2.92,0,0,0-.54,0,1.38,1.38,0,0,0-.62.13,1.23,1.23,0,0,0-.46.36,1.78,1.78,0,0,0-.28.55,2.6,2.6,0,0,0-.09.71v.82a2.09,2.09,0,0,0,.36,1.3,1.26,1.26,0,0,0,1.08.47,2.38,2.38,0,0,0,1-.24.28.28,0,0,1,.25,0A.28.28,0,0,1,201.83,8.57Z"/>
      <path class="cls-1" d="M207.1,7.06a3,3,0,0,1-.12.87,2.05,2.05,0,0,1-.37.72,1.82,1.82,0,0,1-.66.48,2.76,2.76,0,0,1-2,0,1.82,1.82,0,0,1-.66-.48,2.07,2.07,0,0,1-.38-.72,3.45,3.45,0,0,1-.11-.87V5.94a3.58,3.58,0,0,1,.11-.87,1.94,1.94,0,0,1,.38-.71,1.71,1.71,0,0,1,.66-.48,2.76,2.76,0,0,1,2,0,1.71,1.71,0,0,1,.66.48,1.93,1.93,0,0,1,.37.71,3.15,3.15,0,0,1,.12.87Zm-.7-1.12a2.55,2.55,0,0,0-.08-.64,1.32,1.32,0,0,0-.26-.5,1.12,1.12,0,0,0-.44-.32,2,2,0,0,0-1.31,0,1.08,1.08,0,0,0-.45.32,1.18,1.18,0,0,0-.25.5,2.16,2.16,0,0,0-.08.64V7.06a2.18,2.18,0,0,0,.08.65,1.12,1.12,0,0,0,.25.5,1,1,0,0,0,.45.32,1.62,1.62,0,0,0,.66.12,1.6,1.6,0,0,0,.65-.12,1,1,0,0,0,.44-.32,1.25,1.25,0,0,0,.26-.5,2.57,2.57,0,0,0,.08-.65Z"/>
      <path class="cls-1" d="M212.85,9a.33.33,0,0,1-.1.25.35.35,0,0,1-.24.1.37.37,0,0,1-.25-.1.34.34,0,0,1-.11-.25V5.72a3.09,3.09,0,0,0,0-.55,1.12,1.12,0,0,0-.18-.43.82.82,0,0,0-.36-.27,1.42,1.42,0,0,0-.59-.1,1.88,1.88,0,0,0-.95.22,1.69,1.69,0,0,0-.59.6V9a.33.33,0,0,1-.1.25.36.36,0,0,1-.5,0,.33.33,0,0,1-.1-.25V5.07a2.33,2.33,0,0,0,0-.29.77.77,0,0,0-.07-.2.47.47,0,0,0-.11-.13l-.16-.09a.29.29,0,0,1-.13-.11.3.3,0,0,1-.05-.15.28.28,0,0,1,.11-.25.36.36,0,0,1,.24-.09.73.73,0,0,1,.26.06,1.24,1.24,0,0,1,.27.17,1,1,0,0,1,.26.41,1.9,1.9,0,0,1,.71-.52,2.67,2.67,0,0,1,1-.18,2.19,2.19,0,0,1,.87.15,1.38,1.38,0,0,1,.54.43,1.41,1.41,0,0,1,.28.62,3.25,3.25,0,0,1,.08.77Z"/>
      <path class="cls-1" d="M218.74,9a.3.3,0,0,1-.1.24.41.41,0,0,1-.24.08.65.65,0,0,1-.25-.06,1,1,0,0,1-.27-.17.66.66,0,0,1-.2-.29,2.25,2.25,0,0,1-.73.39,2.57,2.57,0,0,1-.75.13,2.5,2.5,0,0,1-.92-.15,1.51,1.51,0,0,1-.61-.42,1.69,1.69,0,0,1-.35-.68,3.54,3.54,0,0,1-.11-.91V6.09a4.87,4.87,0,0,1,.1-1,2,2,0,0,1,.34-.76,1.45,1.45,0,0,1,.6-.49,2.08,2.08,0,0,1,.91-.18l.32,0a1.55,1.55,0,0,1,.36.08,2.75,2.75,0,0,1,.36.15,1.86,1.86,0,0,1,.35.22V1.63a.37.37,0,0,1,.1-.25.36.36,0,0,1,.5,0,.37.37,0,0,1,.1.25V8a2.63,2.63,0,0,0,0,.3.83.83,0,0,0,.05.2.45.45,0,0,0,.1.13l.16.1A.25.25,0,0,1,218.74,9Zm-1.19-4.07a1.44,1.44,0,0,0-.33-.28,2.31,2.31,0,0,0-.35-.18l-.33-.09-.29,0a1.58,1.58,0,0,0-.61.11,1,1,0,0,0-.42.33,1.36,1.36,0,0,0-.24.53,3.11,3.11,0,0,0-.08.72V7.17a2.46,2.46,0,0,0,.08.65,1.09,1.09,0,0,0,.23.47,1,1,0,0,0,.42.29,2.08,2.08,0,0,0,.65.09,1.83,1.83,0,0,0,.62-.12,2,2,0,0,0,.65-.41Z"/>
      <path class="cls-1" d="M224,7.06a3,3,0,0,1-.12.87,2.07,2.07,0,0,1-.38.72,1.74,1.74,0,0,1-.66.48,2.38,2.38,0,0,1-1,.18,2.42,2.42,0,0,1-1-.18,1.82,1.82,0,0,1-.66-.48,2.05,2.05,0,0,1-.37-.72,3,3,0,0,1-.12-.87V5.94a3.15,3.15,0,0,1,.12-.87,1.93,1.93,0,0,1,.37-.71,1.71,1.71,0,0,1,.66-.48,2.42,2.42,0,0,1,1-.18,2.38,2.38,0,0,1,1,.18,1.64,1.64,0,0,1,.66.48,1.94,1.94,0,0,1,.38.71,3.15,3.15,0,0,1,.12.87Zm-.71-1.12a2.16,2.16,0,0,0-.08-.64,1.31,1.31,0,0,0-.25-.5,1.12,1.12,0,0,0-.44-.32,1.82,1.82,0,0,0-.66-.11,1.9,1.9,0,0,0-.66.11,1.23,1.23,0,0,0-.45.32,1.31,1.31,0,0,0-.25.5,2.55,2.55,0,0,0-.08.64V7.06a2.57,2.57,0,0,0,.08.65,1.24,1.24,0,0,0,.25.5,1.12,1.12,0,0,0,.45.32,1.69,1.69,0,0,0,.66.12,1.62,1.62,0,0,0,.66-.12,1,1,0,0,0,.44-.32,1.24,1.24,0,0,0,.25-.5,2.18,2.18,0,0,0,.08-.65Z"/>
      <path class="cls-1" d="M226.36,1.67a.52.52,0,0,1-.15.38.49.49,0,0,1-.38.16.51.51,0,0,1-.38-.16.52.52,0,0,1-.15-.38.51.51,0,0,1,.53-.53.52.52,0,0,1,.38.15A.54.54,0,0,1,226.36,1.67ZM226.19,9a.34.34,0,0,1-.11.25.37.37,0,0,1-.25.1.34.34,0,0,1-.34-.35V4.05a.33.33,0,0,1,.1-.25.3.3,0,0,1,.24-.1.32.32,0,0,1,.14,0,.28.28,0,0,1,.11.08.44.44,0,0,1,.08.11.28.28,0,0,1,0,.13Z"/>
      <path class="cls-1" d="M229,9a.3.3,0,0,1-.1.24.41.41,0,0,1-.24.08.6.6,0,0,1-.27-.07.9.9,0,0,1-.54-.57,1.37,1.37,0,0,1-.09-.49V1.63a.34.34,0,0,1,.11-.25.33.33,0,0,1,.25-.1.33.33,0,0,1,.24.1.37.37,0,0,1,.1.25V8a2.36,2.36,0,0,0,0,.3.77.77,0,0,0,.07.2.47.47,0,0,0,.11.13l.16.1A.25.25,0,0,1,229,9Z"/>
      <polygon class="cls-4" points="58.97 0.01 67.97 0.01 67.97 9.01 58.97 9.01 58.97 0.01 58.97 0.01"/>
      <path class="cls-1" d="M78.28,3a7.83,7.83,0,0,1-2.37,2.14,14,14,0,0,0,4.53,1.39,2.22,2.22,0,0,0-.33.49,13.78,13.78,0,0,1-4.68-1.59A16.59,16.59,0,0,1,72.6,6.69h5.75V10h-.54V9.64H73.08V10h-.52V6.7c-.64.22-1.3.38-1.93.53a1.48,1.48,0,0,0-.26-.46A18.09,18.09,0,0,0,75,5.17a7.68,7.68,0,0,1-1.74-1.54,9.3,9.3,0,0,1-1.93,1.3,1.33,1.33,0,0,0-.36-.35,8.22,8.22,0,0,0,3.16-2.64l.57.11a7.57,7.57,0,0,1-.61.77h3.79l.11,0Zm-7,0h-.52V1.13h4.57c-.17-.3-.38-.69-.59-1l.5-.14A9,9,0,0,1,76,1.13h4V3h-.52V1.63H71.33Zm1.75,4.18v2h4.73v-2Zm.49-3.87a6.46,6.46,0,0,0,1.86,1.58,7.65,7.65,0,0,0,2-1.61H73.6Z"/>
      <path class="cls-1" d="M90.05,1.8V6.11h-.54V5.3H83.43a8.22,8.22,0,0,1-1.65,4.8,1.94,1.94,0,0,0-.44-.31c1.42-1.66,1.59-4,1.59-5.65V1.8h3.59A10.7,10.7,0,0,0,85.88.17l.5-.15a11.14,11.14,0,0,1,.68,1.65l-.42.13Zm-.54,3V2.31H83.46V4.14c0,.22,0,.43,0,.66Z"/>
      <path class="cls-1" d="M102.21,1.26H94V3.83a12.54,12.54,0,0,1-1.18,6,2.2,2.2,0,0,0-.44-.28,11.72,11.72,0,0,0,1.1-5.72V.77h8.73Zm-5.65,6a20.52,20.52,0,0,1-2,2.29,4.06,4.06,0,0,0-.46-.3,13,13,0,0,0,1.95-2.17Zm1.88-.86v3c0,.34-.09.5-.35.59A8.22,8.22,0,0,1,96.4,10a3.08,3.08,0,0,0-.19-.47c.74,0,1.32,0,1.48,0s.24-.07.24-.2v-3H95.15V2.62h2.28a10.43,10.43,0,0,0,.46-1.17l.59.12c-.17.34-.33.72-.5,1.05h3.29V6.39ZM95.67,4.28h5.06V3.08H95.67Zm0,1.66h5.06V4.72H95.67ZM100,7.12c.7.68,1.6,1.63,2.06,2.18l-.43.3c-.46-.58-1.35-1.56-2-2.26Z"/>
      <path class="cls-1" d="M107.45,2.58c0,.67-.09,1.34-.19,2H112s0,.21,0,.28c-.23,3.18-.45,4.35-.86,4.78a1.09,1.09,0,0,1-.81.28,13.85,13.85,0,0,1-1.82-.06,1,1,0,0,0-.19-.51c.82.08,1.58.09,1.86.09a.74.74,0,0,0,.51-.12c.34-.31.55-1.42.76-4.23h-4.2a6.28,6.28,0,0,1-3.29,5,1.56,1.56,0,0,0-.4-.41c2.93-1.4,3.26-4.46,3.39-7.08h-3.11V2.07h9.31v.51ZM108.67,2a12.14,12.14,0,0,0-.77-1.7l.5-.18a12.14,12.14,0,0,1,.79,1.65Z"/>
      <path class="cls-1" d="M120.23,7.22a9.69,9.69,0,0,0,4.26,2.24,2.07,2.07,0,0,0-.34.44,10,10,0,0,1-4.51-2.68V10h-.52V7.27a9.82,9.82,0,0,1-4.42,2.6,2.3,2.3,0,0,0-.34-.43,9.82,9.82,0,0,0,4.22-2.22h-4V6.74h4.59v-1h.52v1h4.64v.48Zm3.18-1.1a31.89,31.89,0,0,0-3.69-1,16.48,16.48,0,0,1-4.91.93,1.33,1.33,0,0,0-.23-.46A18.41,18.41,0,0,0,118.85,5c-.86-.17-1.79-.33-2.73-.47.39-.35.84-.79,1.27-1.26h-2.72V2.77h3.13a10.09,10.09,0,0,0,.82-1l.46.15a8.1,8.1,0,0,1-.72.9h5.81v.46h-2.11a4.09,4.09,0,0,1-1.69,1.6,35.48,35.48,0,0,1,3.51.91Zm-8.06-3.64h-.5V1h4.47A5.67,5.67,0,0,0,118.8.2l.44-.17a9.71,9.71,0,0,1,.64.93H124V2.48h-.51v-1h-8.15Zm2.61.75c-.34.36-.67.7-1,1,.9.15,1.8.31,2.65.48a4.13,4.13,0,0,0,1.82-1.45Z"/>
      <path class="cls-1" d="M167.07,151.37v.52h-9.71v-.52H162v-3.13h-3.44v-.52H162V145h-2.78a9,9,0,0,1-1.24,1.93c-.1-.08-.34-.23-.47-.31a10.32,10.32,0,0,0,2.07-4.12l.54.11c-.19.64-.42,1.28-.67,1.89H162V142.3h.54v2.22h4.09v.5h-4.09v2.7h3.7v.52h-3.7v3.13Z"/>
      <path class="cls-1" d="M173.67,142.49c0,.09-.12.17-.17.26a10.45,10.45,0,0,0,4.73,3,2.49,2.49,0,0,0-.41.5,11.23,11.23,0,0,1-4.62-3.11,11.42,11.42,0,0,1-4.71,3.18,1.63,1.63,0,0,0-.31-.52,9.84,9.84,0,0,0,5.07-3.57Zm-1.28,7.94h-2.67v1h-.5v-4.61h3.17Zm-2.67-3.15v2.66h2.16v-2.66Zm5.53-1.56h-4.19v-.5h4.19Zm2,4.21c0,.34-.08.52-.34.62a6.56,6.56,0,0,1-1.69.1,1.94,1.94,0,0,0-.18-.51c.74,0,1.31,0,1.47,0s.22-.07.22-.22v-2.65h-2.45v5h-.52v-5.5h3.49Z"/>
      <path class="cls-1" d="M188.23,151.46c0,.43-.12.61-.42.7a8.92,8.92,0,0,1-1.88.09,1.87,1.87,0,0,0-.2-.5c.8,0,1.5,0,1.68,0s.29-.08.29-.28v-8.14H181v2.89c0,1.83-.18,4.35-1.44,6.12a1.7,1.7,0,0,0-.42-.34c1.21-1.71,1.33-4,1.33-5.78v-3.4h7.76Zm-4.27-5v-1.31H181.8v-.46H184v-1.08h.51v1.08h2.27v.46h-2.27v1.31h2.58v.46h-5.54v-.46Zm-1.33,4.37v.63h-.5V148h4.27v2.79Zm0-2.34v1.89h3.27v-1.89Z"/>
      <path class="cls-1" d="M195.58,149.56H190.2v-.49h1.12v-4.73h-1v-.48h1v-1.43h.49v1.43h2.37v-1.43h.5v1.43h.85v.48h-.85v4.73h.9Zm-3.26.46a7.14,7.14,0,0,1-1.62,2.24c-.1-.07-.31-.24-.44-.32a5.69,5.69,0,0,0,1.55-2.06Zm-.51-5.68v1.17h2.37v-1.17Zm0,2.94h2.37V146h-2.37Zm0,1.79h2.37v-1.34h-2.37Zm2,.84a8.76,8.76,0,0,1,1.12,1.65l-.44.26a8.26,8.26,0,0,0-1.1-1.68Zm6,1.54c0,.38-.11.56-.36.65a5.69,5.69,0,0,1-1.56.11,2,2,0,0,0-.19-.53h1.36c.17,0,.23-.06.23-.24V148.5h-2.69a8.47,8.47,0,0,1-1.09,3.83,1.72,1.72,0,0,0-.43-.32,9.67,9.67,0,0,0,1.08-5.17v-4h3.65ZM199.3,148v-2.09h-2.63v.92q0,.56,0,1.17Zm-2.63-4.64v2h2.63v-2Z"/>
      <path class="cls-1" d="M201.26,151.38a6.11,6.11,0,0,0,1.11-2.32l.5.1a7.13,7.13,0,0,1-1.14,2.46Zm8.32-3.53h-6.71v-3.28H207a14.82,14.82,0,0,0,1.33-2.24l.53.22a19.68,19.68,0,0,1-1.27,2h2Zm-.56-2.77h-5.6v2.27H209Zm-4.15-.61a8.41,8.41,0,0,0-1.19-1.89l.45-.22a7.66,7.66,0,0,1,1.2,1.87Zm3.07,7.19c.56,0,.65-.17.7-1.2a2,2,0,0,0,.5.2c-.09,1.2-.28,1.47-1.17,1.47H205.3c-1.12,0-1.4-.15-1.4-.86v-2.39h.54v2.39c0,.32.13.39.86.39Zm-2.38-3.58a10.34,10.34,0,0,1,2.07,1.83l-.38.35a10.61,10.61,0,0,0-2.06-1.88Zm4,.8a8.88,8.88,0,0,1,1.58,2.35l-.42.28a9,9,0,0,0-1.55-2.39Z"/>
      <path class="cls-1" d="M214.13,143.54a23.46,23.46,0,0,1-.55,2.75h1.95v4.48h-2v1h-.47v-4a8.54,8.54,0,0,1-.6,1.17,3.3,3.3,0,0,0-.36-.41,13,13,0,0,0,1.5-5h-1.39v-.49h3.67v.49Zm.93,3.23h-1.5v3.51h1.5Zm2.6-.49c-.19,2.42-.59,4.29-1.64,5.64a2.78,2.78,0,0,0-.4-.35c1-1.21,1.38-3,1.55-5.29h-1.32v-.48h1.35l0-.74.51,0c0,.24,0,.47,0,.71h4.5v.48Zm4.06-1.49h-5.29v-2.13h.47v1.66h1.93v-2h.49v2h1.91v-1.66h.49Zm-1.63,1.72a20.1,20.1,0,0,1-.16,2.06,4.07,4.07,0,0,0,2.41,3.23,1.23,1.23,0,0,0-.33.39,4.19,4.19,0,0,1-2.26-2.72,3.81,3.81,0,0,1-2.53,2.8,1.74,1.74,0,0,0-.3-.36c2.27-.86,2.59-2.54,2.69-5.4Zm-2.44,3.05a5.76,5.76,0,0,0,.63-2.09l.42.06a6.63,6.63,0,0,1-.65,2.25Zm2.92-.07a17,17,0,0,0,.81-2.06l.45.18c-.28.67-.6,1.48-.9,2Z"/>
      <path class="cls-1" d="M226.81,147.69c-.48.15-.95.29-1.41.45v3.35c0,.35-.1.5-.31.59a4.54,4.54,0,0,1-1.26.09,3,3,0,0,0-.18-.49h1c.15,0,.2-.05.2-.2V148.3l-1.47.46-.16-.52,1.63-.47V145.1h-1.5v-.51h1.5V142.3h.51v2.29h1.29v.51H225.4v2.51l1.35-.41Zm2.14-5.34h.51v9.91H229v-3h-2v-.5h2V147h-1.74v-.48H229v-1.74h-1.77v-.48H229Zm4.26,6.94h-2.07v3h-.51v-9.92h.51v1.93h2v.48h-2v1.74H233V147h-1.87v1.82h2.07Z"/>
      <path class="cls-1" d="M238.54,146.33s0,.21,0,.29c-.09,3.67-.16,4.85-.44,5.22a.72.72,0,0,1-.61.28c-.26,0-.73,0-1.18,0a1.67,1.67,0,0,0-.16-.51c.51.05,1,.05,1.16.05s.25,0,.34-.14.3-1.39.37-4.68h-1.83v.2a7,7,0,0,1-1.72,5.26,1.76,1.76,0,0,0-.4-.36,6.55,6.55,0,0,0,1.61-4.91v-2.37h-1.43v-.51h4.87v.51h-2.93v1.68ZM236.69,144a9.47,9.47,0,0,0-.61-1.5l.45-.16a11,11,0,0,1,.65,1.46Zm6.73.92a12.75,12.75,0,0,1-1.56,4.6,5.73,5.73,0,0,0,2.42,2.34,2.36,2.36,0,0,0-.38.44,6,6,0,0,1-2.36-2.31,7.72,7.72,0,0,1-2.77,2.35,1.94,1.94,0,0,0-.34-.47,6.87,6.87,0,0,0,2.84-2.37,14,14,0,0,1-1.21-3.61,8.76,8.76,0,0,1-.93,1.7c-.08-.09-.31-.27-.43-.37a12.65,12.65,0,0,0,1.87-4.9l.53.1a18.89,18.89,0,0,1-.51,2h3.61v.5Zm-3,0a.61.61,0,0,1,0,.13,13.81,13.81,0,0,0,1.19,3.94,12.57,12.57,0,0,0,1.3-4.07Z"/>
      <path class="cls-1" d="M247.18,153.08a.37.37,0,0,1-.11.27.32.32,0,0,1-.25.1.28.28,0,0,1-.15,0,.32.32,0,0,1-.13-.13,7.84,7.84,0,0,1-.62-1.27,11.16,11.16,0,0,1-.41-1.36,12.6,12.6,0,0,1-.22-1.37q-.06-.69-.06-1.35t.06-1.35a13.38,13.38,0,0,1,.22-1.39,10.51,10.51,0,0,1,.41-1.35,7.37,7.37,0,0,1,.62-1.26.44.44,0,0,1,.13-.14.42.42,0,0,1,.15,0,.33.33,0,0,1,.25.11.36.36,0,0,1,.11.26s0,.08,0,.12a.31.31,0,0,1-.06.13,8,8,0,0,0-.54,1.15,8.67,8.67,0,0,0-.36,1.23,10.82,10.82,0,0,0-.2,1.27c0,.42-.06.85-.06,1.26s0,.84.06,1.26a10.34,10.34,0,0,0,.2,1.26,8.67,8.67,0,0,0,.36,1.23,7.56,7.56,0,0,0,.54,1.15.38.38,0,0,1,.06.13S247.18,153,247.18,153.08Z"/>
      <path class="cls-1" d="M252.41,151a.34.34,0,0,1,0,.19.26.26,0,0,1-.07.15.45.45,0,0,1-.13.11.51.51,0,0,1-.17,0,.32.32,0,0,1-.16,0,.41.41,0,0,1-.14-.15,14,14,0,0,0-.81-1.39c-.29-.46-.6-.9-.92-1.32l-.84.87v1.68a.28.28,0,0,1-.11.25.33.33,0,0,1-.24.1.32.32,0,0,1-.25-.1.3.3,0,0,1-.1-.25v-7.32a.33.33,0,0,1,.1-.25.32.32,0,0,1,.25-.1.33.33,0,0,1,.24.1.31.31,0,0,1,.11.25v4.76l2.54-2.6a.29.29,0,0,1,.22-.09.35.35,0,0,1,.23.09.32.32,0,0,1,.09.23.31.31,0,0,1-.09.22l-1.65,1.68c.34.45.67.92,1,1.4A16.19,16.19,0,0,1,252.41,151Z"/>
      <path class="cls-1" d="M257.27,151.09a4,4,0,0,1-.11.93,1.92,1.92,0,0,1-.35.75,1.69,1.69,0,0,1-.65.52,2.4,2.4,0,0,1-1,.18,5,5,0,0,1-.79-.06,3.48,3.48,0,0,1-.69-.21.31.31,0,0,1-.21-.29.28.28,0,0,1,0-.13.31.31,0,0,1,.08-.11.33.33,0,0,1,.13-.07h.15c.17.06.35.11.55.16a2.5,2.5,0,0,0,.71.09,1.68,1.68,0,0,0,.68-.13,1.09,1.09,0,0,0,.44-.35,1.48,1.48,0,0,0,.24-.54,3.11,3.11,0,0,0,.07-.71v-.32a1.65,1.65,0,0,1-.36.22,3,3,0,0,1-.38.15l-.37.09-.34,0a2.15,2.15,0,0,1-.89-.16,1.36,1.36,0,0,1-.58-.44,1.8,1.8,0,0,1-.32-.7,4.13,4.13,0,0,1-.1-.9v-.89a3.72,3.72,0,0,1,.11-.91,1.7,1.7,0,0,1,.33-.72,1.52,1.52,0,0,1,.59-.47,2.07,2.07,0,0,1,.9-.17l.33,0a1.69,1.69,0,0,1,.35.1,1.73,1.73,0,0,1,.37.16,1.78,1.78,0,0,1,.36.25v-.18a.33.33,0,0,1,.11-.25.35.35,0,0,1,.25-.1.34.34,0,0,1,.35.35Zm-.71-3.9a1.59,1.59,0,0,0-.34-.3,2.57,2.57,0,0,0-.35-.2,1.69,1.69,0,0,0-.35-.1l-.3,0a1.18,1.18,0,0,0-1,.4,1.94,1.94,0,0,0-.3,1.17v1a3.13,3.13,0,0,0,.06.65,1.33,1.33,0,0,0,.22.48,1.06,1.06,0,0,0,.4.29,1.72,1.72,0,0,0,.6.09l.31,0a1.69,1.69,0,0,0,.35-.1,1.73,1.73,0,0,0,.37-.16,2,2,0,0,0,.33-.24Z"/>
      <path class="cls-1" d="M260.55,147.93q0,.66-.06,1.35a12.6,12.6,0,0,1-.22,1.37,9.63,9.63,0,0,1-.41,1.36,7.79,7.79,0,0,1-.61,1.27.34.34,0,0,1-.14.13.32.32,0,0,1-.16,0,.33.33,0,0,1-.25-.1.36.36,0,0,1-.1-.27.25.25,0,0,1,0-.12.35.35,0,0,1,.05-.13,6.71,6.71,0,0,0,.54-1.15,9.47,9.47,0,0,0,.55-2.49q.06-.63.06-1.26c0-.41,0-.84-.06-1.26a9,9,0,0,0-.19-1.27,8.67,8.67,0,0,0-.36-1.23,7.08,7.08,0,0,0-.54-1.15.29.29,0,0,1-.05-.13.25.25,0,0,1,0-.12.35.35,0,0,1,.1-.26.34.34,0,0,1,.25-.11.47.47,0,0,1,.16,0,.47.47,0,0,1,.14.14,7.32,7.32,0,0,1,.61,1.26,9.13,9.13,0,0,1,.41,1.35,13.38,13.38,0,0,1,.22,1.39Q260.55,147.27,260.55,147.93Z"/>
      <path class="cls-1" d="M265.79,144.86a.33.33,0,0,1,0,.28.37.37,0,0,1-.22.15l-1.4.38.91,1.14a.37.37,0,0,1,.09.25.3.3,0,0,1-.15.24.3.3,0,0,1-.28.06.39.39,0,0,1-.2-.16L263.7,146l-.79,1.21a.35.35,0,0,1-.2.16.3.3,0,0,1-.28-.06.3.3,0,0,1-.15-.24.37.37,0,0,1,.1-.25l.9-1.14-1.4-.38-.12,0a.47.47,0,0,1-.1-.1.34.34,0,0,1,0-.12.45.45,0,0,1,0-.16.32.32,0,0,1,.2-.22.46.46,0,0,1,.26,0l1.35.52-.06-1.46a.34.34,0,0,1,.06-.24.29.29,0,0,1,.26-.12.32.32,0,0,1,.28.12.4.4,0,0,1,.07.24l-.07,1.46,1.36-.52a.46.46,0,0,1,.26,0A.33.33,0,0,1,265.79,144.86Z"/>
      <polygon class="cls-5" points="68.88 126.23 128.44 126.23 128.44 139.16 68.88 139.16 68.88 126.23 68.88 126.23"/>
      <polygon class="cls-6" points="9.32 102.52 68.88 102.52 68.88 139.16 9.32 139.16 9.32 102.52 9.32 102.52"/>
      <path class="cls-1" d="M88.3,83.6a.34.34,0,0,1-.33.34H85.14a.34.34,0,0,1-.23-.1.37.37,0,0,1,0-.48.33.33,0,0,1,.23-.09H88a.32.32,0,0,1,.23.09A.33.33,0,0,1,88.3,83.6Z"/>
      <path class="cls-1" d="M94.57,79.14a.75.75,0,0,1,0,.24l-2.86,7.31a.37.37,0,0,1-.19.2.39.39,0,0,1-.28,0,.36.36,0,0,1-.2-.2.34.34,0,0,1,0-.28l2.74-6.94H90.1a.33.33,0,0,1-.24-.1.34.34,0,0,1,0-.48.33.33,0,0,1,.24-.1h4.13a.3.3,0,0,1,.24.1A.33.33,0,0,1,94.57,79.14Z"/>
      <path class="cls-1" d="M100.54,84.64a2.47,2.47,0,0,1-.15.86,2.13,2.13,0,0,1-1.24,1.23,2.83,2.83,0,0,1-1.09.19,4.26,4.26,0,0,1-.63,0,2.45,2.45,0,0,1-.55-.13,2.41,2.41,0,0,1-.51-.25,2.83,2.83,0,0,1-.48-.39.35.35,0,0,1-.12-.26.33.33,0,0,1,.1-.24.29.29,0,0,1,.23-.1.19.19,0,0,1,.12,0,.47.47,0,0,1,.12.09l.17.14a1.91,1.91,0,0,0,.24.17,2,2,0,0,0,.59.26,3,3,0,0,0,.7.07,2.06,2.06,0,0,0,.78-.13,1.5,1.5,0,0,0,.9-.9,2,2,0,0,0,.11-.65,1.54,1.54,0,0,0-.16-.75,1.31,1.31,0,0,0-.42-.48,1.81,1.81,0,0,0-.62-.26,4.52,4.52,0,0,0-.75-.09h-.12a.25.25,0,0,1-.11,0,.39.39,0,0,1-.08-.1.34.34,0,0,1,0-.32.22.22,0,0,1,.09-.1.22.22,0,0,1,.11,0l.11,0a2.65,2.65,0,0,0,.38,0,2.08,2.08,0,0,0,.41-.11,2.64,2.64,0,0,0,.38-.18,1.69,1.69,0,0,0,.32-.27,1.4,1.4,0,0,0,.22-.38,1.23,1.23,0,0,0,.08-.49,2.13,2.13,0,0,0-.07-.55,1.49,1.49,0,0,0-.26-.5,1.27,1.27,0,0,0-.48-.36,1.82,1.82,0,0,0-.75-.14,2.29,2.29,0,0,0-.66.09,2.56,2.56,0,0,0-.53.22,1.53,1.53,0,0,0-.23.17l-.16.13-.12.1a.25.25,0,0,1-.13,0,.33.33,0,0,1-.22-.09.29.29,0,0,1-.09-.23.35.35,0,0,1,.13-.27,2.15,2.15,0,0,1,.35-.31,2.87,2.87,0,0,1,.46-.25,2.83,2.83,0,0,1,.56-.17,3.34,3.34,0,0,1,.65-.06,2.39,2.39,0,0,1,1.06.2,1.83,1.83,0,0,1,.69.51,1.9,1.9,0,0,1,.36.69,2.42,2.42,0,0,1,.11.74,2.17,2.17,0,0,1-.09.65A1.76,1.76,0,0,1,100,82a1.49,1.49,0,0,1-.41.38,2.45,2.45,0,0,1-.54.26,2.69,2.69,0,0,1,.62.26,1.63,1.63,0,0,1,.78,1A2.21,2.21,0,0,1,100.54,84.64Z"/>
      <path class="cls-1" d="M103.34,86.37a2.55,2.55,0,0,1-.11.77,2.38,2.38,0,0,1-.26.53,1.21,1.21,0,0,1-.32.32.57.57,0,0,1-.26.1.24.24,0,0,1-.14,0,.18.18,0,0,1-.07-.15.32.32,0,0,1,.07-.19l.17-.17a1.06,1.06,0,0,0,.17-.23.9.9,0,0,0,.11-.38.56.56,0,0,1-.23-.06.43.43,0,0,1-.19-.13.5.5,0,0,1-.13-.19.59.59,0,0,1,0-.23.69.69,0,0,1,0-.25.67.67,0,0,1,.14-.19.5.5,0,0,1,.19-.13.52.52,0,0,1,.24,0,.67.67,0,0,1,.26,0,.58.58,0,0,1,.19.15.66.66,0,0,1,.12.22A.75.75,0,0,1,103.34,86.37Z"/>
      <path class="cls-1" d="M109.36,84.43a3.14,3.14,0,0,1-.14.91A2.2,2.2,0,0,1,108,86.71a2.85,2.85,0,0,1-1.15.21,3.82,3.82,0,0,1-.9-.11,2.15,2.15,0,0,1-.83-.41.36.36,0,0,1-.17-.29.42.42,0,0,1,.1-.26.35.35,0,0,1,.26-.11l.1,0a.27.27,0,0,1,.1.06,1.91,1.91,0,0,0,.61.33,2.39,2.39,0,0,0,.73.1,2.05,2.05,0,0,0,.83-.15,1.46,1.46,0,0,0,.56-.4,1.57,1.57,0,0,0,.32-.58,2.61,2.61,0,0,0,.1-.69,1.89,1.89,0,0,0-.44-1.37,1.85,1.85,0,0,0-1.7-.37,1.1,1.1,0,0,0-.4.21,1.42,1.42,0,0,0-.22.18l-.14.14-.13.1a.33.33,0,0,1-.15,0,.36.36,0,0,1-.25-.1.32.32,0,0,1-.09-.27l.12-3.85a.29.29,0,0,1,.12-.24.33.33,0,0,1,.24-.1h3a.32.32,0,0,1,.25.1.34.34,0,0,1,0,.48.32.32,0,0,1-.25.1h-2.65l-.09,2.88a2.08,2.08,0,0,1,.56-.31A2.27,2.27,0,0,1,107,82a2.72,2.72,0,0,1,1,.16,1.94,1.94,0,0,1,.73.48,2,2,0,0,1,.45.78A3.05,3.05,0,0,1,109.36,84.43Z"/>
      <path class="cls-1" d="M115.7,84.83a.37.37,0,0,1-.09.25.31.31,0,0,1-.24.1h-.7v1.39a.37.37,0,0,1-.1.25.36.36,0,0,1-.26.11.34.34,0,0,1-.25-.11.31.31,0,0,1-.11-.25V85.18h-2.82a.33.33,0,0,1-.24-.1.35.35,0,0,1-.09-.25.33.33,0,0,1,0-.17l2.52-5.72a.34.34,0,0,1,.19-.2.39.39,0,0,1,.28,0,.34.34,0,0,1,.19.2.32.32,0,0,1,0,.27l-2.32,5.27H114V82.7a.33.33,0,0,1,.11-.26.37.37,0,0,1,.25-.1.34.34,0,0,1,.36.36v1.79h.7a.31.31,0,0,1,.24.1A.36.36,0,0,1,115.7,84.83Z"/>
      <path class="cls-1" d="M121.86,84.83a.37.37,0,0,1-.09.25.31.31,0,0,1-.24.1h-.7v1.39a.37.37,0,0,1-.1.25.36.36,0,0,1-.26.11.34.34,0,0,1-.25-.11.31.31,0,0,1-.11-.25V85.18h-2.82a.33.33,0,0,1-.24-.1.35.35,0,0,1-.09-.25.33.33,0,0,1,0-.17l2.52-5.72a.34.34,0,0,1,.19-.2.39.39,0,0,1,.28,0,.34.34,0,0,1,.19.2.32.32,0,0,1,0,.27l-2.32,5.27h2.25V82.7a.33.33,0,0,1,.11-.26.37.37,0,0,1,.25-.1.34.34,0,0,1,.36.36v1.79h.7a.31.31,0,0,1,.24.1A.36.36,0,0,1,121.86,84.83Z"/>
      <path class="cls-1" d="M92.77,123.32a.33.33,0,0,1-.1.25.33.33,0,0,1-.24.1h-4a.34.34,0,0,1-.26-.1.37.37,0,0,1-.09-.25,2.5,2.5,0,0,1,.09-.69,2.3,2.3,0,0,1,.25-.6,3.15,3.15,0,0,1,.35-.52,4.49,4.49,0,0,1,.43-.44,7.64,7.64,0,0,1,.62-.51l.64-.48c.21-.15.41-.31.6-.47a3.43,3.43,0,0,0,.5-.51,2.43,2.43,0,0,0,.35-.57,1.68,1.68,0,0,0,.13-.68,2.06,2.06,0,0,0-.09-.62,1.55,1.55,0,0,0-.29-.52,1.26,1.26,0,0,0-.49-.35,1.75,1.75,0,0,0-.72-.13,3.1,3.1,0,0,0-.64.06,2.35,2.35,0,0,0-.51.19,1.18,1.18,0,0,0-.26.16l-.18.13-.13.1a.28.28,0,0,1-.13,0,.33.33,0,0,1-.25-.1.35.35,0,0,1-.1-.26.69.69,0,0,1,0-.13.38.38,0,0,1,.1-.13,2.92,2.92,0,0,1,.9-.54,3.61,3.61,0,0,1,1.2-.18,2.49,2.49,0,0,1,1,.19,1.78,1.78,0,0,1,.71.51,2,2,0,0,1,.42.73,2.82,2.82,0,0,1,.14.86,2.41,2.41,0,0,1-.15.87,3.13,3.13,0,0,1-.41.71,4.66,4.66,0,0,1-.58.6c-.22.18-.44.36-.68.53l-.69.52a5.57,5.57,0,0,0-.63.54,3.24,3.24,0,0,0-.5.62,2.07,2.07,0,0,0-.28.74h3.58a.33.33,0,0,1,.24.1A.3.3,0,0,1,92.77,123.32Z"/>
      <path class="cls-1" d="M95.42,123.22a2.55,2.55,0,0,1-.11.77,2.38,2.38,0,0,1-.26.53,1.36,1.36,0,0,1-.31.32.65.65,0,0,1-.27.1.24.24,0,0,1-.14,0,.21.21,0,0,1-.07-.15.27.27,0,0,1,.08-.19l.16-.17a1.06,1.06,0,0,0,.17-.23.9.9,0,0,0,.11-.38.6.6,0,0,1-.23-.06.5.5,0,0,1-.19-.13.64.64,0,0,1-.13-.19.59.59,0,0,1,0-.23.53.53,0,0,1,0-.25.62.62,0,0,1,.32-.32.53.53,0,0,1,.25,0,.66.66,0,0,1,.25,0,.58.58,0,0,1,.19.15.54.54,0,0,1,.13.22A1.09,1.09,0,0,1,95.42,123.22Z"/>
      <path class="cls-1" d="M101.54,121.29a2.82,2.82,0,0,1-.18,1,2.21,2.21,0,0,1-.49.78,2.15,2.15,0,0,1-.75.5,2.8,2.8,0,0,1-1,.17,2.18,2.18,0,0,1-1-.21,2,2,0,0,1-.74-.58,2.59,2.59,0,0,1-.48-.92,4.32,4.32,0,0,1-.17-1.24,4.71,4.71,0,0,1,.23-1.44,7.72,7.72,0,0,1,.61-1.38,9.77,9.77,0,0,1,.86-1.24,11.55,11.55,0,0,1,1-1.09.39.39,0,0,1,.52,0,.35.35,0,0,1,.1.26.31.31,0,0,1,0,.13.31.31,0,0,1-.09.12c-.21.2-.41.42-.62.66s-.4.49-.59.75a8.88,8.88,0,0,0-.52.83,6.79,6.79,0,0,0-.39.87,2.26,2.26,0,0,1,.67-.31,2.29,2.29,0,0,1,.67-.11,2.74,2.74,0,0,1,.9.15,2.18,2.18,0,0,1,.75.44,2,2,0,0,1,.51.75A2.74,2.74,0,0,1,101.54,121.29Zm-.73,0a2.06,2.06,0,0,0-.13-.78,1.52,1.52,0,0,0-.35-.56,1.69,1.69,0,0,0-.53-.33,2.09,2.09,0,0,0-.67-.11,2,2,0,0,0-.49.06,2.6,2.6,0,0,0-.42.15,1.71,1.71,0,0,0-.35.21,2.43,2.43,0,0,0-.29.22,3.85,3.85,0,0,0-.06.66,3.51,3.51,0,0,0,.13,1,2.15,2.15,0,0,0,.36.71,1.33,1.33,0,0,0,.52.4,1.42,1.42,0,0,0,.61.13,1.94,1.94,0,0,0,.7-.12,1.35,1.35,0,0,0,.52-.36,1.37,1.37,0,0,0,.33-.56A2.29,2.29,0,0,0,100.81,121.3Z"/>
      <path class="cls-1" d="M107.6,121.28a2.83,2.83,0,0,1-.14.91,2.2,2.2,0,0,1-1.24,1.37,2.85,2.85,0,0,1-1.15.21,3.82,3.82,0,0,1-.9-.11,2.22,2.22,0,0,1-.83-.41.36.36,0,0,1-.17-.29.38.38,0,0,1,.11-.26.33.33,0,0,1,.25-.11l.1,0a.21.21,0,0,1,.1.06,2,2,0,0,0,.61.33,2.43,2.43,0,0,0,.73.1,2,2,0,0,0,.83-.15,1.46,1.46,0,0,0,.56-.4,1.57,1.57,0,0,0,.32-.58,2.26,2.26,0,0,0,.1-.69,1.89,1.89,0,0,0-.44-1.37,1.85,1.85,0,0,0-1.7-.37,1.1,1.1,0,0,0-.4.21,1.39,1.39,0,0,0-.21.17l-.15.15-.13.1a.33.33,0,0,1-.15,0,.37.37,0,0,1-.25-.1.32.32,0,0,1-.09-.27l.12-3.85a.35.35,0,0,1,.12-.24.33.33,0,0,1,.24-.1h3a.3.3,0,0,1,.25.1.34.34,0,0,1,0,.48.3.3,0,0,1-.25.1h-2.65l-.08,2.88a1.82,1.82,0,0,1,.56-.31,2.2,2.2,0,0,1,.64-.09,2.72,2.72,0,0,1,1,.16,1.94,1.94,0,0,1,.73.48,2.15,2.15,0,0,1,.46.78A3.32,3.32,0,0,1,107.6,121.28Z"/>
      <path class="cls-1" d="M113.86,121.29a2.82,2.82,0,0,1-.18,1,2.21,2.21,0,0,1-.49.78,2.15,2.15,0,0,1-.75.5,2.78,2.78,0,0,1-1,.17,2.19,2.19,0,0,1-1-.21,2,2,0,0,1-.74-.58,2.59,2.59,0,0,1-.48-.92,4.32,4.32,0,0,1-.17-1.24,4.71,4.71,0,0,1,.23-1.44A7.72,7.72,0,0,1,110,118a9.77,9.77,0,0,1,.86-1.24,11.55,11.55,0,0,1,1-1.09.39.39,0,0,1,.52,0,.35.35,0,0,1,.1.26.31.31,0,0,1,0,.13.31.31,0,0,1-.09.12c-.21.2-.41.42-.62.66s-.4.49-.59.75a8.88,8.88,0,0,0-.52.83,6.79,6.79,0,0,0-.39.87,2.38,2.38,0,0,1,.67-.31,2.29,2.29,0,0,1,.67-.11,2.74,2.74,0,0,1,.9.15,2.18,2.18,0,0,1,.75.44,2.14,2.14,0,0,1,.52.75A2.94,2.94,0,0,1,113.86,121.29Zm-.73,0a2.06,2.06,0,0,0-.13-.78,1.52,1.52,0,0,0-.35-.56,1.69,1.69,0,0,0-.53-.33,2.08,2.08,0,0,0-.66-.11,2,2,0,0,0-.5.06,2.6,2.6,0,0,0-.42.15,2,2,0,0,0-.35.21,2.43,2.43,0,0,0-.29.22,3.85,3.85,0,0,0-.06.66,3.51,3.51,0,0,0,.13,1,2.15,2.15,0,0,0,.36.71,1.33,1.33,0,0,0,.52.4,1.47,1.47,0,0,0,.62.13,1.92,1.92,0,0,0,.69-.12,1.35,1.35,0,0,0,.52-.36,1.37,1.37,0,0,0,.33-.56A2.29,2.29,0,0,0,113.13,121.3Z"/>
      <path class="cls-1" d="M27.4,91.32a.75.75,0,0,1,0,.24L24.5,98.87a.34.34,0,0,1-.19.2.36.36,0,0,1-.27,0,.41.41,0,0,1-.21-.2.34.34,0,0,1,0-.28l2.74-6.94H22.93a.29.29,0,0,1-.23-.1.34.34,0,0,1,0-.48.29.29,0,0,1,.23-.1h4.13a.33.33,0,0,1,.25.1A.36.36,0,0,1,27.4,91.32Z"/>
      <path class="cls-1" d="M33.55,96.62a2.82,2.82,0,0,1-.17,1,2.21,2.21,0,0,1-.49.78,2,2,0,0,1-.75.49,2.59,2.59,0,0,1-1,.18,2.18,2.18,0,0,1-1-.21,2,2,0,0,1-.74-.58,2.59,2.59,0,0,1-.48-.92,4.32,4.32,0,0,1-.17-1.24A4.71,4.71,0,0,1,29,94.71a7.72,7.72,0,0,1,.61-1.38,9.57,9.57,0,0,1,.86-1.25,12.79,12.79,0,0,1,1-1.08.38.38,0,0,1,.25-.11A.37.37,0,0,1,32,91a.37.37,0,0,1,.1.25.32.32,0,0,1,0,.14.47.47,0,0,1-.09.12c-.21.2-.41.42-.62.66s-.4.49-.59.75-.36.54-.52.82a7.61,7.61,0,0,0-.39.88,2.32,2.32,0,0,1,.66-.31,2.35,2.35,0,0,1,.68-.11,2.74,2.74,0,0,1,.9.15,2.18,2.18,0,0,1,.75.44,2.12,2.12,0,0,1,.51.75A2.74,2.74,0,0,1,33.55,96.62Zm-.72,0a2.06,2.06,0,0,0-.13-.78,1.46,1.46,0,0,0-.36-.56,1.59,1.59,0,0,0-.53-.33,2,2,0,0,0-.66-.11,1.93,1.93,0,0,0-.49.06,2.6,2.6,0,0,0-.42.15,1.71,1.71,0,0,0-.35.21,2.43,2.43,0,0,0-.29.22,3.68,3.68,0,0,0-.06.66,3.56,3.56,0,0,0,.13,1,2.14,2.14,0,0,0,.35.71,1.36,1.36,0,0,0,.53.4,1.42,1.42,0,0,0,.61.13,1.94,1.94,0,0,0,.7-.12,1.47,1.47,0,0,0,.52-.36,1.37,1.37,0,0,0,.33-.56A2.29,2.29,0,0,0,32.83,96.63Z"/>
      <path class="cls-1" d="M36.17,98.55a2.44,2.44,0,0,1-.11.76,1.94,1.94,0,0,1-.26.54,1.36,1.36,0,0,1-.31.32.65.65,0,0,1-.27.1.24.24,0,0,1-.14,0,.21.21,0,0,1-.07-.15.26.26,0,0,1,.08-.19l.16-.17a1.06,1.06,0,0,0,.17-.23.81.81,0,0,0,.11-.38A.6.6,0,0,1,35.3,99a.59.59,0,0,1-.19-.13.55.55,0,0,1-.17-.43.69.69,0,0,1,.05-.24.5.5,0,0,1,.13-.19.46.46,0,0,1,.2-.13.47.47,0,0,1,.24,0,.51.51,0,0,1,.25,0,.75.75,0,0,1,.2.15.66.66,0,0,1,.12.22A1.09,1.09,0,0,1,36.17,98.55Z"/>
      <path class="cls-1" d="M42.25,98.65a.33.33,0,0,1-.1.25.33.33,0,0,1-.24.1h-4a.33.33,0,0,1-.26-.1.37.37,0,0,1-.09-.25,2.5,2.5,0,0,1,.09-.69,2.85,2.85,0,0,1,.6-1.12,4.57,4.57,0,0,1,.43-.45c.19-.17.4-.34.61-.5l.64-.48c.21-.16.41-.31.6-.47a4.09,4.09,0,0,0,.51-.51,2.26,2.26,0,0,0,.34-.58,1.6,1.6,0,0,0,.13-.67,2.18,2.18,0,0,0-.09-.63,1.36,1.36,0,0,0-.29-.51,1.39,1.39,0,0,0-.49-.36,1.88,1.88,0,0,0-.71-.12,3.2,3.2,0,0,0-.65.06,2.35,2.35,0,0,0-.51.19,2,2,0,0,0-.26.16l-.17.13-.13.1a.32.32,0,0,1-.14,0,.33.33,0,0,1-.24-.1.36.36,0,0,1-.11-.26.35.35,0,0,1,0-.13.51.51,0,0,1,.09-.13,2.85,2.85,0,0,1,.91-.54,3.6,3.6,0,0,1,1.2-.19,2.44,2.44,0,0,1,1,.2,2,2,0,0,1,.72.5,2.09,2.09,0,0,1,.42.74,2.8,2.8,0,0,1,.13.86,2.41,2.41,0,0,1-.15.87,3.09,3.09,0,0,1-.4.71,5.45,5.45,0,0,1-.58.6l-.68.53-.7.52a5.57,5.57,0,0,0-.63.54,3.67,3.67,0,0,0-.5.62,2.07,2.07,0,0,0-.28.74h3.58a.33.33,0,0,1,.24.1A.3.3,0,0,1,42.25,98.65Z"/>
      <path class="cls-1" d="M48.58,96.2a4.34,4.34,0,0,1-.14,1.09,2.66,2.66,0,0,1-.44.93,2.3,2.3,0,0,1-.77.64,2.52,2.52,0,0,1-1.14.24A2.46,2.46,0,0,1,45,98.86a2.2,2.2,0,0,1-.77-.64,2.85,2.85,0,0,1-.44-.93,4.34,4.34,0,0,1-.13-1.09V93.79a4.34,4.34,0,0,1,.13-1.09,2.85,2.85,0,0,1,.44-.93,2.1,2.1,0,0,1,.77-.64,2.34,2.34,0,0,1,1.14-.25,2.4,2.4,0,0,1,1.14.25,2.19,2.19,0,0,1,.77.64,2.66,2.66,0,0,1,.44.93,4.34,4.34,0,0,1,.14,1.09Zm-.73-2.38a3.65,3.65,0,0,0-.1-.9,2.11,2.11,0,0,0-.32-.71,1.46,1.46,0,0,0-.55-.47,1.64,1.64,0,0,0-.79-.17,1.69,1.69,0,0,0-.8.17,1.36,1.36,0,0,0-.54.47,2.11,2.11,0,0,0-.32.71,4.2,4.2,0,0,0-.1.9v2.35a4.2,4.2,0,0,0,.1.9,2.2,2.2,0,0,0,.32.71,1.53,1.53,0,0,0,.54.47,1.81,1.81,0,0,0,.8.16,1.77,1.77,0,0,0,.79-.16,1.66,1.66,0,0,0,.55-.47,2.2,2.2,0,0,0,.32-.71,3.65,3.65,0,0,0,.1-.9Z"/>
      <path class="cls-1" d="M54.74,96.2a4.34,4.34,0,0,1-.14,1.09,2.66,2.66,0,0,1-.44.93,2.3,2.3,0,0,1-.77.64,2.52,2.52,0,0,1-1.14.24,2.46,2.46,0,0,1-1.14-.24,2.3,2.3,0,0,1-.77-.64,2.85,2.85,0,0,1-.44-.93,4.34,4.34,0,0,1-.13-1.09V93.79a4.34,4.34,0,0,1,.13-1.09,2.85,2.85,0,0,1,.44-.93,2.19,2.19,0,0,1,.77-.64,2.34,2.34,0,0,1,1.14-.25,2.4,2.4,0,0,1,1.14.25,2.19,2.19,0,0,1,.77.64,2.66,2.66,0,0,1,.44.93,4.34,4.34,0,0,1,.14,1.09ZM54,93.82a3.65,3.65,0,0,0-.1-.9,2.11,2.11,0,0,0-.32-.71,1.46,1.46,0,0,0-.55-.47,1.64,1.64,0,0,0-.79-.17,1.69,1.69,0,0,0-.8.17,1.36,1.36,0,0,0-.54.47,2.11,2.11,0,0,0-.32.71,4.2,4.2,0,0,0-.1.9v2.35a4.2,4.2,0,0,0,.1.9,2.2,2.2,0,0,0,.32.71,1.53,1.53,0,0,0,.54.47,1.81,1.81,0,0,0,.8.16,1.77,1.77,0,0,0,.79-.16,1.66,1.66,0,0,0,.55-.47,2.2,2.2,0,0,0,.32-.71,3.65,3.65,0,0,0,.1-.9Z"/>
      <path class="cls-7" d="M76.43,73.65A19.33,19.33,0,0,0,79,83.89,27.57,27.57,0,0,0,86.1,92,46,46,0,0,0,106,100.58l.55-4.11A42.92,42.92,0,0,1,87.3,90.32a26.11,26.11,0,0,1-7.42-7A18.83,18.83,0,0,1,76.43,73.65Z"/>
      <polygon class="cls-7" points="104.41 103.29 113.41 99 105.19 93.35 104.41 103.29"/>
      <polygon class="cls-8" points="270.32 109.21 210.76 109.21 210.76 139.16 270.32 139.16 270.32 109.21 270.32 109.21"/>
      <polygon class="cls-9" points="210.76 33.01 151.21 33.01 151.21 139.16 210.76 139.16 210.76 33.01 210.76 33.01"/>
      <path class="cls-1" d="M231.52,106.79a.33.33,0,0,1-.1.24.33.33,0,0,1-.24.1h-3.94a.37.37,0,0,1-.25-.1.34.34,0,0,1-.11-.24.33.33,0,0,1,.11-.25.34.34,0,0,1,.25-.11h2V100l-2.14,1.48a.31.31,0,0,1-.26.06.31.31,0,0,1-.22-.14.37.37,0,0,1-.05-.27.32.32,0,0,1,.14-.22l2.67-1.83a.36.36,0,0,1,.23-.08.37.37,0,0,1,.26.1.35.35,0,0,1,.1.26v7.06h1.22a.3.3,0,0,1,.24.11A.32.32,0,0,1,231.52,106.79Z"/>
      <path class="cls-1" d="M238,105.07a2.11,2.11,0,0,1-.18.89,2.08,2.08,0,0,1-.53.68,2.56,2.56,0,0,1-.82.43,3.53,3.53,0,0,1-1.06.15,3.4,3.4,0,0,1-1-.14,2.53,2.53,0,0,1-.82-.41A1.86,1.86,0,0,1,233,106a2,2,0,0,1-.2-.92,1.81,1.81,0,0,1,.15-.76,1.74,1.74,0,0,1,.39-.58,3,3,0,0,1,.57-.43,6.53,6.53,0,0,1,.7-.35,4.1,4.1,0,0,1-.55-.3,2.11,2.11,0,0,1-.45-.39,1.6,1.6,0,0,1-.31-.52,1.76,1.76,0,0,1-.11-.68,2.06,2.06,0,0,1,.18-.9,1.62,1.62,0,0,1,.48-.64,1.9,1.9,0,0,1,.7-.38,2.53,2.53,0,0,1,.83-.13,3,3,0,0,1,.86.13,2,2,0,0,1,.68.39,1.75,1.75,0,0,1,.46.64,2,2,0,0,1,.17.86,1.72,1.72,0,0,1-.1.62,1.56,1.56,0,0,1-.29.5,2.06,2.06,0,0,1-.43.4,4.34,4.34,0,0,1-.56.33c.23.1.46.21.68.33a2.4,2.4,0,0,1,.57.42,1.91,1.91,0,0,1,.4.6A2.09,2.09,0,0,1,238,105.07Zm-.72,0a1.29,1.29,0,0,0-.16-.68,1.71,1.71,0,0,0-.42-.47,2.47,2.47,0,0,0-.6-.34l-.71-.28c-.23.09-.46.19-.68.3a3,3,0,0,0-.58.35,1.69,1.69,0,0,0-.42.47,1.29,1.29,0,0,0-.15.64,1.47,1.47,0,0,0,.13.64,1.29,1.29,0,0,0,.39.48,1.77,1.77,0,0,0,.58.3,2.55,2.55,0,0,0,.74.11,2.79,2.79,0,0,0,.79-.11,1.94,1.94,0,0,0,.59-.31,1.55,1.55,0,0,0,.37-.48A1.44,1.44,0,0,0,237.26,105.05Zm-.4-4a1.71,1.71,0,0,0-.11-.62,1.1,1.1,0,0,0-.31-.45,1.24,1.24,0,0,0-.46-.27,1.83,1.83,0,0,0-.59-.09,1.79,1.79,0,0,0-.57.09,1.42,1.42,0,0,0-.48.27,1.25,1.25,0,0,0-.31.44,1.52,1.52,0,0,0-.12.62,1.25,1.25,0,0,0,.12.56,1.26,1.26,0,0,0,.33.4,2.33,2.33,0,0,0,.48.31,5,5,0,0,0,.58.24l.55-.26a2,2,0,0,0,.46-.32,1.38,1.38,0,0,0,.32-.4A1.21,1.21,0,0,0,236.86,101.1Z"/>
      <path class="cls-1" d="M240.37,106.68a2.49,2.49,0,0,1-.11.76,2.27,2.27,0,0,1-.26.54,1.29,1.29,0,0,1-.31.31.53.53,0,0,1-.27.1.19.19,0,0,1-.14,0,.15.15,0,0,1-.07-.14.26.26,0,0,1,.08-.19l.16-.17a1.06,1.06,0,0,0,.17-.23,1,1,0,0,0,.11-.39.59.59,0,0,1-.23,0,.64.64,0,0,1-.19-.13.69.69,0,0,1-.13-.2.59.59,0,0,1,0-.23.52.52,0,0,1,.05-.24.53.53,0,0,1,.13-.2.64.64,0,0,1,.19-.13.7.7,0,0,1,.25-.05.51.51,0,0,1,.25.06.4.4,0,0,1,.19.15.45.45,0,0,1,.12.21A.81.81,0,0,1,240.37,106.68Z"/>
      <path class="cls-1" d="M246.39,104.73a3.21,3.21,0,0,1-.14.92,2.43,2.43,0,0,1-.45.8,2.3,2.3,0,0,1-.79.56,2.85,2.85,0,0,1-1.15.21,3.82,3.82,0,0,1-.9-.1,2.3,2.3,0,0,1-.83-.41.39.39,0,0,1-.17-.3.42.42,0,0,1,.1-.25.33.33,0,0,1,.26-.11.2.2,0,0,1,.1,0,.27.27,0,0,1,.1.06,1.91,1.91,0,0,0,.61.33,2.74,2.74,0,0,0,.73.1,2,2,0,0,0,.83-.15,1.57,1.57,0,0,0,.88-1,2.61,2.61,0,0,0,.1-.69,1.88,1.88,0,0,0-.44-1.36,1.56,1.56,0,0,0-1.19-.44,2,2,0,0,0-.51.06,1.53,1.53,0,0,0-.4.21l-.21.18-.15.15-.13.09a.24.24,0,0,1-.15,0,.32.32,0,0,1-.25-.1.29.29,0,0,1-.09-.26l.12-3.85a.31.31,0,0,1,.12-.24.33.33,0,0,1,.24-.1h3a.32.32,0,0,1,.25.1.3.3,0,0,1,.1.24.33.33,0,0,1-.1.24.32.32,0,0,1-.25.1H243l-.09,2.87a1.74,1.74,0,0,1,.57-.3,2.15,2.15,0,0,1,.64-.09,2.72,2.72,0,0,1,1,.16,1.94,1.94,0,0,1,.73.48,2,2,0,0,1,.45.77A3.13,3.13,0,0,1,246.39,104.73Z"/>
      <path class="cls-1" d="M252.72,102a5.23,5.23,0,0,1-.1,1,5.5,5.5,0,0,1-.3.95,6.24,6.24,0,0,1-.44.9,9.48,9.48,0,0,1-.55.85,8,8,0,0,1-.62.79l-.65.7a.37.37,0,0,1-.26.1.3.3,0,0,1-.25-.11.36.36,0,0,1-.11-.26.34.34,0,0,1,.11-.24,7.89,7.89,0,0,0,.62-.66,9.12,9.12,0,0,0,.6-.76,8.73,8.73,0,0,0,.52-.82,6.73,6.73,0,0,0,.4-.87,2.63,2.63,0,0,1-1.34.42,2.76,2.76,0,0,1-.91-.15,2.18,2.18,0,0,1-.75-.44,2.26,2.26,0,0,1-.51-.75,2.74,2.74,0,0,1-.19-1.08,3,3,0,0,1,.17-1,2.21,2.21,0,0,1,.49-.78,2.1,2.1,0,0,1,.76-.5,2.7,2.7,0,0,1,1-.17,2.32,2.32,0,0,1,1,.2,2.1,2.1,0,0,1,.74.58,2.72,2.72,0,0,1,.47.93A4.3,4.3,0,0,1,252.72,102Zm-.73,0a3.49,3.49,0,0,0-.13-1,1.92,1.92,0,0,0-.35-.7,1.35,1.35,0,0,0-.52-.41,1.64,1.64,0,0,0-.62-.13,1.85,1.85,0,0,0-.69.12,1.35,1.35,0,0,0-.52.36,1.63,1.63,0,0,0-.33.56,2.58,2.58,0,0,0-.11.76,2.28,2.28,0,0,0,.12.78,1.68,1.68,0,0,0,.35.55,1.39,1.39,0,0,0,.53.33,2,2,0,0,0,.66.1,1.94,1.94,0,0,0,.49,0,2.6,2.6,0,0,0,.42-.15,2.08,2.08,0,0,0,.36-.2,2.43,2.43,0,0,0,.29-.22c0-.12,0-.22,0-.33S252,102.08,252,102Z"/>
      <path class="cls-1" d="M258.88,102a5.23,5.23,0,0,1-.1,1,5.5,5.5,0,0,1-.3.95,6.24,6.24,0,0,1-.44.9,9.48,9.48,0,0,1-.55.85,8,8,0,0,1-.62.79l-.65.7a.37.37,0,0,1-.26.1.3.3,0,0,1-.25-.11.36.36,0,0,1-.11-.26.34.34,0,0,1,.11-.24,7.89,7.89,0,0,0,.62-.66,9.12,9.12,0,0,0,.6-.76,8.73,8.73,0,0,0,.52-.82,6.73,6.73,0,0,0,.4-.87,2.63,2.63,0,0,1-1.34.42,2.76,2.76,0,0,1-.91-.15,2.18,2.18,0,0,1-.75-.44,2.26,2.26,0,0,1-.51-.75,2.74,2.74,0,0,1-.19-1.08,3,3,0,0,1,.17-1,2.21,2.21,0,0,1,.49-.78,2.1,2.1,0,0,1,.76-.5,2.7,2.7,0,0,1,1-.17,2.32,2.32,0,0,1,1,.2,2.1,2.1,0,0,1,.74.58,2.72,2.72,0,0,1,.47.93A4.3,4.3,0,0,1,258.88,102Zm-.73,0a3.49,3.49,0,0,0-.13-1,1.92,1.92,0,0,0-.35-.7,1.35,1.35,0,0,0-.52-.41,1.64,1.64,0,0,0-.62-.13,1.85,1.85,0,0,0-.69.12,1.35,1.35,0,0,0-.52.36,1.63,1.63,0,0,0-.33.56,2.58,2.58,0,0,0-.11.76,2.06,2.06,0,0,0,.13.78,1.51,1.51,0,0,0,.34.55,1.39,1.39,0,0,0,.53.33,2,2,0,0,0,.66.1,1.94,1.94,0,0,0,.49,0,2.6,2.6,0,0,0,.42-.15,1.77,1.77,0,0,0,.36-.2,2.43,2.43,0,0,0,.29-.22c0-.12,0-.22,0-.33S258.15,102.08,258.15,102Z"/>
      <path class="cls-1" d="M166.55,27.82a2.91,2.91,0,0,1-.15.92,2.54,2.54,0,0,1-.45.8,2.21,2.21,0,0,1-.79.56,2.83,2.83,0,0,1-1.14.21,3.85,3.85,0,0,1-.91-.1,2.38,2.38,0,0,1-.83-.41.39.39,0,0,1-.17-.3.36.36,0,0,1,.11-.25.3.3,0,0,1,.25-.12l.1,0,.1.07a1.75,1.75,0,0,0,.62.32,2.33,2.33,0,0,0,.73.11,2.09,2.09,0,0,0,.83-.15,1.65,1.65,0,0,0,.55-.41,1.57,1.57,0,0,0,.32-.58,2.26,2.26,0,0,0,.1-.69,1.83,1.83,0,0,0-.44-1.36,1.55,1.55,0,0,0-1.19-.45,1.83,1.83,0,0,0-.5.07,1.59,1.59,0,0,0-.41.21,1,1,0,0,0-.21.18l-.15.14a.41.41,0,0,1-.13.1.24.24,0,0,1-.15,0,.33.33,0,0,1-.25-.1.34.34,0,0,1-.09-.27l.12-3.85a.39.39,0,0,1,.12-.24.37.37,0,0,1,.25-.09h3a.33.33,0,0,1,.35.33.34.34,0,0,1-.35.35H163.1L163,25.75a1.6,1.6,0,0,1,.56-.3,2.2,2.2,0,0,1,.64-.1,2.68,2.68,0,0,1,1,.17,1.94,1.94,0,0,1,.73.48,2.11,2.11,0,0,1,.46.77A3.4,3.4,0,0,1,166.55,27.82Z"/>
      <path class="cls-1" d="M172.62,28a2.57,2.57,0,0,1-.15.87,2.18,2.18,0,0,1-.47.73,2.28,2.28,0,0,1-.78.5,3,3,0,0,1-1.09.18,4,4,0,0,1-.62,0,2.08,2.08,0,0,1-.56-.13,2.4,2.4,0,0,1-.51-.25,2.37,2.37,0,0,1-.47-.39.33.33,0,0,1-.12-.25A.31.31,0,0,1,168,29a.3.3,0,0,1,.23-.11.21.21,0,0,1,.11,0l.13.09.16.14a2.49,2.49,0,0,0,.24.17,2,2,0,0,0,.6.26,3,3,0,0,0,.69.08,2.1,2.1,0,0,0,.79-.14,1.5,1.5,0,0,0,.9-.9,2,2,0,0,0,.11-.65,1.67,1.67,0,0,0-.16-.75,1.33,1.33,0,0,0-.43-.48,1.65,1.65,0,0,0-.62-.25,2.94,2.94,0,0,0-.74-.09h-.12l-.11-.05a.22.22,0,0,1-.09-.1.35.35,0,0,1,0-.16.27.27,0,0,1,0-.16.39.39,0,0,1,.08-.1l.12-.05.11,0a1.73,1.73,0,0,0,.38-.05,2,2,0,0,0,.4-.11,1.73,1.73,0,0,0,.39-.18,1.18,1.18,0,0,0,.32-.27,1.51,1.51,0,0,0,.22-.37,1.48,1.48,0,0,0,.08-.49,2.16,2.16,0,0,0-.08-.56,1.38,1.38,0,0,0-.25-.5,1.56,1.56,0,0,0-.49-.36,1.81,1.81,0,0,0-.74-.14,2.19,2.19,0,0,0-.66.09,2.92,2.92,0,0,0-.53.22c-.1.06-.17.12-.24.17l-.15.14-.12.09a.28.28,0,0,1-.13,0,.32.32,0,0,1-.22-.08.33.33,0,0,1-.1-.24.38.38,0,0,1,.14-.27,2.15,2.15,0,0,1,.35-.31,3.79,3.79,0,0,1,.45-.25,3.06,3.06,0,0,1,.56-.17,3.52,3.52,0,0,1,.66-.06,2.57,2.57,0,0,1,1.06.2,2,2,0,0,1,.68.51,1.79,1.79,0,0,1,.37.69,2.82,2.82,0,0,1,.11.74,2.24,2.24,0,0,1-.09.66,2.06,2.06,0,0,1-.27.51,2.19,2.19,0,0,1-.42.38,2.9,2.9,0,0,1-.53.26,2.87,2.87,0,0,1,.62.25,1.66,1.66,0,0,1,.47.4,1.57,1.57,0,0,1,.31.57A2.49,2.49,0,0,1,172.62,28Z"/>
      <path class="cls-1" d="M178.78,28a2.57,2.57,0,0,1-.15.87,2.18,2.18,0,0,1-.47.73,2.28,2.28,0,0,1-.78.5,3,3,0,0,1-1.09.18,4,4,0,0,1-.62,0,2.08,2.08,0,0,1-.56-.13,2.4,2.4,0,0,1-.51-.25,2.37,2.37,0,0,1-.47-.39.33.33,0,0,1-.12-.25.31.31,0,0,1,.1-.24.3.3,0,0,1,.23-.11.21.21,0,0,1,.11,0l.13.09.16.14a2.49,2.49,0,0,0,.24.17,2,2,0,0,0,.6.26,3,3,0,0,0,.69.08,2.1,2.1,0,0,0,.79-.14,1.5,1.5,0,0,0,.9-.9,2,2,0,0,0,.11-.65,1.67,1.67,0,0,0-.16-.75,1.33,1.33,0,0,0-.43-.48,1.65,1.65,0,0,0-.62-.25,2.94,2.94,0,0,0-.74-.09H176l-.11-.05a.22.22,0,0,1-.09-.1.35.35,0,0,1,0-.16.27.27,0,0,1,0-.16.39.39,0,0,1,.08-.1l.12-.05.11,0a1.73,1.73,0,0,0,.38-.05,2,2,0,0,0,.4-.11,1.73,1.73,0,0,0,.39-.18,1.18,1.18,0,0,0,.32-.27,1.51,1.51,0,0,0,.22-.37,1.48,1.48,0,0,0,.08-.49,2.16,2.16,0,0,0-.08-.56,1.38,1.38,0,0,0-.25-.5,1.45,1.45,0,0,0-.49-.36,1.81,1.81,0,0,0-.74-.14,2.19,2.19,0,0,0-.66.09,2.92,2.92,0,0,0-.53.22c-.1.06-.17.12-.24.17l-.15.14-.12.09a.28.28,0,0,1-.13,0,.32.32,0,0,1-.22-.08.33.33,0,0,1-.1-.24.38.38,0,0,1,.14-.27,2.15,2.15,0,0,1,.35-.31,3.79,3.79,0,0,1,.45-.25,3.06,3.06,0,0,1,.56-.17,3.52,3.52,0,0,1,.66-.06,2.57,2.57,0,0,1,1.06.2,2,2,0,0,1,.68.51,1.79,1.79,0,0,1,.37.69,2.46,2.46,0,0,1,.11.74,2.24,2.24,0,0,1-.09.66,2.06,2.06,0,0,1-.27.51,2.19,2.19,0,0,1-.42.38,2.61,2.61,0,0,1-.53.26,2.87,2.87,0,0,1,.62.25,1.66,1.66,0,0,1,.47.4,1.57,1.57,0,0,1,.31.57A2.49,2.49,0,0,1,178.78,28Z"/>
      <path class="cls-1" d="M181.57,29.76a2.24,2.24,0,0,1-.11.77,2.09,2.09,0,0,1-.26.54,1.14,1.14,0,0,1-.31.31.5.5,0,0,1-.26.1.21.21,0,0,1-.15-.05.18.18,0,0,1-.06-.15.24.24,0,0,1,.07-.18c0-.05.1-.11.17-.17a1.66,1.66,0,0,0,.17-.24.91.91,0,0,0,.1-.38.59.59,0,0,1-.23,0,.8.8,0,0,1-.19-.13.67.67,0,0,1-.12-.2.59.59,0,0,1,0-.23.6.6,0,0,1,0-.24.57.57,0,0,1,.33-.33.64.64,0,0,1,.24-.05.71.71,0,0,1,.26.05.7.7,0,0,1,.19.15.94.94,0,0,1,.12.22A.75.75,0,0,1,181.57,29.76Z"/>
      <path class="cls-1" d="M187.78,28.22a.32.32,0,0,1-.1.25.3.3,0,0,1-.23.11h-.7V30a.36.36,0,0,1-.11.26.32.32,0,0,1-.25.1A.34.34,0,0,1,186,30V28.58h-2.82a.37.37,0,0,1-.24-.1.38.38,0,0,1-.1-.26.41.41,0,0,1,0-.17l2.51-5.72a.37.37,0,0,1,.48-.19.37.37,0,0,1,.19.2.34.34,0,0,1,0,.28l-2.32,5.26H186V26.09a.33.33,0,0,1,.1-.25.35.35,0,0,1,.26-.1.32.32,0,0,1,.25.1.34.34,0,0,1,.11.25v1.79h.7a.34.34,0,0,1,.33.34Z"/>
      <path class="cls-1" d="M194,27.41a4.28,4.28,0,0,1-.14,1.09,2.65,2.65,0,0,1-.43.93,2.22,2.22,0,0,1-.78.64,2.46,2.46,0,0,1-1.14.24,2.52,2.52,0,0,1-1.14-.24,2.19,2.19,0,0,1-.77-.64,2.65,2.65,0,0,1-.43-.93,4.28,4.28,0,0,1-.14-1.09V25a4.34,4.34,0,0,1,.14-1.09,2.52,2.52,0,0,1,.43-.92,2.21,2.21,0,0,1,.77-.65,2.52,2.52,0,0,1,1.14-.24,2.46,2.46,0,0,1,1.14.24,2.25,2.25,0,0,1,.78.65,2.52,2.52,0,0,1,.43.92A4.34,4.34,0,0,1,194,25ZM193.26,25a3.7,3.7,0,0,0-.11-.9,2,2,0,0,0-.32-.71,1.47,1.47,0,0,0-.55-.47,1.92,1.92,0,0,0-1.58,0,1.47,1.47,0,0,0-.55.47,2.19,2.19,0,0,0-.31.71,3.71,3.71,0,0,0-.1.9v2.36a3.57,3.57,0,0,0,.1.89,2.09,2.09,0,0,0,.31.71,1.47,1.47,0,0,0,.55.47,1.92,1.92,0,0,0,1.58,0,1.47,1.47,0,0,0,.55-.47,1.93,1.93,0,0,0,.32-.71,3.56,3.56,0,0,0,.11-.89Z"/>
      <path class="cls-1" d="M200.14,27.41A4.28,4.28,0,0,1,200,28.5a2.65,2.65,0,0,1-.43.93,2.22,2.22,0,0,1-.78.64,2.46,2.46,0,0,1-1.14.24,2.52,2.52,0,0,1-1.14-.24,2.19,2.19,0,0,1-.77-.64,2.84,2.84,0,0,1-.43-.93,4.28,4.28,0,0,1-.14-1.09V25a4.34,4.34,0,0,1,.14-1.09,2.69,2.69,0,0,1,.43-.92,2.21,2.21,0,0,1,.77-.65,2.52,2.52,0,0,1,1.14-.24,2.46,2.46,0,0,1,1.14.24,2.25,2.25,0,0,1,.78.65,2.52,2.52,0,0,1,.43.92,4.34,4.34,0,0,1,.14,1.09ZM199.42,25a3.7,3.7,0,0,0-.11-.9,2,2,0,0,0-.32-.71,1.47,1.47,0,0,0-.55-.47,1.92,1.92,0,0,0-1.58,0,1.47,1.47,0,0,0-.55.47,2.19,2.19,0,0,0-.31.71,3.71,3.71,0,0,0-.1.9v2.36a3.57,3.57,0,0,0,.1.89,2.09,2.09,0,0,0,.31.71,1.47,1.47,0,0,0,.55.47,1.92,1.92,0,0,0,1.58,0A1.47,1.47,0,0,0,199,29a1.93,1.93,0,0,0,.32-.71,3.56,3.56,0,0,0,.11-.89Z"/>
      <path class="cls-1" d="M230.47,49.7a.33.33,0,0,1-.1.24.32.32,0,0,1-.23.1h-2.83a.29.29,0,0,1-.23-.1.34.34,0,0,1,0-.48.32.32,0,0,1,.23-.09h2.83a.35.35,0,0,1,.23.09A.33.33,0,0,1,230.47,49.7Z"/>
      <path class="cls-1" d="M236.63,50.53a2.83,2.83,0,0,1-.14.91,2.33,2.33,0,0,1-.45.8,2.2,2.2,0,0,1-.79.57,2.85,2.85,0,0,1-1.15.21,4.43,4.43,0,0,1-.9-.1,2.41,2.41,0,0,1-.83-.42.34.34,0,0,1-.06-.54.3.3,0,0,1,.25-.12l.1,0,.1.06a2,2,0,0,0,.61.33,2.43,2.43,0,0,0,.73.1,2,2,0,0,0,.83-.15,1.46,1.46,0,0,0,.56-.4,1.57,1.57,0,0,0,.32-.58,2.26,2.26,0,0,0,.1-.69,1.87,1.87,0,0,0-.44-1.36,1.57,1.57,0,0,0-1.19-.45,2,2,0,0,0-.51.07,1.1,1.1,0,0,0-.4.21,1,1,0,0,0-.21.18l-.15.14a.57.57,0,0,1-.13.1.24.24,0,0,1-.15,0,.33.33,0,0,1-.25-.1.32.32,0,0,1-.09-.27l.12-3.85a.39.39,0,0,1,.12-.24.37.37,0,0,1,.24-.1h3a.34.34,0,0,1,.25.1.33.33,0,0,1,.1.24.36.36,0,0,1-.35.35h-2.65l-.08,2.87a1.6,1.6,0,0,1,.56-.3,1.91,1.91,0,0,1,.64-.1,2.68,2.68,0,0,1,1,.17,1.81,1.81,0,0,1,.73.47,2.15,2.15,0,0,1,.46.78A3.32,3.32,0,0,1,236.63,50.53Z"/>
      <path class="cls-1" d="M242.82,52.58a.33.33,0,0,1-.1.24.33.33,0,0,1-.24.1h-3.95a.36.36,0,0,1-.25-.1.3.3,0,0,1-.1-.24.33.33,0,0,1,.1-.25.36.36,0,0,1,.25-.1h2V45.81l-2.14,1.48a.31.31,0,0,1-.26.06.36.36,0,0,1-.23-.15.4.4,0,0,1-.05-.26.34.34,0,0,1,.15-.22l2.66-1.84a.35.35,0,0,1,.23-.07.35.35,0,0,1,.26.1.35.35,0,0,1,.11.26v7.06h1.22a.33.33,0,0,1,.24.1A.37.37,0,0,1,242.82,52.58Z"/>
      <path class="cls-1" d="M249.13,50.93a.37.37,0,0,1-.09.25.3.3,0,0,1-.24.1h-.7v1.39a.35.35,0,0,1-.1.26.33.33,0,0,1-.25.1.35.35,0,0,1-.26-.1.36.36,0,0,1-.11-.26V51.28h-2.81a.32.32,0,0,1-.24-.09.39.39,0,0,1-.06-.43L246.79,45a.39.39,0,0,1,.2-.2.36.36,0,0,1,.27,0,.34.34,0,0,1,.19.2.32.32,0,0,1,0,.27l-2.32,5.27h2.25V48.8a.33.33,0,0,1,.11-.25.36.36,0,0,1,.26-.11.34.34,0,0,1,.25.11.32.32,0,0,1,.1.25v1.79h.7a.3.3,0,0,1,.24.1A.36.36,0,0,1,249.13,50.93Z"/>
      <path class="cls-1" d="M251.66,52.47a2.24,2.24,0,0,1-.11.77,2,2,0,0,1-.26.53,1.06,1.06,0,0,1-.31.32.5.5,0,0,1-.26.1.27.27,0,0,1-.15,0,.18.18,0,0,1-.06-.15.26.26,0,0,1,.07-.19l.16-.17a1.54,1.54,0,0,0,.18-.23A.91.91,0,0,0,251,53a.59.59,0,0,1-.23-.05.85.85,0,0,1-.19-.14.62.62,0,0,1-.12-.19.59.59,0,0,1,0-.23.6.6,0,0,1,0-.24.69.69,0,0,1,.13-.2.53.53,0,0,1,.2-.13.6.6,0,0,1,.24-.05.71.71,0,0,1,.26.05.7.7,0,0,1,.19.15.78.78,0,0,1,.12.22A.75.75,0,0,1,251.66,52.47Z"/>
      <path class="cls-1" d="M258,50.87a2,2,0,0,1-.19.89,1.82,1.82,0,0,1-.53.67,2.52,2.52,0,0,1-.81.44,3.53,3.53,0,0,1-1.06.15,3.75,3.75,0,0,1-1-.14,2.43,2.43,0,0,1-.82-.41,2,2,0,0,1-.54-.67,2,2,0,0,1-.2-.92,2,2,0,0,1,.14-.77,1.9,1.9,0,0,1,.4-.57,2.79,2.79,0,0,1,.57-.44c.22-.12.45-.24.69-.35a4.14,4.14,0,0,1-.55-.29,2.11,2.11,0,0,1-.45-.39,1.68,1.68,0,0,1-.3-.52,1.81,1.81,0,0,1-.12-.69,2.13,2.13,0,0,1,.18-.9,1.89,1.89,0,0,1,.48-.63,2.29,2.29,0,0,1,.7-.39,2.94,2.94,0,0,1,.84-.12,2.57,2.57,0,0,1,.85.13,2,2,0,0,1,.69.39,1.71,1.71,0,0,1,.46.63,2,2,0,0,1,.17.87,1.72,1.72,0,0,1-.1.62,1.68,1.68,0,0,1-.29.5,2.12,2.12,0,0,1-.44.4,3.64,3.64,0,0,1-.55.33,6.9,6.9,0,0,1,.67.32,2.5,2.5,0,0,1,.58.43,1.8,1.8,0,0,1,.4.6A2.05,2.05,0,0,1,258,50.87Zm-.72,0a1.38,1.38,0,0,0-.16-.67,1.91,1.91,0,0,0-.42-.48,3.47,3.47,0,0,0-.6-.34l-.71-.28-.68.3a3.7,3.7,0,0,0-.59.36,1.53,1.53,0,0,0-.41.47,1.25,1.25,0,0,0-.16.63,1.51,1.51,0,0,0,.14.65,1.37,1.37,0,0,0,.38.48,1.82,1.82,0,0,0,.59.3,2.84,2.84,0,0,0,1.53,0,1.58,1.58,0,0,0,.59-.31,1.35,1.35,0,0,0,.37-.48A1.52,1.52,0,0,0,257.29,50.84Zm-.4-3.94a1.67,1.67,0,0,0-.11-.62,1.34,1.34,0,0,0-.31-.45,1.24,1.24,0,0,0-.46-.27,1.63,1.63,0,0,0-.59-.1,1.85,1.85,0,0,0-.58.09,1.4,1.4,0,0,0-.47.28,1.32,1.32,0,0,0-.32.44,1.67,1.67,0,0,0-.11.62,1.18,1.18,0,0,0,.12.55,1.3,1.3,0,0,0,.33.41,2.33,2.33,0,0,0,.48.31c.18.08.37.17.58.24l.55-.26a2.33,2.33,0,0,0,.46-.32,1.31,1.31,0,0,0,.31-.4A1.11,1.11,0,0,0,256.89,46.9Z"/>
      <path class="cls-1" d="M264.07,50.12a4.34,4.34,0,0,1-.14,1.09,2.66,2.66,0,0,1-.44.93,2.1,2.1,0,0,1-.77.64,2.46,2.46,0,0,1-1.14.24,2.52,2.52,0,0,1-1.14-.24,2.19,2.19,0,0,1-.77-.64,2.65,2.65,0,0,1-.43-.93,4.34,4.34,0,0,1-.14-1.09V47.71a4.34,4.34,0,0,1,.14-1.09,2.65,2.65,0,0,1,.43-.93,2.19,2.19,0,0,1,.77-.64,2.52,2.52,0,0,1,1.14-.24,2.46,2.46,0,0,1,1.14.24,2.1,2.1,0,0,1,.77.64,2.66,2.66,0,0,1,.44.93,4.34,4.34,0,0,1,.14,1.09Zm-.73-2.38a3.71,3.71,0,0,0-.1-.9,2,2,0,0,0-.32-.71,1.47,1.47,0,0,0-.55-.47,1.92,1.92,0,0,0-1.58,0,1.4,1.4,0,0,0-.55.47,2.19,2.19,0,0,0-.31.71,3.71,3.71,0,0,0-.1.9V50.1a3.57,3.57,0,0,0,.1.89,2.09,2.09,0,0,0,.31.71,1.4,1.4,0,0,0,.55.47,1.92,1.92,0,0,0,1.58,0,1.47,1.47,0,0,0,.55-.47,1.93,1.93,0,0,0,.32-.71,3.57,3.57,0,0,0,.1-.89Z"/>
      <path class="cls-1" d="M270,52.58a.3.3,0,0,1-.1.24.33.33,0,0,1-.24.1h-3.95a.33.33,0,0,1-.24-.1.28.28,0,0,1-.11-.24.31.31,0,0,1,.11-.25.33.33,0,0,1,.24-.1h2V45.81l-2.14,1.48a.31.31,0,0,1-.26.06.32.32,0,0,1-.22-.15.4.4,0,0,1-.06-.26.34.34,0,0,1,.15-.22l2.67-1.84a.33.33,0,0,1,.23-.07.37.37,0,0,1,.26.1.34.34,0,0,1,.1.26v7.06h1.22a.33.33,0,0,1,.24.1A.33.33,0,0,1,270,52.58Z"/>
      <path class="cls-7" d="M218.6,39.75A19.32,19.32,0,0,0,221.16,50a27.86,27.86,0,0,0,7.1,8.12,46,46,0,0,0,19.88,8.57l.55-4.11a42.88,42.88,0,0,1-19.22-6.15,26.28,26.28,0,0,1-7.43-7A18.79,18.79,0,0,1,218.6,39.75Z"/>
      <polygon class="cls-7" points="246.57 69.39 255.58 65.1 247.36 59.45 246.57 69.39"/>
    </g>
  </g>
</svg>