<svg xmlns="http://www.w3.org/2000/svg" xmlns:xlink="http://www.w3.org/1999/xlink" viewBox="0 0 270.32 182.22">
  <defs>
    <style>.cls-1{fill:#fff;}.cls-2{fill:none;stroke-miterlimit:10;stroke-width:0.64px;opacity:0.1;stroke:url(#未命名的渐变_41);}.cls-3{fill:url(#未命名的渐变_4);}.cls-4{fill:url(#未命名的渐变_4-2);}.cls-5{fill:url(#未命名的渐变_4-3);}.cls-6{fill:url(#未命名的渐变_4-4);}</style>
    <linearGradient id="未命名的渐变_41" y1="63.16" x2="270.32" y2="63.16" gradientUnits="userSpaceOnUse">
      <stop offset="0" stop-color="#fff"/>
      <stop offset="1" stop-color="#fff" stop-opacity="0.5"/>
    </linearGradient>
    <linearGradient id="未命名的渐变_4" x1="36.6" y1="126" x2="36.6" y2="125.81" gradientUnits="userSpaceOnUse">
      <stop offset="0" stop-color="#00dcff" stop-opacity="1">
        <animate attributeName="stop-opacity"
                 values="1;0.93;0.76;0.61;0.48;0.38;0.3;0.24;0.21;0.2;0.21;0.24;0.3;0.38;0.48;0.61;0.76;0.93;1"
                 dur="5s" repeatCount="indefinite"></animate>
      </stop>
      <stop offset="0.01" stop-color="#00dcff" stop-opacity="0.93">
        <animate attributeName="stop-opacity"
                 values="0.93;0.76;0.61;0.48;0.38;0.3;0.24;0.21;0.2;0.21;0.24;0.3;0.38;0.48;0.61;0.76;0.93;1;1"
                 dur="5s" repeatCount="indefinite"></animate>
      </stop>
      <stop offset="0.05" stop-color="#00dcff" stop-opacity="0.76">
        <animate attributeName="stop-opacity"
                 values="0.76;0.61;0.48;0.38;0.3;0.24;0.21;0.2;0.21;0.24;0.3;0.38;0.48;0.61;0.76;0.93;1;1;0.93"
                 dur="5s" repeatCount="indefinite"></animate>
      </stop>
      <stop offset="0.1" stop-color="#00dcff" stop-opacity="0.61">
        <animate attributeName="stop-opacity"
                 values="0.61;0.48;0.38;0.3;0.24;0.21;0.2;0.21;0.24;0.3;0.38;0.48;0.61;0.76;0.93;1;1;0.93;0.76"
                 dur="5s" repeatCount="indefinite"></animate>
      </stop>
      <stop offset="0.14" stop-color="#00dcff" stop-opacity="0.48">
        <animate attributeName="stop-opacity"
                 values="0.48;0.38;0.3;0.24;0.21;0.2;0.21;0.24;0.3;0.38;0.48;0.61;0.76;0.93;1;1;0.93;0.76;0.61"
                 dur="5s" repeatCount="indefinite"></animate>
      </stop>
      <stop offset="0.19" stop-color="#00dcff" stop-opacity="0.38">
        <animate attributeName="stop-opacity"
                 values="0.38;0.3;0.24;0.21;0.2;0.21;0.24;0.3;0.38;0.48;0.61;0.76;0.93;1;1;0.93;0.76;0.61;0.48"
                 dur="5s" repeatCount="indefinite"></animate>
      </stop>
      <stop offset="0.24" stop-color="#00dcff" stop-opacity="0.3">
        <animate attributeName="stop-opacity"
                 values="0.3;0.24;0.21;0.2;0.21;0.24;0.3;0.38;0.48;0.61;0.76;0.93;1;1;0.93;0.76;0.61;0.48;0.38"
                 dur="5s" repeatCount="indefinite"></animate>
      </stop>
      <stop offset="0.31" stop-color="#00dcff" stop-opacity="0.24">
        <animate attributeName="stop-opacity"
                 values="0.24;0.21;0.2;0.21;0.24;0.3;0.38;0.48;0.61;0.76;0.93;1;1;0.93;0.76;0.61;0.48;0.38;0.3"
                 dur="5s" repeatCount="indefinite"></animate>
      </stop>
      <stop offset="0.38" stop-color="#00dcff" stop-opacity="0.21">
        <animate attributeName="stop-opacity"
                 values="0.21;0.2;0.21;0.24;0.3;0.38;0.48;0.61;0.76;0.93;1;1;0.93;0.76;0.61;0.48;0.38;0.3;0.24"
                 dur="5s" repeatCount="indefinite"></animate>
      </stop>
      <stop offset="0.5" stop-color="#00dcff" stop-opacity="0.2">
        <animate attributeName="stop-opacity"
                 values="0.2;0.21;0.24;0.3;0.38;0.48;0.61;0.76;0.93;1;1;0.93;0.76;0.61;0.48;0.38;0.3;0.24;0.21"
                 dur="5s" repeatCount="indefinite"></animate>
      </stop>
      <stop offset="0.62" stop-color="#00dcff" stop-opacity="0.21">
        <animate attributeName="stop-opacity"
                 values="0.21;0.24;0.3;0.38;0.48;0.61;0.76;0.93;1;1;0.93;0.76;0.61;0.48;0.38;0.3;0.24;0.21;0.2"
                 dur="5s" repeatCount="indefinite"></animate>
      </stop>
      <stop offset="0.69" stop-color="#00dcff" stop-opacity="0.24">
        <animate attributeName="stop-opacity"
                 values="0.24;0.3;0.38;0.48;0.61;0.76;0.93;1;1;0.93;0.76;0.61;0.48;0.38;0.3;0.24;0.21;0.2;0.21"
                 dur="5s" repeatCount="indefinite"></animate>
      </stop>
      <stop offset="0.76" stop-color="#00dcff" stop-opacity="0.3">
        <animate attributeName="stop-opacity"
                 values="0.3;0.38;0.48;0.61;0.76;0.93;1;1;0.93;0.76;0.61;0.48;0.38;0.3;0.24;0.21;0.2;0.21;0.24"
                 dur="5s" repeatCount="indefinite"></animate>
      </stop>
      <stop offset="0.81" stop-color="#00dcff" stop-opacity="0.38">
        <animate attributeName="stop-opacity"
                 values="0.38;0.48;0.61;0.76;0.93;1;1;0.93;0.76;0.61;0.48;0.38;0.3;0.24;0.21;0.2;0.21;0.24;0.3"
                 dur="5s" repeatCount="indefinite"></animate>
      </stop>
      <stop offset="0.86" stop-color="#00dcff" stop-opacity="0.48">
        <animate attributeName="stop-opacity"
                 values="0.48;0.61;0.76;0.93;1;1;0.93;0.76;0.61;0.48;0.38;0.3;0.24;0.21;0.2;0.21;0.24;0.3;0.38"
                 dur="5s" repeatCount="indefinite"></animate>
      </stop>
      <stop offset="0.9" stop-color="#00dcff" stop-opacity="0.61">
        <animate attributeName="stop-opacity"
                 values="0.61;0.76;0.93;1;1;0.93;0.76;0.61;0.48;0.38;0.3;0.24;0.21;0.2;0.21;0.24;0.3;0.38;0.48"
                 dur="5s" repeatCount="indefinite"></animate>
      </stop>
      <stop offset="0.95" stop-color="#00dcff" stop-opacity="0.76">
        <animate attributeName="stop-opacity"
                 values="0.76;0.93;1;1;0.93;0.76;0.61;0.48;0.38;0.3;0.24;0.21;0.2;0.21;0.24;0.3;0.38;0.48;0.61"
                 dur="5s" repeatCount="indefinite"></animate>
      </stop>
      <stop offset="0.99" stop-color="#00dcff" stop-opacity="0.93">
        <animate attributeName="stop-opacity"
                 values="0.93;1;1;0.93;0.76;0.61;0.48;0.38;0.3;0.24;0.21;0.2;0.21;0.24;0.3;0.38;0.48;0.61;0.76"
                 dur="5s" repeatCount="indefinite"></animate>
      </stop>
      <stop offset="1" stop-color="#00dcff" stop-opacity="1">
        <animate attributeName="stop-opacity"
                 values="1;1;0.93;0.76;0.61;0.48;0.38;0.3;0.24;0.21;0.2;0.21;0.24;0.3;0.38;0.48;0.61;0.76;0.93"
                 dur="5s" repeatCount="indefinite"></animate>
      </stop>
    </linearGradient>
    <linearGradient id="未命名的渐变_4-2" x1="105.5" x2="105.5" y2="107.79" xlink:href="#未命名的渐变_4"/>
    <linearGradient id="未命名的渐变_4-3" x1="174.27" x2="174.27" y2="14.13" xlink:href="#未命名的渐变_4"/>
    <linearGradient id="未命名的渐变_4-4" x1="243.04" x2="243.04" y2="75.27" xlink:href="#未命名的渐变_4"/>
  </defs>
  <g id="图层_2" data-name="图层 2">
    <g id="图层_2-2" data-name="图层 2">
      <path class="cls-1" d="M3.09,173.89a11.08,11.08,0,0,1-1.79,2.33c-.1-.08-.33-.25-.46-.33a10.6,10.6,0,0,0,2.55-3.74l.52.16c-.17.36-.34.74-.54,1.09h7.08v.49Zm6.16,4.28c0,.88-.1,1.58-.15,2.1h1.38v.49H9a2.4,2.4,0,0,1-.33,1.11.88.88,0,0,1-.7.32,12.19,12.19,0,0,1-1.38-.05,1.17,1.17,0,0,0-.14-.45c.6.05,1.15.06,1.35.06s.31,0,.41-.15a2.08,2.08,0,0,0,.27-.84H2c.14-.68.3-1.61.46-2.59H.87v-.48H2.52c.13-.88.25-1.8.34-2.53h6.5s0,.22,0,.3c0,.85,0,1.58-.08,2.23h1.54v.48Zm-.68,2.1c.07-.51.12-1.21.17-2.1H3c-.12.77-.24,1.5-.34,2.1Zm-5.26-4.63c-.07.65-.17,1.34-.27,2.05H8.75c0-.6.06-1.28.09-2.05Zm1.26,2.7a10.34,10.34,0,0,1,2.28,1.49l-.33.38a9.7,9.7,0,0,0-2.26-1.55Zm2.18-.84a8.75,8.75,0,0,0-2.13-1.33l.32-.32a8.71,8.71,0,0,1,2.13,1.29Z"/>
      <path class="cls-1" d="M21.42,179.56H17.29v2.64h-.52v-2.64h-5.2V179h1.86v-3h3.34v-1.9H13.88a9.87,9.87,0,0,1-1.77,2.27,3.53,3.53,0,0,0-.47-.33,9.56,9.56,0,0,0,2.6-3.89l.53.13a14.11,14.11,0,0,1-.59,1.31H21v.51H17.29V176h3.44v.5H17.29V179h4.13ZM16.77,179v-2.5H14V179Z"/>
      <path class="cls-1" d="M24.16,180a8.26,8.26,0,0,1,1,.7,5.24,5.24,0,0,0,2.89.54c1.43,0,3-.08,4.08-.18a2,2,0,0,0-.17.56c-.77,0-2.9.11-3.91.11a5.45,5.45,0,0,1-3.09-.61c-.44-.28-.78-.68-1-.68s-.87.6-1.45,1.4l-.35-.44a4.55,4.55,0,0,1,1.5-1.37V177H22.28v-.5h1.88Zm-.23-5.2a10.2,10.2,0,0,0-1.48-1.91l.41-.24a9.68,9.68,0,0,1,1.51,1.87Zm1.83.86a9.21,9.21,0,0,1-1,4.11,1.24,1.24,0,0,0-.36-.33,10,10,0,0,0,.95-4.78v-1.89h2.51v2.89ZM25.69,177H28v3.14h-2.3Zm.1-3.72v1.43a5.15,5.15,0,0,1,0,.55h1.58v-2Zm.34,6.41h1.41V177.4H26.13Zm3.76-2.92H28.17v-.47h2.14a15.52,15.52,0,0,0,.75-1.87l.47.12c-.24.57-.52,1.25-.77,1.75h1.33v.47H30.37v1.44H32v.47H30.37v2.18h-.48v-2.18H28.34v-.47h1.55ZM32,174.2H28.28v-.46H30a8.34,8.34,0,0,0-.58-1.34l.42-.14a7.86,7.86,0,0,1,.65,1.48H32Zm-2.75,1.89a6.88,6.88,0,0,0-.42-1.56l.4-.1a7.06,7.06,0,0,1,.45,1.54Z"/>
      <path class="cls-1" d="M41.62,181.46c.51,0,.59-.21.63-1.6a3.27,3.27,0,0,0,.51.22c-.09,1.51-.25,1.88-1.12,1.88h-2c-.91,0-1.16-.17-1.16-.86v-2.88h-.71c-.53,1.78-1.67,3.13-4.41,3.85a1.39,1.39,0,0,0-.31-.45c2.58-.63,3.67-1.83,4.17-3.4h-3v-2.78c-.27.23-.53.43-.82.64a1.54,1.54,0,0,0-.4-.36,10.29,10.29,0,0,0,3.25-3.5l.58.1c-.15.26-.32.54-.51.81h3l.1,0,.34.24A10.08,10.08,0,0,1,38.52,175H41.9v3.22H39v2.88c0,.31.1.36.66.36Zm-5.72-7.85A14.79,14.79,0,0,1,34.63,175h3.29A8.64,8.64,0,0,0,39,173.61Zm1.43,4.11a16.15,16.15,0,0,0,.29-2.22h-3v2.22Zm.84-2.22a14.85,14.85,0,0,1-.31,2.22h3.5V175.5Z"/>
      <path class="cls-1" d="M46.37,172.32c-.19.55-.41,1.19-.6,1.66h1.92v7H44.55v.9h-.49V174h1.22a15.74,15.74,0,0,0,.53-1.79Zm.81,2.15H44.55v2.62h2.63Zm0,6.06v-2.95H44.55v2.95Zm5.91-6.24c-.19,5.1-.34,6.78-.78,7.29a1,1,0,0,1-.77.34,12.79,12.79,0,0,1-1.59,0,1.27,1.27,0,0,0-.17-.52c.72.06,1.37.07,1.62.07s.35,0,.46-.17c.36-.39.55-2.1.71-6.79H49.49a10.23,10.23,0,0,1-1.08,2,3.54,3.54,0,0,0-.45-.28,10.9,10.9,0,0,0,1.69-4.1l.51.12a13.63,13.63,0,0,1-.49,1.72h3.42Zm-2.15,4.91a16.92,16.92,0,0,0-1.78-2.57l.43-.24a18.76,18.76,0,0,1,1.79,2.52Z"/>
      <path class="cls-1" d="M56.1,173.46a23,23,0,0,1-.55,2.75h2v4.48h-2v1h-.47v-4a8.41,8.41,0,0,1-.6,1.16,3.3,3.3,0,0,0-.36-.41,12.91,12.91,0,0,0,1.5-4.95H54.21V173h3.67v.48ZM57,176.7h-1.5v3.51H57Zm2.6-.5c-.19,2.42-.59,4.29-1.64,5.65a2.28,2.28,0,0,0-.4-.35c1-1.22,1.38-3,1.55-5.3H57.82v-.47h1.35l0-.75.51,0c0,.25,0,.48,0,.72h4.5v.47Zm4.06-1.48H58.4v-2.14h.47v1.67H60.8v-2h.49v2H63.2v-1.67h.49Zm-1.62,1.71c0,.76-.08,1.45-.17,2.06a4.1,4.1,0,0,0,2.41,3.24,1.31,1.31,0,0,0-.33.38,4.17,4.17,0,0,1-2.26-2.72,3.82,3.82,0,0,1-2.53,2.81,1.51,1.51,0,0,0-.3-.36c2.27-.86,2.59-2.54,2.69-5.41Zm-2.45,3a5.64,5.64,0,0,0,.63-2.09l.42.07A6.64,6.64,0,0,1,60,179.7Zm2.92-.06a17.63,17.63,0,0,0,.81-2.06l.45.17c-.28.68-.6,1.49-.9,2.05Z"/>
      <path class="cls-1" d="M68.45,177.61l-1.41.45v3.36c0,.35-.1.49-.31.58a4.06,4.06,0,0,1-1.26.1,3.42,3.42,0,0,0-.18-.5c.49,0,.93,0,1,0s.2-.06.2-.2v-3.19l-1.47.46-.16-.53,1.63-.46V175H65v-.51h1.5v-2.3H67v2.3h1.29V175H67v2.5l1.35-.4Zm2.14-5.33h.51v9.91h-.51v-3h-2v-.49h2v-1.77H68.85v-.49h1.74v-1.74H68.82v-.48h1.77Zm4.26,6.94H72.78v3h-.51v-9.92h.51v1.92h2v.48h-2v1.74h1.87v.49H72.78v1.81h2.07Z"/>
      <path class="cls-1" d="M79.85,176.26s0,.21,0,.28c-.09,3.68-.16,4.86-.44,5.23a.74.74,0,0,1-.6.28,9.93,9.93,0,0,1-1.19,0,1.33,1.33,0,0,0-.16-.5c.51,0,1,0,1.16,0s.25,0,.34-.13.3-1.4.37-4.69H77.49v.2a7,7,0,0,1-1.72,5.26,2,2,0,0,0-.4-.35A6.56,6.56,0,0,0,77,176.94v-2.36H75.55v-.51h4.87v.51H77.49v1.68ZM78,173.88a9.38,9.38,0,0,0-.61-1.49l.45-.17a11.63,11.63,0,0,1,.65,1.46Zm6.73.93a12.69,12.69,0,0,1-1.56,4.59,5.72,5.72,0,0,0,2.43,2.35,1.86,1.86,0,0,0-.39.44,6,6,0,0,1-2.35-2.31,7.82,7.82,0,0,1-2.78,2.34,2.1,2.1,0,0,0-.34-.46,6.89,6.89,0,0,0,2.84-2.38,14.17,14.17,0,0,1-1.21-3.61,8.85,8.85,0,0,1-.92,1.71,4.09,4.09,0,0,0-.44-.37,12.71,12.71,0,0,0,1.87-4.9l.54.1c-.15.67-.31,1.35-.52,2h3.61v.51Zm-3,0a.79.79,0,0,1,0,.13,14,14,0,0,0,1.19,3.94,12.41,12.41,0,0,0,1.3-4.07Z"/>
      <path class="cls-1" d="M90.19,178.07a3.25,3.25,0,0,0,0,.47,21.66,21.66,0,0,0-3.77.72,4.23,4.23,0,0,0-.17-.5,2.35,2.35,0,0,0,.85-.74,14.18,14.18,0,0,0,1.39-1.71,13,13,0,0,0-2.15.33,3.72,3.72,0,0,0-.16-.51c.17,0,.38-.31.65-.7a18.51,18.51,0,0,0,1.74-3.15l.5.22A21.64,21.64,0,0,1,87,176l1.85-.2c.28-.4.55-.82.78-1.23l.47.27a23.93,23.93,0,0,1-2.82,3.65Zm-4,2.86c1-.17,2.56-.49,4.08-.8l0,.47-4,.85Zm9.52-6.34c-.17,5-.3,6.7-.72,7.19a.92.92,0,0,1-.76.35,12.44,12.44,0,0,1-1.55,0,1.2,1.2,0,0,0-.18-.52c.71.07,1.35.07,1.59.07a.43.43,0,0,0,.43-.16c.35-.38.53-2.06.67-6.71H91.71a10,10,0,0,1-1,1.7,2.89,2.89,0,0,0-.45-.29,10.85,10.85,0,0,0,1.77-4l.52.11a17.91,17.91,0,0,1-.67,1.95h3.83Zm-2.28,4.48a11.75,11.75,0,0,0-2.17-2.44l.39-.31a13.15,13.15,0,0,1,2.19,2.42Z"/>
      <path class="cls-1" d="M98.31,173.69a7.11,7.11,0,0,1-1,1.44,2,2,0,0,0-.43-.3,7.26,7.26,0,0,0,1.62-2.64l.51.13a9.1,9.1,0,0,1-.4.9h3.15v.47h-2.2a7.21,7.21,0,0,1,.41,1.17l-.5.15a6.66,6.66,0,0,0-.45-1.32Zm6.07,4v1.16h2.18v.48h-2.18v2.1c0,.4-.1.55-.4.64a9,9,0,0,1-1.87.1,2.62,2.62,0,0,0-.22-.52c.86,0,1.5,0,1.72,0s.24,0,.24-.22v-2.1H97.24v-.48h6.61v-1.16H96.93v-.48h4.65V176H98v-.49h3.58v-.66l-.06.06a3,3,0,0,0-.44-.33,5.79,5.79,0,0,0,1.61-2.42l.5.12a6.77,6.77,0,0,1-.4.91h3.9v.47H104a5.5,5.5,0,0,1,.72,1.2l-.47.2a6.88,6.88,0,0,0-.82-1.4h-.94a5.81,5.81,0,0,1-.73,1h.33v.87h3.65V176h-3.65v1.2h4.7v.48Zm-5.1,1.84a7.74,7.74,0,0,1,2,1.67l-.42.34a7.57,7.57,0,0,0-2-1.72Z"/>
      <path class="cls-1" d="M117.38,177.2h-4.49v4.07c0,.49-.16.66-.5.76a9.79,9.79,0,0,1-2.16.1,3.08,3.08,0,0,0-.23-.55c1,0,1.78,0,2,0s.33-.07.33-.3V177.2h-4.68v-.51h4.68v-3.12h-3.92v-.51h8.18v.51h-3.72v3.12h4.49Z"/>
      <path class="cls-1" d="M123.06,181.05a.34.34,0,0,1-.34.34h-4a.42.42,0,0,1-.25-.1.33.33,0,0,1-.1-.24.35.35,0,0,1,.1-.26.42.42,0,0,1,.25-.1h2v-6.42l-2.14,1.48a.32.32,0,0,1-.27.06.37.37,0,0,1-.22-.15.35.35,0,0,1,.1-.48l2.66-1.84a.35.35,0,0,1,.23-.07.35.35,0,0,1,.26.1.36.36,0,0,1,.11.26v7.06h1.22a.37.37,0,0,1,.24.1A.4.4,0,0,1,123.06,181.05Z"/>
      <path class="cls-1" d="M129.09,178.58a4.28,4.28,0,0,1-.14,1.09,2.66,2.66,0,0,1-.44.93,2.19,2.19,0,0,1-.77.64,2.83,2.83,0,0,1-2.28,0,2.19,2.19,0,0,1-.77-.64,2.65,2.65,0,0,1-.43-.93,3.88,3.88,0,0,1-.14-1.09v-2.41a3.93,3.93,0,0,1,.14-1.09,2.52,2.52,0,0,1,.43-.92,2.21,2.21,0,0,1,.77-.65,2.83,2.83,0,0,1,2.28,0,2.21,2.21,0,0,1,.77.65,2.54,2.54,0,0,1,.44.92,4.34,4.34,0,0,1,.14,1.09Zm-.73-2.38a3.71,3.71,0,0,0-.1-.9,2.2,2.2,0,0,0-.32-.71,1.55,1.55,0,0,0-.55-.47,1.77,1.77,0,0,0-.79-.17,1.74,1.74,0,0,0-.79.17,1.4,1.4,0,0,0-.55.47,2,2,0,0,0-.31.71,3.7,3.7,0,0,0-.11.9v2.36a3.56,3.56,0,0,0,.11.89,1.92,1.92,0,0,0,.31.71,1.4,1.4,0,0,0,.55.47,1.74,1.74,0,0,0,.79.17,1.77,1.77,0,0,0,.79-.17,1.55,1.55,0,0,0,.55-.47,2.11,2.11,0,0,0,.32-.71,3.57,3.57,0,0,0,.1-.89Z"/>
      <path class="cls-1" d="M134.92,178.58a4.28,4.28,0,0,1-.14,1.09,2.66,2.66,0,0,1-.44.93,2.19,2.19,0,0,1-.77.64,2.83,2.83,0,0,1-2.28,0,2.19,2.19,0,0,1-.77-.64,2.65,2.65,0,0,1-.43-.93,3.88,3.88,0,0,1-.14-1.09v-2.41a3.93,3.93,0,0,1,.14-1.09,2.52,2.52,0,0,1,.43-.92,2.21,2.21,0,0,1,.77-.65,2.83,2.83,0,0,1,2.28,0,2.21,2.21,0,0,1,.77.65,2.54,2.54,0,0,1,.44.92,4.34,4.34,0,0,1,.14,1.09Zm-.73-2.38a3.71,3.71,0,0,0-.1-.9,2.2,2.2,0,0,0-.32-.71,1.55,1.55,0,0,0-.55-.47,1.77,1.77,0,0,0-.79-.17,1.74,1.74,0,0,0-.79.17,1.4,1.4,0,0,0-.55.47,2,2,0,0,0-.31.71,3.7,3.7,0,0,0-.11.9v2.36a3.56,3.56,0,0,0,.11.89,1.92,1.92,0,0,0,.31.71,1.4,1.4,0,0,0,.55.47,1.74,1.74,0,0,0,.79.17,1.77,1.77,0,0,0,.79-.17,1.55,1.55,0,0,0,.55-.47,2.11,2.11,0,0,0,.32-.71,3.57,3.57,0,0,0,.1-.89Z"/>
      <path class="cls-1" d="M140.75,178.58a4.28,4.28,0,0,1-.14,1.09,2.66,2.66,0,0,1-.44.93,2.19,2.19,0,0,1-.77.64,2.83,2.83,0,0,1-2.28,0,2.19,2.19,0,0,1-.77-.64,2.65,2.65,0,0,1-.43-.93,3.88,3.88,0,0,1-.14-1.09v-2.41a3.93,3.93,0,0,1,.14-1.09,2.52,2.52,0,0,1,.43-.92,2.21,2.21,0,0,1,.77-.65,2.83,2.83,0,0,1,2.28,0,2.21,2.21,0,0,1,.77.65,2.54,2.54,0,0,1,.44.92,4.34,4.34,0,0,1,.14,1.09ZM140,176.2a3.71,3.71,0,0,0-.1-.9,2.2,2.2,0,0,0-.32-.71,1.55,1.55,0,0,0-.55-.47,1.77,1.77,0,0,0-.79-.17,1.74,1.74,0,0,0-.79.17,1.4,1.4,0,0,0-.55.47,2,2,0,0,0-.31.71,3.7,3.7,0,0,0-.11.9v2.36a3.56,3.56,0,0,0,.11.89,1.92,1.92,0,0,0,.31.71,1.4,1.4,0,0,0,.55.47,1.74,1.74,0,0,0,.79.17,1.77,1.77,0,0,0,.79-.17,1.55,1.55,0,0,0,.55-.47,2.11,2.11,0,0,0,.32-.71,3.57,3.57,0,0,0,.1-.89Z"/>
      <path class="cls-1" d="M146.58,178.58a4.28,4.28,0,0,1-.14,1.09,2.66,2.66,0,0,1-.44.93,2.19,2.19,0,0,1-.77.64,2.83,2.83,0,0,1-2.28,0,2.19,2.19,0,0,1-.77-.64,2.65,2.65,0,0,1-.43-.93,3.88,3.88,0,0,1-.14-1.09v-2.41a3.93,3.93,0,0,1,.14-1.09,2.52,2.52,0,0,1,.43-.92,2.21,2.21,0,0,1,.77-.65,2.83,2.83,0,0,1,2.28,0,2.21,2.21,0,0,1,.77.65,2.54,2.54,0,0,1,.44.92,4.34,4.34,0,0,1,.14,1.09Zm-.73-2.38a3.71,3.71,0,0,0-.1-.9,2.2,2.2,0,0,0-.32-.71,1.55,1.55,0,0,0-.55-.47,1.77,1.77,0,0,0-.79-.17,1.74,1.74,0,0,0-.79.17,1.4,1.4,0,0,0-.55.47,2,2,0,0,0-.31.71,3.7,3.7,0,0,0-.11.9v2.36a3.56,3.56,0,0,0,.11.89,1.92,1.92,0,0,0,.31.71,1.4,1.4,0,0,0,.55.47,1.74,1.74,0,0,0,.79.17,1.77,1.77,0,0,0,.79-.17,1.55,1.55,0,0,0,.55-.47,2.11,2.11,0,0,0,.32-.71,3.57,3.57,0,0,0,.1-.89Z"/>
      <path class="cls-1" d="M157.23,178.18h-4.64v4h-.53v-4h-4.58v-.52h4.58v-4.14h-4V173h8.58v.52h-4v4.14h4.64Zm-7.89-4a13.16,13.16,0,0,1,1.14,2.63L150,177a14.67,14.67,0,0,0-1.11-2.67Zm4.63,2.71a16.21,16.21,0,0,0,1.34-2.78l.55.19a23.6,23.6,0,0,1-1.44,2.76Z"/>
      <path class="cls-1" d="M162.07,174.73c0,.66-.09,1.33-.19,2h4.69a2.32,2.32,0,0,1,0,.29c-.23,3.18-.45,4.34-.85,4.77a1.11,1.11,0,0,1-.82.29,14.08,14.08,0,0,1-1.81-.07,1,1,0,0,0-.19-.5c.81.07,1.57.08,1.86.08a.73.73,0,0,0,.5-.12c.35-.3.56-1.42.76-4.22h-4.2a6.26,6.26,0,0,1-3.29,5,1.52,1.52,0,0,0-.39-.41c2.92-1.39,3.25-4.45,3.38-7.07h-3.11v-.52h9.32v.52Zm1.22-.64a13.35,13.35,0,0,0-.77-1.69l.49-.19a12.9,12.9,0,0,1,.8,1.65Z"/>
      <path class="cls-1" d="M174.45,177a12,12,0,0,0,4.28,4,1.8,1.8,0,0,0-.38.44,13.48,13.48,0,0,1-4.41-4.33v5h-.54v-5a13.5,13.5,0,0,1-4.35,4.44,3.91,3.91,0,0,0-.37-.44,12,12,0,0,0,4.21-4.11h-4v-.52h4.51v-4.29h.54v4.29h4.53V177Zm-3.25-1.32a12.06,12.06,0,0,0-1.59-2.6l.46-.2a11,11,0,0,1,1.62,2.58Zm6.66-2.69a22.63,22.63,0,0,1-1.8,2.78l-.43-.21a18.76,18.76,0,0,0,1.69-2.8Z"/>
      <path class="cls-1" d="M183.62,178a22.83,22.83,0,0,0-1.49-1.94v6.12h-.52v-6a12.6,12.6,0,0,1-2,3.87,3.83,3.83,0,0,0-.33-.46,12.09,12.09,0,0,0,2.24-4.44h-2v-.51h2.1v-2.42h.52v2.42h1.64v.51h-1.64v.26c.34.36,1.58,1.77,1.87,2.12Zm3.49-2.85a12,12,0,0,0,2.33,4.76,4.16,4.16,0,0,0-.42.42,13.11,13.11,0,0,1-2.09-4.21v6.06h-.53v-6a12.56,12.56,0,0,1-2.46,4.34,2.91,2.91,0,0,0-.36-.47,11.67,11.67,0,0,0,2.66-4.89h-1.91v-.51h2.07v-2.42h.53v2.42h2.18v.51Z"/>
      <path class="cls-1" d="M192,179l1.4-.59.1.47c-1.18.53-2.41,1.07-3.36,1.47l-.21-.52c.43-.16,1-.37,1.57-.63v-3.75H190v-.5h1.5v-2.59h.5v2.59h1.41v.5H192Zm6.64,2.47c.67,0,.78-.33.86-1.68a1.54,1.54,0,0,0,.49.22c-.1,1.48-.29,1.94-1.35,1.94h-2.94c-1.11,0-1.44-.24-1.44-1.24v-3.83l-1,.43-.22-.46,1.26-.54v-3.06h.5v2.86l1.82-.77v-3.09h.5v2.89l1.8-.76.16-.15.11-.1.37.16,0,.12a38,38,0,0,1-.13,4.29.63.63,0,0,1-.61.6,6.31,6.31,0,0,1-1,0,1.66,1.66,0,0,0-.16-.49c.31,0,.73,0,.87,0s.31,0,.38-.34a34.94,34.94,0,0,0,.11-3.66l-1.91.8v4.15h-.5v-3.94l-1.82.77v4.07c0,.57.17.74.92.74Z"/>
      <path class="cls-1" d="M205.56,181.05a.34.34,0,0,1-.34.34h-3.95a.42.42,0,0,1-.25-.1.33.33,0,0,1-.1-.24.35.35,0,0,1,.1-.26.42.42,0,0,1,.25-.1h2v-6.42l-2.14,1.48a.31.31,0,0,1-.26.06.36.36,0,0,1-.23-.15.4.4,0,0,1,0-.26.34.34,0,0,1,.15-.22l2.66-1.84a.36.36,0,0,1,.24-.07.35.35,0,0,1,.25.1.36.36,0,0,1,.11.26v7.06h1.22a.37.37,0,0,1,.24.1A.4.4,0,0,1,205.56,181.05Z"/>
      <path class="cls-1" d="M216.45,179.56h-4.12v2.64h-.53v-2.64h-5.19V179h1.85v-3h3.34v-1.9h-2.88a10.18,10.18,0,0,1-1.78,2.27,3,3,0,0,0-.47-.33,9.56,9.56,0,0,0,2.6-3.89l.54.13c-.18.45-.39.89-.6,1.31H216v.51h-3.66V176h3.43v.5h-3.43V179h4.12ZM211.8,179v-2.5H209V179Z"/>
      <path class="cls-1" d="M220.06,172.32c-.19.55-.41,1.19-.6,1.66h1.92v7h-3.14v.9h-.49V174H219a15.74,15.74,0,0,0,.53-1.79Zm.81,2.15h-2.63v2.62h2.63Zm0,6.06v-2.95h-2.63v2.95Zm5.91-6.24c-.19,5.1-.34,6.78-.78,7.29a1,1,0,0,1-.77.34,12.61,12.61,0,0,1-1.58,0,1.47,1.47,0,0,0-.18-.52c.72.06,1.37.07,1.62.07s.35,0,.46-.17c.36-.39.55-2.1.71-6.79h-3.08a10.77,10.77,0,0,1-1.07,2,3.71,3.71,0,0,0-.46-.28,10.74,10.74,0,0,0,1.69-4.1l.51.12a13.63,13.63,0,0,1-.49,1.72h3.42Zm-2.14,4.91a17.8,17.8,0,0,0-1.79-2.57l.43-.24a18.76,18.76,0,0,1,1.79,2.52Z"/>
      <path class="cls-1" d="M229.79,173.46a23,23,0,0,1-.55,2.75h1.95v4.48h-2v1h-.47v-4a8.41,8.41,0,0,1-.6,1.16,3.3,3.3,0,0,0-.36-.41,12.91,12.91,0,0,0,1.5-4.95H227.9V173h3.68v.48Zm.93,3.24h-1.5v3.51h1.5Zm2.6-.5c-.19,2.42-.59,4.29-1.63,5.65a2.8,2.8,0,0,0-.41-.35c1-1.22,1.38-3,1.55-5.3h-1.32v-.47h1.35c0-.25,0-.49,0-.75l.5,0c0,.25,0,.48,0,.72h4.5v.47Zm4.06-1.48h-5.29v-2.14h.48v1.67h1.92v-2h.5v2h1.9v-1.67h.49Zm-1.62,1.71c0,.76-.08,1.45-.17,2.06a4.1,4.1,0,0,0,2.41,3.24,1.48,1.48,0,0,0-.33.38,4.17,4.17,0,0,1-2.26-2.72,3.82,3.82,0,0,1-2.53,2.81,1.31,1.31,0,0,0-.3-.36c2.27-.86,2.59-2.54,2.69-5.41Zm-2.45,3a5.64,5.64,0,0,0,.63-2.09l.42.07a6.64,6.64,0,0,1-.65,2.24Zm2.92-.06a16,16,0,0,0,.81-2.06l.45.17c-.28.68-.6,1.49-.9,2.05Z"/>
      <path class="cls-1" d="M238.92,175.5a12.6,12.6,0,0,1,1.94,1.13l-.32.43a10.88,10.88,0,0,0-1.94-1.19Zm1.83,2.73.4.35c-.54,1.09-1.27,2.42-1.86,3.38l-.46-.37A30.87,30.87,0,0,0,240.75,178.23Zm-1.29-5.76a11.43,11.43,0,0,1,1.87,1.29l-.34.42a9.82,9.82,0,0,0-1.86-1.35Zm8.74.93h-5.79v7.67h6v.53h-6.55v-8.73h6.32Z"/>
      <path class="cls-1" d="M259.16,181.45v.45h-9.91v-.45h4.68v-.77h-3.8v-.43h3.8v-.74h-3.44V176.8h7.56v2.71h-3.61v.74h3.84v.43h-3.84v.77Zm-.11-5.24h-9.71v-.45h9.71Zm-1.35-1h-7v-2.66h7ZM251,178h2.93v-.76H251Zm2.93,1.16v-.78H251v.78Zm3.24-6.14h-6v.74h6Zm0,1.1h-6v.76h6Zm.37,3.12h-3.1V178h3.1Zm0,1.14h-3.1v.78h3.1Z"/>
      <path class="cls-1" d="M263.26,180.34a1.62,1.62,0,1,1-1.62-1.62A1.63,1.63,0,0,1,263.26,180.34Zm-.43,0a1.2,1.2,0,1,0-1.19,1.19A1.18,1.18,0,0,0,262.83,180.34Z"/>
      <polyline class="cls-2" points="270.32 126 0.32 126 0.32 0"/>
      <path class="cls-1" d="M237.76,68.41a2,2,0,0,1-.19.89A1.85,1.85,0,0,1,237,70a2.24,2.24,0,0,1-.81.43,3.53,3.53,0,0,1-1.06.15,3.4,3.4,0,0,1-1-.14,2.43,2.43,0,0,1-.82-.41,1.86,1.86,0,0,1-.54-.67,2,2,0,0,1-.2-.92,2,2,0,0,1,.14-.76,1.94,1.94,0,0,1,.4-.58,3,3,0,0,1,.57-.43,7.43,7.43,0,0,1,.69-.35,4.68,4.68,0,0,1-.54-.3,1.71,1.71,0,0,1-.45-.39,1.6,1.6,0,0,1-.31-.52,1.76,1.76,0,0,1-.11-.68,2.13,2.13,0,0,1,.17-.9,1.83,1.83,0,0,1,.48-.64,2,2,0,0,1,.71-.38,2.83,2.83,0,0,1,.83-.13,2.86,2.86,0,0,1,.85.13,1.94,1.94,0,0,1,.69.39,1.84,1.84,0,0,1,.46.64,2,2,0,0,1,.17.86,1.77,1.77,0,0,1-.1.63,1.63,1.63,0,0,1-.29.49,2.4,2.4,0,0,1-.43.41,4.34,4.34,0,0,1-.56.33,6,6,0,0,1,.68.32,3,3,0,0,1,.57.42,1.91,1.91,0,0,1,.4.6A2.09,2.09,0,0,1,237.76,68.41Zm-.72,0a1.42,1.42,0,0,0-.16-.68,1.71,1.71,0,0,0-.42-.47,2.47,2.47,0,0,0-.6-.34l-.71-.28c-.23.09-.46.19-.68.3a3.4,3.4,0,0,0-.59.35,1.65,1.65,0,0,0-.41.47,1.29,1.29,0,0,0-.16.64,1.47,1.47,0,0,0,.14.64,1.29,1.29,0,0,0,.39.48,1.52,1.52,0,0,0,.58.3,2.5,2.5,0,0,0,.74.11,2.79,2.79,0,0,0,.79-.11,1.74,1.74,0,0,0,.59-.31,1.55,1.55,0,0,0,.37-.48A1.6,1.6,0,0,0,237,68.39Zm-.4-4a1.71,1.71,0,0,0-.11-.62,1.17,1.17,0,0,0-.31-.44,1.27,1.27,0,0,0-.46-.28,1.87,1.87,0,0,0-.59-.09,1.79,1.79,0,0,0-.57.09,1.33,1.33,0,0,0-.48.27,1.21,1.21,0,0,0-.31.45,1.44,1.44,0,0,0-.12.61,1.22,1.22,0,0,0,.12.56,1.26,1.26,0,0,0,.33.4,2.33,2.33,0,0,0,.48.31c.18.09.38.17.58.25.19-.09.38-.17.55-.27a2.31,2.31,0,0,0,.46-.31,1.35,1.35,0,0,0,.31-.41A1.08,1.08,0,0,0,236.64,64.44Z"/>
      <path class="cls-1" d="M240.15,70a2.44,2.44,0,0,1-.11.76,2.27,2.27,0,0,1-.26.54,1.13,1.13,0,0,1-.31.31.56.56,0,0,1-.27.11.2.2,0,0,1-.14-.06.15.15,0,0,1-.07-.14.26.26,0,0,1,.08-.19l.16-.17a1.06,1.06,0,0,0,.17-.23,1,1,0,0,0,.11-.39.59.59,0,0,1-.23,0,.64.64,0,0,1-.19-.13.8.8,0,0,1-.13-.19.67.67,0,0,1,0-.24.52.52,0,0,1,.05-.24.63.63,0,0,1,.13-.2.91.91,0,0,1,.19-.13.67.67,0,0,1,.24,0,.53.53,0,0,1,.26,0,.4.4,0,0,1,.19.15.55.55,0,0,1,.12.21A.81.81,0,0,1,240.15,70Z"/>
      <path class="cls-1" d="M246.34,65.31a4.58,4.58,0,0,1-.11,1,5.36,5.36,0,0,1-.29.94,6.24,6.24,0,0,1-.44.9A9.48,9.48,0,0,1,245,69a8,8,0,0,1-.62.79c-.22.25-.44.48-.65.7a.37.37,0,0,1-.26.1.33.33,0,0,1-.26-.11.4.4,0,0,1-.1-.26.34.34,0,0,1,.11-.24,7.89,7.89,0,0,0,.62-.66,9.12,9.12,0,0,0,.6-.76c.18-.26.36-.54.52-.82a6.73,6.73,0,0,0,.4-.87,2.63,2.63,0,0,1-1.34.42,2.76,2.76,0,0,1-.91-.15,2.18,2.18,0,0,1-.75-.44,2.26,2.26,0,0,1-.51-.75,2.74,2.74,0,0,1-.19-1.08,3,3,0,0,1,.17-1,2.21,2.21,0,0,1,.49-.78,2.1,2.1,0,0,1,.76-.5,2.7,2.7,0,0,1,1-.17,2.32,2.32,0,0,1,1,.2,2.1,2.1,0,0,1,.74.58,2.91,2.91,0,0,1,.47.93A4.32,4.32,0,0,1,246.34,65.31Zm-.73,0a3.56,3.56,0,0,0-.13-1,1.92,1.92,0,0,0-.35-.7,1.35,1.35,0,0,0-.52-.41A1.64,1.64,0,0,0,244,63a1.67,1.67,0,0,0-.69.13,1.33,1.33,0,0,0-.52.35,1.63,1.63,0,0,0-.33.56,2.58,2.58,0,0,0-.11.76,2.28,2.28,0,0,0,.12.78,1.53,1.53,0,0,0,.35.55,1.39,1.39,0,0,0,.53.33,2,2,0,0,0,.66.1,1.94,1.94,0,0,0,.49,0,2.6,2.6,0,0,0,.42-.15,1.58,1.58,0,0,0,.36-.2,2.43,2.43,0,0,0,.29-.22c0-.11,0-.22,0-.33S245.61,65.42,245.61,65.31Z"/>
      <path class="cls-1" d="M252.25,68.29a2.48,2.48,0,0,1-.16.86,2.06,2.06,0,0,1-.46.73,2.23,2.23,0,0,1-.78.5,3,3,0,0,1-1.09.18q-.33,0-.63,0a3.16,3.16,0,0,1-.55-.13,3,3,0,0,1-.51-.25,2.86,2.86,0,0,1-.47-.4.31.31,0,0,1-.13-.25.37.37,0,0,1,.1-.24.33.33,0,0,1,.24-.1l.11,0,.13.1.16.14a1.91,1.91,0,0,0,.24.17,2,2,0,0,0,.6.26,2.87,2.87,0,0,0,.69.07,2.15,2.15,0,0,0,.79-.13,1.57,1.57,0,0,0,.56-.37,1.36,1.36,0,0,0,.33-.54,1.74,1.74,0,0,0,.11-.65,1.54,1.54,0,0,0-.16-.75A1.22,1.22,0,0,0,251,67a1.92,1.92,0,0,0-.62-.25,4.52,4.52,0,0,0-.75-.09h-.11a.22.22,0,0,1-.11,0,.2.2,0,0,1-.09-.09.39.39,0,0,1,0-.17.33.33,0,0,1,0-.15.3.3,0,0,1,.09-.1.16.16,0,0,1,.11,0l.11,0,.39,0a3,3,0,0,0,.4-.11,1.93,1.93,0,0,0,.38-.19,1,1,0,0,0,.32-.27,1.14,1.14,0,0,0,.22-.37,1.22,1.22,0,0,0,.09-.49,2.09,2.09,0,0,0-.08-.55,1.31,1.31,0,0,0-.74-.86,1.68,1.68,0,0,0-.75-.14,2.29,2.29,0,0,0-.66.09,2,2,0,0,0-.52.22l-.24.16-.16.14-.11.09a.2.2,0,0,1-.13,0,.31.31,0,0,1-.22-.09.28.28,0,0,1-.1-.23.4.4,0,0,1,.14-.28,1.66,1.66,0,0,1,.34-.3,2.25,2.25,0,0,1,.46-.25,3.06,3.06,0,0,1,.56-.18,3.34,3.34,0,0,1,.65-.06,2.59,2.59,0,0,1,1.07.2,2,2,0,0,1,.68.52,1.92,1.92,0,0,1,.37.69,2.76,2.76,0,0,1,.11.74,1.89,1.89,0,0,1-.1.65,1.56,1.56,0,0,1-.27.51,1.66,1.66,0,0,1-.41.38,2.9,2.9,0,0,1-.53.26,2.62,2.62,0,0,1,.62.26,1.81,1.81,0,0,1,.47.4,1.77,1.77,0,0,1,.31.56A2.55,2.55,0,0,1,252.25,68.29Z"/>
      <path class="cls-1" d="M258.82,68.41a2.11,2.11,0,0,1-.19.89,2,2,0,0,1-.53.68,2.37,2.37,0,0,1-.82.43,3.46,3.46,0,0,1-1,.15,3.31,3.31,0,0,1-1-.14,2.34,2.34,0,0,1-.82-.41,1.89,1.89,0,0,1-.55-.67,2,2,0,0,1-.2-.92,1.81,1.81,0,0,1,.15-.76,2.11,2.11,0,0,1,.39-.58,2.82,2.82,0,0,1,.58-.43,5.56,5.56,0,0,1,.69-.35,4.1,4.1,0,0,1-.55-.3,2.11,2.11,0,0,1-.45-.39,1.79,1.79,0,0,1-.31-.52,2,2,0,0,1-.11-.68,2.13,2.13,0,0,1,.18-.9,1.72,1.72,0,0,1,.48-.64,1.9,1.9,0,0,1,.7-.38,2.84,2.84,0,0,1,.84-.13,2.91,2.91,0,0,1,.85.13,1.92,1.92,0,0,1,1.32,1.89,1.77,1.77,0,0,1-.11.63,1.6,1.6,0,0,1-.28.49,2.46,2.46,0,0,1-.44.41,3.76,3.76,0,0,1-.56.33,5.29,5.29,0,0,1,.68.32,2.78,2.78,0,0,1,.58.42,1.88,1.88,0,0,1,.39.6A1.92,1.92,0,0,1,258.82,68.41Zm-.73,0a1.32,1.32,0,0,0-.16-.68,1.44,1.44,0,0,0-.42-.47,2.47,2.47,0,0,0-.6-.34l-.7-.28a7,7,0,0,0-.68.3,3.06,3.06,0,0,0-.59.35,1.87,1.87,0,0,0-.42.47,1.29,1.29,0,0,0-.15.64,1.34,1.34,0,0,0,.14.64,1.27,1.27,0,0,0,.38.48,1.57,1.57,0,0,0,.59.3,2.45,2.45,0,0,0,.74.11,2.67,2.67,0,0,0,.78-.11,1.74,1.74,0,0,0,.59-.31A1.41,1.41,0,0,0,258,69,1.44,1.44,0,0,0,258.09,68.39Zm-.4-4a1.52,1.52,0,0,0-.11-.62,1.15,1.15,0,0,0-.3-.44,1.31,1.31,0,0,0-.47-.28,1.91,1.91,0,0,0-1.16,0,1.29,1.29,0,0,0-.47.27,1.23,1.23,0,0,0-.32.45,1.44,1.44,0,0,0-.12.61,1.22,1.22,0,0,0,.12.56,1.6,1.6,0,0,0,.33.4,2.33,2.33,0,0,0,.48.31l.58.25c.2-.09.38-.17.56-.27a2.64,2.64,0,0,0,.46-.31,1.53,1.53,0,0,0,.31-.41A1.21,1.21,0,0,0,257.69,64.44Z"/>
      <path class="cls-1" d="M28.74,140.51H27.38v2c0,.41-.11.58-.41.68a8.67,8.67,0,0,1-1.85.1,2.6,2.6,0,0,0-.22-.53c.79,0,1.5,0,1.69,0s.27-.06.27-.25v-2H20.6v2.77h-.52v-2.77H18.75V140h1.33v-4.22h3.36V134.5H19.12V134h9.25v.5H24v1.29h3.43V140h1.36Zm-8.14-4.23v1.6h2.84v-1.6Zm0,3.73h2.84v-1.65H20.6ZM24,136.28v1.6h2.91v-1.6ZM26.86,140v-1.65H24V140Z"/>
      <path class="cls-1" d="M33.09,136.79h2.82v.49H33.09v1.3h2.36v3.14c0,.3-.06.45-.29.54a4.52,4.52,0,0,1-1.3.09,1.57,1.57,0,0,0-.18-.48h1.11c.13,0,.16,0,.16-.16v-2.63H33.09v4.17h-.5v-4.17H30.84v3.25h-.5v-3.75h2.25v-1.3h-2.8v-.49h2.8v-1.35H31a7.77,7.77,0,0,1-.64,1.26c-.1-.06-.34-.15-.48-.21A8.41,8.41,0,0,0,31,133.58l.52.1c-.11.43-.23.85-.37,1.25h1.45v-1.62h.5v1.62h2.39v.51H33.09Zm4.3,3.55h-.5v-6h.5Zm2-7v9c0,.46-.12.62-.41.73a6.68,6.68,0,0,1-1.67.11c0-.15-.12-.4-.19-.59.69,0,1.33,0,1.53,0s.23-.06.23-.24v-9Z"/>
      <path class="cls-1" d="M42.86,141.54a5.08,5.08,0,0,1,1,.54,5.74,5.74,0,0,0,2.77.44c1.35,0,3.1-.08,4.24-.19a2,2,0,0,0-.17.59c-.94.05-3,.11-4.08.11a5.86,5.86,0,0,1-2.89-.5c-.42-.24-.74-.53-1-.53-.39,0-.94.49-1.53,1.12l-.35-.47a4.56,4.56,0,0,1,1.53-1.06V138H40.81v-.51h2Zm0-5.73A12.56,12.56,0,0,0,41.17,134l.38-.26a11.39,11.39,0,0,1,1.7,1.72Zm7.78,1.6h-7v-.48h3.3v-1.69H45a7.28,7.28,0,0,1-.88,1.27,4.83,4.83,0,0,0-.45-.26,8.07,8.07,0,0,0,1.58-2.79l.49.12c-.14.39-.31.8-.48,1.17h1.65v-1.46h.53v1.46h2.71v.49H47.4v1.69h3.21Zm-6.11,4.06v-3h5.19v3ZM45,141h4.17v-2.08H45Z"/>
      <path class="cls-1" d="M4.53,153.61l-1.25.28v2.5h-.5V154l-2.22.47-.13-.53,2.35-.44v-1.77H1.62a1.28,1.28,0,0,0-.76.15,2.51,2.51,0,0,0-.18-.5c.17,0,.3-.42.49-.91a22.15,22.15,0,0,0,.65-2.13H.49v-.5H1.94c.09-.44.17-.89.24-1.34l.53.12c-.08.41-.17.82-.26,1.22h2v.5H2.32a23.39,23.39,0,0,1-.94,2.89h1.4v-1.77h.5v1.77H4.42v.5H3.28v1.66l1.23-.24ZM10,148.79v7.59H9.47v-.53h-4v.61H5v-7.67H7.24v-2.3h.54v2.3Zm-4.5.5V152H7.26v-2.68Zm0,6.08H7.26v-2.92H5.48Zm4-6.08H7.76V152H9.47Zm0,6.08v-2.92H7.76v2.92Z"/>
      <path class="cls-1" d="M14.59,149.54a9.88,9.88,0,0,1-2.8,5.92,1.59,1.59,0,0,0-.43-.38A8.69,8.69,0,0,0,14,149.92H11.68v-.49h2.48l.1,0Zm2.1,4.07h2.09v.48H16.69v1.43c0,.42-.11.59-.42.67a8.3,8.3,0,0,1-1.89.1,2.46,2.46,0,0,0-.21-.52c.84,0,1.53,0,1.73,0s.26-.08.26-.27v-1.43h-2.1v-.48h2.1v-1.25H14.57v-.49h1.59v-1.22H14.75v-.47h1.41v-1.11a10.85,10.85,0,0,0,2.58-1.51H13.12v-.51h6.15l.13,0,.37.28a10.75,10.75,0,0,1-3.08,2v.85H18.1v.47H16.69v1.22h1.59v.49H16.69Zm4.42-3.92a18.6,18.6,0,0,1-1.8,1.85,6.61,6.61,0,0,0,2.07,3.36,2.12,2.12,0,0,0-.4.44c-1.46-1.19-2.3-3.52-2.73-6.22l.49-.09c.11.71.25,1.38.41,2a14.85,14.85,0,0,0,1.54-1.71Z"/>
      <path class="cls-1" d="M24.83,149.58a6.62,6.62,0,0,1-2.12,1.88,1.87,1.87,0,0,0-.3-.42,5.93,5.93,0,0,0,2.27-2H22.45v-.46h2.38v-2.11h.5v2.11h2.35V149H25.33c.48.3,1.72,1.1,2,1.34l-.31.4c-.3-.26-1.14-.89-1.71-1.28v1.68h-.5Zm1.67,6a9.61,9.61,0,0,0-1-.65,7.26,7.26,0,0,1-2.79,1.39,1.25,1.25,0,0,0-.26-.41A6.91,6.91,0,0,0,25,154.7a16.53,16.53,0,0,0-1.76-.77c.23-.36.5-.82.75-1.29H22.68v-.46h1.57a5.68,5.68,0,0,0,.3-.76l.5.09c-.09.22-.19.44-.3.67h2l.1,0,.29.13a5.57,5.57,0,0,1-1.35,2.31c.4.22.77.44,1,.61Zm-2.81-7.14A6.18,6.18,0,0,0,23,147l.41-.15a5.19,5.19,0,0,1,.73,1.45Zm.84,4.2c-.2.39-.41.76-.59,1.07.48.2,1,.42,1.46.67a4.73,4.73,0,0,0,1.17-1.74ZM27.29,147a15.62,15.62,0,0,1-1,1.47l-.36-.18a10.52,10.52,0,0,0,.88-1.52Zm4.12,2.22a13.47,13.47,0,0,1-1.28,4.26,5.83,5.83,0,0,0,2.31,2.49,2.1,2.1,0,0,0-.37.42,6.12,6.12,0,0,1-2.21-2.42,7.19,7.19,0,0,1-2.71,2.53,5,5,0,0,0-.33-.43,6.4,6.4,0,0,0,2.77-2.6,15.68,15.68,0,0,1-1.08-3.37,8.54,8.54,0,0,1-.84,1.74,4.19,4.19,0,0,0-.44-.3,11.94,11.94,0,0,0,1.63-4.88l.5.08c-.11.67-.25,1.34-.42,2h3.24v.51Zm-1.53,3.71a13.64,13.64,0,0,0,1-3.71H28.81A14.22,14.22,0,0,0,29.88,152.89Z"/>
      <path class="cls-1" d="M43.3,155.71v.45H33.39v-.45h4.67v-.77H34.27v-.43h3.79v-.74H34.63v-2.71h7.56v2.71H38.58v.74h3.84v.43H38.58v.77Zm-.11-5.24H33.47V150h9.72Zm-1.35-1h-7v-2.66h7Zm-6.7,2.72h2.92v-.76H35.14Zm2.92,1.16v-.78H35.14v.78Zm3.25-6.14h-6V148h6Zm0,1.1h-6v.76h6Zm.36,3.12H38.58v.76h3.09Zm0,1.14H38.58v.78h3.09Z"/>
      <path class="cls-1" d="M46.59,151.46a7.28,7.28,0,0,1,2.2-5.2l.43.26a6.88,6.88,0,0,0,0,9.88l-.43.27A7.29,7.29,0,0,1,46.59,151.46Z"/>
      <path class="cls-1" d="M54.31,153.31a4.82,4.82,0,0,1-.1,1,2.29,2.29,0,0,1-.34.76,1.64,1.64,0,0,1-.61.49,2.08,2.08,0,0,1-.91.18,2.59,2.59,0,0,1-.68-.11,2.27,2.27,0,0,1-.71-.36v2.06a.35.35,0,0,1-.1.26.36.36,0,0,1-.5,0,.35.35,0,0,1-.1-.26v-5.89a2.36,2.36,0,0,0,0-.3.48.48,0,0,0-.05-.19.25.25,0,0,0-.09-.13.62.62,0,0,0-.16-.1.28.28,0,0,1-.13-.11.24.24,0,0,1,0-.15.3.3,0,0,1,.1-.25.41.41,0,0,1,.25-.08.69.69,0,0,1,.25.06,1,1,0,0,1,.27.17l.11.13a.86.86,0,0,1,.1.16,2.52,2.52,0,0,1,.72-.39,2.19,2.19,0,0,1,.75-.13,2.44,2.44,0,0,1,.91.15,1.37,1.37,0,0,1,.62.42,1.63,1.63,0,0,1,.35.68,3.63,3.63,0,0,1,.11.92Zm-.7-1.08a2.57,2.57,0,0,0-.08-.65,1,1,0,0,0-.23-.46.94.94,0,0,0-.42-.28,1.76,1.76,0,0,0-.64-.1,1.64,1.64,0,0,0-.62.13,2.12,2.12,0,0,0-.66.4v3.22a1.44,1.44,0,0,0,.33.28,1.66,1.66,0,0,0,.35.18,1.39,1.39,0,0,0,.33.1l.3,0a1.18,1.18,0,0,0,1-.44,2.12,2.12,0,0,0,.32-1.25Z"/>
      <path class="cls-1" d="M59.13,155a.34.34,0,0,1,0,.24.26.26,0,0,1-.16.18,2.3,2.3,0,0,1-.66.25,4.15,4.15,0,0,1-.7.07,2.3,2.3,0,0,1-1-.18A1.8,1.8,0,0,1,56,155a2.09,2.09,0,0,1-.38-.76,3.68,3.68,0,0,1-.12-1v-.77a3.12,3.12,0,0,1,.13-.93,2.43,2.43,0,0,1,.39-.77,1.89,1.89,0,0,1,.66-.53,2.12,2.12,0,0,1,.93-.2,4,4,0,0,1,.69.07,2,2,0,0,1,.65.25.29.29,0,0,1,.16.19.3.3,0,0,1,0,.24.31.31,0,0,1-.17.15.37.37,0,0,1-.25,0,2,2,0,0,0-.46-.17,2.32,2.32,0,0,0-.55-.06,1.38,1.38,0,0,0-.62.13,1.33,1.33,0,0,0-.45.36,1.43,1.43,0,0,0-.28.55,2.37,2.37,0,0,0-.1.72v.81a2.12,2.12,0,0,0,.36,1.31,1.28,1.28,0,0,0,1.08.47,2.39,2.39,0,0,0,1-.25.29.29,0,0,1,.25,0A.25.25,0,0,1,59.13,155Z"/>
      <path class="cls-1" d="M63.67,154.07a1.58,1.58,0,0,1-.15.71,1.25,1.25,0,0,1-.4.51,1.69,1.69,0,0,1-.63.31,3,3,0,0,1-.82.11H61.2l-.4,0-.35-.07-.32-.11a.27.27,0,0,1-.19-.18.39.39,0,0,1,0-.24.31.31,0,0,1,.16-.18.28.28,0,0,1,.25,0l.27.09.29.07.34,0,.42,0a2,2,0,0,0,.59-.08,1,1,0,0,0,.41-.2.87.87,0,0,0,.23-.31,1.1,1.1,0,0,0,.07-.41.69.69,0,0,0-.13-.45.92.92,0,0,0-.35-.26,2.44,2.44,0,0,0-.5-.16l-.58-.12a4.26,4.26,0,0,1-.54-.14,1.6,1.6,0,0,1-.47-.24,1.11,1.11,0,0,1-.33-.41,1.31,1.31,0,0,1-.13-.63,1.6,1.6,0,0,1,.14-.67,1.38,1.38,0,0,1,.37-.49,1.57,1.57,0,0,1,.57-.31,2.35,2.35,0,0,1,.71-.11,4,4,0,0,1,.74.06,2.38,2.38,0,0,1,.63.18.31.31,0,0,1,.19.18.33.33,0,0,1,0,.24.35.35,0,0,1-.17.17.25.25,0,0,1-.24,0l-.26-.09-.26-.06-.29,0h-.31a1.28,1.28,0,0,0-.86.26.85.85,0,0,0-.29.66.68.68,0,0,0,.12.42.89.89,0,0,0,.32.25,2.37,2.37,0,0,0,.45.15l.53.11c.2,0,.39.08.59.14a1.55,1.55,0,0,1,.52.24,1.11,1.11,0,0,1,.37.43A1.34,1.34,0,0,1,63.67,154.07Z"/>
      <path class="cls-1" d="M66.88,151.46a7.29,7.29,0,0,1-2.2,5.21l-.43-.27a6.88,6.88,0,0,0,0-9.88l.43-.26A7.28,7.28,0,0,1,66.88,151.46Z"/>
      <polygon class="cls-3" points="9.32 125.81 63.88 125.81 63.88 126 9.32 126 9.32 125.81 9.32 125.81"/>
      <polygon class="cls-4" points="78.22 107.79 132.78 107.79 132.78 126 78.22 126 78.22 107.79 78.22 107.79"/>
      <polygon class="cls-5" points="146.86 14.13 201.69 14.13 201.69 126 146.86 126 146.86 14.13 146.86 14.13"/>
      <polygon class="cls-6" points="215.76 75.27 270.32 75.27 270.32 126 215.76 126 215.76 75.27 215.76 75.27"/>
      <path class="cls-1" d="M231.7,141.07a7.56,7.56,0,0,1,1,.7,5.35,5.35,0,0,0,2.9.54c1.43,0,3-.09,4.07-.18a2.44,2.44,0,0,0-.17.56c-.77,0-2.9.11-3.9.11a5.43,5.43,0,0,1-3.09-.61c-.44-.28-.79-.68-1-.68s-.87.6-1.45,1.4l-.35-.44a4.56,4.56,0,0,1,1.51-1.37V138h-1.39v-.5h1.88Zm-.23-5.2A10.11,10.11,0,0,0,230,134l.4-.24a9.31,9.31,0,0,1,1.51,1.87Zm1.84.86a9.25,9.25,0,0,1-1.05,4.11,1.13,1.13,0,0,0-.36-.33,9.85,9.85,0,0,0,1-4.78v-1.89h2.5v2.89Zm-.08,1.29h2.3v3.14h-2.3Zm.1-3.72v1.43c0,.18,0,.36,0,.55h1.57v-2Zm.34,6.41h1.41v-2.25h-1.41Zm3.76-2.92h-1.71v-.47h2.13a14,14,0,0,0,.75-1.87l.47.12c-.24.57-.51,1.25-.77,1.75h1.33v.47h-1.71v1.44h1.57v.46h-1.57v2.19h-.49v-2.19h-1.55v-.46h1.55Zm2.13-2.53h-3.73v-.46h1.74a9.4,9.4,0,0,0-.59-1.34l.42-.14a6.75,6.75,0,0,1,.65,1.48h1.51Zm-2.75,1.89a8.11,8.11,0,0,0-.42-1.56l.39-.1a7.06,7.06,0,0,1,.45,1.54Z"/>
      <path class="cls-1" d="M249.49,142.52c.52,0,.59-.21.64-1.6a2.81,2.81,0,0,0,.5.22c-.08,1.51-.25,1.88-1.12,1.88h-2c-.92,0-1.17-.17-1.17-.86v-2.88h-.7c-.53,1.78-1.68,3.13-4.42,3.85a1.27,1.27,0,0,0-.3-.45c2.57-.63,3.66-1.83,4.17-3.4H242V136.5c-.27.23-.53.43-.82.64a1.49,1.49,0,0,0-.39-.36,10.25,10.25,0,0,0,3.24-3.5l.59.1c-.16.26-.32.54-.52.81h3l.09,0,.35.24a10.08,10.08,0,0,1-1.19,1.66h3.37v3.22h-2.93v2.88c0,.31.1.36.66.36Zm-5.72-7.85a13.54,13.54,0,0,1-1.27,1.39h3.29a8.1,8.1,0,0,0,1.06-1.39Zm1.43,4.11a17.79,17.79,0,0,0,.3-2.22h-3v2.22Zm.85-2.22a18,18,0,0,1-.31,2.22h3.5v-2.22Z"/>
      <path class="cls-1" d="M253.64,134.52a23,23,0,0,1-.56,2.75H255v4.48h-2v1h-.47v-4a8.39,8.39,0,0,1-.59,1.16,4.57,4.57,0,0,0-.37-.41,13,13,0,0,0,1.5-4.95h-1.39V134h3.68v.48Zm.92,3.24h-1.5v3.51h1.5Zm2.61-.5c-.2,2.42-.6,4.29-1.64,5.65a3.64,3.64,0,0,0-.41-.36c1-1.21,1.39-3,1.55-5.29h-1.32v-.47h1.35c0-.25,0-.49,0-.75l.5,0c0,.25,0,.48,0,.72h4.5v.47Zm4.06-1.48h-5.3v-2.14h.48v1.66h1.92v-2h.5v2h1.9v-1.66h.5Zm-1.63,1.71a19.94,19.94,0,0,1-.17,2.06,4.1,4.1,0,0,0,2.41,3.24,1.48,1.48,0,0,0-.33.38,4.15,4.15,0,0,1-2.25-2.72,3.86,3.86,0,0,1-2.53,2.81,1.55,1.55,0,0,0-.31-.36c2.28-.86,2.6-2.55,2.69-5.41Zm-2.44,3a5.89,5.89,0,0,0,.62-2.09l.42.07a6.64,6.64,0,0,1-.65,2.24Zm2.91-.07a15.93,15.93,0,0,0,.82-2.05l.45.17c-.29.67-.61,1.49-.91,2Z"/>
      <path class="cls-1" d="M228.2,151.87l-1.42.45v3.36c0,.35-.1.49-.31.58a4,4,0,0,1-1.25.1,2.64,2.64,0,0,0-.19-.5c.5,0,.94,0,1.05,0s.19-.06.19-.2v-3.19l-1.47.46-.15-.53,1.62-.46v-2.67h-1.49v-.51h1.49v-2.3h.51v2.3h1.3v.51h-1.3v2.5l1.35-.4Zm2.13-5.33h.51v9.91h-.51v-3h-2v-.49h2v-1.77H228.6v-.49h1.73v-1.74h-1.77v-.48h1.77Zm4.26,6.94h-2.07v3H232v-9.92h.5v1.92h1.95v.48h-1.95v1.74h1.87v.49h-1.87V153h2.07Z"/>
      <path class="cls-1" d="M239.93,150.52s0,.21,0,.28c-.09,3.68-.17,4.86-.44,5.23a.72.72,0,0,1-.61.27,8,8,0,0,1-1.19,0,1.31,1.31,0,0,0-.15-.5c.5,0,1,0,1.15,0s.26,0,.34-.13.3-1.4.38-4.69h-1.84v.2a7,7,0,0,1-1.72,5.26,1.93,1.93,0,0,0-.39-.35,6.56,6.56,0,0,0,1.61-4.92v-2.36h-1.44v-.51h4.88v.51h-2.94v1.68Zm-1.85-2.38a9.48,9.48,0,0,0-.62-1.49l.45-.17a10.34,10.34,0,0,1,.65,1.46Zm6.72.93a12.69,12.69,0,0,1-1.55,4.59,5.7,5.7,0,0,0,2.42,2.35,2.11,2.11,0,0,0-.39.44,6.06,6.06,0,0,1-2.35-2.31,7.78,7.78,0,0,1-2.77,2.34,2.48,2.48,0,0,0-.34-.46,6.86,6.86,0,0,0,2.83-2.38,14.57,14.57,0,0,1-1.21-3.61,8.85,8.85,0,0,1-.92,1.71,4.09,4.09,0,0,0-.44-.37,12.55,12.55,0,0,0,1.87-4.9l.54.1a18.74,18.74,0,0,1-.52,2h3.61v.51Zm-3,0a.38.38,0,0,1,0,.13,14.34,14.34,0,0,0,1.19,3.94,12.18,12.18,0,0,0,1.3-4.07Z"/>
      <path class="cls-1" d="M248.84,151.46a7.28,7.28,0,0,1,2.2-5.2l.43.26a6.88,6.88,0,0,0,0,9.88l-.43.27A7.29,7.29,0,0,1,248.84,151.46Z"/>
      <path class="cls-1" d="M256.3,155.23a.29.29,0,0,1,0,.18.33.33,0,0,1-.07.16.32.32,0,0,1-.13.1.33.33,0,0,1-.17,0,.37.37,0,0,1-.16-.05.39.39,0,0,1-.13-.15c-.25-.47-.52-.93-.81-1.39s-.61-.89-.92-1.31l-.84.86v1.69a.34.34,0,0,1-.11.25.35.35,0,0,1-.25.1.34.34,0,0,1-.35-.35V148a.34.34,0,0,1,.35-.35.35.35,0,0,1,.25.1.34.34,0,0,1,.11.25v4.77l2.54-2.6a.26.26,0,0,1,.22-.1.32.32,0,0,1,.23.1.29.29,0,0,1,.09.22.32.32,0,0,1-.09.23l-1.66,1.68c.34.44.67.91,1,1.4S256,154.72,256.3,155.23Z"/>
      <path class="cls-1" d="M261,155.28a3.87,3.87,0,0,1-.11.92,2,2,0,0,1-.35.76,1.67,1.67,0,0,1-.65.51,2.21,2.21,0,0,1-1,.19,4,4,0,0,1-.79-.07,2.92,2.92,0,0,1-.69-.2.32.32,0,0,1-.21-.3.31.31,0,0,1,0-.13.44.44,0,0,1,.08-.11.31.31,0,0,1,.13-.06.19.19,0,0,1,.15,0l.55.16a3,3,0,0,0,.72.08,1.67,1.67,0,0,0,.67-.12,1.18,1.18,0,0,0,.44-.35,1.48,1.48,0,0,0,.24-.54,3.15,3.15,0,0,0,.08-.71V155a2.62,2.62,0,0,1-.75.37l-.37.09-.34,0a2.32,2.32,0,0,1-.89-.16,1.46,1.46,0,0,1-.58-.45,1.83,1.83,0,0,1-.32-.69,4.3,4.3,0,0,1-.1-.91v-.88a3.8,3.8,0,0,1,.11-.92,1.7,1.7,0,0,1,.33-.72,1.52,1.52,0,0,1,.59-.47,2.22,2.22,0,0,1,.9-.17l.33,0,.35.09a1.76,1.76,0,0,1,.37.17,1.72,1.72,0,0,1,.37.25v-.19a.33.33,0,0,1,.1-.25.39.39,0,0,1,.25-.1.36.36,0,0,1,.25.1.33.33,0,0,1,.1.25Zm-.7-3.9a1.66,1.66,0,0,0-.35-.31,2.45,2.45,0,0,0-.35-.19,1.69,1.69,0,0,0-.35-.1l-.3,0a1.19,1.19,0,0,0-1,.41,1.94,1.94,0,0,0-.3,1.17v1a3.23,3.23,0,0,0,.06.66,1.36,1.36,0,0,0,.22.47,1,1,0,0,0,.4.29,1.51,1.51,0,0,0,.6.1l.31,0,.35-.09a2.43,2.43,0,0,0,.37-.16,2,2,0,0,0,.34-.25Z"/>
      <path class="cls-1" d="M264.57,151.46a7.29,7.29,0,0,1-2.2,5.21l-.43-.27a6.88,6.88,0,0,0,0-9.88l.43-.26A7.28,7.28,0,0,1,264.57,151.46Z"/>
      <path class="cls-1" d="M154.77,141.07a8.26,8.26,0,0,1,1,.7,5.35,5.35,0,0,0,2.9.54c1.42,0,3-.09,4.07-.18a2,2,0,0,0-.17.56c-.77,0-2.9.11-3.9.11a5.47,5.47,0,0,1-3.1-.61c-.44-.28-.78-.68-1-.68s-.87.6-1.45,1.4l-.35-.44a4.64,4.64,0,0,1,1.5-1.37V138h-1.38v-.5h1.88Zm-.23-5.2a10.2,10.2,0,0,0-1.48-1.91l.41-.24a9.68,9.68,0,0,1,1.51,1.87Zm1.83.86a9.11,9.11,0,0,1-1,4.11,1.24,1.24,0,0,0-.36-.33,10,10,0,0,0,.95-4.78v-1.89h2.51v2.89ZM156.3,138h2.3v3.14h-2.3Zm.1-3.72v1.43c0,.18,0,.36,0,.55H158v-2Zm.34,6.41h1.41v-2.25h-1.41Zm3.76-2.92h-1.72v-.47h2.14a15.52,15.52,0,0,0,.75-1.87l.47.12c-.24.57-.52,1.25-.77,1.75h1.33v.47H161v1.44h1.58v.46H161v2.19h-.48v-2.19H159v-.46h1.55Zm2.12-2.53h-3.73v-.46h1.74a8.34,8.34,0,0,0-.58-1.34l.42-.14a7.86,7.86,0,0,1,.65,1.48h1.5Zm-2.75,1.89a6.88,6.88,0,0,0-.42-1.56l.4-.1a7.06,7.06,0,0,1,.45,1.54Z"/>
      <path class="cls-1" d="M172.56,142.52c.51,0,.59-.21.63-1.6a3.27,3.27,0,0,0,.51.22c-.09,1.51-.25,1.88-1.12,1.88h-2c-.91,0-1.16-.17-1.16-.86v-2.88h-.71c-.52,1.78-1.67,3.13-4.41,3.85a1.29,1.29,0,0,0-.31-.45c2.58-.63,3.67-1.83,4.17-3.4h-3V136.5c-.27.23-.53.43-.82.64a1.54,1.54,0,0,0-.4-.36,10.29,10.29,0,0,0,3.25-3.5l.58.1c-.15.26-.32.54-.51.81h3l.1,0,.34.24a10,10,0,0,1-1.18,1.66h3.37v3.22H169.9v2.88c0,.31.1.36.67.36Zm-5.72-7.85a14.79,14.79,0,0,1-1.27,1.39h3.29a8.64,8.64,0,0,0,1.06-1.39Zm1.43,4.11a16.15,16.15,0,0,0,.29-2.22h-3v2.22Zm.84-2.22a16.31,16.31,0,0,1-.3,2.22h3.49v-2.22Z"/>
      <path class="cls-1" d="M178.18,133.93a10.21,10.21,0,0,1,1.49,2.38l-.43.2c-.07-.17-.17-.37-.28-.59a23.38,23.38,0,0,0-3.78.34,3.23,3.23,0,0,0-.17-.53c.15,0,.31-.18.48-.44a9.59,9.59,0,0,0,1.25-2l.52.2a14.35,14.35,0,0,1-1.46,2.21l2.92-.17a14,14,0,0,0-1-1.38Zm1,8.59c0,.35-.07.51-.32.61a5.46,5.46,0,0,1-1.44.1,1.72,1.72,0,0,0-.19-.52c.61,0,1.09,0,1.25,0s.18,0,.18-.18v-1.61H176v2.32h-.51v-6.09h3.76ZM176,137.63v1.16h2.73v-1.16Zm2.73,2.83v-1.22H176v1.22Zm2.82-2.44c-.9,0-1.16-.17-1.16-.89v-3.85h.51v2a22.34,22.34,0,0,0,2.9-1.1l.37.4a27.52,27.52,0,0,1-3.27,1.14v1.4c0,.33.11.41.66.41h2.06c.46,0,.55-.2.59-1.35a1.71,1.71,0,0,0,.5.21c-.08,1.29-.24,1.63-1.06,1.63Zm2.14,4.64c.49,0,.57-.23.62-1.52a1.22,1.22,0,0,0,.49.19c-.08,1.46-.25,1.81-1.09,1.81h-2.14c-.92,0-1.18-.18-1.18-.9v-3.85h.52v1.88a13.92,13.92,0,0,0,3.05-1.21l.35.4a14.81,14.81,0,0,1-3.4,1.26v1.53c0,.33.11.41.67.41Z"/>
      <path class="cls-1" d="M195.73,142.51V143h-9.91v-.45h4.68v-.77h-3.8v-.43h3.8v-.74h-3.44v-2.71h7.56v2.71H191v.74h3.84v.43H191v.77Zm-.11-5.24h-9.71v-.45h9.71Zm-1.35-1h-7v-2.66h7Zm-6.7,2.72h2.93v-.76h-2.93Zm2.93,1.16v-.78h-2.93v.78Zm3.24-6.14h-6v.74h6Zm0,1.1h-6v.76h6Zm.37,3.12H191V139h3.1Zm0,1.14H191v.78h3.1Z"/>
      <path class="cls-1" d="M156.35,146.61a15.5,15.5,0,0,1-1.18,2.38v7.51h-.5v-6.73a12.28,12.28,0,0,1-1.38,1.66A4.29,4.29,0,0,0,153,151a12.76,12.76,0,0,0,2.92-4.49Zm3.44,5.86a4.13,4.13,0,0,1-.79,2.23,11.25,11.25,0,0,0,4.24,1.3,2.11,2.11,0,0,0-.33.49,11.3,11.3,0,0,1-4.23-1.42,5.94,5.94,0,0,1-2.62,1.43,3,3,0,0,0-.3-.43,5.51,5.51,0,0,0,2.49-1.28,6,6,0,0,1-1.74-1.87l.46-.18a5.08,5.08,0,0,0,1.6,1.67,3.81,3.81,0,0,0,.72-1.94h-2.8v-2.93h2.84v-1.26h-3.21v-.49h3.21v-1.28h.52v1.28h3.31v.49h-3.31v1.26h2.91v2.93Zm-.47-.48c0-.24,0-.48,0-.72V150H157v2Zm.53-2v1.26c0,.24,0,.48,0,.72h2.42v-2Z"/>
      <path class="cls-1" d="M173.3,155.59c0,.44-.13.62-.45.71a8.76,8.76,0,0,1-2,.09,1.52,1.52,0,0,0-.19-.51c.86,0,1.62,0,1.84,0s.28-.07.28-.29V153h-3.33v3.37h-.53V153h-3a6.4,6.4,0,0,1-1.37,3.52,1.6,1.6,0,0,0-.41-.37c1.22-1.38,1.34-3.32,1.34-4.87v-4h7.88Zm-4.39-3.1v-2.13h-3v.91c0,.38,0,.8,0,1.22Zm-3-4.7v2.07h3v-2.07Zm6.82,0h-3.33v2.07h3.33Zm0,4.7v-2.13h-3.33v2.13Z"/>
      <path class="cls-1" d="M177.4,151.46a7.29,7.29,0,0,1,2.21-5.2l.42.26a6.88,6.88,0,0,0,0,9.88l-.42.27A7.29,7.29,0,0,1,177.4,151.46Z"/>
      <path class="cls-1" d="M184.86,155.23a.24.24,0,0,1,0,.18.33.33,0,0,1-.07.16.32.32,0,0,1-.13.1.35.35,0,0,1-.17,0,.33.33,0,0,1-.16-.05.41.41,0,0,1-.14-.15,15.18,15.18,0,0,0-.81-1.39c-.29-.45-.6-.89-.91-1.31l-.85.86v1.69a.33.33,0,0,1-.1.25.36.36,0,0,1-.25.1.32.32,0,0,1-.25-.1.33.33,0,0,1-.1-.25V148a.33.33,0,0,1,.1-.25.32.32,0,0,1,.25-.1.36.36,0,0,1,.25.1.33.33,0,0,1,.1.25v4.77l2.54-2.6a.27.27,0,0,1,.22-.1.3.3,0,0,1,.23.1.29.29,0,0,1,.09.22.32.32,0,0,1-.09.23L183,152.33c.34.44.67.91,1,1.4A16.19,16.19,0,0,1,184.86,155.23Z"/>
      <path class="cls-1" d="M189.59,155.28a3.87,3.87,0,0,1-.11.92,2.12,2.12,0,0,1-.35.76,1.74,1.74,0,0,1-.65.51,2.24,2.24,0,0,1-1,.19,4,4,0,0,1-.79-.07,2.87,2.87,0,0,1-.7-.2.32.32,0,0,1-.21-.3.22.22,0,0,1,0-.13.44.44,0,0,1,.08-.11.31.31,0,0,1,.13-.06.19.19,0,0,1,.15,0l.55.16a2.9,2.9,0,0,0,.71.08,1.69,1.69,0,0,0,.68-.12,1.18,1.18,0,0,0,.44-.35,1.48,1.48,0,0,0,.24-.54,3.17,3.17,0,0,0,.07-.71V155a1.65,1.65,0,0,1-.36.22,2,2,0,0,1-.38.15l-.37.09-.34,0a2.32,2.32,0,0,1-.89-.16,1.57,1.57,0,0,1-.59-.45,1.82,1.82,0,0,1-.31-.69,3.73,3.73,0,0,1-.1-.91v-.88a3.82,3.82,0,0,1,.1-.92,2,2,0,0,1,.33-.72,1.56,1.56,0,0,1,.6-.47,2.17,2.17,0,0,1,.89-.17l.33,0,.36.09a2,2,0,0,1,.37.17,2,2,0,0,1,.36.25v-.19a.34.34,0,0,1,.11-.25.35.35,0,0,1,.6.25Zm-.71-3.9a1.62,1.62,0,0,0-.34-.31,2.09,2.09,0,0,0-.36-.19,1.46,1.46,0,0,0-.34-.1l-.3,0a1.17,1.17,0,0,0-1,.41,1.94,1.94,0,0,0-.31,1.17v1a3.18,3.18,0,0,0,.07.66,1.36,1.36,0,0,0,.22.47.9.9,0,0,0,.4.29,1.51,1.51,0,0,0,.6.1l.3,0a2.37,2.37,0,0,0,.36-.09,3,3,0,0,0,.37-.16,1.59,1.59,0,0,0,.33-.25Z"/>
      <path class="cls-1" d="M193.14,151.46a7.29,7.29,0,0,1-2.2,5.21l-.43-.27a6.88,6.88,0,0,0,0-9.88l.43-.26A7.28,7.28,0,0,1,193.14,151.46Z"/>
      <path class="cls-1" d="M99.51,140.51H98.15v2c0,.41-.11.58-.41.68a8.67,8.67,0,0,1-1.85.1,2.6,2.6,0,0,0-.22-.53c.79,0,1.5,0,1.69,0s.27-.06.27-.25v-2H91.37v2.77h-.52v-2.77H89.52V140h1.33v-4.22h3.36V134.5H89.9V134h9.24v.5H94.72v1.29h3.43V140h1.36Zm-8.14-4.23v1.6h2.84v-1.6Zm0,3.73h2.84v-1.65H91.37Zm3.35-3.73v1.6h2.91v-1.6ZM97.63,140v-1.65H94.72V140Z"/>
      <path class="cls-1" d="M103.63,136.61h2.46v.51h-2.46v.24c.51.49,1.91,2,2.26,2.35l-.32.41c-.37-.45-1.32-1.49-1.94-2.14v5.26h-.52V138a12.22,12.22,0,0,1-2.35,3.67,2.44,2.44,0,0,0-.32-.47,11.9,11.9,0,0,0,2.54-4h-2.32v-.51h2.45v-2.15c-.77.14-1.57.26-2.3.35a2.5,2.5,0,0,0-.16-.43,20.83,20.83,0,0,0,4.63-1l.41.4a13,13,0,0,1-2.06.59Zm4,3.95h-.51v-6h.51Zm2.36-7.18v9c0,.44-.16.6-.43.7a8.39,8.39,0,0,1-1.86.1,2.24,2.24,0,0,0-.21-.53c.8,0,1.5,0,1.68,0s.3-.08.3-.29v-9Z"/>
      <path class="cls-1" d="M120.65,142.39c0,.44-.13.62-.45.71a8.71,8.71,0,0,1-2,.09,1.52,1.52,0,0,0-.19-.51c.86,0,1.62,0,1.84,0s.28-.07.28-.29v-2.6h-3.33v3.37h-.53v-3.37h-3.05a6.4,6.4,0,0,1-1.37,3.52,1.6,1.6,0,0,0-.41-.37c1.22-1.38,1.34-3.32,1.34-4.87v-4h7.88Zm-4.39-3.1v-2.13h-3v.91c0,.38,0,.8,0,1.22Zm-3-4.7v2.07h3v-2.07Zm6.82,0h-3.33v2.07h3.33Zm0,4.7v-2.13h-3.33v2.13Z"/>
      <path class="cls-1" d="M74.62,148.36a6.88,6.88,0,0,1-1,1.37,3.08,3.08,0,0,0-.32-.48,7.08,7.08,0,0,0,1.59-2.74l.49.14a12.26,12.26,0,0,1-.49,1.21h2.4v.5ZM75.71,152h1.65v.5H75.71v2.87l1.48-.75a1.76,1.76,0,0,0,.12.44,13.41,13.41,0,0,0-2.22,1.28,2.65,2.65,0,0,0-.23-.48.63.63,0,0,0,.34-.62v-2.74H73.55V152H75.2v-1.74H74.06v-.49h3.06v.49H75.71Zm7.26,3.6c0,.36-.1.52-.34.61a5.6,5.6,0,0,1-1.5.1,2.86,2.86,0,0,0-.2-.48c.64,0,1.18,0,1.32,0s.23-.06.23-.24v-8H78.19v8.87h-.5v-9.36H83Zm-1.43-1.08c-.25-.65-.65-1.47-1.09-2.33a16.58,16.58,0,0,1-1.59,3,3.4,3.4,0,0,0-.42-.28,16.61,16.61,0,0,0,1.72-3.24c-.49-.89-1-1.79-1.5-2.58l.4-.18c.44.67.9,1.43,1.33,2.2.36-1,.69-2,1-3l.47.09a30.18,30.18,0,0,1-1.15,3.48A23.29,23.29,0,0,1,82,154.28Z"/>
      <path class="cls-1" d="M88.56,152.42c-.25-.42-1-1.4-1.46-2v6.05h-.53v-5.9a13.2,13.2,0,0,1-2,3.78,2.71,2.71,0,0,0-.33-.46,12.05,12.05,0,0,0,2.22-4.45H84.66v-.52h1.91v-2.41h.53v2.41h1.57v.52H87.1v.29L88.94,152Zm5.81-3h-1.2v6.19c0,.49-.13.65-.45.75a9,9,0,0,1-1.87.1,3.14,3.14,0,0,0-.2-.56c.77,0,1.51,0,1.71,0s.27-.07.27-.28v-5.51a14.38,14.38,0,0,1-3.58,4.51,1.88,1.88,0,0,0-.37-.44,12.85,12.85,0,0,0,3.75-4.77H89.14v-.52h3.49v-2.41h.54v2.41h1.2Z"/>
      <path class="cls-1" d="M97.88,149.58a6.65,6.65,0,0,1-2.13,1.88,1.57,1.57,0,0,0-.29-.42,5.83,5.83,0,0,0,2.26-2H95.5v-.46h2.38v-2.11h.5v2.11h2.35V149H98.38c.48.3,1.72,1.1,2,1.34l-.31.4c-.3-.26-1.15-.89-1.71-1.28v1.68h-.5Zm1.67,6a9.84,9.84,0,0,0-1-.65,7.21,7.21,0,0,1-2.78,1.39,1.25,1.25,0,0,0-.26-.41,7,7,0,0,0,2.62-1.21,16.53,16.53,0,0,0-1.76-.77c.23-.36.5-.82.74-1.29H95.73v-.46h1.56a4.68,4.68,0,0,0,.31-.76l.5.09c-.09.22-.19.44-.3.67h2l.1,0,.29.13a5.57,5.57,0,0,1-1.35,2.31c.39.22.77.44,1,.61Zm-2.82-7.14A5.77,5.77,0,0,0,96,147l.4-.15a5,5,0,0,1,.74,1.45Zm.85,4.2c-.2.39-.41.76-.59,1.07.48.2,1,.42,1.46.67a4.85,4.85,0,0,0,1.17-1.74Zm2.76-5.68a15.62,15.62,0,0,1-1,1.47l-.36-.18a10.52,10.52,0,0,0,.88-1.52Zm4.12,2.22a13.47,13.47,0,0,1-1.28,4.26,5.83,5.83,0,0,0,2.31,2.49,1.83,1.83,0,0,0-.37.42,6.12,6.12,0,0,1-2.21-2.42,7.27,7.27,0,0,1-2.71,2.53,5,5,0,0,0-.33-.43,6.4,6.4,0,0,0,2.77-2.6,15.68,15.68,0,0,1-1.08-3.37,9.09,9.09,0,0,1-.84,1.74,4.19,4.19,0,0,0-.44-.3,11.79,11.79,0,0,0,1.62-4.88l.51.08c-.11.67-.25,1.34-.42,2h3.24v.51Zm-1.53,3.71a13.64,13.64,0,0,0,1-3.71h-2.09A14.22,14.22,0,0,0,102.93,152.89Z"/>
      <path class="cls-1" d="M116.35,155.71v.45h-9.91v-.45h4.67v-.77h-3.79v-.43h3.79v-.74h-3.43v-2.71h7.56v2.71h-3.61v.74h3.84v.43h-3.84v.77Zm-.11-5.24h-9.72V150h9.72Zm-1.36-1h-7v-2.66h7Zm-6.69,2.72h2.92v-.76h-2.92Zm2.92,1.16v-.78h-2.92v.78Zm3.25-6.14h-6V148h6Zm0,1.1h-6v.76h6Zm.36,3.12h-3.09v.76h3.09Zm0,1.14h-3.09v.78h3.09Z"/>
      <path class="cls-1" d="M119.64,151.46a7.28,7.28,0,0,1,2.2-5.2l.43.26a6.88,6.88,0,0,0,0,9.88l-.43.27A7.29,7.29,0,0,1,119.64,151.46Z"/>
      <path class="cls-1" d="M127.1,155.23a.29.29,0,0,1,0,.18.33.33,0,0,1-.07.16.32.32,0,0,1-.13.1.33.33,0,0,1-.17,0,.37.37,0,0,1-.16-.05.39.39,0,0,1-.13-.15c-.25-.47-.52-.93-.81-1.39s-.61-.89-.92-1.31l-.84.86v1.69a.34.34,0,0,1-.11.25.35.35,0,0,1-.25.1.34.34,0,0,1-.35-.35V148a.34.34,0,0,1,.35-.35.35.35,0,0,1,.25.1.34.34,0,0,1,.11.25v4.77l2.54-2.6a.25.25,0,0,1,.21-.1.33.33,0,0,1,.24.1.29.29,0,0,1,.09.22.32.32,0,0,1-.09.23l-1.66,1.68c.34.44.67.91,1,1.4S126.83,154.72,127.1,155.23Z"/>
      <path class="cls-1" d="M131.82,155.28a3.87,3.87,0,0,1-.11.92,2,2,0,0,1-.35.76,1.67,1.67,0,0,1-.65.51,2.24,2.24,0,0,1-1,.19,4,4,0,0,1-.79-.07,2.92,2.92,0,0,1-.69-.2.32.32,0,0,1-.21-.3.31.31,0,0,1,0-.13.44.44,0,0,1,.08-.11.31.31,0,0,1,.13-.06.2.2,0,0,1,.15,0l.55.16a3,3,0,0,0,.72.08,1.67,1.67,0,0,0,.67-.12,1.18,1.18,0,0,0,.44-.35A1.48,1.48,0,0,0,131,156a3.17,3.17,0,0,0,.07-.71V155a1.65,1.65,0,0,1-.36.22,2,2,0,0,1-.38.15l-.37.09-.34,0a2.32,2.32,0,0,1-.89-.16,1.46,1.46,0,0,1-.58-.45,1.83,1.83,0,0,1-.32-.69,4.3,4.3,0,0,1-.1-.91v-.88a3.8,3.8,0,0,1,.11-.92,1.7,1.7,0,0,1,.33-.72,1.52,1.52,0,0,1,.59-.47,2.22,2.22,0,0,1,.9-.17l.33,0,.35.09a1.76,1.76,0,0,1,.37.17,1.45,1.45,0,0,1,.36.25v-.19a.34.34,0,0,1,.11-.25.39.39,0,0,1,.25-.1.36.36,0,0,1,.25.1.33.33,0,0,1,.1.25Zm-.71-3.9a1.41,1.41,0,0,0-.34-.31,2.45,2.45,0,0,0-.35-.19,1.69,1.69,0,0,0-.35-.1l-.3,0a1.19,1.19,0,0,0-1,.41,1.94,1.94,0,0,0-.3,1.17v1a3.23,3.23,0,0,0,.06.66,1.36,1.36,0,0,0,.22.47,1,1,0,0,0,.4.29,1.51,1.51,0,0,0,.6.1l.31,0,.35-.09a2.43,2.43,0,0,0,.37-.16,1.59,1.59,0,0,0,.33-.25Z"/>
      <path class="cls-1" d="M135.37,151.46a7.29,7.29,0,0,1-2.2,5.21l-.43-.27a6.88,6.88,0,0,0,0-9.88l.43-.26A7.28,7.28,0,0,1,135.37,151.46Z"/>
      <path class="cls-1" d="M8.8,10.74a10.12,10.12,0,0,1,1.61-5.52l.4.2a10.18,10.18,0,0,0-1.46,5.32,10.09,10.09,0,0,0,1.46,5.31l-.4.2A10.13,10.13,0,0,1,8.8,10.74Z"/>
      <path class="cls-1" d="M21.72,12.19H20.36v2c0,.41-.12.58-.41.68a8.67,8.67,0,0,1-1.85.1,2.6,2.6,0,0,0-.22-.53c.79,0,1.5,0,1.69,0s.27-.06.27-.25v-2H13.58V15h-.52V12.19H11.73V11.7h1.33V7.47h3.36V6.18H12.1v-.5h9.25v.5H16.93V7.47h3.43V11.7h1.36ZM13.58,8V9.56h2.84V8Zm0,3.73h2.84V10.05H13.58ZM16.93,8V9.56h2.91V8Zm2.91,3.73V10.05H16.93V11.7Z"/>
      <path class="cls-1" d="M26.07,8.47h2.82V9H26.07v1.3h2.36V13.4c0,.3-.06.45-.29.54a4.52,4.52,0,0,1-1.3.09,2,2,0,0,0-.18-.48,9.41,9.41,0,0,0,1.11,0c.13,0,.16,0,.16-.16V10.76H26.07v4.17h-.5V10.76H23.82V14h-.5V10.27h2.25V9h-2.8v-.5h2.8V7.12H23.93a7.77,7.77,0,0,1-.64,1.26c-.1-.06-.34-.15-.48-.21A8.53,8.53,0,0,0,24,5.26l.52.1c-.11.43-.23.86-.37,1.25h1.45V5h.5V6.61h2.39v.51H26.07ZM30.36,12h-.49V6h.49Zm2-7v9c0,.46-.12.63-.42.73a6.4,6.4,0,0,1-1.66.12c0-.16-.12-.41-.19-.6.69,0,1.33,0,1.52,0s.24,0,.24-.24V5Z"/>
      <path class="cls-1" d="M35.84,13.22a5.08,5.08,0,0,1,.95.54,5.74,5.74,0,0,0,2.77.44c1.35,0,3.1-.07,4.24-.18a1.86,1.86,0,0,0-.17.58c-.94.06-3,.11-4.08.11a6,6,0,0,1-2.89-.49c-.42-.25-.74-.53-1-.53-.39,0-.94.48-1.53,1.11l-.35-.46a4.37,4.37,0,0,1,1.53-1.07V9.66H33.78V9.15h2.06Zm0-5.73a12.56,12.56,0,0,0-1.66-1.77l.38-.26a11.88,11.88,0,0,1,1.7,1.72Zm7.78,1.6h-7V8.62h3.3V6.92H37.94a7.38,7.38,0,0,1-.88,1.28,3.35,3.35,0,0,0-.45-.27,8.07,8.07,0,0,0,1.58-2.79l.49.12c-.14.4-.31.8-.48,1.18h1.65V5h.52V6.44h2.72v.48H40.37v1.7h3.22Zm-6.11,4.06v-3h5.19v3Zm.51-.48h4.17V10.6H38Z"/>
      <path class="cls-1" d="M44.62,16.05a10.08,10.08,0,0,0,1.45-5.31,10.17,10.17,0,0,0-1.45-5.32l.4-.2a10.11,10.11,0,0,1,1.6,5.52A10.13,10.13,0,0,1,45,16.25Z"/>
      <path class="cls-1" d="M33.94,122.91a.33.33,0,0,1-.1.24.37.37,0,0,1-.24.1h-4a.42.42,0,0,1-.25-.1.33.33,0,0,1-.1-.24.32.32,0,0,1,.1-.25.38.38,0,0,1,.25-.11h2v-6.42l-2.14,1.48a.31.31,0,0,1-.26.06.35.35,0,0,1-.23-.14.42.42,0,0,1-.05-.27.37.37,0,0,1,.15-.22l2.66-1.83a.38.38,0,0,1,.24-.08.37.37,0,0,1,.25.1.33.33,0,0,1,.11.26v7.06H33.6a.34.34,0,0,1,.24.11A.32.32,0,0,1,33.94,122.91Z"/>
      <path class="cls-1" d="M40.14,122.89a.36.36,0,0,1-.11.26.33.33,0,0,1-.24.1h-4a.38.38,0,0,1-.26-.1.37.37,0,0,1-.09-.26,2.61,2.61,0,0,1,.09-.69,3.13,3.13,0,0,1,.24-.6,3.87,3.87,0,0,1,.36-.51,6.14,6.14,0,0,1,.43-.45,5,5,0,0,1,.62-.5l.63-.48.61-.48a3.37,3.37,0,0,0,.5-.5,2.3,2.3,0,0,0,.35-.58,1.82,1.82,0,0,0,.13-.67,1.89,1.89,0,0,0-.1-.63,1.37,1.37,0,0,0-.78-.87,1.84,1.84,0,0,0-.71-.13,3,3,0,0,0-.64.07,2.35,2.35,0,0,0-.51.19,1.63,1.63,0,0,0-.27.15,1.77,1.77,0,0,1-.17.14l-.13.09a.23.23,0,0,1-.14,0,.37.37,0,0,1-.24-.1.38.38,0,0,1-.11-.26.31.31,0,0,1,0-.13.38.38,0,0,1,.09-.13,2.62,2.62,0,0,1,.91-.54,3.36,3.36,0,0,1,1.2-.19,2.67,2.67,0,0,1,1,.19,2.19,2.19,0,0,1,.71.51,2.09,2.09,0,0,1,.42.74,2.77,2.77,0,0,1,.14.86,2.21,2.21,0,0,1-.16.87,2.7,2.7,0,0,1-.4.7,3.65,3.65,0,0,1-.58.6c-.22.19-.45.37-.68.54l-.69.51a7.06,7.06,0,0,0-.64.55,3.61,3.61,0,0,0-.49.62,1.85,1.85,0,0,0-.28.73h3.57a.33.33,0,0,1,.24.1A.34.34,0,0,1,40.14,122.89Z"/>
      <path class="cls-1" d="M99.13,102.52a2.27,2.27,0,0,1-.16.86,1.93,1.93,0,0,1-.46.73,2.14,2.14,0,0,1-.78.5,3,3,0,0,1-1.09.19,5.87,5.87,0,0,1-.62,0,3.27,3.27,0,0,1-.56-.13,4,4,0,0,1-.51-.25,2.86,2.86,0,0,1-.47-.4.32.32,0,0,1-.12-.25.36.36,0,0,1,.09-.24.33.33,0,0,1,.24-.1.2.2,0,0,1,.11,0l.13.1.16.14.24.17a2.23,2.23,0,0,0,.6.26,3,3,0,0,0,.69.07,2.11,2.11,0,0,0,.79-.13,1.48,1.48,0,0,0,.56-.37,1.55,1.55,0,0,0,.34-.53,2,2,0,0,0,.11-.65,1.68,1.68,0,0,0-.16-.76,1.22,1.22,0,0,0-.43-.47,1.66,1.66,0,0,0-.62-.26,4.28,4.28,0,0,0-.74-.09h-.12l-.11,0a.43.43,0,0,1-.09-.1.38.38,0,0,1,0-.16.35.35,0,0,1,0-.16.45.45,0,0,1,.09-.1.31.31,0,0,1,.12,0l.11,0,.38-.05a3,3,0,0,0,.4-.11,2.32,2.32,0,0,0,.39-.18,1.69,1.69,0,0,0,.32-.28,1.34,1.34,0,0,0,.22-.37,1.44,1.44,0,0,0,.08-.49,2.09,2.09,0,0,0-.08-.55,1.31,1.31,0,0,0-.74-.86,1.66,1.66,0,0,0-.74-.14,2.19,2.19,0,0,0-.66.09,2.35,2.35,0,0,0-.53.22l-.24.16-.15.14-.12.09a.2.2,0,0,1-.13,0,.33.33,0,0,1-.22-.09.29.29,0,0,1-.1-.23.4.4,0,0,1,.14-.28,1.77,1.77,0,0,1,.35-.3,2.17,2.17,0,0,1,.45-.25,2.44,2.44,0,0,1,.56-.17,2.84,2.84,0,0,1,.66-.07,2.41,2.41,0,0,1,1.06.21,1.87,1.87,0,0,1,.68.51,1.79,1.79,0,0,1,.37.69,2.76,2.76,0,0,1,.11.74,1.89,1.89,0,0,1-.1.65,1.53,1.53,0,0,1-.26.51,1.69,1.69,0,0,1-.42.38,2.37,2.37,0,0,1-.53.26,2.89,2.89,0,0,1,.62.26,1.81,1.81,0,0,1,.47.4,1.59,1.59,0,0,1,.31.56A2.55,2.55,0,0,1,99.13,102.52Z"/>
      <path class="cls-1" d="M101.92,104.25a2.18,2.18,0,0,1-.11.76,1.94,1.94,0,0,1-.26.54,1.19,1.19,0,0,1-.31.32.61.61,0,0,1-.26.1.27.27,0,0,1-.15,0,.2.2,0,0,1-.06-.15.25.25,0,0,1,.07-.19s.1-.11.17-.17a1.53,1.53,0,0,0,.17-.23,1,1,0,0,0,.1-.38.86.86,0,0,1-.23-.06.59.59,0,0,1-.19-.13.76.76,0,0,1-.12-.19.64.64,0,0,1,0-.24.69.69,0,0,1,0-.24.64.64,0,0,1,.13-.19.72.72,0,0,1,.2-.14.64.64,0,0,1,.24,0,.55.55,0,0,1,.26.05.7.7,0,0,1,.19.15.72.72,0,0,1,.12.21A.84.84,0,0,1,101.92,104.25Z"/>
      <path class="cls-1" d="M108,104.36a.33.33,0,0,1-.1.24.3.3,0,0,1-.24.1h-3.94a.33.33,0,0,1-.25-.1.34.34,0,0,1-.11-.24.34.34,0,0,1,.11-.25.33.33,0,0,1,.25-.1h2V97.58l-2.14,1.48a.31.31,0,0,1-.26.06.28.28,0,0,1-.22-.14.34.34,0,0,1,0-.26.28.28,0,0,1,.14-.22l2.67-1.84a.34.34,0,0,1,.23-.08.38.38,0,0,1,.26.11.32.32,0,0,1,.1.25V104h1.22a.3.3,0,0,1,.24.1A.33.33,0,0,1,108,104.36Z"/>
      <path class="cls-1" d="M114.28,99.54a4.58,4.58,0,0,1-.11,1,6.37,6.37,0,0,1-.29.94,7.49,7.49,0,0,1-.44.9,8.24,8.24,0,0,1-.55.85,9.82,9.82,0,0,1-.62.79c-.22.25-.44.48-.66.7a.34.34,0,0,1-.25.11.36.36,0,0,1-.26-.11.37.37,0,0,1-.1-.26.38.38,0,0,1,.11-.25c.21-.2.41-.42.62-.66a8.45,8.45,0,0,0,.59-.75,7.19,7.19,0,0,0,.52-.83,4.87,4.87,0,0,0,.4-.87,2.43,2.43,0,0,1-.67.32,2.55,2.55,0,0,1-1.57,0,1.89,1.89,0,0,1-.75-.44,2.14,2.14,0,0,1-.52-.75,2.92,2.92,0,0,1-.19-1.07,2.84,2.84,0,0,1,.18-1,2.16,2.16,0,0,1,.49-.78,2.12,2.12,0,0,1,.75-.49,2.58,2.58,0,0,1,1-.18,2.19,2.19,0,0,1,1,.21,2,2,0,0,1,.74.58,2.75,2.75,0,0,1,.47.92A4.32,4.32,0,0,1,114.28,99.54Zm-.73,0a3.44,3.44,0,0,0-.13-1,2.24,2.24,0,0,0-.35-.71,1.46,1.46,0,0,0-.52-.41,1.68,1.68,0,0,0-.63-.12,1.83,1.83,0,0,0-.68.12,1.26,1.26,0,0,0-.52.35,1.63,1.63,0,0,0-.33.56,2.44,2.44,0,0,0,0,1.54,1.34,1.34,0,0,0,.35.55,1.32,1.32,0,0,0,.53.33,2,2,0,0,0,.65.11,2,2,0,0,0,.5-.06,4.13,4.13,0,0,0,.42-.14,2.12,2.12,0,0,0,.36-.21l.29-.22c0-.11,0-.22,0-.33S113.55,99.65,113.55,99.54Z"/>
      <path class="cls-1" d="M120.33,104.34a.38.38,0,0,1-.1.26.33.33,0,0,1-.25.1h-4a.34.34,0,0,1-.26-.1.37.37,0,0,1-.09-.26,2.61,2.61,0,0,1,.09-.69,2.38,2.38,0,0,1,.25-.59,3.15,3.15,0,0,1,.35-.52,6.14,6.14,0,0,1,.43-.45c.2-.17.4-.34.62-.5l.64-.48c.21-.16.41-.31.6-.47a3.43,3.43,0,0,0,.5-.51,2.3,2.3,0,0,0,.35-.58,1.6,1.6,0,0,0,.13-.67,1.89,1.89,0,0,0-.1-.63,1.34,1.34,0,0,0-.28-.51,1.48,1.48,0,0,0-.49-.36,1.94,1.94,0,0,0-.72-.12,3,3,0,0,0-.64.06,2.35,2.35,0,0,0-.51.19.89.89,0,0,0-.26.16l-.18.13-.13.1a.28.28,0,0,1-.13,0,.33.33,0,0,1-.25-.1.35.35,0,0,1-.1-.26.69.69,0,0,1,0-.13.51.51,0,0,1,.09-.13,3.09,3.09,0,0,1,.91-.54,3.6,3.6,0,0,1,1.2-.19,2.67,2.67,0,0,1,1,.19A2,2,0,0,1,120.19,98a2.82,2.82,0,0,1,.14.86,2.41,2.41,0,0,1-.15.87,3.13,3.13,0,0,1-.41.71,4,4,0,0,1-.58.59c-.22.19-.44.37-.68.54l-.69.52a6.76,6.76,0,0,0-.64.54,3.61,3.61,0,0,0-.49.62,1.84,1.84,0,0,0-.28.74H120a.33.33,0,0,1,.25.1A.33.33,0,0,1,120.33,104.34Z"/>
      <path class="cls-1" d="M163,11.26a.31.31,0,0,1-.1.24.33.33,0,0,1-.24.1h-4a.36.36,0,0,1-.25-.1.31.31,0,0,1-.1-.24.33.33,0,0,1,.1-.25.36.36,0,0,1,.25-.1h2V4.48L158.52,6a.4.4,0,0,1-.26.06.36.36,0,0,1-.23-.15.4.4,0,0,1-.05-.26.32.32,0,0,1,.15-.22l2.66-1.84a.38.38,0,0,1,.24-.08.34.34,0,0,1,.25.11.3.3,0,0,1,.11.25v7.07h1.22a.33.33,0,0,1,.24.1A.33.33,0,0,1,163,11.26Z"/>
      <path class="cls-1" d="M169.25,6.44a4.57,4.57,0,0,1-.1,1,6.37,6.37,0,0,1-.29.94,9.37,9.37,0,0,1-.44.9,8.24,8.24,0,0,1-.55.85,9.92,9.92,0,0,1-.63.79c-.21.25-.43.48-.65.7a.36.36,0,0,1-.25.11.35.35,0,0,1-.26-.11.37.37,0,0,1-.1-.26.36.36,0,0,1,.1-.25q.31-.3.63-.66c.21-.24.4-.49.59-.75a8.88,8.88,0,0,0,.52-.83,5.69,5.69,0,0,0,.4-.87,2.57,2.57,0,0,1-.67.32,2.72,2.72,0,0,1-.67.1,2.76,2.76,0,0,1-.91-.15,1.92,1.92,0,0,1-.74-.44,2.14,2.14,0,0,1-.52-.75A2.88,2.88,0,0,1,164.52,6a2.84,2.84,0,0,1,.18-1,2.25,2.25,0,0,1,.49-.78,2,2,0,0,1,.75-.49,2.54,2.54,0,0,1,1-.18,2.19,2.19,0,0,1,1,.21,1.94,1.94,0,0,1,.73.58,2.59,2.59,0,0,1,.48.92A4.33,4.33,0,0,1,169.25,6.44Zm-.72,0a3.8,3.8,0,0,0-.13-1,2.35,2.35,0,0,0-.35-.71,1.33,1.33,0,0,0-.52-.4,1.51,1.51,0,0,0-.63-.13,1.92,1.92,0,0,0-.69.12,1.41,1.41,0,0,0-.52.35,1.44,1.44,0,0,0-.32.57,2.2,2.2,0,0,0-.12.76,2,2,0,0,0,.13.77,1.45,1.45,0,0,0,.35.56,1.46,1.46,0,0,0,.52.32,2.08,2.08,0,0,0,.66.11,1.88,1.88,0,0,0,.49-.06,2.41,2.41,0,0,0,.43-.14,1.71,1.71,0,0,0,.35-.21c.11-.07.21-.15.3-.22s0-.22,0-.33S168.53,6.55,168.53,6.44Z"/>
      <path class="cls-1" d="M171.79,11.15a2.18,2.18,0,0,1-.11.76,1.94,1.94,0,0,1-.26.54,1.19,1.19,0,0,1-.31.32.61.61,0,0,1-.26.1.27.27,0,0,1-.15,0,.2.2,0,0,1-.06-.15.25.25,0,0,1,.07-.19l.17-.17a1.53,1.53,0,0,0,.17-.23.81.81,0,0,0,.1-.38.6.6,0,0,1-.23-.06.59.59,0,0,1-.19-.13.62.62,0,0,1-.12-.19.64.64,0,0,1-.05-.24.69.69,0,0,1,.05-.24.64.64,0,0,1,.13-.19.53.53,0,0,1,.2-.13.49.49,0,0,1,.24,0,.55.55,0,0,1,.26,0,.7.7,0,0,1,.19.15.66.66,0,0,1,.12.22A.75.75,0,0,1,171.79,11.15Z"/>
      <path class="cls-1" d="M177.92,3.92a.75.75,0,0,1,0,.24L175,11.47a.37.37,0,0,1-.19.2.39.39,0,0,1-.28,0,.39.39,0,0,1-.2-.2.39.39,0,0,1,0-.28l2.74-6.94h-3.63a.33.33,0,0,1-.24-.1.34.34,0,0,1,0-.48.33.33,0,0,1,.24-.1h4.13a.3.3,0,0,1,.24.1A.33.33,0,0,1,177.92,3.92Z"/>
      <path class="cls-1" d="M184,11.25a.37.37,0,0,1-.1.25.33.33,0,0,1-.25.1h-4a.34.34,0,0,1-.26-.1.37.37,0,0,1-.09-.25,2.63,2.63,0,0,1,.09-.7,2.38,2.38,0,0,1,.25-.59,3.15,3.15,0,0,1,.35-.52,6.14,6.14,0,0,1,.43-.45c.2-.17.4-.34.62-.5l.64-.48c.21-.15.41-.31.6-.47a3.43,3.43,0,0,0,.5-.51,2.43,2.43,0,0,0,.35-.57,1.68,1.68,0,0,0,.13-.68,1.89,1.89,0,0,0-.1-.63,1.41,1.41,0,0,0-.28-.51,1.33,1.33,0,0,0-.49-.35,1.75,1.75,0,0,0-.72-.13,3,3,0,0,0-.64.06,2.35,2.35,0,0,0-.51.19,1.18,1.18,0,0,0-.26.16l-.18.13-.13.1a.28.28,0,0,1-.13,0,.33.33,0,0,1-.25-.1.35.35,0,0,1-.1-.26.32.32,0,0,1,0-.13.51.51,0,0,1,.09-.13,3.09,3.09,0,0,1,.91-.54,3.6,3.6,0,0,1,1.2-.19,2.49,2.49,0,0,1,1,.2,1.85,1.85,0,0,1,.71.51,2,2,0,0,1,.42.73,2.82,2.82,0,0,1,.14.86,2.41,2.41,0,0,1-.15.87,3.13,3.13,0,0,1-.41.71,4.66,4.66,0,0,1-.58.6c-.22.18-.44.36-.68.53l-.69.52a6.76,6.76,0,0,0-.64.54,3.61,3.61,0,0,0-.49.62,1.9,1.9,0,0,0-.28.74h3.57a.34.34,0,0,1,.35.34Z"/>
      <path class="cls-1" d="M190.24,3.92a.75.75,0,0,1,0,.24l-2.86,7.31a.37.37,0,0,1-.19.2.39.39,0,0,1-.28,0,.39.39,0,0,1-.2-.2.39.39,0,0,1,0-.28l2.74-6.94h-3.63a.33.33,0,0,1-.24-.1.34.34,0,0,1,0-.48.33.33,0,0,1,.24-.1h4.13a.33.33,0,0,1,.25.1A.36.36,0,0,1,190.24,3.92Z"/>
    </g>
  </g>
</svg>