<svg xmlns="http://www.w3.org/2000/svg" xmlns:xlink="http://www.w3.org/1999/xlink" viewBox="0 0 165.63 37.11"><defs><style>.cls-1{fill:url(#新建渐变色板_1);}</style><linearGradient id="新建渐变色板_1" y1="18.56" x2="165.63" y2="18.56" gradientUnits="userSpaceOnUse"><stop offset="0" stop-color="#00d7ff"/><stop offset="0.09" stop-color="#0fd9ff"/><stop offset="0.27" stop-color="#36dfff"/><stop offset="0.52" stop-color="#75e9ff"/><stop offset="0.83" stop-color="#cbf7ff"/><stop offset="1" stop-color="#fff"/></linearGradient></defs><g id="图层_2" data-name="图层 2"><g id="图层_2-2" data-name="图层 2"><path class="cls-1" d="M34.07,32.43v3.44H0V32.43H14.88V25.28H4.8v-3.4H14.88V16.36H3.6V13.88H.36V5h15.4c-.56-1.32-1.24-3-1.8-4.24L17.64,0A51.54,51.54,0,0,1,20,5H33.59v8.84h-3.2v2.48H18.92v5.52H29.43v3.4H18.92v7.15H27c-1.4-1.47-3.72-3.71-5.56-5.31l2.64-1.84c1.92,1.64,4.6,4,6,5.36l-2.36,1.79ZM4,8.56v4.36H29.75V8.56Z"/><path class="cls-1" d="M57.12,30.48c2.48-.4,5-.88,7.4-1.32l.28,3.43C57.36,34,49.32,35.51,43.64,36.47l-.92-3.6c1-.16,2.24-.36,3.48-.52v-15h3.44V31.75l3.92-.67V14.48h3.56V19.6h6.36v3.28H57.12ZM68.56,13.24C69.4,25,71.68,33.43,74.79,33.43c.92,0,1.36-2.2,1.56-7.39a9.75,9.75,0,0,0,3.08,2.08c-.56,7.07-1.8,9-5,9-6,0-8.68-10.43-9.64-23.87H43.28V9.8H64.64c-.16-3-.24-6.16-.24-9.28h3.8c0,3.2,0,6.32.16,9.28H78.67v3.44Zm-7-7.48H46.44V2.44H61.52ZM75.35,8.64a30.2,30.2,0,0,0-5.63-5.76L72.32,1a28.52,28.52,0,0,1,5.75,5.52Z"/><path class="cls-1" d="M110,27.8a45.25,45.25,0,0,0,13.55,5.59,15.1,15.1,0,0,0-2.28,3,46.42,46.42,0,0,1-14.55-7.31V37h-3.68V29.2A45.46,45.46,0,0,1,88.6,36.63a25.38,25.38,0,0,0-2.44-3A45.65,45.65,0,0,0,99.92,27.8H87.24v-3h15.84V22.36h3.68V24.8h15.95v3ZM91.84,11.08a36.54,36.54,0,0,1-2.92,2.6,11.76,11.76,0,0,0-2.64-2.44A32.42,32.42,0,0,0,95.6.28L99.44,1a39.43,39.43,0,0,1-2.12,3.4h7.84a23.91,23.91,0,0,0-1.52-3.24L107,.2a25.29,25.29,0,0,1,2,4.2h11.51V7.32H108V9.56h10.83v2.52H108v2.16h10.91V16.8H108v2.28h13.67V22H95.52v1.16H91.84Zm12.6-3.76H95.52V9.56h8.92Zm0,4.76H95.52v2.16h8.92Zm0,4.72H95.52v2.28h8.92Z"/><path class="cls-1" d="M165.63,2V37h-4V35.47H136.16V37h-3.8V2Zm-4,30.11V5.4H136.16V32.11Zm-1.91-17.23h-5.6V26.44c0,1.76-.32,2.72-1.52,3.24s-2.84.63-5.32.63A15.32,15.32,0,0,0,146.08,27c1.72.08,3.32.08,3.8,0s.68-.16.68-.64V18.84A45.14,45.14,0,0,1,140,27.2a15.76,15.76,0,0,0-2.4-2.56,38.25,38.25,0,0,0,11.68-9.76H138.4V11.6h12.16V6.84h3.6V11.6h5.6Z"/></g></g></svg>