<svg xmlns="http://www.w3.org/2000/svg" xmlns:xlink="http://www.w3.org/1999/xlink" viewBox="0 0 1548.74 34.89"><defs><style>.cls-1{isolation:isolate;}.cls-2{opacity:0.2;}.cls-10,.cls-11,.cls-12,.cls-13,.cls-14,.cls-15,.cls-16,.cls-17,.cls-18,.cls-19,.cls-20,.cls-21,.cls-22,.cls-23,.cls-24,.cls-3,.cls-4,.cls-5,.cls-6,.cls-7,.cls-8,.cls-9{fill:#00dcff;}.cls-4{opacity:0.95;}.cls-5{opacity:0.9;}.cls-6{opacity:0.86;}.cls-7{opacity:0.81;}.cls-8{opacity:0.76;}.cls-9{opacity:0.71;}.cls-10{opacity:0.67;}.cls-11{opacity:0.62;}.cls-12{opacity:0.57;}.cls-13{opacity:0.52;}.cls-14{opacity:0.48;}.cls-15{opacity:0.43;}.cls-16{opacity:0.38;}.cls-17{opacity:0.33;}.cls-18{opacity:0.29;}.cls-19{opacity:0.24;}.cls-20{opacity:0.19;}.cls-21{opacity:0.14;}.cls-22{opacity:0.1;}.cls-23{opacity:0.05;}.cls-24{opacity:0;}.cls-25,.cls-26{fill:none;stroke-miterlimit:10;}.cls-25{stroke:#5cdaff;stroke-width:0.64px;}.cls-26{stroke:#31756c;stroke-width:0.74px;mix-blend-mode:color-dodge;}.cls-27{fill:url(#未命名的渐变_16);}</style><linearGradient id="未命名的渐变_16" x1="730.29" y1="-72.75" x2="894.82" y2="263.88" gradientUnits="userSpaceOnUse"><stop offset="0.37" stop-color="#fff" stop-opacity="0.05"/><stop offset="0.62" stop-color="#fff" stop-opacity="0.07"/><stop offset="0.96" stop-color="#fff" stop-opacity="0.14"/><stop offset="1" stop-color="#fff" stop-opacity="0.15"/></linearGradient></defs><g class="cls-1"><g id="图层_2" data-name="图层 2"><g id="图层_2-2" data-name="图层 2"><g class="cls-2"><rect class="cls-3" x="1.69" y="1.41" width="1545.36" height="32.07"/><rect class="cls-4" x="2.1" y="1.73" width="1544.55" height="31.43"/><rect class="cls-5" x="2.5" y="2.05" width="1543.74" height="30.79"/><rect class="cls-6" x="2.91" y="2.37" width="1542.93" height="30.15"/><rect class="cls-7" x="3.31" y="2.69" width="1542.12" height="29.51"/><rect class="cls-8" x="3.71" y="3.01" width="1541.31" height="28.87"/><rect class="cls-9" x="4.12" y="3.33" width="1540.5" height="28.23"/><rect class="cls-10" x="4.52" y="3.65" width="1539.7" height="27.59"/><rect class="cls-11" x="4.93" y="3.97" width="1538.89" height="26.95"/><rect class="cls-12" x="5.33" y="4.29" width="1538.08" height="26.32"/><rect class="cls-13" x="5.74" y="4.61" width="1537.27" height="25.68"/><rect class="cls-14" x="6.14" y="4.93" width="1536.46" height="25.04"/><rect class="cls-15" x="6.55" y="5.25" width="1535.65" height="24.4"/><rect class="cls-16" x="6.95" y="5.57" width="1534.84" height="23.76"/><rect class="cls-17" x="7.35" y="5.89" width="1534.03" height="23.12"/><rect class="cls-18" x="7.76" y="6.21" width="1533.22" height="22.48"/><rect class="cls-19" x="8.16" y="6.52" width="1532.42" height="21.84"/><rect class="cls-20" x="8.57" y="6.84" width="1531.61" height="21.21"/><rect class="cls-21" x="8.97" y="7.16" width="1530.8" height="20.57"/><rect class="cls-22" x="9.38" y="7.48" width="1529.99" height="19.93"/><rect class="cls-23" x="9.78" y="7.8" width="1529.18" height="19.29"/><rect class="cls-24" x="10.19" y="8.12" width="1528.37" height="18.65"/></g><polyline class="cls-25" points="1485.48 34.36 1548.17 34.36 1548.17 26.84"/><path class="cls-26" d="M.37,34.52h1548V.37H.37Z"/><polyline class="cls-25" points="20.25 0.53 0.57 0.53 0.57 12.24"/><polygon class="cls-27" points="1.69 1.41 1.69 33.48 1547.05 1.41 1.69 1.41"/></g></g></g></svg>