<svg xmlns="http://www.w3.org/2000/svg" xmlns:xlink="http://www.w3.org/1999/xlink" viewBox="0 0 1265.67 34.82">
  <defs>
    <style>.cls-1{isolation:isolate;}.cls-2{opacity:0.2;}.cls-10,.cls-11,.cls-12,.cls-13,.cls-14,.cls-15,.cls-16,.cls-17,.cls-18,.cls-19,.cls-20,.cls-21,.cls-22,.cls-23,.cls-24,.cls-3,.cls-4,.cls-5,.cls-6,.cls-7,.cls-8,.cls-9{fill:#00dcff;}.cls-4{opacity:0.95;}.cls-5{opacity:0.9;}.cls-6{opacity:0.86;}.cls-7{opacity:0.81;}.cls-8{opacity:0.76;}.cls-9{opacity:0.71;}.cls-10{opacity:0.67;}.cls-11{opacity:0.62;}.cls-12{opacity:0.57;}.cls-13{opacity:0.52;}.cls-14{opacity:0.48;}.cls-15{opacity:0.43;}.cls-16{opacity:0.38;}.cls-17{opacity:0.33;}.cls-18{opacity:0.29;}.cls-19{opacity:0.24;}.cls-20{opacity:0.19;}.cls-21{opacity:0.14;}.cls-22{opacity:0.1;}.cls-23{opacity:0.05;}.cls-24{opacity:0;}.cls-25,.cls-26{fill:none;stroke-miterlimit:10;}.cls-25{stroke:#5cdaff;stroke-width:0.58px;}.cls-26{stroke:#31756c;stroke-width:0.67px;mix-blend-mode:color-dodge;}.cls-27{fill:url(#未命名的渐变_16);}</style>
    <linearGradient id="未命名的渐变_16" x1="595.65" y1="-58.66" x2="730.11" y2="216.42" gradientUnits="userSpaceOnUse">
      <stop offset="0.37" stop-color="#fff" stop-opacity="0.05"/>
      <stop offset="0.62" stop-color="#fff" stop-opacity="0.07"/>
      <stop offset="0.96" stop-color="#fff" stop-opacity="0.14"/>
      <stop offset="1" stop-color="#fff" stop-opacity="0.15"/>
    </linearGradient>
  </defs>
  <g class="cls-1">
    <g id="图层_2" data-name="图层 2">
      <g id="图层_2-2" data-name="图层 2">
        <g class="cls-2">
          <rect class="cls-3" x="1.42" y="1.38" width="1262.84" height="32.07"/>
          <rect class="cls-4" x="1.75" y="1.7" width="1262.18" height="31.43"/>
          <rect class="cls-5" x="2.08" y="2.02" width="1261.52" height="30.79"/>
          <rect class="cls-6" x="2.41" y="2.34" width="1260.86" height="30.15"/>
          <rect class="cls-7" x="2.74" y="2.66" width="1260.2" height="29.51"/>
          <rect class="cls-8" x="3.07" y="2.98" width="1259.54" height="28.87"/>
          <rect class="cls-9" x="3.4" y="3.3" width="1258.87" height="28.23"/>
          <rect class="cls-10" x="3.73" y="3.61" width="1258.21" height="27.59"/>
          <rect class="cls-11" x="4.06" y="3.93" width="1257.55" height="26.95"/>
          <rect class="cls-12" x="4.39" y="4.25" width="1256.89" height="26.32"/>
          <rect class="cls-13" x="4.72" y="4.57" width="1256.23" height="25.68"/>
          <rect class="cls-14" x="5.05" y="4.89" width="1255.57" height="25.04"/>
          <rect class="cls-15" x="5.38" y="5.21" width="1254.91" height="24.4"/>
          <rect class="cls-16" x="5.71" y="5.53" width="1254.25" height="23.76"/>
          <rect class="cls-17" x="6.04" y="5.85" width="1253.59" height="23.12"/>
          <rect class="cls-18" x="6.37" y="6.17" width="1252.93" height="22.48"/>
          <rect class="cls-19" x="6.7" y="6.49" width="1252.26" height="21.84"/>
          <rect class="cls-20" x="7.03" y="6.81" width="1251.6" height="21.21"/>
          <rect class="cls-21" x="7.36" y="7.13" width="1250.94" height="20.57"/>
          <rect class="cls-22" x="7.69" y="7.45" width="1250.28" height="19.93"/>
          <rect class="cls-23" x="8.02" y="7.77" width="1249.62" height="19.29"/>
          <rect class="cls-24" x="8.36" y="8.09" width="1248.96" height="18.65"/>
        </g>
        <polyline class="cls-25" points="1213.94 34.33 1265.17 34.33 1265.17 26.81"/>
        <path class="cls-26" d="M.34,34.49h1265V.34H.34Z"/>
        <polyline class="cls-25" points="16.58 0.49 0.5 0.49 0.5 12.2"/>
        <polygon class="cls-27" points="1.42 1.38 1.42 33.44 1264.26 1.38 1.42 1.38"/>
      </g>
    </g>
  </g>
</svg>