<svg xmlns="http://www.w3.org/2000/svg" xmlns:xlink="http://www.w3.org/1999/xlink" viewBox="0 0 168.11 37.11"><defs><style>.cls-1{fill:url(#新建渐变色板_1);}</style><linearGradient id="新建渐变色板_1" y1="18.56" x2="168.11" y2="18.56" gradientUnits="userSpaceOnUse"><stop offset="0" stop-color="#00d7ff"/><stop offset="0.09" stop-color="#0fd9ff"/><stop offset="0.27" stop-color="#36dfff"/><stop offset="0.52" stop-color="#75e9ff"/><stop offset="0.83" stop-color="#cbf7ff"/><stop offset="1" stop-color="#fff"/></linearGradient></defs><g id="图层_2" data-name="图层 2"><g id="图层_2-2" data-name="图层 2"><path class="cls-1" d="M19,7.52c-.16,1.28-.36,2.52-.56,3.64H33.15V33c0,2-.52,2.92-1.92,3.44s-3.71.56-6.87.56A14.62,14.62,0,0,0,23,33.75c2.28.12,4.72.08,5.39,0s.92-.2.92-.84V14.6H5.6V37H1.88V11.16h13c.12-1.08.32-2.36.44-3.64H0V4H15.68c.12-1.32.2-2.6.24-3.72L20,.72c-.12,1.08-.28,2.2-.44,3.32H35V7.52Zm.08,22v6.55H15.6V29.52h-8v-3h8V23.08H8.4V20.16h3.68a19.19,19.19,0,0,0-1.88-4.44L13.12,15a20.6,20.6,0,0,1,2.08,4.56l-2.12.64h6.56a45.16,45.16,0,0,0,1.92-5.32l3.36.76c-.68,1.56-1.36,3.16-2,4.56h3.8v2.92H19.12v3.44h8.32v3Z"/><path class="cls-1" d="M54.2,26.92a46.49,46.49,0,0,1-7.92,9,18.57,18.57,0,0,0-2.68-2.36,32.13,32.13,0,0,0,7-8ZM78.83,5.08V8.72H44.12V5.08H60c-.64-1.28-1.4-2.76-2.12-3.92L61.52,0a35,35,0,0,1,2.92,5.08ZM63.6,23.32V33c0,2-.44,3-2,3.6s-3.84.56-7.2.56a19,19,0,0,0-1.2-3.6c2.36.08,4.84.08,5.56,0s.88-.16.88-.68V23.32H48.88V11.4H74.43V23.32Zm-11-3.2h18V14.64h-18Zm19,5.44a71.25,71.25,0,0,1,7.23,8.31L75.47,36a62.79,62.79,0,0,0-7-8.59Z"/><path class="cls-1" d="M92.52,8.12a24.54,24.54,0,0,1-3.92,5.24A18.62,18.62,0,0,0,86.8,9.8,24.81,24.81,0,0,0,92.32.4l3.32,1c-.36,1-.8,2.12-1.28,3.16h6.84V8.12Zm4.32,11.76h4.84V23.2H96.84V31l4.24-2a15.47,15.47,0,0,0,.52,3.23c-6.64,3.36-7.8,4-8.48,4.64a11,11,0,0,0-1.48-3.08A3,3,0,0,0,93.32,31V23.2H88.08V19.88h5.24V15.12h-3V11.76h10.6v3.36h-4Zm25.79,12.67c0,1.8-.4,2.76-1.56,3.28s-2.92.68-5.75.68a12.74,12.74,0,0,0-1.12-3.28c1.88.12,3.68.08,4.19.08s.8-.24.8-.8V5.64H106V29.92a54.11,54.11,0,0,0,5.16-10.56c-1.52-3.08-3.2-6.24-4.76-8.92L109,9c1.2,2,2.4,4.16,3.6,6.36.84-2.76,1.64-5.56,2.28-8.4l3.07.6c-1,3.92-2.15,7.88-3.43,11.56a75,75,0,0,1,4,9.36l-2.75,1.6a67.18,67.18,0,0,0-2.76-7,56.6,56.6,0,0,1-4.48,9A16.11,16.11,0,0,0,106,30.52V37h-3.48V2.36h20.11Z"/><path class="cls-1" d="M136.76,8a26.07,26.07,0,0,1-4.24,5.28,21.27,21.27,0,0,0-1.8-3.56,24.29,24.29,0,0,0,6-9.36l3.32,1c-.4,1-.84,2.08-1.36,3.08h8V8Zm9.48,20.36a18.47,18.47,0,0,0,.64,3.23c-7.48,4-8.68,4.64-9.4,5.36a13,13,0,0,0-1.76-3.28,3.83,3.83,0,0,0,1.92-3.23V23.2H132V19.88h5.68V15.12h-3.56V11.76h11.68v3.36H141.2v4.76h5.56V23.2H141.2v7.72Zm13.32-7.16c1.48,5.56,4.31,10.24,8.55,12.55a16,16,0,0,0-2.52,3.08c-3.8-2.36-6.35-6.35-8.07-11.27a22.46,22.46,0,0,1-9,11.39,12.08,12.08,0,0,0-2.64-2.72,19,19,0,0,0,9.12-13h-7.56V17.72h8.08c.12-1.72.16-3.44.16-5V10.68h-4.2a24.48,24.48,0,0,1-2.16,5.44,20.77,20.77,0,0,0-3-1.84c1.8-3,2.84-7.72,3.4-12.36l3.44.52c-.2,1.68-.48,3.28-.8,4.84h3.32V.6h3.64V7.28h7.19v3.4h-7.19v2.08c0,1.56,0,3.24-.2,5h8.35v3.52Z"/></g></g></svg>