<svg xmlns="http://www.w3.org/2000/svg" xmlns:xlink="http://www.w3.org/1999/xlink" viewBox="0 0 258.71 105.63">
  <defs>
    <style>.cls-1{isolation:isolate;}.cls-2,.cls-27,.cls-29,.cls-3,.cls-30,.cls-31,.cls-32,.cls-33,.cls-34,.cls-35{fill:none;}.cls-3{stroke:#31756c;mix-blend-mode:color-dodge;}.cls-27,.cls-3{stroke-miterlimit:10;stroke-width:1.05px;}.cls-4{opacity:0.2;}.cls-10,.cls-11,.cls-12,.cls-13,.cls-14,.cls-15,.cls-16,.cls-17,.cls-18,.cls-19,.cls-20,.cls-21,.cls-22,.cls-23,.cls-24,.cls-25,.cls-26,.cls-5,.cls-6,.cls-7,.cls-8,.cls-9{fill:#00dcff;}.cls-6{opacity:0.95;}.cls-7{opacity:0.9;}.cls-8{opacity:0.86;}.cls-9{opacity:0.81;}.cls-10{opacity:0.76;}.cls-11{opacity:0.71;}.cls-12{opacity:0.67;}.cls-13{opacity:0.62;}.cls-14{opacity:0.57;}.cls-15{opacity:0.52;}.cls-16{opacity:0.48;}.cls-17{opacity:0.43;}.cls-18{opacity:0.38;}.cls-19{opacity:0.33;}.cls-20{opacity:0.29;}.cls-21{opacity:0.24;}.cls-22{opacity:0.19;}.cls-23{opacity:0.14;}.cls-24{opacity:0.1;}.cls-25{opacity:0.05;}.cls-26{opacity:0;}.cls-27{stroke:#5cdaff;}.cls-28{fill:url(#未命名的渐变_16);}.cls-29,.cls-30,.cls-31,.cls-32,.cls-33,.cls-34,.cls-35{stroke-linecap:round;stroke-linejoin:round;stroke-width:1.65px;}.cls-29{stroke:url(#新建渐变色板_1);}.cls-30{stroke:url(#新建渐变色板_1-2);}.cls-31{stroke:url(#新建渐变色板_1-3);}.cls-32{stroke:url(#新建渐变色板_1-4);}.cls-33{stroke:url(#新建渐变色板_1-5);}.cls-34{stroke:url(#新建渐变色板_1-6);}.cls-35{stroke:url(#新建渐变色板_1-7);}</style>
    <linearGradient id="未命名的渐变_16" x1="111.17" y1="6.1" x2="143.06" y2="71.34" gradientUnits="userSpaceOnUse">
      <stop offset="0.37" stop-color="#fff" stop-opacity="0.05"/>
      <stop offset="0.62" stop-color="#fff" stop-opacity="0.07"/>
      <stop offset="0.96" stop-color="#fff" stop-opacity="0.14"/>
      <stop offset="1" stop-color="#fff" stop-opacity="0.15"/>
    </linearGradient>
    <linearGradient id="新建渐变色板_1" x1="39.05" y1="42.22" x2="53.53" y2="42.22" gradientUnits="userSpaceOnUse">
      <stop offset="0" stop-color="#00d7ff"/>
      <stop offset="0.09" stop-color="#0fd9ff"/>
      <stop offset="0.27" stop-color="#36dfff"/>
      <stop offset="0.52" stop-color="#75e9ff"/>
      <stop offset="0.83" stop-color="#cbf7ff"/>
      <stop offset="1" stop-color="#fff"/>
    </linearGradient>
    <linearGradient id="新建渐变色板_1-2" x1="51.88" y1="42.22" x2="66.36" y2="42.22" xlink:href="#新建渐变色板_1"/>
    <linearGradient id="新建渐变色板_1-3" x1="26.22" y1="52.82" x2="85.97" y2="52.82" xlink:href="#新建渐变色板_1"/>
    <linearGradient id="新建渐变色板_1-4" x1="34.3" y1="56.57" x2="45.24" y2="56.57" xlink:href="#新建渐变色板_1"/>
    <linearGradient id="新建渐变色板_1-5" x1="49.78" y1="56.57" x2="60.72" y2="56.57" xlink:href="#新建渐变色板_1"/>
    <linearGradient id="新建渐变色板_1-6" x1="65.27" y1="56.57" x2="76.2" y2="56.57" xlink:href="#新建渐变色板_1"/>
    <linearGradient id="新建渐变色板_1-7" x1="34.3" y1="73.21" x2="76.2" y2="73.21" xlink:href="#新建渐变色板_1"/>
  </defs>
  <g class="cls-1">
    <g id="图层_2" data-name="图层 2">
      <g id="图层_3" data-name="图层 3">
        <g class="cls-2">
          <path class="cls-3" d="M.52,105.11H258.19V.52H.52Z"/>
          <g class="cls-4">
            <rect class="cls-5" x="3.9" y="3.89" width="250.92" height="97.85"/>
            <rect class="cls-6" x="4.41" y="4.41" width="249.9" height="96.82"/>
            <rect class="cls-7" x="4.92" y="4.92" width="248.87" height="95.8"/>
            <rect class="cls-8" x="5.43" y="5.43" width="247.85" height="94.77"/>
            <rect class="cls-9" x="5.94" y="5.94" width="246.82" height="93.75"/>
            <rect class="cls-10" x="6.45" y="6.45" width="245.8" height="92.73"/>
            <rect class="cls-11" x="6.97" y="6.97" width="244.78" height="91.7"/>
            <rect class="cls-12" x="7.48" y="7.48" width="243.75" height="90.68"/>
            <rect class="cls-13" x="7.99" y="7.99" width="242.73" height="89.65"/>
            <rect class="cls-14" x="8.5" y="8.5" width="241.7" height="88.63"/>
            <rect class="cls-15" x="9.01" y="9.01" width="240.68" height="87.61"/>
            <rect class="cls-16" x="9.53" y="9.53" width="239.66" height="86.58"/>
            <rect class="cls-17" x="10.04" y="10.04" width="238.63" height="85.56"/>
            <rect class="cls-18" x="10.55" y="10.55" width="237.61" height="84.53"/>
            <rect class="cls-19" x="11.06" y="11.06" width="236.58" height="83.51"/>
            <rect class="cls-20" x="11.57" y="11.57" width="235.56" height="82.49"/>
            <rect class="cls-21" x="12.09" y="12.09" width="234.54" height="81.46"/>
            <rect class="cls-22" x="12.6" y="12.6" width="233.51" height="80.44"/>
            <rect class="cls-23" x="13.11" y="13.11" width="232.49" height="79.42"/>
            <rect class="cls-24" x="13.62" y="13.62" width="231.47" height="78.39"/>
            <rect class="cls-25" x="14.13" y="14.13" width="230.44" height="77.37"/>
            <rect class="cls-26" x="14.65" y="14.65" width="229.42" height="76.34"/>
          </g>
          <polyline class="cls-27" points="199.9 105.11 258.19 105.11 258.19 93.06"/>
          <polyline class="cls-27" points="25.44 0.52 0.52 0.52 0.52 19.29"/>
          <polygon class="cls-28" points="3.9 3.9 3.9 82.7 254.81 27.63 254.81 3.9 3.9 3.9"/>
          <path class="cls-5" d="M121.43,56.77h-9.9V55.15h1.82v-7.8h-1.56V45.73h1.56v-2.3H115v2.3h3.24v-2.3H120v2.3h1.32v1.62H120v7.8h1.44Zm-5.5.8a12.66,12.66,0,0,1-2.78,3.84,10.43,10.43,0,0,0-1.48-1.08,9.31,9.31,0,0,0,2.5-3.26ZM115,47.35v1.54h3.24V47.35Zm0,4.6h3.24v-1.6H115Zm0,3.2h3.24V53.41H115Zm3.4,2a15.27,15.27,0,0,1,1.8,2.52l-1.56.8A16.3,16.3,0,0,0,117,57.79Zm11.46-5.56H128v10h-1.76v-10h-2.44v.78c0,3.64-.42,6.9-2.9,9.58a7.51,7.51,0,0,0-1.32-1.18c2.2-2.44,2.5-5.38,2.5-8.42v-7a28.56,28.56,0,0,0,6.26-2.12l1.48,1.32a29.12,29.12,0,0,1-6,2v3.34h6.12Z"/>
          <path class="cls-5" d="M134.17,58.83l5.2-1.12a7.27,7.27,0,0,0,.18,1.56c-5.54,1.32-6.32,1.52-6.8,1.82a6.51,6.51,0,0,0-.62-1.56c.26-.12.46-.36.46-1.1V54.25h5.8v-2h-6.16V50.61h7.86v5.3h-5.92Zm6.3-9.68h-8.16V44.39h1.5v3.28h1.76V43.29h1.58v4.38h1.74V44.39h1.58Zm7.82,10.58c.26,0,.32-.52.36-2.58a4.7,4.7,0,0,0,1.42.7c-.12,2.44-.52,3.28-1.64,3.28h-1.06c-1.28,0-1.58-.54-1.58-2.28v-13h-2.24v4.46c0,3.34-.34,8.18-2.58,11.32a8.49,8.49,0,0,0-1.38-1.16c2.06-2.9,2.26-7.08,2.26-10.16v-6h5.58V58.87c0,.76,0,.86.28.86Z"/>
          <path class="cls-5" d="M169.61,56.57h-7.54v2.94c0,1-.28,1.52-1.14,1.76a15.3,15.3,0,0,1-3.9.26,7.14,7.14,0,0,0-.72-1.72c1.36.06,2.9.06,3.3,0s.5-.08.5-.38V56.57h-8.26V54.79h8.26v-1a19.6,19.6,0,0,0,3.4-1.76h-9.62v-1.7h11.8l.42-.1,1.26,1a24,24,0,0,1-5.3,3.28v.22h7.54Zm-1.06-11.86a97.9,97.9,0,0,1-15.18,1.4,6.11,6.11,0,0,0-.44-1.6,92.77,92.77,0,0,0,14.24-1.34Zm-13.3,5.52a21,21,0,0,0-1.46-3.2l1.68-.62a20.91,20.91,0,0,1,1.52,3.1Zm4.82-.4A20.3,20.3,0,0,0,159,46.61l1.72-.56a25,25,0,0,1,1.18,3.14Zm3.78-.28A23.81,23.81,0,0,0,166,45.71l1.88.72a37.3,37.3,0,0,1-2.44,3.76Z"/>
          <path class="cls-5" d="M189.69,58.25v1.86h-17.9V58.25h7.82v-11h-6.76V45.37h15.8v1.92h-7v11Z"/>
          <path class="cls-5" d="M209.39,46.45h-13.8v4c0,3.26-.32,8-2.36,11a6.73,6.73,0,0,0-1.72-1.06c1.92-2.86,2.08-7,2.08-10v-6h15.8Z"/>
          <polyline class="cls-29" points="39.88 47.12 52.7 37.32 52.7 47.12"/>
          <polyline class="cls-30" points="52.7 47.12 65.53 37.32 65.53 47.12"/>
          <polyline class="cls-31" points="65.53 47.12 78.36 37.32 78.36 47.12 85.14 47.12 85.14 83.3 27.05 83.3 27.05 22.33 39.88 22.33 39.88 47.12"/>
          <line class="cls-32" x1="35.13" y1="56.57" x2="44.41" y2="56.57"/>
          <line class="cls-33" x1="50.61" y1="56.57" x2="59.89" y2="56.57"/>
          <line class="cls-34" x1="66.09" y1="56.57" x2="75.38" y2="56.57"/>
          <rect class="cls-35" x="35.13" y="63.11" width="40.25" height="20.19"/>
        </g>
      </g>
    </g>
  </g>
</svg>