<svg xmlns="http://www.w3.org/2000/svg" xmlns:xlink="http://www.w3.org/1999/xlink" viewBox="0 0 258.71 105.63">
  <defs>
    <style>.cls-1{isolation:isolate;}.cls-2,.cls-27,.cls-29,.cls-3,.cls-31,.cls-33,.cls-35{fill:none;}.cls-3{stroke:#31756c;mix-blend-mode:color-dodge;}.cls-27,.cls-3{stroke-miterlimit:10;stroke-width:1.05px;}.cls-4{opacity:0.2;}.cls-10,.cls-11,.cls-12,.cls-13,.cls-14,.cls-15,.cls-16,.cls-17,.cls-18,.cls-19,.cls-20,.cls-21,.cls-22,.cls-23,.cls-24,.cls-25,.cls-26,.cls-5,.cls-6,.cls-7,.cls-8,.cls-9{fill:#00dcff;}.cls-6{opacity:0.95;}.cls-7{opacity:0.9;}.cls-8{opacity:0.86;}.cls-9{opacity:0.81;}.cls-10{opacity:0.76;}.cls-11{opacity:0.71;}.cls-12{opacity:0.67;}.cls-13{opacity:0.62;}.cls-14{opacity:0.57;}.cls-15{opacity:0.52;}.cls-16{opacity:0.48;}.cls-17{opacity:0.43;}.cls-18{opacity:0.38;}.cls-19{opacity:0.33;}.cls-20{opacity:0.29;}.cls-21{opacity:0.24;}.cls-22{opacity:0.19;}.cls-23{opacity:0.14;}.cls-24{opacity:0.1;}.cls-25{opacity:0.05;}.cls-26{opacity:0;}.cls-27{stroke:#5cdaff;}.cls-28{fill:url(#未命名的渐变_16);}.cls-29,.cls-31,.cls-33,.cls-35{stroke-linecap:round;stroke-linejoin:round;stroke-width:1.79px;}.cls-29{stroke:url(#新建渐变色板_1);}.cls-30{fill:url(#新建渐变色板_1-2);}.cls-31{stroke:url(#新建渐变色板_1-3);}.cls-32{fill:url(#新建渐变色板_1-4);}.cls-33{stroke:url(#新建渐变色板_1-5);}.cls-34{fill:url(#新建渐变色板_1-6);}.cls-35{stroke:url(#新建渐变色板_1-7);}.cls-36{fill:url(#新建渐变色板_1-8);}</style>
    <linearGradient id="未命名的渐变_16" x1="111.17" y1="6.1" x2="143.06" y2="71.34" gradientUnits="userSpaceOnUse">
      <stop offset="0.37" stop-color="#fff" stop-opacity="0.05"/>
      <stop offset="0.62" stop-color="#fff" stop-opacity="0.07"/>
      <stop offset="0.96" stop-color="#fff" stop-opacity="0.14"/>
      <stop offset="1" stop-color="#fff" stop-opacity="0.15"/>
    </linearGradient>
    <linearGradient id="新建渐变色板_1" x1="57.95" y1="54.73" x2="89.64" y2="54.73" gradientUnits="userSpaceOnUse">
      <stop offset="0" stop-color="#00d7ff"/>
      <stop offset="0.09" stop-color="#0fd9ff"/>
      <stop offset="0.27" stop-color="#36dfff"/>
      <stop offset="0.52" stop-color="#75e9ff"/>
      <stop offset="0.83" stop-color="#cbf7ff"/>
      <stop offset="1" stop-color="#fff"/>
    </linearGradient>
    <linearGradient id="新建渐变色板_1-2" x1="57.95" y1="82.37" x2="89.64" y2="82.37" xlink:href="#新建渐变色板_1"/>
    <linearGradient id="新建渐变色板_1-3" x1="28.04" y1="57.52" x2="59.73" y2="57.52" xlink:href="#新建渐变色板_1"/>
    <linearGradient id="新建渐变色板_1-4" x1="28.04" y1="29.94" x2="59.73" y2="29.94" xlink:href="#新建渐变色板_1"/>
    <linearGradient id="新建渐变色板_1-5" x1="59.86" y1="55.22" x2="59.86" y2="75.35" xlink:href="#新建渐变色板_1"/>
    <linearGradient id="新建渐变色板_1-6" x1="43.49" y1="55.22" x2="43.49" y2="75.35" xlink:href="#新建渐变色板_1"/>
    <linearGradient id="新建渐变色板_1-7" x1="57.8" y1="36.87" x2="57.8" y2="57" xlink:href="#新建渐变色板_1"/>
    <linearGradient id="新建渐变色板_1-8" x1="74.12" y1="36.87" x2="74.12" y2="57" xlink:href="#新建渐变色板_1"/>
  </defs>
  <g class="cls-1">
    <g id="图层_2" data-name="图层 2">
      <g id="图层_3" data-name="图层 3">
        <g class="cls-2">
          <path class="cls-3" d="M.52,105.11H258.19V.52H.52Z"/>
          <g class="cls-4">
            <rect class="cls-5" x="3.9" y="3.89" width="250.92" height="97.85"/>
            <rect class="cls-6" x="4.41" y="4.41" width="249.9" height="96.82"/>
            <rect class="cls-7" x="4.92" y="4.92" width="248.87" height="95.8"/>
            <rect class="cls-8" x="5.43" y="5.43" width="247.85" height="94.77"/>
            <rect class="cls-9" x="5.94" y="5.94" width="246.82" height="93.75"/>
            <rect class="cls-10" x="6.45" y="6.45" width="245.8" height="92.73"/>
            <rect class="cls-11" x="6.97" y="6.97" width="244.78" height="91.7"/>
            <rect class="cls-12" x="7.48" y="7.48" width="243.75" height="90.68"/>
            <rect class="cls-13" x="7.99" y="7.99" width="242.73" height="89.65"/>
            <rect class="cls-14" x="8.5" y="8.5" width="241.7" height="88.63"/>
            <rect class="cls-15" x="9.01" y="9.01" width="240.68" height="87.61"/>
            <rect class="cls-16" x="9.53" y="9.53" width="239.66" height="86.58"/>
            <rect class="cls-17" x="10.04" y="10.04" width="238.63" height="85.56"/>
            <rect class="cls-18" x="10.55" y="10.55" width="237.61" height="84.53"/>
            <rect class="cls-19" x="11.06" y="11.06" width="236.58" height="83.51"/>
            <rect class="cls-20" x="11.57" y="11.57" width="235.56" height="82.49"/>
            <rect class="cls-21" x="12.09" y="12.09" width="234.54" height="81.46"/>
            <rect class="cls-22" x="12.6" y="12.6" width="233.51" height="80.44"/>
            <rect class="cls-23" x="13.11" y="13.11" width="232.49" height="79.42"/>
            <rect class="cls-24" x="13.62" y="13.62" width="231.47" height="78.39"/>
            <rect class="cls-25" x="14.13" y="14.13" width="230.44" height="77.37"/>
            <rect class="cls-26" x="14.65" y="14.65" width="229.42" height="76.34"/>
          </g>
          <polyline class="cls-27" points="199.9 105.11 258.19 105.11 258.19 93.06"/>
          <polyline class="cls-27" points="25.44 0.52 0.52 0.52 0.52 19.29"/>
          <polygon class="cls-28" points="3.9 3.9 3.9 82.7 254.81 27.63 254.81 3.9 3.9 3.9"/>
          <path class="cls-5" d="M129.63,60.53v1.8H111.87v-1.8h7.92v-4.6h-5.7V54.14h5.7v-4h-4.44a17.27,17.27,0,0,1-2,3.1,11.91,11.91,0,0,0-1.7-1.12,17.27,17.27,0,0,0,3.62-7.24l1.92.44c-.3,1-.66,2-1,3h3.62V44.6h1.92v3.72h7v1.82h-7v4h6.22v1.79h-6.22v4.6Z"/>
          <path class="cls-5" d="M142.29,45.38l-.38.46A17.6,17.6,0,0,0,150,50.16a8.1,8.1,0,0,0-1.32,1.76,17.7,17.7,0,0,1-4-1.74v1.26h-8.16V50.2A24.51,24.51,0,0,1,132.47,52a9.76,9.76,0,0,0-1.08-1.8c3.68-.94,7.56-3.34,9.42-5.9Zm-2.82,14.45h-4.54v1.64h-1.72V52.88h6.26Zm-4.54-5.33v3.71h2.8V54.5Zm9.14-4.72a17,17,0,0,1-3.28-2.72,21.25,21.25,0,0,1-3.54,2.72Zm4.24,8.63c0,.88-.16,1.4-.78,1.68a7.68,7.68,0,0,1-3,.3,7.16,7.16,0,0,0-.54-1.68c1,0,1.88,0,2.12,0s.36-.08.36-.32V54.54h-3.36V63h-1.82V52.88h7Z"/>
          <path class="cls-5" d="M168.85,47.18A15.48,15.48,0,0,1,165.63,52a15.64,15.64,0,0,0,4.6,2.52A7.62,7.62,0,0,0,169,56a16.16,16.16,0,0,1-4.68-2.9,18.5,18.5,0,0,1-4.92,2.9,5.66,5.66,0,0,0-1.16-1.5,17.37,17.37,0,0,0,4.82-2.62,16.9,16.9,0,0,1-1.82-2.32,14.76,14.76,0,0,1-1.88,1.82,5.19,5.19,0,0,0-1-1.06,39.39,39.39,0,0,1-3.78,5.12l3.72-.52a13.57,13.57,0,0,0,.06,1.61c-5,.8-5.74,1-6.24,1.22a13.29,13.29,0,0,0-.56-1.69c.46-.1.92-.54,1.54-1.26a23.39,23.39,0,0,0,1.82-2.34,13.12,13.12,0,0,0-2.94.48,12.71,12.71,0,0,0-.6-1.72c.38-.1.72-.56,1.16-1.22a26.56,26.56,0,0,0,2.62-5.48l1.8.74a36.3,36.3,0,0,1-3.14,5.8l2.16-.18a22.16,22.16,0,0,0,1.2-2.12l1.44.9a14,14,0,0,0,3.64-5.08l1.94.32c-.26.54-.52,1.12-.84,1.66h4.06l.32-.06ZM151.43,60.07c1.82-.28,4.58-.82,7.22-1.3l.14,1.62c-2.48.54-5.08,1.06-7.06,1.46Zm9.36-1.6a39.91,39.91,0,0,1,7.74,3l-1.08,1.46a36.26,36.26,0,0,0-7.72-3.1ZM163,55a22,22,0,0,1,4.24,2.13l-1.08,1.34a20.26,20.26,0,0,0-4.22-2.26Zm1.34-4.24a12.81,12.81,0,0,0,2.06-2.6l-4.08,0A12.73,12.73,0,0,0,164.31,50.8Z"/>
          <path class="cls-5" d="M176.11,50.7c.42-.66.86-1.36,1.24-2.08l1.66,1a40,40,0,0,1-4.22,5.66l4-.64a10.39,10.39,0,0,0,.12,1.65c-5.46,1-6.28,1.16-6.78,1.44a16.55,16.55,0,0,0-.6-1.81c.48-.09.94-.54,1.58-1.28a20,20,0,0,0,1.88-2.3,12.32,12.32,0,0,0-3,.52,15.48,15.48,0,0,0-.64-1.82c.38-.1.74-.54,1.16-1.16a24.56,24.56,0,0,0,2.6-5.26l1.9.78a31.75,31.75,0,0,1-3.08,5.44Zm-4.66,9.37c1.88-.3,4.7-.86,7.4-1.38l.16,1.72c-2.54.56-5.24,1.12-7.26,1.56Zm13.8-11.13v2.68h3.94v1.76h-9.76V51.62h3.88V48.94h-4.38v-1.8h4.38V44.58h1.94v2.56h4.32v1.8Zm-5.32,6.25h8.82v7.66h-1.88v-.78h-5.12v.86h-1.82Zm1.82,1.68v3.52h5.12V56.87Z"/>
          <path class="cls-5" d="M198.53,54.9l-2.28.64v5.23c0,1-.24,1.56-.88,1.84a8.44,8.44,0,0,1-3.22.34,6.38,6.38,0,0,0-.58-1.78c1,0,2.06,0,2.34,0s.44-.1.44-.44V56.11c-.9.26-1.74.47-2.5.68l-.44-1.91,2.94-.72V50.28h-2.66v-1.8h2.66V44.6h1.9v3.88h2.1v1.8h-2.1v3.36c.68-.18,1.38-.34,2-.54Zm10.76-2.48a16.56,16.56,0,0,1-2.7,6.65,11,11,0,0,0,3.4,2.26,6.8,6.8,0,0,0-1.3,1.6,12.68,12.68,0,0,1-3.32-2.4,13.11,13.11,0,0,1-3.3,2.48,7.7,7.7,0,0,0-1.14-1.32v1.22h-1.84V45.28h9.66s0,.48,0,.72c-.1,2.8-.28,4-.74,4.46a2.26,2.26,0,0,1-1.6.6c-.66,0-1.88,0-3.16,0a3.49,3.49,0,0,0-.5-1.54c1.24.1,2.46.12,2.86.12s.62,0,.8-.18.34-.9.42-2.42h-5.86v5.1h6.84l.34-.06Zm-8.36,9.15a12,12,0,0,0,3.26-2.4,18.64,18.64,0,0,1-2.86-5.39h-.4Zm2.18-7.79a14.62,14.62,0,0,0,2.22,3.91,12.8,12.8,0,0,0,1.8-3.91Z"/>
          <path class="cls-5" d="M229.69,46.42v1.76h-14.8V52c0,3.17-.26,7.93-1.82,11.05A7.89,7.89,0,0,0,211.45,62c1.42-2.88,1.54-7.07,1.54-10V46.42h7.74a16.07,16.07,0,0,0-.74-1.56l1.94-.36c.32.56.72,1.32,1,1.92Zm-1.78,9.33a11.16,11.16,0,0,1-3.22,4.14,18.75,18.75,0,0,0,5,1.52A7.39,7.39,0,0,0,228.55,63a18.75,18.75,0,0,1-5.42-2,20.29,20.29,0,0,1-5,2.08,6.57,6.57,0,0,0-1-1.54,16.83,16.83,0,0,0,4.4-1.62,16,16,0,0,1-2-1.88,14.41,14.41,0,0,1-4,3.62,7.06,7.06,0,0,0-1.2-1.5A12.48,12.48,0,0,0,220,53.54h-1.48a4.45,4.45,0,0,0-2.08.28,9.33,9.33,0,0,0-.62-1.66,1.12,1.12,0,0,0,.62-.66,9.17,9.17,0,0,0,1-2.74l1.94.26a13.8,13.8,0,0,1-1,2.86h2.24a23.64,23.64,0,0,0,.76-3.36l1.84.26c-.2,1.1-.44,2.12-.72,3.1h4c-.48-.64-1.32-1.56-2-2.26l1.34-.84c.72.72,1.7,1.72,2.2,2.32l-1.14.78h2.38v1.66h-7.38c-.2.58-.44,1.11-.66,1.65h5.1l.36-.08Zm-7.34,1.06A11.76,11.76,0,0,0,223,59a10,10,0,0,0,2.14-2.16Z"/>
          <path class="cls-29" d="M58.84,26.2A29.91,29.91,0,0,1,71.38,83.27"/>
          <polygon class="cls-30" points="73.47 79.08 71.87 83.05 75.84 84.65 73.47 85.66 69.5 84.06 71.1 80.09 73.47 79.08"/>
          <path class="cls-31" d="M58.84,86A29.92,29.92,0,0,1,46.12,29"/>
          <polygon class="cls-32" points="44.06 33.23 45.64 29.25 41.66 27.68 44.02 26.66 47.99 28.23 46.42 32.21 44.06 33.23"/>
          <path class="cls-33" d="M77.19,56.11a18.35,18.35,0,0,1-34.66,8.4"/>
          <polygon class="cls-34" points="46.78 66.48 42.76 64.98 41.27 69 40.2 66.66 41.7 62.65 45.71 64.14 46.78 66.48"/>
          <path class="cls-35" d="M40.49,56.11A18.35,18.35,0,0,1,75.1,47.6"/>
          <polygon class="cls-36" points="70.84 45.66 74.86 47.13 76.32 43.1 77.41 45.43 75.94 49.45 71.92 47.99 70.84 45.66"/>
        </g>
      </g>
    </g>
  </g>
</svg>