<svg xmlns="http://www.w3.org/2000/svg" xmlns:xlink="http://www.w3.org/1999/xlink" viewBox="0 0 258.71 105.63">
  <defs>
    <style>.cls-1{isolation:isolate;}.cls-2,.cls-27,.cls-29,.cls-3,.cls-30,.cls-31,.cls-32,.cls-33,.cls-34,.cls-35,.cls-36,.cls-37,.cls-38,.cls-39,.cls-40,.cls-41,.cls-42,.cls-43{fill:none;}.cls-3{stroke:#31756c;mix-blend-mode:color-dodge;}.cls-27,.cls-3{stroke-miterlimit:10;stroke-width:1.05px;}.cls-4{opacity:0.2;}.cls-10,.cls-11,.cls-12,.cls-13,.cls-14,.cls-15,.cls-16,.cls-17,.cls-18,.cls-19,.cls-20,.cls-21,.cls-22,.cls-23,.cls-24,.cls-25,.cls-26,.cls-5,.cls-6,.cls-7,.cls-8,.cls-9{fill:#00dcff;}.cls-6{opacity:0.95;}.cls-7{opacity:0.9;}.cls-8{opacity:0.86;}.cls-9{opacity:0.81;}.cls-10{opacity:0.76;}.cls-11{opacity:0.71;}.cls-12{opacity:0.67;}.cls-13{opacity:0.62;}.cls-14{opacity:0.57;}.cls-15{opacity:0.52;}.cls-16{opacity:0.48;}.cls-17{opacity:0.43;}.cls-18{opacity:0.38;}.cls-19{opacity:0.33;}.cls-20{opacity:0.29;}.cls-21{opacity:0.24;}.cls-22{opacity:0.19;}.cls-23{opacity:0.14;}.cls-24{opacity:0.1;}.cls-25{opacity:0.05;}.cls-26{opacity:0;}.cls-27{stroke:#5cdaff;}.cls-28{fill:url(#未命名的渐变_16);}.cls-29,.cls-30,.cls-31,.cls-32,.cls-33,.cls-34,.cls-35,.cls-36,.cls-37,.cls-38,.cls-39,.cls-40,.cls-41,.cls-42,.cls-43{stroke-linecap:round;stroke-linejoin:round;stroke-width:1.73px;}.cls-29{stroke:url(#新建渐变色板_1);}.cls-30{stroke:url(#新建渐变色板_1-2);}.cls-31{stroke:url(#新建渐变色板_1-3);}.cls-32{stroke:url(#新建渐变色板_1-4);}.cls-33{stroke:url(#新建渐变色板_1-5);}.cls-34{stroke:url(#新建渐变色板_1-6);}.cls-35{stroke:url(#新建渐变色板_1-7);}.cls-36{stroke:url(#新建渐变色板_1-8);}.cls-37{stroke:url(#新建渐变色板_1-9);}.cls-38{stroke:url(#新建渐变色板_1-10);}.cls-39{stroke:url(#新建渐变色板_1-11);}.cls-40{stroke:url(#新建渐变色板_1-12);}.cls-41{stroke:url(#新建渐变色板_1-13);}.cls-42{stroke:url(#新建渐变色板_1-14);}.cls-43{stroke:url(#新建渐变色板_1-15);}</style>
    <linearGradient id="未命名的渐变_16" x1="111.17" y1="6.1" x2="143.06" y2="71.34" gradientUnits="userSpaceOnUse">
      <stop offset="0.37" stop-color="#fff" stop-opacity="0.05"/>
      <stop offset="0.62" stop-color="#fff" stop-opacity="0.07"/>
      <stop offset="0.96" stop-color="#fff" stop-opacity="0.14"/>
      <stop offset="1" stop-color="#fff" stop-opacity="0.15"/>
    </linearGradient>
    <linearGradient id="新建渐变色板_1" x1="71.77" y1="52.82" x2="93.59" y2="52.82" gradientUnits="userSpaceOnUse">
      <stop offset="0" stop-color="#00d7ff"/>
      <stop offset="0.09" stop-color="#0fd9ff"/>
      <stop offset="0.27" stop-color="#36dfff"/>
      <stop offset="0.52" stop-color="#75e9ff"/>
      <stop offset="0.83" stop-color="#cbf7ff"/>
      <stop offset="1" stop-color="#fff"/>
    </linearGradient>
    <linearGradient id="新建渐变色板_1-2" x1="22.78" y1="50.95" x2="70.01" y2="50.95" xlink:href="#新建渐变色板_1"/>
    <linearGradient id="新建渐变色板_1-3" x1="48.88" y1="66.89" x2="80.01" y2="66.89" xlink:href="#新建渐变色板_1"/>
    <linearGradient id="新建渐变色板_1-4" x1="72.64" y1="67.75" x2="72.64" y2="37.88" xlink:href="#新建渐变色板_1"/>
    <linearGradient id="新建渐变色板_1-5" x1="22.78" y1="59.12" x2="73.5" y2="59.12" xlink:href="#新建渐变色板_1"/>
    <linearGradient id="新建渐变色板_1-6" x1="81.62" y1="47.92" x2="93.59" y2="47.92" xlink:href="#新建渐变色板_1"/>
    <linearGradient id="新建渐变色板_1-7" x1="40.05" y1="66.38" x2="50.61" y2="66.38" xlink:href="#新建渐变色板_1"/>
    <linearGradient id="新建渐变色板_1-8" x1="78.29" y1="66.38" x2="88.84" y2="66.38" xlink:href="#新建渐变色板_1"/>
    <linearGradient id="新建渐变色板_1-9" x1="28.28" y1="66.38" x2="38.84" y2="66.38" xlink:href="#新建渐变色板_1"/>
    <linearGradient id="新建渐变色板_1-10" x1="37.08" y1="66.89" x2="41.81" y2="66.89" xlink:href="#新建渐变色板_1"/>
    <linearGradient id="新建渐变色板_1-11" x1="33.56" y1="56.41" x2="33.56" y2="38.03" xlink:href="#新建渐变色板_1"/>
    <linearGradient id="新建渐变色板_1-12" x1="42.42" y1="56.41" x2="42.42" y2="38.03" xlink:href="#新建渐变色板_1"/>
    <linearGradient id="新建渐变色板_1-13" x1="60.13" y1="56.41" x2="60.13" y2="38.03" xlink:href="#新建渐变色板_1"/>
    <linearGradient id="新建渐变色板_1-14" x1="51.28" y1="56.41" x2="51.28" y2="38.03" xlink:href="#新建渐变色板_1"/>
    <linearGradient id="新建渐变色板_1-15" x1="74.23" y1="51.07" x2="93.59" y2="51.07" xlink:href="#新建渐变色板_1"/>
  </defs>
  <g class="cls-1">
    <g id="图层_2" data-name="图层 2">
      <g id="图层_3" data-name="图层 3">
        <g class="cls-2">
          <path class="cls-3" d="M.52,105.11H258.19V.52H.52Z"/>
          <g class="cls-4">
            <rect class="cls-5" x="3.9" y="3.89" width="250.92" height="97.85"/>
            <rect class="cls-6" x="4.41" y="4.41" width="249.9" height="96.82"/>
            <rect class="cls-7" x="4.92" y="4.92" width="248.87" height="95.8"/>
            <rect class="cls-8" x="5.43" y="5.43" width="247.85" height="94.77"/>
            <rect class="cls-9" x="5.94" y="5.94" width="246.82" height="93.75"/>
            <rect class="cls-10" x="6.45" y="6.45" width="245.8" height="92.73"/>
            <rect class="cls-11" x="6.97" y="6.97" width="244.78" height="91.7"/>
            <rect class="cls-12" x="7.48" y="7.48" width="243.75" height="90.68"/>
            <rect class="cls-13" x="7.99" y="7.99" width="242.73" height="89.65"/>
            <rect class="cls-14" x="8.5" y="8.5" width="241.7" height="88.63"/>
            <rect class="cls-15" x="9.01" y="9.01" width="240.68" height="87.61"/>
            <rect class="cls-16" x="9.53" y="9.53" width="239.66" height="86.58"/>
            <rect class="cls-17" x="10.04" y="10.04" width="238.63" height="85.56"/>
            <rect class="cls-18" x="10.55" y="10.55" width="237.61" height="84.53"/>
            <rect class="cls-19" x="11.06" y="11.06" width="236.58" height="83.51"/>
            <rect class="cls-20" x="11.57" y="11.57" width="235.56" height="82.49"/>
            <rect class="cls-21" x="12.09" y="12.09" width="234.54" height="81.46"/>
            <rect class="cls-22" x="12.6" y="12.6" width="233.51" height="80.44"/>
            <rect class="cls-23" x="13.11" y="13.11" width="232.49" height="79.42"/>
            <rect class="cls-24" x="13.62" y="13.62" width="231.47" height="78.39"/>
            <rect class="cls-25" x="14.13" y="14.13" width="230.44" height="77.37"/>
            <rect class="cls-26" x="14.65" y="14.65" width="229.42" height="76.34"/>
          </g>
          <polyline class="cls-27" points="199.9 105.11 258.19 105.11 258.19 93.06"/>
          <polyline class="cls-27" points="25.44 0.52 0.52 0.52 0.52 19.29"/>
          <polygon class="cls-28" points="3.9 3.9 3.9 82.7 254.81 27.63 254.81 3.9 3.9 3.9"/>
          <path class="cls-5" d="M116,58.17c.38.22.82.56,1.48,1,1.34.82,3,.94,5.24.94a68.23,68.23,0,0,0,7.34-.44,7.83,7.83,0,0,0-.58,2c-1.38.1-4.68.2-6.84.2-2.44,0-4.08-.24-5.46-1.06-.8-.46-1.5-1.1-1.92-1.1-.64,0-1.6,1.22-2.54,2.46l-1.26-1.76a9.73,9.73,0,0,1,2.72-2.16v-6h-2.6V50.53H116Zm-.46-9.66c-.78-.72-2.36-1.92-3.5-2.75l1.24-1.18c1.12.76,2.72,1.87,3.54,2.57Zm2.8,9.44a.28.28,0,0,0,0,.12,15.11,15.11,0,0,0-.68-1.84c.38-.1.72-.52,1.1-1.12a23.22,23.22,0,0,0,2.1-4.1H117V49.29h12.72V51h-6.66a32.61,32.61,0,0,1-2.76,4.88l5.78-.44c-.58-1-1.2-2.1-1.76-3l1.56-.72c1.18,1.88,2.74,4.44,3.48,5.94l-1.66.88c-.2-.44-.46-1-.74-1.5-7.06.64-8,.76-8.64,1Zm10-11.4h-10V44.8h10Z"/>
          <path class="cls-5" d="M138.19,57.13l-1.58.4V62H135V57.93c-1.1.26-2.16.52-3.06.72l-.4-1.74c1-.18,2.14-.42,3.46-.7V53.75h-1.48a2.92,2.92,0,0,0-1.42.28,8.58,8.58,0,0,0-.52-1.52c.36-.08.58-.72.88-1.6a29.88,29.88,0,0,0,.8-3.28h-1.64V46h2c.12-.75.24-1.53.3-2.29l1.7.26c-.1.66-.22,1.36-.34,2h2.82v1.66h-3.18a36.61,36.61,0,0,1-1.34,4.44H135V49.19h1.58v2.88h1.44v1.68h-1.44v2.14l1.44-.3Zm7.14-12.87a6.91,6.91,0,0,1-.44.62,14.87,14.87,0,0,0,5.32,3.49,4.83,4.83,0,0,0-1.14,1.42c-.46-.22-.9-.46-1.34-.72V50h-7.62v-.76a14.31,14.31,0,0,1-1.3.74,7.84,7.84,0,0,0-1.22-1.4,14.94,14.94,0,0,0,6.22-5Zm-1,16c0,.72-.12,1.16-.56,1.42a4.6,4.6,0,0,1-2,.26,4.79,4.79,0,0,0-.44-1.48c.6,0,1.1,0,1.28,0s.22-.06.22-.24V58h-2.38v4h-1.5V51.11h5.38Zm-3.88-7.66v1.32h2.38V52.57Zm2.38,4V55.27h-2.38v1.34Zm4-8.14a16.25,16.25,0,0,1-2.86-2.42,16.47,16.47,0,0,1-2.72,2.42Zm-.12,10.3h-1.42V51.55h1.42Zm1.1-8h1.46v9.26c0,.82-.14,1.26-.7,1.5a7,7,0,0,1-2.56.28,5.33,5.33,0,0,0-.48-1.48c.88,0,1.72,0,2,0s.32-.06.32-.3Z"/>
          <polyline class="cls-29" points="72.64 38.75 88.2 38.75 92.72 52.82 92.72 66.89 87.95 66.89"/>
          <polyline class="cls-30" points="29.2 66.89 23.64 66.89 23.64 35.01 69.14 35.01 69.14 59.32"/>
          <line class="cls-31" x1="79.15" y1="66.89" x2="49.74" y2="66.89"/>
          <line class="cls-32" x1="72.64" y1="38.75" x2="72.64" y2="66.89"/>
          <line class="cls-33" x1="72.64" y1="59.12" x2="23.65" y2="59.12"/>
          <polyline class="cls-34" points="89.57 43.02 82.49 43.02 82.49 49.88 92.72 52.82"/>
          <path class="cls-35" d="M49.74,66.38A4.41,4.41,0,1,1,45.33,62,4.4,4.4,0,0,1,49.74,66.38Z"/>
          <path class="cls-36" d="M88,66.38A4.41,4.41,0,1,1,83.57,62,4.41,4.41,0,0,1,88,66.38Z"/>
          <circle class="cls-37" cx="33.56" cy="66.38" r="4.41"/>
          <line class="cls-38" x1="37.94" y1="66.89" x2="40.95" y2="66.89"/>
          <line class="cls-39" x1="33.56" y1="55.55" x2="33.56" y2="38.9"/>
          <line class="cls-40" x1="42.42" y1="55.55" x2="42.42" y2="38.9"/>
          <line class="cls-41" x1="60.13" y1="55.55" x2="60.13" y2="38.9"/>
          <line class="cls-42" x1="51.28" y1="55.55" x2="51.28" y2="38.9"/>
          <polyline class="cls-43" points="80.77 43.02 75.09 43.02 75.09 59.12 92.72 59.12"/>
        </g>
      </g>
    </g>
  </g>
</svg>