<svg xmlns="http://www.w3.org/2000/svg" xmlns:xlink="http://www.w3.org/1999/xlink" viewBox="0 0 258.71 105.63">
  <defs>
    <style>.cls-1{isolation:isolate;}.cls-2,.cls-27,.cls-29,.cls-3,.cls-31,.cls-32,.cls-33,.cls-34,.cls-35{fill:none;}.cls-3{stroke:#31756c;mix-blend-mode:color-dodge;}.cls-27,.cls-3{stroke-miterlimit:10;stroke-width:1.05px;}.cls-4{opacity:0.2;}.cls-10,.cls-11,.cls-12,.cls-13,.cls-14,.cls-15,.cls-16,.cls-17,.cls-18,.cls-19,.cls-20,.cls-21,.cls-22,.cls-23,.cls-24,.cls-25,.cls-26,.cls-5,.cls-6,.cls-7,.cls-8,.cls-9{fill:#00dcff;}.cls-6{opacity:0.95;}.cls-7{opacity:0.9;}.cls-8{opacity:0.86;}.cls-9{opacity:0.81;}.cls-10{opacity:0.76;}.cls-11{opacity:0.71;}.cls-12{opacity:0.67;}.cls-13{opacity:0.62;}.cls-14{opacity:0.57;}.cls-15{opacity:0.52;}.cls-16{opacity:0.48;}.cls-17{opacity:0.43;}.cls-18{opacity:0.38;}.cls-19{opacity:0.33;}.cls-20{opacity:0.29;}.cls-21{opacity:0.24;}.cls-22{opacity:0.19;}.cls-23{opacity:0.14;}.cls-24{opacity:0.1;}.cls-25{opacity:0.05;}.cls-26{opacity:0;}.cls-27{stroke:#5cdaff;}.cls-28{fill:url(#未命名的渐变_16);}.cls-29,.cls-31,.cls-32,.cls-33,.cls-34,.cls-35{stroke-linecap:round;stroke-linejoin:round;stroke-width:1.6px;}.cls-29{stroke:url(#新建渐变色板_1);}.cls-30{fill:url(#新建渐变色板_1);}.cls-31{stroke:url(#新建渐变色板_1-3);}.cls-32{stroke:url(#新建渐变色板_1-4);}.cls-33{stroke:url(#新建渐变色板_1-5);}.cls-34{stroke:url(#新建渐变色板_1-6);}.cls-35{stroke:url(#新建渐变色板_1-7);}</style>
    <linearGradient id="未命名的渐变_16" x1="111.17" y1="6.1" x2="143.06" y2="71.34" gradientUnits="userSpaceOnUse">
      <stop offset="0.37" stop-color="#fff" stop-opacity="0.05"/>
      <stop offset="0.62" stop-color="#fff" stop-opacity="0.07"/>
      <stop offset="0.96" stop-color="#fff" stop-opacity="0.14"/>
      <stop offset="1" stop-color="#fff" stop-opacity="0.15"/>
    </linearGradient>
    <linearGradient id="新建渐变色板_1" x1="58.25" y1="62.25" x2="58.25" y2="43.66" gradientUnits="userSpaceOnUse">
      <stop offset="0" stop-color="#00d7ff"/>
      <stop offset="0.09" stop-color="#0fd9ff"/>
      <stop offset="0.27" stop-color="#36dfff"/>
      <stop offset="0.52" stop-color="#75e9ff"/>
      <stop offset="0.83" stop-color="#cbf7ff"/>
      <stop offset="1" stop-color="#fff"/>
    </linearGradient>
    <linearGradient id="新建渐变色板_1-3" x1="29.18" y1="35.82" x2="53.18" y2="35.82" xlink:href="#新建渐变色板_1"/>
    <linearGradient id="新建渐变色板_1-4" x1="63.38" y1="35.82" x2="87.37" y2="35.82" xlink:href="#新建渐变色板_1"/>
    <linearGradient id="新建渐变色板_1-5" x1="29.18" y1="69.81" x2="53.18" y2="69.81" xlink:href="#新建渐变色板_1"/>
    <linearGradient id="新建渐变色板_1-6" x1="63.38" y1="69.81" x2="87.37" y2="69.81" xlink:href="#新建渐变色板_1"/>
    <linearGradient id="新建渐变色板_1-7" x1="41.22" y1="52.82" x2="75.29" y2="52.82" xlink:href="#新建渐变色板_1"/>
  </defs>
  <g class="cls-1">
    <g id="图层_2" data-name="图层 2">
      <g id="图层_3" data-name="图层 3">
        <g class="cls-2">
          <path class="cls-3" d="M.52,105.11H258.19V.52H.52Z"/>
          <g class="cls-4">
            <rect class="cls-5" x="3.9" y="3.89" width="250.92" height="97.85"/>
            <rect class="cls-6" x="4.41" y="4.41" width="249.9" height="96.82"/>
            <rect class="cls-7" x="4.92" y="4.92" width="248.87" height="95.8"/>
            <rect class="cls-8" x="5.43" y="5.43" width="247.85" height="94.77"/>
            <rect class="cls-9" x="5.94" y="5.94" width="246.82" height="93.75"/>
            <rect class="cls-10" x="6.45" y="6.45" width="245.8" height="92.73"/>
            <rect class="cls-11" x="6.97" y="6.97" width="244.78" height="91.7"/>
            <rect class="cls-12" x="7.48" y="7.48" width="243.75" height="90.68"/>
            <rect class="cls-13" x="7.99" y="7.99" width="242.73" height="89.65"/>
            <rect class="cls-14" x="8.5" y="8.5" width="241.7" height="88.63"/>
            <rect class="cls-15" x="9.01" y="9.01" width="240.68" height="87.61"/>
            <rect class="cls-16" x="9.53" y="9.53" width="239.66" height="86.58"/>
            <rect class="cls-17" x="10.04" y="10.04" width="238.63" height="85.56"/>
            <rect class="cls-18" x="10.55" y="10.55" width="237.61" height="84.53"/>
            <rect class="cls-19" x="11.06" y="11.06" width="236.58" height="83.51"/>
            <rect class="cls-20" x="11.57" y="11.57" width="235.56" height="82.49"/>
            <rect class="cls-21" x="12.09" y="12.09" width="234.54" height="81.46"/>
            <rect class="cls-22" x="12.6" y="12.6" width="233.51" height="80.44"/>
            <rect class="cls-23" x="13.11" y="13.11" width="232.49" height="79.42"/>
            <rect class="cls-24" x="13.62" y="13.62" width="231.47" height="78.39"/>
            <rect class="cls-25" x="14.13" y="14.13" width="230.44" height="77.37"/>
            <rect class="cls-26" x="14.65" y="14.65" width="229.42" height="76.34"/>
          </g>
          <polyline class="cls-27" points="199.9 105.11 258.19 105.11 258.19 93.06"/>
          <polyline class="cls-27" points="25.44 0.52 0.52 0.52 0.52 19.29"/>
          <polygon class="cls-28" points="3.9 3.9 3.9 82.7 254.81 27.63 254.81 3.9 3.9 3.9"/>
          <line class="cls-29" x1="58.25" y1="61.45" x2="58.25" y2="46.29"/>
          <polygon class="cls-30" points="60.97 49.48 58.25 46.77 55.53 49.48 55.53 47.18 58.25 44.46 60.97 47.18 60.97 49.48"/>
          <polyline class="cls-31" points="44.19 44.71 29.98 44.71 29.98 26.93 52.37 26.93 52.37 37.69"/>
          <polyline class="cls-32" points="64.18 37.7 64.18 26.93 86.57 26.93 86.57 44.71 72.31 44.71"/>
          <polyline class="cls-33" points="52.37 67.95 52.37 78.7 29.98 78.7 29.98 60.92 44.19 60.92"/>
          <polyline class="cls-34" points="72.31 60.92 86.57 60.92 86.57 78.7 64.18 78.7 64.18 67.93"/>
          <circle class="cls-35" cx="58.25" cy="52.82" r="16.23"/>
          <path class="cls-5" d="M118.55,49.06a26.4,26.4,0,0,1-2.18,3.09V62.59h-1.86V54.21a20.3,20.3,0,0,1-2,1.8,11.87,11.87,0,0,0-1.32-1.56,21.27,21.27,0,0,0,5.58-6.05Zm-.74-4.22a26,26,0,0,1-5.3,5.08,8.88,8.88,0,0,0-1.1-1.48A18.28,18.28,0,0,0,116,44.12Zm11.9,7.69h-2.84v7.72c0,1-.24,1.54-1,1.82a13.41,13.41,0,0,1-3.72.28,8.31,8.31,0,0,0-.64-1.78c1.26,0,2.6,0,3,0s.5-.1.5-.4V52.53h-6.3V50.77h11Zm-.48-5.47h-9.72V45.3h9.72Z"/>
          <path class="cls-5" d="M149.51,59.67v1.84H131.93V59.67h5.38V44.38h1.9V59.67h3V44.4h1.9V59.67Zm-14.64-3.4A58.68,58.68,0,0,0,132.31,49l1.7-.54a70.28,70.28,0,0,1,2.72,7.09Zm14.36-6.89a58.48,58.48,0,0,1-3.32,7l-1.54-.8a40.46,40.46,0,0,0,3.16-7Z"/>
          <path class="cls-5" d="M155,48.32V52c0,3.08-.26,7.68-1.9,10.7a6.66,6.66,0,0,0-1.62-1.06c1.5-2.8,1.64-6.82,1.64-9.64V46.56h7.76c-.26-.7-.58-1.5-.9-2.16l1.84-.46A20.7,20.7,0,0,1,163,46.56h6.58v1.76Zm14.8,11.53v1.76H155V59.85h7.66a34.83,34.83,0,0,0,4.16-10.43l2,.68a43.25,43.25,0,0,1-4.18,9.75ZM158.13,58A55.61,55.61,0,0,0,156,51.12l1.62-.62a52.71,52.71,0,0,1,2.26,6.73Zm3.62-1.18A55.89,55.89,0,0,0,160.13,50l1.7-.44a55.87,55.87,0,0,1,1.72,6.75Z"/>
          <path class="cls-5" d="M188.49,60.15c0,1.08-.26,1.64-1,1.92a11,11,0,0,1-3.74.32,7.68,7.68,0,0,0-.62-1.8c1.28.06,2.6,0,3,0s.5-.12.5-.5V56.55h-4.84v5.72h-1.86V56.55h-4.6a11.47,11.47,0,0,1-2.5,6.06,6.16,6.16,0,0,0-1.46-1.22c2.18-2.42,2.38-6,2.38-8.78V45.48h14.74Zm-8.56-5.36v-3h-4.34v.8c0,.68,0,1.42-.08,2.16Zm-4.34-7.53v2.82h4.34V47.26Zm11,0h-4.84v2.82h4.84Zm0,7.53v-3h-4.84v3Z"/>
        </g>
      </g>
    </g>
  </g>
</svg>