<svg xmlns="http://www.w3.org/2000/svg" xmlns:xlink="http://www.w3.org/1999/xlink" viewBox="0 0 258.71 105.63">
  <defs>
    <style>.cls-1{isolation:isolate;}.cls-2,.cls-26,.cls-28,.cls-29,.cls-30,.cls-31,.cls-32,.cls-33{fill:none;}.cls-2{stroke:#31756c;mix-blend-mode:color-dodge;}.cls-2,.cls-26{stroke-miterlimit:10;stroke-width:1.05px;}.cls-3{opacity:0.2;}.cls-10,.cls-11,.cls-12,.cls-13,.cls-14,.cls-15,.cls-16,.cls-17,.cls-18,.cls-19,.cls-20,.cls-21,.cls-22,.cls-23,.cls-24,.cls-25,.cls-4,.cls-5,.cls-6,.cls-7,.cls-8,.cls-9{fill:#00dcff;}.cls-5{opacity:0.95;}.cls-6{opacity:0.9;}.cls-7{opacity:0.86;}.cls-8{opacity:0.81;}.cls-9{opacity:0.76;}.cls-10{opacity:0.71;}.cls-11{opacity:0.67;}.cls-12{opacity:0.62;}.cls-13{opacity:0.57;}.cls-14{opacity:0.52;}.cls-15{opacity:0.48;}.cls-16{opacity:0.43;}.cls-17{opacity:0.38;}.cls-18{opacity:0.33;}.cls-19{opacity:0.29;}.cls-20{opacity:0.24;}.cls-21{opacity:0.19;}.cls-22{opacity:0.14;}.cls-23{opacity:0.1;}.cls-24{opacity:0.05;}.cls-25{opacity:0;}.cls-26{stroke:#5cdaff;}.cls-27{fill:url(#未命名的渐变_16);}.cls-28,.cls-29,.cls-30,.cls-31,.cls-32,.cls-33{stroke-linecap:round;stroke-linejoin:round;stroke-width:1.73px;}.cls-28{stroke:url(#新建渐变色板_1);}.cls-29{stroke:url(#新建渐变色板_1-2);}.cls-30{stroke:url(#新建渐变色板_1-3);}.cls-31{stroke:url(#新建渐变色板_1-4);}.cls-32{stroke:url(#新建渐变色板_1-5);}.cls-33{stroke:url(#新建渐变色板_1-6);}</style>
    <linearGradient id="未命名的渐变_16" x1="111.17" y1="6.1" x2="143.06" y2="71.34" gradientUnits="userSpaceOnUse">
      <stop offset="0.37" stop-color="#fff" stop-opacity="0.05"/>
      <stop offset="0.62" stop-color="#fff" stop-opacity="0.07"/>
      <stop offset="0.96" stop-color="#fff" stop-opacity="0.14"/>
      <stop offset="1" stop-color="#fff" stop-opacity="0.15"/>
    </linearGradient>
    <linearGradient id="新建渐变色板_1" x1="73.56" y1="57.16" x2="89.58" y2="57.16" gradientUnits="userSpaceOnUse">
      <stop offset="0" stop-color="#00d7ff"/>
      <stop offset="0.09" stop-color="#0fd9ff"/>
      <stop offset="0.27" stop-color="#36dfff"/>
      <stop offset="0.52" stop-color="#75e9ff"/>
      <stop offset="0.83" stop-color="#cbf7ff"/>
      <stop offset="1" stop-color="#fff"/>
    </linearGradient>
    <linearGradient id="新建渐变色板_1-2" x1="26.97" y1="60.63" x2="75.29" y2="60.63" xlink:href="#新建渐变色板_1"/>
    <linearGradient id="新建渐变色板_1-3" x1="80.7" y1="37.2" x2="89.58" y2="37.2" xlink:href="#新建渐变色板_1"/>
    <linearGradient id="新建渐变色板_1-4" x1="26.97" y1="40.67" x2="63.29" y2="40.67" xlink:href="#新建渐变色板_1"/>
    <linearGradient id="新建渐变色板_1-5" x1="53.34" y1="46.35" x2="83.25" y2="46.35" xlink:href="#新建渐变色板_1"/>
    <linearGradient id="新建渐变色板_1-6" x1="45.94" y1="49.07" x2="83.09" y2="49.07" xlink:href="#新建渐变色板_1"/>
  </defs>
  <g class="cls-1">
    <g id="图层_2" data-name="图层 2">
      <g id="图层_3" data-name="图层 3">
        <path class="cls-2" d="M.52,105.11H258.19V.52H.52Z"/>
        <g class="cls-3">
          <rect class="cls-4" x="3.9" y="3.89" width="250.92" height="97.85"/>
          <rect class="cls-5" x="4.41" y="4.41" width="249.9" height="96.82"/>
          <rect class="cls-6" x="4.92" y="4.92" width="248.87" height="95.8"/>
          <rect class="cls-7" x="5.43" y="5.43" width="247.85" height="94.77"/>
          <rect class="cls-8" x="5.94" y="5.94" width="246.82" height="93.75"/>
          <rect class="cls-9" x="6.45" y="6.45" width="245.8" height="92.73"/>
          <rect class="cls-10" x="6.97" y="6.97" width="244.78" height="91.7"/>
          <rect class="cls-11" x="7.48" y="7.48" width="243.75" height="90.68"/>
          <rect class="cls-12" x="7.99" y="7.99" width="242.73" height="89.65"/>
          <rect class="cls-13" x="8.5" y="8.5" width="241.7" height="88.63"/>
          <rect class="cls-14" x="9.01" y="9.01" width="240.68" height="87.61"/>
          <rect class="cls-15" x="9.53" y="9.53" width="239.66" height="86.58"/>
          <rect class="cls-16" x="10.04" y="10.04" width="238.63" height="85.56"/>
          <rect class="cls-17" x="10.55" y="10.55" width="237.61" height="84.53"/>
          <rect class="cls-18" x="11.06" y="11.06" width="236.58" height="83.51"/>
          <rect class="cls-19" x="11.57" y="11.57" width="235.56" height="82.49"/>
          <rect class="cls-20" x="12.09" y="12.09" width="234.54" height="81.46"/>
          <rect class="cls-21" x="12.6" y="12.6" width="233.51" height="80.44"/>
          <rect class="cls-22" x="13.11" y="13.11" width="232.49" height="79.42"/>
          <rect class="cls-23" x="13.62" y="13.62" width="231.47" height="78.39"/>
          <rect class="cls-24" x="14.13" y="14.13" width="230.44" height="77.37"/>
          <rect class="cls-25" x="14.65" y="14.65" width="229.42" height="76.34"/>
        </g>
        <polyline class="cls-26" points="199.9 105.11 258.19 105.11 258.19 93.06"/>
        <polyline class="cls-26" points="25.44 0.52 0.52 0.52 0.52 19.29"/>
        <polygon class="cls-27" points="3.9 3.9 3.9 82.7 254.81 27.63 254.81 3.9 3.9 3.9"/>
        <polyline class="cls-28" points="74.42 77.12 88.72 70.19 88.72 37.2 83.25 39.85"/>
        <polyline class="cls-29" points="74.42 64.76 74.42 77.12 27.83 77.12 27.83 44.13 56.15 44.13"/>
        <line class="cls-30" x1="88.72" y1="37.2" x2="81.57" y2="37.2"/>
        <polyline class="cls-31" points="62.42 37.2 42.13 37.2 27.83 44.13 56.15 44.13"/>
        <path class="cls-32" d="M82.22,21.31S75.6,32.71,64.1,37.07,53.14,63,55.75,69.18s19.91-1.35,23.77-14.71S82.22,21.31,82.22,21.31Z"/>
        <path class="cls-33" d="M82.22,21.31S79.64,46,68.42,59.73,46.8,76.84,46.8,76.84"/>
        <path class="cls-4" d="M113.93,46.81a12.51,12.51,0,0,1-1.76,2.46,10.29,10.29,0,0,0-.86-1.68,12.35,12.35,0,0,0,2.62-4.8l1.54.46a15,15,0,0,1-.66,1.8h2.94v1.76Zm3.48,10.64a7.63,7.63,0,0,0,.24,1.48,20.49,20.49,0,0,0-3.56,2v0a6.47,6.47,0,0,0-.72-1.44,1.63,1.63,0,0,0,.84-1.44V54.19h-2.42V52.53h2.42V50.15h-1.34V48.47h4.6v1.68h-1.64v2.38h1.88v1.66h-1.88v4Zm2.9-.06v3.66h-1.64V57.73l-.8.16-.34-1.64,1.14-.2V44.87l.06,0,0,0a12.26,12.26,0,0,0,2.88-2.14L123,44a18.41,18.41,0,0,1-2.72,1.7v2.06h2.3v1.64h-2.3v2.3h2.3v1.62h-2.3v2.5l2.7-.48.14,1.52Zm9-5.54a14.66,14.66,0,0,1-2.2,5.64,8.05,8.05,0,0,0,2.9,2.16,5.55,5.55,0,0,0-1.14,1.4A9.76,9.76,0,0,1,126,58.83a10.36,10.36,0,0,1-3.2,2.3,5.74,5.74,0,0,0-1.06-1.4A9.47,9.47,0,0,0,125,57.47a15.25,15.25,0,0,1-1.8-4.18l1-.24h-1.08V51.51H128l.32,0Zm-4.22-5.22a5.58,5.58,0,0,1-1.68,4.46,8.94,8.94,0,0,0-1.2-.9,4.27,4.27,0,0,0,1.42-3.6v-2.9h4.68v4.78c0,.5,0,.64.2.64H129a2.94,2.94,0,0,0,.72-.08c0,.38.06,1,.12,1.3a2,2,0,0,1-.82.12h-.64c-1.34,0-1.6-.56-1.6-2v-3.2h-1.74Zm-.28,6.42a12.51,12.51,0,0,0,1.28,3,11.69,11.69,0,0,0,1.28-3Z"/>
        <path class="cls-4" d="M136,57.45c.36.18.74.52,1.34.88,1.22.7,2.92.8,5.06.8a70.69,70.69,0,0,0,7.77-.44,6.38,6.38,0,0,0-.53,1.86c-1.76.12-5.2.22-7.3.22-2.36,0-4-.18-5.24-.9-.72-.42-1.32-1-1.68-1-.66,0-1.64,1-2.56,2.12l-1.12-1.62a9.14,9.14,0,0,1,2.48-1.78V52.09h-2.46V50.37H136Zm-1-9.74a17.84,17.84,0,0,0-3-3.22l1.38-1a19.11,19.11,0,0,1,3,3.1Zm4.64-1a10.84,10.84,0,0,1-1.28,1.9,9.83,9.83,0,0,0-1.56-.88A11.75,11.75,0,0,0,139.25,43l1.74.38a18.37,18.37,0,0,1-.62,1.76h2.06V42.75h1.84v2.38h4.52v1.6h-4.52v2.16h5.36v1.58H136.89V48.89h5.54V46.73Zm-1.2,10.86V51.93h9.74v5.66Zm1.72-1.52h6.2V53.45h-6.2Z"/>
        <path class="cls-4" d="M163.87,59.79a11.31,11.31,0,0,1-3.5-1.62A6.51,6.51,0,0,1,156,59.79c-2.82,0-4.6-1.78-4.6-4.1,0-2,1.34-3.24,2.84-4.24a7.48,7.48,0,0,1-1-3.32,3.47,3.47,0,0,1,3.58-3.6,2.89,2.89,0,0,1,3.12,3c0,1.94-1.64,3.16-3.26,4.32a18.93,18.93,0,0,0,3.5,3.66,11.94,11.94,0,0,0,2-4.08h2.12a15.89,15.89,0,0,1-2.56,5.18,10,10,0,0,0,2.7,1.26Zm-7.6-1.8a4.16,4.16,0,0,0,2.54-1,20.75,20.75,0,0,1-3.64-4,3.5,3.5,0,0,0-1.58,2.54A2.48,2.48,0,0,0,156.27,58Zm-.44-7.56c1.28-.82,2.32-1.62,2.32-2.84,0-.8-.38-1.46-1.28-1.46a1.76,1.76,0,0,0-1.66,2A5.6,5.6,0,0,0,155.83,50.43Z"/>
        <path class="cls-4" d="M183.65,57.49h-6.84v3.62h-2V57.49H166V55.67h8.8V53h-4.4a4.7,4.7,0,0,0-2.22.3,12,12,0,0,0-.7-1.92c.5-.14.9-.68,1.44-1.56a21.58,21.58,0,0,0,1.4-2.46h-4V45.61h4.82c.42-1,.82-2,1.16-3l2.14.56c-.32.82-.68,1.62-1.08,2.42h9.86v1.78H172.53a37.86,37.86,0,0,1-2.3,3.86h4.6V48.43h2v2.82H182V53h-5.18v2.64h6.84Z"/>
        <path class="cls-4" d="M194.79,46.33s0,.66,0,.92c-.36,8.54-.66,11.54-1.38,12.48a1.94,1.94,0,0,1-1.42.88,12.94,12.94,0,0,1-2.22,0,4.88,4.88,0,0,0-.54-1.9c.78.06,1.48.08,1.84.08a.77.77,0,0,0,.7-.36c.5-.6.84-3.24,1.12-10.32h-2.44c-.24,5-1,9.82-3.4,12.92a5.85,5.85,0,0,0-1.48-1.32c2.24-2.72,2.86-7.08,3-11.6H186V46.33h2.62c0-1.18,0-2.38,0-3.52h1.88c0,1.14,0,2.34,0,3.52Zm8.34-1.2V60.61h-1.92V59.33h-3.34v1.44H196V45.13Zm-1.92,12.42V46.93h-3.34V57.55Z"/>
        <path class="cls-4" d="M223.79,57.79v1.86h-17.9V57.79h7.82v-11H207V44.91h15.8v1.92h-7v11Z"/>
      </g>
    </g>
  </g>
</svg>