<svg xmlns="http://www.w3.org/2000/svg" xmlns:xlink="http://www.w3.org/1999/xlink" viewBox="0 0 258.71 105.63">
  <defs>
    <style>.cls-1{isolation:isolate;}.cls-2,.cls-26,.cls-28,.cls-29,.cls-30,.cls-31,.cls-32,.cls-33{fill:none;}.cls-2{stroke:#31756c;mix-blend-mode:color-dodge;}.cls-2,.cls-26{stroke-miterlimit:10;stroke-width:1.05px;}.cls-3{opacity:0.2;}.cls-10,.cls-11,.cls-12,.cls-13,.cls-14,.cls-15,.cls-16,.cls-17,.cls-18,.cls-19,.cls-20,.cls-21,.cls-22,.cls-23,.cls-24,.cls-25,.cls-4,.cls-5,.cls-6,.cls-7,.cls-8,.cls-9{fill:#00dcff;}.cls-5{opacity:0.95;}.cls-6{opacity:0.9;}.cls-7{opacity:0.86;}.cls-8{opacity:0.81;}.cls-9{opacity:0.76;}.cls-10{opacity:0.71;}.cls-11{opacity:0.67;}.cls-12{opacity:0.62;}.cls-13{opacity:0.57;}.cls-14{opacity:0.52;}.cls-15{opacity:0.48;}.cls-16{opacity:0.43;}.cls-17{opacity:0.38;}.cls-18{opacity:0.33;}.cls-19{opacity:0.29;}.cls-20{opacity:0.24;}.cls-21{opacity:0.19;}.cls-22{opacity:0.14;}.cls-23{opacity:0.1;}.cls-24{opacity:0.05;}.cls-25{opacity:0;}.cls-26{stroke:#5cdaff;}.cls-27{fill:url(#未命名的渐变_16);}.cls-28,.cls-29,.cls-30,.cls-31,.cls-32,.cls-33{stroke-linecap:round;stroke-linejoin:round;stroke-width:1.77px;}.cls-28{stroke:url(#新建渐变色板_1);}.cls-29{stroke:url(#新建渐变色板_1-2);}.cls-30{stroke:url(#新建渐变色板_1-3);}.cls-31{stroke:url(#新建渐变色板_1-4);}.cls-32{stroke:url(#新建渐变色板_1-5);}.cls-33{stroke:url(#新建渐变色板_1-6);}</style>
    <linearGradient id="未命名的渐变_16" x1="111.17" y1="6.1" x2="143.06" y2="71.34" gradientUnits="userSpaceOnUse">
      <stop offset="0.37" stop-color="#fff" stop-opacity="0.05"/>
      <stop offset="0.62" stop-color="#fff" stop-opacity="0.07"/>
      <stop offset="0.96" stop-color="#fff" stop-opacity="0.14"/>
      <stop offset="1" stop-color="#fff" stop-opacity="0.15"/>
    </linearGradient>
    <linearGradient id="新建渐变色板_1" x1="35.2" y1="75.15" x2="76.19" y2="75.15" gradientUnits="userSpaceOnUse">
      <stop offset="0" stop-color="#00d7ff"/>
      <stop offset="0.09" stop-color="#0fd9ff"/>
      <stop offset="0.27" stop-color="#36dfff"/>
      <stop offset="0.52" stop-color="#75e9ff"/>
      <stop offset="0.83" stop-color="#cbf7ff"/>
      <stop offset="1" stop-color="#fff"/>
    </linearGradient>
    <linearGradient id="新建渐变色板_1-2" x1="32.08" y1="53.08" x2="53.23" y2="53.08" xlink:href="#新建渐变色板_1"/>
    <linearGradient id="新建渐变色板_1-3" x1="57.85" y1="52.81" x2="79.31" y2="52.81" xlink:href="#新建渐变色板_1"/>
    <linearGradient id="新建渐变色板_1-4" x1="48.64" y1="30.49" x2="62.75" y2="30.49" xlink:href="#新建渐变色板_1"/>
    <linearGradient id="新建渐变色板_1-5" x1="22.86" y1="75.15" x2="36.96" y2="75.15" xlink:href="#新建渐变色板_1"/>
    <linearGradient id="新建渐变色板_1-6" x1="74.43" y1="75.15" x2="88.53" y2="75.15" xlink:href="#新建渐变色板_1"/>
  </defs>
  <g class="cls-1">
    <g id="图层_2" data-name="图层 2">
      <g id="图层_3" data-name="图层 3">
        <path class="cls-2" d="M.52,105.11H258.19V.52H.52Z"/>
        <g class="cls-3">
          <rect class="cls-4" x="3.9" y="3.89" width="250.92" height="97.85"/>
          <rect class="cls-5" x="4.41" y="4.41" width="249.9" height="96.82"/>
          <rect class="cls-6" x="4.92" y="4.92" width="248.87" height="95.8"/>
          <rect class="cls-7" x="5.43" y="5.43" width="247.85" height="94.77"/>
          <rect class="cls-8" x="5.94" y="5.94" width="246.82" height="93.75"/>
          <rect class="cls-9" x="6.45" y="6.45" width="245.8" height="92.73"/>
          <rect class="cls-10" x="6.97" y="6.97" width="244.78" height="91.7"/>
          <rect class="cls-11" x="7.48" y="7.48" width="243.75" height="90.68"/>
          <rect class="cls-12" x="7.99" y="7.99" width="242.73" height="89.65"/>
          <rect class="cls-13" x="8.5" y="8.5" width="241.7" height="88.63"/>
          <rect class="cls-14" x="9.01" y="9.01" width="240.68" height="87.61"/>
          <rect class="cls-15" x="9.53" y="9.53" width="239.66" height="86.58"/>
          <rect class="cls-16" x="10.04" y="10.04" width="238.63" height="85.56"/>
          <rect class="cls-17" x="10.55" y="10.55" width="237.61" height="84.53"/>
          <rect class="cls-18" x="11.06" y="11.06" width="236.58" height="83.51"/>
          <rect class="cls-19" x="11.57" y="11.57" width="235.56" height="82.49"/>
          <rect class="cls-20" x="12.09" y="12.09" width="234.54" height="81.46"/>
          <rect class="cls-21" x="12.6" y="12.6" width="233.51" height="80.44"/>
          <rect class="cls-22" x="13.11" y="13.11" width="232.49" height="79.42"/>
          <rect class="cls-23" x="13.62" y="13.62" width="231.47" height="78.39"/>
          <rect class="cls-24" x="14.13" y="14.13" width="230.44" height="77.37"/>
          <rect class="cls-25" x="14.65" y="14.65" width="229.42" height="76.34"/>
        </g>
        <polyline class="cls-26" points="199.9 105.11 258.19 105.11 258.19 93.06"/>
        <polyline class="cls-26" points="25.44 0.52 0.52 0.52 0.52 19.29"/>
        <polygon class="cls-27" points="3.9 3.9 3.9 82.7 254.81 27.63 254.81 3.9 3.9 3.9"/>
        <line class="cls-28" x1="36.08" y1="75.15" x2="75.31" y2="75.15"/>
        <line class="cls-29" x1="52.35" y1="36.28" x2="32.96" y2="69.87"/>
        <line class="cls-30" x1="78.43" y1="69.87" x2="58.74" y2="35.76"/>
        <path class="cls-31" d="M61.86,30.49a6.17,6.17,0,1,1-6.17-6.17A6.17,6.17,0,0,1,61.86,30.49Z"/>
        <path class="cls-32" d="M36.08,75.15A6.17,6.17,0,1,1,29.91,69,6.16,6.16,0,0,1,36.08,75.15Z"/>
        <circle class="cls-33" cx="81.48" cy="75.15" r="6.17"/>
        <path class="cls-4" d="M114.23,46.19a12.27,12.27,0,0,1-2,2.62,9.31,9.31,0,0,0-.9-1.78,12.41,12.41,0,0,0,2.76-4.7l1.66.5c-.18.52-.4,1.06-.64,1.58h3.42v1.78Zm2.16,5.88h2.42v1.66h-2.42v3.88l2.12-1a7.84,7.84,0,0,0,.26,1.62c-3.32,1.68-3.9,2-4.24,2.32a5.47,5.47,0,0,0-.74-1.54,1.52,1.52,0,0,0,.84-1.38V53.73H112V52.07h2.62V49.69h-1.52V48h5.3v1.68h-2Zm12.9,6.34c0,.9-.2,1.38-.78,1.64a6.85,6.85,0,0,1-2.88.34,6.37,6.37,0,0,0-.56-1.64c.94.06,1.84,0,2.1,0s.4-.12.4-.4V45H121V57.09a27.06,27.06,0,0,0,2.58-5.28c-.76-1.54-1.6-3.12-2.38-4.46l1.28-.7c.6,1,1.2,2.08,1.8,3.18.42-1.38.82-2.78,1.14-4.2l1.54.3c-.5,2-1.08,3.94-1.72,5.78a38.36,38.36,0,0,1,2,4.68l-1.38.8a33.59,33.59,0,0,0-1.38-3.48,28.58,28.58,0,0,1-2.24,4.5,8,8,0,0,0-1.22-.82v3.24h-1.74V43.31h10.06Z"/>
        <path class="cls-4" d="M134.35,46.15a13,13,0,0,1-2.12,2.64,10.64,10.64,0,0,0-.9-1.78,12.15,12.15,0,0,0,3-4.68l1.66.52c-.2.5-.42,1-.68,1.54h4v1.76Zm4.74,10.18a9.29,9.29,0,0,0,.32,1.62c-3.74,2-4.34,2.32-4.7,2.68a6.49,6.49,0,0,0-.88-1.64,1.92,1.92,0,0,0,1-1.62V53.73H132V52.07h2.84V49.69H133V48h5.84v1.68h-2.28v2.38h2.78v1.66h-2.78v3.86Zm6.66-3.58c.74,2.78,2.16,5.12,4.28,6.28a8,8,0,0,0-1.26,1.54,10.36,10.36,0,0,1-4-5.64,11.24,11.24,0,0,1-4.5,5.7,6,6,0,0,0-1.32-1.36,9.51,9.51,0,0,0,4.56-6.52h-3.78V51h4c.06-.86.08-1.72.08-2.48v-1h-2.1a12.24,12.24,0,0,1-1.08,2.72,10.38,10.38,0,0,0-1.5-.92,16.86,16.86,0,0,0,1.7-6.18l1.72.26c-.1.84-.24,1.64-.4,2.42h1.66V42.43h1.82v3.34h3.6v1.7h-3.6v1c0,.78,0,1.62-.1,2.48h4.18v1.76Z"/>
        <path class="cls-4" d="M151.47,58.61a63.55,63.55,0,0,0,3.76-6.52l1.36,1.22c-1,2.16-2.36,4.58-3.54,6.52ZM155,48.07a25.81,25.81,0,0,0-3.22-4.1l1.42-1a27.72,27.72,0,0,1,3.32,3.92ZM168,51.47c-.18-.38-.4-.8-.66-1.28-8.22.58-9.22.66-9.92.92-.1-.36-.42-1.24-.62-1.76.42-.1.82-.54,1.36-1.24a31.57,31.57,0,0,0,3.32-5.84l1.94.56A41.21,41.21,0,0,1,159.69,49l6.62-.4a29.9,29.9,0,0,0-2.34-3l1.6-.8a29.37,29.37,0,0,1,4.14,5.78Zm-10,1.08h10v8h-1.88v-.78h-6.36v.84h-1.8Zm1.8,1.72v3.82h6.36V54.27Z"/>
        <path class="cls-4" d="M173.55,46.67a17.19,17.19,0,0,1-1,5.28l-1.2-.6a16.52,16.52,0,0,0,.94-4.86Zm3.08,11.4c-.3-.6-.9-1.6-1.42-2.46a11.76,11.76,0,0,1-2.52,5.1,6.18,6.18,0,0,0-1.22-1.28c2.38-2.86,2.66-6.56,2.66-10.1v-6.8h1.64V50a34.36,34.36,0,0,0,1-4.12l1.42.5c-.52,1.36-1,3.08-1.52,4.14l-.88-.4a33.86,33.86,0,0,1-.22,3.48c.54.62,2,2.66,2.3,3.16Zm5.1-3.2a18.78,18.78,0,0,1-3.14,4.8,10,10,0,0,0-1.28-1A13.69,13.69,0,0,0,180,54.35ZM185,53.33v5.28c0,.94-.18,1.42-.8,1.68a7.88,7.88,0,0,1-2.94.32,6.64,6.64,0,0,0-.56-1.68c.94,0,1.88,0,2.14,0s.38-.08.38-.34V53.33h-2.32a3.26,3.26,0,0,0-1.8.32,11.72,11.72,0,0,0-.6-1.62c.42-.12.74-.8,1.12-1.78.06-.14.16-.36.26-.66h-1.52v-1.7h2.1c.14-.54.32-1.1.48-1.72h-2.8v-1.7h3.24c.18-.72.32-1.48.44-2.2l1.8.34c-.12.6-.26,1.24-.42,1.86h6.2v1.7h-6.68c-.14.58-.32,1.14-.5,1.72H185v3.76h4v1.68Zm-1.78-1.68V49.59h-1.6c-.26.72-.54,1.42-.82,2.06Zm4.3,2.74c.84,1.38,1.88,3.26,2.38,4.36l-1.56.8c-.48-1.12-1.48-3-2.3-4.48Z"/>
      </g>
    </g>
  </g>
</svg>