<svg xmlns="http://www.w3.org/2000/svg" xmlns:xlink="http://www.w3.org/1999/xlink" viewBox="0 0 167.59 36.91"><defs><style>.cls-1{fill:url(#新建渐变色板_1);}</style><linearGradient id="新建渐变色板_1" y1="18.46" x2="167.59" y2="18.46" gradientUnits="userSpaceOnUse"><stop offset="0" stop-color="#00d7ff"/><stop offset="0.09" stop-color="#0fd9ff"/><stop offset="0.27" stop-color="#36dfff"/><stop offset="0.52" stop-color="#75e9ff"/><stop offset="0.83" stop-color="#cbf7ff"/><stop offset="1" stop-color="#fff"/></linearGradient></defs><g id="图层_2" data-name="图层 2"><g id="图层_2-2" data-name="图层 2"><path class="cls-1" d="M14.32,25.6A48.94,48.94,0,0,1,2.88,36.91,21.77,21.77,0,0,0,0,34a37.33,37.33,0,0,0,10.24-9.91Zm21.75-6.76V22.4H.6V18.84ZM4,3.4A46.13,46.13,0,0,1,10.2,14.84L6.56,16.56A45.71,45.71,0,0,0,.68,4.88Zm11.88-3a49.63,49.63,0,0,1,4.68,12l-3.76,1.36a48.66,48.66,0,0,0-4.4-12.2Zm9.64,23.64A127,127,0,0,1,36.23,34.39l-3.6,2.28A107,107,0,0,0,22.28,26ZM35.79,2.92a119.71,119.71,0,0,1-8.63,15.16l-3.52-1.44a80.32,80.32,0,0,0,8-15.12Z"/><path class="cls-1" d="M50.44,18.32a31,31,0,0,0-6-4.36l1.8-2.76a29.41,29.41,0,0,1,6.12,4Zm4.12,5.2c-1.76,4-4,8.83-6.2,12.83l-2.88-2.88a116.44,116.44,0,0,0,6.6-12.79Zm-2.2-15.6a32.37,32.37,0,0,0-5.92-4.6l2-2.68a30.45,30.45,0,0,1,6,4.28Zm9.72,5.88V12.2a23.74,23.74,0,0,1-4.16,4.32H76.51v10H71.72l3.32,1c-.88,1.75-1.76,3.63-2.6,5.19h8v3.16H54.24V32.67h6.92a18.3,18.3,0,0,0-1.76-5.15l3.36-.92a17.64,17.64,0,0,1,2,5.27l-2.64.8h6.6a46.44,46.44,0,0,0,2.56-6.19H57.64V16.72c-.8.56-1.56,1.12-2.4,1.6A12.46,12.46,0,0,0,53,15.72a19.15,19.15,0,0,0,5.4-4.28,41.13,41.13,0,0,0-3.88-3.36L56.64,5.8a35,35,0,0,1,3.76,3,21.09,21.09,0,0,0,2.08-4H55.76V1.6H64l.56-.12,2.28.88a28.7,28.7,0,0,1-3.52,8.2h8A38.92,38.92,0,0,1,67.24.8l3.2-.68a37.63,37.63,0,0,0,1.44,4A34.74,34.74,0,0,0,75.36.88l2.31,2.4C76.15,4.44,74.48,5.72,73,6.64c.44.84.92,1.6,1.36,2.32a38,38,0,0,0,4.11-3.48L81,7.92C79.27,9,77.51,10.16,76,11a22,22,0,0,0,5.6,4.36,9.3,9.3,0,0,0-2.4,3,24,24,0,0,1-6.67-6v1.4Zm-1.16,9.68H73.08v-4H60.92Z"/><path class="cls-1" d="M102.2,22.12c-1.24.44-2.56.84-3.84,1.28V36.75H94.8V24.48c-2,.68-4,1.28-5.64,1.76l-.76-3.76c1.72-.4,4-1,6.4-1.72v-9.2H92.2a54.65,54.65,0,0,1-1.44,6.36A18.51,18.51,0,0,0,88,16.44c1.2-3.28,1.84-8.44,2.2-13.36l3,.6C93,5.12,92.88,6.56,92.72,8H94.8V0h3.56V8h3.44v3.56H98.36v8.2l3.56-1.08Zm17.91-6.92v4.28h4.32v3.44h-4.32v9.51c0,2-.36,3.08-1.75,3.68s-3.48.64-6.44.64A14.08,14.08,0,0,0,110.84,33c2.16.08,4.32.08,4.92,0s.84-.16.84-.72V22.92H103V19.48H116.6V15.2H102.24V11.76h9.64V7.36h-7.36V4h7.36V0h3.52V4H123V7.36H115.4v4.4h9.31V15.2Zm-12.67,8.36a29.53,29.53,0,0,1,4.84,6.15l-2.88,1.92a29.58,29.58,0,0,0-4.68-6.35Z"/><path class="cls-1" d="M137.48,7.84a24.54,24.54,0,0,1-3.92,5.24,18.62,18.62,0,0,0-1.8-3.56,24.81,24.81,0,0,0,5.52-9.4l3.32,1c-.36,1-.8,2.12-1.28,3.16h6.84V7.84ZM141.8,19.6h4.84v3.32H141.8v7.75l4.24-2a15.68,15.68,0,0,0,.52,3.24c-6.64,3.36-7.8,4-8.48,4.64a11,11,0,0,0-1.48-3.08,3,3,0,0,0,1.68-2.76V22.92H133V19.6h5.24V14.84h-3V11.48h10.6v3.36h-4Zm25.79,12.67c0,1.8-.4,2.76-1.56,3.28s-2.92.68-5.75.68A12.74,12.74,0,0,0,159.16,33c1.88.12,3.68.08,4.2.08s.79-.24.79-.8V5.36H151V29.63a53.73,53.73,0,0,0,5.16-10.55c-1.52-3.08-3.2-6.24-4.76-8.92l2.56-1.4c1.2,2,2.4,4.16,3.6,6.36.84-2.76,1.64-5.56,2.28-8.4l3.08.6c-1,3.92-2.16,7.88-3.44,11.56a76.72,76.72,0,0,1,4,9.36l-2.76,1.59a67.1,67.1,0,0,0-2.76-6.95,57,57,0,0,1-4.48,9A16.1,16.1,0,0,0,151,30.23v6.48h-3.48V2.08h20.11Z"/></g></g></svg>