<svg xmlns="http://www.w3.org/2000/svg" xmlns:xlink="http://www.w3.org/1999/xlink" 
     viewBox="0 0 113.28 64.12" >
  <defs>
    <style>.cls-1{isolation:isolate;}.cls-10,.cls-100,.cls-101,.cls-102,.cls-103,.cls-104,.cls-105,.cls-106,.cls-107,.cls-108,.cls-109,.cls-11,.cls-110,.cls-111,.cls-112,.cls-113,.cls-114,.cls-115,.cls-116,.cls-117,.cls-118,.cls-119,.cls-12,.cls-120,.cls-121,.cls-122,.cls-123,.cls-124,.cls-125,.cls-126,.cls-127,.cls-128,.cls-129,.cls-13,.cls-130,.cls-131,.cls-132,.cls-133,.cls-134,.cls-135,.cls-136,.cls-137,.cls-138,.cls-139,.cls-14,.cls-140,.cls-141,.cls-142,.cls-143,.cls-144,.cls-145,.cls-146,.cls-147,.cls-148,.cls-149,.cls-15,.cls-150,.cls-151,.cls-152,.cls-153,.cls-154,.cls-155,.cls-156,.cls-157,.cls-16,.cls-162,.cls-163,.cls-17,.cls-18,.cls-19,.cls-2,.cls-20,.cls-21,.cls-22,.cls-23,.cls-24,.cls-25,.cls-26,.cls-27,.cls-28,.cls-29,.cls-3,.cls-30,.cls-31,.cls-32,.cls-33,.cls-34,.cls-35,.cls-36,.cls-37,.cls-38,.cls-39,.cls-40,.cls-41,.cls-42,.cls-43,.cls-44,.cls-45,.cls-46,.cls-47,.cls-48,.cls-49,.cls-50,.cls-51,.cls-52,.cls-53,.cls-54,.cls-55,.cls-56,.cls-57,.cls-58,.cls-59,.cls-6,.cls-60,.cls-61,.cls-62,.cls-63,.cls-64,.cls-65,.cls-66,.cls-67,.cls-68,.cls-69,.cls-7,.cls-70,.cls-71,.cls-72,.cls-73,.cls-74,.cls-75,.cls-76,.cls-77,.cls-78,.cls-79,.cls-8,.cls-80,.cls-81,.cls-82,.cls-83,.cls-84,.cls-85,.cls-86,.cls-87,.cls-88,.cls-89,.cls-9,.cls-90,.cls-91,.cls-92,.cls-93,.cls-94,.cls-95,.cls-96,.cls-97,.cls-98,.cls-99{fill:none;stroke-miterlimit:10;}.cls-162,.cls-2,.cls-3{stroke:#fff;stroke-width:0.09px;}.cls-3{stroke-dasharray:0.96 0.96;}.cls-160,.cls-4{opacity:0.2;}.cls-161,.cls-4{mix-blend-mode:screen;}.cls-4{fill:url(#未命名的渐变_81);}.cls-5{opacity:0.15;}.cls-10,.cls-100,.cls-101,.cls-102,.cls-103,.cls-104,.cls-105,.cls-106,.cls-107,.cls-108,.cls-109,.cls-11,.cls-110,.cls-111,.cls-112,.cls-113,.cls-114,.cls-115,.cls-116,.cls-117,.cls-118,.cls-119,.cls-12,.cls-120,.cls-121,.cls-122,.cls-123,.cls-124,.cls-125,.cls-126,.cls-127,.cls-128,.cls-129,.cls-13,.cls-130,.cls-131,.cls-132,.cls-133,.cls-134,.cls-135,.cls-136,.cls-137,.cls-138,.cls-139,.cls-14,.cls-140,.cls-141,.cls-142,.cls-143,.cls-144,.cls-145,.cls-146,.cls-147,.cls-148,.cls-149,.cls-15,.cls-150,.cls-151,.cls-152,.cls-153,.cls-154,.cls-155,.cls-156,.cls-157,.cls-16,.cls-17,.cls-18,.cls-19,.cls-20,.cls-21,.cls-22,.cls-23,.cls-24,.cls-25,.cls-26,.cls-27,.cls-28,.cls-29,.cls-30,.cls-31,.cls-32,.cls-33,.cls-34,.cls-35,.cls-36,.cls-37,.cls-38,.cls-39,.cls-40,.cls-41,.cls-42,.cls-43,.cls-44,.cls-45,.cls-46,.cls-47,.cls-48,.cls-49,.cls-50,.cls-51,.cls-52,.cls-53,.cls-54,.cls-55,.cls-56,.cls-57,.cls-58,.cls-59,.cls-6,.cls-60,.cls-61,.cls-62,.cls-63,.cls-64,.cls-65,.cls-66,.cls-67,.cls-68,.cls-69,.cls-7,.cls-70,.cls-71,.cls-72,.cls-73,.cls-74,.cls-75,.cls-76,.cls-77,.cls-78,.cls-79,.cls-8,.cls-80,.cls-81,.cls-82,.cls-83,.cls-84,.cls-85,.cls-86,.cls-87,.cls-88,.cls-89,.cls-9,.cls-90,.cls-91,.cls-92,.cls-93,.cls-94,.cls-95,.cls-96,.cls-97,.cls-98,.cls-99{stroke-width:0.09px;}.cls-6{stroke:url(#未命名的渐变_34);}.cls-7{stroke:url(#未命名的渐变_34-2);}.cls-8{stroke:url(#未命名的渐变_34-3);}.cls-9{stroke:url(#未命名的渐变_34-4);}.cls-10{stroke:url(#未命名的渐变_34-5);}.cls-11{stroke:url(#未命名的渐变_34-6);}.cls-12{stroke:url(#未命名的渐变_34-7);}.cls-13{stroke:url(#未命名的渐变_34-8);}.cls-14{stroke:url(#未命名的渐变_34-9);}.cls-15{stroke:url(#未命名的渐变_34-10);}.cls-16{stroke:url(#未命名的渐变_34-11);}.cls-17{stroke:url(#未命名的渐变_34-12);}.cls-18{stroke:url(#未命名的渐变_34-13);}.cls-19{stroke:url(#未命名的渐变_34-14);}.cls-20{stroke:url(#未命名的渐变_34-15);}.cls-21{stroke:url(#未命名的渐变_34-16);}.cls-22{stroke:url(#未命名的渐变_34-17);}.cls-23{stroke:url(#未命名的渐变_34-18);}.cls-24{stroke:url(#未命名的渐变_34-19);}.cls-25{stroke:url(#未命名的渐变_34-20);}.cls-26{stroke:url(#未命名的渐变_34-21);}.cls-27{stroke:url(#未命名的渐变_34-22);}.cls-28{stroke:url(#未命名的渐变_34-23);}.cls-29{stroke:url(#未命名的渐变_34-24);}.cls-30{stroke:url(#未命名的渐变_34-25);}.cls-31{stroke:url(#未命名的渐变_34-26);}.cls-32{stroke:url(#未命名的渐变_34-27);}.cls-33{stroke:url(#未命名的渐变_34-28);}.cls-34{stroke:url(#未命名的渐变_34-29);}.cls-35{stroke:url(#未命名的渐变_34-30);}.cls-36{stroke:url(#未命名的渐变_34-31);}.cls-37{stroke:url(#未命名的渐变_34-32);}.cls-38{stroke:url(#未命名的渐变_34-33);}.cls-39{stroke:url(#未命名的渐变_34-34);}.cls-40{stroke:url(#未命名的渐变_34-35);}.cls-41{stroke:url(#未命名的渐变_34-36);}.cls-42{stroke:url(#未命名的渐变_34-37);}.cls-43{stroke:url(#未命名的渐变_34-38);}.cls-44{stroke:url(#未命名的渐变_34-39);}.cls-45{stroke:url(#未命名的渐变_34-40);}.cls-46{stroke:url(#未命名的渐变_34-41);}.cls-47{stroke:url(#未命名的渐变_34-42);}.cls-48{stroke:url(#未命名的渐变_34-43);}.cls-49{stroke:url(#未命名的渐变_34-44);}.cls-50{stroke:url(#未命名的渐变_34-45);}.cls-51{stroke:url(#未命名的渐变_34-46);}.cls-52{stroke:url(#未命名的渐变_34-47);}.cls-53{stroke:url(#未命名的渐变_34-48);}.cls-54{stroke:url(#未命名的渐变_34-49);}.cls-55{stroke:url(#未命名的渐变_34-50);}.cls-56{stroke:url(#未命名的渐变_34-51);}.cls-57{stroke:url(#未命名的渐变_34-52);}.cls-58{stroke:url(#未命名的渐变_34-53);}.cls-59{stroke:url(#未命名的渐变_34-54);}.cls-60{stroke:url(#未命名的渐变_34-55);}.cls-61{stroke:url(#未命名的渐变_34-56);}.cls-62{stroke:url(#未命名的渐变_34-57);}.cls-63{stroke:url(#未命名的渐变_34-58);}.cls-64{stroke:url(#未命名的渐变_34-59);}.cls-65{stroke:url(#未命名的渐变_34-60);}.cls-66{stroke:url(#未命名的渐变_34-61);}.cls-67{stroke:url(#未命名的渐变_34-62);}.cls-68{stroke:url(#未命名的渐变_34-63);}.cls-69{stroke:url(#未命名的渐变_34-64);}.cls-70{stroke:url(#未命名的渐变_34-65);}.cls-71{stroke:url(#未命名的渐变_34-66);}.cls-72{stroke:url(#未命名的渐变_34-67);}.cls-73{stroke:url(#未命名的渐变_34-68);}.cls-74{stroke:url(#未命名的渐变_34-69);}.cls-75{stroke:url(#未命名的渐变_34-70);}.cls-76{stroke:url(#未命名的渐变_34-71);}.cls-77{stroke:url(#未命名的渐变_34-72);}.cls-78{stroke:url(#未命名的渐变_34-73);}.cls-79{stroke:url(#未命名的渐变_34-74);}.cls-80{stroke:url(#未命名的渐变_34-75);}.cls-81{stroke:url(#未命名的渐变_34-76);}.cls-82{stroke:url(#未命名的渐变_34-77);}.cls-83{stroke:url(#未命名的渐变_34-78);}.cls-84{stroke:url(#未命名的渐变_34-79);}.cls-85{stroke:url(#未命名的渐变_34-80);}.cls-86{stroke:url(#未命名的渐变_34-81);}.cls-87{stroke:url(#未命名的渐变_34-82);}.cls-88{stroke:url(#未命名的渐变_34-83);}.cls-89{stroke:url(#未命名的渐变_34-84);}.cls-90{stroke:url(#未命名的渐变_34-85);}.cls-91{stroke:url(#未命名的渐变_34-86);}.cls-92{stroke:url(#未命名的渐变_34-87);}.cls-93{stroke:url(#未命名的渐变_34-88);}.cls-94{stroke:url(#未命名的渐变_34-89);}.cls-95{stroke:url(#未命名的渐变_34-90);}.cls-96{stroke:url(#未命名的渐变_34-91);}.cls-97{stroke:url(#未命名的渐变_34-92);}.cls-98{stroke:url(#未命名的渐变_34-93);}.cls-99{stroke:url(#未命名的渐变_34-94);}.cls-100{stroke:url(#未命名的渐变_34-95);}.cls-101{stroke:url(#未命名的渐变_34-96);}.cls-102{stroke:url(#未命名的渐变_34-97);}.cls-103{stroke:url(#未命名的渐变_34-98);}.cls-104{stroke:url(#未命名的渐变_34-99);}.cls-105{stroke:url(#未命名的渐变_34-100);}.cls-106{stroke:url(#未命名的渐变_34-101);}.cls-107{stroke:url(#未命名的渐变_34-102);}.cls-108{stroke:url(#未命名的渐变_34-103);}.cls-109{stroke:url(#未命名的渐变_34-104);}.cls-110{stroke:url(#未命名的渐变_34-105);}.cls-111{stroke:url(#未命名的渐变_34-106);}.cls-112{stroke:url(#未命名的渐变_34-107);}.cls-113{stroke:url(#未命名的渐变_34-108);}.cls-114{stroke:url(#未命名的渐变_34-109);}.cls-115{stroke:url(#未命名的渐变_34-110);}.cls-116{stroke:url(#未命名的渐变_34-111);}.cls-117{stroke:url(#未命名的渐变_34-112);}.cls-118{stroke:url(#未命名的渐变_34-113);}.cls-119{stroke:url(#未命名的渐变_34-114);}.cls-120{stroke:url(#未命名的渐变_34-115);}.cls-121{stroke:url(#未命名的渐变_34-116);}.cls-122{stroke:url(#未命名的渐变_34-117);}.cls-123{stroke:url(#未命名的渐变_34-118);}.cls-124{stroke:url(#未命名的渐变_34-119);}.cls-125{stroke:url(#未命名的渐变_34-120);}.cls-126{stroke:url(#未命名的渐变_34-121);}.cls-127{stroke:url(#未命名的渐变_34-122);}.cls-128{stroke:url(#未命名的渐变_34-123);}.cls-129{stroke:url(#未命名的渐变_34-124);}.cls-130{stroke:url(#未命名的渐变_34-125);}.cls-131{stroke:url(#未命名的渐变_34-126);}.cls-132{stroke:url(#未命名的渐变_34-127);}.cls-133{stroke:url(#未命名的渐变_34-128);}.cls-134{stroke:url(#未命名的渐变_34-129);}.cls-135{stroke:url(#未命名的渐变_34-130);}.cls-136{stroke:url(#未命名的渐变_34-131);}.cls-137{stroke:url(#未命名的渐变_34-132);}.cls-138{stroke:url(#未命名的渐变_34-133);}.cls-139{stroke:url(#未命名的渐变_34-134);}.cls-140{stroke:url(#未命名的渐变_34-135);}.cls-141{stroke:url(#未命名的渐变_34-136);}.cls-142{stroke:url(#未命名的渐变_34-137);}.cls-143{stroke:url(#未命名的渐变_34-138);}.cls-144{stroke:url(#未命名的渐变_34-139);}.cls-145{stroke:url(#未命名的渐变_34-140);}.cls-146{stroke:url(#未命名的渐变_34-141);}.cls-147{stroke:url(#未命名的渐变_34-142);}.cls-148{stroke:url(#未命名的渐变_34-143);}.cls-149{stroke:url(#未命名的渐变_34-144);}.cls-150{stroke:url(#未命名的渐变_34-145);}.cls-151{stroke:url(#未命名的渐变_34-146);}.cls-152{stroke:url(#未命名的渐变_34-147);}.cls-153{stroke:url(#未命名的渐变_34-148);}.cls-154{stroke:url(#未命名的渐变_34-149);}.cls-155{stroke:url(#未命名的渐变_34-150);}.cls-156{stroke:url(#未命名的渐变_34-151);}.cls-157{stroke:url(#未命名的渐变_34-152);}.cls-158,.cls-159,.cls-160{fill:#00dcff;}.cls-158{opacity:0.1;}.cls-159{opacity:0.9;}.cls-161{fill:url(#未命名的渐变_145);}.cls-162{stroke-dasharray:1.03 1.03;}.cls-163{stroke-width:0.23px;stroke:url(#未命名的渐变_119);}</style>
    <linearGradient id="未命名的渐变_81" x1="29.99" y1="32.06" x2="111.98" y2="32.06" gradientUnits="userSpaceOnUse">
      <stop offset="0" stop-color="#00dcff"/>
      <stop offset="1" stop-color="#00dcff" stop-opacity="0"/>
    </linearGradient>
    <linearGradient id="未命名的渐变_34" x1="29.99" y1="1.09" x2="111.98" y2="1.09" gradientUnits="userSpaceOnUse">
      <stop offset="0" stop-color="#00dcff"/>
      <stop offset="0.5" stop-color="#00dcff" stop-opacity="0"/>
      <stop offset="1" stop-color="#00dcff"/>
    </linearGradient>
    <linearGradient id="未命名的渐变_34-2" x1="29.99" y1="1.5" x2="111.98" y2="1.5" xlink:href="#未命名的渐变_34"/>
    <linearGradient id="未命名的渐变_34-3" x1="29.99" y1="1.91" x2="111.98" y2="1.91" xlink:href="#未命名的渐变_34"/>
    <linearGradient id="未命名的渐变_34-4" x1="29.99" y1="2.32" x2="111.98" y2="2.32" xlink:href="#未命名的渐变_34"/>
    <linearGradient id="未命名的渐变_34-5" x1="29.99" y1="2.73" x2="111.98" y2="2.73" xlink:href="#未命名的渐变_34"/>
    <linearGradient id="未命名的渐变_34-6" x1="29.99" y1="3.14" x2="111.98" y2="3.14" xlink:href="#未命名的渐变_34"/>
    <linearGradient id="未命名的渐变_34-7" x1="29.99" y1="3.55" x2="111.98" y2="3.55" xlink:href="#未命名的渐变_34"/>
    <linearGradient id="未命名的渐变_34-8" x1="29.99" y1="3.96" x2="111.98" y2="3.96" xlink:href="#未命名的渐变_34"/>
    <linearGradient id="未命名的渐变_34-9" x1="29.99" y1="4.37" x2="111.98" y2="4.37" xlink:href="#未命名的渐变_34"/>
    <linearGradient id="未命名的渐变_34-10" x1="29.99" y1="4.78" x2="111.98" y2="4.78" xlink:href="#未命名的渐变_34"/>
    <linearGradient id="未命名的渐变_34-11" x1="29.99" y1="5.19" x2="111.98" y2="5.19" xlink:href="#未命名的渐变_34"/>
    <linearGradient id="未命名的渐变_34-12" x1="29.99" y1="5.6" x2="111.98" y2="5.6" xlink:href="#未命名的渐变_34"/>
    <linearGradient id="未命名的渐变_34-13" x1="29.99" y1="6.01" x2="111.98" y2="6.01" xlink:href="#未命名的渐变_34"/>
    <linearGradient id="未命名的渐变_34-14" x1="29.99" y1="6.42" x2="111.98" y2="6.42" xlink:href="#未命名的渐变_34"/>
    <linearGradient id="未命名的渐变_34-15" x1="29.99" y1="6.83" x2="111.98" y2="6.83" xlink:href="#未命名的渐变_34"/>
    <linearGradient id="未命名的渐变_34-16" x1="29.99" y1="7.24" x2="111.98" y2="7.24" xlink:href="#未命名的渐变_34"/>
    <linearGradient id="未命名的渐变_34-17" x1="29.99" y1="7.65" x2="111.98" y2="7.65" xlink:href="#未命名的渐变_34"/>
    <linearGradient id="未命名的渐变_34-18" x1="29.99" y1="8.06" x2="111.98" y2="8.06" xlink:href="#未命名的渐变_34"/>
    <linearGradient id="未命名的渐变_34-19" x1="29.99" y1="8.47" x2="111.98" y2="8.47" xlink:href="#未命名的渐变_34"/>
    <linearGradient id="未命名的渐变_34-20" x1="29.99" y1="8.88" x2="111.98" y2="8.88" xlink:href="#未命名的渐变_34"/>
    <linearGradient id="未命名的渐变_34-21" x1="29.99" y1="9.29" x2="111.98" y2="9.29" xlink:href="#未命名的渐变_34"/>
    <linearGradient id="未命名的渐变_34-22" x1="29.99" y1="9.7" x2="111.98" y2="9.7" xlink:href="#未命名的渐变_34"/>
    <linearGradient id="未命名的渐变_34-23" x1="29.99" y1="10.11" x2="111.98" y2="10.11" xlink:href="#未命名的渐变_34"/>
    <linearGradient id="未命名的渐变_34-24" x1="29.99" y1="10.52" x2="111.98" y2="10.52" xlink:href="#未命名的渐变_34"/>
    <linearGradient id="未命名的渐变_34-25" x1="29.99" y1="10.93" x2="111.98" y2="10.93" xlink:href="#未命名的渐变_34"/>
    <linearGradient id="未命名的渐变_34-26" x1="29.99" y1="11.34" x2="111.98" y2="11.34" xlink:href="#未命名的渐变_34"/>
    <linearGradient id="未命名的渐变_34-27" x1="29.99" y1="11.75" x2="111.98" y2="11.75" xlink:href="#未命名的渐变_34"/>
    <linearGradient id="未命名的渐变_34-28" x1="29.99" y1="12.17" x2="111.98" y2="12.17" xlink:href="#未命名的渐变_34"/>
    <linearGradient id="未命名的渐变_34-29" x1="29.99" y1="12.58" x2="111.98" y2="12.58" xlink:href="#未命名的渐变_34"/>
    <linearGradient id="未命名的渐变_34-30" x1="29.99" y1="12.99" x2="111.98" y2="12.99" xlink:href="#未命名的渐变_34"/>
    <linearGradient id="未命名的渐变_34-31" x1="29.99" y1="13.4" x2="111.98" y2="13.4" xlink:href="#未命名的渐变_34"/>
    <linearGradient id="未命名的渐变_34-32" x1="29.99" y1="13.81" x2="111.98" y2="13.81" xlink:href="#未命名的渐变_34"/>
    <linearGradient id="未命名的渐变_34-33" x1="29.99" y1="14.22" x2="111.98" y2="14.22" xlink:href="#未命名的渐变_34"/>
    <linearGradient id="未命名的渐变_34-34" x1="29.99" y1="14.63" x2="111.98" y2="14.63" xlink:href="#未命名的渐变_34"/>
    <linearGradient id="未命名的渐变_34-35" x1="29.99" y1="15.04" x2="111.98" y2="15.04" xlink:href="#未命名的渐变_34"/>
    <linearGradient id="未命名的渐变_34-36" x1="29.99" y1="15.45" x2="111.98" y2="15.45" xlink:href="#未命名的渐变_34"/>
    <linearGradient id="未命名的渐变_34-37" x1="29.99" y1="15.86" x2="111.98" y2="15.86" xlink:href="#未命名的渐变_34"/>
    <linearGradient id="未命名的渐变_34-38" x1="29.99" y1="16.27" x2="111.98" y2="16.27" xlink:href="#未命名的渐变_34"/>
    <linearGradient id="未命名的渐变_34-39" x1="29.99" y1="16.68" x2="111.98" y2="16.68" xlink:href="#未命名的渐变_34"/>
    <linearGradient id="未命名的渐变_34-40" x1="29.99" y1="17.09" x2="111.98" y2="17.09" xlink:href="#未命名的渐变_34"/>
    <linearGradient id="未命名的渐变_34-41" x1="29.99" y1="17.5" x2="111.98" y2="17.5" xlink:href="#未命名的渐变_34"/>
    <linearGradient id="未命名的渐变_34-42" x1="29.99" y1="17.91" x2="111.98" y2="17.91" xlink:href="#未命名的渐变_34"/>
    <linearGradient id="未命名的渐变_34-43" x1="29.99" y1="18.32" x2="111.98" y2="18.32" xlink:href="#未命名的渐变_34"/>
    <linearGradient id="未命名的渐变_34-44" x1="29.99" y1="18.73" x2="111.98" y2="18.73" xlink:href="#未命名的渐变_34"/>
    <linearGradient id="未命名的渐变_34-45" x1="29.99" y1="19.14" x2="111.98" y2="19.14" xlink:href="#未命名的渐变_34"/>
    <linearGradient id="未命名的渐变_34-46" x1="29.99" y1="19.55" x2="111.98" y2="19.55" xlink:href="#未命名的渐变_34"/>
    <linearGradient id="未命名的渐变_34-47" x1="29.99" y1="19.96" x2="111.98" y2="19.96" xlink:href="#未命名的渐变_34"/>
    <linearGradient id="未命名的渐变_34-48" x1="29.99" y1="20.37" x2="111.98" y2="20.37" xlink:href="#未命名的渐变_34"/>
    <linearGradient id="未命名的渐变_34-49" x1="29.99" y1="20.78" x2="111.98" y2="20.78" xlink:href="#未命名的渐变_34"/>
    <linearGradient id="未命名的渐变_34-50" x1="29.99" y1="21.19" x2="111.98" y2="21.19" xlink:href="#未命名的渐变_34"/>
    <linearGradient id="未命名的渐变_34-51" x1="29.99" y1="21.6" x2="111.98" y2="21.6" xlink:href="#未命名的渐变_34"/>
    <linearGradient id="未命名的渐变_34-52" x1="29.99" y1="22.01" x2="111.98" y2="22.01" xlink:href="#未命名的渐变_34"/>
    <linearGradient id="未命名的渐变_34-53" x1="29.99" y1="22.42" x2="111.98" y2="22.42" xlink:href="#未命名的渐变_34"/>
    <linearGradient id="未命名的渐变_34-54" x1="29.99" y1="22.83" x2="111.98" y2="22.83" xlink:href="#未命名的渐变_34"/>
    <linearGradient id="未命名的渐变_34-55" x1="29.99" y1="23.24" x2="111.98" y2="23.24" xlink:href="#未命名的渐变_34"/>
    <linearGradient id="未命名的渐变_34-56" x1="29.99" y1="23.65" x2="111.98" y2="23.65" xlink:href="#未命名的渐变_34"/>
    <linearGradient id="未命名的渐变_34-57" x1="29.99" y1="24.06" x2="111.98" y2="24.06" xlink:href="#未命名的渐变_34"/>
    <linearGradient id="未命名的渐变_34-58" x1="29.99" y1="24.47" x2="111.98" y2="24.47" xlink:href="#未命名的渐变_34"/>
    <linearGradient id="未命名的渐变_34-59" x1="29.99" y1="24.88" x2="111.98" y2="24.88" xlink:href="#未命名的渐变_34"/>
    <linearGradient id="未命名的渐变_34-60" x1="29.99" y1="25.29" x2="111.98" y2="25.29" xlink:href="#未命名的渐变_34"/>
    <linearGradient id="未命名的渐变_34-61" x1="29.99" y1="25.7" x2="111.98" y2="25.7" xlink:href="#未命名的渐变_34"/>
    <linearGradient id="未命名的渐变_34-62" x1="29.99" y1="26.11" x2="111.98" y2="26.11" xlink:href="#未命名的渐变_34"/>
    <linearGradient id="未命名的渐变_34-63" x1="29.99" y1="26.52" x2="111.98" y2="26.52" xlink:href="#未命名的渐变_34"/>
    <linearGradient id="未命名的渐变_34-64" x1="29.99" y1="26.93" x2="111.98" y2="26.93" xlink:href="#未命名的渐变_34"/>
    <linearGradient id="未命名的渐变_34-65" x1="29.99" y1="27.34" x2="111.98" y2="27.34" xlink:href="#未命名的渐变_34"/>
    <linearGradient id="未命名的渐变_34-66" x1="29.99" y1="27.75" x2="111.98" y2="27.75" xlink:href="#未命名的渐变_34"/>
    <linearGradient id="未命名的渐变_34-67" x1="29.99" y1="28.16" x2="111.98" y2="28.16" xlink:href="#未命名的渐变_34"/>
    <linearGradient id="未命名的渐变_34-68" x1="29.99" y1="28.57" x2="111.98" y2="28.57" xlink:href="#未命名的渐变_34"/>
    <linearGradient id="未命名的渐变_34-69" x1="29.99" y1="28.98" x2="111.98" y2="28.98" xlink:href="#未命名的渐变_34"/>
    <linearGradient id="未命名的渐变_34-70" x1="29.99" y1="29.39" x2="111.98" y2="29.39" xlink:href="#未命名的渐变_34"/>
    <linearGradient id="未命名的渐变_34-71" x1="29.99" y1="29.8" x2="111.98" y2="29.8" xlink:href="#未命名的渐变_34"/>
    <linearGradient id="未命名的渐变_34-72" x1="29.99" y1="30.21" x2="111.98" y2="30.21" xlink:href="#未命名的渐变_34"/>
    <linearGradient id="未命名的渐变_34-73" x1="29.99" y1="30.62" x2="111.98" y2="30.62" xlink:href="#未命名的渐变_34"/>
    <linearGradient id="未命名的渐变_34-74" x1="29.99" y1="31.03" x2="111.98" y2="31.03" xlink:href="#未命名的渐变_34"/>
    <linearGradient id="未命名的渐变_34-75" x1="29.99" y1="31.44" x2="111.98" y2="31.44" xlink:href="#未命名的渐变_34"/>
    <linearGradient id="未命名的渐变_34-76" x1="29.99" y1="31.85" x2="111.98" y2="31.85" xlink:href="#未命名的渐变_34"/>
    <linearGradient id="未命名的渐变_34-77" x1="29.99" y1="32.26" x2="111.98" y2="32.26" xlink:href="#未命名的渐变_34"/>
    <linearGradient id="未命名的渐变_34-78" x1="29.99" y1="32.67" x2="111.98" y2="32.67" xlink:href="#未命名的渐变_34"/>
    <linearGradient id="未命名的渐变_34-79" x1="29.99" y1="33.09" x2="111.98" y2="33.09" xlink:href="#未命名的渐变_34"/>
    <linearGradient id="未命名的渐变_34-80" x1="29.99" y1="33.5" x2="111.98" y2="33.5" xlink:href="#未命名的渐变_34"/>
    <linearGradient id="未命名的渐变_34-81" x1="29.99" y1="33.91" x2="111.98" y2="33.91" xlink:href="#未命名的渐变_34"/>
    <linearGradient id="未命名的渐变_34-82" x1="29.99" y1="34.32" x2="111.98" y2="34.32" xlink:href="#未命名的渐变_34"/>
    <linearGradient id="未命名的渐变_34-83" x1="29.99" y1="34.73" x2="111.98" y2="34.73" xlink:href="#未命名的渐变_34"/>
    <linearGradient id="未命名的渐变_34-84" x1="29.99" y1="35.14" x2="111.98" y2="35.14" xlink:href="#未命名的渐变_34"/>
    <linearGradient id="未命名的渐变_34-85" x1="29.99" y1="35.55" x2="111.98" y2="35.55" xlink:href="#未命名的渐变_34"/>
    <linearGradient id="未命名的渐变_34-86" x1="29.99" y1="35.96" x2="111.98" y2="35.96" xlink:href="#未命名的渐变_34"/>
    <linearGradient id="未命名的渐变_34-87" x1="29.99" y1="36.37" x2="111.98" y2="36.37" xlink:href="#未命名的渐变_34"/>
    <linearGradient id="未命名的渐变_34-88" x1="29.99" y1="36.78" x2="111.98" y2="36.78" xlink:href="#未命名的渐变_34"/>
    <linearGradient id="未命名的渐变_34-89" x1="29.99" y1="37.19" x2="111.98" y2="37.19" xlink:href="#未命名的渐变_34"/>
    <linearGradient id="未命名的渐变_34-90" x1="29.99" y1="37.6" x2="111.98" y2="37.6" xlink:href="#未命名的渐变_34"/>
    <linearGradient id="未命名的渐变_34-91" x1="29.99" y1="38.01" x2="111.98" y2="38.01" xlink:href="#未命名的渐变_34"/>
    <linearGradient id="未命名的渐变_34-92" x1="29.99" y1="38.42" x2="111.98" y2="38.42" xlink:href="#未命名的渐变_34"/>
    <linearGradient id="未命名的渐变_34-93" x1="29.99" y1="38.83" x2="111.98" y2="38.83" xlink:href="#未命名的渐变_34"/>
    <linearGradient id="未命名的渐变_34-94" x1="29.99" y1="39.24" x2="111.98" y2="39.24" xlink:href="#未命名的渐变_34"/>
    <linearGradient id="未命名的渐变_34-95" x1="29.99" y1="39.65" x2="111.98" y2="39.65" xlink:href="#未命名的渐变_34"/>
    <linearGradient id="未命名的渐变_34-96" x1="29.99" y1="40.06" x2="111.98" y2="40.06" xlink:href="#未命名的渐变_34"/>
    <linearGradient id="未命名的渐变_34-97" x1="29.99" y1="40.47" x2="111.98" y2="40.47" xlink:href="#未命名的渐变_34"/>
    <linearGradient id="未命名的渐变_34-98" x1="29.99" y1="40.88" x2="111.98" y2="40.88" xlink:href="#未命名的渐变_34"/>
    <linearGradient id="未命名的渐变_34-99" x1="29.99" y1="41.29" x2="111.98" y2="41.29" xlink:href="#未命名的渐变_34"/>
    <linearGradient id="未命名的渐变_34-100" x1="29.99" y1="41.7" x2="111.98" y2="41.7" xlink:href="#未命名的渐变_34"/>
    <linearGradient id="未命名的渐变_34-101" x1="29.99" y1="42.11" x2="111.98" y2="42.11" xlink:href="#未命名的渐变_34"/>
    <linearGradient id="未命名的渐变_34-102" x1="29.99" y1="42.52" x2="111.98" y2="42.52" xlink:href="#未命名的渐变_34"/>
    <linearGradient id="未命名的渐变_34-103" x1="29.99" y1="42.93" x2="111.98" y2="42.93" xlink:href="#未命名的渐变_34"/>
    <linearGradient id="未命名的渐变_34-104" x1="29.99" y1="43.34" x2="111.98" y2="43.34" xlink:href="#未命名的渐变_34"/>
    <linearGradient id="未命名的渐变_34-105" x1="29.99" y1="43.75" x2="111.98" y2="43.75" xlink:href="#未命名的渐变_34"/>
    <linearGradient id="未命名的渐变_34-106" x1="29.99" y1="44.16" x2="111.98" y2="44.16" xlink:href="#未命名的渐变_34"/>
    <linearGradient id="未命名的渐变_34-107" x1="29.99" y1="44.57" x2="111.98" y2="44.57" xlink:href="#未命名的渐变_34"/>
    <linearGradient id="未命名的渐变_34-108" x1="29.99" y1="44.98" x2="111.98" y2="44.98" xlink:href="#未命名的渐变_34"/>
    <linearGradient id="未命名的渐变_34-109" x1="29.99" y1="45.39" x2="111.98" y2="45.39" xlink:href="#未命名的渐变_34"/>
    <linearGradient id="未命名的渐变_34-110" x1="29.99" y1="45.8" x2="111.98" y2="45.8" xlink:href="#未命名的渐变_34"/>
    <linearGradient id="未命名的渐变_34-111" x1="29.99" y1="46.21" x2="111.98" y2="46.21" xlink:href="#未命名的渐变_34"/>
    <linearGradient id="未命名的渐变_34-112" x1="29.99" y1="46.62" x2="111.98" y2="46.62" xlink:href="#未命名的渐变_34"/>
    <linearGradient id="未命名的渐变_34-113" x1="29.99" y1="47.03" x2="111.98" y2="47.03" xlink:href="#未命名的渐变_34"/>
    <linearGradient id="未命名的渐变_34-114" x1="29.99" y1="47.44" x2="111.98" y2="47.44" xlink:href="#未命名的渐变_34"/>
    <linearGradient id="未命名的渐变_34-115" x1="29.99" y1="47.85" x2="111.98" y2="47.85" xlink:href="#未命名的渐变_34"/>
    <linearGradient id="未命名的渐变_34-116" x1="29.99" y1="48.26" x2="111.98" y2="48.26" xlink:href="#未命名的渐变_34"/>
    <linearGradient id="未命名的渐变_34-117" x1="29.99" y1="48.67" x2="111.98" y2="48.67" xlink:href="#未命名的渐变_34"/>
    <linearGradient id="未命名的渐变_34-118" x1="29.99" y1="49.08" x2="111.98" y2="49.08" xlink:href="#未命名的渐变_34"/>
    <linearGradient id="未命名的渐变_34-119" x1="29.99" y1="49.49" x2="111.98" y2="49.49" xlink:href="#未命名的渐变_34"/>
    <linearGradient id="未命名的渐变_34-120" x1="29.99" y1="49.9" x2="111.98" y2="49.9" xlink:href="#未命名的渐变_34"/>
    <linearGradient id="未命名的渐变_34-121" x1="29.99" y1="50.31" x2="111.98" y2="50.31" xlink:href="#未命名的渐变_34"/>
    <linearGradient id="未命名的渐变_34-122" x1="29.99" y1="50.72" x2="111.98" y2="50.72" xlink:href="#未命名的渐变_34"/>
    <linearGradient id="未命名的渐变_34-123" x1="29.99" y1="51.13" x2="111.98" y2="51.13" xlink:href="#未命名的渐变_34"/>
    <linearGradient id="未命名的渐变_34-124" x1="29.99" y1="51.54" x2="111.98" y2="51.54" xlink:href="#未命名的渐变_34"/>
    <linearGradient id="未命名的渐变_34-125" x1="29.99" y1="51.95" x2="111.98" y2="51.95" xlink:href="#未命名的渐变_34"/>
    <linearGradient id="未命名的渐变_34-126" x1="29.99" y1="52.36" x2="111.98" y2="52.36" xlink:href="#未命名的渐变_34"/>
    <linearGradient id="未命名的渐变_34-127" x1="29.99" y1="52.77" x2="111.98" y2="52.77" xlink:href="#未命名的渐变_34"/>
    <linearGradient id="未命名的渐变_34-128" x1="29.99" y1="53.18" x2="111.98" y2="53.18" xlink:href="#未命名的渐变_34"/>
    <linearGradient id="未命名的渐变_34-129" x1="29.99" y1="53.6" x2="111.98" y2="53.6" xlink:href="#未命名的渐变_34"/>
    <linearGradient id="未命名的渐变_34-130" x1="29.99" y1="54.01" x2="111.98" y2="54.01" xlink:href="#未命名的渐变_34"/>
    <linearGradient id="未命名的渐变_34-131" x1="29.99" y1="54.42" x2="111.98" y2="54.42" xlink:href="#未命名的渐变_34"/>
    <linearGradient id="未命名的渐变_34-132" x1="29.99" y1="54.83" x2="111.98" y2="54.83" xlink:href="#未命名的渐变_34"/>
    <linearGradient id="未命名的渐变_34-133" x1="29.99" y1="55.24" x2="111.98" y2="55.24" xlink:href="#未命名的渐变_34"/>
    <linearGradient id="未命名的渐变_34-134" x1="29.99" y1="55.65" x2="111.98" y2="55.65" xlink:href="#未命名的渐变_34"/>
    <linearGradient id="未命名的渐变_34-135" x1="29.99" y1="56.06" x2="111.98" y2="56.06" xlink:href="#未命名的渐变_34"/>
    <linearGradient id="未命名的渐变_34-136" x1="29.99" y1="56.47" x2="111.98" y2="56.47" xlink:href="#未命名的渐变_34"/>
    <linearGradient id="未命名的渐变_34-137" x1="29.99" y1="56.88" x2="111.98" y2="56.88" xlink:href="#未命名的渐变_34"/>
    <linearGradient id="未命名的渐变_34-138" x1="29.99" y1="57.29" x2="111.98" y2="57.29" xlink:href="#未命名的渐变_34"/>
    <linearGradient id="未命名的渐变_34-139" x1="29.99" y1="57.7" x2="111.98" y2="57.7" xlink:href="#未命名的渐变_34"/>
    <linearGradient id="未命名的渐变_34-140" x1="29.99" y1="58.11" x2="111.98" y2="58.11" xlink:href="#未命名的渐变_34"/>
    <linearGradient id="未命名的渐变_34-141" x1="29.99" y1="58.52" x2="111.98" y2="58.52" xlink:href="#未命名的渐变_34"/>
    <linearGradient id="未命名的渐变_34-142" x1="29.99" y1="58.93" x2="111.98" y2="58.93" xlink:href="#未命名的渐变_34"/>
    <linearGradient id="未命名的渐变_34-143" x1="29.99" y1="59.34" x2="111.98" y2="59.34" xlink:href="#未命名的渐变_34"/>
    <linearGradient id="未命名的渐变_34-144" x1="29.99" y1="59.75" x2="111.98" y2="59.75" xlink:href="#未命名的渐变_34"/>
    <linearGradient id="未命名的渐变_34-145" x1="29.99" y1="60.16" x2="111.98" y2="60.16" xlink:href="#未命名的渐变_34"/>
    <linearGradient id="未命名的渐变_34-146" x1="29.99" y1="60.57" x2="111.98" y2="60.57" xlink:href="#未命名的渐变_34"/>
    <linearGradient id="未命名的渐变_34-147" x1="29.99" y1="60.98" x2="111.98" y2="60.98" xlink:href="#未命名的渐变_34"/>
    <linearGradient id="未命名的渐变_34-148" x1="29.99" y1="61.39" x2="111.98" y2="61.39" xlink:href="#未命名的渐变_34"/>
    <linearGradient id="未命名的渐变_34-149" x1="29.99" y1="61.8" x2="111.98" y2="61.8" xlink:href="#未命名的渐变_34"/>
    <linearGradient id="未命名的渐变_34-150" x1="29.99" y1="62.21" x2="111.98" y2="62.21" xlink:href="#未命名的渐变_34"/>
    <linearGradient id="未命名的渐变_34-151" x1="29.99" y1="62.62" x2="111.98" y2="62.62" xlink:href="#未命名的渐变_34"/>
    <linearGradient id="未命名的渐变_34-152" x1="29.99" y1="63.03" x2="111.98" y2="63.03" xlink:href="#未命名的渐变_34"/>
    <radialGradient id="未命名的渐变_145" cx="2652.01" cy="-9581.68" r="1.52" gradientTransform="matrix(0, -9.01, -9.01, 0, -86351.65, 23926.05)" gradientUnits="userSpaceOnUse">
      <stop offset="0.05" stop-color="#fff" stop-opacity="1"/>
      <stop offset="0.07" stop-color="#fff" stop-opacity="0.95"/>
      <stop offset="0.07" stop-color="#fff" stop-opacity="0.9"/>
      <stop offset="0.08" stop-color="#fff" stop-opacity="0.85"/>
      <stop offset="0.08" stop-color="#fff" stop-opacity="0.8"/>
      <stop offset="0.09" stop-color="#fff" stop-opacity="0.75"/>
      <stop offset="0.09" stop-color="#fff" stop-opacity="0.7"/>
      <stop offset="0.09" stop-color="#fff" stop-opacity="0.65"/>
      <stop offset="0.1" stop-color="#fff" stop-opacity="0.6"/>
      <stop offset="0.1" stop-color="#fff" stop-opacity="0.55"/>
      <stop offset="0.1" stop-color="#fff" stop-opacity="0.5"/>
      <stop offset="0.11" stop-color="#fff" stop-opacity="0.45"/>
      <stop offset="0.14" stop-color="#fff" stop-opacity="0.4"/>
      <stop offset="0.18" stop-color="#fff" stop-opacity="0.35"/>
      <stop offset="0.23" stop-color="#fff" stop-opacity="0.3"/>
      <stop offset="0.28" stop-color="#fff" stop-opacity="0.25"/>
      <stop offset="0.33" stop-color="#fff" stop-opacity="0.2"/>
      <stop offset="0.39" stop-color="#fff" stop-opacity="0.15"/>
      <stop offset="0.46" stop-color="#fff" stop-opacity="0.1"/>
      <stop offset="0.54" stop-color="#fff" stop-opacity="0.05"/>
      <stop offset="0.66" stop-color="#fff" stop-opacity="0"/>
      <stop offset="1" stop-color="#fff" stop-opacity="0"/>
    </radialGradient>
    <linearGradient id="未命名的渐变_119" x1="113.17" y1="54.68" x2="113.17" y2="33.42" gradientUnits="userSpaceOnUse">
      <stop offset="0" stop-color="#00dcff" stop-opacity="0"/>
      <stop offset="0.06" stop-color="#00dcff" stop-opacity="0.09"/>
      <stop offset="0.19" stop-color="#00dcff" stop-opacity="0.33"/>
      <stop offset="0.37" stop-color="#00dcff" stop-opacity="0.7"/>
      <stop offset="0.5" stop-color="#00dcff"/>
      <stop offset="0.57" stop-color="#00dcff" stop-opacity="0.89"/>
      <stop offset="0.71" stop-color="#00dcff" stop-opacity="0.62"/>
      <stop offset="0.91" stop-color="#00dcff" stop-opacity="0.2"/>
      <stop offset="1" stop-color="#00dcff" stop-opacity="0"/>
    </linearGradient>
  </defs>
  <g class="cls-1">
    <g id="图层_2" data-name="图层 2">
      <g id="图层_10" data-name="图层 10">
        <g id="line">
          <line class="cls-2" x1="24.98" y1="33.11" x2="28.81" y2="33.11"/>
          <line class="cls-2" x1="18.11" y1="26.24" x2="18.5" y2="26.62"/>
          <line class="cls-3" x1="19.18" y1="27.3" x2="24.26" y2="32.39"/>
          <line class="cls-2" x1="24.6" y1="32.72" x2="24.98" y2="33.11"/>
          <line class="cls-2" x1="13.74" y1="21.86" x2="18.11" y2="26.24"/>
        </g>
        <g id="rect">
          <rect class="cls-4" x="29.99" y="1.09" width="81.99" height="61.94"/>
          <g class="cls-5">
            <line class="cls-6" x1="29.99" y1="1.09" x2="111.98" y2="1.09"/>
            <line class="cls-7" x1="29.99" y1="1.5" x2="111.98" y2="1.5"/>
            <line class="cls-8" x1="29.99" y1="1.91" x2="111.98" y2="1.91"/>
            <line class="cls-9" x1="29.99" y1="2.32" x2="111.98" y2="2.32"/>
            <line class="cls-10" x1="29.99" y1="2.73" x2="111.98" y2="2.73"/>
            <line class="cls-11" x1="29.99" y1="3.14" x2="111.98" y2="3.14"/>
            <line class="cls-12" x1="29.99" y1="3.55" x2="111.98" y2="3.55"/>
            <line class="cls-13" x1="29.99" y1="3.96" x2="111.98" y2="3.96"/>
            <line class="cls-14" x1="29.99" y1="4.37" x2="111.98" y2="4.37"/>
            <line class="cls-15" x1="29.99" y1="4.78" x2="111.98" y2="4.78"/>
            <line class="cls-16" x1="29.99" y1="5.19" x2="111.98" y2="5.19"/>
            <line class="cls-17" x1="29.99" y1="5.6" x2="111.98" y2="5.6"/>
            <line class="cls-18" x1="29.99" y1="6.01" x2="111.98" y2="6.01"/>
            <line class="cls-19" x1="29.99" y1="6.42" x2="111.98" y2="6.42"/>
            <line class="cls-20" x1="29.99" y1="6.83" x2="111.98" y2="6.83"/>
            <line class="cls-21" x1="29.99" y1="7.24" x2="111.98" y2="7.24"/>
            <line class="cls-22" x1="29.99" y1="7.65" x2="111.98" y2="7.65"/>
            <line class="cls-23" x1="29.99" y1="8.06" x2="111.98" y2="8.06"/>
            <line class="cls-24" x1="29.99" y1="8.47" x2="111.98" y2="8.47"/>
            <line class="cls-25" x1="29.99" y1="8.88" x2="111.98" y2="8.88"/>
            <line class="cls-26" x1="29.99" y1="9.29" x2="111.98" y2="9.29"/>
            <line class="cls-27" x1="29.99" y1="9.7" x2="111.98" y2="9.7"/>
            <line class="cls-28" x1="29.99" y1="10.11" x2="111.98" y2="10.11"/>
            <line class="cls-29" x1="29.99" y1="10.52" x2="111.98" y2="10.52"/>
            <line class="cls-30" x1="29.99" y1="10.93" x2="111.98" y2="10.93"/>
            <line class="cls-31" x1="29.99" y1="11.34" x2="111.98" y2="11.34"/>
            <line class="cls-32" x1="29.99" y1="11.75" x2="111.98" y2="11.75"/>
            <line class="cls-33" x1="29.99" y1="12.17" x2="111.98" y2="12.17"/>
            <line class="cls-34" x1="29.99" y1="12.58" x2="111.98" y2="12.58"/>
            <line class="cls-35" x1="29.99" y1="12.99" x2="111.98" y2="12.99"/>
            <line class="cls-36" x1="29.99" y1="13.4" x2="111.98" y2="13.4"/>
            <line class="cls-37" x1="29.99" y1="13.81" x2="111.98" y2="13.81"/>
            <line class="cls-38" x1="29.99" y1="14.22" x2="111.98" y2="14.22"/>
            <line class="cls-39" x1="29.99" y1="14.63" x2="111.98" y2="14.63"/>
            <line class="cls-40" x1="29.99" y1="15.04" x2="111.98" y2="15.04"/>
            <line class="cls-41" x1="29.99" y1="15.45" x2="111.98" y2="15.45"/>
            <line class="cls-42" x1="29.99" y1="15.86" x2="111.98" y2="15.86"/>
            <line class="cls-43" x1="29.99" y1="16.27" x2="111.98" y2="16.27"/>
            <line class="cls-44" x1="29.99" y1="16.68" x2="111.98" y2="16.68"/>
            <line class="cls-45" x1="29.99" y1="17.09" x2="111.98" y2="17.09"/>
            <line class="cls-46" x1="29.99" y1="17.5" x2="111.98" y2="17.5"/>
            <line class="cls-47" x1="29.99" y1="17.91" x2="111.98" y2="17.91"/>
            <line class="cls-48" x1="29.99" y1="18.32" x2="111.98" y2="18.32"/>
            <line class="cls-49" x1="29.99" y1="18.73" x2="111.98" y2="18.73"/>
            <line class="cls-50" x1="29.99" y1="19.14" x2="111.98" y2="19.14"/>
            <line class="cls-51" x1="29.99" y1="19.55" x2="111.98" y2="19.55"/>
            <line class="cls-52" x1="29.99" y1="19.96" x2="111.98" y2="19.96"/>
            <line class="cls-53" x1="29.99" y1="20.37" x2="111.98" y2="20.37"/>
            <line class="cls-54" x1="29.99" y1="20.78" x2="111.98" y2="20.78"/>
            <line class="cls-55" x1="29.99" y1="21.19" x2="111.98" y2="21.19"/>
            <line class="cls-56" x1="29.99" y1="21.6" x2="111.98" y2="21.6"/>
            <line class="cls-57" x1="29.99" y1="22.01" x2="111.98" y2="22.01"/>
            <line class="cls-58" x1="29.99" y1="22.42" x2="111.98" y2="22.42"/>
            <line class="cls-59" x1="29.99" y1="22.83" x2="111.98" y2="22.83"/>
            <line class="cls-60" x1="29.99" y1="23.24" x2="111.98" y2="23.24"/>
            <line class="cls-61" x1="29.99" y1="23.65" x2="111.98" y2="23.65"/>
            <line class="cls-62" x1="29.99" y1="24.06" x2="111.98" y2="24.06"/>
            <line class="cls-63" x1="29.99" y1="24.47" x2="111.98" y2="24.47"/>
            <line class="cls-64" x1="29.99" y1="24.88" x2="111.98" y2="24.88"/>
            <line class="cls-65" x1="29.99" y1="25.29" x2="111.98" y2="25.29"/>
            <line class="cls-66" x1="29.99" y1="25.7" x2="111.98" y2="25.7"/>
            <line class="cls-67" x1="29.99" y1="26.11" x2="111.98" y2="26.11"/>
            <line class="cls-68" x1="29.99" y1="26.52" x2="111.98" y2="26.52"/>
            <line class="cls-69" x1="29.99" y1="26.93" x2="111.98" y2="26.93"/>
            <line class="cls-70" x1="29.99" y1="27.34" x2="111.98" y2="27.34"/>
            <line class="cls-71" x1="29.99" y1="27.75" x2="111.98" y2="27.75"/>
            <line class="cls-72" x1="29.99" y1="28.16" x2="111.98" y2="28.16"/>
            <line class="cls-73" x1="29.99" y1="28.57" x2="111.98" y2="28.57"/>
            <line class="cls-74" x1="29.99" y1="28.98" x2="111.98" y2="28.98"/>
            <line class="cls-75" x1="29.99" y1="29.39" x2="111.98" y2="29.39"/>
            <line class="cls-76" x1="29.99" y1="29.8" x2="111.98" y2="29.8"/>
            <line class="cls-77" x1="29.99" y1="30.21" x2="111.98" y2="30.21"/>
            <line class="cls-78" x1="29.99" y1="30.62" x2="111.98" y2="30.62"/>
            <line class="cls-79" x1="29.99" y1="31.03" x2="111.98" y2="31.03"/>
            <line class="cls-80" x1="29.99" y1="31.44" x2="111.98" y2="31.44"/>
            <line class="cls-81" x1="29.99" y1="31.85" x2="111.98" y2="31.85"/>
            <line class="cls-82" x1="29.99" y1="32.26" x2="111.98" y2="32.26"/>
            <line class="cls-83" x1="29.99" y1="32.67" x2="111.98" y2="32.67"/>
            <line class="cls-84" x1="29.99" y1="33.09" x2="111.98" y2="33.09"/>
            <line class="cls-85" x1="29.99" y1="33.5" x2="111.98" y2="33.5"/>
            <line class="cls-86" x1="29.99" y1="33.91" x2="111.98" y2="33.91"/>
            <line class="cls-87" x1="29.99" y1="34.32" x2="111.98" y2="34.32"/>
            <line class="cls-88" x1="29.99" y1="34.73" x2="111.98" y2="34.73"/>
            <line class="cls-89" x1="29.99" y1="35.14" x2="111.98" y2="35.14"/>
            <line class="cls-90" x1="29.99" y1="35.55" x2="111.98" y2="35.55"/>
            <line class="cls-91" x1="29.99" y1="35.96" x2="111.98" y2="35.96"/>
            <line class="cls-92" x1="29.99" y1="36.37" x2="111.98" y2="36.37"/>
            <line class="cls-93" x1="29.99" y1="36.78" x2="111.98" y2="36.78"/>
            <line class="cls-94" x1="29.99" y1="37.19" x2="111.98" y2="37.19"/>
            <line class="cls-95" x1="29.99" y1="37.6" x2="111.98" y2="37.6"/>
            <line class="cls-96" x1="29.99" y1="38.01" x2="111.98" y2="38.01"/>
            <line class="cls-97" x1="29.99" y1="38.42" x2="111.98" y2="38.42"/>
            <line class="cls-98" x1="29.99" y1="38.83" x2="111.98" y2="38.83"/>
            <line class="cls-99" x1="29.99" y1="39.24" x2="111.98" y2="39.24"/>
            <line class="cls-100" x1="29.99" y1="39.65" x2="111.98" y2="39.65"/>
            <line class="cls-101" x1="29.99" y1="40.06" x2="111.98" y2="40.06"/>
            <line class="cls-102" x1="29.99" y1="40.47" x2="111.98" y2="40.47"/>
            <line class="cls-103" x1="29.99" y1="40.88" x2="111.98" y2="40.88"/>
            <line class="cls-104" x1="29.99" y1="41.29" x2="111.98" y2="41.29"/>
            <line class="cls-105" x1="29.99" y1="41.7" x2="111.98" y2="41.7"/>
            <line class="cls-106" x1="29.99" y1="42.11" x2="111.98" y2="42.11"/>
            <line class="cls-107" x1="29.99" y1="42.52" x2="111.98" y2="42.52"/>
            <line class="cls-108" x1="29.99" y1="42.93" x2="111.98" y2="42.93"/>
            <line class="cls-109" x1="29.99" y1="43.34" x2="111.98" y2="43.34"/>
            <line class="cls-110" x1="29.99" y1="43.75" x2="111.98" y2="43.75"/>
            <line class="cls-111" x1="29.99" y1="44.16" x2="111.98" y2="44.16"/>
            <line class="cls-112" x1="29.99" y1="44.57" x2="111.98" y2="44.57"/>
            <line class="cls-113" x1="29.99" y1="44.98" x2="111.98" y2="44.98"/>
            <line class="cls-114" x1="29.99" y1="45.39" x2="111.98" y2="45.39"/>
            <line class="cls-115" x1="29.99" y1="45.8" x2="111.98" y2="45.8"/>
            <line class="cls-116" x1="29.99" y1="46.21" x2="111.98" y2="46.21"/>
            <line class="cls-117" x1="29.99" y1="46.62" x2="111.98" y2="46.62"/>
            <line class="cls-118" x1="29.99" y1="47.03" x2="111.98" y2="47.03"/>
            <line class="cls-119" x1="29.99" y1="47.44" x2="111.98" y2="47.44"/>
            <line class="cls-120" x1="29.99" y1="47.85" x2="111.98" y2="47.85"/>
            <line class="cls-121" x1="29.99" y1="48.26" x2="111.98" y2="48.26"/>
            <line class="cls-122" x1="29.99" y1="48.67" x2="111.98" y2="48.67"/>
            <line class="cls-123" x1="29.99" y1="49.08" x2="111.98" y2="49.08"/>
            <line class="cls-124" x1="29.99" y1="49.49" x2="111.98" y2="49.49"/>
            <line class="cls-125" x1="29.99" y1="49.9" x2="111.98" y2="49.9"/>
            <line class="cls-126" x1="29.99" y1="50.31" x2="111.98" y2="50.31"/>
            <line class="cls-127" x1="29.99" y1="50.72" x2="111.98" y2="50.72"/>
            <line class="cls-128" x1="29.99" y1="51.13" x2="111.98" y2="51.13"/>
            <line class="cls-129" x1="29.99" y1="51.54" x2="111.98" y2="51.54"/>
            <line class="cls-130" x1="29.99" y1="51.95" x2="111.98" y2="51.95"/>
            <line class="cls-131" x1="29.99" y1="52.36" x2="111.98" y2="52.36"/>
            <line class="cls-132" x1="29.99" y1="52.77" x2="111.98" y2="52.77"/>
            <line class="cls-133" x1="29.99" y1="53.18" x2="111.98" y2="53.18"/>
            <line class="cls-134" x1="29.99" y1="53.6" x2="111.98" y2="53.6"/>
            <line class="cls-135" x1="29.99" y1="54.01" x2="111.98" y2="54.01"/>
            <line class="cls-136" x1="29.99" y1="54.42" x2="111.98" y2="54.42"/>
            <line class="cls-137" x1="29.99" y1="54.83" x2="111.98" y2="54.83"/>
            <line class="cls-138" x1="29.99" y1="55.24" x2="111.98" y2="55.24"/>
            <line class="cls-139" x1="29.99" y1="55.65" x2="111.98" y2="55.65"/>
            <line class="cls-140" x1="29.99" y1="56.06" x2="111.98" y2="56.06"/>
            <line class="cls-141" x1="29.99" y1="56.47" x2="111.98" y2="56.47"/>
            <line class="cls-142" x1="29.99" y1="56.88" x2="111.98" y2="56.88"/>
            <line class="cls-143" x1="29.99" y1="57.29" x2="111.98" y2="57.29"/>
            <line class="cls-144" x1="29.99" y1="57.7" x2="111.98" y2="57.7"/>
            <line class="cls-145" x1="29.99" y1="58.11" x2="111.98" y2="58.11"/>
            <line class="cls-146" x1="29.99" y1="58.52" x2="111.98" y2="58.52"/>
            <line class="cls-147" x1="29.99" y1="58.93" x2="111.98" y2="58.93"/>
            <line class="cls-148" x1="29.99" y1="59.34" x2="111.98" y2="59.34"/>
            <line class="cls-149" x1="29.99" y1="59.75" x2="111.98" y2="59.75"/>
            <line class="cls-150" x1="29.99" y1="60.16" x2="111.98" y2="60.16"/>
            <line class="cls-151" x1="29.99" y1="60.57" x2="111.98" y2="60.57"/>
            <line class="cls-152" x1="29.99" y1="60.98" x2="111.98" y2="60.98"/>
            <line class="cls-153" x1="29.99" y1="61.39" x2="111.98" y2="61.39"/>
            <line class="cls-154" x1="29.99" y1="61.8" x2="111.98" y2="61.8"/>
            <line class="cls-155" x1="29.99" y1="62.21" x2="111.98" y2="62.21"/>
            <line class="cls-156" x1="29.99" y1="62.62" x2="111.98" y2="62.62"/>
            <line class="cls-157" x1="29.99" y1="63.03" x2="111.98" y2="63.03"/>
          </g>
          <animate attributeName="opacity"  dur="1.5s" values="0;0;0;0;0;1" repeatCount="1" fill="freeze"></animate>
        </g>
        <g id="left">
          <polyline class="cls-2" points="28.8 47.75 28.8 42.35 28.8 0.04 31.95 0.04"/>
          <polyline class="cls-2" points="31.95 64.07 28.8 64.07 28.8 50.65"/>
        </g>
        <g id="right">
          <polyline class="cls-2" points="110.02 0.04 113.17 0.04 113.17 3.83"/>
          <line class="cls-2" x1="113.17" y1="5.87" x2="113.17" y2="6.41"/>
          <line class="cls-162" x1="113.17" y1="7.45" x2="113.17" y2="17.27"/>
          <line class="cls-2" x1="113.17" y1="17.79" x2="113.17" y2="18.33"/> 
          <polyline class="cls-2" points="113.17 18.33 113.17 64.07 110.02 64.07"/>
          <animateTransform attributeType="xml" attributeName="transform" type="translate" dur="1.2s" 
                            from="-81.99 0" to="0 0"
                            repeatCount="1" fill="freeze"></animateTransform> 
        </g>
        <g id="circle"> 
          <circle fill="#00dcff" opacity="0" cx="13.74" cy="21.86" r="8.98">
            <animate attributeName="opacity"  dur="2s" values="0;0;0;0.1;0.1" repeatCount="indefinite" fill="freeze"></animate>
          </circle>
          <circle fill="#00dcff" opacity="0" cx="13.74" cy="21.86" r="5.55">
            <animate attributeName="opacity"  dur="2s" values="0;0;0.2;0.2" repeatCount="indefinite" fill="freeze"></animate>
          </circle>
          <circle fill="#00dcff" opacity="0" cx="13.74" cy="21.86" r="2.64">
            <animate attributeName="opacity"   dur="2s" values="0;0.9;0.9;0.9" repeatCount="indefinite" fill="freeze"></animate>
          </circle>
          <circle fill="#ffffff" opacity="0" cx="13.74" cy="21.86" r="1">
            <animate attributeName="opacity"  dur="2s" values="1;1;1;1" repeatCount="indefinite" fill="freeze"></animate>
          </circle>
        </g>
      </g>
    </g>
  </g>
</svg>