<svg xmlns="http://www.w3.org/2000/svg"  
     viewBox="0 0 99.21 99.21">
  <defs>
    <style>.cls-1{fill:#fff;}</style>
  </defs>
  <g id="图层_2" data-name="图层 2">
    <g id="图层_7" data-name="图层 7">
      <path class="cls-1" d="M52.41,29a4.29,4.29,0,0,0,1.23-3,4.3,4.3,0,0,0-4.25-4.25,4.27,4.27,0,0,0-3,1.24L23.07,46.3a4.26,4.26,0,0,0,0,6L46.7,75.92a4.3,4.3,0,0,0,3,1.28h0a4.25,4.25,0,0,0,3-1.25,4.2,4.2,0,0,0,1.22-3,4.27,4.27,0,0,0-1.26-3L36.63,53.88,74,54.14a4.26,4.26,0,0,0,3-1.23,4.19,4.19,0,0,0,1.23-3A4.29,4.29,0,0,0,74,45.64l-37.93-.26Z">

        <animateTransform attributeName="transform"
                    attributeType="XML"
                    type="translate"
                    from="80 0"
                    to="-80 0"
                    dur="2s"
                    repeatCount="indefinite"/>
      </path>
      <path class="cls-1" d="M95.43,30.58a4.26,4.26,0,0,0-7.86,3.3,41,41,0,1,1-22.2-22.22,4.26,4.26,0,0,0,3.26-7.88h0A49.26,49.26,0,0,0,49.67,0h-.06A49.56,49.56,0,1,0,95.43,30.58Z">
      </path>
    </g>
  </g>
</svg>