<svg xmlns="http://www.w3.org/2000/svg" xmlns:xlink="http://www.w3.org/1999/xlink" viewBox="0 0 142.9 63.66">
  <defs>
    <style>.cls-1,.cls-7,.cls-8{fill:none;}.cls-2{isolation:isolate;}.cls-3{opacity:0.3;}.cls-11,.cls-13,.cls-15,.cls-16,.cls-3,.cls-5,.cls-9{mix-blend-mode:screen;}.cls-4{mask:url(#mask);}.cls-6,.cls-70{fill:#00dcff;}.cls-7{stroke:#31756c;stroke-width:0.26px;}.cls-7,.cls-8{stroke-miterlimit:10;}.cls-62,.cls-7{mix-blend-mode:color-dodge;}.cls-8{stroke:#00dcff;stroke-width:0.31px;}.cls-9{fill:url(#未命名的渐变_26);}.cls-10{mask:url(#mask-2);}.cls-11{fill:url(#未命名的渐变_26-2);}.cls-12{mask:url(#mask-3);}.cls-13{fill:url(#未命名的渐变_26-3);}.cls-14{mask:url(#mask-4);}.cls-15{fill:url(#未命名的渐变_26-4);}.cls-16{opacity:0.2;}.cls-17,.cls-18,.cls-19,.cls-20,.cls-21,.cls-22,.cls-23,.cls-24,.cls-25,.cls-26,.cls-27,.cls-28,.cls-29,.cls-30,.cls-31,.cls-32,.cls-33,.cls-34,.cls-35,.cls-36,.cls-37,.cls-38,.cls-39,.cls-40,.cls-41,.cls-42,.cls-43,.cls-44,.cls-45,.cls-46,.cls-47,.cls-48,.cls-49,.cls-50,.cls-51,.cls-52,.cls-53,.cls-54,.cls-55,.cls-56,.cls-57,.cls-58,.cls-59,.cls-60,.cls-61,.cls-72{fill-rule:evenodd;}.cls-17{fill:url(#未命名的渐变_11);}.cls-18{fill:url(#未命名的渐变_11-2);}.cls-19{fill:url(#未命名的渐变_11-3);}.cls-20{fill:url(#未命名的渐变_11-4);}.cls-21{fill:url(#未命名的渐变_11-5);}.cls-22{fill:url(#未命名的渐变_11-6);}.cls-23{fill:url(#未命名的渐变_11-7);}.cls-24{fill:url(#未命名的渐变_11-8);}.cls-25{fill:url(#未命名的渐变_11-9);}.cls-26{fill:url(#未命名的渐变_11-10);}.cls-27{fill:url(#未命名的渐变_11-11);}.cls-28{fill:url(#未命名的渐变_11-12);}.cls-29{fill:url(#未命名的渐变_11-13);}.cls-30{fill:url(#未命名的渐变_11-14);}.cls-31{fill:url(#未命名的渐变_11-15);}.cls-32{fill:url(#未命名的渐变_11-16);}.cls-33{fill:url(#未命名的渐变_11-17);}.cls-34{fill:url(#未命名的渐变_11-18);}.cls-35{fill:url(#未命名的渐变_11-19);}.cls-36{fill:url(#未命名的渐变_11-20);}.cls-37{fill:url(#未命名的渐变_11-21);}.cls-38{fill:url(#未命名的渐变_11-22);}.cls-39{fill:url(#未命名的渐变_11-23);}.cls-40{fill:url(#未命名的渐变_11-24);}.cls-41{fill:url(#未命名的渐变_11-25);}.cls-42{fill:url(#未命名的渐变_11-26);}.cls-43{fill:url(#未命名的渐变_11-27);}.cls-44{fill:url(#未命名的渐变_11-28);}.cls-45{fill:url(#未命名的渐变_11-29);}.cls-46{fill:url(#未命名的渐变_11-30);}.cls-47{fill:url(#未命名的渐变_11-31);}.cls-48{fill:url(#未命名的渐变_11-32);}.cls-49{fill:url(#未命名的渐变_11-33);}.cls-50{fill:url(#未命名的渐变_11-34);}.cls-51{fill:url(#未命名的渐变_11-35);}.cls-52{fill:url(#未命名的渐变_11-36);}.cls-53{fill:url(#未命名的渐变_11-37);}.cls-54{fill:url(#未命名的渐变_11-38);}.cls-55{fill:url(#未命名的渐变_11-39);}.cls-56{fill:url(#未命名的渐变_11-40);}.cls-57{fill:url(#未命名的渐变_11-41);}.cls-58{fill:url(#未命名的渐变_11-42);}.cls-59{fill:url(#未命名的渐变_11-43);}.cls-60{fill:url(#未命名的渐变_11-44);}.cls-61{fill:url(#未命名的渐变_11-45);}.cls-62{fill:url(#radial-gradient);}.cls-63{clip-path:url(#clip-path);}.cls-64{clip-path:url(#clip-path-2);}.cls-65{fill:url(#未命名的渐变_10);}.cls-66{fill:url(#未命名的渐变_5);}.cls-67{fill:url(#未命名的渐变_5-2);}.cls-68{fill:url(#未命名的渐变_10-2);}.cls-69,.cls-72{fill:#264357;}.cls-70{font-size:3.61px;font-family:SourceHanSansCN-Medium-GBpc-EUC-H, Source Han Sans CN;}.cls-71{fill:#fff;font-family:SourceHanSansCN-Light-GBpc-EUC-H, Source Han Sans CN;}.cls-73{filter:url(#luminosity-invert);}</style>
    <filter id="luminosity-invert" filterUnits="userSpaceOnUse" color-interpolation-filters="sRGB">
      <feColorMatrix values="-1 0 0 0 1 0 -1 0 0 1 0 0 -1 0 1 0 0 0 1 0"/>
    </filter>
    <mask id="mask" x="-1.85" y="8.53" width="45.6" height="11.5" maskUnits="userSpaceOnUse">
      <g class="cls-73">
        <image width="456" height="115" transform="translate(-1.85 8.53) scale(0.1)" xlink:href="l1-bk-1.png"></image>
      </g>
    </mask>
    <linearGradient id="未命名的渐变_26" x1="20.91" y1="17.97" x2="20.91" y2="28.8" gradientUnits="userSpaceOnUse">
      <stop offset="0" stop-color="#fff" stop-opacity="0.2"/>
      <stop offset="0.02" stop-color="#f9feff" stop-opacity="0.2"/>
      <stop offset="0.66" stop-color="#45e5ff" stop-opacity="0.09"/>
      <stop offset="1" stop-color="#00dcff" stop-opacity="0.05"/>
    </linearGradient>
    <mask id="mask-2" x="-1.85" y="35.93" width="45.6" height="11.5" maskUnits="userSpaceOnUse">
      <g class="cls-73">
        <image width="456" height="115" transform="translate(-1.85 35.93) scale(0.1)" xlink:href="l1-bk-1.png"></image>
      </g>
    </mask>
    <linearGradient id="未命名的渐变_26-2" x1="20.91" y1="45.39" x2="20.91" y2="56.22" xlink:href="#未命名的渐变_26"/>
    <mask id="mask-3" x="99.15" y="8.53" width="45.6" height="11.5" maskUnits="userSpaceOnUse">
      <g class="cls-73">
        <image width="456" height="115" transform="translate(99.15 8.53) scale(0.1)"  xlink:href="l1-bk-2.png"></image>
      </g>
    </mask>
    <linearGradient id="未命名的渐变_26-3" x1="717.99" y1="17.97" x2="717.99" y2="28.8" gradientTransform="matrix(-1, 0, 0, 1, 839.98, 0)" xlink:href="#未命名的渐变_26"/>
    <mask id="mask-4" x="99.15" y="35.93" width="45.6" height="11.5" maskUnits="userSpaceOnUse">
      <g class="cls-73">
        <image width="456" height="115" transform="translate(99.15 35.93) scale(0.1)"  xlink:href="l1-bk-2.png"></image>
      </g>
    </mask>
    <linearGradient id="未命名的渐变_26-4" x1="717.99" y1="45.39" x2="717.99" y2="56.22" gradientTransform="matrix(-1, 0, 0, 1, 839.98, 0)" xlink:href="#未命名的渐变_26"/>
    <linearGradient id="未命名的渐变_11" x1="77.26" y1="57.8" x2="81.01" y2="57.8" gradientUnits="userSpaceOnUse">
      <stop offset="0" stop-color="#00dcff"/>
      <stop offset="1" stop-color="#0f58d6"/>
    </linearGradient>
    <linearGradient id="未命名的渐变_11-2" x1="94.58" y1="48.8" x2="97.05" y2="48.8" xlink:href="#未命名的渐变_11"/>
    <linearGradient id="未命名的渐变_11-3" x1="85.24" y1="52.32" x2="85.52" y2="52.32" xlink:href="#未命名的渐变_11"/>
    <linearGradient id="未命名的渐变_11-4" x1="89.77" y1="54.51" x2="90.05" y2="54.51" xlink:href="#未命名的渐变_11"/>
    <linearGradient id="未命名的渐变_11-5" x1="77.82" y1="54.69" x2="78.06" y2="54.69" xlink:href="#未命名的渐变_11"/>
    <linearGradient id="未命名的渐变_11-6" x1="93.66" y1="49.21" x2="93.95" y2="49.21" xlink:href="#未命名的渐变_11"/>
    <linearGradient id="未命名的渐变_11-7" x1="100.6" y1="44.18" x2="100.84" y2="44.18" xlink:href="#未命名的渐变_11"/>
    <linearGradient id="未命名的渐变_11-8" x1="96.88" y1="51.32" x2="97.13" y2="51.32" xlink:href="#未命名的渐变_11"/>
    <linearGradient id="未命名的渐变_11-9" x1="96.74" y1="50.36" x2="96.98" y2="50.36" xlink:href="#未命名的渐变_11"/>
    <linearGradient id="未命名的渐变_11-10" x1="99" y1="44.7" x2="99.23" y2="44.7" xlink:href="#未命名的渐变_11"/>
    <linearGradient id="未命名的渐变_11-11" x1="99.21" y1="44.37" x2="99.45" y2="44.37" xlink:href="#未命名的渐变_11"/>
    <linearGradient id="未命名的渐变_11-12" x1="88.39" y1="53.99" x2="88.67" y2="53.99" xlink:href="#未命名的渐变_11"/>
    <linearGradient id="未命名的渐变_11-13" x1="88.4" y1="54.35" x2="88.68" y2="54.35" xlink:href="#未命名的渐变_11"/>
    <linearGradient id="未命名的渐变_11-14" x1="86.86" y1="63.15" x2="87.14" y2="63.15" xlink:href="#未命名的渐变_11"/>
    <linearGradient id="未命名的渐变_11-15" x1="86.57" y1="62.18" x2="86.84" y2="62.18" xlink:href="#未命名的渐变_11"/>
    <linearGradient id="未命名的渐变_11-16" x1="85.76" y1="62.62" x2="86.04" y2="62.62" xlink:href="#未命名的渐变_11"/>
    <linearGradient id="未命名的渐变_11-17" x1="83.1" y1="61.16" x2="83.38" y2="61.16" xlink:href="#未命名的渐变_11"/>
    <linearGradient id="未命名的渐变_11-18" x1="83.89" y1="61.75" x2="84.16" y2="61.75" xlink:href="#未命名的渐变_11"/>
    <linearGradient id="未命名的渐变_11-19" x1="82.22" y1="62.11" x2="82.5" y2="62.11" xlink:href="#未命名的渐变_11"/>
    <linearGradient id="未命名的渐变_11-20" x1="83.59" y1="62.76" x2="83.87" y2="62.76" xlink:href="#未命名的渐变_11"/>
    <linearGradient id="未命名的渐变_11-21" x1="81.54" y1="63.32" x2="81.82" y2="63.32" xlink:href="#未命名的渐变_11"/>
    <linearGradient id="未命名的渐变_11-22" x1="85.94" y1="63.54" x2="86.22" y2="63.54" xlink:href="#未命名的渐变_11"/>
    <linearGradient id="未命名的渐变_11-23" x1="87.22" y1="62.44" x2="87.5" y2="62.44" xlink:href="#未命名的渐变_11"/>
    <linearGradient id="未命名的渐变_11-24" x1="83.2" y1="61.44" x2="83.48" y2="61.44" xlink:href="#未命名的渐变_11"/>
    <linearGradient id="未命名的渐变_11-25" x1="93.58" y1="49.6" x2="93.81" y2="49.6" xlink:href="#未命名的渐变_11"/>
    <linearGradient id="未命名的渐变_11-26" x1="93.47" y1="49.93" x2="93.71" y2="49.93" xlink:href="#未命名的渐变_11"/>
    <linearGradient id="未命名的渐变_11-27" x1="97" y1="45.48" x2="97.24" y2="45.48" xlink:href="#未命名的渐变_11"/>
    <linearGradient id="未命名的渐变_11-28" x1="96.93" y1="45.24" x2="97.17" y2="45.24" xlink:href="#未命名的渐变_11"/>
    <linearGradient id="未命名的渐变_11-29" x1="94.71" y1="23.35" x2="94.93" y2="23.35" xlink:href="#未命名的渐变_11"/>
    <linearGradient id="未命名的渐变_11-30" x1="80.02" y1="54.48" x2="80.28" y2="54.48" xlink:href="#未命名的渐变_11"/>
    <linearGradient id="未命名的渐变_11-31" x1="83.23" y1="53.45" x2="83.39" y2="53.45" xlink:href="#未命名的渐变_11"/>
    <linearGradient id="未命名的渐变_11-32" x1="83.47" y1="53.4" x2="83.67" y2="53.4" xlink:href="#未命名的渐变_11"/>
    <linearGradient id="未命名的渐变_11-33" x1="89.78" y1="49.89" x2="90.08" y2="49.89" xlink:href="#未命名的渐变_11"/>
    <linearGradient id="未命名的渐变_11-34" x1="91.7" y1="47.97" x2="91.93" y2="47.97" xlink:href="#未命名的渐变_11"/>
    <linearGradient id="未命名的渐变_11-35" x1="93.53" y1="45.94" x2="93.83" y2="45.94" xlink:href="#未命名的渐变_11"/>
    <linearGradient id="未命名的渐变_11-36" x1="94.98" y1="35.96" x2="95.22" y2="35.96" xlink:href="#未命名的渐变_11"/>
    <linearGradient id="未命名的渐变_11-37" x1="94.27" y1="35.6" x2="95.34" y2="35.6" xlink:href="#未命名的渐变_11"/>
    <linearGradient id="未命名的渐变_11-38" x1="32.1" y1="28" x2="104.33" y2="28" xlink:href="#未命名的渐变_11"/>
    <linearGradient id="未命名的渐变_11-39" x1="95.94" y1="37.6" x2="96.14" y2="37.6" xlink:href="#未命名的渐变_11"/>
    <linearGradient id="未命名的渐变_11-40" x1="96.12" y1="37.31" x2="96.35" y2="37.31" xlink:href="#未命名的渐变_11"/>
    <linearGradient id="未命名的渐变_11-41" x1="95.73" y1="38" x2="96.35" y2="38" xlink:href="#未命名的渐变_11"/>
    <linearGradient id="未命名的渐变_11-42" x1="95.13" y1="41.37" x2="95.4" y2="41.37" xlink:href="#未命名的渐变_11"/>
    <linearGradient id="未命名的渐变_11-43" x1="96.41" y1="38.15" x2="96.51" y2="38.15" xlink:href="#未命名的渐变_11"/>
    <linearGradient id="未命名的渐变_11-44" x1="96.21" y1="37.63" x2="96.38" y2="37.63" xlink:href="#未命名的渐变_11"/>
    <linearGradient id="未命名的渐变_11-45" x1="96.03" y1="38.53" x2="96.23" y2="38.53" xlink:href="#未命名的渐变_11"/>
    <radialGradient id="radial-gradient" cx="65.99" cy="-6.55" r="16.18" gradientTransform="translate(47.64 -28.72) rotate(74.37) scale(0.99)" gradientUnits="userSpaceOnUse">
      <stop offset="0.41"/>
      <stop offset="0.42" stop-color="#040404"/>
      <stop offset="0.43" stop-color="#111"/>
      <stop offset="0.44" stop-color="#272727"/>
      <stop offset="0.45" stop-color="#454545"/>
      <stop offset="0.47" stop-color="#6b6b6b"/>
      <stop offset="0.48" stop-color="#9a9a9a"/>
      <stop offset="0.49" stop-color="#d1d1d1"/>
      <stop offset="0.5" stop-color="#fff"/>
      <stop offset="0.52" stop-color="#dbdbdb"/>
      <stop offset="0.54" stop-color="#aeaeae"/>
      <stop offset="0.57" stop-color="#848484"/>
      <stop offset="0.59" stop-color="#606060"/>
      <stop offset="0.62" stop-color="#424242"/>
      <stop offset="0.66" stop-color="#2a2a2a"/>
      <stop offset="0.69" stop-color="#171717"/>
      <stop offset="0.74" stop-color="#0a0a0a"/>
      <stop offset="0.79" stop-color="#020202"/>
      <stop offset="0.9"/>
    </radialGradient>
    <clipPath id="clip-path">
      <path class="cls-1" d="M68.47,24.92a8,8,0,1,0,10.32,4.53A8,8,0,0,0,68.47,24.92ZM72.59,35.5a3.39,3.39,0,1,1,1.93-4.38A3.39,3.39,0,0,1,72.59,35.5Z"/>
    </clipPath>
    <clipPath id="clip-path-2">
      <rect class="cls-1" x="61.73" y="24.58" width="19.44" height="16.21" transform="translate(-6.99 28.15) rotate(-21.27)"/>
    </clipPath>
    <linearGradient id="未命名的渐变_10" x1="49.79" y1="19.16" x2="81.88" y2="19.16" gradientUnits="userSpaceOnUse">
      <stop offset="0" stop-color="#00dcff"/>
      <stop offset="1" stop-color="#fff"/>
    </linearGradient>
    <linearGradient id="未命名的渐变_5" x1="84.45" y1="42.59" x2="84.45" y2="10.5" gradientUnits="userSpaceOnUse">
      <stop offset="0" stop-color="#fff"/>
      <stop offset="1" stop-color="#00dcff"/>
    </linearGradient>
    <linearGradient id="未命名的渐变_5-2" x1="61.03" y1="45.03" x2="93.12" y2="45.03" xlink:href="#未命名的渐变_5"/>
    <linearGradient id="未命名的渐变_10-2" x1="58.45" y1="53.69" x2="58.45" y2="21.6" xlink:href="#未命名的渐变_10"/>
  </defs>
  <g class="cls-2">
    <g id="图层_2" data-name="图层 2">
      <g id="图层_10" data-name="图层 10">
        <g class="cls-3">
          <path d="M41.67,18H.15V14.22l3.61-3.61H41.67Z"/>
          <g class="cls-4">
            <g class="cls-5">
              <path class="cls-6" d="M41.67,18H.15V14.22l3.61-3.61H41.67Z"/>
            </g>
          </g>
        </g>
        <path class="cls-7" d="M41.67,18H.15V14.22l3.61-3.61H41.67Z"/>
        <polyline class="cls-8" points="39.09 10.61 41.67 10.61 41.67 12.86"/>
        <path class="cls-8" d="M2.85,11.6l1-1H9.16"/>
        <path class="cls-8" d="M.15,18V14.29l.93-.93"/>
        <rect class="cls-9" x="0.15" y="17.97" width="41.51" height="10.83"/>
        <g class="cls-3">
          <path d="M41.67,45.39H.15V41.63L3.76,38H41.67Z"/>
          <g class="cls-10">
            <g class="cls-5">
              <path class="cls-6" d="M41.67,45.39H.15V41.63L3.76,38H41.67Z"/>
            </g>
          </g>
        </g>
        <path class="cls-7" d="M41.67,45.39H.15V41.63L3.76,38H41.67Z"/>
        <polyline class="cls-8" points="39.09 38.02 41.67 38.02 41.67 40.28"/>
        <path class="cls-8" d="M2.85,39l1-1H9.16"/>
        <path class="cls-8" d="M.15,45.39V41.71l.93-.93"/>
        <rect class="cls-11" x="0.15" y="45.39" width="41.51" height="10.83"/>
        <g class="cls-3">
          <path d="M101.23,18h41.52V14.22l-3.61-3.61H101.23Z"/>
          <g class="cls-12">
            <g class="cls-5">
              <path class="cls-6" d="M101.23,18h41.52V14.22l-3.61-3.61H101.23Z"/>
            </g>
          </g>
        </g>
        <path class="cls-7" d="M101.23,18h41.52V14.22l-3.61-3.61H101.23Z"/>
        <polyline class="cls-8" points="103.82 10.61 101.23 10.61 101.23 12.86"/>
        <path class="cls-8" d="M140.06,11.6l-1-1h-5.33"/>
        <path class="cls-8" d="M142.75,18V14.29l-.93-.93"/>
        <rect class="cls-13" x="101.23" y="17.97" width="41.52" height="10.83"/>
        <g class="cls-3">
          <path d="M101.23,45.39h41.52V41.63L139.14,38H101.23Z"/>
          <g class="cls-14">
            <g class="cls-5">
              <path class="cls-6" d="M101.23,45.39h41.52V41.63L139.14,38H101.23Z"/>
            </g>
          </g>
        </g>
        <path class="cls-7" d="M101.23,45.39h41.52V41.63L139.14,38H101.23Z"/>
        <polyline class="cls-8" points="103.82 38.02 101.23 38.02 101.23 40.28"/>
        <path class="cls-8" d="M140.06,39l-1-1h-5.33"/>
        <path class="cls-8" d="M142.75,45.39V41.71l-.93-.93"/>
        <rect class="cls-15" x="101.23" y="45.39" width="41.52" height="10.83"/>
        <g class="cls-16">
          <path class="cls-17" d="M81,56.52c0-.13-.25-.21-.21-.19s-.16-.09-.22-.14-.1,0-.18,0,0,.18-.06.18-.13,0-.2-.09,0,0,0,0,0,0-.08,0-.32,0-.37,0a.29.29,0,0,0-.16.1c-.07.08-.08,0-.14,0s-.31,0-.44,0-.14.1-.17.15,0,0,0,.07-.12,0-.26,0-.15,0-.23.1-.09.16.07.15.08,0,0,.08-.17.05-.25.15a5.36,5.36,0,0,1-.68.46c-.14.1-.09.81,0,.94a1.5,1.5,0,0,1,.08.37c0,.27.55.35.61.35a.12.12,0,0,1,.12.09c0,.06.32.05.4,0s.09,0,.09.12.2,0,.29,0a.23.23,0,0,0,.14-.2c0-.1.19-.1.29-.14s0,0,.12.06.21-.21.3-.35a.26.26,0,0,1,.27-.13c.08,0,.17-.12.23-.16s0-.11-.06-.17,0-.11,0-.17,0-.13.07-.3a1.15,1.15,0,0,1,.25-.52c.13-.12,0-.23,0-.33s.08,0,.17-.05.06,0,0,.13.15,0,.25-.13,0-.09,0-.16A.69.69,0,0,1,81,56.52Z"/>
          <path class="cls-18" d="M97,47.24a.58.58,0,0,0-.1-.43c-.09-.16.07-.35.14-.42s0-.12-.1-.18a.28.28,0,0,0-.22-.05c-.09,0-.16-.12-.26-.21s-.2.06-.2.06a1.26,1.26,0,0,1-.14.2.44.44,0,0,1-.26.18.42.42,0,0,0-.24.37c0,.08,0,.15-.17.34A5.81,5.81,0,0,0,95,48c0,.15-.2.39-.21.49a2,2,0,0,1-.11.35.56.56,0,0,0,0,.46c.06.1.06.11,0,.19a.5.5,0,0,0,0,.35c0,.22.24.41.25.46a.15.15,0,0,0,.08.13s0,.14,0,.21.06.15.18.17a1.52,1.52,0,0,1,.43.25c.15.11.14.35.15.44s.09.1.2.13.1,0,.08-.11,0-.43,0-.69.25-.58.28-.66a2.87,2.87,0,0,1,.27-.56,1.64,1.64,0,0,0,.12-.67c0-.31.06-.87.06-1A3.49,3.49,0,0,1,97,47.24Z"/>
          <path class="cls-19" d="M85.27,52.27c-.1.19.07.14.13.12s.07,0,.11-.11S85.27,52.27,85.27,52.27Z"/>
          <path class="cls-20" d="M89.93,54.39h-.05a.2.2,0,0,0-.11.14.11.11,0,0,0,.08.09h.06a.14.14,0,0,0,.14-.08v0A.12.12,0,0,0,89.93,54.39Z"/>
          <path class="cls-21" d="M77.93,54.84a.18.18,0,0,0,.1-.07.26.26,0,0,0,0-.11.12.12,0,0,0-.09-.13h0a.19.19,0,0,0-.12.15.14.14,0,0,0,0,.06S77.87,54.83,77.93,54.84Z"/>
          <path class="cls-22" d="M93.82,49.08a.09.09,0,0,0-.07,0c-.07,0-.08.05-.08.07h0a.13.13,0,0,0,0,.06.3.3,0,0,0,0,.12.1.1,0,0,0,.1.07h0s.09,0,.12-.06,0,0,0-.08a.09.09,0,0,0,0,0S93.87,49.12,93.82,49.08Z"/>
          <path class="cls-23" d="M100.72,44.06a.12.12,0,0,0-.12.12.12.12,0,0,0,.24,0A.12.12,0,0,0,100.72,44.06Z"/>
          <path class="cls-24" d="M97,51.21l0,0a.15.15,0,0,0-.11.12.09.09,0,0,0,.07.08H97a.12.12,0,0,0,.12-.07v0A.11.11,0,0,0,97,51.21Z"/>
          <path class="cls-25" d="M97,50.4a0,0,0,0,0,0,0,.11.11,0,0,0-.1-.11h0a.13.13,0,0,0-.09.12s.05.08.07.08h0A.1.1,0,0,0,97,50.4Z"/>
          <path class="cls-26" d="M99.11,44.59a.11.11,0,0,0-.11.11.11.11,0,0,0,.11.12.12.12,0,0,0,.12-.12A.11.11,0,0,0,99.11,44.59Z"/>
          <path class="cls-27" d="M99.33,44.26a.12.12,0,0,0-.12.11.13.13,0,0,0,.12.12.12.12,0,0,0,.12-.12A.11.11,0,0,0,99.33,44.26Z"/>
          <path class="cls-28" d="M88.48,54.11h0a.14.14,0,0,0,.14-.08v0a.13.13,0,0,0-.11-.14.06.06,0,0,0,0,0,.18.18,0,0,0-.12.14A.11.11,0,0,0,88.48,54.11Z"/>
          <path class="cls-29" d="M88.56,54.23a.06.06,0,0,0,0,0h0a.15.15,0,0,0-.11.13s0,.09.08.09h0a.13.13,0,0,0,.14-.08s0,0,0,0S88.66,54.24,88.56,54.23Z"/>
          <path class="cls-30" d="M87,63a.08.08,0,0,0,0,0,.15.15,0,0,0-.11.13.1.1,0,0,0,.08.09H87a.13.13,0,0,0,.13-.08.08.08,0,0,0,0,0A.13.13,0,0,0,87,63Z"/>
          <path class="cls-31" d="M86.73,62.06h0a.16.16,0,0,0-.11.14s0,.09.08.09h0a.14.14,0,0,0,.14-.08v0A.12.12,0,0,0,86.73,62.06Z"/>
          <path class="cls-32" d="M86,62.67a.08.08,0,0,0,0,0,.13.13,0,0,0-.12-.13.08.08,0,0,0,0,0,.15.15,0,0,0-.11.13.1.1,0,0,0,.08.09h.06A.13.13,0,0,0,86,62.67Z"/>
          <path class="cls-33" d="M83.37,61.2v0a.12.12,0,0,0-.12-.13.05.05,0,0,0-.05,0s-.1.05-.11.14a.11.11,0,0,0,.08.09h.06A.12.12,0,0,0,83.37,61.2Z"/>
          <path class="cls-34" d="M84.05,61.63a.08.08,0,0,0,0,0,.14.14,0,0,0-.11.13s0,.09.08.09h0a.16.16,0,0,0,.14-.09v0A.12.12,0,0,0,84.05,61.63Z"/>
          <path class="cls-35" d="M82.38,62h0a.18.18,0,0,0-.11.14s0,.09.08.09h0a.13.13,0,0,0,.14-.08s0,0,0,0S82.48,62,82.38,62Z"/>
          <path class="cls-36" d="M83.76,62.64H83.7a.2.2,0,0,0-.11.14.1.1,0,0,0,.08.09h.06a.14.14,0,0,0,.14-.08v0A.12.12,0,0,0,83.76,62.64Z"/>
          <path class="cls-37" d="M81.71,63.2l-.06,0a.17.17,0,0,0-.11.13.1.1,0,0,0,.08.09h.06a.15.15,0,0,0,.14-.08v0A.12.12,0,0,0,81.71,63.2Z"/>
          <path class="cls-38" d="M86.1,63.42h0s-.1,0-.11.14a.11.11,0,0,0,.08.09h0c.06,0,.12,0,.14-.08s0,0,0,0S86.2,63.43,86.1,63.42Z"/>
          <path class="cls-39" d="M87.39,62.32l-.06,0a.17.17,0,0,0-.11.13.1.1,0,0,0,.08.09h.06a.16.16,0,0,0,.14-.09v0A.12.12,0,0,0,87.39,62.32Z"/>
          <path class="cls-40" d="M83.36,61.31l0,0a.17.17,0,0,0-.11.13.1.1,0,0,0,.08.09h.06a.15.15,0,0,0,.14-.08v0A.13.13,0,0,0,83.36,61.31Z"/>
          <path class="cls-41" d="M93.69,49.49a.11.11,0,0,0-.11.11.11.11,0,0,0,.11.12.12.12,0,0,0,.12-.12A.11.11,0,0,0,93.69,49.49Z"/>
          <path class="cls-42" d="M93.59,49.82a.11.11,0,1,0,.12.11A.11.11,0,0,0,93.59,49.82Z"/>
          <path class="cls-43" d="M97.12,45.37a.11.11,0,1,0,.12.11A.11.11,0,0,0,97.12,45.37Z"/>
          <path class="cls-44" d="M97.17,45.24a.11.11,0,0,0-.12-.11.12.12,0,0,0-.12.11.12.12,0,0,0,.24,0Z"/>
          <path class="cls-45" d="M94.83,23.26h-.08a.18.18,0,0,0,0,.09.09.09,0,0,0,.08.08.18.18,0,0,0,.13-.08s0,0,0,0A.08.08,0,0,0,94.83,23.26Z"/>
          <path class="cls-46" d="M80.19,54.53s.06,0,.09-.06-.22,0-.22,0S80.14,54.51,80.19,54.53Z"/>
          <path class="cls-47" d="M83.39,53.39c0-.11-.08-.06-.08-.06-.13.18-.08.26,0,.24S83.38,53.49,83.39,53.39Z"/>
          <path class="cls-48" d="M83.67,53.28c0-.06-.09,0-.09,0-.16.09-.11.15-.08.18s.07.11.12.11S83.65,53.34,83.67,53.28Z"/>
          <path class="cls-49" d="M89.91,49.83a.19.19,0,0,0-.1,0c-.09.08.11.08.16.09s.07,0,.11-.09S90,49.83,89.91,49.83Z"/>
          <path class="cls-50" d="M91.85,47.9s-.13,0-.13,0,.09.18.14.18.06-.12.07-.19S91.87,47.87,91.85,47.9Z"/>
          <path class="cls-51" d="M93.73,45.83c0-.06-.09-.07-.16-.08s0,0,0,0a.28.28,0,0,0,0,.08s0,.09,0,.16,0,.08.11.1.08,0,.13,0,0-.13,0-.16S93.76,45.89,93.73,45.83Z"/>
          <path class="cls-52" d="M95,35.94s.21.09.23.07,0-.07-.14-.1S95,35.94,95,35.94Z"/>
          <path class="cls-53" d="M95.2,35.67l-.29-.09a3,3,0,0,0-.51-.21c-.2,0-.12.12-.12.12s.3.19.43.2a1,1,0,0,1,.31.1.31.31,0,0,0,.3,0C95.39,35.74,95.27,35.68,95.2,35.67Z"/>
          <path class="cls-54" d="M90.8,30.45h.11c.11,0,.06-.13,0-.27a.19.19,0,0,1,.09-.2c.06,0,.07-.31.11-.39s.1-.07.17-.07.24-.21.34-.29a2.22,2.22,0,0,0,.27-.41c.06-.07-.15-.18-.22-.21s-.06,0,0-.09.06,0,.16,0,.06,0,.06-.09.1,0,.08.09,0,.08,0,.18.25-.09.35-.13.08-.14.06-.26a.4.4,0,0,1,0-.3c.06-.06.07,0,.09.12s.16-.18.22-.22-.06,0-.12-.08,0-.06-.18,0,0,0,0-.1.13,0,.21,0,.21-.18.36-.25.15-.13.21-.24.08,0,.07.09.16-.05.18-.13.13-.14.21-.2.07,0,.07-.12.09,0,.12.09.11-.05.15-.14,0,0,.06,0,.08.1.07.14.23,0,.29,0,.13-.29,0-.28-.12,0-.09-.07a.56.56,0,0,1,.15-.16c.07-.07,0-.09,0-.17s0-.1.11-.18-.16-.05-.22-.05-.06,0-.2.06-.18-.05-.28-.14-.2.05-.22.12-.07.06-.11.06-.27.07-.44.1a.16.16,0,0,1-.17-.21S93,26,93,26s-.11,0-.09,0,.08,0,0,.08-.2-.19-.28-.14-.19-.08-.32-.12-.59.22-.73.29-.1.11,0,.1.06,0,0,.12a1.3,1.3,0,0,1-.41.33c-.1.06,0,.08,0,.14s-.13.23-.24.27,0,.05-.2.05a.68.68,0,0,0-.35,0c-.12.05-.13,0-.18-.05s-.11-.08-.31-.18,0-.11,0-.21a.84.84,0,0,1,0-.35c.06-.09,0-.08-.07-.15s0-.06,0-.13,0-.21-.13-.36-.2-.11-.21,0-.11.1-.2.2-.09,0-.13-.14-.38.13-.4.21-.08.1-.15.07-.06-.08-.05-.14-.16-.22-.28-.24l-.13,0a.21.21,0,0,1,0-.06c.07-.06,0-.06-.09-.17a.53.53,0,0,1-.14-.23,1.57,1.57,0,0,1-.08-.29.71.71,0,0,1,.07-.46c.07-.05,0-.06,0-.13s.09-.12.2-.24a.13.13,0,0,1,.1,0v0h0s0,0,0,0,.17.12.28.2.33-.05.4-.14.06,0,.18,0,.17-.07.33-.11.36-.32.4-.39a.14.14,0,0,0,0-.21c-.08-.07.06-.18.08-.28s0-.12.14-.14.08-.05.09-.12,0-.07.14-.11l.22-.15v0c.24-.15.54-.37.56-.38s.12,0,.18-.24a1.45,1.45,0,0,1,.21-.45.46.46,0,0,1,.22-.26c.08-.07.06-.06,0-.1s0,0,0-.1.08,0,.11-.12,0-.08.21-.13.34,0,.48,0,.09-.12.09-.2.12-.06.19,0,.08.17.07.27.25.19.31.28a1.6,1.6,0,0,0,.27.26c0,.06,0,.11-.07.13s-.09.15-.11.23,0,.13,0,.17,0,0-.06.08,0,.05-.07.09-.2.28-.25.28a.75.75,0,0,0-.23.19.12.12,0,0,0,0,.21c.06,0,0,0-.1.11a.28.28,0,0,0-.14.11.06.06,0,0,0,.07.09c.06,0,.29,0,.21,0s-.2,0-.2.11,0,.14,0,.1,0-.12.08-.06,0,.08.08.06a.27.27,0,0,1,.12,0s.09,0,.08,0l.19-.07c.21-.08.19,0,.11.05a2,2,0,0,0-.23.21c-.1.08,0,.16,0,.2s0,.07-.08.14-.12.06-.19,0-.07,0-.08.08-.11.08-.24.14,0,.2,0,.28.14,0,.18-.05a2.64,2.64,0,0,1,.53-.22c.1,0,0-.11-.06-.14s0-.06,0-.1.06,0,.15.07.16-.15.24-.26a2.37,2.37,0,0,0,.14-.29c0-.06.06,0,0-.07s0-.13.09-.19,0,0,.15-.07.34-.3.42-.37a2.72,2.72,0,0,1,.44-.18c.07,0,0-.07,0-.13s0-.1.09-.1.1,0,.17.06.31-.23.37-.22.08,0,.12-.1.07,0,.12,0,.14,0,.23,0,.06-.12.14-.16H96l.07-.34a.47.47,0,0,1,.1-.24c.08-.08.18-.42.27-.46s.21,0,.19-.11,0-.11.17-.22.15-.15.21-.14,0,0,.07-.06,0-.16.13-.17.13,0,.13-.11v-.09l.2-.12c.13-.05.16-.2.19-.27a4,4,0,0,1,.29-.59c.08-.11.09-.54.16-.66a.29.29,0,0,1,.22-.19c.14-.05.19,0,.19,0l.21.28a1,1,0,0,0,.37,0c.11-.05.15,0,.23,0s.13,0,.28-.08.21-.06.32,0,.09-.18.12-.24,0-.18-.12-.29a.33.33,0,0,1-.16-.32c0-.14,0-.18.21-.24a5.27,5.27,0,0,0,.6-.2c.17-.07.28-.48.28-.66s.22-.13.35-.13.12-.31.11-.42a1.06,1.06,0,0,1,0-.35.3.3,0,0,0,0-.21c0-.07,0-.11.09,0s.11,0,.19,0,0,.09.12.12a.46.46,0,0,1,.23.25c0,.08.26.2.26.2a.47.47,0,0,1,.15,0c.07,0,0-.2-.18-.31s.39-.32.51-.44,0-.92,0-.92l-.11-.07h0s0-.09-.09-.22a2.7,2.7,0,0,1-.11-.71A3.68,3.68,0,0,0,102,12c-.2-.32-.17-.28,0-.38a2.57,2.57,0,0,0,.47-.71c.13-.23.48,0,.48,0a4,4,0,0,0,1,0c.22-.07.12-.35.07-.66s.11-.32.15-.41,0-.15,0-.27.08-.25.12-.33a.48.48,0,0,0,0-.31.39.39,0,0,1,.06-.27.2.2,0,0,0,0-.13.38.38,0,0,1,0-.13c0-.08,0-.06-.12-.11s0-.13,0-.26a.4.4,0,0,0-.06-.33.92.92,0,0,1,0-.46c0-.1,0-.2-.09-.32s.06-.26.13-.33a1.81,1.81,0,0,0,.21-.44c.07-.17-.14-.34-.27-.43s-.08-.16,0-.25,0-.19,0-.26.31-.35.3-.41,0-.18,0-.14S104,5,104,5l-.17,0c-.1,0-.13,0-.18,0a3.88,3.88,0,0,0-.81.72c-.12.2-.42.19-.47.24a3.16,3.16,0,0,0-.18.27,1.38,1.38,0,0,0-.16.39.16.16,0,0,1-.2.14c-.09,0-.24.13-.27.2s-.16.11-.32.12-.07.06-.28,0-.32.1-.43.19-.36-.07-.53-.31a.83.83,0,0,1-.17-.52.65.65,0,0,0-.35-.44c-.14,0-.1-.18-.13-.35s-.23,0-.47,0-.21-.23-.24-.29-.18-.09-.18-.09a.7.7,0,0,0-.26-.17c-.11,0-.1-.08-.2-.16s-.06,0-.21.15a.24.24,0,0,1-.28,0,.44.44,0,0,0-.18,0c-.1,0-.06,0-.17-.09s-.12,0-.42.13a1.62,1.62,0,0,1-.5,0c-.19,0-.27-.17-.45-.29s-.08-.35-.08-.5-.1-.15-.25-.16-.28-.54-.28-.61-.09-.07-.41-.36-.28-.46-.28-.46l-.11-.14a1.17,1.17,0,0,0-.21-.29c-.08-.05-.08-.09-.07-.18S93.9,2,93.8,2a.42.42,0,0,1-.16-.32c0-.09,0-.11-.12-.14s0-.11,0-.16S93.16,1,93,1s0-.11,0-.24S92.86.66,92.8.6a.17.17,0,0,0-.2,0c-.07,0-.12-.16-.12-.16s-.25-.12-.39-.17a.53.53,0,0,0-.45.07c-.09.08-.07.09-.28.07A.8.8,0,0,1,91,.17a1.39,1.39,0,0,0-.53-.12c-.22,0-.21,0-.27,0s-.42.08-.57.13a2.87,2.87,0,0,1-.67.16,2,2,0,0,0-.69.4h0a.34.34,0,0,0-.14.05.46.46,0,0,1-.33.07c-.16,0-.38.43-.38.43a2.19,2.19,0,0,1-.28.48c-.11.09-.09.18-.1.35s.11.08.22,0a.46.46,0,0,1,.38,0c.13,0,.12.12,0,.22s0,.11,0,.14.11.08.17.25-.26.61-.26.61-.25.34-.32.45a1.12,1.12,0,0,0-.15.52,1.1,1.1,0,0,1-.06.48.86.86,0,0,0-.1.39,1,1,0,0,1-.13.43c-.06.11-.08.26,0,.3s.08.11.1.3-.23.36-.42.4a4,4,0,0,0-.87.81c-.09.11-.32,0-.45,0a1.15,1.15,0,0,0-.47-.11.8.8,0,0,1-.44-.12l-.49,1.48s-.17.87-.26,1.17c0,.08-.17.13-.22.17s.11.37.3.49a.35.35,0,0,0,.42.05l.23-.13a1.35,1.35,0,0,1,1,.1c.36.19.53-.23.76-.55s.85.13,1,.25a2.92,2.92,0,0,0,.34.22c.07,0,.09.13.16.16s.17,0,.26.08a1.4,1.4,0,0,1,.18.13,1.09,1.09,0,0,1,.45.92c0,.32-.6.24-.88.17s.25.07-.53.11-.7.38-.89.36-.37.09-.35.26-.17.17-.48.14-.64.68-.62.83-.06.36-.53.73a1.3,1.3,0,0,1-1,.23c-.15,0-.3,0-.56.45a1.76,1.76,0,0,1-.89.74c-.27.13-1.23-.17-1.23-.17a2.44,2.44,0,0,0-.47-.17c-.3-.09-.55.72-.66,1s.09.48.38.78.32.28.18.56a.81.81,0,0,1-.6.44,1.32,1.32,0,0,0-.68.75c-.11.27-.66.59-.66.59s-.57.32-.85.43a11.52,11.52,0,0,1-2.23.1,2.08,2.08,0,0,0-1.13.36c-.21.15-1.7.62-1.87.79s-.25.15-.51.13S71,21.13,71,21s-.1-.08-.66,0a1.77,1.77,0,0,1-1.27-.47c-.21-.21-.51-.13-.79-.13s-.3-.08-.44-.34-1.15-.44-1.49-.57-.68,0-1.24.09a3.12,3.12,0,0,1-1.44-.17,13.53,13.53,0,0,0-1.62-.3h0s0,0-.2,0-.5-.07-.77-.1a.54.54,0,0,0,0-.1.82.82,0,0,0-.31-.45c-.16-.08-.29-.84-.31-1a2.34,2.34,0,0,0-.33-.62c-.11-.15-.09-.11,0-.27s-.17-.13-.45-.17-.33-.29-.62-.57a13,13,0,0,0-1.3-.88l-.71,0a1.39,1.39,0,0,0-.32-.15,4.75,4.75,0,0,1-.63-.14,1.24,1.24,0,0,0-.28-.11c-.07,0-.11,0-.19-.05a1.42,1.42,0,0,0-.27-.12c-.13-.05-.16-.2-.31-.48s.2-.57.36-.77a.85.85,0,0,0,.08-.58.48.48,0,0,1,.13-.28c.08-.09,0-.14.05-.35a2.28,2.28,0,0,0-.29-.84,1.58,1.58,0,0,1-.1-.61c0-.09-.08-.21-.15-.3a.28.28,0,0,1-.1-.21c0-.11-.15-.05-.24,0s-.2-.06-.23-.21-.16-.12-.3-.17a2.88,2.88,0,0,1-.45-.19c-.13-.07-.37-.34-.35-.47s-.32-.31-.42-.39-.12-.16,0-.29,0-.16-.14-.33.12-.31.17-.43-.17-.14-.37-.15-.06,0-.25-.06L52,7c-.08.19-.27-.18-.23.35s-.58.6-1.16.65S50,9,50,9.55s-.23.45-.61.55c-.06,0-.18.22-.25.28s-.08-.1-.13-.1-.12-.22-.2-.22a2.72,2.72,0,0,1-1.44-.64c-.19-.13-.28-.09-.28-.09l-1.39,2.09c-.13.22,0,.52.09.59a.13.13,0,0,1-.1.2A1.79,1.79,0,0,1,45,11.9c-.1-.1-.79-.05-.88-.06s-.88,0-1.3.06-.27.31,0,.4,0,.68,0,.88,0,1.64-.06,1.77-.26.18-.26.18a.35.35,0,0,1-.09.23.74.74,0,0,1-.37,0s-.09-.05-.11,0-.1.64-.12.92-.42.3-.42.3-1.59.27-2,.32a1.28,1.28,0,0,0-.64.25c-.14.06-.19-.16-.27-.15s-.09.06-.22.16a.28.28,0,0,1-.32,0c-.12-.05-.42-.14-.56-.21A.37.37,0,0,0,37,17c-.09,0-.4.56-.5.65a.24.24,0,0,1-.29.06,1.86,1.86,0,0,0-.67-.07c-.22,0-.15-.24-.1-.38s-.14-.17-.27-.13a.8.8,0,0,1-.48,0c-.16-.07-.15-.08-.19,0s0,.12-.12.08-.26.05-.42.13a.83.83,0,0,1-.6,0c-.16-.06-.5.7-.52.77s-.19,0-.39.06c0,0-.06.06-.09.07-.24.06,0,.6,0,.65s-.17.16-.21.27-.14.06,0,.37.34.2.57.14.33.16.48.37,0,.2,0,.3l-.08.2a.34.34,0,0,0,.05.38c.1.09,0,.13-.1.38s-.16.15-.2.26.17.36.16.42-.08.09-.1.1-.28,0-.53,0-.06.4.1.45a1.32,1.32,0,0,1,.66.55c.06.19.18.23.36.33a.79.79,0,0,1,.15.77c-.1.13-.05.18.1.52s.18.22.42.23.14.11.26.43.94.6,1.27.73.3.13.17.23,0,.38,0,.53a1.81,1.81,0,0,1,0,.44,1.51,1.51,0,0,0,.07.47l.69.57h.07a.58.58,0,0,1-.51.31c-.25,0-.1.2-.06.34a.55.55,0,0,1-.07.4,1,1,0,0,0,.13.67,3.69,3.69,0,0,1,.16,1,.51.51,0,0,1-.36.5c-.28.11-.36-.28-.41-.46s-.09-.07-.31,0-.2.3-.2.51a1.77,1.77,0,0,0,.14.63c.07.15,0,.18,0,.3a2.81,2.81,0,0,0,.16.95c.09.3.09.48.39.51a1.06,1.06,0,0,1,.66.43c.07.11.83,1,1,1.12s.36.52.48.65.16-.1.28-.18a1.21,1.21,0,0,1,.56-.24c.25,0,.5.31.53.48s.52.58.68.65.4.53.6.68.23.51.38.68.34,0,.63,0,.21.46.24.61a2.45,2.45,0,0,0,.94.82c.22.06.2.06.17.3s.4.3.65.33.34.25.41.5.15.28.29.11.14-.1.18.1.29.15.37,0,.39.16.66.33a3.34,3.34,0,0,0,1,.32c.14,0,.29-.08.39-.08s.64,0,1.06-.09.09.7.07,1a.38.38,0,0,0,.33.41c.1,0,.14-.46.24-.62a5.53,5.53,0,0,1,1-.73c.19-.11,1.4.53,1.52.68s.38-.13.57-.11.27.43.3.68a.42.42,0,0,0,.44.42c.29,0,.22.16.24.51s0,.36.29.47a13,13,0,0,0,2.07.09c.25,0,.66-.7.77-.8a8.55,8.55,0,0,1,1.29-.38,2.17,2.17,0,0,0,.65-.53.68.68,0,0,1,.64-.07,2.1,2.1,0,0,0,.48.15c.26.06.34.21.51.26a2.86,2.86,0,0,1,.58.53l.48-.11,0-.55a.64.64,0,0,0,.23-.25c.11-.2.52.11.52.11a1.69,1.69,0,0,0,.3.37,3.21,3.21,0,0,1,.07.36.9.9,0,0,0,.15.46c.07.09.16-.12.37-.1s.2.69.2,1.12V46c0,.15,0,.26-.17.3s0,.26.05.38-.05.16-.18.13-.18.12-.26.27-.12.06-.28,0-.11.18-.09.3-.36.33-.36.33-.2,0-.27.07,0,.54-.21.61-.05.51.06.69-.09.32-.14.56.21.15.41,0,.46-.11,1-.06.36.16.27.27-.1.18,0,.25a2.34,2.34,0,0,1,.32.93c0,.27.21.24.58.23s.32.15.32.22-.21.12-.3.26a4.18,4.18,0,0,0-.27,1c0,.21.58.24.84.24s.33.13.33.24.12.24.38.52.43.13.64.19.57-.3.77-.4.18.23.18.34a3.47,3.47,0,0,1,0,.43c0,.15.12.17.29.14a.87.87,0,0,1,.45.06c.24.06.15-.15.1-.24a.87.87,0,0,1,0-.36.49.49,0,0,0-.06-.37,2.33,2.33,0,0,1-.25-.7c-.06-.3.24-.3.73-.3s.64-.1.73-.28.2-.08.5.13.44-.08.59-.23.32-.16.41,0,.27-.13.27-.13l.57.48.12-.39s.18-.08.27,0,.21-.08.21-.08a2.51,2.51,0,0,1,.33-.06c.18,0,.24-.27.19-.37s.27-.24.54-.38a.75.75,0,0,1,.66,0l0,0a3.51,3.51,0,0,0,.51.38,5.19,5.19,0,0,0,1,.08c.31,0,.23.28.07.48s0,.44,0,.74.32.2.38.18a1.6,1.6,0,0,1,.71.49c.22.27.53.13.67.13a2,2,0,0,1,.48.16l.07,0,0-.15c0-.05,0-.05.08,0s.06.07.13.05.09-.07.1-.17.16,0,.24,0,.1,0,.18-.09-.07-.2-.15-.27.06-.07.1-.16.06.11.11.25.06.19.19.18.08,0,0-.19.09,0,.14.17.27.18.34.19,0,.07,0,.13-.05.08,0,.12a1.53,1.53,0,0,0,.62-.14.14.14,0,0,0,0-.22c-.08,0,0-.07,0-.07a.49.49,0,0,1,.13-.15c.07,0,0,0,0,.1s.09.07.07.16,0,.09.1,0,.06,0,.06.11.22.08.31.09.1,0,0,.07,0,.07-.2.09-.12.34-.12.43,0,.24,0,.4.11.15.2.17,0,0,0,.13.12.26.18.27.19.09.19.18,0,0-.15,0-.09.06,0,.09a.22.22,0,0,1,.14.18c0,.08.16,0,.2,0a.92.92,0,0,1,.31-.05c.17,0,.23-.15.31-.28s0-.16-.11-.23-.09-.24-.08-.34-.16-.13-.26-.09-.09,0,0-.11a.31.31,0,0,0-.09-.29c0-.08,0-.07,0,0s.06,0,.13,0,.08,0,0,.14.27.08.37.08,0-.15-.1-.18-.13,0-.08-.08,0,0,0-.11a1.89,1.89,0,0,0-.13-.31c0-.1.09,0,.16.17a.2.2,0,0,0,.23.13c.08,0,.25-.26.29-.33s.26,0,.35,0,.1,0,0-.1,0-.06,0-.07,0,.07.11.1a.47.47,0,0,0,.3,0c.11,0,.56-.21.66-.28a.11.11,0,0,0,0-.19c-.06,0,0-.06.07-.06s.07.21.09.25.19-.12.26-.18,0,0-.12-.07.17-.08.3-.09a2.66,2.66,0,0,1,.34,0c.11,0,.09-.11,0-.21a.29.29,0,0,1,0-.24c0-.1.07-.08.06.07s0,.18.15.2.27-.12.37-.21.14,0,.15.07.07.09.19,0,.06-.18,0-.26,0-.08.1-.27.08,0,.12.19.32-.09.32-.18.06.06.16.14.14-.06.16-.18a4.77,4.77,0,0,0,0-.66c0-.12,0-.07.08-.1s-.2-.37-.24-.54.1,0,.15.09.45.59.46.68,0,.08.07,0,.06-.07.16,0,.07.08,0,.08,0,0-.1.09,0,.1.08.09l.07,0a1.07,1.07,0,0,0,.2.07.41.41,0,0,1,.18.06c.06,0,.09,0,.11,0s0-.06,0-.15a.31.31,0,0,0,0-.11c0-.06-.08-.15,0-.2s.12-.1.2,0,.1.09.21.05,0-.22,0-.32,0-.09.06-.08.06,0,.2-.11,0,.17.06.26.29-.06.34-.12,0-.09-.06-.16,0-.08.06-.05.05,0,.16,0,.1-.13.21-.22,0,.07,0,.21.2.12.4.13.11-.21,0-.27-.06-.1,0-.09.15,0,.23,0a.8.8,0,0,0,.23.11c.08,0,.83-.39,1-.43s.19-.32.21-.43-.15-.13-.2-.24.1,0,.19,0a.32.32,0,0,0,.23-.13c0-.06.08-.13,0-.21s0-.07.07-.1,0,0,.17,0,.06,0,.07.06.31-.06.31-.06a.46.46,0,0,0,0-.19c0-.08,0,0,0-.09s.1,0,.07,0,0,.1,0,.21.12.05.14,0a.54.54,0,0,1,.07-.13s0-.07-.06-.09,0-.06,0-.12,0-.09,0-.14,0-.09,0-.07a.2.2,0,0,0,.14,0c.06,0,0,.09,0,.2s.07.07.08,0a3.52,3.52,0,0,0,.1-.41c0-.1.09,0,.11.06s.1,0,.18-.23.25-.22.35-.27,0-.14,0-.18c-.2-.16-.26-.05-.45-.12s0-.07.06-.07a1.67,1.67,0,0,1,.23,0c.15,0,.28.06.3,0a4,4,0,0,1-.14-.39c0-.09.08,0,.11.13s0,.09.15,0,.15-.06.18-.14,0-.09.06,0,.2,0,.2.12.07,0,.15-.09a.79.79,0,0,0,.13-.26c0-.08-.07-.06-.19-.06s-.09-.05-.11-.1,0-.07.05-.16.06.05.08.11.18-.07.28,0,.13-.09.17-.13a.27.27,0,0,0,0-.15.22.22,0,0,1-.19,0c-.08-.06,0-.09,0-.08s0,0,.07,0-.1-.18-.14-.24.1-.05.17-.08,0,0,0,.09,0,.09.05.15.28-.09.41-.16,0-.1,0-.16-.07-.08-.09,0-.08,0-.12-.05-.07-.08,0-.11.1-.09.14-.18.07-.06.08,0,.18.18.3.26.16,0,.17-.07a.64.64,0,0,0-.18-.3s-.07,0-.12-.14,0,0,.1,0,.08,0,.12-.1,0-.14,0-.2,0-.13.12-.24-.27-.06-.36,0,0-.1,0-.16.22-.29.32-.32.19,0,.22-.1,0-.1-.11-.16-.12.1-.17.14-.08,0-.07-.06-.08-.06-.12-.12,0,0,.07,0a.19.19,0,0,0,.15,0c.08,0,.09-.06,0-.1s0,0,0-.08,0-.07-.09-.09-.11,0-.18.06-.06-.12,0-.14,0-.06-.07-.1,0-.08,0-.07l.15,0c.07,0,.07-.13.08-.19s0,0,0,0,0,0,0,0,0,.05,0,.12,0,0,.09.09.11-.09.11-.16,0-.07.09-.07.07,0,0,.09,0,0,0,.12,0,.06-.13.1-.06.06,0,.14.23-.08.3-.13.07-.07,0-.13,0,0,0-.1,0-.09-.13-.13-.07-.06,0-.1.09-.1.17-.11.09-.16.08-.25,0-.06.05,0,.09,0,.16-.06-.18-.13-.31-.14S94,43,94,43a.43.43,0,0,1,.23,0,.27.27,0,0,0,.08,0l-.11-.14.22.17c.07,0,.07-.21,0-.3s0-.06,0-.06.07,0,.08-.1,0-.06-.06-.11,0-.13,0-.14.06-.08.06-.15a.28.28,0,0,1,0-.13c0-.07.06-.11.11-.21s0-.11-.16-.17-.07-.09,0-.07l.21,0c.11,0,.22-.32.25-.39s0-.06,0-.14,0-.13,0-.17.11,0,.11.08.08.1.15.2.11,0,.1,0a.21.21,0,0,1,.08-.17c.07-.06.09,0,.16,0s.08,0,.09-.07-.08-.16-.14-.28a.52.52,0,0,0-.24-.27c-.13-.06,0-.06.15-.07s.18-.16.21-.25a.16.16,0,0,0-.07-.18s-.06-.14-.09-.22-.09,0-.21,0-.11,0,0-.09.06,0,0-.16,0,0,.15.06.21-.08.2-.23,0-.07.1.08,0,.12.13.1S96,39,96,39s0,0,0-.15,0-.09-.14-.08a.12.12,0,0,0-.09.17s0,.07-.14.1-.16,0-.16.09,0,.07-.13.06-.07,0,0-.12.12,0,.22-.09a.34.34,0,0,0,.19-.22c0-.08.11-.11.16-.19s.16-.06.27-.2-.12-.07-.21,0-.18,0-.32-.06a.67.67,0,0,1-.29-.1c-.12-.06-.14-.14-.28-.28s-.31-.06-.49.11-.3.14-.44.24-.18-.13-.25-.24-.16,0-.23,0a.87.87,0,0,1-.21.14c-.16.09-.09,0,0-.08a3,3,0,0,1,.25-.22,1.58,1.58,0,0,1,.46,0c.14,0,.18-.07.2-.15a.24.24,0,0,1,.09-.17l.35-.37h0l.07-.07c.16-.17.45-.16.65-.25s0-.27-.09-.45a1.1,1.1,0,0,0-.53-.36l-.33-.16a4.33,4.33,0,0,0-.42-.22c-.24-.09-.11,0-.27,0s-.06-.06-.06-.13,0-.08-.17-.22-.31.06-.43.13-.22,0-.18,0,.07-.09.18-.18.1-.1.35-.13.38.24.46.34.18-.06.3-.16.27,0,.43,0a2.44,2.44,0,0,0,.53.14c.18,0,.09-.06,0-.25s-.58-.34-.75-.41-.11-.11-.05-.21-.4-.24-.51-.28-.12-.16-.26-.28,0-.16,0-.16a.32.32,0,0,0,0-.13,1,1,0,0,0-.22-.33.18.18,0,0,1-.09-.13.18.18,0,0,0-.14-.16c-.11,0-.11-.23-.13-.31s-.15-.31-.19-.43-.17-.34-.28-.61-.53-.34-.69-.39-.12-.11-.31,0-.13,0-.08,0,0-.08-.11-.1a.41.41,0,0,1-.2-.14c-.08-.08-.06-.1-.23-.05s-.09-.34-.09-.43a.25.25,0,0,1,0-.1ZM61.11,19h0Zm.47,24h0ZM88.06,25.67h0Zm0,0s0,0,0,0S88,25.64,88.05,25.63Zm0-1.67h0Zm9.13-4.17s0,0,0,0S97.2,19.78,97.2,19.79Z"/>
          <path class="cls-55" d="M95.94,37.57c0,.07.12.09.17.09s0-.06,0-.09S95.94,37.57,95.94,37.57Z"/>
          <path class="cls-56" d="M96.14,37.32c0,.07.12,0,.19,0s-.06-.07-.16-.08S96.14,37.32,96.14,37.32Z"/>
          <path class="cls-57" d="M95.75,37.89l.07.07c.05,0,.05,0,.06.1s.06.06.12,0a.55.55,0,0,1,.27,0c.08,0,.09,0,.08-.11s-.08-.1-.18-.11a2.78,2.78,0,0,0-.36-.08C95.67,37.83,95.75,37.89,95.75,37.89Z"/>
          <path class="cls-58" d="M95.33,41.5s.06,0,.07,0,0-.07-.08-.19-.11,0-.11,0,0,.15,0,.2S95.29,41.48,95.33,41.5Z"/>
          <path class="cls-59" d="M96.51,38.18s-.11-.16-.1-.08a.15.15,0,0,0,0,.11C96.51,38.25,96.52,38.21,96.51,38.18Z"/>
          <path class="cls-60" d="M96.27,37.66s.11,0,.11,0-.12,0-.12,0S96.23,37.67,96.27,37.66Z"/>
          <path class="cls-61" d="M96,38.5c-.05.06.13.09.17.09s0-.07,0-.11A.1.1,0,0,0,96,38.5Z"/>
        </g>
        <circle class="cls-62" fill-opacity="0.5" cx="71.45" cy="32.39" r="16" transform="translate(21.01 92.48) rotate(-74.37)"/>
         
        <circle class="cls-1" cx="70.15" cy="32.35" r="19.26"/>
        <path class="cls-65" d="M81.88,27.83l-.35-4.52-.92,1S78.25,17.19,69.24,17a11.44,11.44,0,0,0-4.32.67,7.57,7.57,0,1,0-7.68,8v0a14.71,14.71,0,0,1,7.65-6.76,12.46,12.46,0,0,1,4.42-.71c8.39.13,10.89,6.33,10.89,6.33l-1.51,0Z"/>
        <path class="cls-66" d="M75.79,42.59l4.51-.34-1-.93S86.43,39,86.67,30A11.81,11.81,0,0,0,86,25.64,7.58,7.58,0,1,0,78,18h0l0,0a14.8,14.8,0,0,1,6.76,7.65A12.61,12.61,0,0,1,85.44,30c-.14,8.38-6.33,10.88-6.33,10.88l0-1.5Z"/>
        <path class="cls-67" d="M61,36.36l.34,4.52.92-1s2.37,7.16,11.37,7.4A11.85,11.85,0,0,0,78,46.58a7.58,7.58,0,1,0,7.68-8v0A14.71,14.71,0,0,1,78,45.3a12.46,12.46,0,0,1-4.42.71c-8.39-.13-10.89-6.33-10.89-6.33l1.51,0Z"/>
        <path class="cls-68" d="M67.12,21.6,62.6,22l1,.92s-7.16,2.36-7.4,11.36a11.87,11.87,0,0,0,.67,4.33,7.57,7.57,0,1,0,8,7.68h0a14.8,14.8,0,0,1-6.76-7.65,12.93,12.93,0,0,1-.71-4.42c.14-8.39,6.34-10.89,6.34-10.89l0,1.51Z"/>
        <circle class="cls-69" cx="57.45" cy="16.98" r="0.46"/>
        <path class="cls-69" d="M55.82,14.27a.74.74,0,1,0,.74.74A.74.74,0,0,0,55.82,14.27Z"/>
        <path class="cls-69" d="M60.61,17.52c0-.15-.84-1.38-.84-1.38a2.79,2.79,0,0,0-3.09-3.32,3.09,3.09,0,0,0-3.09,3.09,3.92,3.92,0,0,0,.7,2c.49.63.81,4.41.81,4.41h3v-2s1.87.17,1.76-.9A1,1,0,0,1,60,18.8l-.13-.24.16-.22-.13-.47S60.66,17.68,60.61,17.52ZM56.14,16,56,16v.3h-.42V16l-.1,0-.16.26L55,16l.16-.26-.08-.08-.27.15-.21-.36.27-.15,0-.11h-.31V14.8h.31l0-.11-.27-.15.21-.36.27.15.08-.07L55,14l.36-.21.16.27.1,0v-.31H56V14l.11,0,.15-.27.36.21-.15.27.08.07.26-.15.21.36-.26.15,0,.11h.3v.42h-.3l0,.11.26.15-.21.36-.26-.15-.08.08.15.26-.36.21Zm2.12,1.13h-.19s0,.05,0,.07l.17.09-.13.23-.17-.1a.12.12,0,0,1-.05.05l.1.17-.23.13-.09-.17-.07,0v.19h-.26V17.6l-.07,0-.09.17-.23-.13.1-.17A.12.12,0,0,1,57,17.4l-.17.1-.13-.23.17-.09a.19.19,0,0,1,0-.07h-.19v-.26h.19a.19.19,0,0,1,0-.07l-.17-.09.13-.23.17.1a.12.12,0,0,1,.05,0l-.1-.17.23-.13.09.17.07,0v-.19h.26v.19l.07,0,.09-.17.23.13-.1.17a.12.12,0,0,1,.05,0l.17-.1.13.23-.17.09s0,0,0,.07h.19Z"/>
        <path class="cls-69" d="M55.79,47.72a.45.45,0,0,0-.8-.08.42.42,0,0,0-.41-.27.4.4,0,0,0-.41.27l-.26-.14-.72-.39a.13.13,0,0,1-.07-.21c.14-.25.28-.51.41-.77s.35-.66.53-1a.16.16,0,0,1,0-.07.12.12,0,0,1,.16,0l.24.13a.7.7,0,0,0,.4.07l.88-.12.46-.06h.07s0,0,0,0l-.09.06-.79.43-.14.08-.08.07a.22.22,0,0,0-.06.3.82.82,0,0,0,.12.2.57.57,0,0,0,.7.21,2.36,2.36,0,0,0,.28-.12L57,46l.14-.05a.42.42,0,0,1,.29.05l.2.14,2.19,1.69a.28.28,0,0,1,.12.33.33.33,0,0,1-.29.24.31.31,0,0,1-.2-.07l-.74-.56-1.29-1-.06,0a.14.14,0,0,0-.09,0c-.05,0-.07.07,0,.11l.06,0L59,48.12a.29.29,0,0,1,.12.31.31.31,0,0,1-.24.25.25.25,0,0,1-.25,0L58,48.11l-1-.78,0,0-.07,0a.07.07,0,0,0-.07.09.16.16,0,0,0,.06.08l.4.31,1,.77a.31.31,0,0,1,.12.26.32.32,0,0,1-.2.27.27.27,0,0,1-.31,0l-.61-.47,0,0h0s0,0,0,0a.27.27,0,0,0,0-.2A.37.37,0,0,0,57,48a.51.51,0,0,0-.3,0l0,0,0,0,0,0a.13.13,0,0,0,0,0,.39.39,0,0,0-.1-.27.42.42,0,0,0-.44-.12.42.42,0,0,0-.18.11S55.81,47.71,55.79,47.72Z"/>
        <path class="cls-69" d="M57.87,44.52a.51.51,0,0,1,.25.09l.44.26.54.3a.89.89,0,0,0,.35.11.49.49,0,0,0,.24-.05l.22-.13a.13.13,0,0,1,.2.06l.26.43.75,1.29,0,.07a.13.13,0,0,1,0,.15l-.62.44-.26.17c-.1.07-.13.07-.23,0s-.32-.24-.47-.37l-2-1.58-.07,0a.18.18,0,0,0-.16,0c-.26.14-.53.26-.81.38a3.62,3.62,0,0,1-.55.2.74.74,0,0,1-.33,0,.48.48,0,0,1-.23-.13.21.21,0,0,1,0-.29.52.52,0,0,1,.18-.15l.19-.1,1.79-.94.19-.1A.32.32,0,0,1,57.87,44.52Z"/>
        <path class="cls-69" d="M54,44.88a.18.18,0,0,1,0,.1l-.53,1-.58,1a.21.21,0,0,1,0,.06.12.12,0,0,1-.16,0l-.82-.46a.12.12,0,0,1-.06-.16.14.14,0,0,1,0-.06l1.11-2,0,0a.15.15,0,0,1,.19,0l.69.39.13.07A.11.11,0,0,1,54,44.88Z"/>
        <path class="cls-69" d="M62.49,46.5a.11.11,0,0,1-.07.12,3.07,3.07,0,0,1-.31.17l-.48.27c-.11.06-.17,0-.23-.07l-.55-1c-.18-.34-.37-.67-.56-1l0,0a.14.14,0,0,1,.06-.19l.76-.42.06,0a.14.14,0,0,1,.17,0s0,0,0,0c.38.67.75,1.35,1.12,2A.16.16,0,0,1,62.49,46.5Z"/>
        <path class="cls-69" d="M56.56,49.42a.32.32,0,0,1-.32-.26.38.38,0,0,1,0-.15l.27-.71a.3.3,0,0,1,.49-.12.29.29,0,0,1,.09.33c-.09.24-.17.48-.26.71A.29.29,0,0,1,56.56,49.42Z"/>
        <path class="cls-69" d="M55.88,49a.31.31,0,0,1-.31-.35.13.13,0,0,1,0-.06c.09-.24.18-.48.26-.72a.31.31,0,0,1,.35-.19.33.33,0,0,1,.26.31.29.29,0,0,1,0,.09l-.27.73A.28.28,0,0,1,55.88,49Z"/>
        <path class="cls-69" d="M54.87,48.39a.14.14,0,0,1,0-.09c.06-.18.13-.35.19-.52l0-.07a.3.3,0,0,1,.48-.07.28.28,0,0,1,.08.33c-.06.18-.13.35-.19.53a.3.3,0,0,1-.34.19A.29.29,0,0,1,54.87,48.39Z"/>
        <path class="cls-69" d="M54.51,48.31a.32.32,0,0,1-.32-.27.3.3,0,0,1,0-.13c0-.07,0-.14.07-.21a.31.31,0,0,1,.51-.13.29.29,0,0,1,.08.33c0,.07,0,.14-.07.21A.3.3,0,0,1,54.51,48.31Z"/>
        <path class="cls-69" d="M57.16,48.66l.06.05.3.24a.31.31,0,0,1,.09.38.32.32,0,0,1-.37.17l-.09,0L57,49.31l0,0s0,0,0,0l.17-.45Z"/>
        <path class="cls-69" d="M86.12,46.85V45l-2.79,1.85V42.69h-.86v6.9H88.9V45Zm-1.65,1.82H83.29V48h1.18Zm2,0H85.26V48h1.18Zm2,0H87.23V48h1.18Z"/>
        <text class="cls-70" transform="translate(8.29 15.75)">
          技术研发 应用工程<tspan class="cls-71">
            <tspan x="8.03" y="8.12">应用驱动创新</tspan>
          </tspan>
        </text>
        <path class="cls-72" d="M86.7,17.79a.86.86,0,0,0,.37-.73.91.91,0,0,0-1.81,0,.88.88,0,0,0,.37.73,1.36,1.36,0,0,0-.8,1.24c0,.1.06.17.16.13h2.45c.1,0,.17-.06.17-.13a1.52,1.52,0,0,0-.91-1.24"/>
        <path class="cls-72" d="M89.15,14.15a.47.47,0,0,1,0,.94.47.47,0,0,1-.48-.47.48.48,0,0,1,.48-.47m-1.26,2,.85-.85a1,1,0,0,0,.41.14.78.78,0,0,0,0-1.56.77.77,0,0,0-.78.78.69.69,0,0,0,.13.44l-.84.85a.12.12,0,0,0,0,.2.15.15,0,0,0,.23,0"/>
        <path class="cls-72" d="M89.12,20.94a.49.49,0,1,1,.49-.49.5.5,0,0,1-.49.49m0-1.26a.68.68,0,0,0-.46.14l-.56-.6a.13.13,0,0,0-.21,0c-.07.07-.07.18,0,.21l.56.6a1,1,0,0,0-.14.42.81.81,0,1,0,1.61,0,.78.78,0,0,0-.8-.77"/>
        <path class="cls-72" d="M83.3,14.15a.47.47,0,0,1,.48.47.48.48,0,0,1-1,0,.48.48,0,0,1,.48-.47m0,1.21a.55.55,0,0,0,.41-.13l.86.88a.13.13,0,0,0,.21,0c.06-.07.06-.17,0-.2L84,15a1,1,0,0,0,.14-.44.79.79,0,0,0-.79-.75.77.77,0,0,0-.79.78.76.76,0,0,0,.79.74"/>
        <path class="cls-72" d="M83.32,20.94a.49.49,0,1,1,.49-.49.5.5,0,0,1-.49.49m1-1.72-.56.56a1,1,0,0,0-.45-.14.81.81,0,1,0,.8.81A.53.53,0,0,0,84,20l.56-.6c.07,0,.07-.14,0-.21a.13.13,0,0,0-.21,0"/>
        <path class="cls-72" d="M89.12,17a.49.49,0,1,1-.49.49.5.5,0,0,1,.49-.49m-1.57.63h.8a.82.82,0,1,0,0-.35h-.8a.16.16,0,0,0-.17.17.18.18,0,0,0,.17.18"/>
        <path class="cls-72" d="M83.31,17a.48.48,0,0,1,.49.5.47.47,0,0,1-.49.47.49.49,0,0,1-.49-.5.46.46,0,0,1,.49-.47m0,1.29a.78.78,0,0,0,.77-.64h.8a.17.17,0,0,0,.18-.18c0-.11-.07-.15-.18-.15h-.8a.79.79,0,1,0-.77,1"/>
        <text class="cls-70" transform="translate(23.54 43.08)">
          市场进入<tspan class="cls-71">
            <tspan x="-7.22" y="8.12">卓越客户体验</tspan>
          </tspan>
        </text>
        <text class="cls-70" transform="translate(104.32 15.75)">
          采购与供应链<tspan class="cls-71">
            <tspan x="0" y="8.12">迅捷可靠</tspan>
          </tspan>
        </text>
        <text class="cls-70" transform="translate(104.6 43.08)">
          生产制造<tspan class="cls-71">
            <tspan x="0" y="8.12">区域资源服务区域市场</tspan>
          </tspan>
        </text>
        <polyline class="cls-8" points="41.67 10.61 46.46 10.61 51 15.15"/>
        <polyline class="cls-8" points="41.67 38.02 47.49 38.02 51.88 42.42"/>
        <polyline class="cls-8" points="101.23 10.61 96.44 10.61 91.9 15.15"/>
        <polyline class="cls-8" points="101.23 38.02 95.41 38.02 91.02 42.42"/>
      </g>
    </g>
  </g>
</svg>