<svg xmlns="http://www.w3.org/2000/svg" xmlns:xlink="http://www.w3.org/1999/xlink" viewBox="0 0 6.4 6.41"><defs><style>.cls-1,.cls-2{fill:none;stroke-linecap:round;stroke-linejoin:round;stroke-width:0.36px;}.cls-1{stroke:url(#未命名的渐变_13);}.cls-2{stroke:url(#未命名的渐变_13-2);}</style><linearGradient id="未命名的渐变_13" x1="0.04" y1="3.19" x2="6.4" y2="3.19" gradientUnits="userSpaceOnUse"><stop offset="0" stop-color="#00dcff"/><stop offset="0.09" stop-color="#0edeff"/><stop offset="0.26" stop-color="#32e3ff"/><stop offset="0.5" stop-color="#6debff"/><stop offset="0.78" stop-color="#bdf6ff"/><stop offset="1" stop-color="#fff"/></linearGradient><linearGradient id="未命名的渐变_13-2" x1="0" y1="5.11" x2="2.29" y2="5.11" xlink:href="#未命名的渐变_13"/></defs><g id="图层_2" data-name="图层 2"><g id="图层_10" data-name="图层 10"><path class="cls-1" d="M6.12.44A.18.18,0,0,0,6,.28,3.63,3.63,0,0,0,2.17,1.69.3.3,0,0,1,2,1.78,2.8,2.8,0,0,0,.7,2.55a2.9,2.9,0,0,0-.45.58.22.22,0,0,0,.28.31,3,3,0,0,1,1-.17s0,.06,0,.08a9.84,9.84,0,0,0,.76.82c.26.27.52.52.8.76h.09A2.51,2.51,0,0,1,3,5.9.22.22,0,0,0,3,6.15a.2.2,0,0,0,.25,0,3.17,3.17,0,0,0,.58-.46,3,3,0,0,0,.77-1.34.16.16,0,0,1,.09-.13A3.7,3.7,0,0,0,6.12.44ZM4.63,2.84a.74.74,0,0,1-1.27-.53.74.74,0,0,1,1.27-.53.77.77,0,0,1,0,1.06Z"/><path class="cls-2" d="M1,4.15c-.23.23-1,1.76-.73,2S1.74,5.36,2,5.13a.67.67,0,0,0-.09-.91A.65.65,0,0,0,1,4.15Z"/></g></g></svg>