<svg xmlns="http://www.w3.org/2000/svg" xmlns:xlink="http://www.w3.org/1999/xlink" viewBox="0 0 6.66 6.66"><defs><style>.cls-1,.cls-10,.cls-11,.cls-12,.cls-13,.cls-14,.cls-15,.cls-16,.cls-17,.cls-18,.cls-19,.cls-2,.cls-20,.cls-21,.cls-3,.cls-4,.cls-5,.cls-6,.cls-7,.cls-8,.cls-9{fill:none;stroke-linecap:round;stroke-linejoin:round;stroke-width:0.36px;}.cls-1{stroke:url(#未命名的渐变_13);}.cls-2{stroke:url(#未命名的渐变_13-2);}.cls-3{stroke:url(#未命名的渐变_13-3);}.cls-4{stroke:url(#未命名的渐变_13-4);}.cls-5{stroke:url(#未命名的渐变_13-5);}.cls-6{stroke:url(#未命名的渐变_13-6);}.cls-7{stroke:url(#未命名的渐变_13-7);}.cls-8{stroke:url(#未命名的渐变_13-8);}.cls-9{stroke:url(#未命名的渐变_13-9);}.cls-10{stroke:url(#未命名的渐变_13-10);}.cls-11{stroke:url(#未命名的渐变_13-11);}.cls-12{stroke:url(#未命名的渐变_13-12);}.cls-13{stroke:url(#未命名的渐变_13-13);}.cls-14{stroke:url(#未命名的渐变_13-14);}.cls-15{stroke:url(#未命名的渐变_13-15);}.cls-16{stroke:url(#未命名的渐变_13-16);}.cls-17{stroke:url(#未命名的渐变_13-17);}.cls-18{stroke:url(#未命名的渐变_13-18);}.cls-19{stroke:url(#未命名的渐变_13-19);}.cls-20{stroke:url(#未命名的渐变_13-20);}.cls-21{stroke:url(#未命名的渐变_13-21);}.cls-22{font-size:3.12px;fill:#fff;font-family:SKFChevinOT-DemiBold, SKF Chevin OT;font-weight:300;letter-spacing:0.1em;}</style><linearGradient id="未命名的渐变_13" x1="1.44" y1="0.5" x2="1.79" y2="0.5" gradientUnits="userSpaceOnUse"><stop offset="0" stop-color="#00dcff"/><stop offset="0.09" stop-color="#0edeff"/><stop offset="0.26" stop-color="#32e3ff"/><stop offset="0.5" stop-color="#6debff"/><stop offset="0.78" stop-color="#bdf6ff"/><stop offset="1" stop-color="#fff"/></linearGradient><linearGradient id="未命名的渐变_13-2" x1="2.29" y1="0.5" x2="2.65" y2="0.5" xlink:href="#未命名的渐变_13"/><linearGradient id="未命名的渐变_13-3" x1="3.15" y1="0.5" x2="3.51" y2="0.5" xlink:href="#未命名的渐变_13"/><linearGradient id="未命名的渐变_13-4" x1="4" y1="0.5" x2="4.36" y2="0.5" xlink:href="#未命名的渐变_13"/><linearGradient id="未命名的渐变_13-5" x1="4.86" y1="0.5" x2="5.22" y2="0.5" xlink:href="#未命名的渐变_13"/><linearGradient id="未命名的渐变_13-6" x1="1.44" y1="6.15" x2="1.79" y2="6.15" xlink:href="#未命名的渐变_13"/><linearGradient id="未命名的渐变_13-7" x1="2.29" y1="6.15" x2="2.65" y2="6.15" xlink:href="#未命名的渐变_13"/><linearGradient id="未命名的渐变_13-8" x1="3.15" y1="6.15" x2="3.51" y2="6.15" xlink:href="#未命名的渐变_13"/><linearGradient id="未命名的渐变_13-9" x1="4" y1="6.15" x2="4.36" y2="6.15" xlink:href="#未命名的渐变_13"/><linearGradient id="未命名的渐变_13-10" x1="4.86" y1="6.15" x2="5.22" y2="6.15" xlink:href="#未命名的渐变_13"/><linearGradient id="未命名的渐变_13-11" x1="5.65" y1="1.62" x2="6.66" y2="1.62" xlink:href="#未命名的渐变_13"/><linearGradient id="未命名的渐变_13-12" x1="5.65" y1="2.47" x2="6.66" y2="2.47" xlink:href="#未命名的渐变_13"/><linearGradient id="未命名的渐变_13-13" x1="5.65" y1="3.33" x2="6.66" y2="3.33" xlink:href="#未命名的渐变_13"/><linearGradient id="未命名的渐变_13-14" x1="5.65" y1="4.18" x2="6.66" y2="4.18" xlink:href="#未命名的渐变_13"/><linearGradient id="未命名的渐变_13-15" x1="5.65" y1="5.04" x2="6.66" y2="5.04" xlink:href="#未命名的渐变_13"/><linearGradient id="未命名的渐变_13-16" x1="0" y1="1.62" x2="1.01" y2="1.62" xlink:href="#未命名的渐变_13"/><linearGradient id="未命名的渐变_13-17" x1="0" y1="2.47" x2="1.01" y2="2.47" xlink:href="#未命名的渐变_13"/><linearGradient id="未命名的渐变_13-18" x1="0" y1="3.33" x2="1.01" y2="3.33" xlink:href="#未命名的渐变_13"/><linearGradient id="未命名的渐变_13-19" x1="0" y1="4.18" x2="1.01" y2="4.18" xlink:href="#未命名的渐变_13"/><linearGradient id="未命名的渐变_13-20" x1="0" y1="5.04" x2="1.01" y2="5.04" xlink:href="#未命名的渐变_13"/><linearGradient id="未命名的渐变_13-21" x1="0.65" y1="3.33" x2="6.01" y2="3.33" xlink:href="#未命名的渐变_13"/></defs><g id="图层_2" data-name="图层 2"><g id="图层_10" data-name="图层 10"><line class="cls-1" x1="1.62" y1="0.18" x2="1.62" y2="0.83"/><line class="cls-2" x1="2.47" y1="0.18" x2="2.47" y2="0.83"/><line class="cls-3" x1="3.33" y1="0.18" x2="3.33" y2="0.83"/><line class="cls-4" x1="4.18" y1="0.18" x2="4.18" y2="0.83"/><line class="cls-5" x1="5.04" y1="0.18" x2="5.04" y2="0.83"/><line class="cls-6" x1="1.62" y1="5.83" x2="1.62" y2="6.48"/><line class="cls-7" x1="2.47" y1="5.83" x2="2.47" y2="6.48"/><line class="cls-8" x1="3.33" y1="5.83" x2="3.33" y2="6.48"/><line class="cls-9" x1="4.18" y1="5.83" x2="4.18" y2="6.48"/><line class="cls-10" x1="5.04" y1="5.83" x2="5.04" y2="6.48"/><line class="cls-11" x1="6.48" y1="1.62" x2="5.83" y2="1.62"/><line class="cls-12" x1="6.48" y1="2.47" x2="5.83" y2="2.47"/><line class="cls-13" x1="6.48" y1="3.33" x2="5.83" y2="3.33"/><line class="cls-14" x1="6.48" y1="4.18" x2="5.83" y2="4.18"/><line class="cls-15" x1="6.48" y1="5.04" x2="5.83" y2="5.04"/><line class="cls-16" x1="0.83" y1="1.62" x2="0.18" y2="1.62"/><line class="cls-17" x1="0.83" y1="2.47" x2="0.18" y2="2.47"/><line class="cls-18" x1="0.83" y1="3.33" x2="0.18" y2="3.33"/><line class="cls-19" x1="0.83" y1="4.18" x2="0.18" y2="4.18"/><line class="cls-20" x1="0.83" y1="5.04" x2="0.18" y2="5.04"/><rect class="cls-21" x="0.83" y="0.83" width="5" height="5"/><text class="cls-22" transform="translate(1.93 4.4)">AI</text></g></g></svg>