<svg xmlns="http://www.w3.org/2000/svg" xmlns:xlink="http://www.w3.org/1999/xlink" viewBox="0 0 30.13 30.13">
  <defs>
    <style>.cls-1{isolation:isolate;}.cls-2{mix-blend-mode:color-dodge;fill:url(#未命名的渐变_131);}.cls-10,.cls-11,.cls-12,.cls-13,.cls-14,.cls-15,.cls-16,.cls-3,.cls-4,.cls-5,.cls-6,.cls-7,.cls-8,.cls-9{fill:none;stroke-linecap:round;stroke-linejoin:round;stroke-width:0.32px;}.cls-3{stroke:url(#未命名的渐变_15);}.cls-4{stroke:url(#未命名的渐变_15-2);}.cls-5{stroke:url(#未命名的渐变_15-3);}.cls-6{stroke:url(#未命名的渐变_15-4);}.cls-7{stroke:url(#未命名的渐变_15-5);}.cls-8{stroke:url(#未命名的渐变_15-6);}.cls-9{stroke:url(#未命名的渐变_15-7);}.cls-10{stroke:url(#未命名的渐变_15-8);}.cls-11{stroke:url(#未命名的渐变_15-9);}.cls-12{stroke:url(#未命名的渐变_15-10);}.cls-13{stroke:url(#未命名的渐变_15-11);}.cls-14{stroke:url(#未命名的渐变_15-12);}.cls-15{stroke:url(#未命名的渐变_15-13);}.cls-16{stroke:url(#未命名的渐变_15-14);}</style>
    <radialGradient id="未命名的渐变_131" cx="45.56" cy="225.39" r="16.04" gradientTransform="matrix(0.25, 0.9, -0.9, 0.25, 207.48, -83.19)" gradientUnits="userSpaceOnUse">
      <stop offset="0.41" stop-color="#12273c"/>
      <stop offset="0.42" stop-color="#040404"/>
      <stop offset="0.43" stop-color="#111"/>
      <stop offset="0.44" stop-color="#272727"/>
      <stop offset="0.45" stop-color="#454545"/>
      <stop offset="0.47" stop-color="#6b6b6b"/>
      <stop offset="0.48" stop-color="#9a9a9a"/>
      <stop offset="0.49" stop-color="#d1d1d1"/>
      <stop offset="0.5" stop-color="#fff"/>
      <stop offset="0.5" stop-color="#e5f1ca"/>
      <stop offset="0.51" stop-color="#cde497"/>
      <stop offset="0.51" stop-color="#b8d96b"/>
      <stop offset="0.52" stop-color="#a6d047"/>
      <stop offset="0.52" stop-color="#99c92c"/>
      <stop offset="0.52" stop-color="#90c418"/>
      <stop offset="0.53" stop-color="#8ac10c"/>
      <stop offset="0.53" stop-color="#88c008"/>
      <stop offset="0.54" stop-color="#7aac07"/>
      <stop offset="0.57" stop-color="#5d8405"/>
      <stop offset="0.59" stop-color="#446004"/>
      <stop offset="0.62" stop-color="#2f4203" stop-opacity="0"/>
      <stop offset="0.66" stop-color="#1e2a02" stop-opacity="0"/>
      <stop offset="0.69" stop-color="#101701" stop-opacity="0"/>
      <stop offset="0.74" stop-color="#070a00" stop-opacity="0"/>
      <stop offset="0.79" stop-color="#020200" stop-opacity="0"/>
      <stop offset="0.9" stop-opacity="0"/>
    </radialGradient>
    <linearGradient id="未命名的渐变_15" x1="10.7" y1="16.08" x2="19.08" y2="16.08" gradientUnits="userSpaceOnUse">
      <stop offset="0" stop-color="#00dcff"/>
      <stop offset="1" stop-color="#fff"/>
    </linearGradient>
    <linearGradient id="未命名的渐变_15-2" x1="13.03" y1="15.22" x2="13.93" y2="15.22" xlink:href="#未命名的渐变_15"/>
    <linearGradient id="未命名的渐变_15-3" x1="15.3" y1="15.22" x2="16.2" y2="15.22" xlink:href="#未命名的渐变_15"/>
    <linearGradient id="未命名的渐变_15-4" x1="13.78" y1="17.49" x2="14.69" y2="17.49" xlink:href="#未命名的渐变_15"/>
    <linearGradient id="未命名的渐变_15-5" x1="16.06" y1="17.49" x2="16.96" y2="17.49" xlink:href="#未命名的渐变_15"/>
    <linearGradient id="未命名的渐变_15-6" x1="12.17" y1="16.09" x2="18.46" y2="16.09" xlink:href="#未命名的渐变_15"/>
    <linearGradient id="未命名的渐变_15-7" x1="10.45" y1="17.25" x2="11.65" y2="17.25" xlink:href="#未命名的渐变_15"/>
    <linearGradient id="未命名的渐变_15-8" x1="14.55" y1="13.12" x2="18.79" y2="13.12" xlink:href="#未命名的渐变_15"/>
    <linearGradient id="未命名的渐变_15-9" x1="13.78" y1="12.11" x2="14.74" y2="12.11" xlink:href="#未命名的渐变_15"/>
    <linearGradient id="未命名的渐变_15-10" x1="15" y1="11.12" x2="15.69" y2="11.12" xlink:href="#未命名的渐变_15"/>
    <linearGradient id="未命名的渐变_15-11" x1="16.61" y1="10.81" x2="16.94" y2="10.81" xlink:href="#未命名的渐变_15"/>
    <linearGradient id="未命名的渐变_15-12" x1="17.83" y1="11.26" x2="18.51" y2="11.26" xlink:href="#未命名的渐变_15"/>
    <linearGradient id="未命名的渐变_15-13" x1="18.68" y1="12.34" x2="19.64" y2="12.34" xlink:href="#未命名的渐变_15"/>
    <linearGradient id="未命名的渐变_15-14" x1="18.94" y1="13.77" x2="20" y2="13.77" xlink:href="#未命名的渐变_15"/>
  </defs>
  <g class="cls-1">
    <g id="图层_2" data-name="图层 2">
      <g id="图层_10" data-name="图层 10">
        <circle class="cls-2" cx="15.07"  cy="15.07" r="15.07"  transform="translate(-3.5 25.52) rotate(-74.37)"> 
          <animate attributeName="opacity" dur="1s" values="1;0.65;1" repeatCount="indefinite"></animate>
        </circle>
        <path class="cls-3" d="M12.06,17.85l-1.18-3.54a.38.38,0,0,1,.36-.51H17a.73.73,0,0,1,.7.5l1.19,3.55a.38.38,0,0,1-.37.5H12.76A.73.73,0,0,1,12.06,17.85Z"/>
        <line class="cls-4" x1="13.19" y1="14.34" x2="13.77" y2="16.09"/>
        <line class="cls-5" x1="15.46" y1="14.34" x2="16.04" y2="16.09"/>
        <line class="cls-6" x1="13.94" y1="16.61" x2="14.53" y2="18.36"/>
        <line class="cls-7" x1="16.22" y1="16.61" x2="16.8" y2="18.36"/>
        <line class="cls-8" x1="12.33" y1="16.09" x2="18.3" y2="16.09"/>
        <line class="cls-9" x1="11.49" y1="16.14" x2="10.61" y2="18.36"/>
        <path class="cls-10" d="M14.71,13.19a2,2,0,0,1,3.92.45,1.88,1.88,0,0,1-.24.94"/>
        <line class="cls-11" x1="13.94" y1="11.93" x2="14.58" y2="12.29"/>
        <line class="cls-12" x1="15.16" y1="10.8" x2="15.53" y2="11.45"/>
        <line class="cls-13" x1="16.77" y1="10.44" x2="16.78" y2="11.18"/>
        <line class="cls-14" x1="18.36" y1="10.93" x2="17.99" y2="11.58"/>
        <line class="cls-15" x1="19.48" y1="12.15" x2="18.84" y2="12.53"/>
        <line class="cls-16" x1="19.84" y1="13.77" x2="19.1" y2="13.77"/>
      </g>
    </g>
  </g>
</svg>    