<svg xmlns="http://www.w3.org/2000/svg" xmlns:xlink="http://www.w3.org/1999/xlink" viewBox="0 0 30.13 30.13">
  <defs>
    <style>.cls-1{isolation:isolate;}.cls-2{mix-blend-mode:color-dodge;fill:url(#未命名的渐变_131);}.cls-3,.cls-4,.cls-5,.cls-6,.cls-7,.cls-8{fill:none;}.cls-3,.cls-6,.cls-7,.cls-8{stroke-miterlimit:10;}.cls-3,.cls-6{stroke-width:0.3px;}.cls-3{opacity:0;stroke:url(#未命名的渐变_15);}.cls-4,.cls-5{stroke-linecap:round;stroke-linejoin:round;}.cls-4,.cls-5,.cls-7,.cls-8{stroke-width:0.32px;}.cls-4{stroke:url(#未命名的渐变_15-2);}.cls-5{stroke:url(#未命名的渐变_15-3);}.cls-6{stroke:url(#未命名的渐变_15-4);}.cls-7{stroke:url(#未命名的渐变_15-5);}.cls-8{stroke:url(#未命名的渐变_15-6);}</style>
    <radialGradient id="未命名的渐变_131" cx="46.8" cy="263.18" r="16.15" gradientTransform="translate(239.74 -93.11) rotate(74.37) scale(0.93 0.93)" gradientUnits="userSpaceOnUse">
      <stop offset="0.41" stop-color="#12273c"/>
      <stop offset="0.42" stop-color="#040404"/>
      <stop offset="0.43" stop-color="#111"/>
      <stop offset="0.44" stop-color="#272727"/>
      <stop offset="0.45" stop-color="#454545"/>
      <stop offset="0.47" stop-color="#6b6b6b"/>
      <stop offset="0.48" stop-color="#9a9a9a"/>
      <stop offset="0.49" stop-color="#d1d1d1"/>
      <stop offset="0.5" stop-color="#fff"/>
      <stop offset="0.5" stop-color="#e5f1ca"/>
      <stop offset="0.51" stop-color="#cde497"/>
      <stop offset="0.51" stop-color="#b8d96b"/>
      <stop offset="0.52" stop-color="#a6d047"/>
      <stop offset="0.52" stop-color="#99c92c"/>
      <stop offset="0.52" stop-color="#90c418"/>
      <stop offset="0.53" stop-color="#8ac10c"/>
      <stop offset="0.53" stop-color="#88c008"/>
      <stop offset="0.54" stop-color="#7aac07"/>
      <stop offset="0.57" stop-color="#5d8405"/>
      <stop offset="0.59" stop-color="#446004"/>
      <stop offset="0.62" stop-color="#2f4203" stop-opacity="0"/>
      <stop offset="0.66" stop-color="#1e2a02" stop-opacity="0"/>
      <stop offset="0.69" stop-color="#101701" stop-opacity="0"/>
      <stop offset="0.74" stop-color="#070a00" stop-opacity="0"/>
      <stop offset="0.79" stop-color="#020200" stop-opacity="0"/>
      <stop offset="0.9" stop-opacity="0"/>
    </radialGradient>
    <linearGradient id="未命名的渐变_15" x1="-448.07" y1="-140.73" x2="-445.89" y2="-140.73" gradientTransform="matrix(0.96, 0.29, -0.29, 0.96, 401.43, 279.25)" gradientUnits="userSpaceOnUse">
      <stop offset="0" stop-color="#00dcff"/>
      <stop offset="1" stop-color="#fff"/>
    </linearGradient>
    <linearGradient id="未命名的渐变_15-2" x1="-449.19" y1="-140.06" x2="-442.48" y2="-140.06" xlink:href="#未命名的渐变_15"/>
    <linearGradient id="未命名的渐变_15-3" x1="-447.26" y1="-140.62" x2="-442.32" y2="-140.62" xlink:href="#未命名的渐变_15"/>
    <linearGradient id="未命名的渐变_15-4" x1="-448.11" y1="-137.78" x2="-447.28" y2="-137.78" xlink:href="#未命名的渐变_15"/>
    <linearGradient id="未命名的渐变_15-5" x1="11.18" y1="13" x2="15.35" y2="13" gradientTransform="matrix(1, 0, 0, 1, 0, 0)" xlink:href="#未命名的渐变_15"/>
    <linearGradient id="未命名的渐变_15-6" x1="14.03" y1="15.51" x2="16.57" y2="15.51" gradientTransform="matrix(1, 0, 0, 1, 0, 0)" xlink:href="#未命名的渐变_15"/>
  </defs>
  <g class="cls-1">
    <g id="图层_2" data-name="图层 2">
      <g id="图层_10" data-name="图层 10">
        <circle class="cls-2" cx="15.07" cy="15.07" r="15.07" transform="translate(-3.5 25.52) rotate(-74.37)">
          <animate attributeName="opacity" dur="1s" values="1;0.65;1" repeatCount="indefinite"></animate>
        </circle>
        <path class="cls-3" d="M13.17,16.1a4.32,4.32,0,0,1,.88-1.26,4.89,4.89,0,0,1,1.86-1.1"/>
        <path class="cls-4" d="M19.8,12.42A10.9,10.9,0,0,1,11,19.26"/>
        <path class="cls-5" d="M15.91,13.74a9.46,9.46,0,0,1,1.37-.35,6.13,6.13,0,0,0,2.52-1,11.49,11.49,0,0,1-1.15,3.77c-1.26,2.64-3,3.54-5.42,2.53"/>
        <path class="cls-6" d="M12.87,18.84A3.92,3.92,0,0,1,13,16.57a3.85,3.85,0,0,1,.19-.47"/>
        <path class="cls-7" d="M14.73,13.19a1.23,1.23,0,0,0,0-.19,1.11,1.11,0,0,0,0-.19l.42-.33a.09.09,0,0,0,0-.13l-.39-.68a.11.11,0,0,0-.12-.05l-.49.2a1.63,1.63,0,0,0-.34-.19l-.07-.53a.11.11,0,0,0-.1-.08h-.79a.11.11,0,0,0-.1.08l-.07.53a1.25,1.25,0,0,0-.34.19l-.49-.2a.1.1,0,0,0-.12.05l-.4.68a.11.11,0,0,0,0,.13l.41.33c0,.06,0,.12,0,.19s0,.13,0,.19l-.41.33a.1.1,0,0,0,0,.12l.4.69a.09.09,0,0,0,.12,0l.49-.2a1.27,1.27,0,0,0,.34.2l.07.52a.11.11,0,0,0,.1.09h.79a.11.11,0,0,0,.1-.09l.07-.52a1.38,1.38,0,0,0,.33-.2l.5.2a.1.1,0,0,0,.12,0l.39-.69a.08.08,0,0,0,0-.12Zm-1.47.5A.69.69,0,1,1,14,13a.69.69,0,0,1-.69.69Z"/>
        <path class="cls-8" d="M16.15,15.62s0-.07,0-.11,0-.08,0-.11l.24-.19a.06.06,0,0,0,0-.08l-.22-.39a.06.06,0,0,0-.07,0l-.29.12a.72.72,0,0,0-.19-.11l0-.31a.07.07,0,0,0-.06,0h-.46a.07.07,0,0,0-.06,0l0,.31a.72.72,0,0,0-.19.11l-.29-.12a.06.06,0,0,0-.07,0l-.22.39a.06.06,0,0,0,0,.08l.24.19s0,.07,0,.11,0,.07,0,.11l-.24.19a0,0,0,0,0,0,.07l.22.4a.07.07,0,0,0,.07,0l.29-.11a1.18,1.18,0,0,0,.19.11l0,.3a.06.06,0,0,0,.06,0h.46a.06.06,0,0,0,.06,0l0-.3a1.18,1.18,0,0,0,.19-.11l.29.11a.07.07,0,0,0,.07,0l.22-.4a0,0,0,0,0,0-.07Zm-.85.29a.4.4,0,1,1,.4-.4.4.4,0,0,1-.4.4Z"/>
      </g>
    </g>
  </g>
</svg>