<svg xmlns="http://www.w3.org/2000/svg" xmlns:xlink="http://www.w3.org/1999/xlink" viewBox="0 0 30.13 30.13">
  <defs>
    <style>.cls-1{isolation:isolate;}.cls-2{mix-blend-mode:color-dodge;fill:url(#未命名的渐变_4);}.cls-10,.cls-11,.cls-12,.cls-3,.cls-4,.cls-5,.cls-6,.cls-7,.cls-8,.cls-9{fill:none;stroke-linecap:round;stroke-linejoin:round;}.cls-3,.cls-4,.cls-5,.cls-6,.cls-7,.cls-8,.cls-9{stroke-width:0.26px;}.cls-3{stroke:url(#未命名的渐变_15);}.cls-4{stroke:url(#未命名的渐变_15-2);}.cls-5{stroke:url(#未命名的渐变_15-3);}.cls-6{stroke:url(#未命名的渐变_15-4);}.cls-7{stroke:url(#未命名的渐变_15-5);}.cls-8{stroke:url(#未命名的渐变_15-6);}.cls-9{stroke:url(#未命名的渐变_15-7);}.cls-10,.cls-11,.cls-12{stroke-width:0.2px;}.cls-10{stroke:url(#未命名的渐变_15-8);}.cls-11{stroke:url(#未命名的渐变_15-9);}.cls-12{stroke:url(#未命名的渐变_15-10);}</style>
    <radialGradient id="未命名的渐变_4" cx="46.8" cy="270.78" r="16.15" gradientTransform="matrix(0.25, 0.9, -0.9, 0.25, 246.56, -95.01)" gradientUnits="userSpaceOnUse">
      <stop offset="0.41" stop-color="#12273c"/>
      <stop offset="0.42" stop-color="#040404"/>
      <stop offset="0.43" stop-color="#111"/>
      <stop offset="0.44" stop-color="#272727"/>
      <stop offset="0.45" stop-color="#454545"/>
      <stop offset="0.47" stop-color="#6b6b6b"/>
      <stop offset="0.48" stop-color="#9a9a9a"/>
      <stop offset="0.49" stop-color="#d1d1d1" />
      <stop offset="0.5" stop-color="#fff" stop-opacity="1"/>
      <stop offset="0.5" stop-color="#fff" stop-opacity="0.9"/>
      <stop offset="0.55" stop-color="#fff" stop-opacity="0.8"/>
      <stop offset="0.6" stop-color="#88ffff" stop-opacity="0.4"/>
      <stop offset="0.65" stop-color="#88ffff"  stop-opacity="0.1"/>
      <stop offset="0.7" stop-color="#88ffff"  stop-opacity="0"/>
      <stop offset="0.75" stop-color="#fff" stop-opacity="0"/>
      <stop offset="0.8" stop-color="#fff" stop-opacity="0"/>
      <stop offset="0.85" stop-color="#fff" stop-opacity="0"/>
      <stop offset="0.9" stop-color="#fff" stop-opacity="0"/>
    </radialGradient>
    <linearGradient id="未命名的渐变_15" x1="11.14" y1="11.32" x2="14.02" y2="11.32" gradientUnits="userSpaceOnUse">
      <stop offset="0" stop-color="#00dcff"/>
      <stop offset="1" stop-color="#fff"/>
    </linearGradient>
    <linearGradient id="未命名的渐变_15-2" x1="15.08" y1="13.14" x2="19.17" y2="13.14" xlink:href="#未命名的渐变_15"/>
    <linearGradient id="未命名的渐变_15-3" x1="11.14" y1="16.78" x2="15.29" y2="16.78" xlink:href="#未命名的渐变_15"/>
    <linearGradient id="未命名的渐变_15-4" x1="15.08" y1="18.59" x2="19.17" y2="18.59" xlink:href="#未命名的渐变_15"/>
    <linearGradient id="未命名的渐变_15-5" x1="13.76" y1="11.32" x2="15.34" y2="11.32" xlink:href="#未命名的渐变_15"/>
    <linearGradient id="未命名的渐变_15-6" x1="13.76" y1="18.59" x2="15.34" y2="18.59" xlink:href="#未命名的渐变_15"/>
    <linearGradient id="未命名的渐变_15-7" x1="15.03" y1="14.96" x2="16.61" y2="14.96" xlink:href="#未命名的渐变_15"/>
    <linearGradient id="未命名的渐变_15-8" x1="10.03" y1="-9426.74" x2="11.04" y2="-9426.74" gradientTransform="matrix(1, 0, 0, -1, 6.35, -9408.14)" xlink:href="#未命名的渐变_15"/>
    <linearGradient id="未命名的渐变_15-9" x1="-1226.13" y1="-41.37" x2="-1225.12" y2="-41.37" gradientTransform="matrix(-1, 0, 0, 1, -1211.92, 56.33)" xlink:href="#未命名的渐变_15"/>
    <linearGradient id="未命名的渐变_15-10" x1="16.32" y1="-9426.74" x2="17.33" y2="-9426.74" gradientTransform="matrix(1, 0, 0, -1, 0, -9415.41)" xlink:href="#未命名的渐变_15"/>
  </defs>
  <g class="cls-1">
    <g id="图层_2" data-name="图层 2">
      <g id="图层_10" data-name="图层 10">
        <circle class="cls-2" cx="15.07" cy="15.07" r="15.07" transform="translate(-3.5 25.52) rotate(-74.37)">
          <animate attributeName="opacity" dur="1s" values="1;0.65;1" repeatCount="indefinite"></animate>
        </circle>
        <line class="cls-3" x1="13.89" y1="11.32" x2="11.27" y2="11.32"/>
        <path class="cls-4" d="M16.48,15h.75A1.81,1.81,0,0,0,19,13.14h0a1.82,1.82,0,0,0-1.81-1.82h-2"/>
        <path class="cls-5" d="M13.89,18.59h-.8a1.82,1.82,0,0,1-1.82-1.81h0A1.82,1.82,0,0,1,13.09,15h2.07"/>
        <line class="cls-6" x1="19.04" y1="18.59" x2="15.21" y2="18.59"/>
        <rect class="cls-7" x="13.89" y="10.66" width="1.32" height="1.32"/>
        <rect class="cls-8" x="13.89" y="17.93" width="1.32" height="1.32"/>
        <rect class="cls-9" x="15.16" y="14.3" width="1.32" height="1.32"/>
        <polyline class="cls-10" points="16.48 19.4 17.29 18.59 16.48 17.79"/>
        <polyline class="cls-11" points="14.11 14.15 13.31 14.96 14.11 15.77"/>
        <polyline class="cls-12" points="16.42 12.13 17.23 11.32 16.42 10.52"/>
      </g>
    </g>
  </g>
</svg>