<svg xmlns="http://www.w3.org/2000/svg" xmlns:xlink="http://www.w3.org/1999/xlink" viewBox="0 0 30.13 30.13">
  <defs>
    <style>.cls-1{isolation:isolate;}.cls-2{mix-blend-mode:color-dodge;fill:url(#未命名的渐变_4);}.cls-3,.cls-4,.cls-5,.cls-6,.cls-7,.cls-8{fill:none;stroke-linecap:round;stroke-linejoin:round;stroke-width:0.32px;}.cls-3{stroke:url(#未命名的渐变_15);}.cls-4{stroke:url(#未命名的渐变_15-2);}.cls-5{stroke:url(#未命名的渐变_15-3);}.cls-6{stroke:url(#未命名的渐变_15-4);}.cls-7{stroke:url(#未命名的渐变_15-5);}.cls-8{stroke:url(#未命名的渐变_15-6);}</style>
    <radialGradient id="未命名的渐变_4" cx="43.06" cy="272.63" r="16.15" gradientTransform="translate(249.17 -92.12) rotate(74.37) scale(0.93 0.93)" gradientUnits="userSpaceOnUse">
      <stop offset="0.41" stop-color="#12273c"/>
      <stop offset="0.42" stop-color="#040404"/>
      <stop offset="0.43" stop-color="#111"/>
      <stop offset="0.44" stop-color="#272727"/>
      <stop offset="0.45" stop-color="#454545"/>
      <stop offset="0.47" stop-color="#6b6b6b"/>
      <stop offset="0.48" stop-color="#9a9a9a"/>
      <stop offset="0.49" stop-color="#d1d1d1" />
      <stop offset="0.5" stop-color="#fff" stop-opacity="1"/>
      <stop offset="0.5" stop-color="#fff" stop-opacity="0.9"/>
      <stop offset="0.55" stop-color="#fff" stop-opacity="0.8"/>
      <stop offset="0.6" stop-color="#88ffff" stop-opacity="0.4"/>
      <stop offset="0.65" stop-color="#88ffff"  stop-opacity="0.1"/>
      <stop offset="0.7" stop-color="#88ffff"  stop-opacity="0"/>
      <stop offset="0.75" stop-color="#fff" stop-opacity="0"/>
      <stop offset="0.8" stop-color="#fff" stop-opacity="0"/>
      <stop offset="0.85" stop-color="#fff" stop-opacity="0"/>
      <stop offset="0.9" stop-color="#fff" stop-opacity="0"/>
    </radialGradient>
    <linearGradient id="未命名的渐变_15" x1="12.1" y1="18.29" x2="18.03" y2="18.29" gradientUnits="userSpaceOnUse">
      <stop offset="0" stop-color="#00dcff"/>
      <stop offset="1" stop-color="#fff"/>
    </linearGradient>
    <linearGradient id="未命名的渐变_15-2" x1="15.88" y1="13.6" x2="19.14" y2="13.6" xlink:href="#未命名的渐变_15"/>
    <linearGradient id="未命名的渐变_15-3" x1="10.99" y1="13.6" x2="14.25" y2="13.6" xlink:href="#未命名的渐变_15"/>
    <linearGradient id="未命名的渐变_15-4" x1="13.93" y1="11.04" x2="16.2" y2="11.04" xlink:href="#未命名的渐变_15"/>
    <linearGradient id="未命名的渐变_15-5" x1="-5003.65" y1="-6533.28" x2="-5001.38" y2="-6533.28" gradientTransform="translate(3168.4 -7582.03) rotate(-120)" xlink:href="#未命名的渐变_15"/>
    <linearGradient id="未命名的渐变_15-6" x1="3172.69" y1="-7606.47" x2="3174.96" y2="-7606.47" gradientTransform="translate(-4982.03 -6534.93) rotate(120)" xlink:href="#未命名的渐变_15"/>
  </defs>
  <g class="cls-1">
    <g id="图层_2" data-name="图层 2">
      <g id="图层_10" data-name="图层 10">
        <circle class="cls-2" cx="15.07" cy="15.07" r="15.07" transform="translate(-3.5 25.52) rotate(-74.37)">
          <animate attributeName="opacity" dur="1s" values="1;0.65;1" repeatCount="indefinite"></animate>
        </circle>
        <path class="cls-3" d="M17.87,17.69a3.9,3.9,0,0,1-2.8,1.19,4,4,0,0,1-2.81-1.18"/>
        <path class="cls-4" d="M16,11.17A3.91,3.91,0,0,1,19,15,4.05,4.05,0,0,1,18.84,16"/>
        <path class="cls-5" d="M11.3,16A3.67,3.67,0,0,1,11.15,15a3.91,3.91,0,0,1,2.94-3.79"/>
        <circle class="cls-6" cx="15.07" cy="11.04" r="0.97"/>
        <circle class="cls-7" cx="11.67" cy="16.92" r="0.97"/>
        <circle class="cls-8" cx="18.46" cy="16.92" r="0.97"/>
      </g>
    </g>
  </g>
</svg>