<svg xmlns="http://www.w3.org/2000/svg" xmlns:xlink="http://www.w3.org/1999/xlink" viewBox="0 0 48.92 69.31">
  <defs>
    <style>.cls-1,.cls-10,.cls-11,.cls-12,.cls-13,.cls-14,.cls-15,.cls-16,.cls-17,.cls-18,.cls-19,.cls-2,.cls-20,.cls-21,.cls-22,.cls-23,.cls-24,.cls-25,.cls-26,.cls-27,.cls-28,.cls-3,.cls-30,.cls-31,.cls-32,.cls-33,.cls-34,.cls-35,.cls-36,.cls-37,.cls-38,.cls-4,.cls-44,.cls-45,.cls-46,.cls-5,.cls-6,.cls-7,.cls-8,.cls-9{fill:none;}.cls-10,.cls-11,.cls-12,.cls-13,.cls-14,.cls-15,.cls-16,.cls-17,.cls-18,.cls-19,.cls-2,.cls-20,.cls-21,.cls-22,.cls-23,.cls-24,.cls-25,.cls-26,.cls-27,.cls-28,.cls-3,.cls-30,.cls-31,.cls-32,.cls-33,.cls-34,.cls-35,.cls-36,.cls-37,.cls-38,.cls-4,.cls-44,.cls-45,.cls-46,.cls-5,.cls-6,.cls-7,.cls-8,.cls-9{stroke-linecap:round;stroke-linejoin:round;}.cls-10,.cls-11,.cls-12,.cls-13,.cls-14,.cls-15,.cls-16,.cls-17,.cls-18,.cls-19,.cls-2,.cls-20,.cls-21,.cls-22,.cls-23,.cls-24,.cls-25,.cls-26,.cls-27,.cls-28,.cls-3,.cls-30,.cls-31,.cls-32,.cls-33,.cls-34,.cls-35,.cls-36,.cls-37,.cls-38,.cls-4,.cls-5,.cls-6,.cls-7,.cls-8,.cls-9{stroke-width:0.14px;}.cls-2{stroke:url(#未命名的渐变_15);}.cls-3{stroke:url(#未命名的渐变_15-2);}.cls-4{stroke:url(#未命名的渐变_15-3);}.cls-5{stroke:url(#未命名的渐变_15-4);}.cls-6{stroke:url(#未命名的渐变_15-5);}.cls-7{stroke:url(#未命名的渐变_15-6);}.cls-8{stroke:url(#未命名的渐变_15-7);}.cls-9{stroke:url(#未命名的渐变_15-8);}.cls-10{stroke:url(#未命名的渐变_15-9);}.cls-11{stroke:url(#未命名的渐变_15-10);}.cls-12{stroke:url(#未命名的渐变_15-11);}.cls-13{stroke:url(#未命名的渐变_15-12);}.cls-14{stroke:url(#未命名的渐变_15-13);}.cls-15{stroke:url(#未命名的渐变_15-14);}.cls-16{stroke:url(#未命名的渐变_15-15);}.cls-17{stroke:url(#未命名的渐变_15-16);}.cls-18{stroke:url(#未命名的渐变_15-17);}.cls-19{stroke:url(#未命名的渐变_15-18);}.cls-20{stroke:url(#未命名的渐变_15-19);}.cls-21{stroke:url(#未命名的渐变_15-20);}.cls-22{stroke:url(#未命名的渐变_15-21);}.cls-23{stroke:url(#未命名的渐变_15-22);}.cls-24{stroke:url(#未命名的渐变_15-23);}.cls-25{stroke:url(#未命名的渐变_15-24);}.cls-26{stroke:url(#未命名的渐变_15-25);}.cls-27{stroke:url(#未命名的渐变_15-26);}.cls-28{stroke:url(#未命名的渐变_15-27);}.cls-29{font-size:2px;font-family:SourceHanSansCN-Medium-GBpc-EUC-H, Source Han Sans CN;}.cls-29,.cls-41{fill:#fff;}.cls-30{stroke:url(#未命名的渐变_15-28);}.cls-31{stroke:url(#未命名的渐变_15-29);}.cls-32{stroke:url(#未命名的渐变_15-30);}.cls-33{stroke:url(#未命名的渐变_15-31);}.cls-34{stroke:url(#未命名的渐变_15-32);}.cls-35{stroke:url(#未命名的渐变_15-33);}.cls-36{stroke:url(#未命名的渐变_15-34);}.cls-37{stroke:url(#未命名的渐变_15-35);}.cls-38{stroke:url(#未命名的渐变_15-36);}.cls-39{clip-path:url(#clip-path);}.cls-40{clip-path:url(#clip-path-2);}.cls-41{font-size:1.46px;font-family:SKFChevinOT-DemiBold, SKF Chevin OT;font-weight:300;}.cls-42{letter-spacing:-0.02em;}.cls-43{letter-spacing:-0.07em;}.cls-44,.cls-45,.cls-46{stroke-width:0.07px;}.cls-44{stroke:url(#未命名的渐变_7);}.cls-45{stroke:url(#未命名的渐变_7-2);}.cls-46{stroke:url(#未命名的渐变_7-3);}</style>
    <linearGradient id="未命名的渐变_15" x1="675.8" y1="38.75" x2="676.15" y2="38.75" gradientTransform="matrix(-1, 0, 0, 1, 681.41, 0)" gradientUnits="userSpaceOnUse">
      <stop offset="0" stop-color="#00dcff"/>
      <stop offset="1" stop-color="#fff"/>
    </linearGradient>
    <linearGradient id="未命名的渐变_15-2" x1="675.91" y1="38.62" x2="676.15" y2="38.62" xlink:href="#未命名的渐变_15"/>
    <linearGradient id="未命名的渐变_15-3" x1="677.79" y1="39.54" x2="678.13" y2="39.54" xlink:href="#未命名的渐变_15"/>
    <linearGradient id="未命名的渐变_15-4" x1="679.03" y1="39.52" x2="679.42" y2="39.52" xlink:href="#未命名的渐变_15"/>
    <linearGradient id="未命名的渐变_15-5" x1="676.64" y1="40.45" x2="680.17" y2="40.45" gradientTransform="matrix(1, 0, 0, -1, -675.4, 80.91)" xlink:href="#未命名的渐变_15"/>
    <linearGradient id="未命名的渐变_15-6" x1="678.24" y1="38.69" x2="678.9" y2="38.69" xlink:href="#未命名的渐变_15"/>
    <linearGradient id="未命名的渐变_15-7" x1="677.41" y1="38.17" x2="679.23" y2="38.17" xlink:href="#未命名的渐变_15"/>
    <linearGradient id="未命名的渐变_15-8" x1="675.97" y1="38.3" x2="676.38" y2="38.3" xlink:href="#未命名的渐变_15"/>
    <linearGradient id="未命名的渐变_15-9" x1="675.87" y1="37.8" x2="678.27" y2="37.8" xlink:href="#未命名的渐变_15"/>
    <linearGradient id="未命名的渐变_15-10" x1="648.51" y1="1.77" x2="648.86" y2="1.77" xlink:href="#未命名的渐变_15"/>
    <linearGradient id="未命名的渐变_15-11" x1="648.63" y1="1.63" x2="648.86" y2="1.63" xlink:href="#未命名的渐变_15"/>
    <linearGradient id="未命名的渐变_15-12" x1="650.5" y1="2.55" x2="650.84" y2="2.55" xlink:href="#未命名的渐变_15"/>
    <linearGradient id="未命名的渐变_15-13" x1="651.75" y1="2.54" x2="652.13" y2="2.54" xlink:href="#未命名的渐变_15"/>
    <linearGradient id="未命名的渐变_15-14" x1="649.35" y1="3.47" x2="652.89" y2="3.47" gradientTransform="matrix(1, 0, 0, -1, -620.83, 6.93)" xlink:href="#未命名的渐变_15"/>
    <linearGradient id="未命名的渐变_15-15" x1="650.96" y1="1.7" x2="651.61" y2="1.7" xlink:href="#未命名的渐变_15"/>
    <linearGradient id="未命名的渐变_15-16" x1="650.12" y1="1.18" x2="651.95" y2="1.18" xlink:href="#未命名的渐变_15"/>
    <linearGradient id="未命名的渐变_15-17" x1="648.69" y1="1.32" x2="649.09" y2="1.32" xlink:href="#未命名的渐变_15"/>
    <linearGradient id="未命名的渐变_15-18" x1="648.58" y1="0.82" x2="650.98" y2="0.82" xlink:href="#未命名的渐变_15"/>
    <linearGradient id="未命名的渐变_15-19" x1="660.38" y1="44.33" x2="660.72" y2="44.33" xlink:href="#未命名的渐变_15"/>
    <linearGradient id="未命名的渐变_15-20" x1="660.49" y1="44.2" x2="660.72" y2="44.2" xlink:href="#未命名的渐变_15"/>
    <linearGradient id="未命名的渐变_15-21" x1="662.36" y1="45.12" x2="662.7" y2="45.12" xlink:href="#未命名的渐变_15"/>
    <linearGradient id="未命名的渐变_15-22" x1="663.61" y1="45.1" x2="663.99" y2="45.1" xlink:href="#未命名的渐变_15"/>
    <linearGradient id="未命名的渐变_15-23" x1="661.22" y1="46.03" x2="664.75" y2="46.03" gradientTransform="matrix(1, 0, 0, -1, -644.55, 92.07)" xlink:href="#未命名的渐变_15"/>
    <linearGradient id="未命名的渐变_15-24" x1="662.82" y1="44.27" x2="663.47" y2="44.27" xlink:href="#未命名的渐变_15"/>
    <linearGradient id="未命名的渐变_15-25" x1="661.98" y1="43.75" x2="663.81" y2="43.75" xlink:href="#未命名的渐变_15"/>
    <linearGradient id="未命名的渐变_15-26" x1="660.55" y1="43.88" x2="660.95" y2="43.88" xlink:href="#未命名的渐变_15"/>
    <linearGradient id="未命名的渐变_15-27" x1="660.44" y1="43.38" x2="662.84" y2="43.38" xlink:href="#未命名的渐变_15"/>
    <linearGradient id="未命名的渐变_15-28" x1="655.87" y1="62.8" x2="656.21" y2="62.8" xlink:href="#未命名的渐变_15"/>
    <linearGradient id="未命名的渐变_15-29" x1="655.98" y1="62.67" x2="656.21" y2="62.67" xlink:href="#未命名的渐变_15"/>
    <linearGradient id="未命名的渐变_15-30" x1="657.85" y1="63.59" x2="658.2" y2="63.59" xlink:href="#未命名的渐变_15"/>
    <linearGradient id="未命名的渐变_15-31" x1="659.1" y1="63.57" x2="659.49" y2="63.57" xlink:href="#未命名的渐变_15"/>
    <linearGradient id="未命名的渐变_15-32" x1="656.71" y1="64.51" x2="660.24" y2="64.51" gradientTransform="matrix(1, 0, 0, -1, -635.54, 129.01)" xlink:href="#未命名的渐变_15"/>
    <linearGradient id="未命名的渐变_15-33" x1="658.31" y1="62.74" x2="658.97" y2="62.74" xlink:href="#未命名的渐变_15"/>
    <linearGradient id="未命名的渐变_15-34" x1="657.47" y1="62.22" x2="659.3" y2="62.22" xlink:href="#未命名的渐变_15"/>
    <linearGradient id="未命名的渐变_15-35" x1="656.04" y1="62.36" x2="656.44" y2="62.36" xlink:href="#未命名的渐变_15"/>
    <linearGradient id="未命名的渐变_15-36" x1="655.94" y1="61.86" x2="658.34" y2="61.86" xlink:href="#未命名的渐变_15"/>
    <clipPath id="clip-path">
      <path class="cls-1" d="M47.52,30.26l0,.32s0,0,0,0,0,0,0,0l0-.32Z"/>
    </clipPath>
    <clipPath id="clip-path-2">
      <path class="cls-1" d="M33.27,3,33,2.92a0,0,0,0,1,0,0,0,0,0,0,1,0,0l.32.09Z"/>
    </clipPath>
    <linearGradient id="未命名的渐变_7" x1="5.76" y1="29.42" x2="47.21" y2="29.42" gradientUnits="userSpaceOnUse">
      <stop offset="0" stop-color="#fff"/>
      <stop offset="1" stop-color="#00dcff"/>
    </linearGradient>
    <linearGradient id="未命名的渐变_7-2" x1="20.78" y1="35.11" x2="47.16" y2="35.11" xlink:href="#未命名的渐变_7"/>
    <linearGradient id="未命名的渐变_7-3" x1="24.63" y1="45.43" x2="47.16" y2="45.43" xlink:href="#未命名的渐变_7"/>
  </defs>
  <g id="图层_2" data-name="图层 2">
    <g id="图层_10" data-name="图层 10">
      <line class="cls-2" x1="5.34" y1="38.51" x2="5.54" y2="38.99"/>
      <line class="cls-3" x1="5.34" y1="38.51" x2="5.43" y2="38.73"/>
      <line class="cls-4" x1="3.56" y1="40.09" x2="3.35" y2="38.99"/>
      <line class="cls-5" x1="2.07" y1="40.09" x2="2.31" y2="38.95"/>
      <rect class="cls-6" x="1.31" y="40.09" width="3.39" height="0.72" rx="0.36" transform="matrix(-1, 0, 0, -1, 6.01, 80.91)"/>
      <circle class="cls-7" cx="2.84" cy="38.69" r="0.26"/>
      <path class="cls-8" d="M2.55,39.2a.59.59,0,0,1-.22-.81,12.69,12.69,0,0,1,.83-1c.12-.14.3-.4.59-.23s.16.46.11.63A13,13,0,0,1,3.35,39,.58.58,0,0,1,2.55,39.2Z"/>
      <circle class="cls-9" cx="5.24" cy="38.3" r="0.13"/>
      <path class="cls-10" d="M3.26,37.28a.39.39,0,0,1,.52-.17c.15.08,1.3.8,1.49.93s.27.17.17.37-.29.12-.4.07-1.47-.6-1.62-.68A.38.38,0,0,1,3.26,37.28Z"/>
      <line class="cls-11" x1="32.62" y1="1.53" x2="32.83" y2="2"/>
      <line class="cls-12" x1="32.62" y1="1.53" x2="32.71" y2="1.74"/>
      <line class="cls-13" x1="30.84" y1="3.11" x2="30.64" y2="2"/>
      <line class="cls-14" x1="29.35" y1="3.11" x2="29.6" y2="1.96"/>
      <rect class="cls-15" x="28.6" y="3.11" width="3.39" height="0.72" rx="0.36" transform="translate(60.58 6.93) rotate(-180)"/>
      <circle class="cls-16" cx="30.13" cy="1.7" r="0.26"/>
      <path class="cls-17" d="M29.83,2.22a.59.59,0,0,1-.21-.81A9.6,9.6,0,0,1,30.45.35c.12-.14.3-.39.59-.22s.16.45.1.62A10.17,10.17,0,0,1,30.64,2,.6.6,0,0,1,29.83,2.22Z"/>
      <circle class="cls-18" cx="32.52" cy="1.32" r="0.13"/>
      <path class="cls-19" d="M30.54.29a.38.38,0,0,1,.52-.16c.15.07,1.31.79,1.5.92s.27.18.17.37-.29.12-.4.08S30.86.89,30.71.81A.38.38,0,0,1,30.54.29Z"/>
      <line class="cls-20" x1="20.76" y1="44.1" x2="20.97" y2="44.57"/>
      <line class="cls-21" x1="20.76" y1="44.1" x2="20.85" y2="44.31"/>
      <line class="cls-22" x1="18.98" y1="45.68" x2="18.78" y2="44.57"/>
      <line class="cls-23" x1="17.49" y1="45.68" x2="17.74" y2="44.53"/>
      <rect class="cls-24" x="16.74" y="45.68" width="3.39" height="0.72" rx="0.36" transform="translate(36.86 92.07) rotate(180)"/>
      <circle class="cls-25" cx="18.27" cy="44.27" r="0.26"/>
      <path class="cls-26" d="M18,44.78a.58.58,0,0,1-.21-.8,8.74,8.74,0,0,1,.83-1.06c.12-.14.3-.39.59-.23s.16.46.1.63a10.17,10.17,0,0,1-.5,1.25A.59.59,0,0,1,18,44.78Z"/>
      <circle class="cls-27" cx="20.66" cy="43.88" r="0.13"/>
      <path class="cls-28" d="M18.68,42.86a.38.38,0,0,1,.52-.16c.15.07,1.31.79,1.5.92s.27.17.17.37-.29.12-.4.08-1.47-.61-1.62-.69A.39.39,0,0,1,18.68,42.86Z"/>
      <text class="cls-29" transform="translate(20.17 3.01)">瑞轴佳运</text>
      <text class="cls-29" transform="translate(16.52 48.74)">诚旭</text>
      <line class="cls-30" x1="25.27" y1="62.57" x2="25.47" y2="63.04"/>
      <line class="cls-31" x1="25.27" y1="62.57" x2="25.36" y2="62.78"/>
      <line class="cls-32" x1="23.49" y1="64.15" x2="23.29" y2="63.04"/>
      <line class="cls-33" x1="22" y1="64.15" x2="22.24" y2="63"/>
      <rect class="cls-34" x="21.24" y="64.15" width="3.39" height="0.72" rx="0.36" transform="translate(45.88 129.01) rotate(180)"/>
      <circle class="cls-35" cx="22.78" cy="62.74" r="0.26"/>
      <path class="cls-36" d="M22.48,63.26a.6.6,0,0,1-.22-.81,12.79,12.79,0,0,1,.83-1.06c.12-.14.31-.39.6-.22s.16.45.1.62a12.05,12.05,0,0,1-.5,1.25A.6.6,0,0,1,22.48,63.26Z"/>
      <circle class="cls-37" cx="25.17" cy="62.36" r="0.13"/>
      <path class="cls-38" d="M23.19,61.33a.38.38,0,0,1,.52-.16c.15.07,1.3.79,1.5.92s.26.18.16.37-.29.12-.4.08-1.47-.61-1.61-.69A.38.38,0,0,1,23.19,61.33Z"/>
      <text class="cls-29" transform="translate(21.02 67.21)">中轴</text>
      <text class="cls-29" transform="translate(0 43.18)">瓦伦堡</text>
      <text class="cls-41" transform="translate(45.63 31.85)">
        <tspan class="cls-42">S</tspan>
        <tspan class="cls-43" x="0.81" y="0">T</tspan>
        <tspan x="1.57" y="0">AR</tspan>
      </text>
      <path class="cls-44" d="M47.17,30.55C41.49,18,16.56,17.45,5.8,37.2" 
            stroke-dasharray="50.593"  >
        <animate attributeName="stroke-dashoffset" from="50.593" to="0" dur="2s" repeatCount="indefinite" fill="freeze"></animate>
      </path>
      <path class="cls-45" d="M47.12,30.55c-4.26-5.05-21.67-4.63-26.3,12"  
            stroke-dasharray="34.12"  >
        <animate attributeName="stroke-dashoffset" from="34.12" to="0" dur="2s" repeatCount="indefinite" fill="freeze"></animate>
      </path>
      <path class="cls-46" d="M47.12,30.65c-4-2-22.09-.42-22.45,30.15"
             stroke-dasharray="43.434"  >
        <animate attributeName="stroke-dashoffset" from="43.434" to="0" dur="2s" repeatCount="indefinite" fill="freeze"></animate>
      </path>
      <path class="cls-44" d="M47.3,30.58c3.94-23-14.47-27.7-14.47-27.7"
              stroke-dasharray="34.43"  >
        <animate attributeName="stroke-dashoffset" from="34.43" to="0" dur="2s" repeatCount="indefinite" fill="freeze"></animate>
      </path>
    </g>
  </g>
</svg>