<svg xmlns="http://www.w3.org/2000/svg" xmlns:xlink="http://www.w3.org/1999/xlink"
     viewBox="0 0 75.15 80.99" >
  <defs>
    <style>.cls-1{font-size:2px;font-family:SourceHanSansCN-Medium-GBpc-EUC-H, Source Han Sans CN;}.cls-1,.cls-77{fill:#fff;}.cls-10,.cls-11,.cls-12,.cls-13,.cls-15,.cls-16,.cls-17,.cls-18,.cls-19,.cls-2,.cls-20,.cls-21,.cls-22,.cls-23,.cls-24,.cls-25,.cls-26,.cls-27,.cls-28,.cls-29,.cls-3,.cls-30,.cls-31,.cls-32,.cls-33,.cls-34,.cls-35,.cls-36,.cls-37,.cls-38,.cls-39,.cls-4,.cls-40,.cls-41,.cls-42,.cls-43,.cls-44,.cls-45,.cls-46,.cls-47,.cls-48,.cls-49,.cls-5,.cls-50,.cls-51,.cls-52,.cls-53,.cls-54,.cls-55,.cls-56,.cls-57,.cls-58,.cls-59,.cls-6,.cls-60,.cls-61,.cls-62,.cls-63,.cls-64,.cls-65,.cls-66,.cls-67,.cls-68,.cls-69,.cls-7,.cls-70,.cls-71,.cls-72,.cls-73,.cls-74,.cls-75,.cls-76,.cls-8,.cls-80,.cls-81,.cls-82,.cls-83,.cls-84,.cls-85,.cls-86,.cls-87,.cls-88,.cls-89,.cls-9,.cls-90,.cls-91,.cls-92,.cls-93,.cls-94,.cls-95,.cls-96,.cls-97{fill:none;stroke-linecap:round;stroke-linejoin:round;}.cls-10,.cls-11,.cls-12,.cls-13,.cls-15,.cls-16,.cls-17,.cls-18,.cls-19,.cls-2,.cls-20,.cls-21,.cls-22,.cls-23,.cls-24,.cls-25,.cls-26,.cls-27,.cls-28,.cls-29,.cls-3,.cls-30,.cls-31,.cls-32,.cls-33,.cls-34,.cls-35,.cls-36,.cls-37,.cls-38,.cls-39,.cls-4,.cls-40,.cls-41,.cls-42,.cls-43,.cls-44,.cls-45,.cls-46,.cls-47,.cls-48,.cls-49,.cls-5,.cls-50,.cls-51,.cls-52,.cls-53,.cls-54,.cls-55,.cls-56,.cls-57,.cls-58,.cls-59,.cls-6,.cls-60,.cls-61,.cls-62,.cls-63,.cls-64,.cls-65,.cls-66,.cls-67,.cls-68,.cls-69,.cls-7,.cls-70,.cls-8,.cls-80,.cls-81,.cls-82,.cls-83,.cls-84,.cls-85,.cls-86,.cls-87,.cls-9{stroke-width:0.21px;}.cls-2{stroke:url(#未命名的渐变_15);}.cls-3{stroke:url(#未命名的渐变_15-2);}.cls-4{stroke:url(#未命名的渐变_15-3);}.cls-5{stroke:url(#未命名的渐变_15-4);}.cls-6{stroke:url(#未命名的渐变_15-5);}.cls-7{stroke:url(#未命名的渐变_15-6);}.cls-8{stroke:url(#未命名的渐变_15-7);}.cls-9{stroke:url(#未命名的渐变_15-8);}.cls-10{stroke:url(#未命名的渐变_15-9);}.cls-11{stroke:url(#未命名的渐变_15-10);}.cls-12{stroke:url(#未命名的渐变_15-11);}.cls-13{stroke:url(#未命名的渐变_15-12);}.cls-14{letter-spacing:-0.02em;}.cls-15{stroke:url(#未命名的渐变_15-13);}.cls-16{stroke:url(#未命名的渐变_15-14);}.cls-17{stroke:url(#未命名的渐变_15-15);}.cls-18{stroke:url(#未命名的渐变_15-16);}.cls-19{stroke:url(#未命名的渐变_15-17);}.cls-20{stroke:url(#未命名的渐变_15-18);}.cls-21{stroke:url(#未命名的渐变_15-19);}.cls-22{stroke:url(#未命名的渐变_15-20);}.cls-23{stroke:url(#未命名的渐变_15-21);}.cls-24{stroke:url(#未命名的渐变_15-22);}.cls-25{stroke:url(#未命名的渐变_15-23);}.cls-26{stroke:url(#未命名的渐变_15-24);}.cls-27{stroke:url(#未命名的渐变_15-25);}.cls-28{stroke:url(#未命名的渐变_15-26);}.cls-29{stroke:url(#未命名的渐变_15-27);}.cls-30{stroke:url(#未命名的渐变_15-28);}.cls-31{stroke:url(#未命名的渐变_15-29);}.cls-32{stroke:url(#未命名的渐变_15-30);}.cls-33{stroke:url(#未命名的渐变_15-31);}.cls-34{stroke:url(#未命名的渐变_15-32);}.cls-35{stroke:url(#未命名的渐变_15-33);}.cls-36{stroke:url(#未命名的渐变_15-34);}.cls-37{stroke:url(#未命名的渐变_15-35);}.cls-38{stroke:url(#未命名的渐变_15-36);}.cls-39{stroke:url(#未命名的渐变_15-37);}.cls-40{stroke:url(#未命名的渐变_15-38);}.cls-41{stroke:url(#未命名的渐变_15-39);}.cls-42{stroke:url(#未命名的渐变_15-40);}.cls-43{stroke:url(#未命名的渐变_15-41);}.cls-44{stroke:url(#未命名的渐变_15-42);}.cls-45{stroke:url(#未命名的渐变_15-43);}.cls-46{stroke:url(#未命名的渐变_15-44);}.cls-47{stroke:url(#未命名的渐变_15-45);}.cls-48{stroke:url(#未命名的渐变_15-46);}.cls-49{stroke:url(#未命名的渐变_15-47);}.cls-50{stroke:url(#未命名的渐变_15-48);}.cls-51{stroke:url(#未命名的渐变_15-49);}.cls-52{stroke:url(#未命名的渐变_15-50);}.cls-53{stroke:url(#未命名的渐变_15-51);}.cls-54{stroke:url(#未命名的渐变_15-52);}.cls-55{stroke:url(#未命名的渐变_15-53);}.cls-56{stroke:url(#未命名的渐变_15-54);}.cls-57{stroke:url(#未命名的渐变_15-55);}.cls-58{stroke:url(#未命名的渐变_15-56);}.cls-59{stroke:url(#未命名的渐变_15-57);}.cls-60{stroke:url(#未命名的渐变_15-58);}.cls-61{stroke:url(#未命名的渐变_15-59);}.cls-62{stroke:url(#未命名的渐变_15-60);}.cls-63{stroke:url(#未命名的渐变_15-61);}.cls-64{stroke:url(#未命名的渐变_15-62);}.cls-65{stroke:url(#未命名的渐变_15-63);}.cls-66{stroke:url(#未命名的渐变_15-64);}.cls-67{stroke:url(#未命名的渐变_15-65);}.cls-68{stroke:url(#未命名的渐变_15-66);}.cls-69{stroke:url(#未命名的渐变_15-67);}.cls-70{stroke:url(#未命名的渐变_15-68);}.cls-71{stroke-width:0.07px;stroke:url(#未命名的渐变_15-69);}.cls-72,.cls-73,.cls-74,.cls-75,.cls-76,.cls-88,.cls-89,.cls-90,.cls-91,.cls-92,.cls-93,.cls-94,.cls-95,.cls-96,.cls-97{stroke-width:0.07px;}.cls-72{stroke:url(#未命名的渐变_3);}.cls-73{stroke:url(#未命名的渐变_3-2);}.cls-74{stroke:url(#未命名的渐变_3-3);}.cls-75{stroke:url(#未命名的渐变_3-4);}.cls-76{stroke:url(#未命名的渐变_3-5);}.cls-77{font-size:1.46px;font-family:SKFChevinOT-DemiBold, SKF Chevin OT;font-weight:300;}.cls-78{letter-spacing:-0.02em;}.cls-79{letter-spacing:-0.07em;}.cls-80{stroke:url(#未命名的渐变_15-70);}.cls-81{stroke:url(#未命名的渐变_15-71);}.cls-82{stroke:url(#未命名的渐变_15-72);}.cls-83{stroke:url(#未命名的渐变_15-73);}.cls-84{stroke:url(#未命名的渐变_15-74);}.cls-85{stroke:url(#未命名的渐变_15-75);}.cls-86{stroke:url(#未命名的渐变_15-76);}.cls-87{stroke:url(#未命名的渐变_15-77);}.cls-88{stroke:url(#未命名的渐变_3-6);}.cls-89{stroke:url(#未命名的渐变_3-7);}.cls-90{stroke:url(#未命名的渐变_3-8);}.cls-91{stroke:url(#未命名的渐变_3-9);}.cls-92{stroke:url(#未命名的渐变_3-10);}.cls-93{stroke:url(#未命名的渐变_3-11);}.cls-94{stroke:url(#未命名的渐变_3-12);}.cls-95{stroke:url(#未命名的渐变_3-13);}.cls-96{stroke:url(#未命名的渐变_3-14);}.cls-97{stroke:url(#未命名的渐变_3-15);}</style>
    <linearGradient id="未命名的渐变_15" x1="1.68" y1="47.23" x2="2.68" y2="47.23" gradientUnits="userSpaceOnUse">
      <stop offset="0" stop-color="#00dcff"/>
      <stop offset="1" stop-color="#fff"/>
    </linearGradient>
    <linearGradient id="未命名的渐变_15-2" x1="0.21" y1="44.98" x2="4.24" y2="44.98" xlink:href="#未命名的渐变_15"/>
    <linearGradient id="未命名的渐变_15-3" x1="0.94" y1="45.72" x2="3.45" y2="45.72" xlink:href="#未命名的渐变_15"/>
    <linearGradient id="未命名的渐变_15-4" x1="1.57" y1="46.41" x2="2.8" y2="46.41" xlink:href="#未命名的渐变_15"/>
    <linearGradient id="未命名的渐变_15-5" x1="17.8" y1="75.45" x2="18.8" y2="75.45" xlink:href="#未命名的渐变_15"/>
    <linearGradient id="未命名的渐变_15-6" x1="16.34" y1="73.2" x2="20.36" y2="73.2" xlink:href="#未命名的渐变_15"/>
    <linearGradient id="未命名的渐变_15-7" x1="17.07" y1="73.93" x2="19.58" y2="73.93" xlink:href="#未命名的渐变_15"/>
    <linearGradient id="未命名的渐变_15-8" x1="17.69" y1="74.63" x2="18.92" y2="74.63" xlink:href="#未命名的渐变_15"/>
    <linearGradient id="未命名的渐变_15-9" x1="4.19" y1="44.47" x2="5.19" y2="44.47" xlink:href="#未命名的渐变_15"/>
    <linearGradient id="未命名的渐变_15-10" x1="2.73" y1="42.22" x2="6.75" y2="42.22" xlink:href="#未命名的渐变_15"/>
    <linearGradient id="未命名的渐变_15-11" x1="3.46" y1="42.95" x2="5.97" y2="42.95" xlink:href="#未命名的渐变_15"/>
    <linearGradient id="未命名的渐变_15-12" x1="4.08" y1="43.65" x2="5.32" y2="43.65" xlink:href="#未命名的渐变_15"/>
    <linearGradient id="未命名的渐变_15-13" x1="29.09" y1="56.95" x2="30.09" y2="56.95" xlink:href="#未命名的渐变_15"/>
    <linearGradient id="未命名的渐变_15-14" x1="27.62" y1="54.7" x2="31.65" y2="54.7" xlink:href="#未命名的渐变_15"/>
    <linearGradient id="未命名的渐变_15-15" x1="28.35" y1="55.44" x2="30.86" y2="55.44" xlink:href="#未命名的渐变_15"/>
    <linearGradient id="未命名的渐变_15-16" x1="28.98" y1="56.13" x2="30.21" y2="56.13" xlink:href="#未命名的渐变_15"/>
    <linearGradient id="未命名的渐变_15-17" x1="3.02" y1="27.05" x2="4.02" y2="27.05" xlink:href="#未命名的渐变_15"/>
    <linearGradient id="未命名的渐变_15-18" x1="1.55" y1="24.81" x2="5.58" y2="24.81" xlink:href="#未命名的渐变_15"/>
    <linearGradient id="未命名的渐变_15-19" x1="2.29" y1="25.54" x2="4.79" y2="25.54" xlink:href="#未命名的渐变_15"/>
    <linearGradient id="未命名的渐变_15-20" x1="2.91" y1="26.24" x2="4.14" y2="26.24" xlink:href="#未命名的渐变_15"/>
    <linearGradient id="未命名的渐变_15-21" x1="38.55" y1="76.49" x2="39.55" y2="76.49" xlink:href="#未命名的渐变_15"/>
    <linearGradient id="未命名的渐变_15-22" x1="37.09" y1="74.24" x2="41.11" y2="74.24" xlink:href="#未命名的渐变_15"/>
    <linearGradient id="未命名的渐变_15-23" x1="37.82" y1="74.97" x2="40.33" y2="74.97" xlink:href="#未命名的渐变_15"/>
    <linearGradient id="未命名的渐变_15-24" x1="38.44" y1="75.67" x2="39.68" y2="75.67" xlink:href="#未命名的渐变_15"/>
    <linearGradient id="未命名的渐变_15-25" x1="34.46" y1="73.44" x2="35.46" y2="73.44" xlink:href="#未命名的渐变_15"/>
    <linearGradient id="未命名的渐变_15-26" x1="33" y1="71.19" x2="37.02" y2="71.19" xlink:href="#未命名的渐变_15"/>
    <linearGradient id="未命名的渐变_15-27" x1="33.73" y1="71.93" x2="36.24" y2="71.93" xlink:href="#未命名的渐变_15"/>
    <linearGradient id="未命名的渐变_15-28" x1="34.35" y1="72.62" x2="35.58" y2="72.62" xlink:href="#未命名的渐变_15"/>
    <linearGradient id="未命名的渐变_15-29" x1="32.98" y1="74.38" x2="33.98" y2="74.38" xlink:href="#未命名的渐变_15"/>
    <linearGradient id="未命名的渐变_15-30" x1="31.52" y1="72.13" x2="35.54" y2="72.13" xlink:href="#未命名的渐变_15"/>
    <linearGradient id="未命名的渐变_15-31" x1="32.25" y1="72.86" x2="34.76" y2="72.86" xlink:href="#未命名的渐变_15"/>
    <linearGradient id="未命名的渐变_15-32" x1="32.87" y1="73.56" x2="34.1" y2="73.56" xlink:href="#未命名的渐变_15"/>
    <linearGradient id="未命名的渐变_15-33" x1="51.77" y1="39.81" x2="52.77" y2="39.81" xlink:href="#未命名的渐变_15"/>
    <linearGradient id="未命名的渐变_15-34" x1="50.31" y1="37.56" x2="54.33" y2="37.56" xlink:href="#未命名的渐变_15"/>
    <linearGradient id="未命名的渐变_15-35" x1="51.04" y1="38.29" x2="53.55" y2="38.29" xlink:href="#未命名的渐变_15"/>
    <linearGradient id="未命名的渐变_15-36" x1="51.66" y1="38.99" x2="52.9" y2="38.99" xlink:href="#未命名的渐变_15"/>
    <linearGradient id="未命名的渐变_15-37" x1="32.55" y1="31.46" x2="33.55" y2="31.46" xlink:href="#未命名的渐变_15"/>
    <linearGradient id="未命名的渐变_15-38" x1="31.09" y1="29.22" x2="35.11" y2="29.22" xlink:href="#未命名的渐变_15"/>
    <linearGradient id="未命名的渐变_15-39" x1="31.82" y1="29.95" x2="34.33" y2="29.95" xlink:href="#未命名的渐变_15"/>
    <linearGradient id="未命名的渐变_15-40" x1="32.44" y1="30.65" x2="33.67" y2="30.65" xlink:href="#未命名的渐变_15"/>
    <linearGradient id="未命名的渐变_15-41" x1="18.92" y1="34.67" x2="19.92" y2="34.67" xlink:href="#未命名的渐变_15"/>
    <linearGradient id="未命名的渐变_15-42" x1="17.46" y1="32.42" x2="21.48" y2="32.42" xlink:href="#未命名的渐变_15"/>
    <linearGradient id="未命名的渐变_15-43" x1="18.19" y1="33.15" x2="20.7" y2="33.15" xlink:href="#未命名的渐变_15"/>
    <linearGradient id="未命名的渐变_15-44" x1="18.81" y1="33.85" x2="20.05" y2="33.85" xlink:href="#未命名的渐变_15"/>
    <linearGradient id="未命名的渐变_15-45" x1="55.26" y1="39.81" x2="56.26" y2="39.81" xlink:href="#未命名的渐变_15"/>
    <linearGradient id="未命名的渐变_15-46" x1="53.79" y1="37.56" x2="57.82" y2="37.56" xlink:href="#未命名的渐变_15"/>
    <linearGradient id="未命名的渐变_15-47" x1="54.53" y1="38.29" x2="57.03" y2="38.29" xlink:href="#未命名的渐变_15"/>
    <linearGradient id="未命名的渐变_15-48" x1="55.15" y1="38.99" x2="56.38" y2="38.99" xlink:href="#未命名的渐变_15"/>
    <linearGradient id="未命名的渐变_15-49" x1="38.9" y1="10.02" x2="39.9" y2="10.02" xlink:href="#未命名的渐变_15"/>
    <linearGradient id="未命名的渐变_15-50" x1="37.43" y1="7.77" x2="41.46" y2="7.77" xlink:href="#未命名的渐变_15"/>
    <linearGradient id="未命名的渐变_15-51" x1="38.17" y1="8.5" x2="40.67" y2="8.5" xlink:href="#未命名的渐变_15"/>
    <linearGradient id="未命名的渐变_15-52" x1="38.79" y1="9.2" x2="40.02" y2="9.2" xlink:href="#未命名的渐变_15"/>
    <linearGradient id="未命名的渐变_15-53" x1="52.87" y1="22.91" x2="53.87" y2="22.91" xlink:href="#未命名的渐变_15"/>
    <linearGradient id="未命名的渐变_15-54" x1="51.4" y1="20.67" x2="55.43" y2="20.67" xlink:href="#未命名的渐变_15"/>
    <linearGradient id="未命名的渐变_15-55" x1="52.14" y1="21.4" x2="54.64" y2="21.4" xlink:href="#未命名的渐变_15"/>
    <linearGradient id="未命名的渐变_15-56" x1="52.76" y1="22.1" x2="53.99" y2="22.1" xlink:href="#未命名的渐变_15"/>
    <linearGradient id="未命名的渐变_15-57" x1="50.48" y1="66.56" x2="51.47" y2="66.56" xlink:href="#未命名的渐变_15"/>
    <linearGradient id="未命名的渐变_15-58" x1="49.01" y1="64.31" x2="53.03" y2="64.31" xlink:href="#未命名的渐变_15"/>
    <linearGradient id="未命名的渐变_15-59" x1="49.74" y1="65.04" x2="52.25" y2="65.04" xlink:href="#未命名的渐变_15"/>
    <linearGradient id="未命名的渐变_15-60" x1="50.37" y1="65.74" x2="51.6" y2="65.74" xlink:href="#未命名的渐变_15"/>
    <linearGradient id="未命名的渐变_15-61" x1="54.86" y1="11.58" x2="55.86" y2="11.58" xlink:href="#未命名的渐变_15"/>
    <linearGradient id="未命名的渐变_15-62" x1="53.39" y1="9.33" x2="57.42" y2="9.33" xlink:href="#未命名的渐变_15"/>
    <linearGradient id="未命名的渐变_15-63" x1="54.13" y1="10.06" x2="56.63" y2="10.06" xlink:href="#未命名的渐变_15"/>
    <linearGradient id="未命名的渐变_15-64" x1="54.75" y1="10.76" x2="55.98" y2="10.76" xlink:href="#未命名的渐变_15"/>
    <linearGradient id="未命名的渐变_15-65" x1="56.88" y1="2.75" x2="57.88" y2="2.75" xlink:href="#未命名的渐变_15"/>
    <linearGradient id="未命名的渐变_15-66" x1="55.42" y1="0.5" x2="59.44" y2="0.5" xlink:href="#未命名的渐变_15"/>
    <linearGradient id="未命名的渐变_15-67" x1="56.15" y1="1.23" x2="58.66" y2="1.23" xlink:href="#未命名的渐变_15"/>
    <linearGradient id="未命名的渐变_15-68" x1="56.77" y1="1.93" x2="58" y2="1.93" xlink:href="#未命名的渐变_15"/>
    <linearGradient id="未命名的渐变_15-69" x1="54.37" y1="40.72" x2="59.07" y2="40.72" xlink:href="#未命名的渐变_15"/>
    <linearGradient id="未命名的渐变_3" x1="59" y1="26.48" x2="63.19" y2="26.48" gradientUnits="userSpaceOnUse">
      <stop offset="0" stop-color="#fff"/>
      <stop offset="1" stop-color="#00dcff"/>
    </linearGradient>
    <linearGradient id="未命名的渐变_3-2" x1="46.41" y1="26.48" x2="59.97" y2="26.48" xlink:href="#未命名的渐变_3"/>
    <linearGradient id="未命名的渐变_3-3" x1="6.09" y1="33.44" x2="59.07" y2="33.44" xlink:href="#未命名的渐变_3"/>
    <linearGradient id="未命名的渐变_3-4" x1="29.55" y1="45.26" x2="59.07" y2="45.26" xlink:href="#未命名的渐变_3"/>
    <linearGradient id="未命名的渐变_3-5" x1="51.46" y1="51.98" x2="59.07" y2="51.98" xlink:href="#未命名的渐变_3"/>
    <linearGradient id="未命名的渐变_15-70" x1="58.66" y1="40.32" x2="59.65" y2="40.32" xlink:href="#未命名的渐变_15"/>
    <linearGradient id="未命名的渐变_15-71" x1="57.19" y1="38.07" x2="61.21" y2="38.07" xlink:href="#未命名的渐变_15"/>
    <linearGradient id="未命名的渐变_15-72" x1="57.92" y1="38.81" x2="60.43" y2="38.81" xlink:href="#未命名的渐变_15"/>
    <linearGradient id="未命名的渐变_15-73" x1="58.55" y1="39.5" x2="59.78" y2="39.5" xlink:href="#未命名的渐变_15"/>
    <linearGradient id="未命名的渐变_15-74" x1="59.69" y1="45.9" x2="60.68" y2="45.9" xlink:href="#未命名的渐变_15"/>
    <linearGradient id="未命名的渐变_15-75" x1="58.22" y1="43.65" x2="62.24" y2="43.65" xlink:href="#未命名的渐变_15"/>
    <linearGradient id="未命名的渐变_15-76" x1="58.95" y1="44.38" x2="61.46" y2="44.38" xlink:href="#未命名的渐变_15"/>
    <linearGradient id="未命名的渐变_15-77" x1="59.58" y1="45.08" x2="60.81" y2="45.08" xlink:href="#未命名的渐变_15"/>
    <linearGradient id="未命名的渐变_3-6" x1="36.1" y1="55.64" x2="59.07" y2="55.64" xlink:href="#未命名的渐变_3"/>
    <linearGradient id="未命名的渐变_3-7" x1="32.29" y1="56.02" x2="59.07" y2="56.02" xlink:href="#未命名的渐变_3"/>
    <linearGradient id="未命名的渐变_3-8" x1="40.48" y1="55.52" x2="59.07" y2="55.52" xlink:href="#未命名的渐变_3"/>
    <linearGradient id="未命名的渐变_3-9" x1="17.94" y1="53.37" x2="59.07" y2="53.37" xlink:href="#未命名的渐变_3"/>
    <linearGradient id="未命名的渐变_3-10" x1="20.56" y1="34.05" x2="59.07" y2="34.05" xlink:href="#未命名的渐变_3"/>
    <linearGradient id="未命名的渐变_3-11" x1="35.38" y1="35.37" x2="59.07" y2="35.37" xlink:href="#未命名的渐变_3"/>
    <linearGradient id="未命名的渐变_3-12" x1="0" y1="34.39" x2="59.07" y2="34.39" xlink:href="#未命名的渐变_3"/>
    <linearGradient id="未命名的渐变_3-13" x1="6.16" y1="30.54" x2="59.07" y2="30.54" xlink:href="#未命名的渐变_3"/>
    <linearGradient id="未命名的渐变_3-14" x1="59" y1="23.18" x2="66.76" y2="23.18" xlink:href="#未命名的渐变_3"/>
    <linearGradient id="未命名的渐变_3-15" x1="55.49" y1="33.54" x2="59.08" y2="33.54" xlink:href="#未命名的渐变_3"/>
  </defs>
  <g id="图层_2" data-name="图层 2">
    <g id="图层_10" data-name="图层 10">
      <text class="cls-1" transform="translate(0.22 50.11)">翌盛</text>
      <text class="cls-1" transform="translate(7.24 44.24)">星源</text>
      <text class="cls-1" transform="translate(1.52 29.94)">佰润</text>
      <text class="cls-1" transform="translate(46.77 40.01)">鼎阳</text>
      <text class="cls-1" transform="translate(31.1 33.96)">瑞狮</text>
      <text class="cls-1" transform="translate(16.47 37.68)">艾孚瑞</text>
      <text class="cls-1" transform="translate(33.06 12.88)">中电/凯圣汇泰</text>
      <text class="cls-1" transform="translate(57.47 11.41)">鼎宏</text>
      <text class="cls-1" transform="translate(54.52 5.77)">永德利</text>
      <text class="cls-1" transform="translate(51.39 25.64)">嘉瑞</text>
      <path class="cls-2" d="M2.57,47.23a.4.4,0,0,0-.79,0,.4.4,0,0,0,.79,0Z"/>
      <path class="cls-3" d="M.32,45.38a2.7,2.7,0,0,1,3.81,0"/>
      <path class="cls-4" d="M1.05,46a1.62,1.62,0,0,1,2.29,0"/>
      <path class="cls-5" d="M1.67,46.52a.72.72,0,0,1,1,0"/>
      <path class="cls-6" d="M18.69,75.45a.39.39,0,0,0-.39-.4.4.4,0,0,0,0,.79.39.39,0,0,0,.39-.39Z"/>
      <path class="cls-7" d="M16.44,73.59a2.7,2.7,0,0,1,3.81,0"/>
      <path class="cls-8" d="M17.18,74.17a1.61,1.61,0,0,1,2.29,0"/>
      <path class="cls-9" d="M17.8,74.73a.72.72,0,0,1,1,0"/>
      <path class="cls-10" d="M5.09,44.47a.4.4,0,1,0-.4.39.39.39,0,0,0,.4-.39Z"/>
      <path class="cls-11" d="M2.83,42.61a2.71,2.71,0,0,1,3.82,0"/>
      <path class="cls-12" d="M3.57,43.19a1.62,1.62,0,0,1,2.29,0"/>
      <path class="cls-13" d="M4.19,43.76a.71.71,0,0,1,1,0"/>
      <text class="cls-1" transform="translate(27.63 59.83)">崇德</text>
      <text class="cls-1" transform="translate(37.19 78.89)">
        S<tspan class="cls-14" x="1.22" y="0">B</tspan><tspan x="2.52" y="0">S</tspan>
      </text>
      <text class="cls-1" transform="translate(37.01 72.73)">金仁济</text>
      <text class="cls-1" transform="translate(31.48 76.81)">正大</text>
      <text class="cls-1" transform="translate(15.57 78.89)">金瑞仕</text>
      <path class="cls-15" d="M30,57a.4.4,0,1,0-.39.39A.39.39,0,0,0,30,57Z"/>
      <path class="cls-16" d="M27.73,55.1a2.68,2.68,0,0,1,3.81,0"/>
      <path class="cls-17" d="M28.46,55.67a1.62,1.62,0,0,1,2.29,0"/>
      <path class="cls-18" d="M29.08,56.24a.72.72,0,0,1,1,0"/>
      <path class="cls-19" d="M3.91,27.05a.39.39,0,1,0-.39.4.39.39,0,0,0,.39-.4Z"/>
      <path class="cls-20" d="M1.66,25.2a2.7,2.7,0,0,1,3.81,0"/>
      <path class="cls-21" d="M2.39,25.78a1.62,1.62,0,0,1,2.3,0"/>
      <path class="cls-22" d="M3,26.34a.72.72,0,0,1,1,0"/>
      <path class="cls-23" d="M39.45,76.49a.4.4,0,1,0-.4.39.39.39,0,0,0,.4-.39Z"/>
      <path class="cls-24" d="M37.19,74.64a2.69,2.69,0,0,1,3.82,0"/>
      <path class="cls-25" d="M37.93,75.21a1.62,1.62,0,0,1,2.29,0"/>
      <path class="cls-26" d="M38.55,75.78a.72.72,0,0,1,1,0"/>
      <path class="cls-27" d="M35.36,73.44a.4.4,0,1,0-.4.4.4.4,0,0,0,.4-.4Z"/>
      <path class="cls-28" d="M33.1,71.59a2.71,2.71,0,0,1,3.82,0"/>
      <path class="cls-29" d="M33.84,72.16a1.62,1.62,0,0,1,2.29,0"/>
      <path class="cls-30" d="M34.46,72.73a.72.72,0,0,1,1,0"/>
      <path class="cls-31" d="M33.87,74.38a.39.39,0,0,0-.39-.4.4.4,0,0,0,0,.79.39.39,0,0,0,.39-.39Z"/>
      <path class="cls-32" d="M31.62,72.52a2.7,2.7,0,0,1,3.81,0"/>
      <path class="cls-33" d="M32.36,73.1a1.61,1.61,0,0,1,2.29,0"/>
      <path class="cls-34" d="M33,73.66a.72.72,0,0,1,1,0"/>
      <text class="cls-1" transform="translate(61.6 40.13)">商都/工善/骋海</text>
      <text class="cls-1" transform="translate(56.34 48.47)">江东久隆</text>
      <path class="cls-35" d="M52.67,39.81a.4.4,0,1,0-.79,0,.4.4,0,0,0,.79,0Z"/>
      <path class="cls-36" d="M50.41,38a2.71,2.71,0,0,1,3.82,0"/>
      <path class="cls-37" d="M51.15,38.53a1.61,1.61,0,0,1,2.29,0"/>
      <path class="cls-38" d="M51.77,39.09a.72.72,0,0,1,1,0"/>
      <path class="cls-39" d="M33.44,31.46a.39.39,0,1,0-.39.4.39.39,0,0,0,.39-.4Z"/>
      <path class="cls-40" d="M31.19,29.61a2.7,2.7,0,0,1,3.81,0"/>
      <path class="cls-41" d="M31.92,30.19a1.62,1.62,0,0,1,2.3,0"/>
      <path class="cls-42" d="M32.55,30.75a.72.72,0,0,1,1,0"/>
      <path class="cls-43" d="M19.82,34.67a.4.4,0,0,0-.79,0,.4.4,0,0,0,.79,0Z"/>
      <path class="cls-44" d="M17.56,32.81a2.71,2.71,0,0,1,3.82,0"/>
      <path class="cls-45" d="M18.3,33.39a1.62,1.62,0,0,1,2.29,0"/>
      <path class="cls-46" d="M18.92,34a.72.72,0,0,1,1,0"/>
      <path class="cls-47" d="M56.15,39.81a.39.39,0,1,0-.39.39.39.39,0,0,0,.39-.39Z"/>
      <path class="cls-48" d="M53.9,38a2.7,2.7,0,0,1,3.81,0"/>
      <path class="cls-49" d="M54.63,38.53a1.62,1.62,0,0,1,2.3,0"/>
      <path class="cls-50" d="M55.26,39.09a.72.72,0,0,1,1,0"/>
      <path class="cls-51" d="M39.79,10A.39.39,0,1,0,39,10a.39.39,0,1,0,.78,0Z"/>
      <path class="cls-52" d="M37.54,8.16a2.7,2.7,0,0,1,3.81,0"/>
      <path class="cls-53" d="M38.27,8.74a1.64,1.64,0,0,1,2.3,0"/>
      <path class="cls-54" d="M38.9,9.3a.71.71,0,0,1,1,0"/>
      <path class="cls-55" d="M53.76,22.91a.39.39,0,1,0-.39.4.39.39,0,0,0,.39-.4Z"/>
      <path class="cls-56" d="M51.51,21.06a2.7,2.7,0,0,1,3.81,0"/>
      <path class="cls-57" d="M52.24,21.64a1.62,1.62,0,0,1,2.3,0"/>
      <path class="cls-58" d="M52.87,22.2a.72.72,0,0,1,1,0"/>
      <text class="cls-1" transform="translate(53.09 66.16)">贝尔令</text>
      <path class="cls-59" d="M51.37,66.56a.4.4,0,1,0-.79,0,.4.4,0,0,0,.79,0Z"/>
      <path class="cls-60" d="M49.12,64.7a2.7,2.7,0,0,1,3.81,0"/>
      <path class="cls-61" d="M49.85,65.28a1.62,1.62,0,0,1,2.29,0"/>
      <path class="cls-62" d="M50.47,65.84a.72.72,0,0,1,1,0"/>
      <path class="cls-63" d="M55.75,11.58a.39.39,0,1,0-.39.39.38.38,0,0,0,.39-.39Z"/>
      <path class="cls-64" d="M53.5,9.72a2.7,2.7,0,0,1,3.81,0"/>
      <path class="cls-65" d="M54.23,10.3a1.64,1.64,0,0,1,2.3,0"/>
      <path class="cls-66" d="M54.86,10.87a.7.7,0,0,1,1,0"/>
      <path class="cls-67" d="M57.77,2.75a.38.38,0,0,0-.39-.39.39.39,0,0,0,0,.78.38.38,0,0,0,.39-.39Z"/>
      <path class="cls-68" d="M55.52.9a2.68,2.68,0,0,1,3.81,0"/>
      <path class="cls-69" d="M56.26,1.47a1.62,1.62,0,0,1,2.29,0"/>
      <path class="cls-70" d="M56.88,2a.72.72,0,0,1,1,0"/>
      <path class="cls-80" d="M59.55,40.32a.4.4,0,0,0-.79,0,.4.4,0,0,0,.79,0Z"/>
      <path class="cls-81" d="M57.3,38.47a2.7,2.7,0,0,1,3.81,0"/>
      <path class="cls-82" d="M58,39a1.62,1.62,0,0,1,2.29,0"/>
      <path class="cls-83" d="M58.65,39.61a.72.72,0,0,1,1,0"/>
      <path class="cls-84" d="M60.58,45.9a.4.4,0,1,0-.39.39.39.39,0,0,0,.39-.39Z"/>
      <path class="cls-85" d="M58.33,44a2.7,2.7,0,0,1,3.81,0"/>
      <path class="cls-86" d="M59.06,44.62a1.62,1.62,0,0,1,2.29,0"/>
      <path class="cls-87" d="M59.68,45.19a.71.71,0,0,1,1,0"/>
      <text class="cls-77" transform="translate(57.55 41.99)">
        <tspan class="cls-78">S</tspan>
        <tspan class="cls-79" x="0.81" y="0">T</tspan>
        <tspan x="1.57" y="0">AR</tspan>
      </text>
      <text class="cls-1" transform="translate(53.16 42.22)">天旗</text>
      <g>
        <path class="cls-71" stroke-dasharray="5.118" d="M59,40.6a3.59,3.59,0,0,0-4.63.78">
          <animate attributeName="stroke-dashoffset" from="5.118" to="0" dur="2s" repeatCount="indefinite" fill="freeze" ></animate>
        </path>
        <path class="cls-72" stroke-dasharray="29.725" d="M59,40.6s9.14-14,.2-28.23">
          <animate attributeName="stroke-dashoffset" from="29.725" to="0" dur="2s" repeatCount="indefinite" fill="freeze"></animate>
        </path>
        <path class="cls-73" stroke-dasharray="34.378"  d="M59,40.6S65,18,46.44,12.37">
          <animate attributeName="stroke-dashoffset" from="34.378" to="0" dur="2s" repeatCount="indefinite" fill="freeze"></animate>
        </path>
        <path class="cls-74" stroke-dasharray="63.495"  d="M59,40.6a25.46,25.46,0,0,0-13.6-12.7c-10.34-4.2-27.93-2.41-39.3,13">
          <animate attributeName="stroke-dashoffset" from="63.495" to="0" dur="2s" repeatCount="indefinite" fill="freeze"></animate>
        </path>
        <path class="cls-75" stroke-dasharray="36.169"  d="M59,40.6S42.94,29.06,29.59,52.73">
          <animate attributeName="stroke-dashoffset" from="36.169" to="0" dur="2s" repeatCount="indefinite" fill="freeze"></animate>
        </path>
        <path class="cls-76" stroke-dasharray="26.38"  d="M59,40.6s-10.39-.79-6.77,22.77">
          <animate attributeName="stroke-dashoffset" from="26.38" to="0" dur="2s" repeatCount="indefinite" fill="freeze"></animate>
        </path>
       
        <path class="cls-88" stroke-dasharray="41.441"  d="M36.14,70.68S38.55,40.72,59,40.6">
          <animate attributeName="stroke-dashoffset" from="41.441" to="82.882" dur="2s" repeatCount="indefinite" fill="freeze"></animate>
        </path>
        <path class="cls-89" stroke-dasharray="46.766"  d="M32.36,71.69s-.65-10.07,4.11-19C40.48,45.24,50.41,39,59,40.6">
          <animate attributeName="stroke-dashoffset" from="46.766" to="93.532" dur="2s" repeatCount="indefinite" fill="freeze"></animate>
        </path>
        <path class="cls-90" stroke-dasharray="37.811"  d="M40.52,70.45S43.53,41.19,59,40.6">
          <animate attributeName="stroke-dashoffset" from="37.811" to="75.622" dur="2s" repeatCount="indefinite" fill="freeze"></animate>
        </path>
        <path class="cls-91" stroke-dasharray="67.807"  d="M18,72.41s-.34-13.26,5.69-24.88S47.26,28.34,59,40.6">
          <animate attributeName="stroke-dashoffset" from="67.807" to="135.614" dur="2s" repeatCount="indefinite" fill="freeze"></animate>
        </path>
        <path class="cls-92" stroke-dasharray="43.983"  d="M20.59,31.46a31.38,31.38,0,0,1,22.68-3.12A24.33,24.33,0,0,1,59,40.6">
          <animate attributeName="stroke-dashoffset" from="43.983" to="87.966" dur="2s" repeatCount="indefinite" fill="freeze"></animate>
        </path>
        <path class="cls-93" stroke-dasharray="26.71"  d="M35.42,30.19A29,29,0,0,1,59,40.6">
          <animate attributeName="stroke-dashoffset" from="26.71" to="53.42" dur="2s" repeatCount="indefinite" fill="freeze"></animate>
        </path>
        <path class="cls-94" stroke-dasharray="72.973"  d="M0,44.38s10-20.5,34.36-20C52.6,24.81,59,40.6,59,40.6">
          <animate attributeName="stroke-dashoffset" from="72.973" to="145.946" dur="2s" repeatCount="indefinite" fill="freeze"></animate>
        </path>
        <path class="cls-95" stroke-dasharray="61.59"  d="M6.2,25.64S41.2,7,59,40.6">
          <animate attributeName="stroke-dashoffset" from="61.59" to="123.18" dur="2s" repeatCount="indefinite" fill="freeze"></animate>
        </path>
        <path class="cls-96" stroke-dasharray="38.236"  d="M61.09,5.77a24.9,24.9,0,0,1,5.26,19.87c-2.1,11.77-7.32,15-7.32,15">
          <animate attributeName="stroke-dashoffset" from="38.236" to="76.472" dur="2s" repeatCount="indefinite" fill="freeze"></animate>
        </path>
        <path class="cls-97" stroke-dasharray="14.829"  d="M55.52,26.48C59.33,30.65,59,40.6,59,40.6">
          <animate attributeName="stroke-dashoffset" from="14.829" to="29.658" dur="2s" repeatCount="indefinite" fill="freeze"></animate>
        </path>
      </g>
    </g>
  </g>
</svg>