<svg xmlns="http://www.w3.org/2000/svg" xmlns:xlink="http://www.w3.org/1999/xlink" viewBox="0 0 11.73 5.88">
  <defs>
    <style>.cls-1,.cls-2,.cls-3,.cls-4,.cls-5,.cls-6,.cls-7{fill:none;stroke-linecap:round;stroke-linejoin:round;}.cls-1{stroke-width:0.07px;stroke:url(#未命名的渐变_6);}.cls-2,.cls-3,.cls-4,.cls-5,.cls-6,.cls-7{stroke-width:0.14px;}.cls-2{stroke:url(#未命名的渐变_15);}.cls-3{stroke:url(#未命名的渐变_15-2);}.cls-4{stroke:url(#未命名的渐变_15-3);}.cls-5{stroke:url(#未命名的渐变_15-4);}.cls-6{stroke:url(#未命名的渐变_15-5);}.cls-7{stroke:url(#未命名的渐变_15-6);}.cls-8{fill:#fff;}</style>
    <linearGradient id="未命名的渐变_6" x1="4.47" y1="1.89" x2="10.03" y2="1.89" gradientUnits="userSpaceOnUse">
      <stop offset="0" stop-color="#fff"/>
      <stop offset="1" stop-color="#00dcff"/>
    </linearGradient>
    <linearGradient id="未命名的渐变_15" x1="1.83" y1="2.26" x2="3.95" y2="2.26" gradientUnits="userSpaceOnUse">
      <stop offset="0" stop-color="#00dcff"/>
      <stop offset="1" stop-color="#fff"/>
    </linearGradient>
    <linearGradient id="未命名的渐变_15-2" x1="3.92" y1="3.36" x2="4.56" y2="3.36" xlink:href="#未命名的渐变_15"/>
    <linearGradient id="未命名的渐变_15-3" x1="3.91" y1="3.23" x2="5.07" y2="3.23" xlink:href="#未命名的渐变_15"/>
    <linearGradient id="未命名的渐变_15-4" x1="2.54" y1="1.77" x2="3.39" y2="1.77" xlink:href="#未命名的渐变_15"/>
    <linearGradient id="未命名的渐变_15-5" x1="1.64" y1="2.27" x2="1.91" y2="2.27" xlink:href="#未命名的渐变_15"/>
    <linearGradient id="未命名的渐变_15-6" x1="2.89" y1="0.5" x2="3.23" y2="0.5" xlink:href="#未命名的渐变_15"/>
  </defs>
  <g id="图层_2" data-name="图层 2">
    <g id="图层_5" data-name="图层 5">
      <path class="cls-1" d="M10,3.43C7.63-2.44,4.51,1.89,4.51,1.89" stroke-dasharray="7.576" >
        <animate attributeName="stroke-dashoffset" from="7.576" to="0" dur="2s" repeatCount="indefinite" fill="freeze"></animate>
      </path>
      <path class="cls-2" d="M3.37,1.44h.25c0-.11,0-.12.13-.12h.13v1.9a1.33,1.33,0,0,1-.2,0,.05.05,0,0,1-.05-.07c0-.05,0-.05-.06-.05H2c-.09,0-.12,0-.12-.11V1.56c0-.09,0-.12.13-.12h.72"/>
      <path class="cls-3" d="M4.49,3.9a.19.19,0,0,1-.14-.15.47.47,0,0,1,0-.17A.93.93,0,0,0,4,2.82"/>
      <path class="cls-4" d="M4,2.28l.08.05a1.82,1.82,0,0,1,.83,1A1.91,1.91,0,0,1,5,4a.2.2,0,0,1-.22.21A.22.22,0,0,1,4.55,4c0-.14,0-.27,0-.41A1.13,1.13,0,0,0,4.3,3"/>
      <path class="cls-5" d="M3.24,1.26a1.49,1.49,0,0,1,0,.42,1,1,0,0,1-.07.15s0,.06,0,.08a.35.35,0,0,1,.07.54.38.38,0,0,1-.39.09.35.35,0,0,1-.22-.33.46.46,0,0,1,.09-.3,1,1,0,0,0,.17-.6V1c0-.05,0-.06.06-.07h.24s.06,0,.06.07ZM3,2.37a.16.16,0,0,0,.16-.17A.16.16,0,0,0,3,2.05a.16.16,0,1,0,0,.32Z"/>
      <path class="cls-6" d="M1.84,3a.14.14,0,0,1-.13-.15V1.73a.14.14,0,0,1,.13-.15"/>
      <path class="cls-7" d="M3,.93V.07h.2V.93"/>
      <path class="cls-8" d="M8.9,5a.77.77,0,0,1-.27,0s-.05,0-.05-.08a.06.06,0,0,1,.07-.07l.12,0h.12c.16,0,.23-.06.23-.16s0-.11-.14-.14a1.38,1.38,0,0,1-.27-.08.23.23,0,0,1-.13-.23A.32.32,0,0,1,8.93,4a.61.61,0,0,1,.24,0,.07.07,0,0,1,.06.07.08.08,0,0,1-.08.08l-.1,0H8.94c-.12,0-.2.06-.2.16s0,.11.15.13a1.23,1.23,0,0,1,.29.09.25.25,0,0,1,.11.22C9.29,4.93,9.13,5,8.9,5Z"/>
      <path class="cls-8" d="M10.08,4.13H9.83V5A.08.08,0,0,1,9.75,5,.08.08,0,0,1,9.66,5V4.13H9.42a.07.07,0,0,1-.08-.08A.08.08,0,0,1,9.42,4h.66a.09.09,0,0,1,.08.08A.08.08,0,0,1,10.08,4.13Z"/>
      <path class="cls-8" d="M10.8,5A.08.08,0,0,1,10.72,5c0-.06,0-.12,0-.18H10.3c0,.06,0,.12-.05.18a.08.08,0,0,1-.08.06.07.07,0,0,1-.07-.1,6.16,6.16,0,0,1,.28-.89c0-.08.07-.09.11-.09s.08,0,.11.09a7.73,7.73,0,0,1,.29.89A.09.09,0,0,1,10.8,5Zm-.31-.82a3.12,3.12,0,0,0-.15.43h.3Z"/>
      <path class="cls-8" d="M11.64,5a.08.08,0,0,1-.07,0,2.82,2.82,0,0,0-.21-.38h-.17V5a.08.08,0,0,1-.08.08A.07.07,0,0,1,11,5v-.9A.08.08,0,0,1,11.11,4h.27c.23,0,.34.12.34.29v.06a.27.27,0,0,1-.19.26,2.37,2.37,0,0,1,.19.35C11.75,5,11.7,5,11.64,5Zm-.09-.78c0-.08-.05-.13-.17-.13h-.19v.33h.19c.11,0,.17-.06.17-.14Z"/>
      <path class="cls-8" d="M.3,5H.78v.88H.6V5.41H.38a.5.5,0,0,1-.28.47A.45.45,0,0,0,0,5.74a.36.36,0,0,0,.21-.33H0V5.25H.6V5.12H.12V4.19H.3Zm1-.09H.46v-.8h.88Zm-.19-.67H.64v.1h.51Zm0,.22H.64v.1h.51Zm0,.22H.64v.11h.51Zm.58.61v.6H1.54V5.42H1.19v.44H1V5H1.5V4.19h.18v.93H1.19v.14Z"/>
      <path class="cls-8" d="M2.74,4.17c-.07.16-.16.36-.24.51a.61.61,0,0,1,.22.42.28.28,0,0,1-.1.25.42.42,0,0,1-.12,0,1,1,0,0,1-.17,0,.59.59,0,0,0,0-.17h.13l.07,0s0-.07,0-.13a.51.51,0,0,0-.21-.38c.06-.13.13-.3.18-.43H2.25V5.85H2.08V4.1h.53Zm1,0V5.82H3.54V5.69H3v.15H2.82V4.14ZM3,4.31v.5h.54v-.5Zm.54,1.21V5H3v.54Z"/>
    </g>
  </g>
</svg>