<svg xmlns="http://www.w3.org/2000/svg" xmlns:xlink="http://www.w3.org/1999/xlink" 
     viewBox="0 0 7.95 5.82"  >
  <defs>
    <style>.cls-1,.cls-2,.cls-3,.cls-4,.cls-5{fill:none;stroke-linecap:round;stroke-linejoin:round;stroke-width:0.14px;}.cls-1{stroke:url(#未命名的渐变_15);}.cls-2{stroke:url(#未命名的渐变_15-2);}.cls-3{stroke:url(#未命名的渐变_15-3);}.cls-4{stroke:url(#未命名的渐变_15-4);}.cls-5{stroke:url(#未命名的渐变_15-5);}.cls-6{font-size:1.46px;font-family:SKFChevinOT-DemiBold, SKF Chevin OT;font-weight:300;}.cls-6,.cls-9{fill:#fff;}.cls-7{letter-spacing:-0.02em;}.cls-8{letter-spacing:-0.07em;}.cls-9{font-size:2px;font-family:SourceHanSansCN-Medium-GBpc-EUC-H, Source Han Sans CN;}</style>
    <linearGradient id="未命名的渐变_15" x1="2.21" y1="2.54" x2="3.62" y2="2.54" gradientUnits="userSpaceOnUse">
      <stop offset="0" stop-color="#00dcff"/>
      <stop offset="1" stop-color="#fff"/>
    </linearGradient>
    <linearGradient id="未命名的渐变_15-2" x1="2.21" y1="2" x2="3.53" y2="2" xlink:href="#未命名的渐变_15"/>
    <linearGradient id="未命名的渐变_15-3" x1="1.45" y1="0.77" x2="2.43" y2="0.77" xlink:href="#未命名的渐变_15"/>
    <linearGradient id="未命名的渐变_15-4" x1="0" y1="2.13" x2="1.44" y2="2.13" xlink:href="#未命名的渐变_15"/>
    <linearGradient id="未命名的渐变_15-5" x1="1.45" y1="2.54" x2="2.2" y2="2.54" xlink:href="#未命名的渐变_15"/>
  </defs>
  <g id="图层_2" data-name="图层 2">
    <g id="图层_10" data-name="图层 10">
      <path class="cls-1" d="M2.28,2.57a1,1,0,0,0,.57.23h0a.83.83,0,0,0,.61-.29.13.13,0,0,0,.06-.1.14.14,0,0,0-.09-.13"/>
      <line class="cls-2" x1="3.46" y1="2.28" x2="2.28" y2="1.73"/>
      <path class="cls-3" d="M2.23,1.47A1.23,1.23,0,0,0,2.31.58.84.84,0,0,0,1.75.09a.16.16,0,0,0-.12,0s-.11.07-.11.14V1.33"/>
      <path class="cls-4" d="M1.37,1.61a1.31,1.31,0,0,0-1,.18.85.85,0,0,0-.31.72.18.18,0,0,0,0,.11.16.16,0,0,0,.11,0H.26l1.1-.41"/>
      <path class="cls-5" d="M2.13,3.57V1.67a.32.32,0,0,0-.3-.31.32.32,0,0,0-.31.31v1.9a.15.15,0,0,0,.16.15H2a.16.16,0,0,0,.16-.15"/>
      <text class="cls-6" transform="translate(0.35 5.26)">
        <tspan class="cls-7">S</tspan>
        <tspan class="cls-8" x="0.81" y="0">T</tspan>
        <tspan x="1.57" y="0">AR</tspan>
      </text>
      <text class="cls-9" transform="translate(3.95 2.92)">江亚</text>
    </g>
  </g>
</svg>