<svg xmlns="http://www.w3.org/2000/svg" xmlns:xlink="http://www.w3.org/1999/xlink"
     viewBox="0 0 63.53 68.26"  >
  <defs>
    <style>.cls-1,.cls-10,.cls-11,.cls-12,.cls-13,.cls-14,.cls-15,.cls-16,.cls-17,.cls-18,.cls-19,.cls-2,.cls-23,.cls-24,.cls-25,.cls-26,.cls-27,.cls-28,.cls-29,.cls-3,.cls-30,.cls-31,.cls-32,.cls-33,.cls-34,.cls-35,.cls-36,.cls-37,.cls-38,.cls-39,.cls-4,.cls-40,.cls-41,.cls-42,.cls-43,.cls-44,.cls-45,.cls-46,.cls-47,.cls-48,.cls-49,.cls-5,.cls-50,.cls-6,.cls-7,.cls-8,.cls-9{fill:none;}.cls-10,.cls-11,.cls-12,.cls-13,.cls-14,.cls-15,.cls-16,.cls-17,.cls-18,.cls-19,.cls-2,.cls-23,.cls-24,.cls-25,.cls-26,.cls-27,.cls-28,.cls-29,.cls-3,.cls-30,.cls-31,.cls-32,.cls-33,.cls-34,.cls-35,.cls-36,.cls-37,.cls-38,.cls-39,.cls-4,.cls-40,.cls-41,.cls-42,.cls-43,.cls-44,.cls-45,.cls-46,.cls-47,.cls-48,.cls-49,.cls-5,.cls-50,.cls-6,.cls-7,.cls-8,.cls-9{stroke-linecap:round;stroke-linejoin:round;}.cls-11,.cls-12,.cls-13,.cls-14,.cls-15,.cls-16,.cls-17,.cls-18,.cls-19,.cls-2,.cls-23,.cls-24,.cls-25,.cls-26,.cls-27,.cls-28,.cls-29,.cls-3,.cls-30,.cls-31,.cls-32,.cls-33,.cls-34,.cls-35,.cls-36,.cls-37,.cls-38,.cls-39,.cls-4,.cls-40,.cls-5,.cls-6,.cls-7,.cls-8,.cls-9{stroke-width:0.14px;}.cls-2{stroke:url(#未命名的渐变_15);}.cls-3{stroke:url(#未命名的渐变_15-2);}.cls-4{stroke:url(#未命名的渐变_15-3);}.cls-5{stroke:url(#未命名的渐变_15-4);}.cls-6{stroke:url(#未命名的渐变_15-5);}.cls-7{stroke:url(#未命名的渐变_15-6);}.cls-8{stroke:url(#未命名的渐变_15-7);}.cls-9{stroke:url(#未命名的渐变_15-8);}.cls-10{stroke-width:0.14px;stroke:url(#未命名的渐变_15-9);}.cls-11{stroke:url(#未命名的渐变_15-10);}.cls-12{stroke:url(#未命名的渐变_15-11);}.cls-13{stroke:url(#未命名的渐变_15-12);}.cls-14{stroke:url(#未命名的渐变_15-13);}.cls-15{stroke:url(#未命名的渐变_15-14);}.cls-16{stroke:url(#未命名的渐变_15-15);}.cls-17{stroke:url(#未命名的渐变_15-16);}.cls-18{stroke:url(#未命名的渐变_15-17);}.cls-19{stroke:url(#未命名的渐变_15-18);}.cls-20{clip-path:url(#clip-path);}.cls-21{clip-path:url(#clip-path-2);}.cls-22{font-size:2px;font-family:SourceHanSansCN-Medium-GBpc-EUC-H, Source Han Sans CN;}.cls-22,.cls-51{fill:#fff;}.cls-23{stroke:url(#未命名的渐变_15-19);}.cls-24{stroke:url(#未命名的渐变_15-20);}.cls-25{stroke:url(#未命名的渐变_15-21);}.cls-26{stroke:url(#未命名的渐变_15-22);}.cls-27{stroke:url(#未命名的渐变_15-23);}.cls-28{stroke:url(#未命名的渐变_15-24);}.cls-29{stroke:url(#未命名的渐变_15-25);}.cls-30{stroke:url(#未命名的渐变_15-26);}.cls-31{stroke:url(#未命名的渐变_15-27);}.cls-32{stroke:url(#未命名的渐变_15-28);}.cls-33{stroke:url(#未命名的渐变_15-29);}.cls-34{stroke:url(#未命名的渐变_15-30);}.cls-35{stroke:url(#未命名的渐变_15-31);}.cls-36{stroke:url(#未命名的渐变_15-32);}.cls-37{stroke:url(#未命名的渐变_15-33);}.cls-38{stroke:url(#未命名的渐变_15-34);}.cls-39{stroke:url(#未命名的渐变_15-35);}.cls-40{stroke:url(#未命名的渐变_15-36);}.cls-41,.cls-42,.cls-43,.cls-44,.cls-45,.cls-46,.cls-47,.cls-48,.cls-49,.cls-50{stroke-width:0.07px;}.cls-41{stroke:url(#未命名的渐变_9);}.cls-42{stroke:url(#未命名的渐变_15-37);}.cls-43{stroke:url(#未命名的渐变_9-2);}.cls-44{stroke:url(#未命名的渐变_9-3);}.cls-45{stroke:url(#未命名的渐变_9-4);}.cls-46{stroke:url(#未命名的渐变_9-5);}.cls-47{stroke:url(#未命名的渐变_9-6);}.cls-48{stroke:url(#未命名的渐变_9-7);}.cls-49{stroke:url(#未命名的渐变_9-8);}.cls-50{stroke:url(#未命名的渐变_9-9);}.cls-51{font-size:1.46px;font-family:SKFChevinOT-DemiBold, SKF Chevin OT;font-weight:300;}.cls-52{letter-spacing:-0.02em;}.cls-53{letter-spacing:-0.07em;}</style>
    <linearGradient id="未命名的渐变_15" x1="31.76" y1="38.76" x2="32.93" y2="38.76" gradientUnits="userSpaceOnUse">
      <stop offset="0" stop-color="#00dcff"/>
      <stop offset="1" stop-color="#fff"/>
    </linearGradient>
    <linearGradient id="未命名的渐变_15-2" x1="478.28" y1="39.21" x2="479.45" y2="39.21" gradientTransform="matrix(-1, 0, 0, 1, 512.23, 0)" xlink:href="#未命名的渐变_15"/>
    <linearGradient id="未命名的渐变_15-3" x1="31.48" y1="37.57" x2="34.23" y2="37.57" xlink:href="#未命名的渐变_15"/>
    <linearGradient id="未命名的渐变_15-4" x1="0.9" y1="38.76" x2="2.07" y2="38.76" xlink:href="#未命名的渐变_15"/>
    <linearGradient id="未命名的渐变_15-5" x1="509.13" y1="39.21" x2="510.3" y2="39.21" gradientTransform="matrix(-1, 0, 0, 1, 512.23, 0)" xlink:href="#未命名的渐变_15"/>
    <linearGradient id="未命名的渐变_15-6" x1="0.63" y1="37.57" x2="3.37" y2="37.57" xlink:href="#未命名的渐变_15"/>
    <linearGradient id="未命名的渐变_15-7" x1="56.55" y1="32.75" x2="57.72" y2="32.75" xlink:href="#未命名的渐变_15"/>
    <linearGradient id="未命名的渐变_15-8" x1="453.49" y1="33.2" x2="454.65" y2="33.2" gradientTransform="matrix(-1, 0, 0, 1, 512.23, 0)" xlink:href="#未命名的渐变_15"/>
    <linearGradient id="未命名的渐变_15-9" x1="56.28" y1="31.55" x2="59.02" y2="31.55" xlink:href="#未命名的渐变_15"/>
    <linearGradient id="未命名的渐变_15-10" x1="35.19" y1="3.42" x2="36.36" y2="3.42" xlink:href="#未命名的渐变_15"/>
    <linearGradient id="未命名的渐变_15-11" x1="474.85" y1="3.87" x2="476.02" y2="3.87" gradientTransform="matrix(-1, 0, 0, 1, 512.23, 0)" xlink:href="#未命名的渐变_15"/>
    <linearGradient id="未命名的渐变_15-12" x1="34.91" y1="2.22" x2="37.66" y2="2.22" xlink:href="#未命名的渐变_15"/>
    <linearGradient id="未命名的渐变_15-13" x1="49.46" y1="32.55" x2="50.63" y2="32.55" xlink:href="#未命名的渐变_15"/>
    <linearGradient id="未命名的渐变_15-14" x1="460.58" y1="33" x2="461.74" y2="33" gradientTransform="matrix(-1, 0, 0, 1, 512.23, 0)" xlink:href="#未命名的渐变_15"/>
    <linearGradient id="未命名的渐变_15-15" x1="49.19" y1="31.36" x2="51.93" y2="31.36" xlink:href="#未命名的渐变_15"/>
    <linearGradient id="未命名的渐变_15-16" x1="48.96" y1="27.3" x2="50.13" y2="27.3" xlink:href="#未命名的渐变_15"/>
    <linearGradient id="未命名的渐变_15-17" x1="461.07" y1="27.75" x2="462.24" y2="27.75" gradientTransform="matrix(-1, 0, 0, 1, 512.23, 0)" xlink:href="#未命名的渐变_15"/>
    <linearGradient id="未命名的渐变_15-18" x1="48.69" y1="26.1" x2="51.43" y2="26.1" xlink:href="#未命名的渐变_15"/>
    <clipPath id="clip-path">
      <path class="cls-1" d="M52.77,17.61l-.2-.25a0,0,0,0,1,0-.05s0,0,.06,0l.19.26Z"/>
    </clipPath>
    <clipPath id="clip-path-2">
      <path class="cls-1" d="M57.07,34.53l0,.32s0,0,0,0,0,0,0,0l0-.32Z"/>
    </clipPath>
    <linearGradient id="未命名的渐变_15-19" x1="26.42" y1="49.62" x2="27.58" y2="49.62" xlink:href="#未命名的渐变_15"/>
    <linearGradient id="未命名的渐变_15-20" x1="483.62" y1="50.07" x2="484.79" y2="50.07" gradientTransform="matrix(-1, 0, 0, 1, 512.23, 0)" xlink:href="#未命名的渐变_15"/>
    <linearGradient id="未命名的渐变_15-21" x1="26.14" y1="48.43" x2="28.88" y2="48.43" xlink:href="#未命名的渐变_15"/>
    <linearGradient id="未命名的渐变_15-22" x1="49.94" y1="15.35" x2="51.11" y2="15.35" xlink:href="#未命名的渐变_15"/>
    <linearGradient id="未命名的渐变_15-23" x1="460.1" y1="15.8" x2="461.27" y2="15.8" gradientTransform="matrix(-1, 0, 0, 1, 512.23, 0)" xlink:href="#未命名的渐变_15"/>
    <linearGradient id="未命名的渐变_15-24" x1="49.66" y1="14.15" x2="52.41" y2="14.15" xlink:href="#未命名的渐变_15"/>
    <linearGradient id="未命名的渐变_15-25" x1="51.69" y1="54.32" x2="52.86" y2="54.32" xlink:href="#未命名的渐变_15"/>
    <linearGradient id="未命名的渐变_15-26" x1="458.35" y1="54.77" x2="459.52" y2="54.77" gradientTransform="matrix(-1, 0, 0, 1, 512.23, 0)" xlink:href="#未命名的渐变_15"/>
    <linearGradient id="未命名的渐变_15-27" x1="51.41" y1="53.12" x2="54.16" y2="53.12" xlink:href="#未命名的渐变_15"/>
    <linearGradient id="未命名的渐变_15-28" x1="48.03" y1="58.92" x2="49.2" y2="58.92" xlink:href="#未命名的渐变_15"/>
    <linearGradient id="未命名的渐变_15-29" x1="462.01" y1="59.37" x2="463.17" y2="59.37" gradientTransform="matrix(-1, 0, 0, 1, 512.23, 0)" xlink:href="#未命名的渐变_15"/>
    <linearGradient id="未命名的渐变_15-30" x1="47.76" y1="57.72" x2="50.5" y2="57.72" xlink:href="#未命名的渐变_15"/>
    <linearGradient id="未命名的渐变_15-31" x1="32.02" y1="65.2" x2="33.19" y2="65.2" xlink:href="#未命名的渐变_15"/>
    <linearGradient id="未命名的渐变_15-32" x1="478.01" y1="65.65" x2="479.18" y2="65.65" gradientTransform="matrix(-1, 0, 0, 1, 512.23, 0)" xlink:href="#未命名的渐变_15"/>
    <linearGradient id="未命名的渐变_15-33" x1="31.75" y1="64.01" x2="34.49" y2="64.01" xlink:href="#未命名的渐变_15"/>
    <linearGradient id="未命名的渐变_15-34" x1="52.36" y1="4.11" x2="53.53" y2="4.11" xlink:href="#未命名的渐变_15"/>
    <linearGradient id="未命名的渐变_15-35" x1="457.68" y1="4.56" x2="458.85" y2="4.56" gradientTransform="matrix(-1, 0, 0, 1, 512.23, 0)" xlink:href="#未命名的渐变_15"/>
    <linearGradient id="未命名的渐变_15-36" x1="52.09" y1="2.91" x2="54.83" y2="2.91" xlink:href="#未命名的渐变_15"/>
    <linearGradient id="未命名的渐变_9" x1="51" y1="31.67" x2="57.02" y2="31.67" gradientUnits="userSpaceOnUse">
      <stop offset="0" stop-color="#fff"/>
      <stop offset="1" stop-color="#00dcff"/>
    </linearGradient>
    <linearGradient id="未命名的渐变_15-37" x1="51.82" y1="33.85" x2="57.02" y2="33.85" xlink:href="#未命名的渐变_15"/>
    <linearGradient id="未命名的渐变_9-2" x1="55.08" y1="19.93" x2="60.66" y2="19.93" xlink:href="#未命名的渐变_9"/>
    <linearGradient id="未命名的渐变_9-3" x1="43.57" y1="19.13" x2="58.89" y2="19.13" xlink:href="#未命名的渐变_9"/>
    <linearGradient id="未命名的渐变_9-4" x1="4.57" y1="29.89" x2="57.02" y2="29.89" xlink:href="#未命名的渐变_9"/>
    <linearGradient id="未命名的渐变_9-5" x1="33.17" y1="33.79" x2="57.02" y2="33.79" xlink:href="#未命名的渐变_9"/>
    <linearGradient id="未命名的渐变_9-6" x1="30.19" y1="42.2" x2="57.02" y2="42.2" xlink:href="#未命名的渐变_9"/>
    <linearGradient id="未命名的渐变_9-7" x1="36.12" y1="48.95" x2="57.02" y2="48.95" xlink:href="#未命名的渐变_9"/>
    <linearGradient id="未命名的渐变_9-8" x1="47.84" y1="45.93" x2="57.02" y2="45.93" xlink:href="#未命名的渐变_9"/>
    <linearGradient id="未命名的渐变_9-9" x1="51.57" y1="43.59" x2="57.02" y2="43.59" xlink:href="#未命名的渐变_9"/>
  </defs>
  <g id="图层_2" data-name="图层 2">
    <g id="图层_10" data-name="图层 10">
      <polyline class="cls-2" points="31.83 37.57 31.83 39.25 32.85 39.96"/>
      <polyline class="cls-3" points="33.88 37.57 33.88 39.25 32.85 39.96 32.85 40.86"/>
      <line class="cls-4" x1="31.56" y1="37.57" x2="34.16" y2="37.57"/>
      <polyline class="cls-5" points="0.97 37.57 0.97 39.25 2 39.96"/>
      <polyline class="cls-6" points="3.03 37.57 3.03 39.25 2 39.96 2 40.86"/>
      <line class="cls-7" x1="0.7" y1="37.57" x2="3.3" y2="37.57"/>
      <polyline class="cls-8" points="56.62 31.55 56.62 33.24 57.65 33.95"/>
      <polyline class="cls-9" points="58.68 31.55 58.68 33.24 57.65 33.95 57.65 34.84"/>
      <line class="cls-10" x1="56.35" y1="31.55" x2="58.95" y2="31.55"/>
      <polyline class="cls-11" points="35.26 2.22 35.26 3.91 36.28 4.62"/>
      <polyline class="cls-12" points="37.31 2.22 37.31 3.91 36.28 4.62 36.28 5.51"/>
      <line class="cls-13" x1="34.98" y1="2.22" x2="37.59" y2="2.22"/>
      <polyline class="cls-14" points="49.53 31.36 49.53 33.04 50.56 33.75"/>
      <polyline class="cls-15" points="51.59 31.36 51.59 33.04 50.56 33.75 50.56 34.65"/>
      <line class="cls-16" x1="49.26" y1="31.36" x2="51.86" y2="31.36"/>
      <polyline class="cls-17" points="49.03 26.1 49.03 27.79 50.06 28.5"/>
      <polyline class="cls-18" points="51.09 26.1 51.09 27.79 50.06 28.5 50.06 29.39"/>
      <line class="cls-19" x1="48.76" y1="26.1" x2="51.36" y2="26.1"/> 
      <text class="cls-22" transform="translate(59.53 31.38)">
        优快<tspan x="0" y="2.4">格坦</tspan><tspan x="0" y="4.8">润祥</tspan><tspan x="0" y="7.2">诺法</tspan>
      </text>
      <text class="cls-22" transform="translate(38.3 1.76)">
        承乾<tspan x="0" y="2.4">中电</tspan><tspan x="0" y="4.8">凯盛汇</tspan>
      </text>
      <text class="cls-22" transform="translate(48.56 37.04)">鼎阳</text>
      <text class="cls-22" transform="translate(44.16 27.81)">天旗</text>
      <text class="cls-22" transform="translate(30.86 42.94)">江亚</text>
      <polyline class="cls-23" points="26.49 48.43 26.49 50.11 27.51 50.82"/>
      <polyline class="cls-24" points="28.54 48.43 28.54 50.11 27.51 50.82 27.51 51.72"/>
      <line class="cls-25" x1="26.21" y1="48.43" x2="28.81" y2="48.43"/>
      <text class="cls-22" transform="translate(25.51 53.8)">崇德</text>
      <polyline class="cls-26" points="50.01 14.15 50.01 15.84 51.03 16.54"/>
      <polyline class="cls-27" points="52.06 14.15 52.06 15.84 51.03 16.54 51.03 17.44"/>
      <line class="cls-28" x1="49.73" y1="14.15" x2="52.34" y2="14.15"/>
      <text class="cls-22" transform="translate(52.77 16.53)">嘉瑞</text>
      <polyline class="cls-29" points="51.76 53.12 51.76 54.81 52.79 55.52"/>
      <polyline class="cls-30" points="53.81 53.12 53.81 54.81 52.79 55.52 52.79 56.41"/>
      <line class="cls-31" x1="54.09" y1="53.12" x2="51.49" y2="53.12"/>
      <text class="cls-22" transform="translate(54.33 56.2)">德辉</text>
      <text class="cls-22" transform="translate(0 42.89)">翌盛</text>
      <polyline class="cls-32" points="48.1 57.72 48.1 59.41 49.13 60.11"/>
      <polyline class="cls-33" points="50.16 57.72 50.16 59.41 49.13 60.11 49.13 61.01"/>
      <line class="cls-34" x1="47.83" y1="57.72" x2="50.43" y2="57.72"/>
      <polyline class="cls-35" points="32.1 64.01 32.1 65.69 33.12 66.4"/>
      <polyline class="cls-36" points="34.15 64.01 34.15 65.69 33.12 66.4 33.12 67.3"/>
      <line class="cls-37" x1="31.82" y1="64.01" x2="34.42" y2="64.01"/>
      <text class="cls-22" transform="translate(46.53 63.05)">贝尔令</text>
      <text class="cls-22" transform="translate(34.88 66.17)">正大</text>
      <polyline class="cls-38" points="52.43 2.91 52.43 4.59 53.46 5.3"/>
      <polyline class="cls-39" points="54.48 2.91 54.48 4.59 53.46 5.3 53.46 6.2"/>
      <line class="cls-40" x1="52.16" y1="2.91" x2="54.76" y2="2.91"/>
      <text class="cls-22" transform="translate(55.15 4.54)">鼎宏</text>
      <text class="cls-51" transform="translate(55.34 36.09)">
        <tspan class="cls-52">S</tspan>
        <tspan class="cls-53" x="0.81" y="0">T</tspan>
        <tspan x="1.57" y="0">AR</tspan>
      </text>
      <path class="cls-41" stroke-dasharray="9.097"  d="M57,34.84c-.37-1.6-3.25-6.1-6-6.34">
        <animate attributeName="stroke-dashoffset" from="9.097" to="0" dur="2s" repeatCount="indefinite" fill="freeze"></animate>
      </path>
      <path class="cls-42" stroke-dasharray="6.186"  d="M57,34.84a3.16,3.16,0,0,0-5.13-1.09">
        <animate attributeName="stroke-dashoffset" from="6.186" to="0" dur="2s" repeatCount="indefinite" fill="freeze"></animate>
      </path>
      <path class="cls-43" stroke-dasharray="31.877"  d="M57,34.84C60.21,28.91,64,13.13,55.12,5">
        <animate attributeName="stroke-dashoffset" from="31.877" to="0" dur="2s" repeatCount="indefinite" fill="freeze"></animate>
      </path>
      <path class="cls-44" stroke-dasharray="39.368"  d="M43.6,3.42C51.35,4.71,63.55,11.35,57,34.84">
        <animate attributeName="stroke-dashoffset" from="39.368" to="78.736" dur="2s" repeatCount="indefinite" fill="freeze"></animate>
      </path>
      <path class="cls-45" stroke-dasharray="66.216"  d="M4.61,39.14C17.52,17.33,55.45,13.43,57,34.84">
        <animate attributeName="stroke-dashoffset" from="66.216" to="132.432" dur="2s" repeatCount="indefinite" fill="freeze"></animate>
      </path>
      <path class="cls-46" stroke-dasharray="27.015"  d="M33.2,36.92C39.81,29.53,54.42,28.5,57,34.84">
        <animate attributeName="stroke-dashoffset" from="27.015" to="54.03" dur="2s" repeatCount="indefinite" fill="freeze"></animate>
      </path>
      <path class="cls-47" stroke-dasharray="36.297"  d="M30.22,51.72C33.88,39.25,48.87,27.79,57,34.84">
        <animate attributeName="stroke-dashoffset" from="36.297" to="72.594" dur="2s" repeatCount="indefinite" fill="freeze"></animate>
      </path>
      <path class="cls-48" stroke-dasharray="41.3"  d="M36.88,63.55C33.46,52.22,42.5,30.86,57,34.84">
        <animate attributeName="stroke-dashoffset" from="41.3" to="82.6" dur="2s" repeatCount="indefinite" fill="freeze"></animate>
      </path>
      <path class="cls-49" stroke-dasharray="26.165"  d="M49,57c-2.63-7.09-1.1-19.54,8-22.17">
        <animate attributeName="stroke-dashoffset" from="26.165" to="52.33" dur="2s" repeatCount="indefinite" fill="freeze"></animate>
      </path>
      <path class="cls-50" stroke-dasharray="19.381"  d="M52.79,52.34C49.92,47.06,52.64,37,57,34.84">
        <animate attributeName="stroke-dashoffset" from="19.381" to="38.762" dur="2s" repeatCount="indefinite" fill="freeze"></animate>
      </path>
      <path  class="cls-50" d="M56.88,34.76c1.87-9.45-4.38-17.51-4.38-17.51" stroke-dasharray="18.544" >
        <animate attributeName="stroke-dashoffset" from="18.544" to="0" dur="2s" repeatCount="indefinite" fill="freeze"></animate>
      </path>
    </g>
  </g>
</svg>