<svg xmlns="http://www.w3.org/2000/svg" xmlns:xlink="http://www.w3.org/1999/xlink" viewBox="0 0 162.52 143.25">
  <defs>
    <style>.cls-1{isolation:isolate;}.cls-10,.cls-11,.cls-12,.cls-13,.cls-14,.cls-15,.cls-16,.cls-17,.cls-18,.cls-19,.cls-2,.cls-20,.cls-21,.cls-22,.cls-23,.cls-24,.cls-25,.cls-26,.cls-27,.cls-28,.cls-29,.cls-30,.cls-31,.cls-32,.cls-33,.cls-34,.cls-35,.cls-36,.cls-37,.cls-38,.cls-39,.cls-4,.cls-40,.cls-41,.cls-42,.cls-43,.cls-44,.cls-45,.cls-46,.cls-47,.cls-49,.cls-5,.cls-56,.cls-57,.cls-58,.cls-59,.cls-6,.cls-63,.cls-64,.cls-7,.cls-8,.cls-9{fill-rule:evenodd;}.cls-2{opacity:0.4;fill:url(#未命名的渐变_11);}.cls-3{opacity:0.5;mix-blend-mode:screen;}.cls-4{fill:url(#未命名的渐变_11-2);}.cls-5{fill:url(#未命名的渐变_11-3);}.cls-6{fill:url(#未命名的渐变_11-4);}.cls-7{fill:url(#未命名的渐变_11-5);}.cls-8{fill:url(#未命名的渐变_11-6);}.cls-9{fill:url(#未命名的渐变_11-7);}.cls-10{fill:url(#未命名的渐变_11-8);}.cls-11{fill:url(#未命名的渐变_11-9);}.cls-12{fill:url(#未命名的渐变_11-10);}.cls-13{fill:url(#未命名的渐变_11-11);}.cls-14{fill:url(#未命名的渐变_11-12);}.cls-15{fill:url(#未命名的渐变_11-13);}.cls-16{fill:url(#未命名的渐变_11-14);}.cls-17{fill:url(#未命名的渐变_11-15);}.cls-18{fill:url(#未命名的渐变_11-16);}.cls-19{fill:url(#未命名的渐变_11-17);}.cls-20{fill:url(#未命名的渐变_11-18);}.cls-21{fill:url(#未命名的渐变_11-19);}.cls-22{fill:url(#未命名的渐变_11-20);}.cls-23{fill:url(#未命名的渐变_11-21);}.cls-24{fill:url(#未命名的渐变_11-22);}.cls-25{fill:url(#未命名的渐变_11-23);}.cls-26{fill:url(#未命名的渐变_11-24);}.cls-27{fill:url(#未命名的渐变_11-25);}.cls-28{fill:url(#未命名的渐变_11-26);}.cls-29{fill:url(#未命名的渐变_11-27);}.cls-30{fill:url(#未命名的渐变_11-28);}.cls-31{fill:url(#未命名的渐变_11-29);}.cls-32{fill:url(#未命名的渐变_11-30);}.cls-33{fill:url(#未命名的渐变_11-31);}.cls-34{fill:url(#未命名的渐变_11-32);}.cls-35{fill:url(#未命名的渐变_11-33);}.cls-36{fill:url(#未命名的渐变_11-34);}.cls-37{fill:url(#未命名的渐变_11-35);}.cls-38{fill:url(#未命名的渐变_11-36);}.cls-39{fill:url(#未命名的渐变_11-37);}.cls-40{fill:url(#未命名的渐变_11-38);}.cls-41{fill:url(#未命名的渐变_11-39);}.cls-42{fill:url(#未命名的渐变_11-40);}.cls-43{fill:url(#未命名的渐变_11-41);}.cls-44{fill:url(#未命名的渐变_11-42);}.cls-45{fill:url(#未命名的渐变_11-43);}.cls-46{fill:url(#未命名的渐变_11-44);}.cls-47{fill:url(#未命名的渐变_11-45);}.cls-48{fill:url(#未命名的渐变_200);}.cls-49{fill:url(#未命名的渐变_88);}.cls-50{fill:url(#未命名的渐变_201);}.cls-51{fill:url(#未命名的渐变_201-2);}.cls-52{fill:url(#未命名的渐变_201-3);}.cls-53{fill:url(#未命名的渐变_201-4);}.cls-54{fill:url(#未命名的渐变_201-5);}.cls-55{fill:url(#未命名的渐变_201-6);}.cls-56{fill:url(#未命名的渐变_201-7);}.cls-57{fill:url(#未命名的渐变_201-8);}.cls-58{fill:url(#未命名的渐变_201-9);}.cls-59{fill:url(#未命名的渐变_201-10);}.cls-60{fill:url(#未命名的渐变_78);}.cls-61{fill:url(#未命名的渐变_78-2);}.cls-62{fill:url(#未命名的渐变_78-3);}.cls-63{fill:url(#未命名的渐变_78-4);}.cls-64,.cls-65{fill:none;stroke:#fff;stroke-miterlimit:10;stroke-width:0.07px;}</style>
    <linearGradient id="未命名的渐变_11" x1="5.93" y1="63.02" x2="117.09" y2="63.02" gradientUnits="userSpaceOnUse">
      <stop offset="0" stop-color="#00dcff"/>
      <stop offset="1" stop-color="#0f58d6"/>
    </linearGradient>
    <linearGradient id="未命名的渐变_11-2" x1="101.59" y1="130.03" x2="110.02" y2="130.03" xlink:href="#未命名的渐变_11"/>
    <linearGradient id="未命名的渐变_11-3" x1="140.56" y1="109.78" x2="146.1" y2="109.78" xlink:href="#未命名的渐变_11"/>
    <linearGradient id="未命名的渐变_11-4" x1="119.54" y1="117.71" x2="120.16" y2="117.71" xlink:href="#未命名的渐变_11"/>
    <linearGradient id="未命名的渐变_11-5" x1="129.74" y1="122.63" x2="130.36" y2="122.63" xlink:href="#未命名的渐变_11"/>
    <linearGradient id="未命名的渐变_11-6" x1="102.86" y1="123.03" x2="103.4" y2="123.03" xlink:href="#未命名的渐变_11"/>
    <linearGradient id="未命名的渐变_11-7" x1="138.48" y1="110.7" x2="139.13" y2="110.7" xlink:href="#未命名的渐变_11"/>
    <linearGradient id="未命名的渐变_11-8" x1="154.09" y1="99.39" x2="154.62" y2="99.39" xlink:href="#未命名的渐变_11"/>
    <linearGradient id="未命名的渐变_11-9" x1="145.73" y1="115.46" x2="146.29" y2="115.46" xlink:href="#未命名的渐变_11"/>
    <linearGradient id="未命名的渐变_11-10" x1="145.4" y1="113.3" x2="145.94" y2="113.3" xlink:href="#未命名的渐变_11"/>
    <linearGradient id="未命名的渐变_11-11" x1="150.48" y1="100.58" x2="151.01" y2="100.58" xlink:href="#未命名的渐变_11"/>
    <linearGradient id="未命名的渐变_11-12" x1="150.97" y1="99.83" x2="151.5" y2="99.83" xlink:href="#未命名的渐变_11"/>
    <linearGradient id="未命名的渐变_11-13" x1="126.64" y1="121.45" x2="127.26" y2="121.45" xlink:href="#未命名的渐变_11"/>
    <linearGradient id="未命名的渐变_11-14" x1="126.64" y1="122.28" x2="127.27" y2="122.28" xlink:href="#未命名的渐变_11"/>
    <linearGradient id="未命名的渐变_11-15" x1="123.19" y1="142.07" x2="123.81" y2="142.07" xlink:href="#未命名的渐变_11"/>
    <linearGradient id="未命名的渐变_11-16" x1="122.52" y1="139.88" x2="123.15" y2="139.88" xlink:href="#未命名的渐变_11"/>
    <linearGradient id="未命名的渐变_11-17" x1="120.71" y1="140.88" x2="121.34" y2="140.88" xlink:href="#未命名的渐变_11"/>
    <linearGradient id="未命名的渐变_11-18" x1="114.73" y1="137.58" x2="115.35" y2="137.58" xlink:href="#未命名的渐变_11"/>
    <linearGradient id="未命名的渐变_11-19" x1="116.5" y1="138.92" x2="117.12" y2="138.92" xlink:href="#未命名的渐变_11"/>
    <linearGradient id="未命名的渐变_11-20" x1="112.74" y1="139.72" x2="113.37" y2="139.72" xlink:href="#未命名的渐变_11"/>
    <linearGradient id="未命名的渐变_11-21" x1="115.84" y1="141.19" x2="116.46" y2="141.19" xlink:href="#未命名的渐变_11"/>
    <linearGradient id="未命名的渐变_11-22" x1="111.23" y1="142.45" x2="111.85" y2="142.45" xlink:href="#未命名的渐变_11"/>
    <linearGradient id="未命名的渐变_11-23" x1="121.12" y1="142.94" x2="121.74" y2="142.94" xlink:href="#未命名的渐变_11"/>
    <linearGradient id="未命名的渐变_11-24" x1="124" y1="140.47" x2="124.63" y2="140.47" xlink:href="#未命名的渐变_11"/>
    <linearGradient id="未命名的渐变_11-25" x1="114.96" y1="138.2" x2="115.58" y2="138.2" xlink:href="#未命名的渐变_11"/>
    <linearGradient id="未命名的渐变_11-26" x1="138.29" y1="111.6" x2="138.82" y2="111.6" xlink:href="#未命名的渐变_11"/>
    <linearGradient id="未命名的渐变_11-27" x1="138.06" y1="112.33" x2="138.59" y2="112.33" xlink:href="#未命名的渐变_11"/>
    <linearGradient id="未命名的渐变_11-28" x1="145.99" y1="102.32" x2="146.53" y2="102.32" xlink:href="#未命名的渐变_11"/>
    <linearGradient id="未命名的渐变_11-29" x1="145.84" y1="101.78" x2="146.37" y2="101.78" xlink:href="#未命名的渐变_11"/>
    <linearGradient id="未命名的渐变_11-30" x1="140.83" y1="52.56" x2="141.33" y2="52.56" xlink:href="#未命名的渐变_11"/>
    <linearGradient id="未命名的渐变_11-31" x1="107.79" y1="122.56" x2="108.38" y2="122.56" xlink:href="#未命名的渐变_11"/>
    <linearGradient id="未命名的渐变_11-32" x1="115.01" y1="120.24" x2="115.38" y2="120.24" xlink:href="#未命名的渐变_11"/>
    <linearGradient id="未命名的渐变_11-33" x1="115.56" y1="120.13" x2="116" y2="120.13" xlink:href="#未命名的渐变_11"/>
    <linearGradient id="未命名的渐变_11-34" x1="129.76" y1="112.24" x2="130.43" y2="112.24" xlink:href="#未命名的渐变_11"/>
    <linearGradient id="未命名的渐变_11-35" x1="134.07" y1="107.93" x2="134.58" y2="107.93" xlink:href="#未命名的渐变_11"/>
    <linearGradient id="未命名的渐变_11-36" x1="138.2" y1="103.36" x2="138.86" y2="103.36" xlink:href="#未命名的渐变_11"/>
    <linearGradient id="未命名的渐变_11-37" x1="141.45" y1="80.9" x2="141.98" y2="80.9" xlink:href="#未命名的渐变_11"/>
    <linearGradient id="未命名的渐变_11-38" x1="139.84" y1="80.09" x2="142.26" y2="80.09" xlink:href="#未命名的渐变_11"/>
    <linearGradient id="未命名的渐变_11-39" x1="143.6" y1="84.61" x2="144.06" y2="84.61" xlink:href="#未命名的渐变_11"/>
    <linearGradient id="未命名的渐变_11-40" x1="144.01" y1="83.95" x2="144.52" y2="83.95" xlink:href="#未命名的渐变_11"/>
    <linearGradient id="未命名的渐变_11-41" x1="143.12" y1="85.5" x2="144.53" y2="85.5" xlink:href="#未命名的渐变_11"/>
    <linearGradient id="未命名的渐变_11-42" x1="141.79" y1="93.08" x2="142.39" y2="93.08" xlink:href="#未命名的渐变_11"/>
    <linearGradient id="未命名的渐变_11-43" x1="144.66" y1="85.84" x2="144.9" y2="85.84" xlink:href="#未命名的渐变_11"/>
    <linearGradient id="未命名的渐变_11-44" x1="144.22" y1="84.65" x2="144.59" y2="84.65" xlink:href="#未命名的渐变_11"/>
    <linearGradient id="未命名的渐变_11-45" x1="143.82" y1="86.7" x2="144.27" y2="86.7" xlink:href="#未命名的渐变_11"/>
    <linearGradient id="未命名的渐变_200" x1="0.04" y1="66.9" x2="162.49" y2="66.9" gradientUnits="userSpaceOnUse">
      <stop offset="0" stop-color="#80edff"/>
      <stop offset="1" stop-color="#00dcff"/>
    </linearGradient>
    <linearGradient id="未命名的渐变_88" x1="119.54" y1="117.42" x2="121.11" y2="117.42" gradientUnits="userSpaceOnUse">
      <stop offset="0" stop-color="#0b78e0"/>
      <stop offset="1" stop-color="#03c1f7"/>
    </linearGradient>
    <linearGradient id="未命名的渐变_201" x1="107.79" y1="122.56" x2="108.38" y2="122.56" gradientUnits="userSpaceOnUse">
      <stop offset="0" stop-color="#00dcff"/>
      <stop offset="1" stop-color="#0b78e0"/>
    </linearGradient>
    <linearGradient id="未命名的渐变_201-2" x1="115.01" y1="120.24" x2="115.38" y2="120.24" xlink:href="#未命名的渐变_201"/>
    <linearGradient id="未命名的渐变_201-3" x1="131.3" y1="110.96" x2="131.4" y2="110.96" xlink:href="#未命名的渐变_201"/>
    <linearGradient id="未命名的渐变_201-4" x1="105.15" y1="115.91" x2="130.83" y2="115.91" xlink:href="#未命名的渐变_201"/>
    <linearGradient id="未命名的渐变_201-5" x1="115.56" y1="120.13" x2="116" y2="120.13" xlink:href="#未命名的渐变_201"/>
    <linearGradient id="未命名的渐变_201-6" x1="129.76" y1="112.24" x2="130.43" y2="112.24" xlink:href="#未命名的渐变_201"/>
    <linearGradient id="未命名的渐变_201-7" x1="127.84" y1="45.26" x2="146.67" y2="45.26" xlink:href="#未命名的渐变_201"/>
    <linearGradient id="未命名的渐变_201-8" x1="140.83" y1="52.56" x2="141.33" y2="52.56" xlink:href="#未命名的渐变_201"/>
    <linearGradient id="未命名的渐变_201-9" x1="138.84" y1="36.49" x2="139.08" y2="36.49" xlink:href="#未命名的渐变_201"/>
    <linearGradient id="未命名的渐变_201-10" x1="118.73" y1="70.69" x2="142.08" y2="70.69" xlink:href="#未命名的渐变_201"/>
    <linearGradient id="未命名的渐变_78" x1="141.45" y1="80.9" x2="141.98" y2="80.9" gradientUnits="userSpaceOnUse">
      <stop offset="0" stop-color="#003383"/>
      <stop offset="1" stop-color="#0f58d6"/>
    </linearGradient>
    <linearGradient id="未命名的渐变_78-2" x1="139.84" y1="80.09" x2="142.26" y2="80.09" xlink:href="#未命名的渐变_78"/>
    <linearGradient id="未命名的渐变_78-3" x1="139.17" y1="82.09" x2="142.56" y2="82.09" xlink:href="#未命名的渐变_78"/>
    <linearGradient id="未命名的渐变_78-4" x1="118.67" y1="50.95" x2="124.18" y2="50.95" xlink:href="#未命名的渐变_78"/>
  </defs>
  <g class="cls-1">
    <g id="图层_2" data-name="图层 2">
      <g id="图层_10" data-name="图层 10">
        <path id="bk" class="cls-2" d="M132.06,68.52a.37.37,0,0,0,.24,0c.24,0,.12-.27.11-.59s.07-.36.21-.45.14-.7.24-.89.21-.15.38-.15.54-.48.76-.66a5.66,5.66,0,0,0,.62-.91c.11-.17-.34-.41-.51-.47s-.13-.06-.09-.22.14-.08.36,0,.13,0,.13-.21.22.08.2.21,0,.17.09.41.56-.22.77-.3.18-.33.15-.59a.93.93,0,0,1,.11-.67c.12-.13.16.07.19.28s.38-.42.49-.51-.11-.12-.26-.19-.06-.11-.4,0-.08-.1,0-.22.28,0,.48.06.46-.4.81-.56.34-.29.46-.55.18,0,.16.21.36-.12.4-.29.3-.31.49-.45.14,0,.14-.26.22,0,.29.19.24-.1.31-.31.1-.09.16.05.16.22.14.31.52,0,.67-.06.29-.67.08-.64-.28,0-.2-.15a1.2,1.2,0,0,1,.34-.38c.16-.14,0-.19-.12-.36s0-.24.24-.41-.34-.12-.49-.12-.13-.07-.45.15-.41-.13-.63-.33-.45.12-.48.28-.18.14-.27.13-.59.17-1,.22-.46-.41-.38-.46-.05-.09-.18-.17-.24,0-.21,0,.2,0,0,.17-.45-.41-.63-.3-.43-.19-.73-.28-1.31.49-1.64.66-.22.24,0,.23.12,0,0,.26a3,3,0,0,1-.93.74c-.22.15-.1.19,0,.32s-.31.51-.54.61-.12.12-.45.11a1.48,1.48,0,0,0-.79.09c-.28.11-.3.05-.41-.11s-.25-.18-.69-.42-.05-.24,0-.47a1.7,1.7,0,0,1,.08-.77c.13-.22.11-.18-.16-.35s-.07-.12,0-.29a1.06,1.06,0,0,0-.3-.81c-.27-.34-.46-.24-.47-.07s-.25.23-.46.45-.2,0-.28-.3-.86.27-.91.46a.24.24,0,0,1-.34.17c-.17-.06-.13-.19-.11-.33s-.35-.48-.62-.53l-.3-.08a.35.35,0,0,1,.1-.12c.15-.15.05-.13-.21-.38a1.53,1.53,0,0,1-.32-.53,2.57,2.57,0,0,1-.16-.65,1.47,1.47,0,0,1,.15-1c.15-.11,0-.15,0-.3s.2-.27.46-.54a.25.25,0,0,1,.21-.09v0h0l.07,0c.15,0,.4.29.63.47s.73-.12.9-.33.14-.09.41,0,.38-.16.75-.25.79-.73.89-.89a.31.31,0,0,0-.08-.46c-.2-.17.13-.4.18-.64s.1-.26.31-.3.17-.12.19-.28.11-.15.32-.26.26-.16.5-.32l0-.06c.54-.35,1.21-.84,1.25-.87s.28.08.41-.53.27-.58.46-1a1,1,0,0,1,.49-.58c.2-.16.15-.13.06-.23s0,0-.08-.23.18-.09.26-.26.1-.17.47-.3.77.06,1.08-.08.2-.26.2-.46.28-.13.43,0,.19.39.16.62.56.41.69.62a4.69,4.69,0,0,0,.6.59c.12.12,0,.25-.15.28s-.2.34-.24.53,0,.29-.1.37-.11,0-.12.18,0,.12-.17.21-.45.62-.56.63-.3.2-.53.43,0,.39.1.46.1.1-.21.25-.28.15-.33.25,0,.22.15.19.66,0,.48,0-.45.08-.45.23,0,.33.09.23.12-.27.19-.12,0,.17.17.12a.58.58,0,0,1,.28,0c.1,0,.2,0,.16,0l.45-.16c.47-.17.42,0,.25.11s-.32.28-.54.46-.11.37.08.46.05.16-.19.33-.26.11-.43.08-.15,0-.18.18-.25.17-.52.31,0,.45.07.63.33,0,.42-.1a5.26,5.26,0,0,1,1.19-.51c.23-.1.06-.24-.14-.31s-.07-.14.1-.23.15,0,.36.16.35-.33.53-.58a4.17,4.17,0,0,0,.32-.65c.09-.15.14-.06,0-.17s.11-.28.19-.42.08-.09.34-.16.77-.68.94-.84a10.06,10.06,0,0,1,1-.4c.16-.11.08-.15,0-.29s0-.22.21-.22.21.1.38.14.71-.53.84-.49.18-.11.26-.24.16-.07.26.05.33,0,.54-.05.13-.27.31-.35a.13.13,0,0,1,.12,0c.05-.23.14-.66.17-.76a1.07,1.07,0,0,1,.23-.55c.17-.18.4-1,.6-1s.48-.08.43-.25,0-.25.37-.5.35-.33.48-.3.12,0,.15-.16.13-.35.3-.37.3-.08.3-.25a1.79,1.79,0,0,0,0-.21c.15-.09.33-.19.46-.25.29-.12.36-.45.43-.62a9.32,9.32,0,0,1,.64-1.33c.19-.24.22-1.21.36-1.48a.7.7,0,0,1,.5-.42c.31-.12.43,0,.43,0L150,41a2.11,2.11,0,0,0,.83,0c.24-.09.34,0,.53.1s.28.09.62-.17.47-.14.71-.07.21-.4.29-.55,0-.4-.29-.64a.78.78,0,0,1-.36-.74c0-.31.12-.4.48-.52s1-.28,1.35-.45.62-1.1.62-1.5.5-.28.79-.28.28-.69.26-1a2.08,2.08,0,0,1,0-.78.72.72,0,0,0,0-.48c0-.14-.08-.23.19-.07s.26.07.42,0,.1.19.29.26a1.06,1.06,0,0,1,.5.57c0,.17.59.43.59.43a1,1,0,0,1,.34.07c.16.07,0-.45-.41-.69s.88-.71,1.14-1,.07-2.07.07-2.07l-.23-.14h0l0,0a3.48,3.48,0,0,0-.2-.5,5.88,5.88,0,0,1-.25-1.59,7.83,7.83,0,0,0-1.11-2.09c-.46-.73-.39-.64-.05-.87a5.93,5.93,0,0,0,1.07-1.59c.29-.52,1.07,0,1.07,0a8.75,8.75,0,0,0,2.15.05c.5-.16.28-.79.16-1.5s.25-.7.34-.91,0-.34-.11-.61.18-.57.27-.75a1,1,0,0,0,0-.68.85.85,0,0,1,.14-.61.53.53,0,0,0,0-.3.76.76,0,0,1,0-.29c0-.19-.06-.14-.27-.25s0-.3.09-.59a.86.86,0,0,0-.13-.73,2,2,0,0,1,.09-1.05c.09-.22,0-.45-.21-.72s.14-.57.3-.73a4.1,4.1,0,0,0,.47-1c.16-.38-.31-.75-.61-.95s-.18-.37-.11-.57-.06-.43-.06-.59.7-.78.67-.91,0-.41-.11-.32-.45.66-.59.7a3.13,3.13,0,0,1-.38.1,2.85,2.85,0,0,1-.4,0A9.28,9.28,0,0,0,159,13.09c-.25.43-.93.41-1,.52s-.29.46-.41.61a3.13,3.13,0,0,0-.36.89.36.36,0,0,1-.46.32c-.2-.07-.52.27-.59.43s-.36.25-.72.27-.16.14-.64,0-.7.23-1,.44-.82-.16-1.21-.71a1.8,1.8,0,0,1-.38-1.16,1.5,1.5,0,0,0-.78-1c-.31-.06-.22-.4-.29-.77s-.52-.11-1.07-.07-.48-.52-.54-.65-.39-.21-.39-.21a1.54,1.54,0,0,0-.59-.38c-.25-.05-.23-.19-.45-.37s-.14.12-.48.34a.49.49,0,0,1-.61,0,1,1,0,0,0-.41-.05c-.23,0-.14,0-.39-.2s-.27.11-.95.3a3.73,3.73,0,0,1-1.12.09c-.43,0-.61-.39-1-.66S143,10.3,143,10s-.23-.35-.54-.37-.64-1.2-.64-1.36-.21-.16-.93-.82-.61-1-.61-1l-.25-.3a2.87,2.87,0,0,0-.48-.66c-.18-.11-.18-.2-.16-.41s-.36-.38-.59-.54a.87.87,0,0,1-.36-.7c0-.21,0-.25-.28-.32s-.11-.25-.07-.37-.72-.77-1.13-.84-.09-.25,0-.54-.25-.16-.39-.3a.39.39,0,0,0-.45-.09c-.16.07-.28-.36-.28-.36s-.54-.27-.86-.39a1.22,1.22,0,0,0-1,.16c-.21.18-.16.21-.61.16a1.77,1.77,0,0,1-.89-.45,3.25,3.25,0,0,0-1.2-.28c-.48,0-.46.1-.59-.06s-1,.18-1.3.29a6.17,6.17,0,0,1-1.5.37,4.45,4.45,0,0,0-1.56.9h0a.69.69,0,0,0-.3.1,1,1,0,0,1-.74.16c-.37,0-.86,1-.86,1A5.34,5.34,0,0,1,123.74,4c-.23.2-.2.38-.22.77s.25.18.49,0a1,1,0,0,1,.86,0c.29.09.28.28.06.49s-.06.25.13.32.24.19.38.57-.58,1.37-.58,1.37-.57.76-.74,1a2.8,2.8,0,0,0-.34,1.18,2.41,2.41,0,0,1-.12,1.07,2.29,2.29,0,0,0-.23.88,2.5,2.5,0,0,1-.28,1c-.14.24-.19.57,0,.67s.19.24.24.67-.53.81-1,.91-1.77,1.57-2,1.81-.71.05-1,0a2.38,2.38,0,0,0-1-.24,1.87,1.87,0,0,1-1-.29l-1.1,3.35s-.38,2-.57,2.62c-.05.17-.38.29-.49.37s.24.86.66,1.12.58.28,1,.1c.11-.05.37-.23.52-.28a3,3,0,0,1,2.33.22c.81.43,1.19-.52,1.72-1.24s1.91.29,2.2.58c.12.12.47.27.78.49.13.1.18.28.34.36s.4.08.59.16.29.24.4.3a2.42,2.42,0,0,1,1,2.08c-.07.7-1.36.52-2,.38s.58.14-1.19.24-1.58.86-2,.81-.81.19-.76.58-.39.38-1.1.33-1.44,1.53-1.39,1.86-.14.82-1.19,1.63a3,3,0,0,1-2.35.53c-.33,0-.67,0-1.24,1a4,4,0,0,1-2,1.67c-.62.29-2.77-.38-2.77-.38a6.6,6.6,0,0,0-1-.38c-.67-.19-1.24,1.62-1.48,2.15s.19,1.1.86,1.77.72.62.38,1.24a1.8,1.8,0,0,1-1.34,1,2.92,2.92,0,0,0-1.53,1.68c-.24.62-1.48,1.33-1.48,1.33s-1.29.72-1.91,1a24.72,24.72,0,0,1-5,.24,4.53,4.53,0,0,0-2.53.81c-.48.34-3.83,1.39-4.21,1.77s-.57.33-1.15.29-.76-.24-.76-.58-.24-.19-1.48-.09a4,4,0,0,1-2.87-1.05c-.48-.48-1.15-.29-1.77-.29s-.67-.19-1-.77-2.59-1-3.35-1.29-1.53,0-2.77.2a6.59,6.59,0,0,1-3.25-.39,35.91,35.91,0,0,0-3.64-.67h0c0-.06-.12,0-.46-.07s-1.13-.15-1.72-.21c0-.06,0-.13-.08-.24a1.84,1.84,0,0,0-.68-1c-.37-.2-.65-1.91-.71-2.28a4.47,4.47,0,0,0-.74-1.39c-.26-.34-.2-.25-.09-.62s-.39-.29-1-.37-.74-.66-1.39-1.28a25.89,25.89,0,0,0-2.93-2l-1.59-.09a3.38,3.38,0,0,0-.71-.34,10.31,10.31,0,0,1-1.42-.31,3.42,3.42,0,0,0-.63-.25.75.75,0,0,1-.42-.12,3.42,3.42,0,0,0-.63-.25C52,32,51.9,31.61,51.56,31s.45-1.28.8-1.74a1.91,1.91,0,0,0,.19-1.3,1,1,0,0,1,.29-.63c.17-.2.06-.31.11-.79a5.14,5.14,0,0,0-.65-1.88,3.54,3.54,0,0,1-.23-1.39c0-.2-.17-.46-.34-.66a.78.78,0,0,1-.23-.48c0-.25-.34-.11-.54,0s-.45-.14-.51-.48-.37-.26-.68-.37a9.41,9.41,0,0,1-1-.43c-.31-.17-.85-.77-.79-1.05s-.71-.71-.94-.88a.43.43,0,0,1-.11-.65c.17-.29,0-.37-.32-.74s.26-.71.37-1-.37-.31-.82-.34-.14,0-.58-.14l-.87-.22c-.16.41-.6-.41-.51.79S42.89,18,41.58,18.09s-1.3,2.27-1.36,3.43c0,.83-.53,1-1.38,1.22-.13,0-.39.5-.56.64s-.19-.22-.29-.22-.26-.49-.44-.5a5.91,5.91,0,0,1-3.24-1.45c-.43-.28-.63-.2-.63-.2s-2.81,4.24-3.12,4.72.11,1.16.2,1.31,0,.45-.23.45a4,4,0,0,1-1.48-.68c-.23-.23-1.79-.11-2-.14s-2,0-2.92.14-.6.68-.06.88.08,1.53.06,2-.12,3.69-.15,4-.56.39-.56.39a.78.78,0,0,1-.22.52c-.19.15-.56.11-.84.11-.07,0-.18-.12-.23-.08-.38.25-.23,1.45-.28,2.07s-.94.68-.94.68-3.58.6-4.54.71a3,3,0,0,0-1.44.57c-.32.14-.42-.36-.6-.34s-.21.13-.51.36a.58.58,0,0,1-.72.08,12.39,12.39,0,0,1-1.25-.47.83.83,0,0,0-.83.09c-.19.11-.9,1.25-1.13,1.45a.57.57,0,0,1-.66.14,4.23,4.23,0,0,0-1.5-.17c-.48,0-.34-.54-.23-.86s-.31-.37-.6-.28a1.7,1.7,0,0,1-1.08-.06c-.37-.14-.34-.17-.42,0s-.09.29-.29.2-.56.12-.93.29A2,2,0,0,1,2.83,39c-.34-.15-1.1,1.57-1.16,1.71s-.43,0-.88.14c-.07,0-.13.14-.2.15-.54.15.08,1.36.07,1.47s-.38.36-.46.62-.33.13,0,.82.76.46,1.28.32.74.37,1.08.82c.21.29,0,.45-.07.68l-.17.46a.76.76,0,0,0,.11.85c.21.2,0,.28-.22.85-.13.3-.37.35-.45.58s.38.81.36,1a.69.69,0,0,1-.23.22c-.38.13-.62-.08-1.19,0s-.15.9.22,1a3,3,0,0,1,1.49,1.25c.12.42.4.51.8.74a1.76,1.76,0,0,1,.34,1.73c-.23.28-.11.4.23,1.17s.4.48.94.51.31.25.59,1,2.11,1.37,2.84,1.65.69.29.4.51-.11.86-.08,1.2a4.42,4.42,0,0,1,.08,1,3.39,3.39,0,0,0,.14,1l1.57,1.28.14,0a1.31,1.31,0,0,1-1.14.7c-.57.07-.22.44-.13.75a1.29,1.29,0,0,1-.16.91,2.18,2.18,0,0,0,.29,1.5,8.64,8.64,0,0,1,.37,2.19,1.18,1.18,0,0,1-.81,1.13c-.63.25-.82-.63-.94-1s-.19-.16-.69-.13-.44.69-.44,1.16a3.74,3.74,0,0,0,.32,1.4c.15.35.06.41-.07.69a6.57,6.57,0,0,0,.38,2.13c.19.69.19,1.09.88,1.16a2.3,2.3,0,0,1,1.46,1c.16.25,1.88,2.16,2.26,2.51s.81,1.18,1.09,1.47.35-.22.63-.41A2.38,2.38,0,0,1,15,80.31c.56,0,1.12.69,1.19,1.06s1.18,1.31,1.53,1.47S18.58,84,19,84.37s.53,1.16.88,1.53.75-.09,1.41.1.46,1,.53,1.37A5.87,5.87,0,0,0,24,89.22c.5.12.44.12.38.66s.91.68,1.47.75.75.56.91,1.12.34.63.65.25.32-.22.41.22.66.34.84.06.88.38,1.47.75a8,8,0,0,0,2.35.72c.31,0,.66-.18.87-.18s1.44-.07,2.38-.19.22,1.56.16,2.16a.86.86,0,0,0,.75.9c.22,0,.31-1,.53-1.37a13.26,13.26,0,0,1,2.31-1.66c.44-.25,3.16,1.19,3.44,1.53s.85-.28,1.29-.25.59,1,.65,1.53a1,1,0,0,0,1,.94c.66.06.5.38.53,1.16s.13.81.66,1.06a28.93,28.93,0,0,0,4.66.19c.56,0,1.47-1.56,1.72-1.78a18.15,18.15,0,0,1,2.91-.88,4.25,4.25,0,0,0,1.47-1.19,1.6,1.6,0,0,1,1.44-.15,3.81,3.81,0,0,0,1.06.34c.6.13.78.47,1.16.6a6.42,6.42,0,0,1,1.31,1.18l1.06-.25.07-1.25a1.3,1.3,0,0,0,.53-.56c.25-.44,1.16.25,1.16.25a3.81,3.81,0,0,0,.67.84,6.26,6.26,0,0,1,.16.8,2.37,2.37,0,0,0,.34,1c.17.2.37-.27.84-.24s.44,1.55.44,2.53v2.64c0,.34-.1.57-.37.67s0,.58.1.85-.1.37-.4.3-.41.27-.58.61-.27.13-.64,0-.23.4-.2.67-.81.75-.81.75-.44,0-.61.13,0,1.22-.47,1.39-.1,1.14.13,1.55-.2.71-.3,1.25.47.34.91.07a3.78,3.78,0,0,1,2.2-.14c1.14.1.81.37.6.61s-.23.4-.06.57a5.4,5.4,0,0,1,.71,2.1c0,.6.47.54,1.31.5s.71.34.71.51-.47.27-.67.57a9.44,9.44,0,0,0-.61,2.16c-.07.48,1.32.54,1.89.54s.74.31.74.54.27.54.85,1.19,1,.27,1.45.4,1.28-.67,1.72-.88.41.51.41.75a9,9,0,0,1,0,1c0,.33.27.37.64.3a2,2,0,0,1,1,.13c.54.14.34-.33.23-.54a1.7,1.7,0,0,1,0-.81,1.1,1.1,0,0,0-.13-.81,5.12,5.12,0,0,1-.58-1.58c-.13-.68.55-.68,1.66-.68s1.43-.23,1.64-.63.45-.18,1.13.29,1-.17,1.32-.5.71-.37.91,0,.61-.31.61-.31l1.29,1.09.27-.89c0-.08.39-.16.6.07s.47-.16.47-.16a3.56,3.56,0,0,1,.74-.14c.41,0,.54-.61.44-.84s.61-.54,1.22-.85a1.62,1.62,0,0,1,1.48.09l-.08.1a9.48,9.48,0,0,0,1.15.87,11.91,11.91,0,0,0,2.27.18c.7,0,.51.62.15,1.06s-.1,1-.1,1.68.72.44.85.41a3.51,3.51,0,0,1,1.6,1.08c.49.62,1.19.31,1.5.31a4.46,4.46,0,0,1,1.09.35l.15.08a1.31,1.31,0,0,0,.11-.34c0-.12,0-.12.18,0s.15.14.3.1.21-.16.22-.39.36,0,.55.1.23.06.4-.21-.16-.44-.34-.6.14-.17.23-.35.13.25.24.56.13.42.43.41.18-.13.12-.45.19.09.31.38.62.42.77.45.06.14-.08.28-.11.19.12.28a3.21,3.21,0,0,0,1.4-.33.31.31,0,0,0-.09-.48c-.18-.07,0-.17,0-.17a1.05,1.05,0,0,1,.31-.33c.16-.06.08.08-.07.22s.19.16.15.36,0,.21.23.06.13,0,.13.26.51.17.69.2.23,0,.09.16,0,.15-.43.21-.29.75-.29,1,0,.55,0,.9.24.34.45.4.07.06-.12.28.27.58.42.62.41.19.41.39-.11.07-.34-.06-.19.14,0,.19a.55.55,0,0,1,.31.42c0,.18.35,0,.44,0a2.3,2.3,0,0,1,.7-.11c.39,0,.52-.33.69-.63s0-.35-.25-.51-.19-.55-.17-.77-.35-.3-.59-.21-.21,0-.11-.25-.07-.48-.19-.66,0-.15.08-.1.14.12.29,0,.18.08,0,.32.6.18.83.17,0-.33-.23-.4-.3-.07-.18-.18,0-.1,0-.26a5.18,5.18,0,0,0-.29-.69c-.09-.21.21.06.37.38a.45.45,0,0,0,.5.3c.18,0,.56-.58.66-.75s.59-.09.77-.12.24-.09.1-.22-.08-.13.09-.14.13.14.26.21a1,1,0,0,0,.67-.07c.24-.1,1.25-.47,1.47-.61s.2-.32.06-.44,0-.13.15-.13.16.46.2.57.44-.28.6-.41,0,0-.29-.16.38-.18.7-.21a7.13,7.13,0,0,1,.76.08c.23,0,.19-.25.09-.47a.53.53,0,0,1,0-.53c.08-.21.16-.19.13.15s.08.41.34.46.62-.27.83-.47.32-.07.35.16.14.21.42.05.13-.41,0-.59,0-.2.21-.61.2.07.29.41.7-.18.72-.39.13.13.34.32.32-.15.36-.41a14.91,14.91,0,0,0-.1-1.49c0-.26,0-.16.17-.22s-.45-.83-.53-1.21.21-.07.33.2,1,1.33,1,1.52,0,.19.15,0,.13-.16.37-.09.14.19-.07.18,0,0-.22.21,0,.23.17.19l.15-.07a2.08,2.08,0,0,0,.45.14,1.14,1.14,0,0,1,.41.15c.14,0,.2,0,.25-.06s0-.14,0-.35a.55.55,0,0,0,0-.24c-.08-.15-.18-.35,0-.47s.28-.21.45.09.23.21.47.12.08-.5-.09-.72-.1-.19.14-.18.14,0,.45-.24.07.38.14.58.65-.14.77-.28,0-.19-.14-.35,0-.17.13-.1a.65.65,0,0,0,.35.06c.24,0,.22-.29.48-.5s.07.16,0,.48.44.26.9.28.25-.47,0-.6-.13-.22,0-.19.34-.06.51,0a2.22,2.22,0,0,0,.54.26c.17,0,1.85-.88,2.14-1s.43-.72.47-1-.34-.27-.44-.52.23,0,.42,0a.64.64,0,0,0,.52-.28c.07-.15.18-.29.07-.47s-.06-.16.15-.24.12,0,.39-.07.14,0,.15.14.72-.14.72-.14a1.14,1.14,0,0,0,0-.41c0-.19-.06-.08.08-.21s.23,0,.16.06,0,.24,0,.49.27.11.32,0a.84.84,0,0,1,.16-.3c.08-.11,0-.16-.13-.2s-.11-.14-.05-.27,0-.2-.12-.32-.08-.21,0-.16a.51.51,0,0,0,.31.07c.14,0,.08.2,0,.44s.16.16.18,0a6.82,6.82,0,0,0,.24-.92c0-.23.21-.06.23.15s.22-.06.42-.53a1.09,1.09,0,0,1,.79-.61c.23-.1,0-.31-.11-.41-.44-.36-.57-.1-1-.26-.22-.08,0-.17.13-.15a1.86,1.86,0,0,1,.54,0c.34,0,.62.13.66,0s-.29-.65-.31-.89.17.07.25.31.09.19.33.08.35-.14.41-.31.09-.21.14.06.44.11.46.28.14,0,.32-.21.2-.41.3-.59-.15-.12-.43-.13-.21-.1-.26-.22,0-.16.13-.37.13.13.19.25.39-.14.61-.1.3-.2.38-.31a.5.5,0,0,0,0-.32.59.59,0,0,1-.45,0c-.17-.14,0-.21.1-.19s.05,0,.17,0-.24-.42-.32-.55.21-.12.37-.19.09.07,0,.21,0,.21.11.34c.18.33.64-.2.92-.35s0-.24-.06-.38-.17-.17-.19-.09-.2,0-.28-.12-.17-.2,0-.26.21-.2.3-.39.17-.15.2,0,.4.4.66.59.36,0,.38-.16a1.62,1.62,0,0,0-.4-.68c-.07,0-.15-.1-.27-.3s0-.08.21,0,.2-.09.29-.22,0-.32-.06-.45.09-.28.26-.55-.6-.13-.81,0-.07-.23.05-.37.48-.64.71-.72.43-.05.51-.22-.08-.22-.25-.35-.28.21-.4.31-.18,0-.15-.13-.17-.14-.26-.29,0-.1.15,0a.35.35,0,0,0,.34,0c.17,0,.19-.12.07-.22s-.11-.08-.05-.18-.07-.15-.21-.2-.25,0-.41.14-.12-.27,0-.31,0-.13-.16-.22,0-.18.06-.16l.34.11c.14,0,.14-.3.17-.42s.11-.11.11,0,0,.12.08.12.07.12,0,.26.05.11.2.21.24-.21.24-.35.08-.17.21-.17.16.12.06.21-.08.09-.06.26,0,.14-.28.24-.13.13-.08.3.52-.17.69-.28.14-.17.11-.3,0-.1.07-.23,0-.19-.27-.28-.17-.13,0-.23.2-.23.39-.25.2-.37.17-.55,0-.15.12-.11.2,0,.37-.11-.42-.32-.72-.33-.16-.16,0-.22a1,1,0,0,1,.51.06.53.53,0,0,0,.19.09l-.25-.32.5.39c.16,0,.15-.47.1-.67s0-.14.08-.14.14-.09.18-.22,0-.13-.13-.25-.11-.29,0-.32.13-.17.13-.32a.69.69,0,0,1,0-.32,4.28,4.28,0,0,1,.24-.46c.12-.22-.08-.26-.37-.37s-.14-.21,0-.17l.49,0c.23,0,.48-.72.56-.88s0-.14-.05-.33.06-.27.12-.36.23,0,.24.17.19.23.33.46.25,0,.24-.1,0-.23.17-.37.19-.1.35,0,.18.07.21-.15-.17-.36-.31-.63a1.17,1.17,0,0,0-.54-.6c-.29-.15,0-.15.33-.17s.41-.36.47-.55a.36.36,0,0,0-.15-.42c-.11-.06-.13-.31-.19-.48s-.23,0-.49,0-.23-.06-.08-.2.14,0,.1-.37.13,0,.34.13.47-.17.45-.51.06-.15.23.19.06.26.28.22.06-1,0-1.11-.11,0-.05-.33-.09-.21-.31-.18a.26.26,0,0,0-.2.38c.07.11,0,.15-.31.22s-.37.08-.37.2,0,.17-.29.15-.14-.12-.09-.29.28-.07.5-.19a.86.86,0,0,0,.43-.48c.05-.19.24-.27.37-.44s.34-.13.59-.45-.27-.16-.46-.1-.41-.1-.73-.13-.37-.11-.65-.23-.32-.3-.64-.63-.69-.13-1.1.25-.68.33-1,.55-.39-.29-.55-.54-.36-.08-.51,0a2,2,0,0,1-.48.33c-.36.21-.21-.08-.12-.18a5.27,5.27,0,0,1,.58-.49c.17-.13.73-.09,1-.11a.43.43,0,0,0,.44-.36.68.68,0,0,1,.2-.36l.79-.84h0l0,0c.08-.06.12-.11.17-.15.35-.38,1-.36,1.45-.57s0-.58-.2-1A2.34,2.34,0,0,0,141,81c-.13-.05-.73-.38-.73-.38a7.07,7.07,0,0,0-1-.48c-.54-.21-.25-.12-.6,0s-.14-.15-.14-.29-.06-.18-.39-.5-.7.12-1,.28-.49.06-.4,0,.16-.21.42-.42.22-.21.77-.27.86.53,1,.75.42-.14.68-.35.6-.11,1,0a4.34,4.34,0,0,0,1.18.29c.4,0,.21-.12,0-.55s-1.29-.78-1.67-.92-.26-.25-.12-.48-.9-.54-1.15-.63-.27-.35-.57-.63-.08-.36-.08-.36a.53.53,0,0,0,0-.28,2.26,2.26,0,0,0-.49-.75.4.4,0,0,1-.2-.3.4.4,0,0,0-.33-.35c-.25-.08-.23-.51-.28-.69s-.33-.71-.42-1-.38-.76-.64-1.38-1.18-.75-1.55-.86-.26-.26-.69,0-.3,0-.18-.12-.07-.18-.25-.24a.84.84,0,0,1-.46-.3c-.18-.18-.13-.23-.51-.11s-.21-.76-.21-1a.75.75,0,0,1,0-.2l0,0ZM65.27,42.71h0Zm1.07,54.05h0Zm59.55-39a.28.28,0,0,0,.16,0A.28.28,0,0,1,125.89,57.76Zm0-.09s0,.06,0,.08S125.85,57.71,125.86,57.67Zm0-3.75.06,0Zm20.53-9.38.06,0Z"/>
      
      </g>
    </g>
  </g>
</svg>