<svg xmlns="http://www.w3.org/2000/svg" xmlns:xlink="http://www.w3.org/1999/xlink" viewBox="0 0 162.52 143.25">
  <defs>
    <style>.cls-1{isolation:isolate;}.cls-10,.cls-11,.cls-12,.cls-13,.cls-14,.cls-15,.cls-16,.cls-17,.cls-18,.cls-19,.cls-2,.cls-20,.cls-21,.cls-22,.cls-23,.cls-24,.cls-25,.cls-26,.cls-27,.cls-28,.cls-29,.cls-30,.cls-31,.cls-32,.cls-33,.cls-34,.cls-35,.cls-36,.cls-37,.cls-38,.cls-39,.cls-4,.cls-40,.cls-41,.cls-42,.cls-43,.cls-44,.cls-45,.cls-46,.cls-47,.cls-49,.cls-5,.cls-56,.cls-57,.cls-58,.cls-59,.cls-6,.cls-63,.cls-64,.cls-7,.cls-8,.cls-9{fill-rule:evenodd;}.cls-2{opacity:0.4;fill:url(#未命名的渐变_11);}.cls-3{opacity:0.5;mix-blend-mode:screen;}.cls-4{fill:url(#未命名的渐变_11-2);}.cls-5{fill:url(#未命名的渐变_11-3);}.cls-6{fill:url(#未命名的渐变_11-4);}.cls-7{fill:url(#未命名的渐变_11-5);}.cls-8{fill:url(#未命名的渐变_11-6);}.cls-9{fill:url(#未命名的渐变_11-7);}.cls-10{fill:url(#未命名的渐变_11-8);}.cls-11{fill:url(#未命名的渐变_11-9);}.cls-12{fill:url(#未命名的渐变_11-10);}.cls-13{fill:url(#未命名的渐变_11-11);}.cls-14{fill:url(#未命名的渐变_11-12);}.cls-15{fill:url(#未命名的渐变_11-13);}.cls-16{fill:url(#未命名的渐变_11-14);}.cls-17{fill:url(#未命名的渐变_11-15);}.cls-18{fill:url(#未命名的渐变_11-16);}.cls-19{fill:url(#未命名的渐变_11-17);}.cls-20{fill:url(#未命名的渐变_11-18);}.cls-21{fill:url(#未命名的渐变_11-19);}.cls-22{fill:url(#未命名的渐变_11-20);}.cls-23{fill:url(#未命名的渐变_11-21);}.cls-24{fill:url(#未命名的渐变_11-22);}.cls-25{fill:url(#未命名的渐变_11-23);}.cls-26{fill:url(#未命名的渐变_11-24);}.cls-27{fill:url(#未命名的渐变_11-25);}.cls-28{fill:url(#未命名的渐变_11-26);}.cls-29{fill:url(#未命名的渐变_11-27);}.cls-30{fill:url(#未命名的渐变_11-28);}.cls-31{fill:url(#未命名的渐变_11-29);}.cls-32{fill:url(#未命名的渐变_11-30);}.cls-33{fill:url(#未命名的渐变_11-31);}.cls-34{fill:url(#未命名的渐变_11-32);}.cls-35{fill:url(#未命名的渐变_11-33);}.cls-36{fill:url(#未命名的渐变_11-34);}.cls-37{fill:url(#未命名的渐变_11-35);}.cls-38{fill:url(#未命名的渐变_11-36);}.cls-39{fill:url(#未命名的渐变_11-37);}.cls-40{fill:url(#未命名的渐变_11-38);}.cls-41{fill:url(#未命名的渐变_11-39);}.cls-42{fill:url(#未命名的渐变_11-40);}.cls-43{fill:url(#未命名的渐变_11-41);}.cls-44{fill:url(#未命名的渐变_11-42);}.cls-45{fill:url(#未命名的渐变_11-43);}.cls-46{fill:url(#未命名的渐变_11-44);}.cls-47{fill:url(#未命名的渐变_11-45);}.cls-48{fill:url(#未命名的渐变_200);}.cls-49{fill:url(#未命名的渐变_88);}.cls-50{fill:url(#未命名的渐变_201);}.cls-51{fill:url(#未命名的渐变_201-2);}.cls-52{fill:url(#未命名的渐变_201-3);}.cls-53{fill:url(#未命名的渐变_201-4);}.cls-54{fill:url(#未命名的渐变_201-5);}.cls-55{fill:url(#未命名的渐变_201-6);}.cls-56{fill:url(#未命名的渐变_201-7);}.cls-57{fill:url(#未命名的渐变_201-8);}.cls-58{fill:url(#未命名的渐变_201-9);}.cls-59{fill:url(#未命名的渐变_201-10);}.cls-60{fill:url(#未命名的渐变_78);}.cls-61{fill:url(#未命名的渐变_78-2);}.cls-62{fill:url(#未命名的渐变_78-3);}.cls-63{fill:url(#未命名的渐变_78-4);}.cls-64,.cls-65{fill:none;stroke:#fff;stroke-miterlimit:10;stroke-width:0.07px;}</style>
    <linearGradient id="未命名的渐变_11" x1="5.93" y1="63.02" x2="117.09" y2="63.02" gradientUnits="userSpaceOnUse">
      <stop offset="0" stop-color="#00dcff"/>
      <stop offset="1" stop-color="#0f58d6"/>
    </linearGradient>
    <linearGradient id="未命名的渐变_11-2" x1="101.59" y1="130.03" x2="110.02" y2="130.03" xlink:href="#未命名的渐变_11"/>
    <linearGradient id="未命名的渐变_11-3" x1="140.56" y1="109.78" x2="146.1" y2="109.78" xlink:href="#未命名的渐变_11"/>
    <linearGradient id="未命名的渐变_11-4" x1="119.54" y1="117.71" x2="120.16" y2="117.71" xlink:href="#未命名的渐变_11"/>
    <linearGradient id="未命名的渐变_11-5" x1="129.74" y1="122.63" x2="130.36" y2="122.63" xlink:href="#未命名的渐变_11"/>
    <linearGradient id="未命名的渐变_11-6" x1="102.86" y1="123.03" x2="103.4" y2="123.03" xlink:href="#未命名的渐变_11"/>
    <linearGradient id="未命名的渐变_11-7" x1="138.48" y1="110.7" x2="139.13" y2="110.7" xlink:href="#未命名的渐变_11"/>
    <linearGradient id="未命名的渐变_11-8" x1="154.09" y1="99.39" x2="154.62" y2="99.39" xlink:href="#未命名的渐变_11"/>
    <linearGradient id="未命名的渐变_11-9" x1="145.73" y1="115.46" x2="146.29" y2="115.46" xlink:href="#未命名的渐变_11"/>
    <linearGradient id="未命名的渐变_11-10" x1="145.4" y1="113.3" x2="145.94" y2="113.3" xlink:href="#未命名的渐变_11"/>
    <linearGradient id="未命名的渐变_11-11" x1="150.48" y1="100.58" x2="151.01" y2="100.58" xlink:href="#未命名的渐变_11"/>
    <linearGradient id="未命名的渐变_11-12" x1="150.97" y1="99.83" x2="151.5" y2="99.83" xlink:href="#未命名的渐变_11"/>
    <linearGradient id="未命名的渐变_11-13" x1="126.64" y1="121.45" x2="127.26" y2="121.45" xlink:href="#未命名的渐变_11"/>
    <linearGradient id="未命名的渐变_11-14" x1="126.64" y1="122.28" x2="127.27" y2="122.28" xlink:href="#未命名的渐变_11"/>
    <linearGradient id="未命名的渐变_11-15" x1="123.19" y1="142.07" x2="123.81" y2="142.07" xlink:href="#未命名的渐变_11"/>
    <linearGradient id="未命名的渐变_11-16" x1="122.52" y1="139.88" x2="123.15" y2="139.88" xlink:href="#未命名的渐变_11"/>
    <linearGradient id="未命名的渐变_11-17" x1="120.71" y1="140.88" x2="121.34" y2="140.88" xlink:href="#未命名的渐变_11"/>
    <linearGradient id="未命名的渐变_11-18" x1="114.73" y1="137.58" x2="115.35" y2="137.58" xlink:href="#未命名的渐变_11"/>
    <linearGradient id="未命名的渐变_11-19" x1="116.5" y1="138.92" x2="117.12" y2="138.92" xlink:href="#未命名的渐变_11"/>
    <linearGradient id="未命名的渐变_11-20" x1="112.74" y1="139.72" x2="113.37" y2="139.72" xlink:href="#未命名的渐变_11"/>
    <linearGradient id="未命名的渐变_11-21" x1="115.84" y1="141.19" x2="116.46" y2="141.19" xlink:href="#未命名的渐变_11"/>
    <linearGradient id="未命名的渐变_11-22" x1="111.23" y1="142.45" x2="111.85" y2="142.45" xlink:href="#未命名的渐变_11"/>
    <linearGradient id="未命名的渐变_11-23" x1="121.12" y1="142.94" x2="121.74" y2="142.94" xlink:href="#未命名的渐变_11"/>
    <linearGradient id="未命名的渐变_11-24" x1="124" y1="140.47" x2="124.63" y2="140.47" xlink:href="#未命名的渐变_11"/>
    <linearGradient id="未命名的渐变_11-25" x1="114.96" y1="138.2" x2="115.58" y2="138.2" xlink:href="#未命名的渐变_11"/>
    <linearGradient id="未命名的渐变_11-26" x1="138.29" y1="111.6" x2="138.82" y2="111.6" xlink:href="#未命名的渐变_11"/>
    <linearGradient id="未命名的渐变_11-27" x1="138.06" y1="112.33" x2="138.59" y2="112.33" xlink:href="#未命名的渐变_11"/>
    <linearGradient id="未命名的渐变_11-28" x1="145.99" y1="102.32" x2="146.53" y2="102.32" xlink:href="#未命名的渐变_11"/>
    <linearGradient id="未命名的渐变_11-29" x1="145.84" y1="101.78" x2="146.37" y2="101.78" xlink:href="#未命名的渐变_11"/>
    <linearGradient id="未命名的渐变_11-30" x1="140.83" y1="52.56" x2="141.33" y2="52.56" xlink:href="#未命名的渐变_11"/>
    <linearGradient id="未命名的渐变_11-31" x1="107.79" y1="122.56" x2="108.38" y2="122.56" xlink:href="#未命名的渐变_11"/>
    <linearGradient id="未命名的渐变_11-32" x1="115.01" y1="120.24" x2="115.38" y2="120.24" xlink:href="#未命名的渐变_11"/>
    <linearGradient id="未命名的渐变_11-33" x1="115.56" y1="120.13" x2="116" y2="120.13" xlink:href="#未命名的渐变_11"/>
    <linearGradient id="未命名的渐变_11-34" x1="129.76" y1="112.24" x2="130.43" y2="112.24" xlink:href="#未命名的渐变_11"/>
    <linearGradient id="未命名的渐变_11-35" x1="134.07" y1="107.93" x2="134.58" y2="107.93" xlink:href="#未命名的渐变_11"/>
    <linearGradient id="未命名的渐变_11-36" x1="138.2" y1="103.36" x2="138.86" y2="103.36" xlink:href="#未命名的渐变_11"/>
    <linearGradient id="未命名的渐变_11-37" x1="141.45" y1="80.9" x2="141.98" y2="80.9" xlink:href="#未命名的渐变_11"/>
    <linearGradient id="未命名的渐变_11-38" x1="139.84" y1="80.09" x2="142.26" y2="80.09" xlink:href="#未命名的渐变_11"/>
    <linearGradient id="未命名的渐变_11-39" x1="143.6" y1="84.61" x2="144.06" y2="84.61" xlink:href="#未命名的渐变_11"/>
    <linearGradient id="未命名的渐变_11-40" x1="144.01" y1="83.95" x2="144.52" y2="83.95" xlink:href="#未命名的渐变_11"/>
    <linearGradient id="未命名的渐变_11-41" x1="143.12" y1="85.5" x2="144.53" y2="85.5" xlink:href="#未命名的渐变_11"/>
    <linearGradient id="未命名的渐变_11-42" x1="141.79" y1="93.08" x2="142.39" y2="93.08" xlink:href="#未命名的渐变_11"/>
    <linearGradient id="未命名的渐变_11-43" x1="144.66" y1="85.84" x2="144.9" y2="85.84" xlink:href="#未命名的渐变_11"/>
    <linearGradient id="未命名的渐变_11-44" x1="144.22" y1="84.65" x2="144.59" y2="84.65" xlink:href="#未命名的渐变_11"/>
    <linearGradient id="未命名的渐变_11-45" x1="143.82" y1="86.7" x2="144.27" y2="86.7" xlink:href="#未命名的渐变_11"/>
    <linearGradient id="未命名的渐变_200" x1="0.04" y1="66.9" x2="162.49" y2="66.9" gradientUnits="userSpaceOnUse">
      <stop offset="0" stop-color="#80edff"/>
      <stop offset="1" stop-color="#00dcff"/>
    </linearGradient>
    <linearGradient id="未命名的渐变_88" x1="119.54" y1="117.42" x2="121.11" y2="117.42" gradientUnits="userSpaceOnUse">
      <stop offset="0" stop-color="#0b78e0"/>
      <stop offset="1" stop-color="#03c1f7"/>
    </linearGradient>
    <linearGradient id="未命名的渐变_201" x1="107.79" y1="122.56" x2="108.38" y2="122.56" gradientUnits="userSpaceOnUse">
      <stop offset="0" stop-color="#00dcff"/>
      <stop offset="1" stop-color="#0b78e0"/>
    </linearGradient>
    <linearGradient id="未命名的渐变_201-2" x1="115.01" y1="120.24" x2="115.38" y2="120.24" xlink:href="#未命名的渐变_201"/>
    <linearGradient id="未命名的渐变_201-3" x1="131.3" y1="110.96" x2="131.4" y2="110.96" xlink:href="#未命名的渐变_201"/>
    <linearGradient id="未命名的渐变_201-4" x1="105.15" y1="115.91" x2="130.83" y2="115.91" xlink:href="#未命名的渐变_201"/>
    <linearGradient id="未命名的渐变_201-5" x1="115.56" y1="120.13" x2="116" y2="120.13" xlink:href="#未命名的渐变_201"/>
    <linearGradient id="未命名的渐变_201-6" x1="129.76" y1="112.24" x2="130.43" y2="112.24" xlink:href="#未命名的渐变_201"/>
    <linearGradient id="未命名的渐变_201-7" x1="127.84" y1="45.26" x2="146.67" y2="45.26" xlink:href="#未命名的渐变_201"/>
    <linearGradient id="未命名的渐变_201-8" x1="140.83" y1="52.56" x2="141.33" y2="52.56" xlink:href="#未命名的渐变_201"/>
    <linearGradient id="未命名的渐变_201-9" x1="138.84" y1="36.49" x2="139.08" y2="36.49" xlink:href="#未命名的渐变_201"/>
    <linearGradient id="未命名的渐变_201-10" x1="118.73" y1="70.69" x2="142.08" y2="70.69" xlink:href="#未命名的渐变_201"/>
    <linearGradient id="未命名的渐变_78" x1="141.45" y1="80.9" x2="141.98" y2="80.9" gradientUnits="userSpaceOnUse">
      <stop offset="0" stop-color="#003383"/>
      <stop offset="1" stop-color="#0f58d6"/>
    </linearGradient>
    <linearGradient id="未命名的渐变_78-2" x1="139.84" y1="80.09" x2="142.26" y2="80.09" xlink:href="#未命名的渐变_78"/>
    <linearGradient id="未命名的渐变_78-3" x1="139.17" y1="82.09" x2="142.56" y2="82.09" xlink:href="#未命名的渐变_78"/>
    <linearGradient id="未命名的渐变_78-4" x1="118.67" y1="50.95" x2="124.18" y2="50.95" xlink:href="#未命名的渐变_78"/>
  </defs>
  <g class="cls-1">
    <g id="图层_2" data-name="图层 2">
      <g id="图层_10" data-name="图层 10"> 
        <g id="part2" >
          <path class="cls-50" d="M108.17,122.68c.1,0,.15-.06.21-.15s-.49-.1-.49-.1C107.59,122.53,108.07,122.63,108.17,122.68Z"/>
          <path class="cls-51" d="M115.2,120c-.3.4-.18.59,0,.55s.19-.19.21-.42S115.2,120,115.2,120Z"/>
          <path class="cls-52" d="M131.3,110.9s0,.09.1.11S131.3,111,131.3,110.9Z"/>
          <path class="cls-53" d="M130.76,111.6c-.3-.33-.67-.77-.85-1s-.2-.92-.25-1.21a3.41,3.41,0,0,0-.48-.91,1.26,1.26,0,0,1-.29-.34c0-.07,0-.18,0-.28l-.17-.15a1.81,1.81,0,0,0-.62.22c-.15.1-.35-.26-.52-.54s-.12-.26-.22-.33-.18.29-.26.27c-.4-.12-1.16-.15-1.32-.22s0,0,0-.07-.16.28-.22.41a1,1,0,0,0-.06,1c.07.15.16.37.09.41s-1-.43-1.22-.62-.91-.06-1.6.38a4.62,4.62,0,0,1-1.32.53c-.23.07-.41.29-.74.31a1.25,1.25,0,0,1-.79-.53c0-.12.33-.28.36-.44a2.29,2.29,0,0,1,.2-.53,1.82,1.82,0,0,1,.55-.58c.5-.41.35,0,.54-.52a.55.55,0,0,0-.62-.69,3.92,3.92,0,0,0-1,.36c-.32.19-.53,0-.72-.65l-.41.17c-.13.07-.2.24-.32.28a2.41,2.41,0,0,1-.92.16c-.31-.06-.46-.32-.67-.41a.84.84,0,0,0-.58-.07c-.14.08-.26.32-.42.48s-.36.11-.43.13c-.28.1-.17.28,0,.34s.19-.05.26,0,.08.56.13.83c0,.09.12.27.09.33s-.31.21-.57.21-.34-.59-.6-.81-.4-.08-.66-.12a4.16,4.16,0,0,0-.58-.1c-.31.06-.47,0-.47.2a4.68,4.68,0,0,1-.14.61c0,.11.15.3.14.4s-.12.21-.22.32-.22.26-.41.22h-.08l.05.19c0,.12-.09.23-.06.35.08.31.36.49.39.6a.7.7,0,0,1,0,.51c0,.11-.3.1-.37.18a.67.67,0,0,0-.11.51c0,.16.14.25.17.37s0,.33-.3.62c-.1.1-.37.09-.51.22s0,.39-.09.56-.48.19-.5.28-.15.33-.21.57a4.15,4.15,0,0,0-.06.87,5.27,5.27,0,0,1,.12.76,1.2,1.2,0,0,1-.14.5c-.12.17-.34.46-.52.52a3,3,0,0,0-.56.36,4.86,4.86,0,0,1-.66.3c-.28.12-.26.13-.29.48,0,.07-.07.27,0,.37s.2.18.13.31a1.43,1.43,0,0,1-.94.48c-.42,0-.48.09-.41.45a1.21,1.21,0,0,1,0,.57c-.07.1-.27,0-.45,0-.38.09-.93-.09-1.12.39s-.08.43-.26.56-.2.1-.2.1l0,.44.36,0c.18,0,.23,0,.09.16s0,.15-.43.21-.29.75-.29,1,0,.55,0,.9.24.34.45.4.07.06-.12.28.27.58.42.62.41.19.41.39-.11.07-.34-.06-.19.14,0,.19a.55.55,0,0,1,.31.42c0,.18.35,0,.44,0a2.3,2.3,0,0,1,.7-.11c.39,0,.52-.33.69-.63s0-.35-.25-.51-.19-.55-.17-.77-.35-.3-.59-.21-.21,0-.11-.25-.07-.48-.19-.66,0-.15.08-.1.14.12.29,0,.18.08,0,.32.6.18.83.17,0-.33-.23-.4-.3-.07-.18-.18,0-.1,0-.26a5.18,5.18,0,0,0-.29-.69c-.09-.21.21.06.37.38a.45.45,0,0,0,.5.3c.18,0,.56-.58.66-.75s.59-.09.77-.12.24-.09.1-.22-.08-.13.09-.14.13.14.26.21a1,1,0,0,0,.67-.07c.24-.1,1.25-.47,1.47-.61s.2-.32.06-.44,0-.13.15-.13.16.46.2.57.44-.28.6-.41,0,0-.29-.16.38-.18.7-.21a7.13,7.13,0,0,1,.76.08c.23,0,.19-.25.09-.47a.53.53,0,0,1,0-.53c.08-.21.16-.19.13.15s.08.41.34.46.62-.27.83-.47.32-.07.35.16.14.21.42.05.13-.41,0-.59,0-.2.21-.61.2.07.29.41.7-.18.72-.39.13.13.34.32.32-.15.36-.41a14.91,14.91,0,0,0-.1-1.49c0-.26,0-.16.17-.22s-.45-.83-.53-1.21.21-.07.33.2,1,1.33,1,1.52,0,.19.15,0,.13-.16.37-.09.14.19-.07.18,0,0-.22.21,0,.23.17.19a3.94,3.94,0,0,1,.73-.31c.3-.06.59,0,.51-.12s-.18-.35,0-.47.28-.21.45.09.23.21.47.12.08-.5-.09-.72-.09-.19.14-.18.14,0,.45-.24.07.38.14.58.65-.14.77-.28,0-.19-.14-.35,0-.17.13-.1a.65.65,0,0,0,.35.06c.24,0,.22-.29.48-.5s.07.16,0,.48.44.26.9.28.25-.47,0-.6-.13-.22,0-.19.34-.06.51,0a2.22,2.22,0,0,0,.54.26c.17,0,1.85-.88,2.14-1s.43-.72.47-1-.34-.27-.44-.52.23,0,.42,0a.64.64,0,0,0,.52-.28c.07-.15.18-.29.07-.47s-.06-.16.15-.24.12,0,.39-.07.14,0,.15.14.72-.14.72-.14a1.14,1.14,0,0,0,0-.41C130.85,111.39,130.8,111.62,130.76,111.6Z"/>
          <path class="cls-54" d="M115.8,119.81c-.35.21-.23.35-.16.42s.14.23.26.24.06-.47.1-.6S115.8,119.81,115.8,119.81Z"/>
          <path class="cls-55" d="M130,112.11a.46.46,0,0,0-.22.09c-.2.17.26.18.37.19s.17,0,.24-.19S130.14,112.11,130,112.11Z"/>
          <path class="cls-56" d="M146.32,44.53c0-.08.18-.6.17-.91a1.63,1.63,0,0,0-.09-.34c0-.14-.38-.12-.53-.37s-.05-.33-.15-.47a2.44,2.44,0,0,0-.31-.36,3,3,0,0,0-.24-.28c-.07-.06-.14,0-.2-.11a1,1,0,0,1-.25-.64,7.17,7.17,0,0,1,.22-1s-.33-.11-.46-.27a3.89,3.89,0,0,1-.3-.29c-.13-.17-.29-.39-.43-.6s-.11-.28-.2-.4-.19-.05-.25-.14-.13-.32-.21-.44-.21,0-.25,0,0-.31,0-.38l-.14-.21s-.07-.62-.26-.45-.48,1.28-.86,1c-.2-.12,0-.51-.14-.79s-.65-.4-.73-.53-.36.11-.52-.07a3.9,3.9,0,0,0-.49-.5l-.25.08c0,.14,0,.31-.1.32a.82.82,0,0,0-.23.11,1,1,0,0,0,.24-.06l.05,1.27a3.22,3.22,0,0,0-1,.28.74.74,0,0,0-.14.48c.08.24-.26.41-.54.49-.09,0-.07.27-.29.24A6.66,6.66,0,0,1,136.3,39a.16.16,0,0,0-.2.18s.38.12.39.17-.2.21-.16.28-.29,0-.52,0-.12.1-.25.1c-.46,0-.55.22-.56.46s0,.57-.23.63a.39.39,0,0,1-.28,0,.86.86,0,0,0-.59,0,.64.64,0,0,0-.36,0c-.18.11-.32.74-.56.85a2.86,2.86,0,0,1-.57.18,2.54,2.54,0,0,0-.47.35,2.25,2.25,0,0,0-.48.36c-.07.09.07.34,0,.43s-.43.26-.48.38c-.16.32-.17,1.17-.48.85-.07-.07-.06-.37-.14-.5s-.43-.4-.58-.64,0-.35-.1-.45-.32-.07-.39-.08c-.32,0-.45-.67-.45-.67s-.55.82-.47,1,.41.46.35.77a4.09,4.09,0,0,0-.15.89,4.91,4.91,0,0,0,.35.76c.06.1.14.16.15.21s-.23.06-.26.18a.87.87,0,0,1-.15.36c0,.05-.09.07-.13.11a.61.61,0,0,1,.05.29,5.93,5.93,0,0,0-.37.82,1.18,1.18,0,0,1-.26.51c-.1.14-.27.29.23.68.09.06.15.14.22.15s.34,0,.42.15.19.23.53.23.43-.13.65.14c.06.07,0,.24.11.41s-.14.11-.1.16.14.06.21.13.18.29.33.42.22.32.38.4l.19.08c.54-.35,1.27-.88,1.31-.91s.28.08.41-.53.27-.58.46-1a1,1,0,0,1,.49-.58c.2-.16.15-.13.06-.23s0,0-.08-.23.18-.09.26-.26.1-.17.47-.3.77.06,1.08-.08.2-.26.2-.46.28-.13.43,0,.19.39.16.62.56.41.69.62a4.69,4.69,0,0,0,.6.59c.12.12,0,.25-.15.28s-.2.34-.24.53,0,.29-.1.37-.11,0-.12.18,0,.12-.17.21-.45.62-.56.63-.3.2-.53.43,0,.39.1.46.1.1-.21.25-.28.15-.33.25,0,.22.15.19.66,0,.48,0-.45.08-.45.23,0,.33.09.23.12-.27.19-.12,0,.17.17.12a.58.58,0,0,1,.28,0c.1,0,.2,0,.16,0l.45-.16c.47-.17.42,0,.25.11s-.32.28-.54.46-.11.37.08.46.05.16-.19.33-.26.11-.43.08-.15,0-.18.18-.25.17-.52.31,0,.45.07.63.33,0,.42-.1a5.26,5.26,0,0,1,1.19-.51c.23-.1.06-.24-.14-.31s-.07-.14.1-.23.15,0,.36.16.35-.33.53-.58a4.17,4.17,0,0,0,.32-.65c.09-.15.14-.06,0-.17s.11-.28.19-.42.08-.09.34-.16.77-.68.94-.84a10.06,10.06,0,0,1,1-.4c.16-.11.08-.15,0-.29s0-.22.21-.22.21.1.38.14.71-.53.84-.49.18-.11.26-.24.16-.07.26.05.33,0,.54-.05.13-.27.31-.35a.13.13,0,0,1,.12,0c.05-.23.14-.66.17-.76a1.07,1.07,0,0,1,.23-.55c.17-.18.4-1,.6-1s.48-.08.43-.25,0-.25.37-.5.35-.33.48-.3.12,0,.15-.16.13-.35.3-.37.3-.08.3-.25a1.79,1.79,0,0,0,0-.21C146.48,44.52,146.34,44.59,146.32,44.53Z"/>
          <path class="cls-57" d="M141.1,52.35H141l0,0a.35.35,0,0,0-.1.2.19.19,0,0,0,.18.17.35.35,0,0,0,.3-.18s0-.05,0-.08A.19.19,0,0,0,141.1,52.35Z"/>
          <path class="cls-58" d="M138.84,36.49h0Z"/>
          <path class="cls-59" d="M141.82,79.09c-.23-.44-1.29-.78-1.67-.92s-.26-.25-.12-.48-.9-.54-1.15-.63-.27-.35-.57-.63-.08-.36-.08-.36a.53.53,0,0,0,0-.28,2.26,2.26,0,0,0-.49-.75.4.4,0,0,1-.2-.3.4.4,0,0,0-.33-.35c-.25-.08-.23-.51-.28-.69s-.33-.71-.42-1-.38-.76-.64-1.38-1.18-.75-1.55-.86-.26-.26-.69,0-.3,0-.18-.12-.07-.18-.25-.24a.84.84,0,0,1-.46-.3c-.18-.18-.13-.23-.51-.11s-.21-.76-.21-1a.75.75,0,0,1,0-.2l0,0a2.1,2.1,0,0,0-.83.28,2,2,0,0,1,.85-.28.37.37,0,0,0,.24,0c.24,0,.12-.27.11-.59s.07-.36.21-.45.14-.7.24-.89.21-.15.38-.15.54-.48.76-.66a5.66,5.66,0,0,0,.62-.91c.11-.17-.34-.41-.51-.47s-.13-.06-.09-.22.14-.08.36,0,.13,0,.13-.21.22.08.2.21,0,.17.09.41.56-.22.77-.3.18-.33.15-.59a.93.93,0,0,1,.11-.67c.12-.13.16.07.19.28s.38-.42.49-.51-.11-.12-.26-.19-.06-.11-.4,0-.08-.1,0-.22.28,0,.48.06.46-.4.81-.56.34-.29.46-.55.18,0,.16.21.36-.12.4-.29.3-.31.48-.45.15,0,.15-.26.22,0,.29.19.24-.1.31-.31.1-.09.16.05.16.22.14.31.52,0,.67-.06.29-.67.08-.64-.28,0-.2-.15a1.2,1.2,0,0,1,.34-.38c.16-.14,0-.19-.12-.36s0-.24.24-.41-.34-.12-.49-.12-.13-.07-.45.15-.41-.13-.63-.33-.45.12-.49.28-.17.14-.26.13-.59.17-1,.22-.46-.41-.38-.46-.05-.09-.18-.17-.24,0-.21,0,.2,0,0,.17-.45-.41-.63-.3-.43-.19-.73-.28-1.31.49-1.64.66-.22.24,0,.23.12,0,0,.26a3,3,0,0,1-.93.74c-.22.15-.1.19,0,.32s-.31.51-.54.61-.12.12-.45.11a1.48,1.48,0,0,0-.79.09c-.28.11-.3.05-.41-.11s-.25-.18-.69-.42-.05-.24,0-.47a1.7,1.7,0,0,1,.08-.77c.13-.22.11-.18-.16-.35s-.07-.12,0-.29a1.06,1.06,0,0,0-.3-.81c-.27-.34-.46-.24-.47-.07s-.25.23-.46.45-.2,0-.28-.3-.86.27-.91.46a.24.24,0,0,1-.34.17c-.17-.06-.13-.19-.11-.33s-.35-.48-.62-.53l-.3-.08c0,.08,0,.13.19.09a.14.14,0,0,1,.12,0L126,58c-.08.08-.31.19-.39.31s0,.25-.11.41-.15.57-.74.57a3.41,3.41,0,0,0-1.33.13c-.16.08-.05.33-.18.44-.37.33-.47.9-.69,1,0,0-.16-.23-.3-.22s-.29.25-.33.31.21.39.12.48-.25,0-.3.06c-.16.27-.55.29-.57.41a9.09,9.09,0,0,1-.34,1.07c-.11.22,0,.57-.23.61s-.86.45-.94.86a1.53,1.53,0,0,0,0,.9c.1.23.71.64.54.72a.51.51,0,0,0-.13.13.38.38,0,0,1,.14.29c-.06.32-.4,1.14,0,.89s1.89-1.44,2-1.3,0,.56-.25.6-.4.11-.43.24-.14.14-.33.21-.47.44-.63.56a7.88,7.88,0,0,0-.66.78s.11.6-.1.6-.36-.21-.53,0a8.39,8.39,0,0,0-.63,1.06v.36a5.39,5.39,0,0,0,.93.12c.15,0,.22.15.39.31s.32.18.46.32c.31.31.22.77.43.75a10.48,10.48,0,0,0,1.07-.09c.13,0,.23-.11.39-.13a1.56,1.56,0,0,1,.6.06c.17.06.46-.43.46-.43l0,0,.44.22c.12,0,.16.22.28.27a.9.9,0,0,0,.5.1c.12,0,.24.18.39.21s.4-.16.48,0,.06.61.29.88.44.2.78.19.45.15.64.15c.43,0,.51.09.62.23s.11.66.61.63,1-.37.94.11a7.25,7.25,0,0,1-.17.86c-.05.26-.29.36-.23.51s0,.36.13.43.46,0,.57,0a.74.74,0,0,1,.43.44c0,.16.07,1,.51.93s1-.07,1-.36.21-.76.76-.47a1.36,1.36,0,0,1,.8,1.11c-.07.24.17.57-.55.33s-1.4-.31-1.22.06.45,1.18.19,1.33-.69.42-.58.66.18.61.42.72a3.72,3.72,0,0,0,.39.31c.41.22,1,.3.86.49s-.54.74-.48.82.7.15,1.15.1c.92-.08.73-.28,1.2.09.18.15.35.24.47.35.38-.29.94-.65,1.13-.45s.67.89,1,.71.5-.21.7,0,.26.64.67.2c.07-.08.14-.19.29-.36s-.08-.22,0-.27.47-.2.59-.37,0-.26,0-.35.25,0,.28-.07a3.61,3.61,0,0,0,.21-.57c.07-.23,0-.41,0-.57a.81.81,0,0,1,.26-.33,7.07,7.07,0,0,0-1-.48c-.54-.21-.25-.12-.61,0s-.13-.15-.13-.29-.06-.18-.39-.5-.7.12-1,.28-.49.06-.4,0,.16-.21.42-.42.22-.21.77-.27.86.53,1,.75.42-.14.68-.35.6-.11,1,0a4.34,4.34,0,0,0,1.18.29C142.25,79.67,142.06,79.52,141.82,79.09Z"/>
        </g> 
      </g>
    </g>
  </g>
</svg>