<svg xmlns="http://www.w3.org/2000/svg" 
     xmlns:xlink="http://www.w3.org/1999/xlink" 
     viewBox="0 0 82.15 69.91" >
  <defs>
    <style>.cls-1,.cls-10,.cls-11,.cls-12,.cls-13,.cls-14,.cls-15,.cls-16,.cls-17,.cls-18,.cls-19,.cls-2,.cls-20,.cls-21,.cls-22,.cls-23,.cls-24,.cls-25,.cls-26,.cls-27,.cls-28,.cls-29,.cls-3,.cls-30,.cls-31,.cls-32,.cls-33,.cls-34,.cls-35,.cls-36,.cls-37,.cls-38,.cls-39,.cls-4,.cls-40,.cls-41,.cls-42,.cls-43,.cls-44,.cls-45,.cls-46,.cls-47,.cls-48,.cls-49,.cls-5,.cls-50,.cls-51,.cls-52,.cls-53,.cls-54,.cls-55,.cls-56,.cls-57,.cls-58,.cls-59,.cls-6,.cls-60,.cls-61,.cls-62,.cls-63,.cls-64,.cls-65,.cls-66,.cls-67,.cls-68,.cls-69,.cls-7,.cls-70,.cls-71,.cls-72,.cls-73,.cls-74,.cls-75,.cls-76,.cls-77,.cls-78,.cls-79,.cls-8,.cls-80,.cls-81,.cls-82,.cls-83,.cls-84,.cls-85,.cls-86,.cls-87,.cls-88,.cls-89,.cls-9{fill:none;stroke-linecap:round;stroke-linejoin:round;}.cls-1,.cls-10,.cls-11,.cls-12,.cls-13,.cls-14,.cls-15,.cls-16,.cls-17,.cls-2,.cls-3,.cls-4,.cls-5,.cls-6,.cls-7,.cls-8,.cls-9{stroke-width:0.07px;}.cls-1{stroke:url(#未命名的渐变_5);}.cls-2{stroke:url(#未命名的渐变_5-2);}.cls-3{stroke:url(#未命名的渐变_5-3);}.cls-4{stroke:url(#未命名的渐变_5-4);}.cls-5{stroke:url(#未命名的渐变_5-5);}.cls-6{stroke:url(#未命名的渐变_5-6);}.cls-7{stroke:url(#未命名的渐变_5-7);}.cls-8{stroke:url(#未命名的渐变_5-8);}.cls-9{stroke:url(#未命名的渐变_5-9);}.cls-10{stroke:url(#未命名的渐变_5-10);}.cls-11{stroke:url(#未命名的渐变_5-11);}.cls-12{stroke:url(#未命名的渐变_5-12);}.cls-13{stroke:url(#未命名的渐变_5-13);}.cls-14{stroke:url(#未命名的渐变_5-14);}.cls-15{stroke:url(#未命名的渐变_5-15);}.cls-16{stroke:url(#未命名的渐变_5-16);}.cls-17{stroke:url(#未命名的渐变_5-17);}.cls-18,.cls-19,.cls-20,.cls-21,.cls-22,.cls-23,.cls-24,.cls-25,.cls-26,.cls-27,.cls-28,.cls-29,.cls-30,.cls-31,.cls-32,.cls-33,.cls-34,.cls-35,.cls-36,.cls-37,.cls-38,.cls-39,.cls-40,.cls-41,.cls-42,.cls-43,.cls-44,.cls-45,.cls-46,.cls-47,.cls-48,.cls-49,.cls-50,.cls-51,.cls-52,.cls-53,.cls-54,.cls-55,.cls-56,.cls-57,.cls-58,.cls-59,.cls-60,.cls-61,.cls-62,.cls-63,.cls-64,.cls-65,.cls-66,.cls-67,.cls-68,.cls-69,.cls-70,.cls-71,.cls-72,.cls-73,.cls-74,.cls-75,.cls-76,.cls-77,.cls-78,.cls-79,.cls-80,.cls-81,.cls-82,.cls-83,.cls-84,.cls-85,.cls-86,.cls-87,.cls-88,.cls-89{stroke-width:0.12px;}.cls-18{stroke:url(#未命名的渐变_15);}.cls-19{stroke:url(#未命名的渐变_15-2);}.cls-20{stroke:url(#未命名的渐变_15-3);}.cls-21{stroke:url(#未命名的渐变_15-4);}.cls-22{stroke:url(#未命名的渐变_15-5);}.cls-23{stroke:url(#未命名的渐变_15-6);}.cls-24{stroke:url(#未命名的渐变_15-7);}.cls-25{stroke:url(#未命名的渐变_15-8);}.cls-26{stroke:url(#未命名的渐变_15-9);}.cls-27{stroke:url(#未命名的渐变_15-10);}.cls-28{stroke:url(#未命名的渐变_15-11);}.cls-29{stroke:url(#未命名的渐变_15-12);}.cls-30{stroke:url(#未命名的渐变_15-13);}.cls-31{stroke:url(#未命名的渐变_15-14);}.cls-32{stroke:url(#未命名的渐变_15-15);}.cls-33{stroke:url(#未命名的渐变_15-16);}.cls-34{stroke:url(#未命名的渐变_15-17);}.cls-35{stroke:url(#未命名的渐变_15-18);}.cls-36{stroke:url(#未命名的渐变_15-19);}.cls-37{stroke:url(#未命名的渐变_15-20);}.cls-38{stroke:url(#未命名的渐变_15-21);}.cls-39{stroke:url(#未命名的渐变_15-22);}.cls-40{stroke:url(#未命名的渐变_15-23);}.cls-41{stroke:url(#未命名的渐变_15-24);}.cls-42{stroke:url(#未命名的渐变_15-25);}.cls-43{stroke:url(#未命名的渐变_15-26);}.cls-44{stroke:url(#未命名的渐变_15-27);}.cls-45{stroke:url(#未命名的渐变_15-28);}.cls-46{stroke:url(#未命名的渐变_15-29);}.cls-47{stroke:url(#未命名的渐变_15-30);}.cls-48{stroke:url(#未命名的渐变_15-31);}.cls-49{stroke:url(#未命名的渐变_15-32);}.cls-50{stroke:url(#未命名的渐变_15-33);}.cls-51{stroke:url(#未命名的渐变_15-34);}.cls-52{stroke:url(#未命名的渐变_15-35);}.cls-53{stroke:url(#未命名的渐变_15-36);}.cls-54{stroke:url(#未命名的渐变_15-37);}.cls-55{stroke:url(#未命名的渐变_15-38);}.cls-56{stroke:url(#未命名的渐变_15-39);}.cls-57{stroke:url(#未命名的渐变_15-40);}.cls-58{stroke:url(#未命名的渐变_15-41);}.cls-59{stroke:url(#未命名的渐变_15-42);}.cls-60{stroke:url(#未命名的渐变_15-43);}.cls-61{stroke:url(#未命名的渐变_15-44);}.cls-62{stroke:url(#未命名的渐变_15-45);}.cls-63{stroke:url(#未命名的渐变_15-46);}.cls-64{stroke:url(#未命名的渐变_15-47);}.cls-65{stroke:url(#未命名的渐变_15-48);}.cls-66{stroke:url(#未命名的渐变_15-49);}.cls-67{stroke:url(#未命名的渐变_15-50);}.cls-68{stroke:url(#未命名的渐变_15-51);}.cls-69{stroke:url(#未命名的渐变_15-52);}.cls-70{stroke:url(#未命名的渐变_15-53);}.cls-71{stroke:url(#未命名的渐变_15-54);}.cls-72{stroke:url(#未命名的渐变_15-55);}.cls-73{stroke:url(#未命名的渐变_15-56);}.cls-74{stroke:url(#未命名的渐变_15-57);}.cls-75{stroke:url(#未命名的渐变_15-58);}.cls-76{stroke:url(#未命名的渐变_15-59);}.cls-77{stroke:url(#未命名的渐变_15-60);}.cls-78{stroke:url(#未命名的渐变_15-61);}.cls-79{stroke:url(#未命名的渐变_15-62);}.cls-80{stroke:url(#未命名的渐变_15-63);}.cls-81{stroke:url(#未命名的渐变_15-64);}.cls-82{stroke:url(#未命名的渐变_15-65);}.cls-83{stroke:url(#未命名的渐变_15-66);}.cls-84{stroke:url(#未命名的渐变_15-67);}.cls-85{stroke:url(#未命名的渐变_15-68);}.cls-86{stroke:url(#未命名的渐变_15-69);}.cls-87{stroke:url(#未命名的渐变_15-70);}.cls-88{stroke:url(#未命名的渐变_15-71);}.cls-89{stroke:url(#未命名的渐变_15-72);}.cls-90{fill:#fff;}</style>
    <linearGradient id="未命名的渐变_5" x1="44.46" y1="31.9" x2="68.25" y2="31.9" gradientUnits="userSpaceOnUse">
      <stop offset="0" stop-color="#fff"/>
      <stop offset="1" stop-color="#00dcff"/>
    </linearGradient>
    <linearGradient id="未命名的渐变_5-2" x1="56.69" y1="35.51" x2="68.24" y2="35.51" xlink:href="#未命名的渐变_5"/>
    <linearGradient id="未命名的渐变_5-3" x1="33.73" y1="39.2" x2="68.24" y2="39.2" xlink:href="#未命名的渐变_5"/>
    <linearGradient id="未命名的渐变_5-4" x1="63.69" y1="38.89" x2="68.24" y2="38.89" xlink:href="#未命名的渐变_5"/>
    <linearGradient id="未命名的渐变_5-5" x1="56.42" y1="47.09" x2="68.24" y2="47.09" xlink:href="#未命名的渐变_5"/>
    <linearGradient id="未命名的渐变_5-6" x1="59.84" y1="44.66" x2="68.24" y2="44.66" xlink:href="#未命名的渐变_5"/>
    <linearGradient id="未命名的渐变_5-7" x1="45.22" y1="35.68" x2="68.24" y2="35.68" xlink:href="#未命名的渐变_5"/>
    <linearGradient id="未命名的渐变_5-8" x1="48.7" y1="50.01" x2="68.24" y2="50.01" xlink:href="#未命名的渐变_5"/>
    <linearGradient id="未命名的渐变_5-9" x1="40.48" y1="27.33" x2="68.24" y2="27.33" xlink:href="#未命名的渐变_5"/>
    <linearGradient id="未命名的渐变_5-10" x1="59.96" y1="27.89" x2="68.24" y2="27.89" xlink:href="#未命名的渐变_5"/>
    <linearGradient id="未命名的渐变_5-11" x1="11.37" y1="32.98" x2="68.24" y2="32.98" xlink:href="#未命名的渐变_5"/>
    <linearGradient id="未命名的渐变_5-12" x1="20.7" y1="25.16" x2="68.24" y2="25.16" xlink:href="#未命名的渐变_5"/>
    <linearGradient id="未命名的渐变_5-13" x1="15.68" y1="29.01" x2="68.24" y2="29.01" xlink:href="#未命名的渐变_5"/>
    <linearGradient id="未命名的渐变_5-14" x1="2.56" y1="33.39" x2="68.24" y2="33.39" xlink:href="#未命名的渐变_5"/>
    <linearGradient id="未命名的渐变_5-15" x1="52.36" y1="21.23" x2="68.24" y2="21.23" xlink:href="#未命名的渐变_5"/>
    <linearGradient id="未命名的渐变_5-16" x1="68.17" y1="19.94" x2="71.62" y2="19.94" xlink:href="#未命名的渐变_5"/>
    <linearGradient id="未命名的渐变_5-17" x1="30.28" y1="30.95" x2="68.24" y2="30.95" xlink:href="#未命名的渐变_5"/>
    <linearGradient id="未命名的渐变_15" x1="1.62" y1="46.58" x2="2.02" y2="46.58" gradientUnits="userSpaceOnUse">
      <stop offset="0" stop-color="#00dcff"/>
      <stop offset="1" stop-color="#fff"/>
    </linearGradient>
    <linearGradient id="未命名的渐变_15-2" x1="1.52" y1="47.08" x2="2.11" y2="47.08" xlink:href="#未命名的渐变_15"/>
    <linearGradient id="未命名的渐变_15-3" x1="1.1" y1="45.57" x2="2.54" y2="45.57" xlink:href="#未命名的渐变_15"/>
    <linearGradient id="未命名的渐变_15-4" x1="0.29" y1="46.97" x2="3.35" y2="46.97" xlink:href="#未命名的渐变_15"/>
    <linearGradient id="未命名的渐变_15-5" x1="8.83" y1="41.98" x2="9.23" y2="41.98" xlink:href="#未命名的渐变_15"/>
    <linearGradient id="未命名的渐变_15-6" x1="8.74" y1="42.48" x2="9.33" y2="42.48" xlink:href="#未命名的渐变_15"/>
    <linearGradient id="未命名的渐变_15-7" x1="8.31" y1="40.97" x2="9.75" y2="40.97" xlink:href="#未命名的渐变_15"/>
    <linearGradient id="未命名的渐变_15-8" x1="7.51" y1="42.37" x2="10.56" y2="42.37" xlink:href="#未命名的渐变_15"/>
    <linearGradient id="未命名的渐变_15-9" x1="12.93" y1="25.3" x2="13.33" y2="25.3" xlink:href="#未命名的渐变_15"/>
    <linearGradient id="未命名的渐变_15-10" x1="12.83" y1="25.79" x2="13.42" y2="25.79" xlink:href="#未命名的渐变_15"/>
    <linearGradient id="未命名的渐变_15-11" x1="12.4" y1="24.29" x2="13.85" y2="24.29" xlink:href="#未命名的渐变_15"/>
    <linearGradient id="未命名的渐变_15-12" x1="11.6" y1="25.69" x2="14.65" y2="25.69" xlink:href="#未命名的渐变_15"/>
    <linearGradient id="未命名的渐变_15-13" x1="18.73" y1="17.79" x2="19.12" y2="17.79" xlink:href="#未命名的渐变_15"/>
    <linearGradient id="未命名的渐变_15-14" x1="18.63" y1="18.29" x2="19.22" y2="18.29" xlink:href="#未命名的渐变_15"/>
    <linearGradient id="未命名的渐变_15-15" x1="18.2" y1="16.79" x2="19.65" y2="16.79" xlink:href="#未命名的渐变_15"/>
    <linearGradient id="未命名的渐变_15-16" x1="17.4" y1="18.19" x2="20.45" y2="18.19" xlink:href="#未命名的渐变_15"/>
    <linearGradient id="未命名的渐变_15-17" x1="27.21" y1="30.57" x2="27.61" y2="30.57" xlink:href="#未命名的渐变_15"/>
    <linearGradient id="未命名的渐变_15-18" x1="27.11" y1="31.06" x2="27.7" y2="31.06" xlink:href="#未命名的渐变_15"/>
    <linearGradient id="未命名的渐变_15-19" x1="26.68" y1="29.56" x2="28.13" y2="29.56" xlink:href="#未命名的渐变_15"/>
    <linearGradient id="未命名的渐变_15-20" x1="25.88" y1="30.96" x2="28.93" y2="30.96" xlink:href="#未命名的渐变_15"/>
    <linearGradient id="未命名的渐变_15-21" x1="36.3" y1="17.34" x2="36.69" y2="17.34" xlink:href="#未命名的渐变_15"/>
    <linearGradient id="未命名的渐变_15-22" x1="36.2" y1="17.83" x2="36.79" y2="17.83" xlink:href="#未命名的渐变_15"/>
    <linearGradient id="未命名的渐变_15-23" x1="35.77" y1="16.33" x2="37.22" y2="16.33" xlink:href="#未命名的渐变_15"/>
    <linearGradient id="未命名的渐变_15-24" x1="34.97" y1="17.73" x2="38.02" y2="17.73" xlink:href="#未命名的渐变_15"/>
    <linearGradient id="未命名的渐变_15-25" x1="48.08" y1="4.92" x2="48.48" y2="4.92" xlink:href="#未命名的渐变_15"/>
    <linearGradient id="未命名的渐变_15-26" x1="47.99" y1="5.42" x2="48.57" y2="5.42" xlink:href="#未命名的渐变_15"/>
    <linearGradient id="未命名的渐变_15-27" x1="47.56" y1="3.92" x2="49" y2="3.92" xlink:href="#未命名的渐变_15"/>
    <linearGradient id="未命名的渐变_15-28" x1="46.75" y1="5.32" x2="49.81" y2="5.32" xlink:href="#未命名的渐变_15"/>
    <linearGradient id="未命名的渐变_15-29" x1="66.14" y1="1.73" x2="66.53" y2="1.73" xlink:href="#未命名的渐变_15"/>
    <linearGradient id="未命名的渐变_15-30" x1="66.04" y1="2.23" x2="66.63" y2="2.23" xlink:href="#未命名的渐变_15"/>
    <linearGradient id="未命名的渐变_15-31" x1="65.61" y1="0.72" x2="67.06" y2="0.72" xlink:href="#未命名的渐变_15"/>
    <linearGradient id="未命名的渐变_15-32" x1="64.81" y1="2.12" x2="67.86" y2="2.12" xlink:href="#未命名的渐变_15"/>
    <linearGradient id="未命名的渐变_15-33" x1="57.6" y1="17.95" x2="58" y2="17.95" xlink:href="#未命名的渐变_15"/>
    <linearGradient id="未命名的渐变_15-34" x1="57.51" y1="18.45" x2="58.09" y2="18.45" xlink:href="#未命名的渐变_15"/>
    <linearGradient id="未命名的渐变_15-35" x1="57.08" y1="16.95" x2="58.52" y2="16.95" xlink:href="#未命名的渐变_15"/>
    <linearGradient id="未命名的渐变_15-36" x1="56.27" y1="18.35" x2="59.33" y2="18.35" xlink:href="#未命名的渐变_15"/>
    <linearGradient id="未命名的渐变_15-37" x1="42.53" y1="28.4" x2="42.93" y2="28.4" xlink:href="#未命名的渐变_15"/>
    <linearGradient id="未命名的渐变_15-38" x1="42.44" y1="28.9" x2="43.02" y2="28.9" xlink:href="#未命名的渐变_15"/>
    <linearGradient id="未命名的渐变_15-39" x1="42.01" y1="27.4" x2="43.45" y2="27.4" xlink:href="#未命名的渐变_15"/>
    <linearGradient id="未命名的渐变_15-40" x1="41.2" y1="28.8" x2="44.26" y2="28.8" xlink:href="#未命名的渐变_15"/>
    <linearGradient id="未命名的渐变_15-41" x1="63.57" y1="44.49" x2="63.96" y2="44.49" xlink:href="#未命名的渐变_15"/>
    <linearGradient id="未命名的渐变_15-42" x1="63.47" y1="44.98" x2="64.06" y2="44.98" xlink:href="#未命名的渐变_15"/>
    <linearGradient id="未命名的渐变_15-43" x1="63.04" y1="43.48" x2="64.49" y2="43.48" xlink:href="#未命名的渐变_15"/>
    <linearGradient id="未命名的渐变_15-44" x1="62.24" y1="44.88" x2="65.29" y2="44.88" xlink:href="#未命名的渐变_15"/>
    <linearGradient id="未命名的渐变_15-45" x1="71.2" y1="36.2" x2="71.6" y2="36.2" xlink:href="#未命名的渐变_15"/>
    <linearGradient id="未命名的渐变_15-46" x1="71.11" y1="36.7" x2="71.69" y2="36.7" xlink:href="#未命名的渐变_15"/>
    <linearGradient id="未命名的渐变_15-47" x1="70.68" y1="35.19" x2="72.12" y2="35.19" xlink:href="#未命名的渐变_15"/>
    <linearGradient id="未命名的渐变_15-48" x1="69.87" y1="36.59" x2="72.93" y2="36.59" xlink:href="#未命名的渐变_15"/>
    <linearGradient id="未命名的渐变_15-49" x1="54.05" y1="35.54" x2="54.44" y2="35.54" xlink:href="#未命名的渐变_15"/>
    <linearGradient id="未命名的渐变_15-50" x1="53.95" y1="36.04" x2="54.54" y2="36.04" xlink:href="#未命名的渐变_15"/>
    <linearGradient id="未命名的渐变_15-51" x1="53.52" y1="34.53" x2="54.97" y2="34.53" xlink:href="#未命名的渐变_15"/>
    <linearGradient id="未命名的渐变_15-52" x1="52.72" y1="35.93" x2="55.77" y2="35.93" xlink:href="#未命名的渐变_15"/>
    <linearGradient id="未命名的渐变_15-53" x1="33.68" y1="49.05" x2="34.08" y2="49.05" xlink:href="#未命名的渐变_15"/>
    <linearGradient id="未命名的渐变_15-54" x1="33.59" y1="49.55" x2="34.17" y2="49.55" xlink:href="#未命名的渐变_15"/>
    <linearGradient id="未命名的渐变_15-55" x1="33.16" y1="48.05" x2="34.6" y2="48.05" xlink:href="#未命名的渐变_15"/>
    <linearGradient id="未命名的渐变_15-56" x1="32.35" y1="49.45" x2="35.41" y2="49.45" xlink:href="#未命名的渐变_15"/>
    <linearGradient id="未命名的渐变_15-57" x1="44.62" y1="40.99" x2="45.02" y2="40.99" xlink:href="#未命名的渐变_15"/>
    <linearGradient id="未命名的渐变_15-58" x1="44.53" y1="41.49" x2="45.11" y2="41.49" xlink:href="#未命名的渐变_15"/>
    <linearGradient id="未命名的渐变_15-59" x1="44.1" y1="39.99" x2="45.54" y2="39.99" xlink:href="#未命名的渐变_15"/>
    <linearGradient id="未命名的渐变_15-60" x1="43.29" y1="41.39" x2="46.35" y2="41.39" xlink:href="#未命名的渐变_15"/>
    <linearGradient id="未命名的渐变_15-61" x1="48.53" y1="66.34" x2="48.92" y2="66.34" xlink:href="#未命名的渐变_15"/>
    <linearGradient id="未命名的渐变_15-62" x1="48.43" y1="66.84" x2="49.02" y2="66.84" xlink:href="#未命名的渐变_15"/>
    <linearGradient id="未命名的渐变_15-63" x1="48" y1="65.33" x2="49.45" y2="65.33" xlink:href="#未命名的渐变_15"/>
    <linearGradient id="未命名的渐变_15-64" x1="47.2" y1="66.73" x2="50.25" y2="66.73" xlink:href="#未命名的渐变_15"/>
    <linearGradient id="未命名的渐变_15-65" x1="56.52" y1="60.26" x2="56.92" y2="60.26" xlink:href="#未命名的渐变_15"/>
    <linearGradient id="未命名的渐变_15-66" x1="56.43" y1="60.75" x2="57.01" y2="60.75" xlink:href="#未命名的渐变_15"/>
    <linearGradient id="未命名的渐变_15-67" x1="56" y1="59.25" x2="57.44" y2="59.25" xlink:href="#未命名的渐变_15"/>
    <linearGradient id="未命名的渐变_15-68" x1="55.19" y1="60.65" x2="58.25" y2="60.65" xlink:href="#未命名的渐变_15"/>
    <linearGradient id="未命名的渐变_15-69" x1="60.9" y1="54.57" x2="61.3" y2="54.57" xlink:href="#未命名的渐变_15"/>
    <linearGradient id="未命名的渐变_15-70" x1="60.81" y1="55.07" x2="61.39" y2="55.07" xlink:href="#未命名的渐变_15"/>
    <linearGradient id="未命名的渐变_15-71" x1="60.38" y1="53.57" x2="61.82" y2="53.57" xlink:href="#未命名的渐变_15"/>
    <linearGradient id="未命名的渐变_15-72" x1="59.57" y1="54.97" x2="62.63" y2="54.97" xlink:href="#未命名的渐变_15"/>
  </defs>
  <g id="图层_2" data-name="图层 2">
    <g id="图层_5" data-name="图层 5">
      <path class="cls-1" d="M68.21,36.34c.41-.51-12.21-12.19-23.72-8"
            stroke-dasharray="26.461">
        <animate attributeName="stroke-dashoffset" from="26.461" to="0" dur="2s"
                 repeatCount="indefinite" fill="freeze" ></animate>
      </path>
      <path class="cls-2" d="M68.21,36.34s-6-4.13-11.48.14"
            stroke-dasharray="12.266">
        <animate attributeName="stroke-dashoffset" from="12.266" to="0" dur="2s"
                 repeatCount="indefinite" fill="freeze" ></animate>
      </path>
      <path class="cls-3" d="M68.21,36.34A21.09,21.09,0,0,0,57,31.41c-7.9-.81-18.46,2.76-23.24,15.69"
            stroke-dasharray="42.735">
        <animate attributeName="stroke-dashoffset" from="42.735" to="0" dur="2s"
                 repeatCount="indefinite" fill="freeze" ></animate>
      </path>
      <path class="cls-4" d="M68.21,36.34s-4.65,1-4.48,5.1"
            stroke-dasharray="7.387">
        <animate attributeName="stroke-dashoffset" from="7.387" to="0" dur="2s"
                 repeatCount="indefinite" fill="freeze" ></animate>
      </path>
      <path class="cls-5" d="M68.21,36.34S55.57,32.07,56.51,58.1"
            stroke-dasharray="28.63">
        <animate attributeName="stroke-dashoffset" from="28.63" to="0" dur="2s"
                 repeatCount="indefinite" fill="freeze" ></animate>
      </path>
      <path class="cls-6" d="M68.21,36.34S57.41,36,60.4,53"
            stroke-dasharray="21.119">
        <animate attributeName="stroke-dashoffset" from="21.119" to="0" dur="2s"
                 repeatCount="indefinite" fill="freeze" ></animate>
      </path>
      <path class="cls-7" d="M68.21,36.34S55,26.16,45.26,38.88"
            stroke-dasharray="25.919">
        <animate attributeName="stroke-dashoffset" from="25.919" to="0" dur="2s"
                 repeatCount="indefinite" fill="freeze" ></animate>
      </path>
      <path class="cls-8" d="M68.21,36.34s-14.41-6.9-19.48,27.9"
            stroke-dasharray="38.38">
        <animate attributeName="stroke-dashoffset" from="38.38" to="0" dur="2s"
                 repeatCount="indefinite" fill="freeze" ></animate>
      </path>
      <path class="cls-9" d="M68.21,36.34s-6.78-17.94-27.7-18"
            stroke-dasharray="35.03">
        <animate attributeName="stroke-dashoffset" from="35.03" to="0" dur="2s"
                 repeatCount="indefinite" fill="freeze" ></animate>
      </path>
      <path class="cls-10" d="M68.21,36.34s-1.9-12-8.22-16.9"
            stroke-dasharray="19.163">
        <animate attributeName="stroke-dashoffset" from="19.163" to="0" dur="2s"
                 repeatCount="indefinite" fill="freeze" ></animate>
      </path>
      <path class="cls-11" d="M68.21,36.34a20.8,20.8,0,0,0-11.6-10.5C43.77,21,22.3,21.66,11.4,42.61"
            stroke-dasharray="69.018">
        <animate attributeName="stroke-dashoffset" from="69.018" to="0" dur="2s"
                 repeatCount="indefinite" fill="freeze" ></animate>
      </path>
      <path class="cls-12" d="M68.21,36.34S53.12,4.52,20.74,16.79"
            stroke-dasharray="56.732">
        <animate attributeName="stroke-dashoffset" from="56.732" to="0" dur="2s"
                 repeatCount="indefinite" fill="freeze" ></animate>
      </path>
      <path class="cls-13" d="M68.21,36.34s-8.59-24.63-52.5-10"   
            stroke-dasharray="58.535">
        <animate attributeName="stroke-dashoffset" from="58.535" to="0" dur="2s"
                 repeatCount="indefinite" fill="freeze" ></animate>
      </path>
      <path class="cls-14" d="M68.21,36.34c-1.53-2.4-8.77-10.58-20.78-12.7C32.74,21,12.39,26.3,2.6,43.78"
            stroke-dasharray="77.26">
        <animate attributeName="stroke-dashoffset" from="77.26" to="0" dur="2s"
                 repeatCount="indefinite" fill="freeze" ></animate>
      </path>
      <path class="cls-15" d="M68.21,36.34C68,13.3,52.39,6.11,52.39,6.11"
            stroke-dasharray="35.801">
        <animate attributeName="stroke-dashoffset" from="35.801" to="0" dur="2s"
                 repeatCount="indefinite" fill="freeze" ></animate>
      </path>
      <path class="cls-16" d="M68.21,36.34c7.24-21.69.58-32.8.58-32.8"
            stroke-dasharray="33.588">
        <animate attributeName="stroke-dashoffset" from="33.588" to="0" dur="2s"
                 repeatCount="indefinite" fill="freeze" ></animate>
      </path>
      <path class="cls-17" d="M68.21,36.34C57.13,23.63,41.82,24,30.31,28.18" 
            stroke-dasharray="41.394">
        <animate attributeName="stroke-dashoffset" from="41.394" to="0" dur="2s" 
                 repeatCount="indefinite" fill="freeze" ></animate>
      </path>
      <circle class="cls-18" cx="1.82" cy="46.58" r="0.14"/>
      <path class="cls-19" d="M1.72,46.68l-.13.52a.11.11,0,0,0,0,.08l.16.17a.09.09,0,0,0,.12,0L2,47.28a.08.08,0,0,0,0-.08l-.14-.52"/>
      <circle class="cls-20" cx="1.82" cy="45.57" r="0.66"/>
      <path class="cls-21" d="M.35,47.71a1.47,1.47,0,0,1,2.94,0Z"/>
      <circle class="cls-22" cx="9.03" cy="41.98" r="0.14"/>
      <path class="cls-23" d="M8.94,42.08l-.14.52a.08.08,0,0,0,0,.08l.15.17a.09.09,0,0,0,.12,0l.16-.17a.08.08,0,0,0,0-.08l-.13-.52"/>
      <circle class="cls-24" cx="9.03" cy="40.97" r="0.66"/>
      <path class="cls-25" d="M7.56,43.11a1.47,1.47,0,0,1,2.94,0Z"/>
      <circle class="cls-26" cx="13.13" cy="25.3" r="0.14"/>
      <path class="cls-27" d="M13,25.4l-.14.52a.08.08,0,0,0,0,.07l.16.17a.08.08,0,0,0,.12,0l.15-.17a.06.06,0,0,0,0-.07l-.14-.52"/>
      <circle class="cls-28" cx="13.13" cy="24.29" r="0.66"/>
      <path class="cls-29" d="M11.66,26.42a1.47,1.47,0,1,1,2.94,0Z"/>
      <circle class="cls-30" cx="18.92" cy="17.79" r="0.14"/>
      <path class="cls-31" d="M18.83,17.9l-.14.52a.1.1,0,0,0,0,.07l.15.17a.09.09,0,0,0,.13,0l.15-.17a.1.1,0,0,0,0-.07L19,17.9"/>
      <circle class="cls-32" cx="18.92" cy="16.79" r="0.66"/>
      <path class="cls-33" d="M17.46,18.92a1.47,1.47,0,1,1,2.93,0Z"/>
      <circle class="cls-34" cx="27.41" cy="30.57" r="0.14"/>
      <path class="cls-35" d="M27.31,30.67l-.14.52a.1.1,0,0,0,0,.07l.16.17a.07.07,0,0,0,.12,0l.15-.17a.07.07,0,0,0,0-.07l-.14-.52"/>
      <circle class="cls-36" cx="27.41" cy="29.56" r="0.66"/>
      <path class="cls-37" d="M25.94,31.69a1.47,1.47,0,1,1,2.94,0Z"/>
      <circle class="cls-38" cx="36.49" cy="17.34" r="0.14"/>
      <path class="cls-39" d="M36.4,17.44l-.14.52a.06.06,0,0,0,0,.07l.15.17a.07.07,0,0,0,.12,0l.16-.17a.08.08,0,0,0,0-.07l-.14-.52"/>
      <circle class="cls-40" cx="36.49" cy="16.33" r="0.66"/>
      <path class="cls-41" d="M35,18.46a1.47,1.47,0,0,1,2.93,0Z"/>
      <circle class="cls-42" cx="48.28" cy="4.92" r="0.14"/>
      <path class="cls-43" d="M48.19,5l-.14.52a.07.07,0,0,0,0,.07l.15.17a.08.08,0,0,0,.12,0l.16-.17a.09.09,0,0,0,0-.07L48.38,5"/>
      <circle class="cls-44" cx="48.28" cy="3.92" r="0.66"/>
      <path class="cls-45" d="M46.81,6.05a1.47,1.47,0,1,1,2.94,0Z"/>
      <circle class="cls-46" cx="66.33" cy="1.73" r="0.14"/>
      <path class="cls-47" d="M66.24,1.83l-.14.52a.08.08,0,0,0,0,.08l.15.17a.09.09,0,0,0,.12,0l.16-.17a.11.11,0,0,0,0-.08l-.14-.52"/>
      <circle class="cls-48" cx="66.33" cy="0.72" r="0.66"/>
      <path class="cls-49" d="M64.86,2.86a1.47,1.47,0,1,1,2.94,0Z"/>
      <circle class="cls-50" cx="57.8" cy="17.95" r="0.14"/>
      <path class="cls-51" d="M57.7,18.06l-.13.52a.09.09,0,0,0,0,.07l.16.17a.08.08,0,0,0,.12,0l.15-.17a.07.07,0,0,0,0-.07l-.14-.52"/>
      <circle class="cls-52" cx="57.8" cy="16.95" r="0.66"/>
      <path class="cls-53" d="M56.33,19.08a1.47,1.47,0,0,1,2.94,0Z"/>
      <circle class="cls-54" cx="42.73" cy="28.4" r="0.14"/>
      <path class="cls-55" d="M42.64,28.5,42.5,29a.08.08,0,0,0,0,.08l.15.17a.08.08,0,0,0,.12,0L43,29.1A.11.11,0,0,0,43,29l-.13-.52"/>
      <circle class="cls-56" cx="42.73" cy="27.4" r="0.66"/>
      <path class="cls-57" d="M41.26,29.53a1.47,1.47,0,0,1,2.94,0Z"/>
      <circle class="cls-58" cx="63.76" cy="44.49" r="0.14"/>
      <path class="cls-59" d="M63.67,44.59l-.14.52a.06.06,0,0,0,0,.07l.15.17a.07.07,0,0,0,.12,0l.16-.17a.08.08,0,0,0,0-.07l-.14-.52"/>
      <circle class="cls-60" cx="63.76" cy="43.48" r="0.66"/>
      <path class="cls-61" d="M62.29,45.61a1.47,1.47,0,0,1,2.94,0Z"/>
      <circle class="cls-62" cx="71.4" cy="36.2" r="0.14"/>
      <path class="cls-63" d="M71.31,36.3l-.14.52a.08.08,0,0,0,0,.08l.15.17a.09.09,0,0,0,.12,0l.16-.17a.11.11,0,0,0,0-.08l-.13-.52"/>
      <circle class="cls-64" cx="71.4" cy="35.19" r="0.66"/>
      <path class="cls-65" d="M69.93,37.33a1.47,1.47,0,0,1,2.94,0Z"/>
      <circle class="cls-66" cx="54.25" cy="35.54" r="0.14"/>
      <path class="cls-67" d="M54.15,35.64l-.14.52a.11.11,0,0,0,0,.08l.16.17a.09.09,0,0,0,.12,0l.15-.17a.08.08,0,0,0,0-.08l-.14-.52"/>
      <circle class="cls-68" cx="54.25" cy="34.53" r="0.66"/>
      <path class="cls-69" d="M52.78,36.67a1.47,1.47,0,0,1,2.94,0Z"/>
      <circle class="cls-70" cx="33.88" cy="49.05" r="0.14"/>
      <path class="cls-71" d="M33.79,49.16l-.14.52a.07.07,0,0,0,0,.07l.15.17a.07.07,0,0,0,.12,0l.16-.17a.09.09,0,0,0,0-.07L34,49.16"/>
      <circle class="cls-72" cx="33.88" cy="48.05" r="0.66"/>
      <path class="cls-73" d="M32.41,50.18a1.47,1.47,0,1,1,2.94,0Z"/>
      <circle class="cls-74" cx="44.82" cy="40.99" r="0.14"/>
      <path class="cls-75" d="M44.73,41.1l-.14.52a.07.07,0,0,0,0,.07l.15.17a.08.08,0,0,0,.12,0l.15-.17a.07.07,0,0,0,0-.07l-.13-.52"/>
      <circle class="cls-76" cx="44.82" cy="39.99" r="0.66"/>
      <path class="cls-77" d="M43.35,42.12a1.47,1.47,0,0,1,2.94,0Z"/>
      <circle class="cls-78" cx="48.73" cy="66.34" r="0.14"/>
      <path class="cls-79" d="M48.63,66.44l-.14.52a.11.11,0,0,0,0,.08l.16.17a.09.09,0,0,0,.12,0l.15-.17A.08.08,0,0,0,49,67l-.14-.52"/>
      <circle class="cls-80" cx="48.73" cy="65.33" r="0.66"/>
      <path class="cls-81" d="M47.26,67.47a1.47,1.47,0,0,1,2.94,0Z"/>
      <circle class="cls-82" cx="56.72" cy="60.26" r="0.14"/>
      <path class="cls-83" d="M56.63,60.36l-.14.52a.08.08,0,0,0,0,.08l.15.16a.08.08,0,0,0,.12,0l.16-.16a.11.11,0,0,0,0-.08l-.13-.52"/>
      <circle class="cls-84" cx="56.72" cy="59.25" r="0.66"/>
      <path class="cls-85" d="M55.25,61.38a1.47,1.47,0,0,1,2.94,0Z"/>
      <circle class="cls-86" cx="61.1" cy="54.57" r="0.14"/>
      <path class="cls-87" d="M61,54.68l-.13.52a.09.09,0,0,0,0,.07l.16.17a.08.08,0,0,0,.12,0l.15-.17a.07.07,0,0,0,0-.07l-.14-.52"/>
      <circle class="cls-88" cx="61.1" cy="53.57" r="0.66"/>
      <path class="cls-89" d="M59.63,55.7a1.47,1.47,0,1,1,2.94,0Z"/>
      <path class="cls-90" d="M1.77,50.08v.16H0v-.16H.81v-.19H.27v-.14H.81v-.16H.35a2,2,0,0,1-.19.21L0,49.68a1.23,1.23,0,0,0,.35-.43H.24v-.72H1.57v.72H.38l.16,0-.08.13H.81v-.14H1v.14h.65v.16H1v.16h.56v.14H1v.19ZM.42,48.82h1v-.14h-1Zm0,.28h1V49h-1Z"/>
      <path class="cls-90" d="M2.31,49.35,2,49.14,2.09,49c.1.06.25.14.33.2Zm.14.27a6.14,6.14,0,0,1-.27.64L2,50.16a5.59,5.59,0,0,0,.3-.64Zm-.05-.8-.33-.22.11-.13a3.37,3.37,0,0,1,.34.21Zm.36.28a2.18,2.18,0,0,1-.27,1.18l-.16-.1a1.92,1.92,0,0,0,.24-1.08v-.55H3.8v.17h-1Zm.31.67a1.93,1.93,0,0,1-.24.4l-.15-.09a1.31,1.31,0,0,0,.23-.36Zm.3-.15v.48c0,.09,0,.13-.08.16a.64.64,0,0,1-.27,0,.75.75,0,0,0,0-.16h.19a0,0,0,0,0,0,0v-.48H2.85v-.7h.29a1.33,1.33,0,0,0,0-.19l.21,0a1,1,0,0,1-.08.15h.41v.7ZM3,49.21h.54v-.15H3Zm0,.28h.54v-.15H3Zm.6.21a4,4,0,0,1,.22.38l-.17.08-.2-.4Z"/>
      <path class="cls-90" d="M32.52,52.24a1.83,1.83,0,0,1-.42.37L32,52.49a1,1,0,0,0,.38-.31Zm.41-.13v.36c0,.09,0,.13-.09.16a1.22,1.22,0,0,1-.32,0,.8.8,0,0,0-.08-.16h.27s0,0,0,0v-.36H32V52h1.68v.15Zm-.73-.35H32v-.34h.73l-.06-.13.14,0h-.74v-.36h.19v.2h.47v-.26h.19v.26h.48v-.2h.2v.36h-.74s.06.11.08.17h.71v.34h-.18v-.2H32.2Zm.12.08v-.15h1v.15Zm1,.34a3.86,3.86,0,0,1,.42.34l-.17.1a2.93,2.93,0,0,0-.4-.35Z"/>
      <path class="cls-90" d="M34.52,51.32a1.91,1.91,0,0,1-.16.27v1.07h-.17v-.82L34,52a1.51,1.51,0,0,0-.1-.17,2.36,2.36,0,0,0,.45-.61Zm0-.42a4,4,0,0,1-.48.52,1.19,1.19,0,0,0-.09-.15,2.34,2.34,0,0,0,.4-.44Zm-.08,1.61a1.4,1.4,0,0,0,.17-.37l.13.06a1.46,1.46,0,0,1-.16.39ZM35.76,52h-.64a2,2,0,0,1,.14.23l-.14.06L35,52.07l.13,0h-.62v-.15h1.27ZM35,51.25s0-.08,0-.12h-.5V51H35a.92.92,0,0,0,0-.16h.2l0,.15h.53v.15h-.56a.37.37,0,0,1,0,.12h.52v.51h-1.1v-.51Zm-.09.14h-.17v.24h.17Zm.35,1.1c.06,0,.07,0,.07-.18a.39.39,0,0,0,.15.06c0,.21-.06.27-.21.27H35c-.18,0-.22,0-.22-.2v-.27h.16v.27c0,.05,0,.05.08.05Zm0-1.1H35v.24h.18Zm.13.24h.19v-.24h-.19Zm.22.49a2.47,2.47,0,0,1,.21.38l-.15.07a1.61,1.61,0,0,0-.2-.39Z"/>
      <path class="cls-90" d="M43.28,43.2a2.44,2.44,0,0,1-.19.52,1.4,1.4,0,0,0,.73.78,1.09,1.09,0,0,0-.13.17,1.57,1.57,0,0,1-.71-.75,1.9,1.9,0,0,1-.86.76.75.75,0,0,0-.14-.17A1.79,1.79,0,0,0,43,43.34h-.47a1.84,1.84,0,0,1-.44.57L42,43.78a2,2,0,0,0,.59-.94l.2,0a2.77,2.77,0,0,1-.1.26h.5Z"/>
      <path class="cls-90" d="M45.28,43.2a2.44,2.44,0,0,1-.19.52,1.4,1.4,0,0,0,.73.78,1.09,1.09,0,0,0-.13.17,1.57,1.57,0,0,1-.71-.75,1.9,1.9,0,0,1-.86.76.75.75,0,0,0-.14-.17A1.79,1.79,0,0,0,45,43.34h-.47a1.84,1.84,0,0,1-.44.57L44,43.78a2,2,0,0,0,.59-.94l.2,0a2.77,2.77,0,0,1-.1.26h.5Z"/>
      <path class="cls-90" d="M46.34,43.76a2,2,0,0,0-.37-.24l.1-.13a1.9,1.9,0,0,1,.38.22Zm-.33.75a4.7,4.7,0,0,0,.33-.64l.15.11c-.09.21-.21.45-.31.65Zm.42-1.24a1.85,1.85,0,0,0-.37-.26l.11-.13a3,3,0,0,1,.37.24Zm1.37,1h-.54v.44h-.19v-.44h-.54v-.17h.54V43.8h-.41v-.17h.41v-.25H46.6v-.17h.27a1.53,1.53,0,0,0-.16-.31l.16-.06a1.22,1.22,0,0,1,.19.32l-.11.05h.33a2.59,2.59,0,0,0,.17-.38l.19.06-.17.32h.29v.17h-.5v.25h.43v.17h-.43v.26h.54Z"/>
      <path class="cls-90" d="M47.53,69.65v.18H45.74v-.18H46v-.91h.19v.91h.4V68.4h-.78v-.18h1.66v.18h-.68v.49h.59v.18h-.59v.58Z"/>
      <path class="cls-90" d="M49.55,68.88v.2H47.73v-.2Z"/>
      <path class="cls-90" d="M50.78,68.83a1.44,1.44,0,0,0,.77.91.75.75,0,0,0-.14.17,1.55,1.55,0,0,1-.77-.92,1.38,1.38,0,0,1-.77.92.66.66,0,0,0-.14-.15,1.26,1.26,0,0,0,.75-.93h-.71v-.2h.74a5.43,5.43,0,0,0,0-.55h.21c0,.16,0,.36,0,.55h.8v.2Z"/>
      <path class="cls-90" d="M54.94,62.36v.43c0,.34-.1.74-.86,1a.57.57,0,0,0-.12-.15c.73-.24.79-.57.79-.85v-.43Zm.56-.3v1.17h-.19v-1h-.93v1h-.19V62.06ZM55,63.29a4.78,4.78,0,0,1,.68.34l-.11.15a4.14,4.14,0,0,0-.67-.35Z"/>
      <path class="cls-90" d="M56.39,62.44a3,3,0,0,1-.27.37A1,1,0,0,0,56,62.7,2.06,2.06,0,0,0,56.4,62l.19,0c0,.09-.07.17-.11.26H57.6l.14,0a2.3,2.3,0,0,1-.25.47l-.16-.07a2,2,0,0,0,.15-.26Zm.14.42a2,2,0,0,1-.39.66.64.64,0,0,0-.16-.11,1.63,1.63,0,0,0,.36-.6Zm.24-.3H57v1c0,.11,0,.17-.1.2a1.24,1.24,0,0,1-.38,0,1.39,1.39,0,0,0-.06-.19h.3s.05,0,.05,0Zm.55.25a4.37,4.37,0,0,1,.37.62l-.18.08a3.53,3.53,0,0,0-.36-.63Z"/>
      <path class="cls-90" d="M59,62,59,62.1a2.9,2.9,0,0,0,.82.51.58.58,0,0,0-.14.17,3,3,0,0,1-.79-.55,2.77,2.77,0,0,1-.81.55,1.83,1.83,0,0,0-.13-.16,2.33,2.33,0,0,0,.94-.68Zm.54.91-.54.55.21.15-.14.16a5.73,5.73,0,0,0-.66-.46l.13-.13.3.17.35-.34h-1v-.17H59.4l0,0Zm-.64-.1a2.65,2.65,0,0,0-.29-.3l.13-.1a2.06,2.06,0,0,1,.3.28Z"/>
      <path class="cls-90" d="M59.82,57c0,.09-.1.18-.16.27v1.07h-.17v-.83a1.2,1.2,0,0,1-.18.2,1.2,1.2,0,0,0-.11-.17,2.1,2.1,0,0,0,.45-.6Zm0-.43a3.48,3.48,0,0,1-.48.53c0-.05-.07-.12-.09-.16a2.07,2.07,0,0,0,.4-.44Zm-.09,1.62a1,1,0,0,0,.17-.37l.14,0a1.18,1.18,0,0,1-.17.4Zm1.36-.49h-.64l.14.24-.15.06a1.49,1.49,0,0,0-.13-.25l.13,0h-.62v-.15h1.27Zm-.77-.77a.5.5,0,0,0,0-.12h-.5v-.15h.52c0-.06,0-.12,0-.16h.2l0,.16h.54v.15h-.56s0,.08,0,.12H61v.51H59.89v-.51Zm-.08.14H60v.23h.17Zm.34,1.1c.06,0,.07,0,.08-.18a.67.67,0,0,0,.15.06c0,.21-.07.26-.21.26H60.3c-.18,0-.23,0-.23-.19v-.28h.16v.28s0,.05.09.05Zm0-1.1h-.18v.23h.18Zm.13.23h.18v-.23h-.18Zm.22.5a1.56,1.56,0,0,1,.2.38l-.14.06a2.35,2.35,0,0,0-.2-.38Z"/>
      <path class="cls-90" d="M63.06,58h-.41v.33h-.18V58H62v-.1c-.27.21-.32.25-.34.29l-.08-.12a.25.25,0,0,0,.07-.17v-.54h-.11a1.61,1.61,0,0,1-.21,1,.69.69,0,0,0-.11-.13,1.51,1.51,0,0,0,.17-.83h-.15v-.17h.28v-.65h.16v.65H62v.17H61.8v.51l.15-.11,0,.11v0h.47v-.21h-.2a.46.46,0,0,0-.17,0L62,57.49s.07-.05.1-.12l.09-.18h-.16V57h.22a1.42,1.42,0,0,0,.07-.22l.18,0-.06.17H63v.15h-.54l-.14.27h.19v-.19h.18v.19H63v.16h-.35v.21h.41Zm-1.72-.86a4.64,4.64,0,0,0-.09-.46l.12,0c0,.15.08.33.1.46Zm.63-.46-.15.46-.12,0a3.23,3.23,0,0,0,.12-.47Zm.19.3H62V56.6h1V57h-.17v-.21h-.69Z"/>
      <path class="cls-90" d="M63.21,46.86a2.66,2.66,0,0,1-.19.52,1.43,1.43,0,0,0,.73.78,1.09,1.09,0,0,0-.13.17,1.57,1.57,0,0,1-.71-.75,2,2,0,0,1-.86.76.55.55,0,0,0-.14-.17A1.79,1.79,0,0,0,63,47h-.47a1.84,1.84,0,0,1-.44.57.73.73,0,0,0-.16-.14,2,2,0,0,0,.59-.93l.2,0c0,.09-.06.18-.1.27h.5Z"/>
      <path class="cls-90" d="M64.57,46.65a4.76,4.76,0,0,1-.19.53.63.63,0,0,1,.17.43.31.31,0,0,1-.08.24l-.11,0h-.13a.43.43,0,0,0,0-.16h.11l.06,0a.2.2,0,0,0,0-.13.59.59,0,0,0-.17-.38,3.36,3.36,0,0,0,.14-.45h-.21v1.58H64V46.58h.47Zm.65.79v.17h.41v.14h-.41v.12h.38V48h-.38v.14h.51v.15H64.5v-.15h.55V48h-.34v-.13h.34v-.12h-.28c0,.06-.07.13-.11.18l-.13-.09a.94.94,0,0,0,.18-.39l.16,0,0,.12h.22v-.17h-.29v-.13l-.18,0-.09-.15a2.09,2.09,0,0,0,.5-.16l-.17-.18a1.12,1.12,0,0,1-.2.17.68.68,0,0,0-.12-.12,1.13,1.13,0,0,0,.39-.44l.18,0s0,.08-.07.13h.5l.12.06a1,1,0,0,1-.33.36,1.69,1.69,0,0,0,.48.15.78.78,0,0,0-.1.15l-.15,0v.13Zm.27-.14a1.6,1.6,0,0,1-.35-.15,2.75,2.75,0,0,1-.36.15Zm-.56-.52a1,1,0,0,0,.21.19,1,1,0,0,0,.22-.19Z"/>
      <path class="cls-90" d="M52.91,38.48h.47v.89h-.17v-.44H53a.5.5,0,0,1-.28.46.41.41,0,0,0-.1-.13.38.38,0,0,0,.21-.33h-.21v-.16h.6v-.14h-.48V37.7h.18Zm1-.08h-.88v-.8H54Zm-.19-.68h-.51v.1h.51Zm0,.22h-.51v.11h.51Zm0,.23h-.51v.1h.51Zm.57.6v.6h-.18v-.44H53.8v.44h-.18v-.89h.48V37.7h.19v.93H53.8v.14Z"/>
      <path class="cls-90" d="M55.35,37.69c-.07.16-.16.35-.24.5a.56.56,0,0,1,.21.43.27.27,0,0,1-.09.24.29.29,0,0,1-.13,0h-.16a.53.53,0,0,0,0-.17h.2a.14.14,0,0,0,0-.13.51.51,0,0,0-.21-.38c.06-.13.13-.3.18-.44h-.26v1.59h-.18V37.62h.54Zm1,0v1.69h-.19v-.13h-.53v.14h-.18v-1.7Zm-.72.18v.49h.53v-.49Zm.53,1.2V38.5h-.53V39Z"/>
      <path class="cls-90" d="M57.34,20.85a.41.41,0,0,1-.07.11h.48v.14H56.51a.5.5,0,0,1,0,.12h.38v.06c0,.21,0,.3-.08.34a.18.18,0,0,1-.12.05h-.21a.25.25,0,0,0,0-.14h.17s0,0,.06,0a.43.43,0,0,0,0-.17h-.23a.54.54,0,0,1-.4.34.38.38,0,0,0-.09-.12.5.5,0,0,0,.32-.22h-.24v-.13h.28s0-.08,0-.12H56V21h.49a.39.39,0,0,0-.06-.11l.11,0h-.34v-.38h1.34v.38h-.35Zm.42-.87v.14H57v.1h.65v.13H56.16v-.13h.63v-.1H56V20h.77v-.13H57V20Zm-1.37.72h1v-.13h-1Zm.24.13a.5.5,0,0,1,.08.12h.37a.75.75,0,0,0,.06-.13Zm.34.35h.7v.5h-.18v-.05h-.35v.05H57Zm.17.13v.18h.35v-.18Z"/>
      <path class="cls-90" d="M58.35,21.2l.2-.06,0,.17-.56.17,0-.18.21-.05v-.53H58v-.17h.18v-.4H58V20h.57v.17h-.2v.4h.16v.17h-.16Zm.92-.49c0,.06,0,.12-.05.17h.54v.63c0,.07,0,.12-.06.14a.32.32,0,0,1-.19,0,.55.55,0,0,0,0-.17h.11s0,0,0,0V21h-.16v.63h-.15V21h-.16v.63H59V21h-.15v.64h-.17v-.8h.4c0-.05,0-.11,0-.17h-.5v-.16h1.2v.16Zm.45-.3h-1v-.48h.17v.32h.26v-.4h.17v.4h.28v-.32h.17Z"/>
      <path class="cls-90" d="M64.66,4.51h.48v.88H65V5h-.22a.5.5,0,0,1-.28.47.45.45,0,0,0-.1-.14A.36.36,0,0,0,64.57,5h-.21V4.79H65V4.66h-.48V3.73h.18Zm1-.09h-.88v-.8h.88Zm-.19-.67H65v.1h.51Zm0,.22H65v.1h.51Zm0,.22H65V4.3h.51Zm.57.61v.6H65.9V5h-.35V5.4h-.18V4.51h.48V3.73H66v.93h-.49V4.8Z"/>
      <path class="cls-90" d="M68.13,4.26v.18h-1a2.36,2.36,0,0,1-.6.85l-.15-.14a1.84,1.84,0,0,0,.53-.71h-.49V4.26H67L67.05,4l.19,0c0,.08,0,.16-.07.24ZM66.6,4.15h-.19V3.76h.79a1.19,1.19,0,0,0-.08-.16l.2-.06a1.38,1.38,0,0,1,.1.22h.69v.39h-.19V3.93H66.6Zm1.1.59c.13.17.32.41.41.55l-.17.1-.08-.13a4.84,4.84,0,0,0-1,.1l-.06-.18s.09,0,.14-.12a2.79,2.79,0,0,0,.35-.56l.19.07a4.15,4.15,0,0,1-.38.58l.62-.05-.21-.27Z"/>
      <path class="cls-90" d="M74.57,36.15a1.15,1.15,0,0,0,.8.71.57.57,0,0,0-.12.18,1.32,1.32,0,0,1-.81-.74,1.26,1.26,0,0,1-.8.74.61.61,0,0,0-.12-.16,1.12,1.12,0,0,0,.76-.73h-.7V36h.74a1.41,1.41,0,0,0,0-.2v-.21h-.68v-.2h1.57v.2h-.7v.21a1.34,1.34,0,0,1,0,.2h.79v.19Z"/>
      <path class="cls-90" d="M76.45,35.56a1.15,1.15,0,0,1-.19.28l-.13-.12,0,0h-.28c0,.09,0,.17,0,.25h.33V36a3.24,3.24,0,0,1-.07.93A.21.21,0,0,1,76,37h-.17a.3.3,0,0,0,0-.16h.14s0,0,0,0a2.34,2.34,0,0,0,.06-.72h-.18a2.1,2.1,0,0,1-.22.94.53.53,0,0,0-.13-.13,2.57,2.57,0,0,0,.21-1.23h-.19v-.16h.33a1.11,1.11,0,0,0-.13-.27l.16,0a2.34,2.34,0,0,1,.14.27l-.14.05h.32v.11a1.49,1.49,0,0,0,.21-.44l.16,0-.06.17h.81v.15Zm.9.94v.15H76.26V36.5h.21v-.59h-.13v-.16h.13v-.12h.16v.12H77v-.12h.16v.12h.15v.16h-.15v.59Zm-.62.22a1.48,1.48,0,0,1-.33.33l-.14-.11a.9.9,0,0,0,.3-.28Zm-.1-.81V36H77v-.1Zm0,.34H77v-.11h-.36Zm0,.25H77v-.12h-.36Zm.37.16a1.76,1.76,0,0,1,.31.29l-.13.1-.31-.31Z"/>
      <path class="cls-90" d="M78,35.29h.16l-.56,2h-.16Z"/>
      <path class="cls-90" d="M80.1,35.57H78.94a2.21,2.21,0,0,1,.11.21l-.15.06h.48a2.1,2.1,0,0,0,.13-.26l.2,0-.15.22H80v1c0,.1,0,.13-.09.16a1.34,1.34,0,0,1-.33,0,.42.42,0,0,0-.06-.14h.26s0,0,0,0V36H78.63v1h-.18v-1.2h.42a1.13,1.13,0,0,0-.11-.22l.14,0h-.55v-.16h.81l-.07-.16.18,0c0,.07.07.15.1.21h.73ZM79,36.79v.09h-.16v-.53l-.1.06-.07-.15A1.66,1.66,0,0,0,79,36l.14.06a2.43,2.43,0,0,1-.29.26h.73v.46Zm0-.33v.2h.44v-.2Zm.71-.06c-.09-.07-.26-.21-.39-.3l.11-.11c.12.09.3.21.39.29Z"/>
      <path class="cls-90" d="M81.38,35.34a2.59,2.59,0,0,1-.26.46h.21V36H81l-.17.18h.42V37h-.18v-.08h-.39V37h-.17v-.65l-.13.08a1.53,1.53,0,0,0-.11-.16,1.9,1.9,0,0,0,.49-.35h-.45V35.8h.38v-.21H80.4v-.16h.29v-.2h.17v.2h.23v.11l.12-.25Zm-.31.95h-.39v.16h.39Zm0,.48v-.18h-.39v.18Zm-.16-1a1.91,1.91,0,0,0,.15-.21h-.2v.21Zm1.24-.4c-.08.19-.18.42-.27.59a.64.64,0,0,1,.24.47c0,.14,0,.23-.11.28a.25.25,0,0,1-.13,0h-.19a.41.41,0,0,0,0-.18h.15s.07,0,.09,0,.06-.07.06-.14a.58.58,0,0,0-.25-.43c.08-.16.16-.37.22-.52h-.32V37h-.18V35.32H82Z"/>
      <path class="cls-90" d="M41.19,31.46l.2-.05,0,.17-.56.16,0-.18.21,0V31h-.19v-.17H41v-.4h-.2v-.17h.57v.17h-.2v.4h.16V31h-.16Zm.92-.48-.06.16h.54v.63a.17.17,0,0,1-.05.15.36.36,0,0,1-.19,0,.76.76,0,0,0-.06-.16h.11s0,0,0,0V31.3h-.16v.63h-.15V31.3H42v.63H41.8V31.3h-.14V32h-.17v-.81h.39a.94.94,0,0,0,0-.16h-.5v-.17h1.21V31Zm.45-.3H41.51V30.2h.16v.32h.27v-.4h.17v.4h.27V30.2h.18Z"/>
      <path class="cls-90" d="M43.35,30.23a2.79,2.79,0,0,1-.16.28,1.65,1.65,0,0,1,.1.67,1.42,1.42,0,0,1-.09.66.14.14,0,0,1-.1.07h-.2a.31.31,0,0,0,0-.17H43s.05,0,.06,0a1.61,1.61,0,0,0,0-.53,1.73,1.73,0,0,1-.23.29.54.54,0,0,0-.1-.16,1.18,1.18,0,0,0,.32-.43,1.85,1.85,0,0,0,0-.23,1.75,1.75,0,0,1-.2.19.7.7,0,0,0-.09-.17,1.24,1.24,0,0,0,.22-.19,1,1,0,0,0-.17-.25l.13-.08a.9.9,0,0,1,.15.19,2,2,0,0,0,.11-.2Zm.28-.07h.16v.69a1.27,1.27,0,0,1-.4,1.09.64.64,0,0,0-.1-.13,1.17,1.17,0,0,0,.34-1Zm-.1,1.15h-.14V30.4h.14Zm.78-.92v.21h.26v.91c0,.07,0,.1,0,.13a.42.42,0,0,1-.17,0,.33.33,0,0,0,0-.13h.09a0,0,0,0,0,0,0v-.75h-.12V32h-.17V30.76H44v.93h-.14V30.6h.26v-.21h-.29v-.15h.77v.15Z"/>
      <path class="cls-90" d="M33.53,19.12l0,.06a1.42,1.42,0,0,0,.54.57.7.7,0,0,0-.14.16,1,1,0,0,1-.16-.14v.11h-.65v-.09l-.17.14a.57.57,0,0,0-.13-.14v.59h-.37v.19h-.17V19.25h.54v.54a1.51,1.51,0,0,0,.56-.72Zm-.91.3h-.2v.79h.2Zm.36.66h.85v.82h-.19v-.09h-.48v.1H33Zm.18.16v.4h.48v-.4Zm.52-.53a1.77,1.77,0,0,1-.26-.35,1.77,1.77,0,0,1-.26.35Z"/>
      <path class="cls-90" d="M34.57,20.42l.2-.06,0,.17-.56.17,0-.18.21-.05v-.53h-.18v-.18h.18v-.39h-.2v-.18h.57v.18h-.2v.39h.16v.18h-.16Zm.92-.49a1.54,1.54,0,0,0-.05.17H36v.63c0,.07,0,.11-.06.14a.34.34,0,0,1-.19,0,.39.39,0,0,0-.06-.17h.12s0,0,0,0v-.46h-.16v.63H35.5v-.63h-.16v.63h-.15v-.63H35v.64h-.17v-.8h.4l0-.17h-.49v-.16H36v.16Zm.45-.3h-1v-.48h.17v.32h.26v-.4h.17v.4h.28v-.32h.17Z"/>
      <path class="cls-90" d="M36.68,19.15h.16l-.55,2h-.16Z"/>
      <path class="cls-90" d="M38.76,19.77V20h-1a2.36,2.36,0,0,1-.6.85L37,20.66A1.84,1.84,0,0,0,37.5,20H37v-.18h.57l.09-.28.19,0c0,.08,0,.16-.07.24Zm-1.54-.11H37v-.39h.78l-.07-.17.19-.05a1.38,1.38,0,0,1,.1.22h.69v.39h-.18v-.22H37.22Zm1.1.59c.14.17.32.41.41.55l-.16.1-.09-.14a5.14,5.14,0,0,0-1,.11,1.89,1.89,0,0,0-.06-.18s.09-.05.14-.12a3.13,3.13,0,0,0,.35-.56l.19.07a4.15,4.15,0,0,1-.38.58l.62-.05-.2-.28Z"/>
      <path class="cls-90" d="M39.46,20.7c0,.07,0,.12-.05.14a.31.31,0,0,1-.18,0,.83.83,0,0,0,0-.15.38.38,0,0,0,.11,0s0,0,0,0v-.48h-.15a2.43,2.43,0,0,1-.11.69.32.32,0,0,0-.12-.08,2.92,2.92,0,0,0,.1-.93v-.76h.41Zm-.13-.63v-.32h-.15v.32Zm-.15-.79v.32h.15v-.32ZM40,20.72c0,.07,0,.11-.05.14a.38.38,0,0,1-.2,0,.83.83,0,0,0,0-.15h.13s0,0,0,0v-.5h-.14a2.86,2.86,0,0,1-.1.69.44.44,0,0,0-.11-.08,3.21,3.21,0,0,0,.08-.88v-.81H40Zm-.28-1.44v.32h.14v-.32Zm.14.79v-.32h-.14v.32Zm.73.45H40v-.14h.54Zm.21-.38c0,.45,0,.62-.08.67a.15.15,0,0,1-.12.07h-.21a.27.27,0,0,0-.05-.15h.19a.11.11,0,0,0,.06,0,1.82,1.82,0,0,0,.05-.51h-.54v-.95h.13a1.46,1.46,0,0,0,.07-.19l.17,0-.09.16h.36v.07c0,.39,0,.53-.06.58a.15.15,0,0,1-.11.06h-.17a.25.25,0,0,0,0-.14h.14a.06.06,0,0,0,0,0,1.43,1.43,0,0,0,0-.42H40.2v.67h.55Zm-.45-.68.21.21-.09.09-.21-.22Z"/>
      <path class="cls-90" d="M23.61,33.48a1.47,1.47,0,0,1-.44.69,2,2,0,0,0,.75.24,1,1,0,0,0-.12.17,1.94,1.94,0,0,1-.79-.29,2.23,2.23,0,0,1-.8.3,1.51,1.51,0,0,0-.1-.17,2.13,2.13,0,0,0,.75-.25,1.7,1.7,0,0,1-.42-.67l.17,0a1.38,1.38,0,0,0,.41.61,1.27,1.27,0,0,0,.4-.63Zm-1-.33h-.44V33h.44v-.21h.18V33h.48v-.21h.19V33h.44v.18h-.44v.24h-.19v-.24h-.48v.24h-.18Z"/>
      <path class="cls-90" d="M25.91,34.1h-.76v.29a.16.16,0,0,1-.11.18,2,2,0,0,1-.39,0,.61.61,0,0,0-.07-.17h.33s.05,0,.05,0V34.1h-.83v-.18H25v-.1a1.8,1.8,0,0,0,.34-.17h-1v-.17h1.23l.12.1a2.51,2.51,0,0,1-.53.33v0h.76Zm-.11-1.19a8.74,8.74,0,0,1-1.52.14.47.47,0,0,0,0-.16,9,9,0,0,0,1.42-.13Zm-1.33.56a3,3,0,0,0-.14-.33l.16-.06a2.31,2.31,0,0,1,.16.31Zm.48,0a1.16,1.16,0,0,0-.11-.33l.18-.05a3,3,0,0,1,.11.31Zm.38,0a1.83,1.83,0,0,0,.21-.39l.19.08c-.08.13-.17.28-.24.37Z"/>
      <path class="cls-90" d="M26.48,34.11l.2,0,0,.16c-.2.06-.4.13-.57.17l0-.18.21-.05v-.53h-.18v-.17h.18v-.4h-.2v-.17h.57v.17h-.2v.4h.16v.17h-.16Zm.92-.48s0,.11,0,.16h.54v.63c0,.07,0,.12-.06.15a.33.33,0,0,1-.19,0,.43.43,0,0,0-.05-.16h.11s0,0,0,0V34h-.16v.63h-.15V34h-.16v.63H27.1V34H27v.65h-.17v-.81h.4s0-.11,0-.16h-.5v-.17h1.2v.17Zm.45-.3H26.8v-.48H27v.32h.26v-.41h.18v.41h.27v-.32h.17Z"/>
      <path class="cls-90" d="M28.6,32.85h.16L28.2,34.8H28Z"/>
      <path class="cls-90" d="M29.54,34a2.7,2.7,0,0,0-.15-.27v.88h-.18v-.81a2.15,2.15,0,0,1-.26.46,1.4,1.4,0,0,0-.09-.17,1.9,1.9,0,0,0,.32-.58h-.29v-.18h.32v-.27l-.26,0A.39.39,0,0,0,28.9,33a3.14,3.14,0,0,0,.64-.16l.1.15a1.49,1.49,0,0,1-.25.07v.31h.28v.18h-.28v0c.06.07.23.27.26.32Zm.94.09v.52h-.19v-.48l-.62.1,0-.18.65-.11V32.76h.19V33.9l.22,0,0,.17ZM30,33.81a1.62,1.62,0,0,0-.33-.29l.12-.11a2,2,0,0,1,.34.28Zm.05-.52a1.46,1.46,0,0,0-.31-.29l.13-.11a1.73,1.73,0,0,1,.31.28Z"/>
      <path class="cls-90" d="M31.72,34.12a.57.57,0,0,0,0,.16,2,2,0,0,0-.51.27.83.83,0,0,0-.09-.16.18.18,0,0,0,.09-.16V34h-.3V33.3h.14v.51h.16v-.65H30.9V33h.34v-.24h.16V33h.32v.16H31.4v.65h.15V33.3h.15V34h-.3v.3Zm.6-.66c0,.65,0,1-.57,1.14a.61.61,0,0,0-.1-.14c.47-.14.5-.4.51-1Zm-.24-.25a1.46,1.46,0,0,0,.07-.19h-.38v-.16h.92V33h-.36c0,.07,0,.13-.08.19h.38v.91h-.17v-.76H32v.76h-.16v-.91Zm.26.95a2.55,2.55,0,0,1,.38.32l-.1.12a3.34,3.34,0,0,0-.38-.33Z"/>
      <path class="cls-90" d="M45.7,7.05V8h-.2V7.9H45v.64h-.19V7.9h-.52V8h-.19v-1h.71V6.71H45v.34Zm-.91.67V7.24h-.52v.48Zm.71,0V7.24H45v.48Z"/>
      <path class="cls-90" d="M47.49,8.32c.1,0,.12-.06.14-.3l.18.08c0,.3-.08.41-.31.41h-.41c-.25,0-.31-.07-.31-.33V8h-.45v.12h-.19V7h.64V6.71H47V7h.65V8H47v.17c0,.12,0,.14.14.14ZM46.33,7.17v.25h.45V7.17Zm.45.66V7.59h-.45v.24ZM47,7.17v.25h.46V7.17Zm.46.66V7.59H47v.24Z"/>
      <path class="cls-90" d="M48.47,6.79h.16l-.56,2h-.15Z"/>
      <path class="cls-90" d="M49,8.27l.52-.12a.81.81,0,0,0,0,.16,3.09,3.09,0,0,0-.67.18.41.41,0,0,0-.07-.15s0,0,0-.11V7.81h.58v-.2h-.62V7.44h.79V8H49Zm.63-1h-.82V6.82H49v.33h.18V6.71h.15v.44h.18V6.82h.16Zm.78,1.06s0-.06,0-.26a.41.41,0,0,0,.15.07c0,.24-.06.33-.17.33h-.1c-.13,0-.16-.06-.16-.23V7H50v.44a2.06,2.06,0,0,1-.25,1.13l-.14-.11a1.85,1.85,0,0,0,.22-1v-.6h.56V8.27c0,.08,0,.09,0,.09Z"/>
      <path class="cls-90" d="M52.38,6.88a1.28,1.28,0,0,1-.5.48,3.92,3.92,0,0,0,.73.15.62.62,0,0,0-.11.17,3,3,0,0,1-.84-.22,3.16,3.16,0,0,1-.83.21.91.91,0,0,0-.09-.17,3.08,3.08,0,0,0,.71-.15,1.64,1.64,0,0,1-.4-.34l.06,0h-.23V6.81h1.37Zm-.62,1.41h.79v.18H50.79V8.29h.78V8H51V7.83h.56V7.62h.19v.21h.56V8h-.56ZM51.26,7a1.29,1.29,0,0,0,.41.28A1.35,1.35,0,0,0,52.08,7Z"/>
      <path class="cls-90" d="M9.06,45.46v.16H7.25v-.16h.53a1.9,1.9,0,0,0-.12-.36l.17,0a3,3,0,0,1,.13.35l-.16.05h.52a3.42,3.42,0,0,0,.17-.4l.19,0a3.17,3.17,0,0,1-.17.37Zm-1.77-.9c.16-.05.38-.14.59-.23v-.25H7.31v-.17h.75v.82H7.88v-.25l-.52.23Zm.18-.43a1.81,1.81,0,0,1,.31.13l-.09.12-.3-.14Zm0,.76h.66S8,44.8,8,44.76l.17,0s.08.12.11.18H8.9v.16H7.42Zm.74-.33.61-.25v-.24H8.18v-.16H9v.83H8.77v-.29l-.55.26Zm.14-.43.34.13-.08.13-.33-.14Z"/>
      <path class="cls-90" d="M9.59,44.5a1,1,0,0,1-.2.52.57.57,0,0,0-.15-.12,1,1,0,0,0,.18-.64V44h.74l0-.21h.19a1.25,1.25,0,0,0,0,.21h.28a.79.79,0,0,0-.17-.14l.13-.07a1,1,0,0,1,.22.17l-.07,0H11v.17h-.63a2.23,2.23,0,0,0,.12.31,1.37,1.37,0,0,0,.22-.27l.17,0a2,2,0,0,1-.29.36.32.32,0,0,0,.22.13s.07-.06.08-.22l.15.08c0,.25-.09.32-.24.32a.45.45,0,0,1-.35-.2,1.75,1.75,0,0,1-.29.18l-.12-.14a1.87,1.87,0,0,0,.31-.17,1.68,1.68,0,0,1-.17-.43H9.6v.15h.48v.06c0,.26,0,.36-.07.41a.19.19,0,0,1-.11,0H9.69a.74.74,0,0,0,0-.14h.16l.06,0a.85.85,0,0,0,0-.22Zm1.23,1h.23v.17H9.25v-.17H9.5V45h1.32Zm-1.15,0h.21v-.31H9.67Zm.38-.31v.31h.21v-.31Zm.38,0v.31h.21v-.31Z"/>
      <path class="cls-90" d="M11.73,27.19a2.6,2.6,0,0,1-.16.47V29h-.18V28a1.28,1.28,0,0,1-.17.22.69.69,0,0,0-.1-.19,2,2,0,0,0,.44-.86Zm.66.23c0,.1-.05.2-.08.29h.51V29h-.18v-.11H12V29h-.17V27.71h.29a1.5,1.5,0,0,0,.06-.29h-.44v-.17H12.9v.17Zm.25.46H12v.32h.64Zm0,.81v-.32H12v.32Z"/>
      <path class="cls-90" d="M13.45,28a2.25,2.25,0,0,0-.32-.19l.1-.13a1.28,1.28,0,0,1,.33.17Zm-.29.83a4.94,4.94,0,0,0,.27-.63l.15.1c-.07.21-.17.44-.25.63Zm.36-1.32a1.38,1.38,0,0,0-.32-.22l.1-.13a1.16,1.16,0,0,1,.33.2Zm.1,0h.17V29h-.17Zm.28,0a2.06,2.06,0,0,0-.23-.31l.12-.09a1.26,1.26,0,0,1,.24.3Zm.73,1.16h-.75v-.17h.3v-.3h-.24v-.16h.24v-.28h-.27v-.16h.7v.16h-.26v.28h.23v.16h-.23v.3h.28Zm.27.05c0,.11,0,.17-.09.19a1,1,0,0,1-.35,0,1,1,0,0,0-.06-.18h.29s0,0,0-.05V27.41h-.65v-.18h.82Z"/>
      <path class="cls-90" d="M17.93,19.89c0,.09-.05.18-.07.26h.65v1.29h-.19v-.13h-.95v.13h-.19V20.15h.48a2,2,0,0,0,.05-.26H17v-.18H18.7v.18Zm.39.44h-.95v.32h.95Zm0,.81v-.32h-.95v.32Z"/>
      <path class="cls-90" d="M19.3,21l.2-.05,0,.16-.56.17,0-.18.21-.05v-.53H19V20.3h.18v-.4h-.2v-.17h.57v.17h-.2v.4h.16v.17H19.3Zm.92-.48a1,1,0,0,0,0,.16h.54v.63c0,.07,0,.12-.06.15a.36.36,0,0,1-.19,0,.31.31,0,0,0-.06-.16h.11a0,0,0,0,0,0,0v-.46h-.16v.63h-.15v-.63h-.16v.63h-.15v-.63h-.15v.65H19.6v-.81H20l0-.16h-.49V20.3h1.2v.17Zm.45-.3H19.62v-.49h.17V20h.26v-.4h.17V20h.28v-.32h.17Z"/>
      <path class="cls-90" d="M66.79,37.63a.78.78,0,0,1-.28-.05.06.06,0,0,1-.05-.07.07.07,0,0,1,.07-.08l.12,0,.12,0c.17,0,.23-.07.23-.17s0-.11-.14-.14a1.38,1.38,0,0,1-.27-.08.22.22,0,0,1-.13-.22.33.33,0,0,1,.35-.33.61.61,0,0,1,.24,0,.07.07,0,0,1,.06.07.08.08,0,0,1-.08.08l-.1,0h-.1c-.13,0-.2.06-.2.16s.05.11.14.13a1.23,1.23,0,0,1,.29.09.25.25,0,0,1,.11.22A.34.34,0,0,1,66.79,37.63Z"/>
      <path class="cls-90" d="M68,36.71h-.25v.83a.09.09,0,0,1-.08.09.08.08,0,0,1-.08-.09v-.83H67.3a.07.07,0,0,1-.08-.07.07.07,0,0,1,.08-.08H68a.08.08,0,0,1,.08.08A.08.08,0,0,1,68,36.71Z"/>
      <path class="cls-90" d="M68.68,37.63a.08.08,0,0,1-.07-.07,1.21,1.21,0,0,1,0-.18h-.38c0,.06,0,.12-.05.18a.08.08,0,0,1-.07.07.08.08,0,0,1-.08-.1,5,5,0,0,1,.29-.9c0-.07.06-.09.1-.09s.08,0,.11.09a7.3,7.3,0,0,1,.29.9A.09.09,0,0,1,68.68,37.63Zm-.31-.83-.15.43h.3Z"/>
      <path class="cls-90" d="M69.52,37.63a.1.1,0,0,1-.07-.05,3.72,3.72,0,0,0-.21-.39h-.17v.35a.08.08,0,1,1-.16,0v-.9a.07.07,0,0,1,.08-.08h.27c.23,0,.34.11.34.28v.06a.26.26,0,0,1-.19.26,2.37,2.37,0,0,1,.19.35A.08.08,0,0,1,69.52,37.63Zm-.09-.79c0-.07-.05-.13-.17-.13h-.19V37h.19c.11,0,.17-.06.17-.14Z"/>
    </g>
  </g>
</svg>