<svg xmlns="http://www.w3.org/2000/svg" xmlns:xlink="http://www.w3.org/1999/xlink" viewBox="0 0 23.48 35.08">
  <defs>
    <style>.cls-1,.cls-2,.cls-3,.cls-4,.cls-5,.cls-6{fill:none;stroke-linecap:round;stroke-linejoin:round;}.cls-1{stroke-width:0.07px;stroke:url(#未命名的渐变_7);}.cls-2,.cls-3,.cls-4,.cls-5,.cls-6{stroke-width:0.14px;}.cls-2{stroke:url(#未命名的渐变_15);}.cls-3{stroke:url(#未命名的渐变_15-2);}.cls-4{stroke:url(#未命名的渐变_15-3);}.cls-5{stroke:url(#未命名的渐变_15-4);}.cls-6{stroke:url(#未命名的渐变_15-5);}.cls-7{fill:#fff;}</style>
    <linearGradient id="未命名的渐变_7" x1="-11.24" y1="19.59" x2="3.26" y2="27.49" gradientTransform="matrix(0.88, -0.48, 0.48, 0.88, 5.88, -4.79)" gradientUnits="userSpaceOnUse">
      <stop offset="0" stop-color="#fff"/>
      <stop offset="1" stop-color="#00dcff"/>
    </linearGradient>
    <linearGradient id="未命名的渐变_15" x1="0.99" y1="1.48" x2="2.93" y2="1.48" gradientUnits="userSpaceOnUse">
      <stop offset="0" stop-color="#00dcff"/>
      <stop offset="1" stop-color="#fff"/>
    </linearGradient>
    <linearGradient id="未命名的渐变_15-2" x1="0" y1="1.44" x2="4.14" y2="1.44" xlink:href="#未命名的渐变_15"/>
    <linearGradient id="未命名的渐变_15-3" x1="1.79" y1="3.11" x2="1.93" y2="3.11" xlink:href="#未命名的渐变_15"/>
    <linearGradient id="未命名的渐变_15-4" x1="2.26" y1="3.11" x2="2.4" y2="3.11" xlink:href="#未命名的渐变_15"/>
    <linearGradient id="未命名的渐变_15-5" x1="0.99" y1="3.4" x2="3.16" y2="3.4" xlink:href="#未命名的渐变_15"/>
  </defs>
  <g id="图层_2" data-name="图层 2">
    <g id="图层_5" data-name="图层 5">
      <path class="cls-1" d="M21.67,33.58C23.9,6.61,5.41,2,5.41,2"
              stroke-dasharray="38.475"  >
        <animate attributeName="stroke-dashoffset" from="38.475" to="0" dur="2s" repeatCount="indefinite" fill="freeze"></animate>
      </path>
      <path class="cls-2" d="M2.86,1.58c-.1-.45-.14-.73-.52-.72S.88.49,1.08.79s.88,0,1,.62a1.93,1.93,0,0,1,.09.87"/>
      <rect class="cls-3" x="0.07" y="0.07" width="4" height="2.74"/>
      <line class="cls-4" x1="1.86" y1="2.81" x2="1.86" y2="3.4"/>
      <line class="cls-5" x1="2.33" y1="2.81" x2="2.33" y2="3.4"/>
      <line class="cls-6" x1="3.09" y1="3.4" x2="1.06" y2="3.4"/>
      <path class="cls-7" d="M1.88,4.36v1H1.69V5.21H1.17v.63H1V5.21H.46v.12H.27v-1H1V4h.2v.35ZM1,5V4.54H.46V5Zm.72,0V4.54H1.17V5Z"/>
      <path class="cls-7" d="M3.67,5.63c.11,0,.13-.06.15-.31A.37.37,0,0,0,4,5.4c0,.31-.09.42-.31.42H3.28C3,5.82,3,5.75,3,5.48V5.32H2.52v.12h-.2V4.3H3V4h.2V4.3h.65v1H3.16v.17c0,.12,0,.14.13.14ZM2.52,4.48v.24H3V4.48ZM3,5.14V4.89H2.52v.25Zm.2-.66v.24h.46V4.48Zm.46.66V4.89H3.16v.25Z"/>
      <path class="cls-7" d="M20.65,35.08a.77.77,0,0,1-.27,0,.09.09,0,0,1-.06-.08.08.08,0,0,1,.07-.08l.12,0h.13c.16,0,.23-.07.23-.17s0-.11-.14-.14a1.43,1.43,0,0,1-.28-.07.24.24,0,0,1-.12-.23.31.31,0,0,1,.35-.32.93.93,0,0,1,.24,0,.1.1,0,0,1,0,.08.08.08,0,0,1-.07.08l-.11,0h-.1c-.13,0-.2.06-.2.15s.05.11.14.14a1.11,1.11,0,0,1,.29.08.25.25,0,0,1,.12.23C21,35,20.88,35.08,20.65,35.08Z"/>
      <path class="cls-7" d="M21.82,34.17h-.24V35a.09.09,0,0,1-.09.08.09.09,0,0,1-.08-.08v-.83h-.25a.08.08,0,0,1,0-.16h.66a.08.08,0,1,1,0,.16Z"/>
      <path class="cls-7" d="M22.55,35.08a.08.08,0,0,1-.08-.07,1.21,1.21,0,0,0,0-.18h-.37A1.21,1.21,0,0,0,22,35a.08.08,0,0,1-.08.07.09.09,0,0,1-.08-.1,6.31,6.31,0,0,1,.29-.9.11.11,0,0,1,.11-.08s.07,0,.1.08a5.26,5.26,0,0,1,.29.9A.08.08,0,0,1,22.55,35.08Zm-.31-.82a3.12,3.12,0,0,0-.15.43h.29C22.34,34.54,22.29,34.4,22.24,34.26Z"/>
      <path class="cls-7" d="M23.39,35.08s-.05,0-.07,0a3.84,3.84,0,0,0-.22-.39h-.16V35a.09.09,0,0,1-.09.08.09.09,0,0,1-.08-.08v-.91a.09.09,0,0,1,.08-.08h.28c.23,0,.33.11.33.29v.06a.25.25,0,0,1-.18.25l.19.35A.09.09,0,0,1,23.39,35.08Zm-.09-.78c0-.08-.05-.13-.17-.13h-.19v.32h.18c.12,0,.18-.05.18-.13Z"/>
    </g>
  </g>
</svg>