<svg xmlns="http://www.w3.org/2000/svg" xmlns:xlink="http://www.w3.org/1999/xlink" viewBox="0 0 162.52 143.25">
  <defs>
    <style>.cls-1{isolation:isolate;}.cls-10,.cls-11,.cls-12,.cls-13,.cls-14,.cls-15,.cls-16,.cls-17,.cls-18,.cls-19,.cls-2,.cls-20,.cls-21,.cls-22,.cls-23,.cls-24,.cls-25,.cls-26,.cls-27,.cls-28,.cls-29,.cls-30,.cls-31,.cls-32,.cls-33,.cls-34,.cls-35,.cls-36,.cls-37,.cls-38,.cls-39,.cls-4,.cls-40,.cls-41,.cls-42,.cls-43,.cls-44,.cls-45,.cls-46,.cls-47,.cls-49,.cls-5,.cls-56,.cls-57,.cls-58,.cls-59,.cls-6,.cls-63,.cls-64,.cls-7,.cls-8,.cls-9{fill-rule:evenodd;}.cls-2{opacity:0.4;fill:url(#未命名的渐变_11);}.cls-3{opacity:0.5;mix-blend-mode:screen;}.cls-4{fill:url(#未命名的渐变_11-2);}.cls-5{fill:url(#未命名的渐变_11-3);}.cls-6{fill:url(#未命名的渐变_11-4);}.cls-7{fill:url(#未命名的渐变_11-5);}.cls-8{fill:url(#未命名的渐变_11-6);}.cls-9{fill:url(#未命名的渐变_11-7);}.cls-10{fill:url(#未命名的渐变_11-8);}.cls-11{fill:url(#未命名的渐变_11-9);}.cls-12{fill:url(#未命名的渐变_11-10);}.cls-13{fill:url(#未命名的渐变_11-11);}.cls-14{fill:url(#未命名的渐变_11-12);}.cls-15{fill:url(#未命名的渐变_11-13);}.cls-16{fill:url(#未命名的渐变_11-14);}.cls-17{fill:url(#未命名的渐变_11-15);}.cls-18{fill:url(#未命名的渐变_11-16);}.cls-19{fill:url(#未命名的渐变_11-17);}.cls-20{fill:url(#未命名的渐变_11-18);}.cls-21{fill:url(#未命名的渐变_11-19);}.cls-22{fill:url(#未命名的渐变_11-20);}.cls-23{fill:url(#未命名的渐变_11-21);}.cls-24{fill:url(#未命名的渐变_11-22);}.cls-25{fill:url(#未命名的渐变_11-23);}.cls-26{fill:url(#未命名的渐变_11-24);}.cls-27{fill:url(#未命名的渐变_11-25);}.cls-28{fill:url(#未命名的渐变_11-26);}.cls-29{fill:url(#未命名的渐变_11-27);}.cls-30{fill:url(#未命名的渐变_11-28);}.cls-31{fill:url(#未命名的渐变_11-29);}.cls-32{fill:url(#未命名的渐变_11-30);}.cls-33{fill:url(#未命名的渐变_11-31);}.cls-34{fill:url(#未命名的渐变_11-32);}.cls-35{fill:url(#未命名的渐变_11-33);}.cls-36{fill:url(#未命名的渐变_11-34);}.cls-37{fill:url(#未命名的渐变_11-35);}.cls-38{fill:url(#未命名的渐变_11-36);}.cls-39{fill:url(#未命名的渐变_11-37);}.cls-40{fill:url(#未命名的渐变_11-38);}.cls-41{fill:url(#未命名的渐变_11-39);}.cls-42{fill:url(#未命名的渐变_11-40);}.cls-43{fill:url(#未命名的渐变_11-41);}.cls-44{fill:url(#未命名的渐变_11-42);}.cls-45{fill:url(#未命名的渐变_11-43);}.cls-46{fill:url(#未命名的渐变_11-44);}.cls-47{fill:url(#未命名的渐变_11-45);}.cls-48{fill:url(#未命名的渐变_200);}.cls-49{fill:url(#未命名的渐变_88);}.cls-50{fill:url(#未命名的渐变_201);}.cls-51{fill:url(#未命名的渐变_201-2);}.cls-52{fill:url(#未命名的渐变_201-3);}.cls-53{fill:url(#未命名的渐变_201-4);}.cls-54{fill:url(#未命名的渐变_201-5);}.cls-55{fill:url(#未命名的渐变_201-6);}.cls-56{fill:url(#未命名的渐变_201-7);}.cls-57{fill:url(#未命名的渐变_201-8);}.cls-58{fill:url(#未命名的渐变_201-9);}.cls-59{fill:url(#未命名的渐变_201-10);}.cls-60{fill:url(#未命名的渐变_78);}.cls-61{fill:url(#未命名的渐变_78-2);}.cls-62{fill:url(#未命名的渐变_78-3);}.cls-63{fill:url(#未命名的渐变_78-4);}.cls-64,.cls-65{fill:none;stroke:#fff;stroke-miterlimit:10;stroke-width:0.07px;}</style>
    <linearGradient id="未命名的渐变_11" x1="5.93" y1="63.02" x2="117.09" y2="63.02" gradientUnits="userSpaceOnUse">
      <stop offset="0" stop-color="#00dcff"/>
      <stop offset="1" stop-color="#0f58d6"/>
    </linearGradient>
    <linearGradient id="未命名的渐变_11-2" x1="101.59" y1="130.03" x2="110.02" y2="130.03" xlink:href="#未命名的渐变_11"/>
    <linearGradient id="未命名的渐变_11-3" x1="140.56" y1="109.78" x2="146.1" y2="109.78" xlink:href="#未命名的渐变_11"/>
    <linearGradient id="未命名的渐变_11-4" x1="119.54" y1="117.71" x2="120.16" y2="117.71" xlink:href="#未命名的渐变_11"/>
    <linearGradient id="未命名的渐变_11-5" x1="129.74" y1="122.63" x2="130.36" y2="122.63" xlink:href="#未命名的渐变_11"/>
    <linearGradient id="未命名的渐变_11-6" x1="102.86" y1="123.03" x2="103.4" y2="123.03" xlink:href="#未命名的渐变_11"/>
    <linearGradient id="未命名的渐变_11-7" x1="138.48" y1="110.7" x2="139.13" y2="110.7" xlink:href="#未命名的渐变_11"/>
    <linearGradient id="未命名的渐变_11-8" x1="154.09" y1="99.39" x2="154.62" y2="99.39" xlink:href="#未命名的渐变_11"/>
    <linearGradient id="未命名的渐变_11-9" x1="145.73" y1="115.46" x2="146.29" y2="115.46" xlink:href="#未命名的渐变_11"/>
    <linearGradient id="未命名的渐变_11-10" x1="145.4" y1="113.3" x2="145.94" y2="113.3" xlink:href="#未命名的渐变_11"/>
    <linearGradient id="未命名的渐变_11-11" x1="150.48" y1="100.58" x2="151.01" y2="100.58" xlink:href="#未命名的渐变_11"/>
    <linearGradient id="未命名的渐变_11-12" x1="150.97" y1="99.83" x2="151.5" y2="99.83" xlink:href="#未命名的渐变_11"/>
    <linearGradient id="未命名的渐变_11-13" x1="126.64" y1="121.45" x2="127.26" y2="121.45" xlink:href="#未命名的渐变_11"/>
    <linearGradient id="未命名的渐变_11-14" x1="126.64" y1="122.28" x2="127.27" y2="122.28" xlink:href="#未命名的渐变_11"/>
    <linearGradient id="未命名的渐变_11-15" x1="123.19" y1="142.07" x2="123.81" y2="142.07" xlink:href="#未命名的渐变_11"/>
    <linearGradient id="未命名的渐变_11-16" x1="122.52" y1="139.88" x2="123.15" y2="139.88" xlink:href="#未命名的渐变_11"/>
    <linearGradient id="未命名的渐变_11-17" x1="120.71" y1="140.88" x2="121.34" y2="140.88" xlink:href="#未命名的渐变_11"/>
    <linearGradient id="未命名的渐变_11-18" x1="114.73" y1="137.58" x2="115.35" y2="137.58" xlink:href="#未命名的渐变_11"/>
    <linearGradient id="未命名的渐变_11-19" x1="116.5" y1="138.92" x2="117.12" y2="138.92" xlink:href="#未命名的渐变_11"/>
    <linearGradient id="未命名的渐变_11-20" x1="112.74" y1="139.72" x2="113.37" y2="139.72" xlink:href="#未命名的渐变_11"/>
    <linearGradient id="未命名的渐变_11-21" x1="115.84" y1="141.19" x2="116.46" y2="141.19" xlink:href="#未命名的渐变_11"/>
    <linearGradient id="未命名的渐变_11-22" x1="111.23" y1="142.45" x2="111.85" y2="142.45" xlink:href="#未命名的渐变_11"/>
    <linearGradient id="未命名的渐变_11-23" x1="121.12" y1="142.94" x2="121.74" y2="142.94" xlink:href="#未命名的渐变_11"/>
    <linearGradient id="未命名的渐变_11-24" x1="124" y1="140.47" x2="124.63" y2="140.47" xlink:href="#未命名的渐变_11"/>
    <linearGradient id="未命名的渐变_11-25" x1="114.96" y1="138.2" x2="115.58" y2="138.2" xlink:href="#未命名的渐变_11"/>
    <linearGradient id="未命名的渐变_11-26" x1="138.29" y1="111.6" x2="138.82" y2="111.6" xlink:href="#未命名的渐变_11"/>
    <linearGradient id="未命名的渐变_11-27" x1="138.06" y1="112.33" x2="138.59" y2="112.33" xlink:href="#未命名的渐变_11"/>
    <linearGradient id="未命名的渐变_11-28" x1="145.99" y1="102.32" x2="146.53" y2="102.32" xlink:href="#未命名的渐变_11"/>
    <linearGradient id="未命名的渐变_11-29" x1="145.84" y1="101.78" x2="146.37" y2="101.78" xlink:href="#未命名的渐变_11"/>
    <linearGradient id="未命名的渐变_11-30" x1="140.83" y1="52.56" x2="141.33" y2="52.56" xlink:href="#未命名的渐变_11"/>
    <linearGradient id="未命名的渐变_11-31" x1="107.79" y1="122.56" x2="108.38" y2="122.56" xlink:href="#未命名的渐变_11"/>
    <linearGradient id="未命名的渐变_11-32" x1="115.01" y1="120.24" x2="115.38" y2="120.24" xlink:href="#未命名的渐变_11"/>
    <linearGradient id="未命名的渐变_11-33" x1="115.56" y1="120.13" x2="116" y2="120.13" xlink:href="#未命名的渐变_11"/>
    <linearGradient id="未命名的渐变_11-34" x1="129.76" y1="112.24" x2="130.43" y2="112.24" xlink:href="#未命名的渐变_11"/>
    <linearGradient id="未命名的渐变_11-35" x1="134.07" y1="107.93" x2="134.58" y2="107.93" xlink:href="#未命名的渐变_11"/>
    <linearGradient id="未命名的渐变_11-36" x1="138.2" y1="103.36" x2="138.86" y2="103.36" xlink:href="#未命名的渐变_11"/>
    <linearGradient id="未命名的渐变_11-37" x1="141.45" y1="80.9" x2="141.98" y2="80.9" xlink:href="#未命名的渐变_11"/>
    <linearGradient id="未命名的渐变_11-38" x1="139.84" y1="80.09" x2="142.26" y2="80.09" xlink:href="#未命名的渐变_11"/>
    <linearGradient id="未命名的渐变_11-39" x1="143.6" y1="84.61" x2="144.06" y2="84.61" xlink:href="#未命名的渐变_11"/>
    <linearGradient id="未命名的渐变_11-40" x1="144.01" y1="83.95" x2="144.52" y2="83.95" xlink:href="#未命名的渐变_11"/>
    <linearGradient id="未命名的渐变_11-41" x1="143.12" y1="85.5" x2="144.53" y2="85.5" xlink:href="#未命名的渐变_11"/>
    <linearGradient id="未命名的渐变_11-42" x1="141.79" y1="93.08" x2="142.39" y2="93.08" xlink:href="#未命名的渐变_11"/>
    <linearGradient id="未命名的渐变_11-43" x1="144.66" y1="85.84" x2="144.9" y2="85.84" xlink:href="#未命名的渐变_11"/>
    <linearGradient id="未命名的渐变_11-44" x1="144.22" y1="84.65" x2="144.59" y2="84.65" xlink:href="#未命名的渐变_11"/>
    <linearGradient id="未命名的渐变_11-45" x1="143.82" y1="86.7" x2="144.27" y2="86.7" xlink:href="#未命名的渐变_11"/>
    <linearGradient id="未命名的渐变_200" x1="0.04" y1="66.9" x2="162.49" y2="66.9" gradientUnits="userSpaceOnUse">
      <stop offset="0" stop-color="#80edff"/>
      <stop offset="1" stop-color="#00dcff"/>
    </linearGradient>
    <linearGradient id="未命名的渐变_88" x1="119.54" y1="117.42" x2="121.11" y2="117.42" gradientUnits="userSpaceOnUse">
      <stop offset="0" stop-color="#0b78e0"/>
      <stop offset="1" stop-color="#03c1f7"/>
    </linearGradient>
    <linearGradient id="未命名的渐变_201" x1="107.79" y1="122.56" x2="108.38" y2="122.56" gradientUnits="userSpaceOnUse">
      <stop offset="0" stop-color="#00dcff"/>
      <stop offset="1" stop-color="#0b78e0"/>
    </linearGradient>
    <linearGradient id="未命名的渐变_201-2" x1="115.01" y1="120.24" x2="115.38" y2="120.24" xlink:href="#未命名的渐变_201"/>
    <linearGradient id="未命名的渐变_201-3" x1="131.3" y1="110.96" x2="131.4" y2="110.96" xlink:href="#未命名的渐变_201"/>
    <linearGradient id="未命名的渐变_201-4" x1="105.15" y1="115.91" x2="130.83" y2="115.91" xlink:href="#未命名的渐变_201"/>
    <linearGradient id="未命名的渐变_201-5" x1="115.56" y1="120.13" x2="116" y2="120.13" xlink:href="#未命名的渐变_201"/>
    <linearGradient id="未命名的渐变_201-6" x1="129.76" y1="112.24" x2="130.43" y2="112.24" xlink:href="#未命名的渐变_201"/>
    <linearGradient id="未命名的渐变_201-7" x1="127.84" y1="45.26" x2="146.67" y2="45.26" xlink:href="#未命名的渐变_201"/>
    <linearGradient id="未命名的渐变_201-8" x1="140.83" y1="52.56" x2="141.33" y2="52.56" xlink:href="#未命名的渐变_201"/>
    <linearGradient id="未命名的渐变_201-9" x1="138.84" y1="36.49" x2="139.08" y2="36.49" xlink:href="#未命名的渐变_201"/>
    <linearGradient id="未命名的渐变_201-10" x1="118.73" y1="70.69" x2="142.08" y2="70.69" xlink:href="#未命名的渐变_201"/>
    <linearGradient id="未命名的渐变_78" x1="141.45" y1="80.9" x2="141.98" y2="80.9" gradientUnits="userSpaceOnUse">
      <stop offset="0" stop-color="#003383"/>
      <stop offset="1" stop-color="#0f58d6"/>
    </linearGradient>
    <linearGradient id="未命名的渐变_78-2" x1="139.84" y1="80.09" x2="142.26" y2="80.09" xlink:href="#未命名的渐变_78"/>
    <linearGradient id="未命名的渐变_78-3" x1="139.17" y1="82.09" x2="142.56" y2="82.09" xlink:href="#未命名的渐变_78"/>
    <linearGradient id="未命名的渐变_78-4" x1="118.67" y1="50.95" x2="124.18" y2="50.95" xlink:href="#未命名的渐变_78"/>
  </defs>
  <g class="cls-1">
    <g id="图层_2" data-name="图层 2">
      <g id="图层_10" data-name="图层 10"> 
        <g id="part3">
          <path class="cls-60" d="M141.45,80.86s.46.21.52.16-.11-.15-.31-.22S141.45,80.86,141.45,80.86Z"/>
          <path class="cls-61" d="M141.3,80.05a6.52,6.52,0,0,0-1.16-.46c-.45-.08-.26.26-.26.26s.67.42,1,.45a2.43,2.43,0,0,1,.69.23.69.69,0,0,0,.68,0c.17-.1-.1-.23-.28-.26A4.42,4.42,0,0,1,141.3,80.05Z"/>
          <path class="cls-62" d="M142.16,81.81A2.34,2.34,0,0,0,141,81c-.13-.05-.4-.2-.73-.37A.69.69,0,0,0,140,81c0,.16.06.34,0,.57a3.61,3.61,0,0,1-.21.57c0,.06-.24,0-.28.07s0,.26,0,.35a.64.64,0,0,1-.26.18h0c.1.08.39-.14.49-.06s.16.41.31.54.33.07.46.15a2.7,2.7,0,0,0,.31.2c.08-.06.12-.11.17-.15.35-.38,1-.36,1.45-.57S142.4,82.23,142.16,81.81Z"/>
          <path class="cls-63" d="M123.15,53.28a.29.29,0,0,0,.22,0c-.39,0-.29,0-.42-.18a2.61,2.61,0,0,0,0-.66.12.12,0,0,1-.15,0c-.22-.24-.61-.6-.32-.77a.54.54,0,0,1,.43,0c.12,0,.59-.29.68-.22s0,.24,0,.42c.12-.39.28-.8.3-.87a1.19,1.19,0,0,1,.12-.24l-.14-.06,0,0a.62.62,0,0,1-.14-.14c-.23-.34-.36-.65-.2-.88.05-.06.18,0,.27-.09a3.74,3.74,0,0,0,.29-.25l0,0,.09-.1v0a.16.16,0,0,0,0-.08l-.15-.07h0c-.22,0-.6.09-1,.11h0a1.24,1.24,0,0,1-.39,0,.79.79,0,0,1-.34-.23,7,7,0,0,1-.59-.64l-.14-.2-.16-.07c-.05,0-.09.34-.14.39s-.09.19-.14.26-.35-.13-.38-.1.24.27.22.3.23.3.23.3a3.6,3.6,0,0,0-.7.07c-.06,0-.12.45-.2.48s-.18.25-.3.29-.3-.06-.4,0c-.3.16-.48.39-.3.5.36.23.72.55.53.77s-.26.52-.57.61-.75.26-.56.64.37.34.3.56-.19.11-.22.2.11.26.23.36.08.13.17.15c.3.09.33.37.63.31.07,0,.09-.24.18-.28.3-.14.38,0,.53-.06s.31-.14.38,0a2.48,2.48,0,0,0,.32.35h0l.06.06c.14.1.2,0,.3-.16s.14-.25.22-.36h0a.43.43,0,0,1,.21-.21s0,0,0,0a.22.22,0,0,1,.11,0h0a.31.31,0,0,1,.13.09h0l.11,0h0l.08-.06s0,0,.05,0a.13.13,0,0,1,0,0A1.13,1.13,0,0,1,123.15,53.28Z"/>
        </g> 
      </g>
    </g>
  </g>
</svg>