<svg xmlns="http://www.w3.org/2000/svg" xmlns:xlink="http://www.w3.org/1999/xlink" viewBox="0 0 35.79 50.89">
  <defs>
    <style>.cls-1{font-size:1.46px;fill:#fff;font-family:SKFChevinOT-DemiBold, SKF Chevin OT;font-weight:300;}.cls-2{letter-spacing:-0.02em;}.cls-3{letter-spacing:-0.07em;}.cls-10,.cls-11,.cls-12,.cls-13,.cls-14,.cls-15,.cls-16,.cls-17,.cls-18,.cls-19,.cls-20,.cls-21,.cls-22,.cls-23,.cls-24,.cls-25,.cls-26,.cls-27,.cls-28,.cls-29,.cls-30,.cls-31,.cls-32,.cls-33,.cls-4,.cls-5,.cls-6,.cls-7,.cls-8,.cls-9{fill:none;stroke-linecap:round;stroke-linejoin:round;}.cls-10,.cls-11,.cls-12,.cls-13,.cls-14,.cls-15,.cls-16,.cls-17,.cls-18,.cls-19,.cls-20,.cls-21,.cls-22,.cls-23,.cls-24,.cls-25,.cls-26,.cls-27,.cls-28,.cls-29,.cls-4,.cls-5,.cls-6,.cls-7,.cls-8,.cls-9{stroke-width:0.14px;}.cls-4{stroke:url(#未命名的渐变_15);}.cls-5{stroke:url(#未命名的渐变_15-2);}.cls-6{stroke:url(#未命名的渐变_15-3);}.cls-7{stroke:url(#未命名的渐变_15-4);}.cls-8{stroke:url(#未命名的渐变_15-5);}.cls-9{stroke:url(#未命名的渐变_15-6);}.cls-10{stroke:url(#未命名的渐变_15-7);}.cls-11{stroke:url(#未命名的渐变_15-8);}.cls-12{stroke:url(#未命名的渐变_15-9);}.cls-13{stroke:url(#未命名的渐变_15-10);}.cls-14{stroke:url(#未命名的渐变_15-11);}.cls-15{stroke:url(#未命名的渐变_15-12);}.cls-16{stroke:url(#未命名的渐变_15-13);}.cls-17{stroke:url(#未命名的渐变_15-14);}.cls-18{stroke:url(#未命名的渐变_15-15);}.cls-19{stroke:url(#未命名的渐变_15-16);}.cls-20{stroke:url(#未命名的渐变_15-17);}.cls-21{stroke:url(#未命名的渐变_15-18);}.cls-22{stroke:url(#未命名的渐变_15-19);}.cls-23{stroke:url(#未命名的渐变_15-20);}.cls-24{stroke:url(#未命名的渐变_15-21);}.cls-25{stroke:url(#未命名的渐变_15-22);}.cls-26{stroke:url(#未命名的渐变_15-23);}.cls-27{stroke:url(#未命名的渐变_15-24);}.cls-28{stroke:url(#未命名的渐变_15-25);}.cls-29{stroke:url(#未命名的渐变_15-26);}.cls-30,.cls-31,.cls-32,.cls-33{stroke-width:0.07px;}.cls-30{stroke:url(#未命名的渐变_6);}.cls-31{stroke:url(#未命名的渐变_6-2);}.cls-32{stroke:url(#未命名的渐变_6-3);}.cls-33{stroke:url(#未命名的渐变_6-4);}</style>
    <linearGradient id="未命名的渐变_15" x1="2.21" y1="49.64" x2="3.62" y2="49.64" gradientUnits="userSpaceOnUse">
      <stop offset="0" stop-color="#00dcff"/>
      <stop offset="1" stop-color="#fff"/>
    </linearGradient>
    <linearGradient id="未命名的渐变_15-2" x1="2.21" y1="49.1" x2="3.53" y2="49.1" xlink:href="#未命名的渐变_15"/>
    <linearGradient id="未命名的渐变_15-3" x1="1.45" y1="47.87" x2="2.43" y2="47.87" xlink:href="#未命名的渐变_15"/>
    <linearGradient id="未命名的渐变_15-4" x1="0" y1="49.23" x2="1.44" y2="49.23" xlink:href="#未命名的渐变_15"/>
    <linearGradient id="未命名的渐变_15-5" x1="1.45" y1="49.64" x2="2.2" y2="49.64" xlink:href="#未命名的渐变_15"/>
    <linearGradient id="未命名的渐变_15-6" x1="25.71" y1="13.11" x2="27.11" y2="13.11" xlink:href="#未命名的渐变_15"/>
    <linearGradient id="未命名的渐变_15-7" x1="25.71" y1="12.57" x2="27.02" y2="12.57" xlink:href="#未命名的渐变_15"/>
    <linearGradient id="未命名的渐变_15-8" x1="24.94" y1="11.34" x2="25.93" y2="11.34" xlink:href="#未命名的渐变_15"/>
    <linearGradient id="未命名的渐变_15-9" x1="23.49" y1="12.7" x2="24.93" y2="12.7" xlink:href="#未命名的渐变_15"/>
    <linearGradient id="未命名的渐变_15-10" x1="24.94" y1="13.11" x2="25.7" y2="13.11" xlink:href="#未命名的渐变_15"/>
    <linearGradient id="未命名的渐变_15-11" x1="24.78" y1="28.89" x2="26.18" y2="28.89" xlink:href="#未命名的渐变_15"/>
    <linearGradient id="未命名的渐变_15-12" x1="24.78" y1="28.35" x2="26.1" y2="28.35" xlink:href="#未命名的渐变_15"/>
    <linearGradient id="未命名的渐变_15-13" x1="24.01" y1="27.12" x2="25" y2="27.12" xlink:href="#未命名的渐变_15"/>
    <linearGradient id="未命名的渐变_15-14" x1="22.56" y1="28.48" x2="24.01" y2="28.48" xlink:href="#未命名的渐变_15"/>
    <linearGradient id="未命名的渐变_15-15" x1="24.01" y1="28.89" x2="24.77" y2="28.89" xlink:href="#未命名的渐变_15"/>
    <linearGradient id="未命名的渐变_15-16" x1="18.82" y1="28.24" x2="20.76" y2="28.24" xlink:href="#未命名的渐变_15"/>
    <linearGradient id="未命名的渐变_15-17" x1="17.83" y1="28.21" x2="21.98" y2="28.21" xlink:href="#未命名的渐变_15"/>
    <linearGradient id="未命名的渐变_15-18" x1="19.62" y1="29.87" x2="19.76" y2="29.87" xlink:href="#未命名的渐变_15"/>
    <linearGradient id="未命名的渐变_15-19" x1="20.09" y1="29.87" x2="20.23" y2="29.87" xlink:href="#未命名的渐变_15"/>
    <linearGradient id="未命名的渐变_15-20" x1="18.82" y1="30.17" x2="20.99" y2="30.17" xlink:href="#未命名的渐变_15"/>
    <linearGradient id="未命名的渐变_15-21" x1="10.91" y1="2.26" x2="13.03" y2="2.26" xlink:href="#未命名的渐变_15"/>
    <linearGradient id="未命名的渐变_15-22" x1="13" y1="3.36" x2="13.64" y2="3.36" xlink:href="#未命名的渐变_15"/>
    <linearGradient id="未命名的渐变_15-23" x1="12.99" y1="3.23" x2="14.15" y2="3.23" xlink:href="#未命名的渐变_15"/>
    <linearGradient id="未命名的渐变_15-24" x1="11.63" y1="1.77" x2="12.48" y2="1.77" xlink:href="#未命名的渐变_15"/>
    <linearGradient id="未命名的渐变_15-25" x1="10.72" y1="2.27" x2="10.99" y2="2.27" xlink:href="#未命名的渐变_15"/>
    <linearGradient id="未命名的渐变_15-26" x1="11.97" y1="0.5" x2="12.31" y2="0.5" xlink:href="#未命名的渐变_15"/>
    <linearGradient id="未命名的渐变_6" x1="26.33" y1="30.43" x2="32.29" y2="30.43" gradientUnits="userSpaceOnUse">
      <stop offset="0" stop-color="#fff"/>
      <stop offset="1" stop-color="#00dcff"/>
    </linearGradient>
    <linearGradient id="未命名的渐变_6-2" x1="26.23" y1="23.58" x2="33.35" y2="23.58" xlink:href="#未命名的渐变_6"/>
    <linearGradient id="未命名的渐变_6-3" x1="14.43" y1="17.42" x2="35.79" y2="17.42" xlink:href="#未命名的渐变_6"/>
    <linearGradient id="未命名的渐变_6-4" x1="3.08" y1="40.05" x2="32.25" y2="40.05" xlink:href="#未命名的渐变_6"/>
  </defs>
  <g id="图层_2" data-name="图层 2">
    <g id="图层_10" data-name="图层 10">
      <text class="cls-1" transform="translate(30.61 34.5)">
        <tspan class="cls-2">S</tspan>
        <tspan class="cls-3" x="0.81" y="0">T</tspan>
        <tspan x="1.57" y="0">AR</tspan>
      </text>
      <path class="cls-4" d="M2.28,49.67a1,1,0,0,0,.57.23h0a.83.83,0,0,0,.61-.29.19.19,0,0,0,.06-.1.17.17,0,0,0-.09-.14"/>
      <line class="cls-5" x1="3.46" y1="49.37" x2="2.28" y2="48.83"/>
      <path class="cls-6" d="M2.23,48.57a1.23,1.23,0,0,0,.08-.89.84.84,0,0,0-.56-.49.12.12,0,0,0-.12,0s-.11.07-.11.14v1.11"/>
      <path class="cls-7" d="M1.37,48.71a1.35,1.35,0,0,0-1,.17.87.87,0,0,0-.31.72.19.19,0,0,0,0,.12.15.15,0,0,0,.11,0H.26l1.1-.4"/>
      <path class="cls-8" d="M2.13,50.67v-1.9a.31.31,0,1,0-.61,0v1.9a.15.15,0,0,0,.16.15H2a.16.16,0,0,0,.16-.15"/>
      <path class="cls-9" d="M25.78,13.14a1,1,0,0,0,.56.23h0a.82.82,0,0,0,.61-.29A.12.12,0,0,0,27,13a.15.15,0,0,0-.09-.14"/>
      <line class="cls-10" x1="26.95" y1="12.84" x2="25.78" y2="12.3"/>
      <path class="cls-11" d="M25.72,12a1.18,1.18,0,0,0,.08-.89.82.82,0,0,0-.56-.49.13.13,0,0,0-.11,0s-.12.07-.12.14V11.9"/>
      <path class="cls-12" d="M24.86,12.18a1.32,1.32,0,0,0-1,.17.89.89,0,0,0-.32.73.15.15,0,0,0,0,.11.13.13,0,0,0,.1,0h.05l1.11-.41"/>
      <path class="cls-13" d="M25.62,14.14v-1.9a.3.3,0,0,0-.3-.31.31.31,0,0,0-.31.31v1.9a.15.15,0,0,0,.16.15h.3a.15.15,0,0,0,.15-.15"/>
      <path class="cls-14" d="M24.85,28.92a1,1,0,0,0,.56.23h0a.82.82,0,0,0,.61-.29.11.11,0,0,0,.06-.1.13.13,0,0,0-.08-.13"/>
      <line class="cls-15" x1="26.03" y1="28.63" x2="24.85" y2="28.08"/>
      <path class="cls-16" d="M24.8,27.82a1.23,1.23,0,0,0,.07-.89.83.83,0,0,0-.55-.49.16.16,0,0,0-.12,0s-.12.07-.11.14v1.11"/>
      <path class="cls-17" d="M23.94,28a1.3,1.3,0,0,0-1,.18.82.82,0,0,0-.31.72.11.11,0,0,0,0,.11.16.16,0,0,0,.1.05h.06l1.1-.41"/>
      <path class="cls-18" d="M24.7,29.92V28a.32.32,0,0,0-.31-.31.31.31,0,0,0-.3.31v1.9a.14.14,0,0,0,.15.15h.3a.16.16,0,0,0,.16-.15"/>
      <path class="cls-19" d="M20.69,28.34c-.1-.44-.14-.72-.51-.72s-1.47-.36-1.26-.07.87,0,1,.63a2,2,0,0,1,.08.87"/>
      <rect class="cls-20" x="17.91" y="26.84" width="4" height="2.74"/>
      <line class="cls-21" x1="19.69" y1="29.58" x2="19.69" y2="30.17"/>
      <line class="cls-22" x1="20.16" y1="29.58" x2="20.16" y2="30.17"/>
      <line class="cls-23" x1="20.92" y1="30.17" x2="18.89" y2="30.17"/>
      <path class="cls-24" d="M12.45,1.44h.25c0-.11,0-.12.14-.12H13v1.9a1.34,1.34,0,0,1-.2,0,.05.05,0,0,1,0-.07c0-.05,0-.05-.06-.05H11.1C11,3.09,11,3.06,11,3V1.56c0-.09,0-.12.13-.12h.72"/>
      <path class="cls-25" d="M13.57,3.9a.19.19,0,0,1-.14-.15.91.91,0,0,1,0-.17.93.93,0,0,0-.35-.76"/>
      <path class="cls-26" d="M13.06,2.28l.09.05a1.8,1.8,0,0,1,.82,1,1.91,1.91,0,0,1,.11.66.2.2,0,0,1-.22.21A.22.22,0,0,1,13.63,4c0-.14,0-.27,0-.41a1.21,1.21,0,0,0-.21-.6"/>
      <path class="cls-27" d="M12.33,1.26a2,2,0,0,1,0,.42,1,1,0,0,1-.07.15s0,.06,0,.08a.36.36,0,0,1,.06.54.37.37,0,0,1-.39.09.35.35,0,0,1-.22-.33.53.53,0,0,1,.09-.3,1,1,0,0,0,.17-.6V1C12,1,12,1,12,1h.24c.05,0,.07,0,.07.07Zm-.28,1.11a.16.16,0,0,0,.16-.17.16.16,0,0,0-.16-.15.16.16,0,0,0,0,.32Z"/>
      <path class="cls-28" d="M10.92,3a.14.14,0,0,1-.13-.15V1.73a.14.14,0,0,1,.13-.15"/>
      <path class="cls-29" d="M12,.93V.07h.2V.93"/>
      <path class="cls-30" d="M32.26,32.93s-1.38-5.1-5.89-5"
             stroke-dasharray="8.32"  >
        <animate attributeName="stroke-dashoffset" from="8.32" to="0" dur="2s" repeatCount="indefinite" fill="freeze"></animate>
      </path>
      <path class="cls-31" d="M32.34,33s4.55-12.51-6.07-18.85"
             stroke-dasharray="21.5"  >
        <animate attributeName="stroke-dashoffset" from="21.5" to="0" dur="2s" repeatCount="indefinite" fill="freeze"></animate>
      </path>
      <path class="cls-32" d="M32.34,33.09c5.66-6.81,7-30.38-17.87-31.34"
             stroke-dasharray="44.912"  >
        <animate attributeName="stroke-dashoffset" from="44.912" to="0" dur="2s" repeatCount="indefinite" fill="freeze"></animate>
      </path>
      <path class="cls-33" d="M32.22,33.13c-1.54-2.2-22-4.36-29.1,15.22"
             stroke-dasharray="36.718"  >
        <animate attributeName="stroke-dashoffset" from="36.718" to="0" dur="2s" repeatCount="indefinite" fill="freeze"></animate>
      </path>
    </g>
  </g>
</svg>