<svg xmlns="http://www.w3.org/2000/svg" xmlns:xlink="http://www.w3.org/1999/xlink" viewBox="0 0 196.52 11.7">
  <defs>
    <style>.cls-1{isolation:isolate;}.cls-12,.cls-13,.cls-16,.cls-17,.cls-2,.cls-20,.cls-21,.cls-4,.cls-5,.cls-8,.cls-9{mix-blend-mode:screen;}.cls-10,.cls-11,.cls-14,.cls-15,.cls-18,.cls-19,.cls-22,.cls-3,.cls-6,.cls-7{mix-blend-mode:color-dodge;}.cls-3{fill:url(#radial-gradient);}.cls-4{fill:url(#radial-gradient-2);}.cls-5{fill:url(#radial-gradient-3);}.cls-6{fill:url(#radial-gradient-4);}.cls-7{fill:url(#radial-gradient-5);}.cls-8{fill:url(#radial-gradient-6);}.cls-9{fill:url(#radial-gradient-7);}.cls-10{fill:url(#radial-gradient-8);}.cls-11{fill:url(#radial-gradient-9);}.cls-12{fill:url(#radial-gradient-10);}.cls-13{fill:url(#radial-gradient-11);}.cls-14{fill:url(#radial-gradient-12);}.cls-15{fill:url(#radial-gradient-13);}.cls-16{fill:url(#radial-gradient-14);}.cls-17{fill:url(#radial-gradient-15);}.cls-18{fill:url(#radial-gradient-16);}.cls-19{fill:url(#radial-gradient-17);}.cls-20{fill:url(#radial-gradient-18);}.cls-21{fill:url(#radial-gradient-19);}.cls-22{fill:url(#radial-gradient-20);}</style>
    <radialGradient id="radial-gradient" cx="-366.07" cy="-26272.32" r="4.44" gradientTransform="matrix(2.83, 0.02, -0.01, 0.13, 912.32, 3550.94)" gradientUnits="userSpaceOnUse">
      <stop offset="0" stop-color="#fff"/>
      <stop offset="0.02" stop-color="#ececec" stop-opacity="0.9"/>
      <stop offset="0.09" stop-color="#bbb" stop-opacity="0.8"/>
      <stop offset="0.17" stop-color="#8e8e8e" stop-opacity="0.7"/>
      <stop offset="0.25" stop-color="#686868" stop-opacity="0.6"/>
      <stop offset="0.33" stop-color="#484848" stop-opacity="0.5"/>
      <stop offset="0.42" stop-color="#2d2d2d" stop-opacity="0.4"/>
      <stop offset="0.52" stop-color="#191919" stop-opacity="0.3"/>
      <stop offset="0.64" stop-color="#0b0b0b" stop-opacity="0.2"/>
      <stop offset="0.77" stop-color="#030303" stop-opacity="0.1"/>
      <stop offset="1" stop-opacity="0"/>
    </radialGradient>
    <radialGradient id="radial-gradient-2" cx="-245.84" cy="-15875.95" r="4.2" gradientTransform="matrix(3.58, 0.02, -0.01, 0.21, 781.48, 3397.13)" xlink:href="#radial-gradient"/>
    <radialGradient id="radial-gradient-3" cx="-215.23" cy="-31585.01" r="10.43" gradientTransform="matrix(1.81, -0.01, 0, 0.11, 396.86, 3580.59)" gradientUnits="userSpaceOnUse">
      <stop offset="0" stop-color="aqua"/>
      <stop offset="0.02" stop-color="#00ecec" stop-opacity="0.9"/>
      <stop offset="0.09" stop-color="#0bb" stop-opacity="0.8"/>
      <stop offset="0.17" stop-color="#008e8e" stop-opacity="0.7"/>
      <stop offset="0.25" stop-color="#006868" stop-opacity="0.6"/>
      <stop offset="0.33" stop-color="#004848" stop-opacity="0.5"/>
      <stop offset="0.42" stop-color="#002d2d" stop-opacity="0.4"/>
      <stop offset="0.52" stop-color="#001919" stop-opacity="0.3"/>
      <stop offset="0.64" stop-color="#000b0b" stop-opacity="0.2"/>
      <stop offset="0.77" stop-color="#000303" stop-opacity="0.1"/>
      <stop offset="1" stop-opacity="0"/>
    </radialGradient>
    <radialGradient id="radial-gradient-4" cx="-268.91" cy="-94447.27" r="10.26" gradientTransform="matrix(2.01, -0.01, 0, 0.04, 545.71, 3659.82)" gradientUnits="userSpaceOnUse">
      <stop offset="0" stop-color="#39c7ff"/>
      <stop offset="0.02" stop-color="#35b8ec" stop-opacity="0.9"/>
      <stop offset="0.09" stop-color="#2a92bb" stop-opacity="0.8"/>
      <stop offset="0.17" stop-color="#206f8e" stop-opacity="0.7"/>
      <stop offset="0.25" stop-color="#175168" stop-opacity="0.6"/>
      <stop offset="0.33" stop-color="#103848" stop-opacity="0.5"/>
      <stop offset="0.42" stop-color="#0a232d" stop-opacity="0.4"/>
      <stop offset="0.52" stop-color="#061419" stop-opacity="0.3"/>
      <stop offset="0.64" stop-color="#02080b" stop-opacity="0.2"/>
      <stop offset="0.77" stop-color="#010203" stop-opacity="0.1"/>
      <stop offset="1" stop-opacity="0"/>
    </radialGradient>
    <radialGradient id="radial-gradient-5" cx="-472.3" cy="-26283.72" r="2.29" gradientTransform="matrix(0, 3.81, -0.13, -0.01, -3450.32, 1489.82)" xlink:href="#radial-gradient"/>
    <radialGradient id="radial-gradient-6" cx="-329.85" cy="-15886.3" r="2.29" gradientTransform="matrix(0, 4.82, -0.21, -0.02, -3299.87, 1306.75)" xlink:href="#radial-gradient"/>
    <radialGradient id="radial-gradient-7" cx="-381.29" cy="-31642.38" r="5.99" gradientTransform="matrix(2.44, 0, -0.01, 0.11, 835.69, 3585.22)" xlink:href="#radial-gradient-3"/>
    <radialGradient id="radial-gradient-8" cx="-418.17" cy="-94599.22" r="6" gradientTransform="matrix(2.71, 0, 0, 0.04, 1041.64, 3664.12)" xlink:href="#radial-gradient-4"/>
    <radialGradient id="radial-gradient-9" cx="-446.97" cy="-26288.22" r="2.29" gradientTransform="matrix(0, 3.81, -0.13, -0.01, -3373.17, 1393.29)" xlink:href="#radial-gradient"/>
    <radialGradient id="radial-gradient-10" cx="-309.82" cy="-15888.39" r="2.29" gradientTransform="matrix(0, 4.82, -0.21, -0.02, -3222.55, 1210.23)" xlink:href="#radial-gradient"/>
    <radialGradient id="radial-gradient-11" cx="-341.67" cy="-31637.28" r="5.99" gradientTransform="matrix(2.44, 0, -0.01, 0.11, 816.9, 3584.63)" xlink:href="#radial-gradient-3"/>
    <radialGradient id="radial-gradient-12" cx="-382.56" cy="-94588.09" r="6" gradientTransform="matrix(2.71, 0, 0, 0.04, 1022.85, 3663.69)" xlink:href="#radial-gradient-4"/>
    <radialGradient id="radial-gradient-13" cx="-401.02" cy="-26266.1" r="3.33" xlink:href="#radial-gradient"/>
    <radialGradient id="radial-gradient-14" cx="-273.48" cy="-15873.07" r="3.34" gradientTransform="matrix(3.58, 0.02, -0.01, 0.21, 781.48, 3397.13)" xlink:href="#radial-gradient"/>
    <radialGradient id="radial-gradient-15" cx="-269.89" cy="-31592.05" r="8.76" xlink:href="#radial-gradient-3"/>
    <radialGradient id="radial-gradient-16" cx="-318.04" cy="-94462.63" r="8.77" xlink:href="#radial-gradient-4"/>
    <radialGradient id="radial-gradient-17" cx="-475.18" cy="-26283.08" r="1.97" gradientTransform="matrix(3.81, 0.02, -0.01, 0.13, 1533, 3550.94)" xlink:href="#radial-gradient"/>
    <radialGradient id="radial-gradient-18" cx="-332.11" cy="-15886.01" r="2.02" gradientTransform="matrix(4.82, 0.02, -0.02, 0.21, 1356.76, 3397.13)" xlink:href="#radial-gradient"/>
    <radialGradient id="radial-gradient-19" cx="-385.74" cy="-31643.1" r="5.44" gradientTransform="matrix(2.44, -0.01, -0.01, 0.11, 838.71, 3580.59)" xlink:href="#radial-gradient-3"/>
    <radialGradient id="radial-gradient-20" cx="-422.17" cy="-94600.8" r="5.5" gradientTransform="matrix(2.71, -0.01, 0, 0.04, 1039.2, 3659.82)" xlink:href="#radial-gradient-4"/>
  </defs>
  <g class="cls-1">
    <g id="图层_2" data-name="图层 2">
      <g id="图层_10" data-name="图层 10">
        <image width="1405" height="117" transform="translate(56.02) scale(0.1)" xlink:href="title-3-1.png"></image>
        <g class="cls-2">
          <image width="1405" height="117" transform="translate(56.02) scale(0.1)" xlink:href="title-3-2.png"></image>
        </g>
        <image width="1179" height="115" transform="translate(67.32 0.1) scale(0.1)" xlink:href="title-3-3.png"></image>
        <path class="cls-3" d="M140.53,8c0,.25-9.72.41-15,.37S110.6,8,110.62,7.79s9.72-.41,15-.37S140.54,7.71,140.53,8Z"/>
        <path class="cls-4" d="M143.05,8c0,.4-10.86.69-17.52.64S108.07,8.2,108.1,7.8s10.86-.69,17.52-.64S143.07,7.55,143.05,8Z"/>
        <path class="cls-5" d="M147,7.75c0,.55-12.59,1.05-21.41,1.12S104.17,8.56,104.19,8s12.6-1,21.42-1.12S147,7.19,147,7.75Z"/>
        <path class="cls-6" d="M148.75,7.77c0,.19-13.38.39-23.19.45S102.39,8.17,102.4,8s13.38-.39,23.18-.45S148.76,7.58,148.75,7.77Z"/>
        <ellipse class="cls-7" cx="87.69" cy="3.8" rx="0.31" ry="8.72" transform="translate(83.35 91.47) rotate(-89.65)"/>
        <ellipse class="cls-8" cx="87.69" cy="3.8" rx="0.49" ry="11.03" transform="translate(83.5 91.48) rotate(-89.74)"/>
        <ellipse class="cls-9" cx="87.69" cy="3.8" rx="14.6" ry="0.68" transform="translate(-0.02 0.53) rotate(-0.35)"/>
        <ellipse class="cls-10" cx="87.69" cy="3.8" rx="16.25" ry="0.23" transform="translate(-0.02 0.39) rotate(-0.26)"/>
        <ellipse class="cls-11" cx="165.43" cy="3.8" rx="0.31" ry="8.72" transform="translate(160.61 169.21) rotate(-89.65)"/>
        <ellipse class="cls-12" cx="165.43" cy="3.8" rx="0.49" ry="11.03" transform="translate(160.9 169.22) rotate(-89.74)"/>
        <ellipse class="cls-13" cx="165.43" cy="3.8" rx="14.6" ry="0.68" transform="translate(-0.02 1.01) rotate(-0.35)"/>
        <ellipse class="cls-14" cx="165.43" cy="3.8" rx="16.25" ry="0.23" transform="translate(-0.02 0.74) rotate(-0.26)"/>
        <image width="750" height="117" transform="scale(0.1)" xlink:href="title-3-4.png"></image>
        <g class="cls-2">
          <image width="695" height="117" transform="translate(5.5) scale(0.1)" xlink:href="title-3-5.png"></image>
        </g>
        <image width="748" height="115" transform="translate(0.2 0.1) scale(0.1)" xlink:href="title-3-6.png"></image>
        <path class="cls-15" d="M36,8c0,.25-4.05.41-9.32.37S17.4,8,17.42,7.79s4-.41,9.31-.37S36,7.71,36,8Z"/>
        <path class="cls-16" d="M38.51,8c0,.4-5.19.69-11.85.64S14.87,8.2,14.9,7.8s5.19-.69,11.85-.64S38.53,7.55,38.51,8Z"/>
        <path class="cls-17" d="M42.41,7.75c0,.55-6.92,1.05-15.74,1.12S11,8.56,11,8s6.93-1,15.75-1.12S42.43,7.19,42.41,7.75Z"/>
        <path class="cls-18" d="M44.21,7.77c0,.19-7.71.39-17.52.45S9.19,8.17,9.2,8s7.7-.39,17.51-.45S44.22,7.58,44.21,7.77Z"/>
        <path class="cls-19" d="M64,3.86c0,.17-3.94.28-8.75.25s-3-.19-3-.36-1.73-.29,3.08-.26S64,3.69,64,3.86Z"/>
        <path class="cls-20" d="M66.26,3.85c0,.27-5,.47-11.08.44S49.84,4,49.86,3.75s-.68-.47,5.41-.44S66.28,3.58,66.26,3.85Z"/>
        <path class="cls-21" d="M69.83,3.71c0,.38-6.57.72-14.63.77s-8.92-.22-8.91-.59.9-.72,9-.77S69.85,3.34,69.83,3.71Z"/>
        <path class="cls-22" d="M71.47,3.73c0,.13-7.28.26-16.26.3S44.64,4,44.65,3.87s1.61-.26,10.59-.3S71.48,3.6,71.47,3.73Z"/>
      </g>
    </g>
  </g>
</svg>