<svg xmlns="http://www.w3.org/2000/svg" xmlns:xlink="http://www.w3.org/1999/xlink" viewBox="0 0 163.3 11.8">
  <defs>
    <style>.cls-1{isolation:isolate;}.cls-12,.cls-13,.cls-2,.cls-4,.cls-5,.cls-8,.cls-9{mix-blend-mode:screen;}.cls-10,.cls-11,.cls-14,.cls-3,.cls-6,.cls-7{mix-blend-mode:color-dodge;}.cls-3{fill:url(#radial-gradient);}.cls-4{fill:url(#radial-gradient-2);}.cls-5{fill:url(#radial-gradient-3);}.cls-6{fill:url(#radial-gradient-4);}.cls-7{fill:url(#radial-gradient-5);}.cls-8{fill:url(#radial-gradient-6);}.cls-9{fill:url(#radial-gradient-7);}.cls-10{fill:url(#radial-gradient-8);}.cls-11{fill:url(#radial-gradient-9);}.cls-12{fill:url(#radial-gradient-10);}.cls-13{fill:url(#radial-gradient-11);}.cls-14{fill:url(#radial-gradient-12);}</style>
    <radialGradient id="radial-gradient" cx="-147.05" cy="-26738.55" r="4.44" gradientTransform="matrix(2.83, 0.02, -0.01, 0.13, 244.04, 3608.52)" gradientUnits="userSpaceOnUse">
      <stop offset="0" stop-color="#fff"/>
      <stop offset="0.02" stop-color="#ececec" stop-opacity="0.9"/>
      <stop offset="0.09" stop-color="#bbb" stop-opacity="0.8"/>
      <stop offset="0.17" stop-color="#8e8e8e" stop-opacity="0.7"/>
      <stop offset="0.25" stop-color="#686868" stop-opacity="0.6"/>
      <stop offset="0.33" stop-color="#484848" stop-opacity="0.5"/>
      <stop offset="0.42" stop-color="#2d2d2d" stop-opacity="0.4"/>
      <stop offset="0.52" stop-color="#191919" stop-opacity="0.3"/>
      <stop offset="0.64" stop-color="#0b0b0b" stop-opacity="0.2"/>
      <stop offset="0.77" stop-color="#030303" stop-opacity="0.1"/>
      <stop offset="1" stop-opacity="0"/>
    </radialGradient>
    <radialGradient id="radial-gradient-2" cx="4.02" cy="-16146.33" r="4.2" gradientTransform="matrix(3.58, 0.02, -0.01, 0.21, -160.24, 3449.3)" xlink:href="#radial-gradient"/>
    <radialGradient id="radial-gradient-3" cx="-77.6" cy="-32213.92" r="10.43" gradientTransform="matrix(1.81, -0.01, 0, 0.11, 100.87, 3653.9)" gradientUnits="userSpaceOnUse">
      <stop offset="0" stop-color="aqua"/>
      <stop offset="0.02" stop-color="#00ecec" stop-opacity="0.9"/>
      <stop offset="0.09" stop-color="#0bb" stop-opacity="0.8"/>
      <stop offset="0.17" stop-color="#008e8e" stop-opacity="0.7"/>
      <stop offset="0.25" stop-color="#006868" stop-opacity="0.6"/>
      <stop offset="0.33" stop-color="#004848" stop-opacity="0.5"/>
      <stop offset="0.42" stop-color="#002d2d" stop-opacity="0.4"/>
      <stop offset="0.52" stop-color="#001919" stop-opacity="0.3"/>
      <stop offset="0.64" stop-color="#000b0b" stop-opacity="0.2"/>
      <stop offset="0.77" stop-color="#000303" stop-opacity="0.1"/>
      <stop offset="1" stop-opacity="0"/>
    </radialGradient>
    <radialGradient id="radial-gradient-4" cx="-108.17" cy="-96412.79" r="10.26" gradientTransform="matrix(2.01, -0.01, 0, 0.04, 175.05, 3737.93)" gradientUnits="userSpaceOnUse">
      <stop offset="0" stop-color="#39c7ff"/>
      <stop offset="0.02" stop-opacity="0.9"/>
      <stop offset="0.09" stop-opacity="0.8"/>
      <stop offset="0.17" stop-opacity="0.7"/>
      <stop offset="0.25" stop-opacity="0.6"/>
      <stop offset="0.33" stop-opacity="0.5"/>
      <stop offset="0.42" stop-opacity="0.4"/>
      <stop offset="0.52" stop-opacity="0.3"/>
      <stop offset="0.64"  stop-opacity="0.2"/>
      <stop offset="0.77" stop-opacity="0.1"/>
      <stop offset="1" stop-opacity="0"/>
    </radialGradient>
    <radialGradient id="radial-gradient-5" cx="-215.88" cy="-26756.6" r="2.29" gradientTransform="matrix(0, 3.81, -0.13, -0.01, -3558.5, 507.76)" xlink:href="#radial-gradient"/>
    <radialGradient id="radial-gradient-6" cx="-50.42" cy="-16159.76" r="2.29" gradientTransform="matrix(0, 4.82, -0.21, -0.02, -3402.58, -43.73)" xlink:href="#radial-gradient"/>
    <radialGradient id="radial-gradient-7" cx="-185.17" cy="-32263.76" r="5.99" gradientTransform="matrix(2.44, 0, -0.01, 0.11, 309.57, 3655.59)" xlink:href="#radial-gradient-3"/>
    <radialGradient id="radial-gradient-8" cx="-204.86" cy="-96548.3" r="6" gradientTransform="matrix(2.71, 0, 0, 0.04, 415.02, 3739.63)" xlink:href="#radial-gradient-4"/>
    <radialGradient id="radial-gradient-9" cx="-190.55" cy="-26761.11" r="2.29" gradientTransform="matrix(0, 3.81, -0.13, -0.01, -3481.36, 411.24)" xlink:href="#radial-gradient"/>
    <radialGradient id="radial-gradient-10" cx="-30.38" cy="-16161.86" r="2.29" gradientTransform="matrix(0, 4.82, -0.21, -0.02, -3325.26, -140.25)" xlink:href="#radial-gradient"/>
    <radialGradient id="radial-gradient-11" cx="-145.55" cy="-32258.66" r="5.99" gradientTransform="matrix(2.44, 0, -0.01, 0.11, 290.78, 3655)" xlink:href="#radial-gradient-3"/>
    <radialGradient id="radial-gradient-12" cx="-169.25" cy="-96537.17" r="6" gradientTransform="matrix(2.71, 0, 0, 0.04, 396.24, 3739.2)" xlink:href="#radial-gradient-4"/>
  </defs>
  <g class="cls-1">
    <g id="图层_2" data-name="图层 2">
      <g id="图层_10" data-name="图层 10">
        <image width="1633" height="118" transform="scale(0.1)" xlink:href="title-2-1.png"></image>
        <g class="cls-2">
          <image width="1633" height="118" transform="scale(0.1)" xlink:href="title-2-2.png"></image>
        </g>
        <image width="1633" height="116" transform="translate(0 0.1) scale(0.1)" xlink:href="title-2-3.png"></image>
        <path class="cls-3" d="M95.9,8.05c0,.26-9.72.42-15,.38S66,8.14,66,7.89s9.72-.41,15-.37S95.92,7.8,95.9,8.05Z"/>
        <path class="cls-4" d="M98.42,8.05c0,.4-10.86.68-17.52.64S63.45,8.3,63.47,7.9,74.33,7.21,81,7.26,98.45,7.65,98.42,8.05Z"/>
        <path class="cls-5" d="M102.33,7.85c0,.55-12.6,1.05-21.42,1.12S59.55,8.65,59.57,8.1,72.16,7.05,81,7,102.35,7.29,102.33,7.85Z"/>
        <path class="cls-6" d="M104.12,7.87c0,.19-13.38.39-23.18.45s-23.18-.05-23.17-.24S71.15,7.69,81,7.63,104.13,7.68,104.12,7.87Z"/>
        <ellipse class="cls-7" cx="43.07" cy="3.9" rx="0.31" ry="8.72" transform="translate(38.9 46.94) rotate(-89.65)"/>
        <ellipse class="cls-8" cx="43.07" cy="3.9" rx="0.49" ry="11.03" transform="matrix(0, -1, 1, 0, 38.98, 46.95)"/>
        <ellipse class="cls-9" cx="43.07" cy="3.9" rx="14.6" ry="0.68" transform="translate(-0.02 0.26) rotate(-0.35)"/>
        <ellipse class="cls-10" cx="43.07" cy="3.9" rx="16.25" ry="0.23" transform="translate(-0.02 0.19) rotate(-0.26)"/>
        <ellipse class="cls-11" cx="120.81" cy="3.9" rx="0.31" ry="8.72" transform="translate(116.16 124.68) rotate(-89.65)"/>
        <ellipse class="cls-12" cx="120.81" cy="3.9" rx="0.49" ry="11.03" transform="translate(116.37 124.69) rotate(-89.74)"/>
        <ellipse class="cls-13" cx="120.81" cy="3.9" rx="14.6" ry="0.68" transform="translate(-0.02 0.74) rotate(-0.35)"/>
        <ellipse class="cls-14" cx="120.81" cy="3.9" rx="16.25" ry="0.23" transform="translate(-0.02 0.54) rotate(-0.26)"/>
      </g>
    </g>
  </g>
</svg>