<svg xmlns="http://www.w3.org/2000/svg" xmlns:xlink="http://www.w3.org/1999/xlink" viewBox="0 0 648.71 162.69">
  <defs>
    <style>
      .cls-1{isolation:isolate;}.cls-2{opacity:0.2;}
      .cls-10,.cls-11,.cls-12,.cls-13,.cls-14,.cls-15,.cls-16,.cls-17,
      .cls-18,.cls-19,.cls-20,.cls-21,.cls-22,.cls-23,.cls-24,.cls-3,
      .cls-4,.cls-5,.cls-6,.cls-7,.cls-8,.cls-9{fill:#00e0ff;}
      .cls-4{opacity:0.95;}.cls-5{opacity:0.9;}
      .cls-6{opacity:0.86;}.cls-7{opacity:0.81;}
      .cls-8{opacity:0.76;}.cls-9{opacity:0.71;}
      .cls-10{opacity:0.67;}.cls-11{opacity:0.62;}
      .cls-12{opacity:0.57;}.cls-13{opacity:0.52;}
      .cls-14{opacity:0.48;}.cls-15{opacity:0.43;}
      .cls-16{opacity:0.38;}.cls-17{opacity:0.33;}
      .cls-18{opacity:0.29;}.cls-19{opacity:0.24;}
      .cls-20{opacity:0.19;}.cls-21{opacity:0.14;}
      .cls-22{opacity:0.1;}.cls-23{opacity:0.05;}
      .cls-24{opacity:0;}
      .cls-25,.cls-26{fill:none;stroke-miterlimit:10;}
      .cls-25{stroke:#00776c;stroke-width:4.79px;mix-blend-mode:color-dodge;}
      .cls-26{stroke:#00e0ff;stroke-width:6.78px;}.cls-27{opacity:0.6;}
      .cls-28,.cls-29,.cls-30,.cls-31,.cls-32,.cls-33{mix-blend-mode:screen;}
      .cls-30,.cls-33{fill-rule:evenodd;}
      .cls-34{font-size:66px;fill:#fff;font-family:SKFChevin-Bold, SKF Chevin;font-weight:700;}
    </style>
    <filter id="blurMe">
      <feGaussianBlur in="SourceGraphic" stdDeviation="7"></feGaussianBlur>
    </filter>
  </defs>
  <g class="cls-1">
    <g id="图层_2" data-name="图层 2">
      <g id="图层_2-2" data-name="图层 2">
        <g class="cls-2">
          <polygon class="cls-3" points="54.16 93.8 144.56 3.39 250.5 3.39 587.98 3.39 587.98 160.29 54.16 160.3 54.16 93.8"/>
          <polygon class="cls-4" points="56.1 94.6 145.36 5.33 243.49 5.33 586.05 5.33 586.05 158.36 56.1 158.36 56.1 94.6"/>
          <polygon class="cls-5" points="58.03 95.4 146.16 7.27 236.48 7.27 584.11 7.27 584.11 156.42 58.03 156.42 58.03 95.4"/>
          <polygon class="cls-6" points="59.97 96.2 146.97 9.21 229.47 9.21 582.17 9.21 582.17 154.48 59.97 154.48 59.97 96.2"/>
          <polygon class="cls-7" points="61.91 97.01 147.77 11.14 222.47 11.14 580.23 11.14 580.23 152.54 61.91 152.54 61.91 97.01"/>
          <polygon class="cls-8" points="63.85 97.81 148.57 13.08 215.46 13.08 578.29 13.08 578.29 150.6 63.85 150.61 63.85 97.81"/>
          <polygon class="cls-9" points="65.79 98.61 149.37 15.02 208.45 15.02 576.36 15.02 576.36 148.67 65.79 148.67 65.79 98.61"/>
          <polygon class="cls-10" points="67.72 99.42 150.18 16.96 201.45 16.96 574.42 16.96 574.42 146.73 67.72 146.73 67.72 99.42"/>
          <polygon class="cls-11" points="69.66 100.22 150.98 18.9 194.44 18.9 572.48 18.9 572.48 144.79 69.66 144.79 69.66 100.22"/>
          <polygon class="cls-12" points="71.6 101.02 151.78 20.83 187.43 20.83 570.54 20.83 570.54 142.85 71.6 142.85 71.6 101.02"/>
          <polygon class="cls-13" points="73.54 101.82 152.59 22.77 180.42 22.77 568.6 22.77 568.6 140.91 73.54 140.92 73.54 101.82"/>
          <polygon class="cls-14" points="75.48 102.63 153.39 24.71 173.42 24.71 566.67 24.71 566.67 138.98 75.48 138.98 75.48 102.63"/>
          <polygon class="cls-15" points="77.42 103.43 154.19 26.65 166.41 26.65 564.73 26.65 564.73 137.04 77.42 137.04 77.42 103.43"/>
          <polygon class="cls-16" points="79.35 104.23 154.99 28.59 159.4 28.59 562.79 28.59 562.79 135.1 79.35 135.1 79.35 104.23"/>
          <polygon class="cls-17" points="81.29 105.03 155.8 30.52 152.4 30.52 560.85 30.52 560.85 133.16 81.29 133.16 81.29 105.03"/>
          <polygon class="cls-18" points="83.23 105.84 156.6 32.46 145.39 32.46 558.91 32.46 558.91 131.22 83.23 131.23 83.23 105.84"/>
          <polygon class="cls-19" points="85.17 106.64 157.4 34.4 138.38 34.4 556.98 34.4 556.98 129.29 85.17 129.29 85.17 106.64"/>
          <polygon class="cls-20" points="87.11 107.44 158.2 36.34 131.38 36.34 555.04 36.34 555.04 127.35 87.11 127.35 87.11 107.44"/>
          <polygon class="cls-21" points="89.04 108.25 159.01 38.28 124.37 38.28 553.1 38.28 553.1 125.41 89.04 125.41 89.04 108.25"/>
          <polygon class="cls-22" points="90.98 109.05 159.81 40.21 117.36 40.21 551.16 40.21 551.16 123.47 90.98 123.47 90.98 109.05"/>
          <polygon class="cls-23" points="92.92 109.85 160.61 42.15 110.35 42.15 549.22 42.15 549.22 121.54 92.92 121.54 92.92 109.85"/>
          <polygon class="cls-24" points="94.86 119.6 94.86 110.65 161.41 44.09 103.35 44.09 547.28 44.09 547.28 119.6 94.86 119.6"/>
        </g>
        <polygon class="cls-25" points="54.16 93.8 144.56 3.39 276.11 3.39 587.98 3.39 587.98 160.29 54.16 160.3 54.16 93.8"/>
        <polyline class="cls-26" points="122.24 25.71 144.56 3.39 234.19 3.39"/>
        <polyline class="cls-26" points="54.16 161.15 54.16 93.8 76.55 71.41"/>
        <polyline class="cls-26" points="542.19 3.39 587.98 3.39 587.98 44.09"/>
        <g class="cls-27">
          <ellipse class="cls-28" cx="233.77" cy="89.6" rx="233.78" ry="49.27"
                   opacity="0.3" fill="#1039aa" filter="url(#blurMe)"
                  transform="matrix(1, -0.01, 0.01, 1, -0.8, 2.13)"/>
          <ellipse class="cls-29" cx="233.77" cy="89.6" rx="177.7" ry="37.45"
                   opacity="0.3" fill="#092161" filter="url(#blurMe)"
                   transform="translate(-0.8 2.13) rotate(-0.52)"/>
          <path class="cls-30"
                 opacity="0.3" fill="#1856ff" filter="url(#blurMe)"
                d="M233.55,65.42c63.36-.57,114.83,9.79,115,23.14S297.35,113.2,234,113.78,119.16,104,119,90.64,170.19,66,233.55,65.42Z"/>
          <ellipse class="cls-31" cx="414.94" cy="89.08" rx="233.78" ry="49.27"
                   opacity="0.3" fill="#1039aa" filter="url(#blurMe)"
                   transform="translate(-0.79 3.77) rotate(-0.52)"/>
          <ellipse class="cls-32" cx="414.94" cy="89.08" rx="177.7" ry="37.45"
                   opacity="0.3" fill="#092161" filter="url(#blurMe)"
                   transform="translate(-0.79 3.77) rotate(-0.52)"/>
          <path class="cls-33"
                 opacity="0.3" fill="#1856ff" filter="url(#blurMe)"
                d="M414.72,64.9c63.37-.58,114.83,9.78,114.95,23.13s-51.15,24.65-114.51,25.22-114.82-9.78-115-23.13S351.36,65.47,414.72,64.9Z"/>
        </g>
        <text class="cls-34" transform="translate(214.84 115.9)">IMx-8/16</text>
      </g>
    </g>
  </g>
</svg>