<svg xmlns="http://www.w3.org/2000/svg" xmlns:xlink="http://www.w3.org/1999/xlink" viewBox="0 0 648.71 162.69">
  <defs>
    <style>.cls-1{isolation:isolate;}.cls-2{opacity:0.2;}
    .cls-10,.cls-11,.cls-12,.cls-13,.cls-14,.cls-15,.cls-16,.cls-17,.cls-18,.cls-19,.cls-20,.cls-21,.cls-22,
    .cls-23,.cls-24,.cls-3,.cls-4,.cls-5,.cls-6,.cls-7,.cls-8,.cls-9{fill:#00dcff;}.cls-4{opacity:0.95;}
    .cls-5{opacity:0.9;}.cls-6{opacity:0.86;}.cls-7{opacity:0.81;}
    .cls-8{opacity:0.76;}.cls-9{opacity:0.71;}.cls-10{opacity:0.67;}.cls-11{opacity:0.62;}.cls-12{opacity:0.57;}
    .cls-13{opacity:0.52;}.cls-14{opacity:0.48;}.cls-15{opacity:0.43;}.cls-16{opacity:0.38;}.cls-17{opacity:0.33;}
    .cls-18{opacity:0.29;}.cls-19{opacity:0.24;}.cls-20{opacity:0.19;}.cls-21{opacity:0.14;}.cls-22{opacity:0.1;}
    .cls-23{opacity:0.05;}.cls-24{opacity:0;}.cls-25,.cls-26{fill:none;stroke-miterlimit:10;}
    .cls-25{stroke:#31756c;stroke-width:4.79px;mix-blend-mode:color-dodge;}.cls-26{stroke:#00dcff;stroke-width:6.78px;}
    .cls-27{opacity:0.6;}.cls-28,.cls-29,.cls-30,.cls-31,.cls-32,.cls-33{mix-blend-mode:screen;} 
    .cls-30,.cls-33{fill-rule:evenodd;} 
    .cls-34{font-size:66px;fill:#fff;font-family:SKFChevin-Bold, SKF Chevin;font-weight:700;}
  </style>
    <filter id="blurMe">
      <feGaussianBlur in="SourceGraphic" stdDeviation="7"></feGaussianBlur>
    </filter>
  </defs>
  <g class="cls-1">
    <g id="图层_2" data-name="图层 2">
      <g id="图层_2-2" data-name="图层 2">
        <g class="cls-2">
          <polygon class="cls-3" points="594.55 93.8 504.15 3.39 398.22 3.39 60.73 3.39 60.73 160.29 594.55 160.3 594.55 93.8"/>
          <polygon class="cls-4" points="592.61 94.6 503.35 5.33 405.22 5.33 62.67 5.33 62.67 158.36 592.61 158.36 592.61 94.6"/>
          <polygon class="cls-5" points="590.68 95.4 502.55 7.27 412.23 7.27 64.6 7.27 64.6 156.42 590.68 156.42 590.68 95.4"/>
          <polygon class="cls-6" points="588.74 96.2 501.75 9.21 419.24 9.21 66.54 9.21 66.54 154.48 588.74 154.48 588.74 96.2"/>
          <polygon class="cls-7" points="586.8 97.01 500.94 11.14 426.25 11.14 68.48 11.14 68.48 152.54 586.8 152.54 586.8 97.01"/>
          <polygon class="cls-8" points="584.86 97.81 500.14 13.08 433.25 13.08 70.42 13.08 70.42 150.6 584.86 150.61 584.86 97.81"/>
          <polygon class="cls-9" points="582.92 98.61 499.34 15.02 440.26 15.02 72.36 15.02 72.36 148.67 582.92 148.67 582.92 98.61"/>
          <polygon class="cls-10" points="580.99 99.42 498.54 16.96 447.27 16.96 74.29 16.96 74.29 146.73 580.99 146.73 580.99 99.42"/>
          <polygon class="cls-11" points="579.05 100.22 497.73 18.9 454.27 18.9 76.23 18.9 76.23 144.79 579.05 144.79 579.05 100.22"/>
          <polygon class="cls-12" points="577.11 101.02 496.93 20.83 461.28 20.83 78.17 20.83 78.17 142.85 577.11 142.85 577.11 101.02"/>
          <polygon class="cls-13" points="575.17 101.82 496.13 22.77 468.29 22.77 80.11 22.77 80.11 140.91 575.17 140.92 575.17 101.82"/>
          <polygon class="cls-14" points="573.24 102.63 495.32 24.71 475.29 24.71 82.05 24.71 82.05 138.98 573.24 138.98 573.24 102.63"/>
          <polygon class="cls-15" points="571.3 103.43 494.52 26.65 482.3 26.65 83.98 26.65 83.98 137.04 571.3 137.04 571.3 103.43"/>
          <polygon class="cls-16" points="569.36 104.23 493.72 28.59 489.31 28.59 85.92 28.59 85.92 135.1 569.36 135.1 569.36 104.23"/>
          <polygon class="cls-17" points="567.42 105.03 492.92 30.52 496.32 30.52 87.86 30.52 87.86 133.16 567.42 133.16 567.42 105.03"/>
          <polygon class="cls-18" points="565.48 105.84 492.11 32.46 503.32 32.46 89.8 32.46 89.8 131.22 565.48 131.23 565.48 105.84"/>
          <polygon class="cls-19" points="563.54 106.64 491.31 34.4 510.33 34.4 91.74 34.4 91.74 129.29 563.54 129.29 563.54 106.64"/>
          <polygon class="cls-20" points="561.61 107.44 490.51 36.34 517.34 36.34 93.67 36.34 93.67 127.35 561.61 127.35 561.61 107.44"/>
          <polygon class="cls-21" points="559.67 108.25 489.7 38.28 524.34 38.28 95.61 38.28 95.61 125.41 559.67 125.41 559.67 108.25"/>
          <polygon class="cls-22" points="557.73 109.05 488.9 40.21 531.35 40.21 97.55 40.21 97.55 123.47 557.73 123.47 557.73 109.05"/>
          <polygon class="cls-23" points="555.79 109.85 488.1 42.15 538.36 42.15 99.49 42.15 99.49 121.54 555.79 121.54 555.79 109.85"/>
          <polygon class="cls-24" points="553.86 119.6 553.86 110.65 487.3 44.09 545.37 44.09 101.43 44.09 101.43 119.6 553.86 119.6"/>
        </g>
        <polygon class="cls-25" points="594.55 93.8 504.15 3.39 372.6 3.39 60.73 3.39 60.73 160.29 594.55 160.3 594.55 93.8"/>
        <polyline class="cls-26" points="526.47 25.71 504.15 3.39 414.52 3.39"/>
        <polyline class="cls-26" points="594.55 161.15 594.55 93.8 572.16 71.41"/>
        <polyline class="cls-26" points="106.52 3.39 60.73 3.39 60.73 44.09"/>
        <g class="cls-27">
          <ellipse class="cls-28" cx="414.94" cy="89.6" rx="49.27" ry="233.78"
                   opacity="0.3" fill="#1039aa" filter="url(#blurMe)"
                   transform="translate(321.58 503.71) rotate(-89.48)"/>
          <ellipse class="cls-29" cx="414.94" cy="89.6" rx="37.45" ry="177.7" 
                   opacity="0.3" fill="#092161" filter="url(#blurMe)"
                   transform="matrix(0.01, -1, 1, 0.01, 321.58, 503.71)"/>
          <path class="cls-30" 
                 opacity="0.3" fill="#1856ff" filter="url(#blurMe)"
                d="M415.16,65.42c-63.36-.57-114.82,9.79-115,23.14s51.15,24.64,114.51,25.22S529.55,104,529.67,90.64,478.52,66,415.16,65.42Z"/>
          <ellipse class="cls-31" cx="233.77" cy="89.08" rx="49.27" ry="233.78"
                   opacity="0.3" fill="#1039aa" filter="url(#blurMe)"
                   transform="translate(142.57 322.03) rotate(-89.48)"/>
          <ellipse class="cls-32" cx="233.77" cy="89.08" rx="37.45" ry="177.7" 
                   opacity="0.3" fill="#092161" filter="url(#blurMe)"
                   transform="translate(142.57 322.03) rotate(-89.48)"/>
          <path class="cls-33" 
                opacity="0.3" fill="#1856ff" filter="url(#blurMe)"
                d="M234,64.9C170.63,64.32,119.16,74.68,119,88s51.15,24.65,114.51,25.22,114.83-9.78,115-23.13S297.35,65.47,234,64.9Z"/>
        </g>
        <text class="cls-34" transform="translate(235.92 109.52)">TLDD</text>
      </g>
    </g>
  </g>
</svg>