<svg xmlns="http://www.w3.org/2000/svg" viewBox="0 0 669.3 162.69"><defs><filter id="blurMe"><feGaussianBlur in="SourceGraphic" stdDeviation="7"/></filter><style>.cls-35{letter-spacing:-.02em}</style></defs><g style="isolation:isolate"><g id="图层_2" data-name="图层 2"><g id="图层_2-2" data-name="图层 2"><g opacity=".2" fill="#00dcff"><path d="M45.8 93.8l90.4-90.41h491.77v156.9l-582.17.01V93.8z"/><path opacity=".95" d="M47.74 94.6L137 5.33h489.03v153.03H47.74V94.6z"/><path opacity=".9" d="M49.68 95.4L137.8 7.27h486.29v149.15H49.68V95.4z"/><path opacity=".86" d="M51.62 96.2l86.99-86.99h483.54v145.27H51.62V96.2z"/><path opacity=".81" d="M53.55 97.01l85.86-85.87h480.8v141.4H53.55V97.01z"/><path opacity=".76" d="M55.49 97.81l84.72-84.73h478.06V150.6l-562.78.01v-52.8z"/><path opacity=".71" d="M57.43 98.61l83.58-83.59h475.33v133.65H57.43V98.61z"/><path opacity=".67" d="M59.37 99.42l82.45-82.46H614.4v129.77H59.37V99.42z"/><path opacity=".62" d="M61.3 100.22l81.32-81.32h469.84v125.89H61.3v-44.57z"/><path opacity=".57" d="M63.24 101.02l80.18-80.19h467.1v122.02H63.24v-41.83z"/><path opacity=".52" d="M65.18 101.82l79.05-79.05h464.36v118.14l-543.41.01v-39.1z"/><path opacity=".48" d="M67.12 102.63l77.91-77.92h461.62v114.27H67.12v-36.35z"/><path opacity=".43" d="M69.06 103.43l76.77-76.78h458.88v110.39H69.06v-33.61z"/><path opacity=".38" d="M71 104.23l75.63-75.64h456.14V135.1H71v-30.87z"/><path opacity=".33" d="M72.93 105.03l74.51-74.51h-3.4 456.79v102.64H72.93v-28.13z"/><path opacity=".29" d="M74.87 105.84l73.37-73.38h-11.21 461.86v98.76l-524.02.01v-25.39z"/><path opacity=".24" d="M76.81 106.64l72.23-72.24h-19.02 466.94v94.89H76.81v-22.65z"/><path opacity=".19" d="M78.75 107.44l71.1-71.1h-26.83 472v91.01H78.75v-19.91z"/><path opacity=".14" d="M80.68 108.25l69.97-69.97h-34.64 477.07v87.13H80.68v-17.16z"/><path opacity=".1" d="M82.62 109.05l68.83-68.84H109h482.14v83.26H82.62v-14.42z"/><path opacity=".05" d="M84.56 109.85l67.69-67.7H102h487.2v79.39H84.56v-11.69z"/></g><path style="mix-blend-mode:color-dodge" stroke="#31756c" stroke-width="4.79" fill="none" stroke-miterlimit="10" d="M45.8 93.8l90.4-90.41h491.77v156.9l-582.17.01V93.8z"/><path d="M113.88 25.71L136.2 3.39h89.64M45.8 161.15V93.8l22.39-22.39M582.17 3.39h45.8v40.7" fill="none" stroke-miterlimit="10" stroke="#00dcff" stroke-width="6.78"/><g opacity=".6"><ellipse cx="241.19" cy="89.23" rx="241.2" ry="49.27" opacity=".3" fill="#1039aa" filter="url(#blurMe)" transform="rotate(-.52 240.902 89.242)" style="mix-blend-mode:screen"/><ellipse cx="241.19" cy="89.23" rx="183.34" ry="37.45" opacity=".3" fill="#092161" filter="url(#blurMe)" transform="rotate(-.52 240.902 89.242)" style="mix-blend-mode:screen"/><path opacity=".3" fill="#1856ff" filter="url(#blurMe)" d="M241 65.06c65.37-.6 118.47 9.75 118.59 23.1s-52.78 24.66-118.15 25.25-118.47-9.75-118.59-23.1S175.6 65.65 241 65.06z" style="mix-blend-mode:screen" fill-rule="evenodd"/><ellipse cx="428.11" cy="88.66" rx="241.2" ry="49.27" opacity=".3" fill="#1039aa" filter="url(#blurMe)" transform="rotate(-.52 428.219 88.99)" style="mix-blend-mode:screen"/><ellipse cx="428.11" cy="88.66" rx="183.34" ry="37.45" opacity=".3" fill="#092161" filter="url(#blurMe)" transform="rotate(-.52 428.219 88.99)" style="mix-blend-mode:screen"/><path opacity=".3" fill="#1856ff" filter="url(#blurMe)" d="M427.89 64.48c65.38-.59 118.47 9.75 118.59 23.1s-52.78 24.66-118.15 25.26-118.47-9.75-118.59-23.11 52.78-24.65 118.15-25.25z" style="mix-blend-mode:screen" fill-rule="evenodd"/></g><text transform="translate(210.65 110.41)" font-size="66" fill="#fff" font-family="SKFChevin-Bold,SKF Chevin" font-weight="700">SK<tspan class="cls-35" x="78.15" y="0">F</tspan><tspan x="112.66" y="0"> </tspan><tspan class="cls-35" x="132.81" y="0">P</tspan><tspan x="171.48" y="0">ulse</tspan></text></g></g></g></svg>