<svg xmlns="http://www.w3.org/2000/svg" xmlns:xlink="http://www.w3.org/1999/xlink" viewBox="0 0 669.3 162.69">
  <defs>
    <style>
      .cls-1{isolation:isolate;}.cls-2{opacity:0.2;}
      .cls-10,.cls-11,.cls-12,.cls-13,.cls-14,.cls-15,.cls-16,.cls-17,.cls-18,.cls-19,.cls-20,.cls-21,.cls-22,.cls-23,
      .cls-24,.cls-3,.cls-4,.cls-5,.cls-6,.cls-7,.cls-8,.cls-9{fill:#00dcff;}.cls-4{opacity:0.95;}.cls-5{opacity:0.9;}
      .cls-6{opacity:0.86;}.cls-7{opacity:0.81;}.cls-8{opacity:0.76;}.cls-9{opacity:0.71;}.cls-10{opacity:0.67;}
      .cls-11{opacity:0.62;}.cls-12{opacity:0.57;}.cls-13{opacity:0.52;}.cls-14{opacity:0.48;}.cls-15{opacity:0.43;}
      .cls-16{opacity:0.38;}.cls-17{opacity:0.33;}.cls-18{opacity:0.29;}.cls-19{opacity:0.24;}.cls-20{opacity:0.19;}
      .cls-21{opacity:0.14;}.cls-22{opacity:0.1;}.cls-23{opacity:0.05;}.cls-24{opacity:0;}
      .cls-25,.cls-26{fill:none;stroke-miterlimit:10;}
      .cls-25{stroke:#31756c;stroke-width:4.79px;mix-blend-mode:color-dodge;}
      .cls-26{stroke:#00dcff;stroke-width:6.78px;}.cls-27{opacity:0.6;}
      .cls-28,.cls-29,.cls-30,.cls-31,.cls-32,.cls-33{mix-blend-mode:screen;}
      .cls-30,.cls-33{fill-rule:evenodd;}
      .cls-34{font-size:66px;fill:#fff;font-family:SKFChevin-Bold, SKF Chevin;font-weight:700;}
      .cls-35{letter-spacing:-0.02em;}
    </style>
    <filter id="blurMe">
      <feGaussianBlur in="SourceGraphic" stdDeviation="7"></feGaussianBlur>
    </filter>
  </defs>
  <g class="cls-1">
    <g id="图层_2" data-name="图层 2">
      <g id="图层_2-2" data-name="图层 2">
        <g class="cls-2">
          <polygon class="cls-3" points="45.8 93.8 136.2 3.39 242.14 3.39 627.97 3.39 627.97 160.29 45.8 160.3 45.8 93.8"/>
          <polygon class="cls-4" points="47.74 94.6 137 5.33 235.13 5.33 626.03 5.33 626.03 158.36 47.74 158.36 47.74 94.6"/>
          <polygon class="cls-5" points="49.68 95.4 137.8 7.27 228.12 7.27 624.09 7.27 624.09 156.42 49.68 156.42 49.68 95.4"/>
          <polygon class="cls-6" points="51.62 96.2 138.61 9.21 221.12 9.21 622.15 9.21 622.15 154.48 51.62 154.48 51.62 96.2"/>
          <polygon class="cls-7" points="53.55 97.01 139.41 11.14 214.11 11.14 620.21 11.14 620.21 152.54 53.55 152.54 53.55 97.01"/>
          <polygon class="cls-8" points="55.49 97.81 140.21 13.08 207.1 13.08 618.27 13.08 618.27 150.6 55.49 150.61 55.49 97.81"/>
          <polygon class="cls-9" points="57.43 98.61 141.01 15.02 200.09 15.02 616.34 15.02 616.34 148.67 57.43 148.67 57.43 98.61"/>
          <polygon class="cls-10" points="59.37 99.42 141.82 16.96 193.09 16.96 614.4 16.96 614.4 146.73 59.37 146.73 59.37 99.42"/>
          <polygon class="cls-11" points="61.3 100.22 142.62 18.9 186.08 18.9 612.46 18.9 612.46 144.79 61.3 144.79 61.3 100.22"/>
          <polygon class="cls-12" points="63.24 101.02 143.42 20.83 179.07 20.83 610.52 20.83 610.52 142.85 63.24 142.85 63.24 101.02"/>
          <polygon class="cls-13" points="65.18 101.82 144.23 22.77 172.07 22.77 608.59 22.77 608.59 140.91 65.18 140.92 65.18 101.82"/>
          <polygon class="cls-14" points="67.12 102.63 145.03 24.71 165.06 24.71 606.65 24.71 606.65 138.98 67.12 138.98 67.12 102.63"/>
          <polygon class="cls-15" points="69.06 103.43 145.83 26.65 158.05 26.65 604.71 26.65 604.71 137.04 69.06 137.04 69.06 103.43"/>
          <polygon class="cls-16" points="71 104.23 146.63 28.59 151.04 28.59 602.77 28.59 602.77 135.1 71 135.1 71 104.23"/>
          <polygon class="cls-17" points="72.93 105.03 147.44 30.52 144.04 30.52 600.83 30.52 600.83 133.16 72.93 133.16 72.93 105.03"/>
          <polygon class="cls-18" points="74.87 105.84 148.24 32.46 137.03 32.46 598.89 32.46 598.89 131.22 74.87 131.23 74.87 105.84"/>
          <polygon class="cls-19" points="76.81 106.64 149.04 34.4 130.02 34.4 596.96 34.4 596.96 129.29 76.81 129.29 76.81 106.64"/>
          <polygon class="cls-20" points="78.75 107.44 149.85 36.34 123.02 36.34 595.02 36.34 595.02 127.35 78.75 127.35 78.75 107.44"/>
          <polygon class="cls-21" points="80.68 108.25 150.65 38.28 116.01 38.28 593.08 38.28 593.08 125.41 80.68 125.41 80.68 108.25"/>
          <polygon class="cls-22" points="82.62 109.05 151.45 40.21 109 40.21 591.14 40.21 591.14 123.47 82.62 123.47 82.62 109.05"/>
          <polygon class="cls-23" points="84.56 109.85 152.25 42.15 102 42.15 589.2 42.15 589.2 121.54 84.56 121.54 84.56 109.85"/>
          <polygon class="cls-24" points="86.5 119.6 86.5 110.65 153.06 44.09 94.99 44.09 587.27 44.09 587.27 119.6 86.5 119.6"/>
        </g>
        <polygon class="cls-25" points="45.8 93.8 136.2 3.39 267.75 3.39 627.97 3.39 627.97 160.29 45.8 160.3 45.8 93.8"/>
        <polyline class="cls-26" points="113.88 25.71 136.2 3.39 225.84 3.39"/>
        <polyline class="cls-26" points="45.8 161.15 45.8 93.8 68.19 71.41"/>
        <polyline class="cls-26" points="582.17 3.39 627.97 3.39 627.97 44.09"/>
        <g class="cls-27">
          <ellipse class="cls-28" cx="241.19" cy="89.23" rx="241.2" ry="49.27"
                   opacity="0.3" fill="#1039aa" filter="url(#blurMe)"
                   transform="translate(-0.8 2.19) rotate(-0.52)"/>
          <ellipse class="cls-29" cx="241.19" cy="89.23" rx="183.34" ry="37.45"
                   opacity="0.3" fill="#092161" filter="url(#blurMe)"
                   transform="translate(-0.8 2.19) rotate(-0.52)"/>
          <path class="cls-30"
                 opacity="0.3" fill="#1856ff" filter="url(#blurMe)"
                 d="M241,65.06c65.37-.6,118.47,9.75,118.59,23.1s-52.78,24.66-118.15,25.25-118.47-9.75-118.59-23.1S175.6,65.65,241,65.06Z"/>
          <ellipse class="cls-31" cx="428.11" cy="88.66" rx="241.2" ry="49.27"
                   opacity="0.3" fill="#1039aa" filter="url(#blurMe)"
                   transform="translate(-0.79 3.89) rotate(-0.52)"/>
          <ellipse class="cls-32" cx="428.11" cy="88.66" rx="183.34" ry="37.45"
                   opacity="0.3" fill="#092161" filter="url(#blurMe)"
                   transform="translate(-0.79 3.89) rotate(-0.52)"/>
          <path class="cls-33"  
                opacity="0.3" fill="#1856ff" filter="url(#blurMe)"
                d="M427.89,64.48c65.38-.59,118.47,9.75,118.59,23.1s-52.78,24.66-118.15,25.26-118.47-9.75-118.59-23.11S362.52,65.08,427.89,64.48Z"/>
        </g>
        <text class="cls-34" transform="translate(210.65 110.41)">
          SK<tspan class="cls-35" x="78.15" y="0">F</tspan><tspan x="112.66" y="0"> </tspan><tspan class="cls-35" x="132.81" y="0">P</tspan><tspan x="171.48" y="0">ulse</tspan>
        </text>
      </g>
    </g>
  </g>
</svg>