<svg xmlns="http://www.w3.org/2000/svg" xmlns:xlink="http://www.w3.org/1999/xlink" viewBox="0 0 855.44 162.69">
  <defs>
    <style>.cls-1{isolation:isolate;}.cls-2{opacity:0.2;}
    .cls-10,.cls-11,.cls-12,.cls-13,.cls-14,.cls-15,.cls-16,.cls-17,.cls-18,
    .cls-19,.cls-20,.cls-21,.cls-22,.cls-23,.cls-24,.cls-3,.cls-4,.cls-5,.cls-6,.cls-7,.cls-8,.cls-9{fill:#00dcff;}
    .cls-4{opacity:0.95;}.cls-5{opacity:0.9;}.cls-6{opacity:0.86;}.cls-7{opacity:0.81;}
    .cls-8{opacity:0.76;}.cls-9{opacity:0.71;}.cls-10{opacity:0.67;}.cls-11{opacity:0.62;}.cls-12{opacity:0.57;}
    .cls-13{opacity:0.52;}.cls-14{opacity:0.48;}.cls-15{opacity:0.43;}.cls-16{opacity:0.38;}.cls-17{opacity:0.33;}
    .cls-18{opacity:0.29;}.cls-19{opacity:0.24;}.cls-20{opacity:0.19;}.cls-21{opacity:0.14;}.cls-22{opacity:0.1;}
    .cls-23{opacity:0.05;}.cls-24{opacity:0;}.cls-25,.cls-26{fill:none;stroke-miterlimit:10;}
    .cls-25{stroke:#31756c;stroke-width:4.79px;mix-blend-mode:color-dodge;}.cls-26{stroke:#00dcff;stroke-width:6.78px;}
    .cls-27{opacity:0.6;}.cls-28,.cls-29,.cls-30,.cls-31,.cls-32,.cls-33{mix-blend-mode:screen;}
    .cls-30,.cls-33{fill-rule:evenodd;}
    .cls-34{font-size:66px;fill:#fff;font-family:SKFChevin-Bold, SKF Chevin;font-weight:700;}
    .cls-35{letter-spacing:-0.02em;}.cls-36{letter-spacing:-0.03em;}.cls-37{letter-spacing:-0.01em;}
  </style>
    <filter id="blurMe">
      <feGaussianBlur in="SourceGraphic" stdDeviation="7"></feGaussianBlur>
    </filter>
  </defs>
  <g class="cls-1">
    <g id="图层_2" data-name="图层 2">
      <g id="图层_2-2" data-name="图层 2">
        <g class="cls-2">
          <polygon class="cls-3" points="32.53 93.8 122.93 3.39 228.87 3.39 777.3 3.39 777.3 160.29 32.53 160.3 32.53 93.8"/>
          <polygon class="cls-4" points="34.47 94.6 123.73 5.33 221.86 5.33 775.36 5.33 775.36 158.36 34.47 158.36 34.47 94.6"/>
          <polygon class="cls-5" points="36.41 95.4 124.53 7.27 214.85 7.27 773.42 7.27 773.42 156.42 36.41 156.42 36.41 95.4"/>
          <polygon class="cls-6" points="38.34 96.2 125.34 9.21 207.85 9.21 771.48 9.21 771.48 154.48 38.34 154.48 38.34 96.2"/>
          <polygon class="cls-7" points="40.28 97.01 126.14 11.14 200.84 11.14 769.54 11.14 769.54 152.54 40.28 152.54 40.28 97.01"/>
          <polygon class="cls-8" points="42.22 97.81 126.94 13.08 193.83 13.08 767.61 13.08 767.61 150.6 42.22 150.61 42.22 97.81"/>
          <polygon class="cls-9" points="44.16 98.61 127.75 15.02 186.82 15.02 765.67 15.02 765.67 148.67 44.16 148.67 44.16 98.61"/>
          <polygon class="cls-10" points="46.1 99.42 128.55 16.96 179.82 16.96 763.73 16.96 763.73 146.73 46.1 146.73 46.1 99.42"/>
          <polygon class="cls-11" points="48.03 100.22 129.35 18.9 172.81 18.9 761.79 18.9 761.79 144.79 48.03 144.79 48.03 100.22"/>
          <polygon class="cls-12" points="49.97 101.02 130.15 20.83 165.8 20.83 759.85 20.83 759.85 142.85 49.97 142.85 49.97 101.02"/>
          <polygon class="cls-13" points="51.91 101.82 130.96 22.77 158.8 22.77 757.92 22.77 757.92 140.91 51.91 140.92 51.91 101.82"/>
          <polygon class="cls-14" points="53.85 102.63 131.76 24.71 151.79 24.71 755.98 24.71 755.98 138.98 53.85 138.98 53.85 102.63"/>
          <polygon class="cls-15" points="55.79 103.43 132.56 26.65 144.78 26.65 754.04 26.65 754.04 137.04 55.79 137.04 55.79 103.43"/>
          <polygon class="cls-16" points="57.73 104.23 133.37 28.59 137.78 28.59 752.1 28.59 752.1 135.1 57.73 135.1 57.73 104.23"/>
          <polygon class="cls-17" points="59.66 105.03 134.17 30.52 130.77 30.52 750.16 30.52 750.16 133.16 59.66 133.16 59.66 105.03"/>
          <polygon class="cls-18" points="61.6 105.84 134.97 32.46 123.76 32.46 748.23 32.46 748.23 131.22 61.6 131.23 61.6 105.84"/>
          <polygon class="cls-19" points="63.54 106.64 135.77 34.4 116.75 34.4 746.29 34.4 746.29 129.29 63.54 129.29 63.54 106.64"/>
          <polygon class="cls-20" points="65.48 107.44 136.58 36.34 109.75 36.34 744.35 36.34 744.35 127.35 65.48 127.35 65.48 107.44"/>
          <polygon class="cls-21" points="67.42 108.25 137.38 38.28 102.74 38.28 742.41 38.28 742.41 125.41 67.42 125.41 67.42 108.25"/>
          <polygon class="cls-22" points="69.35 109.05 138.18 40.21 95.73 40.21 740.47 40.21 740.47 123.47 69.35 123.47 69.35 109.05"/>
          <polygon class="cls-23" points="71.29 109.85 138.99 42.15 88.73 42.15 738.53 42.15 738.53 121.54 71.29 121.54 71.29 109.85"/>
          <polygon class="cls-24" points="73.23 119.6 73.23 110.65 139.79 44.09 81.72 44.09 736.6 44.09 736.6 119.6 73.23 119.6"/>
        </g>
        <polygon class="cls-25" points="32.53 93.8 122.93 3.39 254.48 3.39 777.3 3.39 777.3 160.29 32.53 160.3 32.53 93.8"/>
        <polyline class="cls-26" points="100.61 25.71 122.93 3.39 212.57 3.39"/>
        <polyline class="cls-26" points="32.53 161.15 32.53 93.8 54.92 71.41"/>
        <polyline class="cls-26" points="731.5 3.39 777.3 3.39 777.3 44.09"/>
        <g class="cls-27">
          <ellipse class="cls-28" cx="308.27" cy="87.16" rx="308.28" ry="49.27" 
                   opacity="0.3" fill="#1039aa" filter="url(#blurMe)"
                   transform="translate(-0.78 2.8) rotate(-0.52)"/>
          <ellipse class="cls-29" cx="308.27" cy="87.16" rx="234.33" ry="37.45" 
                   opacity="0.3" fill="#092161" filter="url(#blurMe)"
                   transform="translate(-0.78 2.8) rotate(-0.52)"/>
          <path class="cls-30" 
                 opacity="0.3" fill="#1856ff" filter="url(#blurMe)"
                d="M308.05,63c83.55-.76,151.39,9.45,151.51,22.8S392,110.57,308.49,111.33,157.1,101.88,157,88.53,224.49,63.74,308.05,63Z"/>
          <ellipse class="cls-31" cx="547.17" cy="86.11" rx="308.28" ry="49.27" 
                   opacity="0.3" fill="#1039aa" filter="url(#blurMe)"
                   transform="translate(-0.76 4.97) rotate(-0.52)"/>
          <ellipse class="cls-32" cx="547.17" cy="86.11" rx="234.33" ry="37.45" 
                   opacity="0.3" fill="#092161" filter="url(#blurMe)"
                   transform="translate(-0.76 4.97) rotate(-0.52)"/>
          <path class="cls-33" 
                 opacity="0.3" fill="#1856ff" filter="url(#blurMe)"
                d="M547,61.93c83.55-.76,151.38,9.45,151.51,22.8S631,109.53,547.39,110.29,396,100.83,395.88,87.48,463.4,62.69,547,61.93Z"/>
        </g>
        <text class="cls-34" transform="translate(227.17 109.52)">
          SK<tspan class="cls-35" x="78.15" y="0">F</tspan><tspan x="112.66" y="0" xml:space="preserve"> Mic</tspan><tspan class="cls-36" x="233.29" y="0">r</tspan><tspan x="259.49" y="0">o</tspan><tspan class="cls-37" x="294.68" y="0">l</tspan><tspan x="312.57" y="0">og</tspan>
        </text>
      </g>
    </g>
  </g>
</svg>