<svg xmlns="http://www.w3.org/2000/svg" xmlns:xlink="http://www.w3.org/1999/xlink" viewBox="0 0 132.09 132.09">
  <defs>
    <style>.cls-1{fill:none;stroke-miterlimit:10;stroke-width:0.8px;stroke:url(#未命名的渐变_19);}.cls-2{fill:#fff;}.cls-3{fill:#f8feff;}.cls-4{fill:#f2fdff;}.cls-5{fill:#ebfcff;}.cls-6{fill:#e5fbff;}.cls-7{fill:#defbff;}.cls-8{fill:#d8faff;}.cls-9{fill:#d1f9ff;}.cls-10{fill:#cbf8ff;}.cls-11{fill:#c4f7ff;}.cls-12{fill:#bef6ff;}.cls-13{fill:#b7f5ff;}.cls-14{fill:#b1f4ff;}.cls-15{fill:#aaf3ff;}.cls-16{fill:#a3f2ff;}.cls-17{fill:#9df2ff;}.cls-18{fill:#96f1ff;}.cls-19{fill:#90f0ff;}.cls-20{fill:#89efff;}.cls-21{fill:#83eeff;}.cls-22{fill:#7cedff;}.cls-23{fill:#76ecff;}.cls-24{fill:#6febff;}.cls-25{fill:#69eaff;}.cls-26{fill:#62e9ff;}.cls-27{fill:#5ce9ff;}.cls-28{fill:#55e8ff;}.cls-29{fill:#4ee7ff;}.cls-30{fill:#48e6ff;}.cls-31{fill:#41e5ff;}.cls-32{fill:#3be4ff;}.cls-33{fill:#34e3ff;}.cls-34{fill:#2ee2ff;}.cls-35{fill:#27e1ff;}.cls-36{fill:#21e0ff;}.cls-37{fill:#1ae0ff;}.cls-38{fill:#14dfff;}.cls-39{fill:#0ddeff;}.cls-40{fill:#07ddff;}.cls-41{fill:#00dcff;}</style>
    <linearGradient id="未命名的渐变_19" x1="-2563.02" y1="1576.8" x2="-2563.02" y2="1686.23" gradientTransform="translate(2628.74 -1565.59)" gradientUnits="userSpaceOnUse">
      <stop offset="0" stop-color="#00dcff"/>
      <stop offset="1" stop-color="#fff"/>
    </linearGradient>
  </defs>
  <g id="图层_2" data-name="图层 2">
    <g id="图层_1-2" data-name="图层 1">
      <path class="cls-1" d="M65.72,120.24A54.32,54.32,0,1,1,120,65.93,54.38,54.38,0,0,1,65.72,120.24Z"/>
      <rect class="cls-2" x="64.65" y="124.42" width="2.8" height="7.67" rx="1.4"/>
      <rect class="cls-3" x="55.72" y="126.37" width="7.67" height="2.8" rx="1.4" transform="translate(-75.53 168.07) rotate(-81.62)"/>
      <rect class="cls-4" x="49.1" y="124.94" width="7.67" height="2.8" rx="1.4" transform="translate(-83.03 142.98) rotate(-74.25)"/>
      <rect class="cls-5" x="42.44" y="122.63" width="7.67" height="2.8" rx="1.4" transform="translate(-86.03 119.6) rotate(-67.62)"/>
      <rect class="cls-6" x="35.88" y="119.5" width="7.67" height="2.8" rx="1.4" transform="translate(-85.48 98.09) rotate(-61.49)"/>
      <rect class="cls-7" x="29.52" y="115.61" width="7.67" height="2.8" rx="1.4" transform="translate(-82.05 78.47) rotate(-55.63)"/>
      <rect class="cls-8" x="23.48" y="111.01" width="7.67" height="2.8" rx="1.4" transform="translate(-76.21 60.79) rotate(-49.84)"/>
      <rect class="cls-9" x="17.88" y="105.77" width="7.67" height="2.8" rx="1.4" transform="translate(-68.3 45.09) rotate(-43.95)"/>
      <rect class="cls-10" x="12.83" y="99.95" width="7.67" height="2.8" rx="1.4" transform="translate(-58.62 31.49) rotate(-37.8)"/>
      <rect class="cls-11" x="8.46" y="93.6" width="7.67" height="2.8" rx="1.4" transform="translate(-47.5 20.16) rotate(-31.25)"/>
      <rect class="cls-12" x="4.87" y="86.79" width="7.67" height="2.8" rx="1.4" transform="translate(-35.35 11.3) rotate(-24.17)"/>
      <rect class="cls-13" x="2.19" y="79.56" width="7.67" height="2.8" rx="1.4" transform="translate(-22.74 5.04) rotate(-16.49)"/>
      <rect class="cls-14" x="0.53" y="71.99" width="7.67" height="2.8" rx="1.4" transform="translate(-10.44 1.38) rotate(-8.21)"/>
      <rect class="cls-15" x="2.44" y="61.71" width="2.8" height="7.67" rx="1.4" transform="matrix(0.01, -1, 1, 0.01, -61.74, 68.87)"/>
      <rect class="cls-16" x="2.97" y="54" width="2.8" height="7.67" rx="1.4" transform="translate(-53.54 54.61) rotate(-82.49)"/>
      <rect class="cls-17" x="4.42" y="46.57" width="2.8" height="7.67" rx="1.4" transform="matrix(0.25, -0.97, 0.97, 0.25, -44.44, 43.4)"/>
      <rect class="cls-18" x="6.71" y="39.49" width="2.8" height="7.67" rx="1.4" transform="translate(-35.18 35.05) rotate(-68.57)"/>
      <rect class="cls-19" x="9.81" y="32.8" width="2.8" height="7.67" rx="1.4" transform="translate(-26.37 29.17) rotate(-61.75)"/>
      <rect class="cls-20" x="13.64" y="26.58" width="2.8" height="7.67" rx="1.4" transform="translate(-18.5 25.3) rotate(-55.01)"/>
      <rect class="cls-21" x="18.16" y="20.87" width="2.8" height="7.67" rx="1.4" transform="translate(-11.9 22.89) rotate(-48.33)"/>
      <rect class="cls-22" x="23.3" y="15.72" width="2.8" height="7.67" rx="1.4" transform="translate(-6.75 21.37) rotate(-41.67)"/>
      <rect class="cls-23" x="29.01" y="11.21" width="2.8" height="7.67" rx="1.4" transform="translate(-3.13 20.16) rotate(-34.99)"/>
      <rect class="cls-24" x="35.24" y="7.37" width="2.8" height="7.67" rx="1.4" transform="translate(-0.94 18.68) rotate(-28.25)"/>
      <rect class="cls-25" x="41.92" y="4.28" width="2.8" height="7.67" rx="1.4" transform="translate(0.03 16.39) rotate(-21.43)"/>
      <rect class="cls-26" x="49.01" y="1.98" width="2.8" height="7.67" rx="1.4" transform="translate(0.15 12.82) rotate(-14.52)"/>
      <rect class="cls-27" x="56.43" y="0.54" width="2.8" height="7.67" rx="1.4" transform="matrix(0.99, -0.13, 0.13, 0.99, -0.08, 7.6)"/>
      <rect class="cls-28" x="64.14" width="2.8" height="7.67" rx="1.4" transform="translate(-0.03 0.52) rotate(-0.45)"/>
      <rect class="cls-29" x="69.56" y="2.96" width="7.67" height="2.8" rx="1.4" transform="translate(58.59 76.38) rotate(-81.79)"/>
      <rect class="cls-30" x="77.13" y="4.63" width="7.67" height="2.8" rx="1.4" transform="translate(52.2 81.95) rotate(-73.51)"/>
      <rect class="cls-31" x="84.35" y="7.31" width="7.67" height="2.8" rx="1.4" transform="translate(44.13 85.6) rotate(-65.83)"/>
      <rect class="cls-32" x="91.16" y="10.9" width="7.67" height="2.8" rx="1.4" transform="translate(35.21 87.14) rotate(-58.75)"/>
      <rect class="cls-33" x="97.51" y="15.27" width="7.67" height="2.8" rx="1.4" transform="translate(26.06 86.53) rotate(-52.2)"/>
      <rect class="cls-34" x="103.34" y="20.32" width="7.67" height="2.8" rx="1.4" transform="translate(17.16 83.8) rotate(-46.05)"/>
      <rect class="cls-35" x="108.58" y="25.91" width="7.67" height="2.8" rx="1.4" transform="translate(8.89 78.94) rotate(-40.16)"/>
      <rect class="cls-36" x="113.17" y="31.95" width="7.67" height="2.8" rx="1.4" transform="translate(1.6 71.89) rotate(-34.37)"/>
      <rect class="cls-37" x="117.06" y="38.31" width="7.67" height="2.8" rx="1.4" transform="translate(-4.29 62.53) rotate(-28.51)"/>
      <rect class="cls-38" x="120.19" y="44.88" width="7.67" height="2.8" rx="1.4" transform="translate(-8.28 50.71) rotate(-22.38)"/>
      <rect class="cls-39" x="122.5" y="51.53" width="7.67" height="2.8" rx="1.4" transform="translate(-9.63 36.29) rotate(-15.75)"/>
      <rect class="cls-40" x="123.93" y="58.16" width="7.67" height="2.8" rx="1.4" transform="translate(-7.32 19.26) rotate(-8.38)"/>
      <rect class="cls-41" x="124.42" y="64.65" width="7.67" height="2.8" rx="1.4"/>
    </g>
  </g>
</svg>