<svg xmlns="http://www.w3.org/2000/svg" xmlns:xlink="http://www.w3.org/1999/xlink" viewBox="0 0 612.4 218.16"><defs><style>.cls-1{isolation:isolate;}.cls-2{fill:url(#未命名的渐变_6);}.cls-3,.cls-4{fill:none;stroke-miterlimit:10;}.cls-3{stroke:#31756c;stroke-width:1.81px;mix-blend-mode:color-dodge;}.cls-4{stroke:#00dcff;stroke-width:5px;}.cls-5{opacity:0.2;}.cls-10,.cls-11,.cls-12,.cls-13,.cls-14,.cls-15,.cls-16,.cls-17,.cls-18,.cls-19,.cls-20,.cls-21,.cls-22,.cls-23,.cls-24,.cls-25,.cls-26,.cls-27,.cls-6,.cls-7,.cls-8,.cls-9{fill:#00dcff;}.cls-7{opacity:0.95;}.cls-8{opacity:0.9;}.cls-9{opacity:0.86;}.cls-10{opacity:0.81;}.cls-11{opacity:0.76;}.cls-12{opacity:0.71;}.cls-13{opacity:0.67;}.cls-14{opacity:0.62;}.cls-15{opacity:0.57;}.cls-16{opacity:0.52;}.cls-17{opacity:0.48;}.cls-18{opacity:0.43;}.cls-19{opacity:0.38;}.cls-20{opacity:0.33;}.cls-21{opacity:0.29;}.cls-22{opacity:0.24;}.cls-23{opacity:0.19;}.cls-24{opacity:0.14;}.cls-25{opacity:0.1;}.cls-26{opacity:0.05;}.cls-27{opacity:0;}.cls-28{font-size:60px;fill:#fff;font-family:SourceHanSansSC-Light-GBpc-EUC-H, Source Han Sans SC;}</style><linearGradient id="未命名的渐变_6" x1="-2205.67" y1="221.27" x2="-2766.91" y2="-295.91" gradientTransform="translate(2634.61)" gradientUnits="userSpaceOnUse"><stop offset="0" stop-color="aqua" stop-opacity="0"/><stop offset="0.25" stop-color="#00e4e6" stop-opacity="0.12"/><stop offset="0.6" stop-color="#0098a2" stop-opacity="0.46"/><stop offset="1" stop-color="#001f35"/></linearGradient></defs><g class="cls-1"><g id="图层_2" data-name="图层 2"><g id="图层_1-2" data-name="图层 1"><polygon class="cls-2" points="611.49 215.66 2.5 215.66 2.5 121.32 121.68 2.14 611.49 2.14 611.49 215.66"/><polygon class="cls-3" points="611.49 2.14 121.68 2.14 2.5 121.32 2.5 215.66 527.33 215.66 611.49 131.5 611.49 2.14"/><line class="cls-4" x1="2.5" y1="215.66" x2="144.13" y2="215.66"/><polyline class="cls-4" points="2.5 180.45 2.5 121.32 22.81 101.02"/><line class="cls-4" x1="144.13" y1="2.5" x2="247.18" y2="2.5"/><polyline class="cls-4" points="570.01 172.98 527.33 215.66 344.41 215.66"/><line class="cls-4" x1="482.21" y1="2.5" x2="611.49" y2="2.5"/><g class="cls-5"><polygon class="cls-6" points="65.78 114.93 120.63 60.07 358.44 60.07 548.22 60.07 548.22 155.27 65.78 155.28 65.78 114.93"/><polygon class="cls-7" points="66.95 115.41 121.11 61.25 358.92 61.25 547.04 61.25 547.04 154.1 66.95 154.1 66.95 115.41"/><polygon class="cls-8" points="68.13 115.9 121.6 62.42 359.41 62.42 545.86 62.42 545.86 152.92 68.13 152.92 68.13 115.9"/><polygon class="cls-9" points="69.31 116.39 122.09 63.6 359.89 63.6 544.69 63.6 544.69 151.75 69.31 151.75 69.31 116.39"/><polygon class="cls-10" points="70.48 116.87 122.58 64.78 360.37 64.78 543.51 64.78 543.51 150.57 70.48 150.57 70.48 116.87"/><polygon class="cls-11" points="71.66 117.36 123.06 65.95 360.86 65.95 542.34 65.95 542.34 149.4 71.66 149.4 71.66 117.36"/><polygon class="cls-12" points="72.83 117.85 123.55 67.13 361.34 67.13 541.16 67.13 541.16 148.22 72.83 148.22 72.83 117.85"/><polygon class="cls-13" points="74.01 118.33 124.04 68.3 361.82 68.3 539.98 68.3 539.98 147.04 74.01 147.04 74.01 118.33"/><polygon class="cls-14" points="75.19 118.82 124.53 69.48 362.31 69.48 538.81 69.48 538.81 145.87 75.19 145.87 75.19 118.82"/><polygon class="cls-15" points="76.36 119.31 125.01 70.66 362.79 70.66 537.63 70.66 537.63 144.69 76.36 144.69 76.36 119.31"/><polygon class="cls-16" points="77.54 119.8 125.5 71.83 363.27 71.83 536.46 71.83 536.46 143.52 77.54 143.52 77.54 119.8"/><polygon class="cls-17" points="78.71 120.28 125.99 73.01 363.75 73.01 535.28 73.01 535.28 142.34 78.71 142.34 78.71 120.28"/><polygon class="cls-18" points="79.89 120.77 126.47 74.18 364.24 74.18 534.1 74.18 534.1 141.16 79.89 141.16 79.89 120.77"/><polygon class="cls-19" points="81.06 121.26 126.96 75.36 364.72 75.36 532.93 75.36 532.93 139.99 81.06 139.99 81.06 121.26"/><polygon class="cls-20" points="82.24 121.75 127.45 76.53 365.2 76.53 531.75 76.53 531.75 138.81 82.24 138.81 82.24 121.75"/><polygon class="cls-21" points="83.42 122.23 127.93 77.71 365.69 77.71 530.58 77.71 530.58 137.64 83.42 137.64 83.42 122.23"/><polygon class="cls-22" points="84.59 122.72 128.42 78.89 366.17 78.89 529.4 78.89 529.4 136.46 84.59 136.46 84.59 122.72"/><polygon class="cls-23" points="85.77 123.21 128.91 80.06 366.65 80.06 528.22 80.06 528.22 135.28 85.77 135.28 85.77 123.21"/><polygon class="cls-24" points="86.94 123.69 129.4 81.24 367.13 81.24 527.05 81.24 527.05 134.11 86.94 134.11 86.94 123.69"/><polygon class="cls-25" points="88.12 124.18 129.88 82.41 367.62 82.41 525.87 82.41 525.87 132.93 88.12 132.93 88.12 124.18"/><polygon class="cls-26" points="89.3 124.67 130.37 83.59 368.1 83.59 524.7 83.59 524.7 131.76 89.3 131.76 89.3 124.67"/><polygon class="cls-27" points="90.47 130.58 90.47 125.15 130.86 84.77 368.58 84.77 523.52 84.77 523.52 130.58 90.47 130.58"/></g><text class="cls-28" transform="translate(187 130.58)">数据采集</text></g></g></g></svg>