<svg xmlns="http://www.w3.org/2000/svg" xmlns:xlink="http://www.w3.org/1999/xlink" viewBox="0 0 612.4 1149.96"><defs><style>.cls-1{isolation:isolate;}.cls-2{fill:url(#未命名的渐变_6);}.cls-3,.cls-4{fill:none;stroke-miterlimit:10;}.cls-3{stroke:#31756c;stroke-width:1.81px;mix-blend-mode:color-dodge;}.cls-4{stroke:#00dcff;stroke-width:5px;}.cls-5{opacity:0.2;}.cls-10,.cls-11,.cls-12,.cls-13,.cls-14,.cls-15,.cls-16,.cls-17,.cls-18,.cls-19,.cls-20,.cls-21,.cls-22,.cls-23,.cls-24,.cls-25,.cls-26,.cls-27,.cls-6,.cls-7,.cls-8,.cls-9{fill:#00dcff;}.cls-7{opacity:0.95;}.cls-8{opacity:0.9;}.cls-9{opacity:0.86;}.cls-10{opacity:0.81;}.cls-11{opacity:0.76;}.cls-12{opacity:0.71;}.cls-13{opacity:0.67;}.cls-14{opacity:0.62;}.cls-15{opacity:0.57;}.cls-16{opacity:0.52;}.cls-17{opacity:0.48;}.cls-18{opacity:0.43;}.cls-19{opacity:0.38;}.cls-20{opacity:0.33;}.cls-21{opacity:0.29;}.cls-22{opacity:0.24;}.cls-23{opacity:0.19;}.cls-24{opacity:0.14;}.cls-25{opacity:0.1;}.cls-26{opacity:0.05;}.cls-27{opacity:0;}.cls-28{font-size:60px;}.cls-28,.cls-29{fill:#fff;font-family:SourceHanSansSC-Light-GBpc-EUC-H, Source Han Sans SC;}.cls-29{font-size:100px;}</style><linearGradient id="未命名的渐变_6" x1="-2091.86" y1="792.05" x2="-3345.57" y2="-363.23" gradientTransform="translate(2634.61)" gradientUnits="userSpaceOnUse"><stop offset="0" stop-color="aqua" stop-opacity="0"/><stop offset="0.25" stop-color="#00e4e6" stop-opacity="0.12"/><stop offset="0.6" stop-color="#0098a2" stop-opacity="0.46"/><stop offset="1" stop-color="#001f35"/></linearGradient></defs><g class="cls-1"><g id="图层_2" data-name="图层 2"><g id="图层_1-2" data-name="图层 1"><polygon class="cls-2" points="611.49 1147.46 2.5 1147.46 2.5 121.32 121.68 2.14 611.49 2.14 611.49 1147.46"/><polygon class="cls-3" points="611.49 2.14 121.68 2.14 2.5 121.32 2.5 1147.46 527.33 1147.46 611.49 1063.3 611.49 2.14"/><polyline class="cls-4" points="2.5 1109.17 2.5 1147.46 53.58 1147.46"/><polyline class="cls-4" points="2.5 220.46 2.5 121.32 22.81 101.02"/><line class="cls-4" x1="144.13" y1="2.5" x2="247.18" y2="2.5"/><polyline class="cls-4" points="570.01 1104.78 527.33 1147.46 344.41 1147.46"/><line class="cls-4" x1="482.21" y1="2.5" x2="611.49" y2="2.5"/><g class="cls-5"><polygon class="cls-6" points="67.85 107.84 122.7 52.99 360.52 52.99 550.29 52.99 550.29 148.19 67.85 148.19 67.85 107.84"/><polygon class="cls-7" points="69.03 108.33 123.19 54.16 361 54.16 549.11 54.16 549.11 147.01 69.03 147.01 69.03 108.33"/><polygon class="cls-8" points="70.2 108.81 123.68 55.34 361.48 55.34 547.94 55.34 547.94 145.84 70.2 145.84 70.2 108.81"/><polygon class="cls-9" points="71.38 109.3 124.16 56.51 361.96 56.51 546.76 56.51 546.76 144.66 71.38 144.66 71.38 109.3"/><polygon class="cls-10" points="72.56 109.79 124.65 57.69 362.45 57.69 545.59 57.69 545.59 143.49 72.56 143.49 72.56 109.79"/><polygon class="cls-11" points="73.73 110.28 125.14 58.87 362.93 58.87 544.41 58.87 544.41 142.31 73.73 142.31 73.73 110.28"/><polygon class="cls-12" points="74.91 110.76 125.63 60.04 363.41 60.04 543.23 60.04 543.23 141.13 74.91 141.13 74.91 110.76"/><polygon class="cls-13" points="76.08 111.25 126.11 61.22 363.9 61.22 542.06 61.22 542.06 139.96 76.08 139.96 76.08 111.25"/><polygon class="cls-14" points="77.26 111.74 126.6 62.39 364.38 62.39 540.88 62.39 540.88 138.78 77.26 138.78 77.26 111.74"/><polygon class="cls-15" points="78.44 112.22 127.09 63.57 364.86 63.57 539.71 63.57 539.71 137.61 78.44 137.61 78.44 112.22"/><polygon class="cls-16" points="79.61 112.71 127.57 64.75 365.35 64.75 538.53 64.75 538.53 136.43 79.61 136.43 79.61 112.71"/><polygon class="cls-17" points="80.79 113.2 128.06 65.92 365.83 65.92 537.35 65.92 537.35 135.25 80.79 135.26 80.79 113.2"/><polygon class="cls-18" points="81.96 113.69 128.55 67.1 366.31 67.1 536.18 67.1 536.18 134.08 81.96 134.08 81.96 113.69"/><polygon class="cls-19" points="83.14 114.17 129.03 68.27 366.8 68.27 535 68.27 535 132.9 83.14 132.9 83.14 114.17"/><polygon class="cls-20" points="84.32 114.66 129.52 69.45 367.28 69.45 533.83 69.45 533.83 131.73 84.32 131.73 84.32 114.66"/><polygon class="cls-21" points="85.49 115.15 130.01 70.63 367.76 70.63 532.65 70.63 532.65 130.55 85.49 130.55 85.49 115.15"/><polygon class="cls-22" points="86.67 115.63 130.5 71.8 368.24 71.8 531.47 71.8 531.47 129.38 86.67 129.38 86.67 115.63"/><polygon class="cls-23" points="87.84 116.12 130.98 72.98 368.73 72.98 530.3 72.98 530.3 128.2 87.84 128.2 87.84 116.12"/><polygon class="cls-24" points="89.02 116.61 131.47 74.15 369.21 74.15 529.12 74.15 529.12 127.02 89.02 127.02 89.02 116.61"/><polygon class="cls-25" points="90.19 117.09 131.96 75.33 369.69 75.33 527.95 75.33 527.95 125.85 90.19 125.85 90.19 117.09"/><polygon class="cls-26" points="91.37 117.58 132.44 76.5 370.18 76.5 526.77 76.5 526.77 124.67 91.37 124.67 91.37 117.58"/><polygon class="cls-27" points="92.55 123.5 92.55 118.07 132.93 77.68 370.66 77.68 525.6 77.68 525.6 123.5 92.55 123.5"/></g><g class="cls-5"><polygon class="cls-6" points="67.85 296.05 122.7 241.19 360.52 241.19 550.29 241.19 550.29 336.4 67.85 336.4 67.85 296.05"/><polygon class="cls-7" points="69.03 296.54 123.19 242.37 361 242.37 549.11 242.37 549.11 335.22 69.03 335.22 69.03 296.54"/><polygon class="cls-8" points="70.2 297.02 123.68 243.55 361.48 243.55 547.94 243.55 547.94 334.05 70.2 334.05 70.2 297.02"/><polygon class="cls-9" points="71.38 297.51 124.16 244.72 361.96 244.72 546.76 244.72 546.76 332.87 71.38 332.87 71.38 297.51"/><polygon class="cls-10" points="72.56 298 124.65 245.9 362.45 245.9 545.59 245.9 545.59 331.69 72.56 331.69 72.56 298"/><polygon class="cls-11" points="73.73 298.48 125.14 247.07 362.93 247.07 544.41 247.07 544.41 330.52 73.73 330.52 73.73 298.48"/><polygon class="cls-12" points="74.91 298.97 125.63 248.25 363.41 248.25 543.23 248.25 543.23 329.34 74.91 329.34 74.91 298.97"/><polygon class="cls-13" points="76.08 299.46 126.11 249.43 363.9 249.43 542.06 249.43 542.06 328.17 76.08 328.17 76.08 299.46"/><polygon class="cls-14" points="77.26 299.94 126.6 250.6 364.38 250.6 540.88 250.6 540.88 326.99 77.26 326.99 77.26 299.94"/><polygon class="cls-15" points="78.44 300.43 127.09 251.78 364.86 251.78 539.71 251.78 539.71 325.81 78.44 325.81 78.44 300.43"/><polygon class="cls-16" points="79.61 300.92 127.57 252.95 365.35 252.95 538.53 252.95 538.53 324.64 79.61 324.64 79.61 300.92"/><polygon class="cls-17" points="80.79 301.41 128.06 254.13 365.83 254.13 537.35 254.13 537.35 323.46 80.79 323.46 80.79 301.41"/><polygon class="cls-18" points="81.96 301.89 128.55 255.31 366.31 255.31 536.18 255.31 536.18 322.29 81.96 322.29 81.96 301.89"/><polygon class="cls-19" points="83.14 302.38 129.03 256.48 366.8 256.48 535 256.48 535 321.11 83.14 321.11 83.14 302.38"/><polygon class="cls-20" points="84.32 302.87 129.52 257.66 367.28 257.66 533.83 257.66 533.83 319.94 84.32 319.94 84.32 302.87"/><polygon class="cls-21" points="85.49 303.35 130.01 258.83 367.76 258.83 532.65 258.83 532.65 318.76 85.49 318.76 85.49 303.35"/><polygon class="cls-22" points="86.67 303.84 130.5 260.01 368.24 260.01 531.47 260.01 531.47 317.58 86.67 317.58 86.67 303.84"/><polygon class="cls-23" points="87.84 304.33 130.98 261.19 368.73 261.19 530.3 261.19 530.3 316.41 87.84 316.41 87.84 304.33"/><polygon class="cls-24" points="89.02 304.81 131.47 262.36 369.21 262.36 529.12 262.36 529.12 315.23 89.02 315.23 89.02 304.81"/><polygon class="cls-25" points="90.19 305.3 131.96 263.54 369.69 263.54 527.95 263.54 527.95 314.06 90.19 314.06 90.19 305.3"/><polygon class="cls-26" points="91.37 305.79 132.44 264.71 370.18 264.71 526.77 264.71 526.77 312.88 91.37 312.88 91.37 305.79"/><polygon class="cls-27" points="92.55 311.7 92.55 306.28 132.93 265.89 370.66 265.89 525.6 265.89 525.6 311.7 92.55 311.7"/></g><g class="cls-5"><polygon class="cls-6" points="67.85 672.46 122.7 617.61 360.52 617.61 550.29 617.61 550.29 712.81 67.85 712.81 67.85 672.46"/><polygon class="cls-7" points="69.03 672.95 123.19 618.78 361 618.78 549.11 618.78 549.11 711.63 69.03 711.64 69.03 672.95"/><polygon class="cls-8" points="70.2 673.44 123.68 619.96 361.48 619.96 547.94 619.96 547.94 710.46 70.2 710.46 70.2 673.44"/><polygon class="cls-9" points="71.38 673.92 124.16 621.14 361.96 621.14 546.76 621.14 546.76 709.28 71.38 709.29 71.38 673.92"/><polygon class="cls-10" points="72.56 674.41 124.65 622.31 362.45 622.31 545.59 622.31 545.59 708.11 72.56 708.11 72.56 674.41"/><polygon class="cls-11" points="73.73 674.9 125.14 623.49 362.93 623.49 544.41 623.49 544.41 706.93 73.73 706.93 73.73 674.9"/><polygon class="cls-12" points="74.91 675.38 125.63 624.66 363.41 624.66 543.23 624.66 543.23 705.76 74.91 705.76 74.91 675.38"/><polygon class="cls-13" points="76.08 675.87 126.11 625.84 363.9 625.84 542.06 625.84 542.06 704.58 76.08 704.58 76.08 675.87"/><polygon class="cls-14" points="77.26 676.36 126.6 627.02 364.38 627.02 540.88 627.02 540.88 703.4 77.26 703.41 77.26 676.36"/><polygon class="cls-15" points="78.44 676.85 127.09 628.19 364.86 628.19 539.71 628.19 539.71 702.23 78.44 702.23 78.44 676.85"/><polygon class="cls-16" points="79.61 677.33 127.57 629.37 365.35 629.37 538.53 629.37 538.53 701.05 79.61 701.05 79.61 677.33"/><polygon class="cls-17" points="80.79 677.82 128.06 630.54 365.83 630.54 537.35 630.54 537.35 699.88 80.79 699.88 80.79 677.82"/><polygon class="cls-18" points="81.96 678.31 128.55 631.72 366.31 631.72 536.18 631.72 536.18 698.7 81.96 698.7 81.96 678.31"/><polygon class="cls-19" points="83.14 678.79 129.03 632.9 366.8 632.9 535 632.9 535 697.52 83.14 697.53 83.14 678.79"/><polygon class="cls-20" points="84.32 679.28 129.52 634.07 367.28 634.07 533.83 634.07 533.83 696.35 84.32 696.35 84.32 679.28"/><polygon class="cls-21" points="85.49 679.77 130.01 635.25 367.76 635.25 532.65 635.25 532.65 695.17 85.49 695.17 85.49 679.77"/><polygon class="cls-22" points="86.67 680.26 130.5 636.42 368.24 636.42 531.47 636.42 531.47 694 86.67 694 86.67 680.26"/><polygon class="cls-23" points="87.84 680.74 130.98 637.6 368.73 637.6 530.3 637.6 530.3 692.82 87.84 692.82 87.84 680.74"/><polygon class="cls-24" points="89.02 681.23 131.47 638.78 369.21 638.78 529.12 638.78 529.12 691.65 89.02 691.65 89.02 681.23"/><polygon class="cls-25" points="90.19 681.72 131.96 639.95 369.69 639.95 527.95 639.95 527.95 690.47 90.19 690.47 90.19 681.72"/><polygon class="cls-26" points="91.37 682.2 132.44 641.13 370.18 641.13 526.77 641.13 526.77 689.29 91.37 689.29 91.37 682.2"/><polygon class="cls-27" points="92.55 688.12 92.55 682.69 132.93 642.3 370.66 642.3 525.6 642.3 525.6 688.12 92.55 688.12"/></g><g class="cls-5"><polygon class="cls-6" points="67.85 1048.88 122.7 994.02 360.52 994.02 550.29 994.02 550.29 1089.23 67.85 1089.23 67.85 1048.88"/><polygon class="cls-7" points="69.03 1049.37 123.19 995.2 361 995.2 549.11 995.2 549.11 1088.05 69.03 1088.05 69.03 1049.37"/><polygon class="cls-8" points="70.2 1049.85 123.68 996.38 361.48 996.38 547.94 996.38 547.94 1086.88 70.2 1086.88 70.2 1049.85"/><polygon class="cls-9" points="71.38 1050.34 124.16 997.55 361.96 997.55 546.76 997.55 546.76 1085.7 71.38 1085.7 71.38 1050.34"/><polygon class="cls-10" points="72.56 1050.83 124.65 998.73 362.45 998.73 545.59 998.73 545.59 1084.52 72.56 1084.52 72.56 1050.83"/><polygon class="cls-11" points="73.73 1051.31 125.14 999.9 362.93 999.9 544.41 999.9 544.41 1083.35 73.73 1083.35 73.73 1051.31"/><polygon class="cls-12" points="74.91 1051.8 125.63 1001.08 363.41 1001.08 543.23 1001.08 543.23 1082.17 74.91 1082.17 74.91 1051.8"/><polygon class="cls-13" points="76.08 1052.29 126.11 1002.25 363.9 1002.25 542.06 1002.25 542.06 1080.99 76.08 1081 76.08 1052.29"/><polygon class="cls-14" points="77.26 1052.77 126.6 1003.43 364.38 1003.43 540.88 1003.43 540.88 1079.82 77.26 1079.82 77.26 1052.77"/><polygon class="cls-15" points="78.44 1053.26 127.09 1004.61 364.86 1004.61 539.71 1004.61 539.71 1078.64 78.44 1078.64 78.44 1053.26"/><polygon class="cls-16" points="79.61 1053.75 127.57 1005.78 365.35 1005.78 538.53 1005.78 538.53 1077.47 79.61 1077.47 79.61 1053.75"/><polygon class="cls-17" points="80.79 1054.24 128.06 1006.96 365.83 1006.96 537.35 1006.96 537.35 1076.29 80.79 1076.29 80.79 1054.24"/><polygon class="cls-18" points="81.96 1054.72 128.55 1008.13 366.31 1008.13 536.18 1008.13 536.18 1075.12 81.96 1075.12 81.96 1054.72"/><polygon class="cls-19" points="83.14 1055.21 129.03 1009.31 366.8 1009.31 535 1009.31 535 1073.94 83.14 1073.94 83.14 1055.21"/><polygon class="cls-20" points="84.32 1055.7 129.52 1010.49 367.28 1010.49 533.83 1010.49 533.83 1072.77 84.32 1072.77 84.32 1055.7"/><polygon class="cls-21" points="85.49 1056.18 130.01 1011.66 367.76 1011.66 532.65 1011.66 532.65 1071.59 85.49 1071.59 85.49 1056.18"/><polygon class="cls-22" points="86.67 1056.67 130.5 1012.84 368.24 1012.84 531.47 1012.84 531.47 1070.41 86.67 1070.41 86.67 1056.67"/><polygon class="cls-23" points="87.84 1057.16 130.98 1014.01 368.73 1014.01 530.3 1014.01 530.3 1069.24 87.84 1069.24 87.84 1057.16"/><polygon class="cls-24" points="89.02 1057.64 131.47 1015.19 369.21 1015.19 529.12 1015.19 529.12 1068.06 89.02 1068.06 89.02 1057.64"/><polygon class="cls-25" points="90.19 1058.13 131.96 1016.37 369.69 1016.37 527.95 1016.37 527.95 1066.88 90.19 1066.89 90.19 1058.13"/><polygon class="cls-26" points="91.37 1058.62 132.44 1017.54 370.18 1017.54 526.77 1017.54 526.77 1065.71 91.37 1065.71 91.37 1058.62"/><polygon class="cls-27" points="92.55 1064.53 92.55 1059.11 132.93 1018.72 370.66 1018.72 525.6 1018.72 525.6 1064.53 92.55 1064.53"/></g><text class="cls-28" transform="translate(131.42 123.5)">机器学习平台</text><text class="cls-28" transform="translate(191.42 306.92)">机理模型</text><text class="cls-29" transform="translate(284.67 498.02)">+</text><text class="cls-29" transform="translate(284.67 874.14)">+</text><text class="cls-28" transform="translate(191.42 688.12)">数据模型</text><text class="cls-28" transform="translate(191.42 1064.54)">经验模型</text></g></g></g></svg>