<svg xmlns="http://www.w3.org/2000/svg" xmlns:xlink="http://www.w3.org/1999/xlink" viewBox="0 0 65.02 70.93"><defs><style>.cls-1{fill:url(#未命名的渐变_2);}.cls-2{fill:url(#未命名的渐变_2-2);}.cls-3{fill:url(#未命名的渐变_2-3);}.cls-4{fill:url(#未命名的渐变_2-4);}</style><linearGradient id="未命名的渐变_2" x1="5.92" y1="50.24" x2="5.92" y2="56.15" gradientUnits="userSpaceOnUse"><stop offset="0.26" stop-color="#00dcff"/><stop offset="1" stop-color="#fff"/></linearGradient><linearGradient id="未命名的渐变_2-2" x1="5.92" y1="14.77" x2="5.92" y2="20.69" xlink:href="#未命名的渐变_2"/><linearGradient id="未命名的渐变_2-3" x1="51.72" y1="41.84" x2="51.72" y2="70.54" xlink:href="#未命名的渐变_2"/><linearGradient id="未命名的渐变_2-4" x1="32.51" y1="0" x2="32.51" y2="70.93" xlink:href="#未命名的渐变_2"/></defs><g id="图层_2" data-name="图层 2"><g id="图层_1-2" data-name="图层 1"><rect class="cls-1" y="50.24" width="11.84" height="5.92" rx="1.76"/><path class="cls-2" d="M1.76,20.69h8.32a1.76,1.76,0,0,0,1.76-1.76v-2.4a1.76,1.76,0,0,0-1.76-1.76H1.76A1.76,1.76,0,0,0,0,16.53v2.39A1.76,1.76,0,0,0,1.76,20.69Z"/><path class="cls-3" d="M63.5,48,53.16,42.21a3,3,0,0,0-2.87,0L39.94,48a3,3,0,0,0-1.52,2.59V61.84a3,3,0,0,0,1.52,2.59l10.35,5.74a2.93,2.93,0,0,0,2.87,0L63.5,64.43A3,3,0,0,0,65,61.84V50.55A3,3,0,0,0,63.5,48ZM51.72,60.63a4.44,4.44,0,1,1,4.43-4.44A4.44,4.44,0,0,1,51.72,60.63Z"/><path class="cls-4" d="M39.69,67.68,38.51,67a5.87,5.87,0,0,1-3-5.14V50.54a5.93,5.93,0,0,1,3-5.17l10.35-5.73a5.68,5.68,0,0,1,2.87-.74,5.75,5.75,0,0,1,2.86.74l4.85,2.69a1.78,1.78,0,0,0,2.63-1.54V3a3,3,0,0,0-3-3H5.92A3,3,0,0,0,3,3v5.9a3,3,0,0,0,3,3h5.9a3,3,0,0,1,3,3v5.88a3,3,0,0,1-3,3H5.92a3,3,0,0,0-3,3V44.33a3,3,0,0,0,3,3h5.9a3,3,0,0,1,3,3v5.88a3,3,0,0,1-3,3H5.92a3,3,0,0,0-3,3V68a3,3,0,0,0,3,3h32.8a1.78,1.78,0,0,0,1.77-1.77A1.8,1.8,0,0,0,39.69,67.68Zm-19-54.1a1.76,1.76,0,0,1,1.76-1.76h29a1.77,1.77,0,0,1,1.77,1.76V16a1.77,1.77,0,0,1-1.77,1.76h-29A1.76,1.76,0,0,1,20.69,16Zm0,14.75a1.76,1.76,0,0,1,1.76-1.76h29a1.77,1.77,0,0,1,1.77,1.76v2.39a1.78,1.78,0,0,1-1.77,1.76h-29a1.77,1.77,0,0,1-1.76-1.76Zm11.82,17.2a1.76,1.76,0,0,1-1.76,1.76h-8.3a1.76,1.76,0,0,1-1.76-1.76V43.14a1.76,1.76,0,0,1,1.76-1.76h8.3a1.76,1.76,0,0,1,1.76,1.76Z"/></g></g></svg>