<svg xmlns="http://www.w3.org/2000/svg" xmlns:xlink="http://www.w3.org/1999/xlink" viewBox="0 0 73.97 73.68"><defs><style>.cls-1{fill:url(#未命名的渐变_2);}.cls-2{fill:url(#未命名的渐变_2-2);}.cls-3{fill:url(#未命名的渐变_2-3);}.cls-4{fill:url(#未命名的渐变_2-4);}</style><linearGradient id="未命名的渐变_2" x1="14.24" y1="33.86" x2="14.24" y2="73.67" gradientUnits="userSpaceOnUse"><stop offset="0.26" stop-color="#00dcff"/><stop offset="1" stop-color="#fff"/></linearGradient><linearGradient id="未命名的渐变_2-2" x1="19.92" y1="14.8" x2="19.92" y2="43.27" xlink:href="#未命名的渐变_2"/><linearGradient id="未命名的渐变_2-3" x1="54.55" y1="0" x2="54.55" y2="42.74" xlink:href="#未命名的渐变_2"/><linearGradient id="未命名的渐变_2-4" x1="38.96" y1="45.21" x2="38.96" y2="73.68" xlink:href="#未命名的渐变_2"/></defs><g id="图层_2" data-name="图层 2"><g id="图层_1-2" data-name="图层 1"><path class="cls-1" d="M17.1,59.53a7.21,7.21,0,0,1,7.2-7.2,7.1,7.1,0,0,1,4.16,1.32V45.23H18a1.1,1.1,0,0,1-1.11-.68,1.05,1.05,0,0,1,.33-1.18l.06,0a5.25,5.25,0,1,0-8.39-4.21A5.19,5.19,0,0,0,11,43.28a1.07,1.07,0,0,1,.41,1.18,1.13,1.13,0,0,1-1.14.76H0V67.41a6.27,6.27,0,0,0,6.26,6.26H28.46V65.41a7.11,7.11,0,0,1-4.16,1.33A7.21,7.21,0,0,1,17.1,59.53Z"/><path class="cls-2" d="M7,39.1A7.2,7.2,0,1,1,20,43.27h8.44V32.83a1,1,0,0,1,1.87-.72,5.26,5.26,0,1,0,0-6.35,1,1,0,0,1-.84.42A1.09,1.09,0,0,1,28.47,25V14.8H6.27A6.27,6.27,0,0,0,0,21.07v22.2H8.28A7.22,7.22,0,0,1,7,39.1Z"/><path class="cls-3" d="M73.92,25.89C73.82,25.56,66,4.69,66,4.69A7.27,7.27,0,0,0,56.67.46l-21.18,8a.48.48,0,0,0-.32.69l3.74,10c.08.2.2.19.22.09a6.23,6.23,0,1,1,2.61,7c-.07,0-.19-.1-.08.17l3.9,10.41a.26.26,0,0,0,.38.17l10.4-3.88c.27-.1.21,0,.17.09a6.23,6.23,0,1,0,7-2.61c-.1,0-.11-.15.1-.22l10-3.74A.49.49,0,0,0,73.92,25.89Z"/><path class="cls-4" d="M50.59,45.21a7.2,7.2,0,1,1-11.76,0H30.4V55.65a1,1,0,0,1-1.87.72,5.26,5.26,0,1,0,0,6.35,1,1,0,0,1,.84-.42,1.09,1.09,0,0,1,1.06,1.17V73.68h22.2a6.27,6.27,0,0,0,6.27-6.27V45.21H50.59Z"/></g></g></svg>