<svg xmlns="http://www.w3.org/2000/svg" xmlns:xlink="http://www.w3.org/1999/xlink" viewBox="0 0 74.37 72.68"><defs><style>.cls-1{fill:url(#未命名的渐变_2);}</style><linearGradient id="未命名的渐变_2" x1="37.18" x2="37.18" y2="72.68" gradientUnits="userSpaceOnUse"><stop offset="0.26" stop-color="#00dcff"/><stop offset="1" stop-color="#fff"/></linearGradient></defs><g id="图层_2" data-name="图层 2"><g id="图层_1-2" data-name="图层 1"><path class="cls-1" d="M73.88,47.92A14.7,14.7,0,0,0,72.25,44a12.62,12.62,0,0,0,1.2-11.65,17.24,17.24,0,0,0-1.91-3.59c3.31-5.1,2.94-9.46,2-12.24a13,13,0,0,0-3-5l-.31-.29L38.17,0,0,9.7,34.65,28.57,68.78,15.62a9.47,9.47,0,0,1,1,2.16c.9,2.74.42,5.62-1.41,8.57L35,38.38,3.91,21a2.06,2.06,0,0,0-1-.25A2,2,0,0,0,1,23.31,2,2,0,0,0,2,24.49L34.64,42.7,68,30.69a13,13,0,0,1,1.75,3.16,8.63,8.63,0,0,1-.72,7.81L35,53.3,3.92,35.88a2.06,2.06,0,0,0-1-.25,2,2,0,0,0-1,3.7L34.62,57.61,68.78,45.93A10.82,10.82,0,0,1,70.09,49a12,12,0,0,1-1,8.31L35.18,68.39,3.91,51a2,2,0,0,0-2.69.77,2,2,0,0,0-.17,1.5A2,2,0,0,0,2,54.49H2L34.77,72.68l37-12.09.37-.69A16.12,16.12,0,0,0,73.88,47.92ZM34.94,24.23l-6.43-3.5,28.84-9.81,6.59,2.31Z"/></g></g></svg>