<svg xmlns="http://www.w3.org/2000/svg" xmlns:xlink="http://www.w3.org/1999/xlink" viewBox="0 0 1468.31 296.47"><defs><style>.cls-1{isolation:isolate;}.cls-2{fill:url(#未命名的渐变_6);}.cls-3,.cls-4{fill:none;stroke-miterlimit:10;}.cls-3{stroke:#31756c;stroke-width:1.81px;mix-blend-mode:color-dodge;}.cls-4{stroke:#00dcff;stroke-width:5px;}.cls-5,.cls-6{fill:#fff;}.cls-6{font-size:60px;font-family:SourceHanSansSC-Light-GBpc-EUC-H, Source Han Sans SC;}</style><linearGradient id="未命名的渐变_6" x1="-821.28" y1="373.79" x2="-2130.98" y2="-833.09" gradientTransform="translate(1801.19)" gradientUnits="userSpaceOnUse"><stop offset="0" stop-color="aqua" stop-opacity="0"/><stop offset="0.25" stop-color="#00e4e6" stop-opacity="0.12"/><stop offset="0.6" stop-color="#0098a2" stop-opacity="0.46"/><stop offset="1" stop-color="#001f35"/></linearGradient></defs><g class="cls-1"><g id="图层_2" data-name="图层 2"><g id="图层_1-2" data-name="图层 1"><polygon class="cls-2" points="1467.4 293.97 2.5 293.97 2.5 121.32 121.68 2.14 1467.4 2.14 1467.4 293.97"/><polygon class="cls-3" points="1467.4 2.14 121.68 2.14 2.5 121.32 2.5 293.97 1383.23 293.97 1467.39 209.81 1467.4 2.14"/><polyline class="cls-4" points="2.5 255.68 2.5 293.97 53.58 293.97"/><polyline class="cls-4" points="2.5 220.46 2.5 121.32 22.81 101.02"/><line class="cls-4" x1="144.13" y1="2.5" x2="247.18" y2="2.5"/><polyline class="cls-4" points="1425.91 251.29 1383.23 293.97 1200.32 293.97"/><line class="cls-4" x1="1338.11" y1="2.5" x2="1467.4" y2="2.5"/><circle class="cls-5" cx="112.35" cy="143.98" r="6.25"/><circle class="cls-5" cx="543.73" cy="143.98" r="6.25"/><circle class="cls-5" cx="973.23" cy="143.98" r="6.25"/><text class="cls-6" transform="translate(573.38 162.56)">故障案例积累</text><text class="cls-6" transform="translate(1001.7 162.56)">性能管理经验</text><text class="cls-6" transform="translate(145.06 162.56)">设备运行积累</text></g></g></g></svg>