<svg xmlns="http://www.w3.org/2000/svg" xmlns:xlink="http://www.w3.org/1999/xlink" viewBox="0 0 80.77 61.1"><defs><style>.cls-1{fill:url(#未命名的渐变_2);}.cls-2{fill:url(#未命名的渐变_2-2);}.cls-3{fill:url(#未命名的渐变_2-3);}</style><linearGradient id="未命名的渐变_2" x1="40.42" y1="29.25" x2="40.42" y2="61.1" gradientUnits="userSpaceOnUse"><stop offset="0.26" stop-color="#00dcff"/><stop offset="1" stop-color="#fff"/></linearGradient><linearGradient id="未命名的渐变_2-2" x1="72.87" y1="39.92" x2="72.87" y2="45.26" xlink:href="#未命名的渐变_2"/><linearGradient id="未命名的渐变_2-3" x1="40.39" y1="0" x2="40.39" y2="37.88" xlink:href="#未命名的渐变_2"/></defs><g id="图层_2" data-name="图层 2"><g id="图层_1-2" data-name="图层 1"><path class="cls-1" d="M42.19,39a4.9,4.9,0,0,1-4,0L16.71,29.38V49.1a12,12,0,0,0,12,12H52.12a12,12,0,0,0,12-12V29.25L42.24,39Z"/><path class="cls-2" d="M72.87,39.92a2.67,2.67,0,1,0,2.67,2.67A2.66,2.66,0,0,0,72.87,39.92Z"/><path class="cls-3" d="M80,17.18,42.94.47A5.33,5.33,0,0,0,40.82,0h0a5.3,5.3,0,0,0-2.18.46L.73,17.19a1.25,1.25,0,0,0-.62.62,1.23,1.23,0,0,0,.62,1.63L38.3,36.23a5,5,0,0,0,2,.43h0a4.9,4.9,0,0,0,2-.43l28.29-12.6v12a2.26,2.26,0,0,0,4.52,0v-14L80,19.43a1.17,1.17,0,0,0,.62-.62A1.23,1.23,0,0,0,80,17.18Z"/></g></g></svg>