<svg xmlns="http://www.w3.org/2000/svg" xmlns:xlink="http://www.w3.org/1999/xlink" viewBox="0 0 71.68 83"><defs><style>.cls-1{fill:url(#未命名的渐变_2);}</style><linearGradient id="未命名的渐变_2" x1="35.84" x2="35.84" y2="83" gradientUnits="userSpaceOnUse"><stop offset="0.26" stop-color="#00dcff"/><stop offset="1" stop-color="#fff"/></linearGradient></defs><g id="图层_2" data-name="图层 2"><g id="图层_1-2" data-name="图层 1"><path class="cls-1" d="M0,79.81V68.63a3.19,3.19,0,0,1,3.19-3.19h9.55a3.19,3.19,0,0,1,3.19,3.19v3.2H30.26a3.19,3.19,0,0,0,3.19-3.2V43.1H15.93v3.19a3.19,3.19,0,0,1-3.19,3.19H3.19A3.19,3.19,0,0,1,0,46.29V35.11a3.19,3.19,0,0,1,3.19-3.19h9.55a3.19,3.19,0,0,1,3.19,3.19v3.2H33.45V14.37a3.19,3.19,0,0,0-3.19-3.2H15.93v3.2a3.19,3.19,0,0,1-3.19,3.19H3.19A3.19,3.19,0,0,1,0,14.37V3.19A3.19,3.19,0,0,1,3.19,0h9.55a3.19,3.19,0,0,1,3.19,3.19V6.38H31.86a6.38,6.38,0,0,1,6.37,6.39V38.31H55.75v-3.2a3.19,3.19,0,0,1,3.19-3.19h9.55a3.19,3.19,0,0,1,3.19,3.19V46.29a3.19,3.19,0,0,1-3.19,3.19H58.94a3.19,3.19,0,0,1-3.19-3.19V43.1H38.23V70.23a6.37,6.37,0,0,1-6.37,6.38H15.93v3.2A3.19,3.19,0,0,1,12.74,83H3.19A3.19,3.19,0,0,1,0,79.81Z"/></g></g></svg>