<svg xmlns="http://www.w3.org/2000/svg" xmlns:xlink="http://www.w3.org/1999/xlink" viewBox="0 0 67.92 67.92"><defs><style>.cls-1{fill:url(#未命名的渐变_2);}.cls-2{fill:url(#未命名的渐变_2-2);}</style><linearGradient id="未命名的渐变_2" x1="37.05" y1="12.35" x2="37.05" y2="49.4" gradientUnits="userSpaceOnUse"><stop offset="0.26" stop-color="#00dcff"/><stop offset="1" stop-color="#fff"/></linearGradient><linearGradient id="未命名的渐变_2-2" x1="33.96" y1="0" x2="33.96" y2="67.92" xlink:href="#未命名的渐变_2"/></defs><g id="图层_2" data-name="图层 2"><g id="图层_1-2" data-name="图层 1"><path class="cls-1" d="M9.44,46a4.62,4.62,0,0,0,3.18,3.19,3.63,3.63,0,0,0,.45.1l.23,0a4.66,4.66,0,0,0,1.18,0l.23,0a3.63,3.63,0,0,0,.45-.1A4.63,4.63,0,0,0,18.35,46c0-.14.07-.29.1-.44s0-.16,0-.23a4.66,4.66,0,0,0,0-1.18c0-.08,0-.16,0-.23s-.06-.3-.1-.45a4.59,4.59,0,0,0-.28-.73l9.26-9.26a4.93,4.93,0,0,0,.73.27,3.69,3.69,0,0,0,.45.11l.23,0a4.66,4.66,0,0,0,1.18,0l.23,0a3.69,3.69,0,0,0,.45-.11,4.93,4.93,0,0,0,.73-.27L36,38.14a3.79,3.79,0,0,0-.28.73,3.48,3.48,0,0,0-.1.44,2.23,2.23,0,0,0,0,.23,4.66,4.66,0,0,0,0,1.18,1.57,1.57,0,0,0,0,.23,3.63,3.63,0,0,0,.1.45,4.65,4.65,0,0,0,3.19,3.19,3.13,3.13,0,0,0,.44.1l.23,0a4.66,4.66,0,0,0,1.18,0l.23,0a3.63,3.63,0,0,0,.45-.1,4.65,4.65,0,0,0,3.19-3.19,3.27,3.27,0,0,0,.1-.45,1.7,1.7,0,0,0,0-.22,4.74,4.74,0,0,0,0-1.19,1.7,1.7,0,0,0,0-.22,4.47,4.47,0,0,0-.53-1.47L58.51,21.29c.14.06.28.1.43.15l.44.1.23,0a4.66,4.66,0,0,0,1.18,0l.23,0,.45-.1a4.65,4.65,0,0,0,3.19-3.19c0-.15.07-.3.1-.45s0-.15,0-.23a4.66,4.66,0,0,0,0-1.18c0-.08,0-.15,0-.23s-.06-.3-.1-.45a4.64,4.64,0,0,0-3.19-3.18,3.69,3.69,0,0,0-.45-.11l-.23,0a4.66,4.66,0,0,0-1.18,0l-.23,0a3.15,3.15,0,0,0-.44.11,4.62,4.62,0,0,0-3.19,3.18c0,.15-.08.3-.11.45l0,.23a4.66,4.66,0,0,0,0,1.18l0,.23a4.82,4.82,0,0,0,.54,1.47L41.83,35.82l-.43-.14a3.27,3.27,0,0,0-.45-.1l-.23,0a4.66,4.66,0,0,0-1.18,0l-.22,0a3,3,0,0,0-.45.1,3.79,3.79,0,0,0-.73.28l-4.63-4.64a4.44,4.44,0,0,0,.27-.72,3.69,3.69,0,0,0,.11-.45l0-.23a4.66,4.66,0,0,0,0-1.18l0-.23a3.69,3.69,0,0,0-.11-.45,4.64,4.64,0,0,0-3.18-3.19l-.45-.1-.23,0a4.66,4.66,0,0,0-1.18,0l-.23,0-.45.1a4.65,4.65,0,0,0-3.19,3.19c0,.15-.07.3-.1.45l0,.23a4.66,4.66,0,0,0,0,1.18l0,.23c0,.15.06.3.1.45a5,5,0,0,0,.28.73l-9.26,9.26a5,5,0,0,0-.73-.28,3.63,3.63,0,0,0-.45-.1l-.23,0a4.66,4.66,0,0,0-1.18,0l-.23,0a3.13,3.13,0,0,0-.44.1A4.63,4.63,0,0,0,9.44,43.5c0,.15-.08.29-.11.45l0,.23a4.58,4.58,0,0,0,0,1.17l0,.24C9.36,45.74,9.4,45.89,9.44,46Z"/><path class="cls-2" d="M67.47,65.28a1.58,1.58,0,0,0-1.09-.45H3.09V1.54A1.55,1.55,0,0,0,0,1.54V66.38a1.54,1.54,0,0,0,1.54,1.54H66.38a1.54,1.54,0,0,0,1.54-1.54A1.56,1.56,0,0,0,67.47,65.28Z"/></g></g></svg>