<svg xmlns="http://www.w3.org/2000/svg" xmlns:xlink="http://www.w3.org/1999/xlink" viewBox="0 0 859.57 680.37"><defs><style>.cls-1{isolation:isolate;}.cls-2{opacity:0.8;mix-blend-mode:multiply;fill:url(#未命名的渐变_28);}.cls-3{fill:url(#未命名的渐变_6);}.cls-4,.cls-5{fill:none;stroke-miterlimit:10;}.cls-4{stroke:#31756c;stroke-width:1.83px;mix-blend-mode:color-dodge;}.cls-5{stroke:#00dcff;stroke-width:5.05px;}</style><linearGradient id="未命名的渐变_28" x1="2.53" y1="340.01" x2="858.66" y2="340.01" gradientUnits="userSpaceOnUse"><stop offset="0" stop-color="#001f35"/><stop offset="1" stop-color="#001f35" stop-opacity="0"/></linearGradient><linearGradient id="未命名的渐变_6" x1="-1882.4" y1="636.37" x2="-2922.26" y2="-321.84" gradientTransform="translate(2634.61)" gradientUnits="userSpaceOnUse"><stop offset="0" stop-color="aqua" stop-opacity="0"/><stop offset="0.25" stop-color="#00e4e6" stop-opacity="0.12"/><stop offset="0.6" stop-color="#0098a2" stop-opacity="0.46"/><stop offset="1" stop-color="#001f35"/></linearGradient></defs><g class="cls-1"><g id="图层_2" data-name="图层 2"><g id="图层_1-2" data-name="图层 1"><polygon class="cls-2" points="773.6 677.85 2.53 677.85 2.53 122.61 122.98 2.16 858.66 2.16 858.66 592.79 773.6 677.85"/><polygon class="cls-3" points="773.6 677.85 2.53 677.85 2.53 122.61 122.98 2.16 858.66 2.16 858.66 592.79 773.6 677.85"/><polygon class="cls-4" points="858.66 2.16 122.98 2.16 2.53 122.61 2.53 677.85 773.6 677.85 858.65 592.79 858.66 2.16"/><polyline class="cls-5" points="2.53 639.15 2.53 677.85 54.15 677.85"/><polyline class="cls-5" points="2.53 222.8 2.53 122.61 23.05 102.09"/><line class="cls-5" x1="145.66" y1="2.53" x2="249.81" y2="2.53"/><polyline class="cls-5" points="816.73 634.72 773.6 677.85 588.73 677.85"/><line class="cls-5" x1="727.99" y1="2.53" x2="858.66" y2="2.53"/></g></g></g></svg>