<svg xmlns="http://www.w3.org/2000/svg" xmlns:xlink="http://www.w3.org/1999/xlink" viewBox="0 0 67.11 470.69"><defs><style>.cls-1{fill:url(#未命名的渐变_14);}.cls-2{fill:#00dcff;}</style><linearGradient id="未命名的渐变_14" x1="6690.49" y1="1097.03" x2="6690.49" y2="1038.15" gradientTransform="translate(-1035.28 6925.84) rotate(-90)" gradientUnits="userSpaceOnUse"><stop offset="0" stop-color="#00dcff"/><stop offset="1" stop-color="#00dcff" stop-opacity="0"/></linearGradient></defs><g id="图层_2" data-name="图层 2"><g id="图层_1-2" data-name="图层 1"><polygon class="cls-1" points="0 470.69 0 235.34 0 0 60.91 235.34 0 470.69"/><path class="cls-2" d="M0,0C6.36,19.28,12.2,38.7,18.06,58.1S29.52,97,35,116.49s10.89,39,16.17,58.6L59,204.44l7.69,29.4.39,1.5-.39,1.51L59,266.25l-7.85,29.36Q43.26,324.94,35,354.2q-4.12,14.63-8.37,29.22l-8.57,29.17C12.2,432,6.37,451.41,0,470.69c3.78-19.95,8.1-39.75,12.38-59.57L19,381.45q3.34-14.82,6.85-29.61,6.95-29.59,14.29-59.08l7.38-29.48,7.55-29.44v3l-7.54-29.44-7.38-29.48q-7.3-29.49-14.29-59.08c-4.66-19.72-9.09-39.5-13.51-59.28S3.79,19.94,0,0Z"/></g></g></svg>