<svg xmlns="http://www.w3.org/2000/svg" xmlns:xlink="http://www.w3.org/1999/xlink" viewBox="0 0 612.4 218.16"><defs><style>.cls-1{isolation:isolate;}.cls-2{fill:url(#未命名的渐变_6);}.cls-3,.cls-4{fill:none;stroke-miterlimit:10;}.cls-3{stroke:#31756c;stroke-width:1.81px;mix-blend-mode:color-dodge;}.cls-4{stroke:#00dcff;stroke-width:5px;}.cls-5{opacity:0.2;}.cls-10,.cls-11,.cls-12,.cls-13,.cls-14,.cls-15,.cls-16,.cls-17,.cls-18,.cls-19,.cls-20,.cls-21,.cls-22,.cls-23,.cls-24,.cls-25,.cls-26,.cls-27,.cls-6,.cls-7,.cls-8,.cls-9{fill:#00dcff;}.cls-7{opacity:0.95;}.cls-8{opacity:0.9;}.cls-9{opacity:0.86;}.cls-10{opacity:0.81;}.cls-11{opacity:0.76;}.cls-12{opacity:0.71;}.cls-13{opacity:0.67;}.cls-14{opacity:0.62;}.cls-15{opacity:0.57;}.cls-16{opacity:0.52;}.cls-17{opacity:0.48;}.cls-18{opacity:0.43;}.cls-19{opacity:0.38;}.cls-20{opacity:0.33;}.cls-21{opacity:0.29;}.cls-22{opacity:0.24;}.cls-23{opacity:0.19;}.cls-24{opacity:0.14;}.cls-25{opacity:0.1;}.cls-26{opacity:0.05;}.cls-27{opacity:0;}.cls-28{font-size:60px;fill:#fff;font-family:SourceHanSansSC-Light-GBpc-EUC-H, Source Han Sans SC;}</style><linearGradient id="未命名的渐变_6" x1="-2205.67" y1="221.27" x2="-2766.91" y2="-295.91" gradientTransform="translate(2634.61)" gradientUnits="userSpaceOnUse"><stop offset="0" stop-color="aqua" stop-opacity="0"/><stop offset="0.25" stop-color="#00e4e6" stop-opacity="0.12"/><stop offset="0.6" stop-color="#0098a2" stop-opacity="0.46"/><stop offset="1" stop-color="#001f35"/></linearGradient></defs><g class="cls-1"><g id="图层_2" data-name="图层 2"><g id="图层_1-2" data-name="图层 1"><polygon class="cls-2" points="611.49 215.66 2.5 215.66 2.5 121.32 121.68 2.14 611.49 2.14 611.49 215.66"/><polygon class="cls-3" points="611.49 2.14 121.68 2.14 2.5 121.32 2.5 215.66 527.33 215.66 611.49 131.5 611.49 2.14"/><line class="cls-4" x1="2.5" y1="215.66" x2="144.13" y2="215.66"/><polyline class="cls-4" points="2.5 180.45 2.5 121.32 22.81 101.02"/><line class="cls-4" x1="144.13" y1="2.5" x2="247.18" y2="2.5"/><polyline class="cls-4" points="570.01 172.98 527.33 215.66 344.41 215.66"/><line class="cls-4" x1="482.21" y1="2.5" x2="611.49" y2="2.5"/><g class="cls-5"><polygon class="cls-6" points="65.78 117.08 120.63 62.23 358.44 62.23 548.22 62.23 548.22 157.43 65.78 157.43 65.78 117.08"/><polygon class="cls-7" points="66.95 117.57 121.11 63.4 358.92 63.4 547.04 63.4 547.04 156.25 66.95 156.25 66.95 117.57"/><polygon class="cls-8" points="68.13 118.05 121.6 64.58 359.41 64.58 545.86 64.58 545.86 155.08 68.13 155.08 68.13 118.05"/><polygon class="cls-9" points="69.31 118.54 122.09 65.75 359.89 65.75 544.69 65.75 544.69 153.9 69.31 153.9 69.31 118.54"/><polygon class="cls-10" points="70.48 119.03 122.58 66.93 360.37 66.93 543.51 66.93 543.51 152.72 70.48 152.73 70.48 119.03"/><polygon class="cls-11" points="71.66 119.52 123.06 68.11 360.86 68.11 542.34 68.11 542.34 151.55 71.66 151.55 71.66 119.52"/><polygon class="cls-12" points="72.83 120 123.55 69.28 361.34 69.28 541.16 69.28 541.16 150.37 72.83 150.38 72.83 120"/><polygon class="cls-13" points="74.01 120.49 124.04 70.46 361.82 70.46 539.98 70.46 539.98 149.2 74.01 149.2 74.01 120.49"/><polygon class="cls-14" points="75.19 120.98 124.53 71.63 362.31 71.63 538.81 71.63 538.81 148.02 75.19 148.02 75.19 120.98"/><polygon class="cls-15" points="76.36 121.46 125.01 72.81 362.79 72.81 537.63 72.81 537.63 146.85 76.36 146.85 76.36 121.46"/><polygon class="cls-16" points="77.54 121.95 125.5 73.99 363.27 73.99 536.46 73.99 536.46 145.67 77.54 145.67 77.54 121.95"/><polygon class="cls-17" points="78.71 122.44 125.99 75.16 363.75 75.16 535.28 75.16 535.28 144.5 78.71 144.5 78.71 122.44"/><polygon class="cls-18" points="79.89 122.92 126.47 76.34 364.24 76.34 534.1 76.34 534.1 143.32 79.89 143.32 79.89 122.92"/><polygon class="cls-19" points="81.06 123.41 126.96 77.51 364.72 77.51 532.93 77.51 532.93 142.14 81.06 142.14 81.06 123.41"/><polygon class="cls-20" points="82.24 123.9 127.45 78.69 365.2 78.69 531.75 78.69 531.75 140.97 82.24 140.97 82.24 123.9"/><polygon class="cls-21" points="83.42 124.39 127.93 79.86 365.69 79.86 530.58 79.86 530.58 139.79 83.42 139.79 83.42 124.39"/><polygon class="cls-22" points="84.59 124.87 128.42 81.04 366.17 81.04 529.4 81.04 529.4 138.62 84.59 138.62 84.59 124.87"/><polygon class="cls-23" points="85.77 125.36 128.91 82.22 366.65 82.22 528.22 82.22 528.22 137.44 85.77 137.44 85.77 125.36"/><polygon class="cls-24" points="86.94 125.85 129.4 83.39 367.13 83.39 527.05 83.39 527.05 136.26 86.94 136.26 86.94 125.85"/><polygon class="cls-25" points="88.12 126.33 129.88 84.57 367.62 84.57 525.87 84.57 525.87 135.09 88.12 135.09 88.12 126.33"/><polygon class="cls-26" points="89.3 126.82 130.37 85.75 368.1 85.75 524.7 85.75 524.7 133.91 89.3 133.91 89.3 126.82"/><polygon class="cls-27" points="90.47 132.74 90.47 127.31 130.86 86.92 368.58 86.92 523.52 86.92 523.52 132.74 90.47 132.74"/></g><text class="cls-28" transform="translate(187 132.74)">运营决策</text></g></g></g></svg>