<?xml version="1.0" encoding="utf-8"?>
<!-- Generator: Adobe Illustrator 25.0.1, SVG Export Plug-In . SVG Version: 6.00 Build 0)  -->
<svg version="1.1" id="图层_1" xmlns="http://www.w3.org/2000/svg" xmlns:xlink="http://www.w3.org/1999/xlink" x="0px" y="0px"
	 viewBox="0 0 3299.3 1128.1" style="enable-background:new 0 0 3299.3 1128.1;" xml:space="preserve">
<style type="text/css">
	.st0{fill:none;stroke:#00DCFF;stroke-width:4;stroke-miterlimit:10;}
	.st1{fill:none;stroke:url(#SVGID_1_);stroke-width:4;stroke-miterlimit:10;}
	.st2{fill:none;stroke:url(#SVGID_2_);stroke-width:4;stroke-miterlimit:10;}
	.st3{fill:none;stroke:url(#SVGID_3_);stroke-width:4;stroke-miterlimit:10;}
</style>
<polyline class="st0" points="3216,841.3 3216,810.7 3175.1,810.7 "/>
<polyline class="st0" points="3216,951.7 3216,1031 3199.8,1047.3 "/>
<line class="st0" x1="3102.7" y1="1126.1" x2="3020.2" y2="1126.1"/>
<polyline class="st0" points="2407.3,844.8 2441.5,810.7 2471.7,810.7 "/>
<polyline class="st0" points="2477.6,1126.1 2237.3,1126.1 2047.7,968.5 "/>
<polyline class="st0" points="2,262.4 2,293.1 42.9,293.1 "/>
<polyline class="st0" points="2,176.4 2,97.1 18.2,80.8 "/>
<line class="st0" x1="115.3" y1="2" x2="197.8" y2="2"/>
<polyline class="st0" points="679.1,258.9 645,293.1 614.7,293.1 "/>
<linearGradient id="SVGID_1_" gradientUnits="userSpaceOnUse" x1="608.85" y1="1022.0974" x2="1037.1754" y2="1022.0974" gradientTransform="matrix(1 0 0 -1 0 1128)">
	<stop  offset="0" style="stop-color:#00FFFF"/>
	<stop  offset="0.21" style="stop-color:#00E4FF"/>
	<stop  offset="0.56" style="stop-color:#00BBFF"/>
	<stop  offset="0.83" style="stop-color:#00A1FF"/>
	<stop  offset="1" style="stop-color:#0098FF"/>
</linearGradient>
<polyline class="st1" points="608.8,2 794.1,2 1035.9,210.3 "/>
<polyline class="st0" points="3297.3,300.8 3297.3,331.5 3256.4,331.5 "/>
<polyline class="st0" points="3297.3,176.4 3297.3,97.1 3281.1,80.8 "/>
<line class="st0" x1="3184" y1="2" x2="3101.5" y2="2"/>
<polyline class="st0" points="2518.1,297.3 2552.3,331.5 2582.5,331.5 "/>
<polyline class="st0" points="2588.4,2 2403.1,2 2224.6,155.6 "/>
<polyline class="st0" points="146.1,639.4 146.1,670 187,670 "/>
<polyline class="st0" points="146.1,554.8 146.1,475.5 162.4,459.2 "/>
<line class="st0" x1="259.4" y1="380.4" x2="341.9" y2="380.4"/>
<polyline class="st0" points="794.9,635.9 760.7,670 730.5,670 "/>
<linearGradient id="SVGID_2_" gradientUnits="userSpaceOnUse" x1="724.62" y1="709.647" x2="993.0945" y2="709.647" gradientTransform="matrix(1 0 0 -1 0 1128)">
	<stop  offset="0" style="stop-color:#00FFFF"/>
	<stop  offset="0.21" style="stop-color:#00E4FF"/>
	<stop  offset="0.56" style="stop-color:#00BBFF"/>
	<stop  offset="0.83" style="stop-color:#00A1FF"/>
	<stop  offset="1" style="stop-color:#0098FF"/>
</linearGradient>
<polyline class="st2" points="724.6,380.4 903,380.4 991.8,456.8 "/>
<polyline class="st0" points="42.9,847 42.9,816.3 83.8,816.3 "/>
<polyline class="st0" points="42.9,951.7 42.9,1031 59.1,1047.3 "/>
<line class="st0" x1="156.2" y1="1126.1" x2="238.7" y2="1126.1"/>
<polyline class="st0" points="851.5,850.5 817.4,816.3 787.2,816.3 "/>
<linearGradient id="SVGID_3_" gradientUnits="userSpaceOnUse" x1="781.29" y1="79.309" x2="1209.7285" y2="79.309" gradientTransform="matrix(1 0 0 -1 0 1128)">
	<stop  offset="0" style="stop-color:#00FFFF"/>
	<stop  offset="0.21" style="stop-color:#00E4FF"/>
	<stop  offset="0.56" style="stop-color:#00BBFF"/>
	<stop  offset="0.83" style="stop-color:#00A1FF"/>
	<stop  offset="1" style="stop-color:#0098FF"/>
</linearGradient>
<polyline class="st3" points="781.3,1126.1 1021.6,1126.1 1208.4,970.8 "/>
</svg>
