<svg xmlns="http://www.w3.org/2000/svg" xmlns:xlink="http://www.w3.org/1999/xlink" viewBox="0 0 82.39 82.39"
     width="1000">
  <defs>
    <style>
      .cls-1 {
      fill: none;
      stroke-miterlimit: 10;
      stroke-width: 0.5px;
      stroke: url(#未命名的渐变_19);
      }

      .cls-2 {
      fill: #fff;
      }

      .cls-3 {
      fill: #f8feff;
      }

      .cls-4 {
      fill: #f2fdff;
      }

      .cls-5 {
      fill: #ebfcff;
      }

      .cls-6 {
      fill: #e5fbff;
      }

      .cls-7 {
      fill: #defbff;
      }

      .cls-8 {
      fill: #d8faff;
      }

      .cls-9 {
      fill: #d1f9ff;
      }

      .cls-10 {
      fill: #cbf8ff;
      }

      .cls-11 {
      fill: #c4f7ff;
      }

      .cls-12 {
      fill: #bef6ff;
      }

      .cls-13 {
      fill: #b7f5ff;
      }

      .cls-14 {
      fill: #b1f4ff;
      }

      .cls-15 {
      fill: #aaf3ff;
      }

      .cls-16 {
      fill: #a3f2ff;
      }

      .cls-17 {
      fill: #9df2ff;
      }

      .cls-18 {
      fill: #96f1ff;
      }

      .cls-19 {
      fill: #90f0ff;
      }

      .cls-20 {
      fill: #89efff;
      }

      .cls-21 {
      fill: #83eeff;
      }

      .cls-22 {
      fill: #7cedff;
      }

      .cls-23 {
      fill: #76ecff;
      }

      .cls-24 {
      fill: #6febff;
      }

      .cls-25 {
      fill: #69eaff;
      }

      .cls-26 {
      fill: #62e9ff;
      }

      .cls-27 {
      fill: #5ce9ff;
      }

      .cls-28 {
      fill: #55e8ff;
      }

      .cls-29 {
      fill: #4ee7ff;
      }

      .cls-30 {
      fill: #48e6ff;
      }

      .cls-31 {
      fill: #41e5ff;
      }

      .cls-32 {
      fill: #3be4ff;
      }

      .cls-33 {
      fill: #34e3ff;
      }

      .cls-34 {
      fill: #2ee2ff;
      }

      .cls-35 {
      fill: #27e1ff;
      }

      .cls-36 {
      fill: #21e0ff;
      }

      .cls-37 {
      fill: #1ae0ff;
      }

      .cls-38 {
      fill: #14dfff;
      }

      .cls-39 {
      fill: #0ddeff;
      }

      .cls-40 {
      fill: #07ddff;
      }

      .cls-41 {
      fill: #00dcff;
      }

      .cls-42 {
      fill: url(#未命名的渐变_2);
      }

      .cls-43 {
      fill: url(#未命名的渐变_2-2);
      }
    </style>
    <linearGradient id="未命名的渐变_19" x1="-2587.75" y1="1572.58" x2="-2587.75" y2="1640.84" gradientTransform="translate(2628.74 -1565.59)" gradientUnits="userSpaceOnUse">
      <stop offset="0" stop-color="#00dcff" />
      <stop offset="1" stop-color="#fff" />
    </linearGradient>
    <linearGradient id="未命名的渐变_2" x1="27.81" y1="51.85" x2="27.81" y2="57.68" gradientUnits="userSpaceOnUse">
      <stop offset="0.26" stop-color="#00dcff" />
      <stop offset="1" stop-color="#fff" />
    </linearGradient>
    <linearGradient id="未命名的渐变_2-2" x1="42.39" y1="16.85" x2="42.39" y2="63.51" xlink:href="#未命名的渐变_2" />
  </defs>
  <g id="图层_2" data-name="图层 2">
    <g id="图层_1-2" data-name="图层 1">
      <path class="cls-1" d="M41,75A33.88,33.88,0,1,1,74.87,41.12,33.92,33.92,0,0,1,41,75Z" />
      <rect class="cls-2" x="40.32" y="77.61" width="1.75" height="4.79" rx="0.87" />
      <rect class="cls-3" x="34.76" y="78.82" width="4.79" height="1.75" rx="0.87" transform="matrix(0.15, -0.99, 0.99, 0.15, -47.11, 104.83)" />
      <rect class="cls-4" x="30.62" y="77.93" width="4.79" height="1.75" rx="0.87" transform="matrix(0.27, -0.96, 0.96, 0.27, -51.79, 89.18)" />
      <rect class="cls-5" x="26.47" y="76.49" width="4.79" height="1.75" rx="0.87" transform="translate(-53.66 74.6) rotate(-67.62)" />
      <rect class="cls-6" x="22.38" y="74.54" width="4.79" height="1.75" rx="0.87" transform="translate(-53.32 61.18) rotate(-61.49)" />
      <rect class="cls-7" x="18.41" y="72.11" width="4.79" height="1.75" rx="0.87" transform="matrix(0.56, -0.83, 0.83, 0.56, -51.18, 48.95)" />
      <rect class="cls-8" x="14.64" y="69.24" width="4.79" height="1.75" rx="0.87" transform="translate(-47.53 37.91) rotate(-49.84)" />
      <rect class="cls-9" x="11.15" y="65.97" width="4.79" height="1.75" rx="0.87" transform="translate(-42.6 28.12) rotate(-43.95)" />
      <rect class="cls-10" x="8.01" y="62.34" width="4.79" height="1.75" rx="0.87" transform="translate(-36.56 19.64) rotate(-37.8)" />
      <rect class="cls-11" x="5.28" y="58.38" width="4.79" height="1.75" rx="0.87" transform="translate(-29.63 12.58) rotate(-31.25)" />
      <rect class="cls-12" x="3.04" y="54.13" width="4.79" height="1.75" rx="0.87" transform="translate(-22.05 7.05) rotate(-24.17)" />
      <rect class="cls-13" x="1.37" y="49.63" width="4.79" height="1.75" rx="0.87" transform="translate(-14.18 3.15) rotate(-16.49)" />
      <rect class="cls-14" x="0.33" y="44.91" width="4.79" height="1.75" rx="0.87" transform="translate(-6.51 0.86) rotate(-8.21)" />
      <rect class="cls-15" x="1.52" y="38.49" width="1.75" height="4.79" rx="0.87" transform="translate(-38.51 42.95) rotate(-89.55)" />
      <rect class="cls-16" x="1.85" y="33.68" width="1.75" height="4.79" rx="0.87" transform="translate(-33.39 34.06) rotate(-82.49)" />
      <rect class="cls-17" x="2.75" y="29.05" width="1.75" height="4.79" rx="0.87" transform="translate(-27.72 27.07) rotate(-75.48)" />
      <rect class="cls-18" x="4.19" y="24.63" width="1.75" height="4.79" rx="0.87" transform="translate(-21.94 21.86) rotate(-68.57)" />
      <rect class="cls-19" x="6.12" y="20.46" width="1.75" height="4.79" rx="0.87" transform="translate(-16.45 18.2) rotate(-61.75)" />
      <rect class="cls-20" x="8.51" y="16.58" width="1.75" height="4.79" rx="0.87" transform="translate(-11.54 15.78) rotate(-55.01)" />
      <rect class="cls-21" x="11.33" y="13.01" width="1.75" height="4.79" rx="0.87" transform="translate(-7.42 14.28) rotate(-48.33)" />
      <rect class="cls-22" x="14.53" y="9.81" width="1.75" height="4.79" rx="0.87" transform="translate(-4.21 13.33) rotate(-41.67)" />
      <rect class="cls-23" x="18.1" y="6.99" width="1.75" height="4.79" rx="0.87" transform="translate(-1.95 12.57) rotate(-34.99)" />
      <rect class="cls-24" x="21.98" y="4.6" width="1.75" height="4.79" rx="0.87" transform="translate(-0.59 11.65) rotate(-28.25)" />
      <rect class="cls-25" x="26.15" y="2.67" width="1.75" height="4.79" rx="0.87" transform="translate(0.02 10.22) rotate(-21.43)" />
      <rect class="cls-26" x="30.57" y="1.24" width="1.75" height="4.79" rx="0.87" transform="translate(0.09 8) rotate(-14.52)" />
      <rect class="cls-27" x="35.2" y="0.33" width="1.75" height="4.79" rx="0.87" transform="translate(-0.05 4.74) rotate(-7.51)" />
      <rect class="cls-28" x="40.01" width="1.75" height="4.79" rx="0.87" transform="translate(-0.02 0.32) rotate(-0.45)" />
      <rect class="cls-29" x="43.39" y="1.85" width="4.79" height="1.75" rx="0.87" transform="translate(36.55 47.64) rotate(-81.79)" />
      <rect class="cls-30" x="48.11" y="2.89" width="4.79" height="1.75" rx="0.87" transform="translate(32.56 51.12) rotate(-73.51)" />
      <rect class="cls-31" x="52.61" y="4.56" width="4.79" height="1.75" rx="0.87" transform="translate(27.53 53.39) rotate(-65.83)" />
      <rect class="cls-32" x="56.86" y="6.8" width="4.79" height="1.75" rx="0.87" transform="translate(21.96 54.35) rotate(-58.75)" />
      <rect class="cls-33" x="60.82" y="9.52" width="4.79" height="1.75" rx="0.87" transform="translate(16.25 53.97) rotate(-52.2)" />
      <rect class="cls-34" x="64.45" y="12.67" width="4.79" height="1.75" rx="0.87" transform="translate(10.7 52.27) rotate(-46.05)" />
      <rect class="cls-35" x="67.72" y="16.16" width="4.79" height="1.75" rx="0.87" transform="translate(5.54 49.24) rotate(-40.16)" />
      <rect class="cls-36" x="70.59" y="19.93" width="4.79" height="1.75" rx="0.87" transform="translate(1 44.84) rotate(-34.37)" />
      <rect class="cls-37" x="73.02" y="23.9" width="4.79" height="1.75" rx="0.87" transform="translate(-2.68 39) rotate(-28.51)" />
      <rect class="cls-38" x="74.97" y="27.99" width="4.79" height="1.75" rx="0.87" transform="translate(-5.16 31.63) rotate(-22.38)" />
      <rect class="cls-39" x="76.41" y="32.14" width="4.79" height="1.75" rx="0.87" transform="translate(-6 22.63) rotate(-15.75)" />
      <rect class="cls-40" x="77.3" y="36.28" width="4.79" height="1.75" rx="0.87" transform="translate(-4.56 12.02) rotate(-8.38)" />
      <rect class="cls-41" x="77.61" y="40.32" width="4.79" height="1.75" rx="0.87" />
      <path class="cls-42" d="M27.81,51.85a2.92,2.92,0,1,0,2.91,2.91A2.91,2.91,0,0,0,27.81,51.85Z" />
      <path class="cls-43" d="M53.52,43.06A13.07,13.07,0,0,0,65.21,26.37a1.45,1.45,0,0,0-2.43-.63l-2.52,2.52a4.29,4.29,0,0,1-5.94,0,4.21,4.21,0,0,1,0-6l2.52-2.52a1.45,1.45,0,0,0,.38-1.39,1.47,1.47,0,0,0-1-1A13.11,13.11,0,0,0,39.48,30a13.84,13.84,0,0,0,.17,2.11l-1.72,1.58-8.34-8.34a4.37,4.37,0,0,0-.85-5l-3.07-3.07a1.45,1.45,0,0,0-1-.42,1.47,1.47,0,0,0-1,.42L19.49,21.4a1.45,1.45,0,0,0,0,2.06l3.07,3.07a4.35,4.35,0,0,0,5,.85l8.24,8.24-14.15,13A8.75,8.75,0,1,0,34,60.9L44,50,55.77,61.8A5.83,5.83,0,0,0,64,53.56ZM26.68,24.47a1.49,1.49,0,0,1-2.06,0l-2-2,2.06-2.06,2,2A1.45,1.45,0,0,1,26.68,24.47Zm5.25,34.42a6,6,0,0,1-8.25,0,5.86,5.86,0,0,1,0-8.21l18.59-17,0,0a.52.52,0,0,0,.1-.11l.09-.11.07-.12.06-.13a.69.69,0,0,0,.05-.13l0-.13a.77.77,0,0,1,0-.15.57.57,0,0,1,0-.13s0-.1,0-.14,0-.1,0-.15a.13.13,0,0,0,0-.06A10.18,10.18,0,0,1,52.74,19.76l-.49.49A7.12,7.12,0,0,0,62.32,30.32l.49-.49V30A10.22,10.22,0,0,1,52.6,40.18a9.82,9.82,0,0,1-2.29-.27h-.06l-.16,0h-.28l-.12,0-.16,0-.11,0-.15.07-.1.06-.12.09-.11.1s0,0,0,0Zm30,.85a3,3,0,0,1-4.12,0L46.5,48.41l4.13-4.12L62,55.62a2.9,2.9,0,0,1,0,4.12Z" />
    </g>
  </g>
  <script type="text/javascript">
    const colors = ['#fff', '#f8feff', '#f2fdff', '#ebfcff', '#e5fbff', '#defbff', '#d8faff',
    '#d1f9ff', '#cbf8ff', '#c4f7ff', '#bef6ff', '#b7f5ff', '#b1f4ff', '#aaf3ff', '#a3f2ff', '#9df2ff',
    '#96f1ff', '#90f0ff', '#89efff', '#83eeff', '#7cedff', '#76ecff', '#6febff', '#69eaff', '#62e9ff',
    '#5ce9ff', '#55e8ff', '#4ee7ff', '#48e6ff', '#41e5ff', '#3be4ff', '#34e3ff', '#2ee2ff', '#27e1ff',
    '#21e0ff', '#1ae0ff', '#14dfff', '#0ddeff', '#07ddff', '#00dcff'];

    self.setInterval("clock()", 50);
    var start = colors.length - 1;
    console.log(colors.length);
    function clock() {
    for(var i = 0; i !== colors.length; i++) {
    document.querySelector('.cls-' + (i + 2)).style.fill =
    colors[((i + start) % colors.length)];
    }
    start === 0 ? start = colors.length - 1 : start--;
    }
  </script>
</svg>