<svg xmlns="http://www.w3.org/2000/svg" xmlns:xlink="http://www.w3.org/1999/xlink" viewBox="0 0 82.39 82.39">
  <defs>
    <style>
      .cls-1{fill:none;stroke-miterlimit:10;stroke-width:0.5px;
      stroke:url(#未命名的渐变_19);}.cls-2{fill:#fff;}.cls-3{fill:#f8feff;}.cls-4{fill:#f2fdff;}.cls-5{fill:#ebfcff;}.cls-6{fill:#e5fbff;}.cls-7{fill:#defbff;}.cls-8{fill:#d8faff;}.cls-9{fill:#d1f9ff;}.cls-10{fill:#cbf8ff;}.cls-11{fill:#c4f7ff;}.cls-12{fill:#bef6ff;}.cls-13{fill:#b7f5ff;}.cls-14{fill:#b1f4ff;}.cls-15{fill:#aaf3ff;}.cls-16{fill:#a3f2ff;}.cls-17{fill:#9df2ff;}.cls-18{fill:#96f1ff;}.cls-19{fill:#90f0ff;}.cls-20{fill:#89efff;}.cls-21{fill:#83eeff;}.cls-22{fill:#7cedff;}.cls-23{fill:#76ecff;}.cls-24{fill:#6febff;}.cls-25{fill:#69eaff;}.cls-26{fill:#62e9ff;}.cls-27{fill:#5ce9ff;}.cls-28{fill:#55e8ff;}.cls-29{fill:#4ee7ff;}.cls-30{fill:#48e6ff;}.cls-31{fill:#41e5ff;}.cls-32{fill:#3be4ff;}.cls-33{fill:#34e3ff;}.cls-34{fill:#2ee2ff;}.cls-35{fill:#27e1ff;}.cls-36{fill:#21e0ff;}.cls-37{fill:#1ae0ff;}.cls-38{fill:#14dfff;}.cls-39{fill:#0ddeff;}.cls-40{fill:#07ddff;}.cls-41{fill:#00dcff;}.cls-42{fill:url(#未命名的渐变_2);}.cls-43{fill:url(#未命名的渐变_2-2);}.cls-44{fill:url(#未命名的渐变_2-3);}
    </style>
    <linearGradient id="未命名的渐变_19" x1="-2587.75" y1="1572.58" x2="-2587.75" y2="1640.84" gradientTransform="translate(2628.74 -1565.59)" gradientUnits="userSpaceOnUse">
      <stop offset="0" stop-color="#00dcff"/>
      <stop offset="1" stop-color="#fff"/>
    </linearGradient>
    <linearGradient id="未命名的渐变_2" x1="42.07" y1="17.32" x2="42.07" y2="63.32" gradientUnits="userSpaceOnUse">
      <stop offset="0.26" stop-color="#00dcff"/>
      <stop offset="1" stop-color="#fff"/>
    </linearGradient>
    <linearGradient id="未命名的渐变_2-2" x1="58.5" y1="17.32" x2="58.5" y2="63.32" xlink:href="#未命名的渐变_2"/>
    <linearGradient id="未命名的渐变_2-3" x1="25.64" y1="17.32" x2="25.64" y2="63.32" xlink:href="#未命名的渐变_2"/>
  </defs>
  <g id="图层_2" data-name="图层 2">
    <g id="图层_1-2" data-name="图层 1">
      <path class="cls-1" d="M41,75A33.88,33.88,0,1,1,74.87,41.12,33.92,33.92,0,0,1,41,75Z"/>
      <rect class="cls-2" x="40.32" y="77.61" width="1.75" height="4.79" rx="0.87"/>
      <rect class="cls-3" x="34.76" y="78.82" width="4.79" height="1.75" rx="0.87" transform="translate(-47.11 104.83) rotate(-81.62)"/>
      <rect class="cls-4" x="30.62" y="77.93" width="4.79" height="1.75" rx="0.87" transform="translate(-51.79 89.18) rotate(-74.25)"/>
      <rect class="cls-5" x="26.47" y="76.49" width="4.79" height="1.75" rx="0.87" transform="translate(-53.66 74.6) rotate(-67.62)"/>
      <rect class="cls-6" x="22.38" y="74.54" width="4.79" height="1.75" rx="0.87" transform="translate(-53.32 61.18) rotate(-61.49)"/>
      <rect class="cls-7" x="18.41" y="72.11" width="4.79" height="1.75" rx="0.87" transform="translate(-51.18 48.95) rotate(-55.63)"/>
      <rect class="cls-8" x="14.64" y="69.24" width="4.79" height="1.75" rx="0.87" transform="translate(-47.53 37.91) rotate(-49.84)"/>
      <rect class="cls-9" x="11.15" y="65.97" width="4.79" height="1.75" rx="0.87" transform="translate(-42.6 28.12) rotate(-43.95)"/>
      <rect class="cls-10" x="8.01" y="62.34" width="4.79" height="1.75" rx="0.87" transform="translate(-36.56 19.64) rotate(-37.8)"/>
      <rect class="cls-11" x="5.28" y="58.38" width="4.79" height="1.75" rx="0.87" transform="translate(-29.63 12.58) rotate(-31.25)"/>
      <rect class="cls-12" x="3.04" y="54.13" width="4.79" height="1.75" rx="0.87" transform="translate(-22.05 7.05) rotate(-24.17)"/>
      <rect class="cls-13" x="1.37" y="49.63" width="4.79" height="1.75" rx="0.87" transform="translate(-14.18 3.15) rotate(-16.49)"/>
      <rect class="cls-14" x="0.33" y="44.91" width="4.79" height="1.75" rx="0.87" transform="translate(-6.51 0.86) rotate(-8.21)"/>
      <rect class="cls-15" x="1.52" y="38.49" width="1.75" height="4.79" rx="0.87" transform="translate(-38.51 42.95) rotate(-89.55)"/>
      <rect class="cls-16" x="1.85" y="33.68" width="1.75" height="4.79" rx="0.87" transform="translate(-33.39 34.06) rotate(-82.49)"/>
      <rect class="cls-17" x="2.75" y="29.05" width="1.75" height="4.79" rx="0.87" transform="matrix(0.25, -0.97, 0.97, 0.25, -27.72, 27.07)"/>
      <rect class="cls-18" x="4.19" y="24.63" width="1.75" height="4.79" rx="0.87" transform="translate(-21.94 21.86) rotate(-68.57)"/>
      <rect class="cls-19" x="6.12" y="20.46" width="1.75" height="4.79" rx="0.87" transform="translate(-16.45 18.2) rotate(-61.75)"/>
      <rect class="cls-20" x="8.51" y="16.58" width="1.75" height="4.79" rx="0.87" transform="translate(-11.54 15.78) rotate(-55.01)"/>
      <rect class="cls-21" x="11.33" y="13.01" width="1.75" height="4.79" rx="0.87" transform="translate(-7.42 14.28) rotate(-48.33)"/>
      <rect class="cls-22" x="14.53" y="9.81" width="1.75" height="4.79" rx="0.87" transform="translate(-4.21 13.33) rotate(-41.67)"/>
      <rect class="cls-23" x="18.1" y="6.99" width="1.75" height="4.79" rx="0.87" transform="translate(-1.95 12.57) rotate(-34.99)"/>
      <rect class="cls-24" x="21.98" y="4.6" width="1.75" height="4.79" rx="0.87" transform="translate(-0.59 11.65) rotate(-28.25)"/>
      <rect class="cls-25" x="26.15" y="2.67" width="1.75" height="4.79" rx="0.87" transform="translate(0.02 10.22) rotate(-21.43)"/>
      <rect class="cls-26" x="30.57" y="1.24" width="1.75" height="4.79" rx="0.87" transform="translate(0.09 8) rotate(-14.52)"/>
      <rect class="cls-27" x="35.2" y="0.33" width="1.75" height="4.79" rx="0.87" transform="translate(-0.05 4.74) rotate(-7.51)"/>
      <rect class="cls-28" x="40.01" width="1.75" height="4.79" rx="0.87" transform="translate(-0.02 0.32) rotate(-0.45)"/>
      <rect class="cls-29" x="43.39" y="1.85" width="4.79" height="1.75" rx="0.87" transform="translate(36.55 47.64) rotate(-81.79)"/>
      <rect class="cls-30" x="48.11" y="2.89" width="4.79" height="1.75" rx="0.87" transform="translate(32.56 51.12) rotate(-73.51)"/>
      <rect class="cls-31" x="52.61" y="4.56" width="4.79" height="1.75" rx="0.87" transform="translate(27.53 53.39) rotate(-65.83)"/>
      <rect class="cls-32" x="56.86" y="6.8" width="4.79" height="1.75" rx="0.87" transform="translate(21.96 54.35) rotate(-58.75)"/>
      <rect class="cls-33" x="60.82" y="9.52" width="4.79" height="1.75" rx="0.87" transform="translate(16.25 53.97) rotate(-52.2)"/>
      <rect class="cls-34" x="64.45" y="12.67" width="4.79" height="1.75" rx="0.87" transform="translate(10.7 52.27) rotate(-46.05)"/>
      <rect class="cls-35" x="67.72" y="16.16" width="4.79" height="1.75" rx="0.87" transform="translate(5.54 49.24) rotate(-40.16)"/>
      <rect class="cls-36" x="70.59" y="19.93" width="4.79" height="1.75" rx="0.87" transform="translate(1 44.84) rotate(-34.37)"/>
      <rect class="cls-37" x="73.02" y="23.9" width="4.79" height="1.75" rx="0.87" transform="translate(-2.68 39) rotate(-28.51)"/>
      <rect class="cls-38" x="74.97" y="27.99" width="4.79" height="1.75" rx="0.87" transform="translate(-5.16 31.63) rotate(-22.38)"/>
      <rect class="cls-39" x="76.41" y="32.14" width="4.79" height="1.75" rx="0.87" transform="matrix(0.96, -0.27, 0.27, 0.96, -6, 22.63)"/>
      <rect class="cls-40" x="77.3" y="36.28" width="4.79" height="1.75" rx="0.87" transform="translate(-4.56 12.02) rotate(-8.38)"/>
      <rect class="cls-41" x="77.61" y="40.32" width="4.79" height="1.75" rx="0.87"/>
      <path class="cls-42" d="M43.71,34V19a1.64,1.64,0,0,0-3.28,0V34a6.54,6.54,0,0,0,0,12.68v15a1.64,1.64,0,1,0,3.28,0v-15a6.54,6.54,0,0,0,0-12.68Z"/>
      <path class="cls-43" d="M65.07,23.89a6.57,6.57,0,1,0-8.17,6.36,1.6,1.6,0,0,0,0,.21V61.68a1.65,1.65,0,0,0,3.29,0V30.46a1.55,1.55,0,0,0,0-.21A6.58,6.58,0,0,0,65.07,23.89ZM58.5,27.18a3.29,3.29,0,1,1,3.29-3.29A3.29,3.29,0,0,1,58.5,27.18Z"/>
      <path class="cls-44" d="M27.24,50.4a1.7,1.7,0,0,0,0-.22V19A1.64,1.64,0,0,0,24,19V50.18a1.7,1.7,0,0,0,0,.22,6.57,6.57,0,1,0,3.2,0ZM25.64,60a3.29,3.29,0,1,1,3.29-3.29A3.3,3.3,0,0,1,25.64,60Z"/>
    </g>
  </g>
  <script type="text/javascript">
    const colors = ['#fff', '#f8feff', '#f2fdff', '#ebfcff', '#e5fbff', '#defbff', '#d8faff',
    '#d1f9ff', '#cbf8ff', '#c4f7ff', '#bef6ff', '#b7f5ff', '#b1f4ff', '#aaf3ff', '#a3f2ff', '#9df2ff',
    '#96f1ff', '#90f0ff', '#89efff', '#83eeff', '#7cedff', '#76ecff', '#6febff', '#69eaff', '#62e9ff',
    '#5ce9ff', '#55e8ff', '#4ee7ff', '#48e6ff', '#41e5ff', '#3be4ff', '#34e3ff', '#2ee2ff', '#27e1ff',
    '#21e0ff', '#1ae0ff', '#14dfff', '#0ddeff', '#07ddff', '#00dcff'];

    self.setInterval("clock()", 50);
    var start = colors.length - 1;
    console.log(colors.length);
    function clock() {
    for(var i = 0; i !== colors.length; i++) {
    document.querySelector('.cls-' + (i + 2)).style.fill =
    colors[((i + start) % colors.length)];
    }
    start === 0 ? start = colors.length - 1 : start--;
    }
  </script>
</svg>