<svg xmlns="http://www.w3.org/2000/svg" xmlns:xlink="http://www.w3.org/1999/xlink" viewBox="0 0 851.69 73.44">
  <defs>
    <style>.cls-1{isolation:isolate;}.cls-2{opacity:0.6;}
    .cls-3,.cls-4,.cls-5,.cls-6,.cls-7,.cls-8{mix-blend-mode:screen;}
    .cls-5,.cls-8{fill-rule:evenodd;}
  </style>
    <filter id="blurMe">
      <feGaussianBlur in="SourceGraphic" stdDeviation="7"></feGaussianBlur>
    </filter>
  </defs>
  <g class="cls-1">
    <g id="图层_2" data-name="图层 2">
      <g id="图层_2-2" data-name="图层 2">
        <g class="cls-2">
          <ellipse class="cls-3"
                   opacity="0.3" fill="#1039aa" filter="url(#blurMe)"
                   cx="306.92" cy="37.39" rx="306.93" ry="35.94" transform="matrix(1, -0.01, 0.01, 1, -0.33, 2.79)"/>
          <ellipse class="cls-4" 
                   opacity="0.3" fill="#092161" filter="url(#blurMe)"
                   cx="306.92" cy="37.39" rx="233.3" ry="27.32" transform="translate(-0.33 2.79) rotate(-0.52)"/>
          <path class="cls-5" 
                 opacity="0.3" fill="#1856ff" filter="url(#blurMe)"
                d="M306.76,19.75C390,19,457.45,26.28,457.54,36S390.27,54.27,307.08,55,156.38,48.5,156.29,38.76,223.57,20.51,306.76,19.75Z"/>
          <ellipse class="cls-6" 
                   opacity="0.3" fill="#1039aa" filter="url(#blurMe)"
                   cx="544.77" cy="36.05" rx="306.93" ry="35.94" transform="translate(-0.3 4.95) rotate(-0.52)"/>
          <ellipse class="cls-7" 
                   opacity="0.3" fill="#092161" filter="url(#blurMe)"
                   cx="544.77" cy="36.05" rx="233.3" ry="27.32" transform="matrix(1, -0.01, 0.01, 1, -0.3, 4.95)"/>
          <path class="cls-8" 
                opacity="0.3" fill="#1856ff" filter="url(#blurMe)"
                d="M544.61,18.41c83.19-.75,150.7,6.53,150.79,16.27s-67.28,18.25-150.47,19-150.7-6.53-150.78-16.27S461.42,19.17,544.61,18.41Z"/>
        </g>
      </g>
    </g>
  </g>
</svg>